%
M48
M72
T01C0.0118
T02C0.0400
T03C0.0551
T04C0.1181
T05C0.1260
%
T01
X4101Y8800
X4601Y8800
X5101Y8800
X5601Y8800
X5601Y9300
X5101Y9300
X4601Y9300
X4101Y9300
X4101Y12300
X4601Y12300
X5101Y12300
X5601Y12300
X5601Y12800
X5101Y12800
X4601Y12800
X4101Y12800
X7788Y16488
X8288Y16488
X9163Y16488
X9663Y16488
X11351Y17800
X11351Y18300
X11351Y19300
X11476Y19925
X9726Y19925
X9851Y19175
X9476Y17925
X7976Y17925
X7601Y19175
X6101Y19300
X5976Y19925
X5976Y18175
X9101Y21050
X9601Y22300
X11351Y22300
X11851Y22300
X10976Y23925
X10976Y24925
X9976Y25425
X8601Y25425
X7226Y26300
X5601Y26300
X5101Y26300
X4601Y26300
X4101Y26300
X4101Y26800
X4601Y26800
X5101Y26800
X5601Y26800
X6476Y28175
X7351Y28175
X7726Y27550
X6476Y29925
X11101Y27550
X12601Y27925
X14976Y29425
X13351Y29925
X12101Y29800
X14351Y31050
X15351Y32050
X14351Y33175
X12351Y32050
X10226Y33550
X9476Y33550
X9476Y34050
X10226Y34050
X16976Y30675
X17976Y30175
X16976Y28550
X18351Y27300
X18351Y26800
X18226Y25800
X19101Y24550
X19851Y23925
X19851Y23425
X20476Y22800
X19351Y22300
X18788Y22050
X18226Y23175
X17851Y23925
X16476Y24050
X16476Y23300
X16726Y22425
X14976Y23300
X14726Y22425
X16601Y20550
X16601Y19800
X17351Y17675
X16101Y17175
X15101Y17175
X15101Y16675
X17351Y16175
X18851Y17175
X13351Y15175
X12976Y15175
X12976Y12550
X13351Y12550
X21476Y12675
X23101Y12175
X24726Y12675
X26226Y17050
X26226Y17425
X27726Y17425
X27726Y17050
X33226Y21425
X37101Y21425
X37101Y20050
X43351Y22675
X45101Y22675
X49226Y21300
X47726Y19175
X52101Y19300
X52601Y19300
X53101Y19300
X53601Y19300
X53601Y19800
X53101Y19800
X52601Y19800
X52101Y19800
X52101Y22800
X52601Y22800
X53101Y22800
X53601Y22800
X53601Y23300
X53101Y23300
X52601Y23300
X52101Y23300
X52101Y26300
X52601Y26300
X53101Y26300
X53601Y26300
X53601Y26800
X53101Y26800
X52601Y26800
X52101Y26800
X49226Y28300
X47726Y26175
X52101Y29800
X52601Y29800
X53101Y29800
X53601Y29800
X53601Y30300
X53101Y30300
X52601Y30300
X52101Y30300
X34726Y28675
X34726Y28300
X34476Y27300
X33101Y29925
X33976Y30300
X33476Y30800
X31726Y30050
X30726Y29050
X29601Y30300
X29101Y30800
X28726Y29925
X27351Y30050
X26101Y29550
X26351Y29050
X25601Y27550
X25226Y27550
X27726Y27425
X27726Y27800
X29226Y27175
X30226Y26675
X30226Y26300
X28226Y26300
X28226Y26675
X28226Y24550
X30976Y24550
X23351Y22863
X22851Y22863
X19851Y26800
X16601Y25300
X13101Y25050
X11976Y25550
X7226Y22300
X5601Y22800
X5601Y23300
X5101Y23300
X5101Y22800
X4601Y22800
X4601Y23300
X4101Y23300
X4101Y22800
X23851Y32675
X23851Y33050
X25851Y33050
X25851Y32675
X27851Y32675
X27851Y33050
X29851Y33050
X29851Y32675
X31851Y32675
X31851Y33050
X33851Y33050
X33851Y32675
X52101Y16300
X52601Y16300
X53101Y16300
X53601Y16300
X53601Y15800
X53101Y15800
X52601Y15800
X52101Y15800
X49226Y14300
X47726Y12175
X52101Y12300
X52601Y12300
X53101Y12300
X53601Y12300
X53601Y12800
X53101Y12800
X52601Y12800
X52101Y12800
X52101Y9300
X52601Y9300
X53101Y9300
X53601Y9300
X53601Y8800
X53101Y8800
X52601Y8800
X52101Y8800
X52101Y5800
X52601Y5800
X53101Y5800
X53601Y5800
X53601Y5300
X53101Y5300
X52601Y5300
X52101Y5300
T02
X49226Y8925
X49226Y11675
X49226Y18675
X49226Y25675
X20101Y12300
X20101Y8925
T03
X39976Y27146
X39976Y28800
X39976Y30454
T04
X42161Y29627
X38460Y27146
T05
X5351Y1800
X52351Y1800
X52351Y33800
X5351Y33800
M30
