G75*
G70*
%OFA0B0*%
%FSLAX24Y24*%
%IPPOS*%
%LPD*%
%AMOC8*
5,1,8,0,0,1.08239X$1,22.5*
%
%ADD10R,0.0552X0.0297*%
%ADD11R,0.2080X0.0980*%
%ADD12R,0.0513X0.0474*%
%ADD13C,0.0780*%
%ADD14R,0.0595X0.0595*%
%ADD15C,0.0595*%
%ADD16R,0.0316X0.0946*%
%ADD17R,0.0474X0.0513*%
%ADD18R,0.0592X0.0671*%
%ADD19R,0.0671X0.0592*%
%ADD20C,0.2380*%
%ADD21R,0.0946X0.0316*%
%ADD22C,0.0820*%
%ADD23R,0.0352X0.0470*%
%ADD24C,0.0390*%
D10*
X009464Y020001D03*
X009464Y020375D03*
X009464Y020749D03*
X010487Y020749D03*
X010487Y020375D03*
X010487Y020001D03*
X012714Y020001D03*
X012714Y020375D03*
X012714Y020749D03*
X013737Y020749D03*
X013737Y020375D03*
X013737Y020001D03*
X016214Y020001D03*
X016214Y020375D03*
X016214Y020749D03*
X017237Y020749D03*
X017237Y020375D03*
X017237Y020001D03*
D11*
X004861Y004885D03*
X004861Y006625D03*
X004861Y008365D03*
X004861Y011885D03*
X004861Y013625D03*
X004861Y015365D03*
X004861Y018885D03*
X004861Y020625D03*
X004861Y022365D03*
X004861Y025885D03*
X004861Y027625D03*
X004861Y029365D03*
X004861Y032885D03*
X004861Y034625D03*
X004861Y036365D03*
D12*
X013351Y030210D03*
X013351Y029540D03*
X014226Y029540D03*
X014226Y030210D03*
X014476Y026335D03*
X014476Y025665D03*
X015351Y025665D03*
X015351Y026335D03*
X015060Y034625D03*
X014391Y034625D03*
X020851Y028710D03*
X020851Y028040D03*
X009310Y016375D03*
X008641Y016375D03*
X008641Y015500D03*
X009310Y015500D03*
X007601Y006085D03*
X007601Y005415D03*
X006726Y005415D03*
X006726Y006085D03*
D13*
X013351Y001125D03*
X019351Y001125D03*
X019351Y017125D03*
X013351Y017125D03*
X019351Y032875D03*
X019351Y034875D03*
X019351Y036875D03*
D14*
X019351Y002125D03*
D15*
X019351Y003125D03*
X019351Y004125D03*
X019351Y005125D03*
X019351Y006125D03*
X019351Y007125D03*
X019351Y008125D03*
X019351Y009125D03*
X019351Y010125D03*
X019351Y011125D03*
X019351Y012125D03*
X019351Y013125D03*
X019351Y014125D03*
X019351Y015125D03*
X019351Y016125D03*
X013351Y016125D03*
X013351Y015125D03*
X013351Y014125D03*
X013351Y013125D03*
X013351Y012125D03*
X013351Y011125D03*
X013351Y010125D03*
X013351Y009125D03*
X013351Y008125D03*
X013351Y007125D03*
X013351Y006125D03*
X013351Y005125D03*
X013351Y004125D03*
X013351Y003125D03*
X013351Y002125D03*
D16*
X014476Y031476D03*
X014976Y031476D03*
X015476Y031476D03*
X015976Y031476D03*
X015976Y033524D03*
X015476Y033524D03*
X014976Y033524D03*
X014476Y033524D03*
X009726Y033524D03*
X009226Y033524D03*
X008726Y033524D03*
X008226Y033524D03*
X008226Y031476D03*
X008726Y031476D03*
X009226Y031476D03*
X009726Y031476D03*
D17*
X010476Y032040D03*
X010476Y032710D03*
X010185Y034625D03*
X009516Y034625D03*
X008810Y034625D03*
X008141Y034625D03*
X007476Y032835D03*
X007476Y032165D03*
X008141Y030375D03*
X008141Y029500D03*
X008810Y029500D03*
X008810Y030375D03*
X011351Y026335D03*
X011351Y025665D03*
X013601Y025665D03*
X013601Y026335D03*
X011976Y020460D03*
X011976Y019790D03*
X008726Y019790D03*
X008726Y020460D03*
X015476Y020460D03*
X015476Y019790D03*
X021391Y010125D03*
X021391Y009125D03*
X022060Y009125D03*
X022060Y010125D03*
D18*
X015850Y030250D03*
X015102Y030250D03*
X015100Y035500D03*
X014352Y035500D03*
D19*
X016976Y032874D03*
X016976Y032126D03*
D20*
X022351Y039125D03*
X005351Y039125D03*
X005351Y002125D03*
X022351Y002125D03*
D21*
X009999Y011625D03*
X009999Y012125D03*
X009999Y012625D03*
X009999Y013125D03*
X009999Y013625D03*
X009999Y014125D03*
X009999Y014625D03*
X007952Y014625D03*
X007952Y014125D03*
X007952Y013625D03*
X007952Y013125D03*
X007952Y012625D03*
X007952Y012125D03*
X007952Y011625D03*
D22*
X016946Y025110D03*
X016946Y026890D03*
X019506Y026890D03*
X019506Y025110D03*
D23*
X012850Y025492D03*
X012476Y025492D03*
X012102Y025492D03*
X012102Y026512D03*
X012850Y026512D03*
D24*
X012851Y025000D03*
X011351Y025125D03*
X010476Y023250D03*
X010476Y022125D03*
X011976Y021000D03*
X012351Y021500D03*
X013101Y021500D03*
X012601Y019500D03*
X012601Y018375D03*
X010726Y013625D03*
X010726Y012625D03*
X008101Y015500D03*
X007226Y013125D03*
X007226Y011625D03*
X006726Y004875D03*
X016101Y018375D03*
X016101Y019500D03*
X015476Y021000D03*
X015851Y021500D03*
X015851Y022250D03*
X016601Y022250D03*
X016601Y021500D03*
X013351Y029000D03*
X014476Y032250D03*
X015476Y032250D03*
X016976Y031500D03*
X015601Y034625D03*
X011851Y033625D03*
X011851Y032500D03*
X010976Y032750D03*
X010226Y033875D03*
X007601Y029500D03*
X007476Y031625D03*
X008726Y021000D03*
M02*
