%
M48
M72
T01C0.0150
T02C0.0315
T03C0.0400
T04C0.0700
T05C0.1260
%
T01
X6726Y4875
X7226Y11625
X7226Y13125
X8101Y15500
X10726Y13625
X10726Y12625
X12601Y18375
X12601Y19500
X11976Y21000
X12351Y21500
X13101Y21500
X12851Y25000
X11351Y25125
X10476Y23250
X10476Y22125
X8726Y21000
X13351Y29000
X14476Y32250
X15476Y32250
X16976Y31500
X15601Y34625
X11851Y33625
X11851Y32500
X10976Y32750
X10226Y33875
X7601Y29500
X7476Y31625
X15476Y21000
X15851Y21500
X15851Y22250
X16601Y22250
X16601Y21500
X16101Y19500
X16101Y18375
T02
X13351Y16125
X13351Y15125
X13351Y14125
X13351Y13125
X13351Y12125
X13351Y11125
X13351Y10125
X13351Y9125
X13351Y8125
X13351Y7125
X13351Y6125
X13351Y5125
X13351Y4125
X13351Y3125
X13351Y2125
X19351Y2125
X19351Y3125
X19351Y4125
X19351Y5125
X19351Y6125
X19351Y7125
X19351Y8125
X19351Y9125
X19351Y10125
X19351Y11125
X19351Y12125
X19351Y13125
X19351Y14125
X19351Y15125
X19351Y16125
T03
X19506Y25110
X19506Y26890
X16946Y26890
X16946Y25110
X19351Y32875
X19351Y34875
X19351Y36875
T04
X19351Y17125
X13351Y17125
X13351Y1125
X19351Y1125
T05
X5351Y2125
X22351Y2125
X22351Y39125
X5351Y39125
M30
