G75*
G70*
%OFA0B0*%
%FSLAX24Y24*%
%IPPOS*%
%LPD*%
%AMOC8*
5,1,8,0,0,1.08239X$1,22.5*
%
%ADD10R,0.2000X0.0900*%
%ADD11R,0.0515X0.0515*%
%ADD12C,0.0515*%
%ADD13C,0.2300*%
%ADD14C,0.0700*%
%ADD15C,0.0740*%
%ADD16C,0.0160*%
%ADD17C,0.0310*%
D10*
X004861Y004885D03*
X004861Y008365D03*
X004861Y011885D03*
X004861Y015365D03*
X004861Y018885D03*
X004861Y022365D03*
X004861Y025885D03*
X004861Y029365D03*
X004861Y032885D03*
X004861Y036365D03*
D11*
X019351Y002125D03*
D12*
X019351Y003125D03*
X019351Y004125D03*
X019351Y005125D03*
X019351Y006125D03*
X019351Y007125D03*
X019351Y008125D03*
X019351Y009125D03*
X019351Y010125D03*
X019351Y011125D03*
X019351Y012125D03*
X019351Y013125D03*
X019351Y014125D03*
X019351Y015125D03*
X019351Y016125D03*
X013351Y016125D03*
X013351Y015125D03*
X013351Y014125D03*
X013351Y013125D03*
X013351Y012125D03*
X013351Y011125D03*
X013351Y010125D03*
X013351Y009125D03*
X013351Y008125D03*
X013351Y007125D03*
X013351Y006125D03*
X013351Y005125D03*
X013351Y004125D03*
X013351Y003125D03*
X013351Y002125D03*
D13*
X005351Y002125D03*
X022351Y002125D03*
X022351Y039125D03*
X005351Y039125D03*
D14*
X019351Y036875D03*
X019351Y034875D03*
X019351Y032875D03*
D15*
X019506Y026890D03*
X019506Y025110D03*
X016946Y025110D03*
X016946Y026890D03*
D16*
X004022Y001950D02*
X004050Y001845D01*
X004033Y001930D01*
X004022Y002045D01*
X005271Y002045D01*
X005431Y002045D01*
X005431Y002205D01*
X006679Y002205D01*
X006668Y002320D01*
X006642Y002449D01*
X006604Y002574D01*
X006554Y002694D01*
X006493Y002810D01*
X006420Y002918D01*
X006337Y003019D01*
X006245Y003112D01*
X006144Y003195D01*
X006035Y003267D01*
X005920Y003329D01*
X005799Y003379D01*
X005674Y003417D01*
X005546Y003442D01*
X005431Y003454D01*
X005431Y002205D01*
X005271Y002205D01*
X005271Y003454D01*
X005155Y003442D01*
X005027Y003417D01*
X004902Y003379D01*
X004781Y003329D01*
X004666Y003267D01*
X004557Y003195D01*
X004456Y003112D01*
X004364Y003019D01*
X004281Y002918D01*
X004208Y002810D01*
X004147Y002694D01*
X004097Y002574D01*
X004059Y002449D01*
X004033Y002320D01*
X004022Y002205D01*
X005271Y002205D01*
X005271Y002045D01*
X005271Y000796D01*
X005155Y000808D01*
X005070Y000825D01*
X005176Y000796D01*
X005351Y000785D01*
X012969Y000785D01*
X012918Y000836D01*
X012841Y001024D01*
X012841Y001226D01*
X012918Y001414D01*
X013062Y001557D01*
X013249Y001635D01*
X013452Y001635D01*
X013640Y001557D01*
X013783Y001414D01*
X013861Y001226D01*
X013861Y001024D01*
X013783Y000836D01*
X013732Y000785D01*
X018969Y000785D01*
X018918Y000836D01*
X018841Y001024D01*
X018841Y001226D01*
X018918Y001414D01*
X019062Y001557D01*
X019249Y001635D01*
X019452Y001635D01*
X019640Y001557D01*
X019783Y001414D01*
X019861Y001226D01*
X019861Y001024D01*
X019783Y000836D01*
X019732Y000785D01*
X022351Y000785D01*
X022526Y000796D01*
X022631Y000825D01*
X022546Y000808D01*
X022431Y000796D01*
X022431Y002045D01*
X022431Y002205D01*
X023679Y002205D01*
X023668Y002320D01*
X023642Y002449D01*
X023604Y002574D01*
X023554Y002694D01*
X023493Y002810D01*
X023420Y002918D01*
X023337Y003019D01*
X023245Y003112D01*
X023144Y003195D01*
X023035Y003267D01*
X022920Y003329D01*
X022799Y003379D01*
X022674Y003417D01*
X022546Y003442D01*
X022431Y003454D01*
X022431Y002205D01*
X022271Y002205D01*
X022271Y003454D01*
X022155Y003442D01*
X022027Y003417D01*
X021902Y003379D01*
X021781Y003329D01*
X021666Y003267D01*
X021557Y003195D01*
X021456Y003112D01*
X021364Y003019D01*
X021281Y002918D01*
X021208Y002810D01*
X021147Y002694D01*
X021097Y002574D01*
X021059Y002449D01*
X021033Y002320D01*
X021022Y002205D01*
X022271Y002205D01*
X022271Y002045D01*
X022431Y002045D01*
X023679Y002045D01*
X023668Y001930D01*
X023651Y001845D01*
X023679Y001950D01*
X023691Y002125D01*
X023691Y039125D01*
X023679Y039300D01*
X023651Y039405D01*
X023668Y039320D01*
X023679Y039205D01*
X022431Y039205D01*
X022431Y039045D01*
X023679Y039045D01*
X023668Y038930D01*
X023642Y038801D01*
X023604Y038676D01*
X023554Y038556D01*
X023493Y038440D01*
X023420Y038332D01*
X023337Y038231D01*
X023245Y038138D01*
X023144Y038055D01*
X023035Y037983D01*
X022920Y037921D01*
X022799Y037871D01*
X022674Y037833D01*
X022546Y037808D01*
X022431Y037796D01*
X022431Y039045D01*
X022271Y039045D01*
X022271Y037796D01*
X022155Y037808D01*
X022027Y037833D01*
X021902Y037871D01*
X021781Y037921D01*
X021666Y037983D01*
X021557Y038055D01*
X021456Y038138D01*
X021364Y038231D01*
X021281Y038332D01*
X021208Y038440D01*
X021147Y038556D01*
X021097Y038676D01*
X021059Y038801D01*
X021033Y038930D01*
X021022Y039045D01*
X022271Y039045D01*
X022271Y039205D01*
X022271Y040454D01*
X022155Y040442D01*
X022027Y040417D01*
X021902Y040379D01*
X021781Y040329D01*
X021666Y040267D01*
X021557Y040195D01*
X021456Y040112D01*
X021364Y040019D01*
X021281Y039918D01*
X021208Y039810D01*
X021147Y039694D01*
X021097Y039574D01*
X021059Y039449D01*
X021033Y039320D01*
X021022Y039205D01*
X022271Y039205D01*
X022431Y039205D01*
X022431Y040454D01*
X022546Y040442D01*
X022631Y040425D01*
X022526Y040454D01*
X022351Y040465D01*
X005351Y040465D01*
X005176Y040454D01*
X005070Y040425D01*
X005155Y040442D01*
X005271Y040454D01*
X005271Y039205D01*
X005431Y039205D01*
X006679Y039205D01*
X006668Y039320D01*
X006642Y039449D01*
X006604Y039574D01*
X006554Y039694D01*
X006493Y039810D01*
X006420Y039918D01*
X006337Y040019D01*
X006245Y040112D01*
X006144Y040195D01*
X006035Y040267D01*
X005920Y040329D01*
X005799Y040379D01*
X005674Y040417D01*
X005546Y040442D01*
X005431Y040454D01*
X005431Y039205D01*
X005431Y039045D01*
X006679Y039045D01*
X006668Y038930D01*
X006642Y038801D01*
X006604Y038676D01*
X006554Y038556D01*
X006493Y038440D01*
X006420Y038332D01*
X006337Y038231D01*
X006245Y038138D01*
X006144Y038055D01*
X006035Y037983D01*
X005920Y037921D01*
X005799Y037871D01*
X005674Y037833D01*
X005546Y037808D01*
X005431Y037796D01*
X005431Y039045D01*
X005271Y039045D01*
X005271Y037796D01*
X005155Y037808D01*
X005027Y037833D01*
X004902Y037871D01*
X004781Y037921D01*
X004666Y037983D01*
X004557Y038055D01*
X004456Y038138D01*
X004364Y038231D01*
X004281Y038332D01*
X004208Y038440D01*
X004147Y038556D01*
X004097Y038676D01*
X004059Y038801D01*
X004033Y038930D01*
X004022Y039045D01*
X005271Y039045D01*
X005271Y039205D01*
X004022Y039205D01*
X004033Y039320D01*
X004050Y039405D01*
X004022Y039300D01*
X004011Y039125D01*
X004011Y036995D01*
X004781Y036995D01*
X004781Y036445D01*
X004941Y036445D01*
X006041Y036445D01*
X006041Y036839D01*
X006028Y036884D01*
X006005Y036926D01*
X005971Y036959D01*
X005930Y036983D01*
X005884Y036995D01*
X004941Y036995D01*
X004941Y036445D01*
X004941Y036285D01*
X006041Y036285D01*
X006041Y035891D01*
X006028Y035846D01*
X006005Y035804D01*
X005971Y035771D01*
X005930Y035747D01*
X005884Y035735D01*
X004941Y035735D01*
X004941Y036285D01*
X004781Y036285D01*
X004781Y035735D01*
X004011Y035735D01*
X004011Y033515D01*
X004781Y033515D01*
X004781Y032965D01*
X004941Y032965D01*
X006041Y032965D01*
X006041Y033359D01*
X006028Y033404D01*
X006005Y033446D01*
X005971Y033479D01*
X005930Y033503D01*
X005884Y033515D01*
X004941Y033515D01*
X004941Y032965D01*
X004941Y032805D01*
X006041Y032805D01*
X006041Y032411D01*
X006028Y032366D01*
X006005Y032324D01*
X005971Y032291D01*
X005930Y032267D01*
X005884Y032255D01*
X004941Y032255D01*
X004941Y032805D01*
X004781Y032805D01*
X004781Y032255D01*
X004011Y032255D01*
X004011Y029995D01*
X004781Y029995D01*
X004781Y029445D01*
X004941Y029445D01*
X006041Y029445D01*
X006041Y029839D01*
X006028Y029884D01*
X006005Y029926D01*
X005971Y029959D01*
X005930Y029983D01*
X005884Y029995D01*
X004941Y029995D01*
X004941Y029445D01*
X004941Y029285D01*
X006041Y029285D01*
X006041Y028891D01*
X006028Y028846D01*
X006005Y028804D01*
X005971Y028771D01*
X005930Y028747D01*
X005884Y028735D01*
X004941Y028735D01*
X004941Y029285D01*
X004781Y029285D01*
X004781Y028735D01*
X004011Y028735D01*
X004011Y026515D01*
X004781Y026515D01*
X004781Y025965D01*
X004941Y025965D01*
X006041Y025965D01*
X006041Y026359D01*
X006028Y026404D01*
X006005Y026446D01*
X005971Y026479D01*
X005930Y026503D01*
X005884Y026515D01*
X004941Y026515D01*
X004941Y025965D01*
X004941Y025805D01*
X006041Y025805D01*
X006041Y025411D01*
X006028Y025366D01*
X006005Y025324D01*
X005971Y025291D01*
X005930Y025267D01*
X005884Y025255D01*
X004941Y025255D01*
X004941Y025805D01*
X004781Y025805D01*
X004781Y025255D01*
X004011Y025255D01*
X004011Y022995D01*
X004781Y022995D01*
X004781Y022445D01*
X004941Y022445D01*
X006041Y022445D01*
X006041Y022839D01*
X006028Y022884D01*
X006005Y022926D01*
X005971Y022959D01*
X005930Y022983D01*
X005884Y022995D01*
X004941Y022995D01*
X004941Y022445D01*
X004941Y022285D01*
X006041Y022285D01*
X006041Y021891D01*
X006028Y021846D01*
X006005Y021804D01*
X005971Y021771D01*
X005930Y021747D01*
X005884Y021735D01*
X004941Y021735D01*
X004941Y022285D01*
X004781Y022285D01*
X004781Y021735D01*
X004011Y021735D01*
X004011Y019515D01*
X004781Y019515D01*
X004781Y018965D01*
X004941Y018965D01*
X006041Y018965D01*
X006041Y019359D01*
X006028Y019404D01*
X006005Y019446D01*
X005971Y019479D01*
X005930Y019503D01*
X005884Y019515D01*
X004941Y019515D01*
X004941Y018965D01*
X004941Y018805D01*
X006041Y018805D01*
X006041Y018411D01*
X006028Y018366D01*
X006005Y018324D01*
X005971Y018291D01*
X005930Y018267D01*
X005884Y018255D01*
X004941Y018255D01*
X004941Y018805D01*
X004781Y018805D01*
X004781Y018255D01*
X004011Y018255D01*
X004011Y015995D01*
X004781Y015995D01*
X004781Y015445D01*
X004941Y015445D01*
X006041Y015445D01*
X006041Y015839D01*
X006028Y015884D01*
X006005Y015926D01*
X005971Y015959D01*
X005930Y015983D01*
X005884Y015995D01*
X004941Y015995D01*
X004941Y015445D01*
X004941Y015285D01*
X006041Y015285D01*
X006041Y014891D01*
X006028Y014846D01*
X006005Y014804D01*
X005971Y014771D01*
X005930Y014747D01*
X005884Y014735D01*
X004941Y014735D01*
X004941Y015285D01*
X004781Y015285D01*
X004781Y014735D01*
X004011Y014735D01*
X004011Y012515D01*
X004781Y012515D01*
X004781Y011965D01*
X004941Y011965D01*
X006041Y011965D01*
X006041Y012359D01*
X006028Y012404D01*
X006005Y012446D01*
X005971Y012479D01*
X005930Y012503D01*
X005884Y012515D01*
X004941Y012515D01*
X004941Y011965D01*
X004941Y011805D01*
X006041Y011805D01*
X006041Y011411D01*
X006028Y011366D01*
X006005Y011324D01*
X005971Y011291D01*
X005930Y011267D01*
X005884Y011255D01*
X004941Y011255D01*
X004941Y011805D01*
X004781Y011805D01*
X004781Y011255D01*
X004011Y011255D01*
X004011Y008995D01*
X004781Y008995D01*
X004781Y008445D01*
X004941Y008445D01*
X006041Y008445D01*
X006041Y008839D01*
X006028Y008884D01*
X006005Y008926D01*
X005971Y008959D01*
X005930Y008983D01*
X005884Y008995D01*
X004941Y008995D01*
X004941Y008445D01*
X004941Y008285D01*
X006041Y008285D01*
X006041Y007891D01*
X006028Y007846D01*
X006005Y007804D01*
X005971Y007771D01*
X005930Y007747D01*
X005884Y007735D01*
X004941Y007735D01*
X004941Y008285D01*
X004781Y008285D01*
X004781Y007735D01*
X004011Y007735D01*
X004011Y005515D01*
X004781Y005515D01*
X004781Y004965D01*
X004941Y004965D01*
X006041Y004965D01*
X006041Y005359D01*
X006028Y005404D01*
X006005Y005446D01*
X005971Y005479D01*
X005930Y005503D01*
X005884Y005515D01*
X004941Y005515D01*
X004941Y004965D01*
X004941Y004805D01*
X006041Y004805D01*
X006041Y004411D01*
X006028Y004366D01*
X006005Y004324D01*
X005971Y004291D01*
X005930Y004267D01*
X005884Y004255D01*
X004941Y004255D01*
X004941Y004805D01*
X004781Y004805D01*
X004781Y004255D01*
X004011Y004255D01*
X004011Y002125D01*
X004022Y001950D01*
X004037Y001893D02*
X004041Y001893D01*
X004015Y002052D02*
X005271Y002052D01*
X005271Y002210D02*
X005431Y002210D01*
X005431Y002052D02*
X012933Y002052D01*
X012933Y002042D02*
X012933Y002208D01*
X012997Y002361D01*
X013114Y002479D01*
X013268Y002542D01*
X013434Y002542D01*
X013587Y002479D01*
X013705Y002361D01*
X013768Y002208D01*
X013768Y002042D01*
X013705Y001889D01*
X013587Y001771D01*
X013434Y001708D01*
X013268Y001708D01*
X013114Y001771D01*
X012997Y001889D01*
X012933Y002042D01*
X012995Y001893D02*
X006661Y001893D01*
X006668Y001930D02*
X006679Y002045D01*
X005431Y002045D01*
X005431Y000796D01*
X005546Y000808D01*
X005674Y000833D01*
X005799Y000871D01*
X005920Y000921D01*
X006035Y000983D01*
X006144Y001055D01*
X006245Y001138D01*
X006337Y001231D01*
X006420Y001332D01*
X006493Y001440D01*
X006554Y001556D01*
X006604Y001676D01*
X006642Y001801D01*
X006668Y001930D01*
X006622Y001735D02*
X013202Y001735D01*
X013107Y001576D02*
X006563Y001576D01*
X006477Y001418D02*
X012922Y001418D01*
X012854Y001259D02*
X006360Y001259D01*
X006199Y001101D02*
X012841Y001101D01*
X012874Y000942D02*
X005959Y000942D01*
X005431Y000942D02*
X005271Y000942D01*
X005271Y001101D02*
X005431Y001101D01*
X005431Y001259D02*
X005271Y001259D01*
X005271Y001418D02*
X005431Y001418D01*
X005431Y001576D02*
X005271Y001576D01*
X005271Y001735D02*
X005431Y001735D01*
X005431Y001893D02*
X005271Y001893D01*
X005271Y002369D02*
X005431Y002369D01*
X005431Y002527D02*
X005271Y002527D01*
X005271Y002686D02*
X005431Y002686D01*
X005431Y002844D02*
X005271Y002844D01*
X005271Y003003D02*
X005431Y003003D01*
X005431Y003161D02*
X005271Y003161D01*
X005271Y003320D02*
X005431Y003320D01*
X005937Y003320D02*
X012979Y003320D01*
X012997Y003361D02*
X012933Y003208D01*
X012933Y003042D01*
X012997Y002889D01*
X013114Y002771D01*
X013268Y002708D01*
X013434Y002708D01*
X013587Y002771D01*
X013705Y002889D01*
X013768Y003042D01*
X013768Y003208D01*
X013705Y003361D01*
X013587Y003479D01*
X013434Y003542D01*
X013268Y003542D01*
X013114Y003479D01*
X012997Y003361D01*
X013113Y003478D02*
X004011Y003478D01*
X004011Y003320D02*
X004764Y003320D01*
X004517Y003161D02*
X004011Y003161D01*
X004011Y003003D02*
X004350Y003003D01*
X004231Y002844D02*
X004011Y002844D01*
X004011Y002686D02*
X004143Y002686D01*
X004083Y002527D02*
X004011Y002527D01*
X004011Y002369D02*
X004043Y002369D01*
X004023Y002210D02*
X004011Y002210D01*
X004011Y003637D02*
X023691Y003637D01*
X023691Y003795D02*
X019611Y003795D01*
X019587Y003771D02*
X019705Y003889D01*
X019768Y004042D01*
X019768Y004208D01*
X019705Y004361D01*
X019587Y004479D01*
X019434Y004542D01*
X019268Y004542D01*
X019114Y004479D01*
X018997Y004361D01*
X018933Y004208D01*
X018933Y004042D01*
X018997Y003889D01*
X019114Y003771D01*
X019268Y003708D01*
X019434Y003708D01*
X019587Y003771D01*
X019731Y003954D02*
X023691Y003954D01*
X023691Y004112D02*
X019768Y004112D01*
X019742Y004271D02*
X023691Y004271D01*
X023691Y004429D02*
X019637Y004429D01*
X019527Y004746D02*
X023691Y004746D01*
X023691Y004588D02*
X006041Y004588D01*
X006041Y004746D02*
X013175Y004746D01*
X013114Y004771D02*
X013268Y004708D01*
X013434Y004708D01*
X013587Y004771D01*
X013705Y004889D01*
X013768Y005042D01*
X013768Y005208D01*
X013705Y005361D01*
X013587Y005479D01*
X013434Y005542D01*
X013268Y005542D01*
X013114Y005479D01*
X012997Y005361D01*
X012933Y005208D01*
X012933Y005042D01*
X012997Y004889D01*
X013114Y004771D01*
X012990Y004905D02*
X004941Y004905D01*
X004941Y005063D02*
X004781Y005063D01*
X004781Y005222D02*
X004941Y005222D01*
X004941Y005380D02*
X004781Y005380D01*
X004781Y004746D02*
X004941Y004746D01*
X004941Y004588D02*
X004781Y004588D01*
X004781Y004429D02*
X004941Y004429D01*
X004941Y004271D02*
X004781Y004271D01*
X004011Y004112D02*
X012933Y004112D01*
X012933Y004042D02*
X012933Y004208D01*
X012997Y004361D01*
X013114Y004479D01*
X013268Y004542D01*
X013434Y004542D01*
X013587Y004479D01*
X013705Y004361D01*
X013768Y004208D01*
X013768Y004042D01*
X013705Y003889D01*
X013587Y003771D01*
X013434Y003708D01*
X013268Y003708D01*
X013114Y003771D01*
X012997Y003889D01*
X012933Y004042D01*
X012970Y003954D02*
X004011Y003954D01*
X004011Y003795D02*
X013090Y003795D01*
X012959Y004271D02*
X005936Y004271D01*
X006041Y004429D02*
X013064Y004429D01*
X013527Y004746D02*
X019175Y004746D01*
X019114Y004771D02*
X019268Y004708D01*
X019434Y004708D01*
X019587Y004771D01*
X019705Y004889D01*
X019768Y005042D01*
X019768Y005208D01*
X019705Y005361D01*
X019587Y005479D01*
X019434Y005542D01*
X019268Y005542D01*
X019114Y005479D01*
X018997Y005361D01*
X018933Y005208D01*
X018933Y005042D01*
X018997Y004889D01*
X019114Y004771D01*
X018990Y004905D02*
X013711Y004905D01*
X013768Y005063D02*
X018933Y005063D01*
X018939Y005222D02*
X013763Y005222D01*
X013686Y005380D02*
X019015Y005380D01*
X019258Y005539D02*
X013443Y005539D01*
X013434Y005708D02*
X013587Y005771D01*
X013705Y005889D01*
X013768Y006042D01*
X013768Y006208D01*
X013705Y006361D01*
X013587Y006479D01*
X013434Y006542D01*
X013268Y006542D01*
X013114Y006479D01*
X012997Y006361D01*
X012933Y006208D01*
X012933Y006042D01*
X012997Y005889D01*
X013114Y005771D01*
X013268Y005708D01*
X013434Y005708D01*
X013258Y005539D02*
X004011Y005539D01*
X004011Y005697D02*
X023691Y005697D01*
X023691Y005539D02*
X019443Y005539D01*
X019434Y005708D02*
X019587Y005771D01*
X019705Y005889D01*
X019768Y006042D01*
X019768Y006208D01*
X019705Y006361D01*
X019587Y006479D01*
X019434Y006542D01*
X019268Y006542D01*
X019114Y006479D01*
X018997Y006361D01*
X018933Y006208D01*
X018933Y006042D01*
X018997Y005889D01*
X019114Y005771D01*
X019268Y005708D01*
X019434Y005708D01*
X019672Y005856D02*
X023691Y005856D01*
X023691Y006014D02*
X019757Y006014D01*
X019768Y006173D02*
X023691Y006173D01*
X023691Y006331D02*
X019717Y006331D01*
X019562Y006490D02*
X023691Y006490D01*
X023691Y006648D02*
X004011Y006648D01*
X004011Y006490D02*
X013140Y006490D01*
X012984Y006331D02*
X004011Y006331D01*
X004011Y006173D02*
X012933Y006173D01*
X012945Y006014D02*
X004011Y006014D01*
X004011Y005856D02*
X013030Y005856D01*
X013015Y005380D02*
X006035Y005380D01*
X006041Y005222D02*
X012939Y005222D01*
X012933Y005063D02*
X006041Y005063D01*
X006185Y003161D02*
X012933Y003161D01*
X012949Y003003D02*
X006351Y003003D01*
X006470Y002844D02*
X013041Y002844D01*
X013230Y002527D02*
X006619Y002527D01*
X006658Y002369D02*
X013004Y002369D01*
X012934Y002210D02*
X006679Y002210D01*
X006558Y002686D02*
X021143Y002686D01*
X021083Y002527D02*
X019690Y002527D01*
X019674Y002542D02*
X019768Y002449D01*
X019768Y001801D01*
X019674Y001708D01*
X019027Y001708D01*
X018933Y001801D01*
X018933Y002449D01*
X019027Y002542D01*
X019674Y002542D01*
X019768Y002369D02*
X021043Y002369D01*
X021023Y002210D02*
X019768Y002210D01*
X019768Y002052D02*
X022271Y002052D01*
X022271Y002045D02*
X021022Y002045D01*
X021033Y001930D01*
X021059Y001801D01*
X021097Y001676D01*
X021147Y001556D01*
X021208Y001440D01*
X021281Y001332D01*
X021364Y001231D01*
X021456Y001138D01*
X021557Y001055D01*
X021666Y000983D01*
X021781Y000921D01*
X021902Y000871D01*
X022027Y000833D01*
X022155Y000808D01*
X022271Y000796D01*
X022271Y002045D01*
X022271Y001893D02*
X022431Y001893D01*
X022431Y001735D02*
X022271Y001735D01*
X022271Y001576D02*
X022431Y001576D01*
X022431Y001418D02*
X022271Y001418D01*
X022271Y001259D02*
X022431Y001259D01*
X022431Y001101D02*
X022271Y001101D01*
X022271Y000942D02*
X022431Y000942D01*
X021742Y000942D02*
X019827Y000942D01*
X019861Y001101D02*
X021502Y001101D01*
X021341Y001259D02*
X019847Y001259D01*
X019779Y001418D02*
X021224Y001418D01*
X021138Y001576D02*
X019595Y001576D01*
X019701Y001735D02*
X021079Y001735D01*
X021041Y001893D02*
X019768Y001893D01*
X019107Y001576D02*
X013595Y001576D01*
X013499Y001735D02*
X019000Y001735D01*
X018933Y001893D02*
X013706Y001893D01*
X013768Y002052D02*
X018933Y002052D01*
X018933Y002210D02*
X013767Y002210D01*
X013698Y002369D02*
X018933Y002369D01*
X019011Y002527D02*
X013471Y002527D01*
X013660Y002844D02*
X019041Y002844D01*
X018997Y002889D02*
X019114Y002771D01*
X019268Y002708D01*
X019434Y002708D01*
X019587Y002771D01*
X019705Y002889D01*
X019768Y003042D01*
X019768Y003208D01*
X019705Y003361D01*
X019587Y003479D01*
X019434Y003542D01*
X019268Y003542D01*
X019114Y003479D01*
X018997Y003361D01*
X018933Y003208D01*
X018933Y003042D01*
X018997Y002889D01*
X018949Y003003D02*
X013752Y003003D01*
X013768Y003161D02*
X018933Y003161D01*
X018979Y003320D02*
X013722Y003320D01*
X013588Y003478D02*
X019113Y003478D01*
X019090Y003795D02*
X013611Y003795D01*
X013731Y003954D02*
X018970Y003954D01*
X018933Y004112D02*
X013768Y004112D01*
X013742Y004271D02*
X018959Y004271D01*
X019064Y004429D02*
X013637Y004429D01*
X013672Y005856D02*
X019030Y005856D01*
X018945Y006014D02*
X013757Y006014D01*
X013768Y006173D02*
X018933Y006173D01*
X018984Y006331D02*
X013717Y006331D01*
X013562Y006490D02*
X019140Y006490D01*
X019268Y006708D02*
X019434Y006708D01*
X019587Y006771D01*
X019705Y006889D01*
X019768Y007042D01*
X019768Y007208D01*
X019705Y007361D01*
X019587Y007479D01*
X019434Y007542D01*
X019268Y007542D01*
X019114Y007479D01*
X018997Y007361D01*
X018933Y007208D01*
X018933Y007042D01*
X018997Y006889D01*
X019114Y006771D01*
X019268Y006708D01*
X019079Y006807D02*
X013623Y006807D01*
X013587Y006771D02*
X013705Y006889D01*
X013768Y007042D01*
X013768Y007208D01*
X013705Y007361D01*
X013587Y007479D01*
X013434Y007542D01*
X013268Y007542D01*
X013114Y007479D01*
X012997Y007361D01*
X012933Y007208D01*
X012933Y007042D01*
X012997Y006889D01*
X013114Y006771D01*
X013268Y006708D01*
X013434Y006708D01*
X013587Y006771D01*
X013736Y006965D02*
X018965Y006965D01*
X018933Y007124D02*
X013768Y007124D01*
X013737Y007282D02*
X018964Y007282D01*
X019076Y007441D02*
X013626Y007441D01*
X013554Y007758D02*
X019147Y007758D01*
X019114Y007771D02*
X019268Y007708D01*
X019434Y007708D01*
X019587Y007771D01*
X019705Y007889D01*
X019768Y008042D01*
X019768Y008208D01*
X019705Y008361D01*
X019587Y008479D01*
X019434Y008542D01*
X019268Y008542D01*
X019114Y008479D01*
X018997Y008361D01*
X018933Y008208D01*
X018933Y008042D01*
X018997Y007889D01*
X019114Y007771D01*
X018985Y007916D02*
X013716Y007916D01*
X013705Y007889D02*
X013768Y008042D01*
X013768Y008208D01*
X013705Y008361D01*
X013587Y008479D01*
X013434Y008542D01*
X013268Y008542D01*
X013114Y008479D01*
X012997Y008361D01*
X012933Y008208D01*
X012933Y008042D01*
X012997Y007889D01*
X013114Y007771D01*
X013268Y007708D01*
X013434Y007708D01*
X013587Y007771D01*
X013705Y007889D01*
X013768Y008075D02*
X018933Y008075D01*
X018943Y008233D02*
X013758Y008233D01*
X013675Y008392D02*
X019027Y008392D01*
X019114Y008771D02*
X018997Y008889D01*
X018933Y009042D01*
X018933Y009208D01*
X018997Y009361D01*
X019114Y009479D01*
X019268Y009542D01*
X019434Y009542D01*
X019587Y009479D01*
X019705Y009361D01*
X019768Y009208D01*
X019768Y009042D01*
X019705Y008889D01*
X019587Y008771D01*
X019434Y008708D01*
X019268Y008708D01*
X019114Y008771D01*
X019018Y008867D02*
X013683Y008867D01*
X013705Y008889D02*
X013768Y009042D01*
X013768Y009208D01*
X013705Y009361D01*
X013587Y009479D01*
X013434Y009542D01*
X013268Y009542D01*
X013114Y009479D01*
X012997Y009361D01*
X012933Y009208D01*
X012933Y009042D01*
X012997Y008889D01*
X013114Y008771D01*
X013268Y008708D01*
X013434Y008708D01*
X013587Y008771D01*
X013705Y008889D01*
X013761Y009026D02*
X018940Y009026D01*
X018933Y009184D02*
X013768Y009184D01*
X013712Y009343D02*
X018989Y009343D01*
X019167Y009501D02*
X013534Y009501D01*
X013434Y009708D02*
X013587Y009771D01*
X013705Y009889D01*
X013768Y010042D01*
X013768Y010208D01*
X013705Y010361D01*
X013587Y010479D01*
X013434Y010542D01*
X013268Y010542D01*
X013114Y010479D01*
X012997Y010361D01*
X012933Y010208D01*
X012933Y010042D01*
X012997Y009889D01*
X013114Y009771D01*
X013268Y009708D01*
X013434Y009708D01*
X013634Y009818D02*
X019067Y009818D01*
X019114Y009771D02*
X018997Y009889D01*
X018933Y010042D01*
X018933Y010208D01*
X018997Y010361D01*
X019114Y010479D01*
X019268Y010542D01*
X019434Y010542D01*
X019587Y010479D01*
X019705Y010361D01*
X019768Y010208D01*
X019768Y010042D01*
X019705Y009889D01*
X019587Y009771D01*
X019434Y009708D01*
X019268Y009708D01*
X019114Y009771D01*
X018960Y009977D02*
X013741Y009977D01*
X013768Y010135D02*
X018933Y010135D01*
X018969Y010294D02*
X013733Y010294D01*
X013614Y010452D02*
X019087Y010452D01*
X019268Y010708D02*
X019434Y010708D01*
X019587Y010771D01*
X019705Y010889D01*
X019768Y011042D01*
X019768Y011208D01*
X019705Y011361D01*
X019587Y011479D01*
X019434Y011542D01*
X019268Y011542D01*
X019114Y011479D01*
X018997Y011361D01*
X018933Y011208D01*
X018933Y011042D01*
X018997Y010889D01*
X019114Y010771D01*
X019268Y010708D01*
X019119Y010769D02*
X013582Y010769D01*
X013587Y010771D02*
X013705Y010889D01*
X013768Y011042D01*
X013768Y011208D01*
X013705Y011361D01*
X013587Y011479D01*
X013434Y011542D01*
X013268Y011542D01*
X013114Y011479D01*
X012997Y011361D01*
X012933Y011208D01*
X012933Y011042D01*
X012997Y010889D01*
X013114Y010771D01*
X013268Y010708D01*
X013434Y010708D01*
X013587Y010771D01*
X013721Y010928D02*
X018981Y010928D01*
X018933Y011086D02*
X013768Y011086D01*
X013753Y011245D02*
X018948Y011245D01*
X019038Y011403D02*
X013663Y011403D01*
X013464Y011720D02*
X019237Y011720D01*
X019268Y011708D02*
X019434Y011708D01*
X019587Y011771D01*
X019705Y011889D01*
X019768Y012042D01*
X019768Y012208D01*
X019705Y012361D01*
X019587Y012479D01*
X019434Y012542D01*
X019268Y012542D01*
X019114Y012479D01*
X018997Y012361D01*
X018933Y012208D01*
X018933Y012042D01*
X018997Y011889D01*
X019114Y011771D01*
X019268Y011708D01*
X019464Y011720D02*
X023691Y011720D01*
X023691Y011562D02*
X006041Y011562D01*
X006041Y011720D02*
X013237Y011720D01*
X013268Y011708D02*
X013434Y011708D01*
X013587Y011771D01*
X013705Y011889D01*
X013768Y012042D01*
X013768Y012208D01*
X013705Y012361D01*
X013587Y012479D01*
X013434Y012542D01*
X013268Y012542D01*
X013114Y012479D01*
X012997Y012361D01*
X012933Y012208D01*
X012933Y012042D01*
X012997Y011889D01*
X013114Y011771D01*
X013268Y011708D01*
X013007Y011879D02*
X004941Y011879D01*
X004941Y012037D02*
X004781Y012037D01*
X004781Y012196D02*
X004941Y012196D01*
X004941Y012354D02*
X004781Y012354D01*
X004781Y012513D02*
X004941Y012513D01*
X004941Y011720D02*
X004781Y011720D01*
X004781Y011562D02*
X004941Y011562D01*
X004941Y011403D02*
X004781Y011403D01*
X004011Y011245D02*
X012948Y011245D01*
X012933Y011086D02*
X004011Y011086D01*
X004011Y010928D02*
X012981Y010928D01*
X013119Y010769D02*
X004011Y010769D01*
X004011Y010611D02*
X023691Y010611D01*
X023691Y010769D02*
X019582Y010769D01*
X019721Y010928D02*
X023691Y010928D01*
X023691Y011086D02*
X019768Y011086D01*
X019753Y011245D02*
X023691Y011245D01*
X023691Y011403D02*
X019663Y011403D01*
X019695Y011879D02*
X023691Y011879D01*
X023691Y012037D02*
X019766Y012037D01*
X019768Y012196D02*
X023691Y012196D01*
X023691Y012354D02*
X019708Y012354D01*
X019506Y012513D02*
X023691Y012513D01*
X023691Y012671D02*
X004011Y012671D01*
X004011Y012830D02*
X013027Y012830D01*
X013017Y012840D02*
X013066Y012791D01*
X013121Y012751D01*
X013183Y012720D01*
X013248Y012698D01*
X013316Y012688D01*
X013351Y012688D01*
X013385Y012688D01*
X013453Y012698D01*
X013519Y012720D01*
X013580Y012751D01*
X013636Y012791D01*
X013684Y012840D01*
X013725Y012896D01*
X013756Y012957D01*
X013777Y013023D01*
X013788Y013091D01*
X013788Y013125D01*
X013788Y013159D01*
X013777Y013227D01*
X013756Y013293D01*
X013725Y013354D01*
X013684Y013410D01*
X013636Y013459D01*
X013580Y013499D01*
X013519Y013530D01*
X013453Y013552D01*
X013385Y013562D01*
X013351Y013562D01*
X013351Y013125D01*
X013788Y013125D01*
X013351Y013125D01*
X013351Y013125D01*
X013351Y013125D01*
X013351Y012688D01*
X013351Y013125D01*
X013351Y013125D01*
X013351Y013562D01*
X013316Y013562D01*
X013248Y013552D01*
X013183Y013530D01*
X013121Y013499D01*
X013066Y013459D01*
X013017Y013410D01*
X012976Y013354D01*
X012945Y013293D01*
X012924Y013227D01*
X012913Y013159D01*
X012913Y013125D01*
X013351Y013125D01*
X012913Y013125D01*
X012913Y013091D01*
X012924Y013023D01*
X012945Y012957D01*
X012976Y012896D01*
X013017Y012840D01*
X012935Y012988D02*
X004011Y012988D01*
X004011Y013147D02*
X012913Y013147D01*
X012951Y013305D02*
X004011Y013305D01*
X004011Y013464D02*
X013072Y013464D01*
X013351Y013464D02*
X013351Y013464D01*
X013351Y013305D02*
X013351Y013305D01*
X013351Y013147D02*
X013351Y013147D01*
X013351Y013125D02*
X013351Y013125D01*
X013351Y012988D02*
X013351Y012988D01*
X013351Y012830D02*
X013351Y012830D01*
X013674Y012830D02*
X019056Y012830D01*
X019114Y012771D02*
X018997Y012889D01*
X018933Y013042D01*
X018933Y013208D01*
X018997Y013361D01*
X019114Y013479D01*
X019268Y013542D01*
X019434Y013542D01*
X019587Y013479D01*
X019705Y013361D01*
X019768Y013208D01*
X019768Y013042D01*
X019705Y012889D01*
X019587Y012771D01*
X019434Y012708D01*
X019268Y012708D01*
X019114Y012771D01*
X018955Y012988D02*
X013766Y012988D01*
X013788Y013147D02*
X018933Y013147D01*
X018973Y013305D02*
X013750Y013305D01*
X013629Y013464D02*
X019099Y013464D01*
X019268Y013708D02*
X019434Y013708D01*
X019587Y013771D01*
X019705Y013889D01*
X019768Y014042D01*
X019768Y014208D01*
X019705Y014361D01*
X019587Y014479D01*
X019434Y014542D01*
X019268Y014542D01*
X019114Y014479D01*
X018997Y014361D01*
X018933Y014208D01*
X018933Y014042D01*
X018997Y013889D01*
X019114Y013771D01*
X019268Y013708D01*
X019105Y013781D02*
X013597Y013781D01*
X013587Y013771D02*
X013705Y013889D01*
X013768Y014042D01*
X013768Y014208D01*
X013705Y014361D01*
X013587Y014479D01*
X013434Y014542D01*
X013268Y014542D01*
X013114Y014479D01*
X012997Y014361D01*
X012933Y014208D01*
X012933Y014042D01*
X012997Y013889D01*
X013114Y013771D01*
X013268Y013708D01*
X013434Y013708D01*
X013587Y013771D01*
X013725Y013939D02*
X018976Y013939D01*
X018933Y014098D02*
X013768Y014098D01*
X013748Y014256D02*
X018953Y014256D01*
X019050Y014415D02*
X013652Y014415D01*
X013492Y014732D02*
X019159Y014732D01*
X019183Y014720D02*
X019248Y014698D01*
X019316Y014688D01*
X019351Y014688D01*
X019385Y014688D01*
X019453Y014698D01*
X019519Y014720D01*
X019580Y014751D01*
X019636Y014791D01*
X019684Y014840D01*
X019725Y014896D01*
X019756Y014957D01*
X019777Y015023D01*
X019788Y015091D01*
X019788Y015125D01*
X019788Y015159D01*
X019777Y015227D01*
X019756Y015293D01*
X019725Y015354D01*
X019684Y015410D01*
X019636Y015459D01*
X019580Y015499D01*
X019519Y015530D01*
X019453Y015552D01*
X019385Y015562D01*
X019351Y015562D01*
X019351Y015125D01*
X019788Y015125D01*
X019351Y015125D01*
X019351Y015125D01*
X019351Y015125D01*
X019351Y014688D01*
X019351Y015125D01*
X019351Y015125D01*
X019351Y015562D01*
X019316Y015562D01*
X019248Y015552D01*
X019183Y015530D01*
X019121Y015499D01*
X019066Y015459D01*
X019017Y015410D01*
X018976Y015354D01*
X018945Y015293D01*
X018924Y015227D01*
X018913Y015159D01*
X018913Y015125D01*
X019351Y015125D01*
X018913Y015125D01*
X018913Y015091D01*
X018924Y015023D01*
X018945Y014957D01*
X018976Y014896D01*
X019017Y014840D01*
X019066Y014791D01*
X019121Y014751D01*
X019183Y014720D01*
X019351Y014732D02*
X019351Y014732D01*
X019351Y014890D02*
X019351Y014890D01*
X019351Y015049D02*
X019351Y015049D01*
X019351Y015125D02*
X019351Y015125D01*
X019351Y015207D02*
X019351Y015207D01*
X019351Y015366D02*
X019351Y015366D01*
X019351Y015524D02*
X019351Y015524D01*
X019531Y015524D02*
X023691Y015524D01*
X023691Y015366D02*
X019717Y015366D01*
X019781Y015207D02*
X023691Y015207D01*
X023691Y015049D02*
X019781Y015049D01*
X019721Y014890D02*
X023691Y014890D01*
X023691Y014732D02*
X019542Y014732D01*
X019652Y014415D02*
X023691Y014415D01*
X023691Y014573D02*
X004011Y014573D01*
X004011Y014415D02*
X013050Y014415D01*
X012953Y014256D02*
X004011Y014256D01*
X004011Y014098D02*
X012933Y014098D01*
X012976Y013939D02*
X004011Y013939D01*
X004011Y013781D02*
X013105Y013781D01*
X013268Y014708D02*
X013434Y014708D01*
X013587Y014771D01*
X013705Y014889D01*
X013768Y015042D01*
X013768Y015208D01*
X013705Y015361D01*
X013587Y015479D01*
X013434Y015542D01*
X013268Y015542D01*
X013114Y015479D01*
X012997Y015361D01*
X012933Y015208D01*
X012933Y015042D01*
X012997Y014889D01*
X013114Y014771D01*
X013268Y014708D01*
X013210Y014732D02*
X004011Y014732D01*
X004011Y013622D02*
X023691Y013622D01*
X023691Y013464D02*
X019603Y013464D01*
X019728Y013305D02*
X023691Y013305D01*
X023691Y013147D02*
X019768Y013147D01*
X019746Y012988D02*
X023691Y012988D01*
X023691Y012830D02*
X019646Y012830D01*
X019195Y012513D02*
X013506Y012513D01*
X013708Y012354D02*
X018994Y012354D01*
X018933Y012196D02*
X013768Y012196D01*
X013766Y012037D02*
X018935Y012037D01*
X019007Y011879D02*
X013695Y011879D01*
X013195Y012513D02*
X005894Y012513D01*
X006041Y012354D02*
X012994Y012354D01*
X012933Y012196D02*
X006041Y012196D01*
X006041Y012037D02*
X012935Y012037D01*
X013038Y011403D02*
X006038Y011403D01*
X006033Y008867D02*
X013018Y008867D01*
X012940Y009026D02*
X004011Y009026D01*
X004011Y009184D02*
X012933Y009184D01*
X012989Y009343D02*
X004011Y009343D01*
X004011Y009501D02*
X013167Y009501D01*
X013067Y009818D02*
X004011Y009818D01*
X004011Y009660D02*
X023691Y009660D01*
X023691Y009818D02*
X019634Y009818D01*
X019741Y009977D02*
X023691Y009977D01*
X023691Y010135D02*
X019768Y010135D01*
X019733Y010294D02*
X023691Y010294D01*
X023691Y010452D02*
X019614Y010452D01*
X019534Y009501D02*
X023691Y009501D01*
X023691Y009343D02*
X019712Y009343D01*
X019768Y009184D02*
X023691Y009184D01*
X023691Y009026D02*
X019761Y009026D01*
X019683Y008867D02*
X023691Y008867D01*
X023691Y008709D02*
X019436Y008709D01*
X019265Y008709D02*
X013436Y008709D01*
X013265Y008709D02*
X006041Y008709D01*
X006041Y008550D02*
X023691Y008550D01*
X023691Y008392D02*
X019675Y008392D01*
X019758Y008233D02*
X023691Y008233D01*
X023691Y008075D02*
X019768Y008075D01*
X019716Y007916D02*
X023691Y007916D01*
X023691Y007758D02*
X019554Y007758D01*
X019626Y007441D02*
X023691Y007441D01*
X023691Y007599D02*
X004011Y007599D01*
X004011Y007441D02*
X013076Y007441D01*
X012964Y007282D02*
X004011Y007282D01*
X004011Y007124D02*
X012933Y007124D01*
X012965Y006965D02*
X004011Y006965D01*
X004011Y006807D02*
X013079Y006807D01*
X013147Y007758D02*
X005948Y007758D01*
X006041Y007916D02*
X012985Y007916D01*
X012933Y008075D02*
X006041Y008075D01*
X006041Y008233D02*
X012943Y008233D01*
X013027Y008392D02*
X004941Y008392D01*
X004941Y008550D02*
X004781Y008550D01*
X004781Y008709D02*
X004941Y008709D01*
X004941Y008867D02*
X004781Y008867D01*
X004781Y008233D02*
X004941Y008233D01*
X004941Y008075D02*
X004781Y008075D01*
X004781Y007916D02*
X004941Y007916D01*
X004941Y007758D02*
X004781Y007758D01*
X004011Y009977D02*
X012960Y009977D01*
X012933Y010135D02*
X004011Y010135D01*
X004011Y010294D02*
X012969Y010294D01*
X013087Y010452D02*
X004011Y010452D01*
X004781Y014890D02*
X004941Y014890D01*
X004941Y015049D02*
X004781Y015049D01*
X004781Y015207D02*
X004941Y015207D01*
X004941Y015366D02*
X013001Y015366D01*
X012933Y015207D02*
X006041Y015207D01*
X006041Y015049D02*
X012933Y015049D01*
X012996Y014890D02*
X006040Y014890D01*
X006041Y015524D02*
X013223Y015524D01*
X013268Y015708D02*
X013434Y015708D01*
X013587Y015771D01*
X013705Y015889D01*
X013768Y016042D01*
X013768Y016208D01*
X013705Y016361D01*
X013587Y016479D01*
X013434Y016542D01*
X013268Y016542D01*
X013114Y016479D01*
X012997Y016361D01*
X012933Y016208D01*
X012933Y016042D01*
X012997Y015889D01*
X013114Y015771D01*
X013268Y015708D01*
X013044Y015841D02*
X006040Y015841D01*
X006041Y015683D02*
X023691Y015683D01*
X023691Y015841D02*
X019657Y015841D01*
X019705Y015889D02*
X019768Y016042D01*
X019768Y016208D01*
X019705Y016361D01*
X019587Y016479D01*
X019434Y016542D01*
X019268Y016542D01*
X019114Y016479D01*
X018997Y016361D01*
X018933Y016208D01*
X018933Y016042D01*
X018997Y015889D01*
X019114Y015771D01*
X019268Y015708D01*
X019434Y015708D01*
X019587Y015771D01*
X019705Y015889D01*
X019751Y016000D02*
X023691Y016000D01*
X023691Y016158D02*
X019768Y016158D01*
X019723Y016317D02*
X023691Y016317D01*
X023691Y016475D02*
X019591Y016475D01*
X019497Y016634D02*
X023691Y016634D01*
X023691Y016792D02*
X019739Y016792D01*
X019783Y016836D02*
X019861Y017024D01*
X019861Y017226D01*
X019783Y017414D01*
X019640Y017557D01*
X019452Y017635D01*
X019249Y017635D01*
X019062Y017557D01*
X018918Y017414D01*
X018841Y017226D01*
X018841Y017024D01*
X018918Y016836D01*
X019062Y016693D01*
X019249Y016615D01*
X019452Y016615D01*
X019640Y016693D01*
X019783Y016836D01*
X019830Y016951D02*
X023691Y016951D01*
X023691Y017109D02*
X019861Y017109D01*
X019844Y017268D02*
X023691Y017268D01*
X023691Y017426D02*
X019771Y017426D01*
X019574Y017585D02*
X023691Y017585D01*
X023691Y017743D02*
X004011Y017743D01*
X004011Y017585D02*
X013127Y017585D01*
X013062Y017557D02*
X012918Y017414D01*
X012841Y017226D01*
X012841Y017024D01*
X012918Y016836D01*
X013062Y016693D01*
X013249Y016615D01*
X013452Y016615D01*
X013640Y016693D01*
X013783Y016836D01*
X013861Y017024D01*
X013861Y017226D01*
X013783Y017414D01*
X013640Y017557D01*
X013452Y017635D01*
X013249Y017635D01*
X013062Y017557D01*
X012930Y017426D02*
X004011Y017426D01*
X004011Y017268D02*
X012858Y017268D01*
X012841Y017109D02*
X004011Y017109D01*
X004011Y016951D02*
X012871Y016951D01*
X012962Y016792D02*
X004011Y016792D01*
X004011Y016634D02*
X013204Y016634D01*
X013110Y016475D02*
X004011Y016475D01*
X004011Y016317D02*
X012978Y016317D01*
X012933Y016158D02*
X004011Y016158D01*
X004011Y016000D02*
X012951Y016000D01*
X013478Y015524D02*
X019170Y015524D01*
X018985Y015366D02*
X013701Y015366D01*
X013768Y015207D02*
X018921Y015207D01*
X018920Y015049D02*
X013768Y015049D01*
X013705Y014890D02*
X018981Y014890D01*
X019044Y015841D02*
X013657Y015841D01*
X013751Y016000D02*
X018951Y016000D01*
X018933Y016158D02*
X013768Y016158D01*
X013723Y016317D02*
X018978Y016317D01*
X019110Y016475D02*
X013591Y016475D01*
X013497Y016634D02*
X019204Y016634D01*
X018962Y016792D02*
X013739Y016792D01*
X013830Y016951D02*
X018871Y016951D01*
X018841Y017109D02*
X013861Y017109D01*
X013844Y017268D02*
X018858Y017268D01*
X018930Y017426D02*
X013771Y017426D01*
X013574Y017585D02*
X019127Y017585D01*
X019748Y014256D02*
X023691Y014256D01*
X023691Y014098D02*
X019768Y014098D01*
X019725Y013939D02*
X023691Y013939D01*
X023691Y013781D02*
X019597Y013781D01*
X016279Y018108D02*
X016368Y018197D01*
X016416Y018312D01*
X016416Y018438D01*
X016368Y018553D01*
X016341Y018580D01*
X016341Y019295D01*
X016368Y019322D01*
X016416Y019437D01*
X016416Y019563D01*
X016368Y019678D01*
X016279Y019767D01*
X016163Y019815D01*
X016038Y019815D01*
X015922Y019767D01*
X015834Y019678D01*
X015786Y019563D01*
X015786Y019437D01*
X015834Y019322D01*
X015861Y019295D01*
X015861Y018580D01*
X015834Y018553D01*
X015786Y018438D01*
X015786Y018312D01*
X015834Y018197D01*
X015922Y018108D01*
X016038Y018060D01*
X016163Y018060D01*
X016279Y018108D01*
X016163Y018060D02*
X023691Y018060D01*
X023691Y017902D02*
X004011Y017902D01*
X004011Y018060D02*
X012538Y018060D01*
X012663Y018060D01*
X012779Y018108D01*
X012868Y018197D01*
X012916Y018312D01*
X012916Y018438D01*
X012868Y018553D01*
X012841Y018580D01*
X012841Y019295D01*
X012868Y019322D01*
X012916Y019437D01*
X012916Y019563D01*
X012868Y019678D01*
X012779Y019767D01*
X012663Y019815D01*
X012538Y019815D01*
X012422Y019767D01*
X012334Y019678D01*
X012286Y019563D01*
X012286Y019437D01*
X012334Y019322D01*
X012361Y019295D01*
X012361Y018580D01*
X012334Y018553D01*
X012286Y018438D01*
X012286Y018312D01*
X012334Y018197D01*
X012422Y018108D01*
X012538Y018060D01*
X012663Y018060D02*
X016038Y018060D01*
X015824Y018219D02*
X012877Y018219D01*
X012916Y018377D02*
X015786Y018377D01*
X015826Y018536D02*
X012875Y018536D01*
X012841Y018694D02*
X015861Y018694D01*
X015861Y018853D02*
X012841Y018853D01*
X012841Y019011D02*
X015861Y019011D01*
X015861Y019170D02*
X012841Y019170D01*
X012870Y019328D02*
X015831Y019328D01*
X015786Y019487D02*
X012916Y019487D01*
X012882Y019645D02*
X015820Y019645D01*
X016010Y019804D02*
X012691Y019804D01*
X012510Y019804D02*
X004011Y019804D01*
X004011Y019962D02*
X023691Y019962D01*
X023691Y019804D02*
X016191Y019804D01*
X016382Y019645D02*
X023691Y019645D01*
X023691Y019487D02*
X016416Y019487D01*
X016370Y019328D02*
X023691Y019328D01*
X023691Y019170D02*
X016341Y019170D01*
X016341Y019011D02*
X023691Y019011D01*
X023691Y018853D02*
X016341Y018853D01*
X016341Y018694D02*
X023691Y018694D01*
X023691Y018536D02*
X016375Y018536D01*
X016416Y018377D02*
X023691Y018377D01*
X023691Y018219D02*
X016377Y018219D01*
X016101Y018375D02*
X016101Y019500D01*
X015913Y021185D02*
X016029Y021233D01*
X016056Y021260D01*
X016395Y021260D01*
X016422Y021233D01*
X016538Y021185D01*
X016663Y021185D01*
X016779Y021233D01*
X016868Y021322D01*
X016916Y021437D01*
X016916Y021563D01*
X016868Y021678D01*
X016779Y021767D01*
X016663Y021815D01*
X016538Y021815D01*
X016422Y021767D01*
X016395Y021740D01*
X016056Y021740D01*
X016029Y021767D01*
X015913Y021815D01*
X015788Y021815D01*
X015672Y021767D01*
X015584Y021678D01*
X015536Y021563D01*
X015536Y021437D01*
X015584Y021322D01*
X015672Y021233D01*
X015788Y021185D01*
X015913Y021185D01*
X016022Y021230D02*
X016429Y021230D01*
X016601Y021500D02*
X015851Y021500D01*
X015556Y021389D02*
X013395Y021389D01*
X013416Y021437D02*
X013416Y021563D01*
X013368Y021678D01*
X013279Y021767D01*
X013163Y021815D01*
X013038Y021815D01*
X012922Y021767D01*
X012895Y021740D01*
X012556Y021740D01*
X012529Y021767D01*
X012413Y021815D01*
X012288Y021815D01*
X012172Y021767D01*
X012084Y021678D01*
X012036Y021563D01*
X012036Y021437D01*
X012084Y021322D01*
X012172Y021233D01*
X012288Y021185D01*
X012413Y021185D01*
X012529Y021233D01*
X012556Y021260D01*
X012895Y021260D01*
X012922Y021233D01*
X013038Y021185D01*
X013163Y021185D01*
X013279Y021233D01*
X013368Y021322D01*
X013416Y021437D01*
X013416Y021547D02*
X015536Y021547D01*
X015611Y021706D02*
X013341Y021706D01*
X013101Y021500D02*
X012351Y021500D01*
X012111Y021706D02*
X004011Y021706D01*
X004011Y021547D02*
X012036Y021547D01*
X012056Y021389D02*
X004011Y021389D01*
X004011Y021230D02*
X012179Y021230D01*
X012522Y021230D02*
X012929Y021230D01*
X013272Y021230D02*
X015679Y021230D01*
X015788Y021935D02*
X015672Y021983D01*
X015584Y022072D01*
X015536Y022187D01*
X015536Y022313D01*
X015584Y022428D01*
X015672Y022517D01*
X015788Y022565D01*
X015913Y022565D01*
X016029Y022517D01*
X016056Y022490D01*
X016395Y022490D01*
X016422Y022517D01*
X016538Y022565D01*
X016663Y022565D01*
X016779Y022517D01*
X016868Y022428D01*
X016916Y022313D01*
X016916Y022187D01*
X016868Y022072D01*
X016779Y021983D01*
X016663Y021935D01*
X016538Y021935D01*
X016422Y021983D01*
X016395Y022010D01*
X016056Y022010D01*
X016029Y021983D01*
X015913Y021935D01*
X015788Y021935D01*
X015633Y022023D02*
X010774Y022023D01*
X010791Y022062D02*
X010791Y022188D01*
X010743Y022303D01*
X010716Y022330D01*
X010716Y023045D01*
X010743Y023072D01*
X010791Y023187D01*
X010791Y023313D01*
X010743Y023428D01*
X010654Y023517D01*
X010538Y023565D01*
X010413Y023565D01*
X010297Y023517D01*
X010209Y023428D01*
X010161Y023313D01*
X010161Y023187D01*
X010209Y023072D01*
X010236Y023045D01*
X010236Y022330D01*
X010209Y022303D01*
X010161Y022188D01*
X010161Y022062D01*
X010209Y021947D01*
X010297Y021858D01*
X010413Y021810D01*
X010538Y021810D01*
X010654Y021858D01*
X010743Y021947D01*
X010791Y022062D01*
X010791Y022181D02*
X015538Y022181D01*
X015547Y022340D02*
X010716Y022340D01*
X010716Y022498D02*
X015653Y022498D01*
X015851Y022250D02*
X016601Y022250D01*
X016819Y022023D02*
X023691Y022023D01*
X023691Y022181D02*
X016913Y022181D01*
X016904Y022340D02*
X023691Y022340D01*
X023691Y022498D02*
X016798Y022498D01*
X016841Y021706D02*
X023691Y021706D01*
X023691Y021864D02*
X010660Y021864D01*
X010476Y022125D02*
X010476Y023250D01*
X010768Y023132D02*
X023691Y023132D01*
X023691Y022974D02*
X010716Y022974D01*
X010716Y022815D02*
X023691Y022815D01*
X023691Y022657D02*
X010716Y022657D01*
X010791Y023291D02*
X023691Y023291D01*
X023691Y023449D02*
X010722Y023449D01*
X010229Y023449D02*
X004011Y023449D01*
X004011Y023291D02*
X010161Y023291D01*
X010184Y023132D02*
X004011Y023132D01*
X004011Y023608D02*
X023691Y023608D01*
X023691Y023766D02*
X004011Y023766D01*
X004011Y023925D02*
X023691Y023925D01*
X023691Y024083D02*
X004011Y024083D01*
X004011Y024242D02*
X023691Y024242D01*
X023691Y024400D02*
X004011Y024400D01*
X004011Y024559D02*
X023691Y024559D01*
X023691Y024717D02*
X019862Y024717D01*
X019806Y024661D02*
X019955Y024810D01*
X020036Y025005D01*
X020036Y025215D01*
X019955Y025410D01*
X019806Y025559D01*
X019611Y025640D01*
X019400Y025640D01*
X019205Y025559D01*
X019056Y025410D01*
X018976Y025215D01*
X018976Y025005D01*
X019056Y024810D01*
X019205Y024661D01*
X019400Y024580D01*
X019611Y024580D01*
X019806Y024661D01*
X019982Y024876D02*
X023691Y024876D01*
X023691Y025034D02*
X020036Y025034D01*
X020036Y025193D02*
X023691Y025193D01*
X023691Y025351D02*
X019979Y025351D01*
X019856Y025510D02*
X023691Y025510D01*
X023691Y025668D02*
X006041Y025668D01*
X006041Y025510D02*
X016596Y025510D01*
X016645Y025559D02*
X016496Y025410D01*
X016416Y025215D01*
X016416Y025005D01*
X016496Y024810D01*
X016645Y024661D01*
X016840Y024580D01*
X017051Y024580D01*
X017246Y024661D01*
X017395Y024810D01*
X017476Y025005D01*
X017476Y025215D01*
X017395Y025410D01*
X017246Y025559D01*
X017051Y025640D01*
X016840Y025640D01*
X016645Y025559D01*
X016472Y025351D02*
X006020Y025351D01*
X006041Y025985D02*
X023691Y025985D01*
X023691Y025827D02*
X004941Y025827D01*
X004941Y025985D02*
X004781Y025985D01*
X004781Y026144D02*
X004941Y026144D01*
X004941Y026302D02*
X004781Y026302D01*
X004781Y026461D02*
X004941Y026461D01*
X004941Y025668D02*
X004781Y025668D01*
X004781Y025510D02*
X004941Y025510D01*
X004941Y025351D02*
X004781Y025351D01*
X004011Y025193D02*
X016416Y025193D01*
X016416Y025034D02*
X004011Y025034D01*
X004011Y024876D02*
X016469Y024876D01*
X016589Y024717D02*
X004011Y024717D01*
X004781Y022974D02*
X004941Y022974D01*
X004941Y022815D02*
X004781Y022815D01*
X004781Y022657D02*
X004941Y022657D01*
X004941Y022498D02*
X004781Y022498D01*
X004941Y022340D02*
X010236Y022340D01*
X010236Y022498D02*
X006041Y022498D01*
X006041Y022657D02*
X010236Y022657D01*
X010236Y022815D02*
X006041Y022815D01*
X005946Y022974D02*
X010236Y022974D01*
X010161Y022181D02*
X006041Y022181D01*
X006041Y022023D02*
X010177Y022023D01*
X010291Y021864D02*
X006033Y021864D01*
X004941Y021864D02*
X004781Y021864D01*
X004781Y022023D02*
X004941Y022023D01*
X004941Y022181D02*
X004781Y022181D01*
X004011Y021072D02*
X023691Y021072D01*
X023691Y021230D02*
X016772Y021230D01*
X016895Y021389D02*
X023691Y021389D01*
X023691Y021547D02*
X016916Y021547D01*
X016403Y022498D02*
X016048Y022498D01*
X017302Y024717D02*
X019149Y024717D01*
X019029Y024876D02*
X017422Y024876D01*
X017476Y025034D02*
X018976Y025034D01*
X018976Y025193D02*
X017476Y025193D01*
X017419Y025351D02*
X019032Y025351D01*
X019156Y025510D02*
X017296Y025510D01*
X017074Y026354D02*
X017157Y026380D01*
X017234Y026420D01*
X017304Y026470D01*
X017365Y026532D01*
X017416Y026602D01*
X017455Y026679D01*
X017482Y026761D01*
X017496Y026847D01*
X017496Y026870D01*
X016966Y026870D01*
X016966Y026910D01*
X017496Y026910D01*
X017496Y026933D01*
X017482Y027019D01*
X017455Y027101D01*
X017416Y027178D01*
X017365Y027248D01*
X017304Y027310D01*
X017234Y027360D01*
X017157Y027400D01*
X017074Y027426D01*
X016989Y027440D01*
X016966Y027440D01*
X016966Y026910D01*
X016926Y026910D01*
X016926Y027440D01*
X016902Y027440D01*
X016817Y027426D01*
X016735Y027400D01*
X016657Y027360D01*
X016587Y027310D01*
X016526Y027248D01*
X016475Y027178D01*
X016436Y027101D01*
X016409Y027019D01*
X016396Y026933D01*
X016396Y026910D01*
X016926Y026910D01*
X016926Y026870D01*
X016966Y026870D01*
X016966Y026340D01*
X016989Y026340D01*
X017074Y026354D01*
X016926Y026340D02*
X016926Y026870D01*
X016396Y026870D01*
X016396Y026847D01*
X016409Y026761D01*
X016436Y026679D01*
X016475Y026602D01*
X016526Y026532D01*
X016587Y026470D01*
X016657Y026420D01*
X016735Y026380D01*
X016817Y026354D01*
X016902Y026340D01*
X016926Y026340D01*
X016926Y026461D02*
X016966Y026461D01*
X016966Y026619D02*
X016926Y026619D01*
X016926Y026778D02*
X016966Y026778D01*
X016966Y026936D02*
X016926Y026936D01*
X016926Y027095D02*
X016966Y027095D01*
X016966Y027253D02*
X016926Y027253D01*
X016926Y027412D02*
X016966Y027412D01*
X017120Y027412D02*
X019331Y027412D01*
X019295Y027400D02*
X019377Y027426D01*
X019462Y027440D01*
X019486Y027440D01*
X019486Y026910D01*
X019526Y026910D01*
X020056Y026910D01*
X020056Y026933D01*
X020042Y027019D01*
X020015Y027101D01*
X019976Y027178D01*
X019925Y027248D01*
X019864Y027310D01*
X019794Y027360D01*
X019717Y027400D01*
X019634Y027426D01*
X019549Y027440D01*
X019526Y027440D01*
X019526Y026910D01*
X019526Y026870D01*
X020056Y026870D01*
X020056Y026847D01*
X020042Y026761D01*
X020015Y026679D01*
X019976Y026602D01*
X019925Y026532D01*
X019864Y026470D01*
X019794Y026420D01*
X019717Y026380D01*
X019634Y026354D01*
X019549Y026340D01*
X019526Y026340D01*
X019526Y026870D01*
X019486Y026870D01*
X019486Y026340D01*
X019462Y026340D01*
X019377Y026354D01*
X019295Y026380D01*
X019217Y026420D01*
X019147Y026470D01*
X019086Y026532D01*
X019035Y026602D01*
X018996Y026679D01*
X018969Y026761D01*
X018956Y026847D01*
X018956Y026870D01*
X019486Y026870D01*
X019486Y026910D01*
X018956Y026910D01*
X018956Y026933D01*
X018969Y027019D01*
X018996Y027101D01*
X019035Y027178D01*
X019086Y027248D01*
X019147Y027310D01*
X019217Y027360D01*
X019295Y027400D01*
X019486Y027412D02*
X019526Y027412D01*
X019680Y027412D02*
X023691Y027412D01*
X023691Y027570D02*
X004011Y027570D01*
X004011Y027412D02*
X016771Y027412D01*
X016531Y027253D02*
X004011Y027253D01*
X004011Y027095D02*
X016434Y027095D01*
X016396Y026936D02*
X004011Y026936D01*
X004011Y026778D02*
X016407Y026778D01*
X016466Y026619D02*
X004011Y026619D01*
X004011Y027729D02*
X023691Y027729D01*
X023691Y027887D02*
X004011Y027887D01*
X004011Y028046D02*
X023691Y028046D01*
X023691Y028204D02*
X004011Y028204D01*
X004011Y028363D02*
X023691Y028363D01*
X023691Y028521D02*
X004011Y028521D01*
X004011Y028680D02*
X023691Y028680D01*
X023691Y028838D02*
X006024Y028838D01*
X006041Y028997D02*
X023691Y028997D01*
X023691Y029155D02*
X006041Y029155D01*
X006041Y029472D02*
X023691Y029472D01*
X023691Y029314D02*
X004941Y029314D01*
X004941Y029472D02*
X004781Y029472D01*
X004781Y029631D02*
X004941Y029631D01*
X004941Y029789D02*
X004781Y029789D01*
X004781Y029948D02*
X004941Y029948D01*
X004941Y029155D02*
X004781Y029155D01*
X004781Y028997D02*
X004941Y028997D01*
X004941Y028838D02*
X004781Y028838D01*
X004011Y030106D02*
X023691Y030106D01*
X023691Y029948D02*
X005983Y029948D01*
X006041Y029789D02*
X023691Y029789D01*
X023691Y029631D02*
X006041Y029631D01*
X006005Y032325D02*
X011582Y032325D01*
X011584Y032322D02*
X011672Y032233D01*
X011788Y032185D01*
X011913Y032185D01*
X012029Y032233D01*
X012118Y032322D01*
X012166Y032437D01*
X012166Y032563D01*
X012118Y032678D01*
X012091Y032705D01*
X012091Y033420D01*
X012118Y033447D01*
X012166Y033562D01*
X012166Y033688D01*
X012118Y033803D01*
X012029Y033892D01*
X011913Y033940D01*
X011788Y033940D01*
X011672Y033892D01*
X011584Y033803D01*
X011536Y033688D01*
X011536Y033562D01*
X011584Y033447D01*
X011611Y033420D01*
X011611Y032705D01*
X011584Y032678D01*
X011536Y032563D01*
X011536Y032437D01*
X011584Y032322D01*
X011536Y032484D02*
X006041Y032484D01*
X006041Y032642D02*
X011569Y032642D01*
X011611Y032801D02*
X006041Y032801D01*
X006041Y033118D02*
X011611Y033118D01*
X011611Y033276D02*
X006041Y033276D01*
X006011Y033435D02*
X011596Y033435D01*
X011536Y033593D02*
X004011Y033593D01*
X004011Y033752D02*
X011562Y033752D01*
X011716Y033910D02*
X004011Y033910D01*
X004011Y034069D02*
X023691Y034069D01*
X023691Y034227D02*
X004011Y034227D01*
X004011Y034386D02*
X019144Y034386D01*
X019147Y034384D02*
X019227Y034358D01*
X019309Y034345D01*
X019331Y034345D01*
X019331Y034855D01*
X019371Y034855D01*
X019371Y034895D01*
X019881Y034895D01*
X019881Y034917D01*
X019868Y034999D01*
X019842Y035078D01*
X019804Y035153D01*
X019755Y035220D01*
X019696Y035279D01*
X019628Y035328D01*
X019554Y035366D01*
X019475Y035392D01*
X019392Y035405D01*
X019371Y035405D01*
X019371Y034895D01*
X019331Y034895D01*
X019331Y035405D01*
X019309Y035405D01*
X019227Y035392D01*
X019147Y035366D01*
X019073Y035328D01*
X019005Y035279D01*
X018946Y035220D01*
X018897Y035153D01*
X018859Y035078D01*
X018834Y034999D01*
X018821Y034917D01*
X018821Y034895D01*
X019331Y034895D01*
X019331Y034855D01*
X018821Y034855D01*
X018821Y034833D01*
X018834Y034751D01*
X018859Y034672D01*
X018897Y034597D01*
X018946Y034530D01*
X019005Y034471D01*
X019073Y034422D01*
X019147Y034384D01*
X019331Y034386D02*
X019371Y034386D01*
X019371Y034345D02*
X019392Y034345D01*
X019475Y034358D01*
X019554Y034384D01*
X019628Y034422D01*
X019696Y034471D01*
X019755Y034530D01*
X019804Y034597D01*
X019842Y034672D01*
X019868Y034751D01*
X019881Y034833D01*
X019881Y034855D01*
X019371Y034855D01*
X019371Y034345D01*
X019557Y034386D02*
X023691Y034386D01*
X023691Y034544D02*
X019765Y034544D01*
X019852Y034703D02*
X023691Y034703D01*
X023691Y034861D02*
X019371Y034861D01*
X019331Y034861D02*
X004011Y034861D01*
X004011Y034703D02*
X018849Y034703D01*
X018936Y034544D02*
X004011Y034544D01*
X004011Y035020D02*
X018840Y035020D01*
X018916Y035178D02*
X004011Y035178D01*
X004011Y035337D02*
X019089Y035337D01*
X019331Y035337D02*
X019371Y035337D01*
X019371Y035178D02*
X019331Y035178D01*
X019331Y035020D02*
X019371Y035020D01*
X019371Y034703D02*
X019331Y034703D01*
X019331Y034544D02*
X019371Y034544D01*
X019786Y035178D02*
X023691Y035178D01*
X023691Y035020D02*
X019861Y035020D01*
X019612Y035337D02*
X023691Y035337D01*
X023691Y035495D02*
X004011Y035495D01*
X004011Y035654D02*
X023691Y035654D01*
X023691Y035812D02*
X006009Y035812D01*
X006041Y035971D02*
X023691Y035971D01*
X023691Y036129D02*
X006041Y036129D01*
X006041Y036446D02*
X019058Y036446D01*
X019062Y036443D02*
X019249Y036365D01*
X019452Y036365D01*
X019640Y036443D01*
X019783Y036586D01*
X019861Y036774D01*
X019861Y036976D01*
X019783Y037164D01*
X019640Y037307D01*
X019452Y037385D01*
X019249Y037385D01*
X019062Y037307D01*
X018918Y037164D01*
X018841Y036976D01*
X018841Y036774D01*
X018918Y036586D01*
X019062Y036443D01*
X018911Y036605D02*
X006041Y036605D01*
X006041Y036763D02*
X018845Y036763D01*
X018841Y036922D02*
X006007Y036922D01*
X005802Y037873D02*
X021899Y037873D01*
X021594Y038031D02*
X006107Y038031D01*
X006296Y038190D02*
X021405Y038190D01*
X021270Y038348D02*
X006431Y038348D01*
X006528Y038507D02*
X021173Y038507D01*
X021102Y038665D02*
X006600Y038665D01*
X006647Y038824D02*
X021055Y038824D01*
X021028Y038982D02*
X006673Y038982D01*
X006670Y039299D02*
X021031Y039299D01*
X021062Y039458D02*
X006640Y039458D01*
X006587Y039616D02*
X021114Y039616D01*
X021190Y039775D02*
X006512Y039775D01*
X006408Y039933D02*
X021293Y039933D01*
X021436Y040092D02*
X006265Y040092D01*
X006061Y040250D02*
X021640Y040250D01*
X022000Y040409D02*
X005701Y040409D01*
X005431Y040409D02*
X005271Y040409D01*
X005271Y040250D02*
X005431Y040250D01*
X005431Y040092D02*
X005271Y040092D01*
X005271Y039933D02*
X005431Y039933D01*
X005431Y039775D02*
X005271Y039775D01*
X005271Y039616D02*
X005431Y039616D01*
X005431Y039458D02*
X005271Y039458D01*
X005271Y039299D02*
X005431Y039299D01*
X005431Y039141D02*
X022271Y039141D01*
X022271Y039299D02*
X022431Y039299D01*
X022431Y039141D02*
X023690Y039141D01*
X023679Y039299D02*
X023670Y039299D01*
X023673Y038982D02*
X023691Y038982D01*
X023691Y038824D02*
X023647Y038824D01*
X023691Y038665D02*
X023600Y038665D01*
X023528Y038507D02*
X023691Y038507D01*
X023691Y038348D02*
X023431Y038348D01*
X023296Y038190D02*
X023691Y038190D01*
X023691Y038031D02*
X023107Y038031D01*
X022802Y037873D02*
X023691Y037873D01*
X023691Y037714D02*
X004011Y037714D01*
X004011Y037556D02*
X023691Y037556D01*
X023691Y037397D02*
X004011Y037397D01*
X004011Y037239D02*
X018993Y037239D01*
X018884Y037080D02*
X004011Y037080D01*
X004011Y037873D02*
X004899Y037873D01*
X004594Y038031D02*
X004011Y038031D01*
X004011Y038190D02*
X004405Y038190D01*
X004270Y038348D02*
X004011Y038348D01*
X004011Y038507D02*
X004173Y038507D01*
X004102Y038665D02*
X004011Y038665D01*
X004011Y038824D02*
X004055Y038824D01*
X004028Y038982D02*
X004011Y038982D01*
X004012Y039141D02*
X005271Y039141D01*
X005271Y038982D02*
X005431Y038982D01*
X005431Y038824D02*
X005271Y038824D01*
X005271Y038665D02*
X005431Y038665D01*
X005431Y038507D02*
X005271Y038507D01*
X005271Y038348D02*
X005431Y038348D01*
X005431Y038190D02*
X005271Y038190D01*
X005271Y038031D02*
X005431Y038031D01*
X005431Y037873D02*
X005271Y037873D01*
X004941Y036922D02*
X004781Y036922D01*
X004781Y036763D02*
X004941Y036763D01*
X004941Y036605D02*
X004781Y036605D01*
X004781Y036446D02*
X004941Y036446D01*
X004941Y036288D02*
X023691Y036288D01*
X023691Y036446D02*
X019643Y036446D01*
X019791Y036605D02*
X023691Y036605D01*
X023691Y036763D02*
X019856Y036763D01*
X019861Y036922D02*
X023691Y036922D01*
X023691Y037080D02*
X019818Y037080D01*
X019708Y037239D02*
X023691Y037239D01*
X022431Y037873D02*
X022271Y037873D01*
X022271Y038031D02*
X022431Y038031D01*
X022431Y038190D02*
X022271Y038190D01*
X022271Y038348D02*
X022431Y038348D01*
X022431Y038507D02*
X022271Y038507D01*
X022271Y038665D02*
X022431Y038665D01*
X022431Y038824D02*
X022271Y038824D01*
X022271Y038982D02*
X022431Y038982D01*
X022431Y039458D02*
X022271Y039458D01*
X022271Y039616D02*
X022431Y039616D01*
X022431Y039775D02*
X022271Y039775D01*
X022271Y039933D02*
X022431Y039933D01*
X022431Y040092D02*
X022271Y040092D01*
X022271Y040250D02*
X022431Y040250D01*
X022431Y040409D02*
X022271Y040409D01*
X023691Y033910D02*
X011986Y033910D01*
X012139Y033752D02*
X023691Y033752D01*
X023691Y033593D02*
X012166Y033593D01*
X012106Y033435D02*
X023691Y033435D01*
X023691Y033276D02*
X019671Y033276D01*
X019640Y033307D02*
X019452Y033385D01*
X019249Y033385D01*
X019062Y033307D01*
X018918Y033164D01*
X018841Y032976D01*
X018841Y032774D01*
X018918Y032586D01*
X019062Y032443D01*
X019249Y032365D01*
X019452Y032365D01*
X019640Y032443D01*
X019783Y032586D01*
X019861Y032774D01*
X019861Y032976D01*
X019783Y033164D01*
X019640Y033307D01*
X019802Y033118D02*
X023691Y033118D01*
X023691Y032959D02*
X019861Y032959D01*
X019861Y032801D02*
X023691Y032801D01*
X023691Y032642D02*
X019806Y032642D01*
X019680Y032484D02*
X023691Y032484D01*
X023691Y032325D02*
X014785Y032325D01*
X014791Y032313D02*
X014743Y032428D01*
X014654Y032517D01*
X014538Y032565D01*
X014413Y032565D01*
X014297Y032517D01*
X014209Y032428D01*
X014161Y032313D01*
X014161Y032187D01*
X014209Y032072D01*
X014297Y031983D01*
X014413Y031935D01*
X014538Y031935D01*
X014654Y031983D01*
X014743Y032072D01*
X014791Y032187D01*
X014791Y032313D01*
X014782Y032167D02*
X023691Y032167D01*
X023691Y032008D02*
X014679Y032008D01*
X014272Y032008D02*
X004011Y032008D01*
X004011Y031850D02*
X023691Y031850D01*
X023691Y031691D02*
X004011Y031691D01*
X004011Y031533D02*
X023691Y031533D01*
X023691Y031374D02*
X004011Y031374D01*
X004011Y031216D02*
X023691Y031216D01*
X023691Y031057D02*
X004011Y031057D01*
X004011Y030899D02*
X023691Y030899D01*
X023691Y030740D02*
X004011Y030740D01*
X004011Y030582D02*
X023691Y030582D01*
X023691Y030423D02*
X004011Y030423D01*
X004011Y030265D02*
X023691Y030265D01*
X023691Y027253D02*
X019920Y027253D01*
X020017Y027095D02*
X023691Y027095D01*
X023691Y026936D02*
X020055Y026936D01*
X020045Y026778D02*
X023691Y026778D01*
X023691Y026619D02*
X019985Y026619D01*
X019850Y026461D02*
X023691Y026461D01*
X023691Y026302D02*
X006041Y026302D01*
X006041Y026144D02*
X023691Y026144D01*
X023691Y020913D02*
X004011Y020913D01*
X004011Y020755D02*
X023691Y020755D01*
X023691Y020596D02*
X004011Y020596D01*
X004011Y020438D02*
X023691Y020438D01*
X023691Y020279D02*
X004011Y020279D01*
X004011Y020121D02*
X023691Y020121D01*
X019526Y026461D02*
X019486Y026461D01*
X019486Y026619D02*
X019526Y026619D01*
X019526Y026778D02*
X019486Y026778D01*
X019486Y026936D02*
X019526Y026936D01*
X019526Y027095D02*
X019486Y027095D01*
X019486Y027253D02*
X019526Y027253D01*
X019091Y027253D02*
X017360Y027253D01*
X017457Y027095D02*
X018994Y027095D01*
X018956Y026936D02*
X017495Y026936D01*
X017485Y026778D02*
X018967Y026778D01*
X019026Y026619D02*
X017425Y026619D01*
X017290Y026461D02*
X019161Y026461D01*
X016601Y026461D02*
X005990Y026461D01*
X004941Y032325D02*
X004781Y032325D01*
X004781Y032484D02*
X004941Y032484D01*
X004941Y032642D02*
X004781Y032642D01*
X004781Y032801D02*
X004941Y032801D01*
X004941Y032959D02*
X011611Y032959D01*
X011851Y032500D02*
X011851Y033625D01*
X012091Y033276D02*
X019030Y033276D01*
X018899Y033118D02*
X012091Y033118D01*
X012091Y032959D02*
X018841Y032959D01*
X018841Y032801D02*
X012091Y032801D01*
X012133Y032642D02*
X018895Y032642D01*
X019021Y032484D02*
X014688Y032484D01*
X014264Y032484D02*
X012166Y032484D01*
X012119Y032325D02*
X014166Y032325D01*
X014169Y032167D02*
X004011Y032167D01*
X004781Y033118D02*
X004941Y033118D01*
X004941Y033276D02*
X004781Y033276D01*
X004781Y033435D02*
X004941Y033435D01*
X004941Y035812D02*
X004781Y035812D01*
X004781Y035971D02*
X004941Y035971D01*
X004941Y036129D02*
X004781Y036129D01*
X004031Y039299D02*
X004022Y039299D01*
X004011Y019645D02*
X012320Y019645D01*
X012286Y019487D02*
X005958Y019487D01*
X006041Y019328D02*
X012331Y019328D01*
X012361Y019170D02*
X006041Y019170D01*
X006041Y019011D02*
X012361Y019011D01*
X012361Y018853D02*
X004941Y018853D01*
X004941Y019011D02*
X004781Y019011D01*
X004781Y019170D02*
X004941Y019170D01*
X004941Y019328D02*
X004781Y019328D01*
X004781Y019487D02*
X004941Y019487D01*
X004941Y018694D02*
X004781Y018694D01*
X004781Y018536D02*
X004941Y018536D01*
X004941Y018377D02*
X004781Y018377D01*
X004011Y018219D02*
X012324Y018219D01*
X012286Y018377D02*
X006031Y018377D01*
X006041Y018536D02*
X012326Y018536D01*
X012361Y018694D02*
X006041Y018694D01*
X004941Y015841D02*
X004781Y015841D01*
X004781Y015683D02*
X004941Y015683D01*
X004941Y015524D02*
X004781Y015524D01*
X012601Y018375D02*
X012601Y019500D01*
X019737Y007282D02*
X023691Y007282D01*
X023691Y007124D02*
X019768Y007124D01*
X019736Y006965D02*
X023691Y006965D01*
X023691Y006807D02*
X019623Y006807D01*
X019686Y005380D02*
X023691Y005380D01*
X023691Y005222D02*
X019763Y005222D01*
X019768Y005063D02*
X023691Y005063D01*
X023691Y004905D02*
X019711Y004905D01*
X019588Y003478D02*
X023691Y003478D01*
X023691Y003320D02*
X022937Y003320D01*
X023185Y003161D02*
X023691Y003161D01*
X023691Y003003D02*
X023351Y003003D01*
X023470Y002844D02*
X023691Y002844D01*
X023691Y002686D02*
X023558Y002686D01*
X023619Y002527D02*
X023691Y002527D01*
X023691Y002369D02*
X023658Y002369D01*
X023679Y002210D02*
X023691Y002210D01*
X023686Y002052D02*
X022431Y002052D01*
X022431Y002210D02*
X022271Y002210D01*
X022271Y002369D02*
X022431Y002369D01*
X022431Y002527D02*
X022271Y002527D01*
X022271Y002686D02*
X022431Y002686D01*
X022431Y002844D02*
X022271Y002844D01*
X022271Y003003D02*
X022431Y003003D01*
X022431Y003161D02*
X022271Y003161D01*
X022271Y003320D02*
X022431Y003320D01*
X021764Y003320D02*
X019722Y003320D01*
X019768Y003161D02*
X021517Y003161D01*
X021350Y003003D02*
X019752Y003003D01*
X019660Y002844D02*
X021231Y002844D01*
X018922Y001418D02*
X013779Y001418D01*
X013847Y001259D02*
X018854Y001259D01*
X018841Y001101D02*
X013861Y001101D01*
X013827Y000942D02*
X018874Y000942D01*
X023661Y001893D02*
X023664Y001893D01*
D17*
X016101Y018375D03*
X016101Y019500D03*
X015476Y021000D03*
X015851Y021500D03*
X015851Y022250D03*
X016601Y022250D03*
X016601Y021500D03*
X013101Y021500D03*
X012351Y021500D03*
X011976Y021000D03*
X012601Y019500D03*
X012601Y018375D03*
X010476Y022125D03*
X010476Y023250D03*
X011351Y025125D03*
X012851Y025000D03*
X013351Y029000D03*
X014476Y032250D03*
X015476Y032250D03*
X016976Y031500D03*
X015601Y034625D03*
X011851Y033625D03*
X011851Y032500D03*
X010976Y032750D03*
X010226Y033875D03*
X007601Y029500D03*
X007476Y031625D03*
X008726Y021000D03*
X008101Y015500D03*
X007226Y013125D03*
X007226Y011625D03*
X010726Y012625D03*
X010726Y013625D03*
X006726Y004875D03*
M02*
