G75*
G70*
%OFA0B0*%
%FSLAX24Y24*%
%IPPOS*%
%LPD*%
%AMOC8*
5,1,8,0,0,1.08239X$1,22.5*
%
%ADD10C,0.0000*%
D10*
X003851Y001800D02*
X003851Y033800D01*
X003853Y033876D01*
X003859Y033952D01*
X003868Y034027D01*
X003882Y034102D01*
X003899Y034176D01*
X003920Y034249D01*
X003944Y034321D01*
X003973Y034392D01*
X004004Y034461D01*
X004039Y034528D01*
X004078Y034593D01*
X004120Y034657D01*
X004165Y034718D01*
X004213Y034777D01*
X004264Y034833D01*
X004318Y034887D01*
X004374Y034938D01*
X004433Y034986D01*
X004494Y035031D01*
X004558Y035073D01*
X004623Y035112D01*
X004690Y035147D01*
X004759Y035178D01*
X004830Y035207D01*
X004902Y035231D01*
X004975Y035252D01*
X005049Y035269D01*
X005124Y035283D01*
X005199Y035292D01*
X005275Y035298D01*
X005351Y035300D01*
X052351Y035300D01*
X052427Y035298D01*
X052503Y035292D01*
X052578Y035283D01*
X052653Y035269D01*
X052727Y035252D01*
X052800Y035231D01*
X052872Y035207D01*
X052943Y035178D01*
X053012Y035147D01*
X053079Y035112D01*
X053144Y035073D01*
X053208Y035031D01*
X053269Y034986D01*
X053328Y034938D01*
X053384Y034887D01*
X053438Y034833D01*
X053489Y034777D01*
X053537Y034718D01*
X053582Y034657D01*
X053624Y034593D01*
X053663Y034528D01*
X053698Y034461D01*
X053729Y034392D01*
X053758Y034321D01*
X053782Y034249D01*
X053803Y034176D01*
X053820Y034102D01*
X053834Y034027D01*
X053843Y033952D01*
X053849Y033876D01*
X053851Y033800D01*
X053851Y001800D01*
X053849Y001724D01*
X053843Y001648D01*
X053834Y001573D01*
X053820Y001498D01*
X053803Y001424D01*
X053782Y001351D01*
X053758Y001279D01*
X053729Y001208D01*
X053698Y001139D01*
X053663Y001072D01*
X053624Y001007D01*
X053582Y000943D01*
X053537Y000882D01*
X053489Y000823D01*
X053438Y000767D01*
X053384Y000713D01*
X053328Y000662D01*
X053269Y000614D01*
X053208Y000569D01*
X053144Y000527D01*
X053079Y000488D01*
X053012Y000453D01*
X052943Y000422D01*
X052872Y000393D01*
X052800Y000369D01*
X052727Y000348D01*
X052653Y000331D01*
X052578Y000317D01*
X052503Y000308D01*
X052427Y000302D01*
X052351Y000300D01*
X005351Y000300D01*
X005275Y000302D01*
X005199Y000308D01*
X005124Y000317D01*
X005049Y000331D01*
X004975Y000348D01*
X004902Y000369D01*
X004830Y000393D01*
X004759Y000422D01*
X004690Y000453D01*
X004623Y000488D01*
X004558Y000527D01*
X004494Y000569D01*
X004433Y000614D01*
X004374Y000662D01*
X004318Y000713D01*
X004264Y000767D01*
X004213Y000823D01*
X004165Y000882D01*
X004120Y000943D01*
X004078Y001007D01*
X004039Y001072D01*
X004004Y001139D01*
X003973Y001208D01*
X003944Y001279D01*
X003920Y001351D01*
X003899Y001424D01*
X003882Y001498D01*
X003868Y001573D01*
X003859Y001648D01*
X003853Y001724D01*
X003851Y001800D01*
X003851Y008600D02*
X003851Y013000D01*
X003851Y022600D02*
X003851Y027000D01*
X037869Y027146D02*
X037871Y027194D01*
X037877Y027242D01*
X037887Y027289D01*
X037900Y027335D01*
X037918Y027380D01*
X037938Y027424D01*
X037963Y027466D01*
X037991Y027505D01*
X038021Y027542D01*
X038055Y027576D01*
X038092Y027608D01*
X038130Y027637D01*
X038171Y027662D01*
X038214Y027684D01*
X038259Y027702D01*
X038305Y027716D01*
X038352Y027727D01*
X038400Y027734D01*
X038448Y027737D01*
X038496Y027736D01*
X038544Y027731D01*
X038592Y027722D01*
X038638Y027710D01*
X038683Y027693D01*
X038727Y027673D01*
X038769Y027650D01*
X038809Y027623D01*
X038847Y027593D01*
X038882Y027560D01*
X038914Y027524D01*
X038944Y027486D01*
X038970Y027445D01*
X038992Y027402D01*
X039012Y027358D01*
X039027Y027313D01*
X039039Y027266D01*
X039047Y027218D01*
X039051Y027170D01*
X039051Y027122D01*
X039047Y027074D01*
X039039Y027026D01*
X039027Y026979D01*
X039012Y026934D01*
X038992Y026890D01*
X038970Y026847D01*
X038944Y026806D01*
X038914Y026768D01*
X038882Y026732D01*
X038847Y026699D01*
X038809Y026669D01*
X038769Y026642D01*
X038727Y026619D01*
X038683Y026599D01*
X038638Y026582D01*
X038592Y026570D01*
X038544Y026561D01*
X038496Y026556D01*
X038448Y026555D01*
X038400Y026558D01*
X038352Y026565D01*
X038305Y026576D01*
X038259Y026590D01*
X038214Y026608D01*
X038171Y026630D01*
X038130Y026655D01*
X038092Y026684D01*
X038055Y026716D01*
X038021Y026750D01*
X037991Y026787D01*
X037963Y026826D01*
X037938Y026868D01*
X037918Y026912D01*
X037900Y026957D01*
X037887Y027003D01*
X037877Y027050D01*
X037871Y027098D01*
X037869Y027146D01*
X041570Y029627D02*
X041572Y029675D01*
X041578Y029723D01*
X041588Y029770D01*
X041601Y029816D01*
X041619Y029861D01*
X041639Y029905D01*
X041664Y029947D01*
X041692Y029986D01*
X041722Y030023D01*
X041756Y030057D01*
X041793Y030089D01*
X041831Y030118D01*
X041872Y030143D01*
X041915Y030165D01*
X041960Y030183D01*
X042006Y030197D01*
X042053Y030208D01*
X042101Y030215D01*
X042149Y030218D01*
X042197Y030217D01*
X042245Y030212D01*
X042293Y030203D01*
X042339Y030191D01*
X042384Y030174D01*
X042428Y030154D01*
X042470Y030131D01*
X042510Y030104D01*
X042548Y030074D01*
X042583Y030041D01*
X042615Y030005D01*
X042645Y029967D01*
X042671Y029926D01*
X042693Y029883D01*
X042713Y029839D01*
X042728Y029794D01*
X042740Y029747D01*
X042748Y029699D01*
X042752Y029651D01*
X042752Y029603D01*
X042748Y029555D01*
X042740Y029507D01*
X042728Y029460D01*
X042713Y029415D01*
X042693Y029371D01*
X042671Y029328D01*
X042645Y029287D01*
X042615Y029249D01*
X042583Y029213D01*
X042548Y029180D01*
X042510Y029150D01*
X042470Y029123D01*
X042428Y029100D01*
X042384Y029080D01*
X042339Y029063D01*
X042293Y029051D01*
X042245Y029042D01*
X042197Y029037D01*
X042149Y029036D01*
X042101Y029039D01*
X042053Y029046D01*
X042006Y029057D01*
X041960Y029071D01*
X041915Y029089D01*
X041872Y029111D01*
X041831Y029136D01*
X041793Y029165D01*
X041756Y029197D01*
X041722Y029231D01*
X041692Y029268D01*
X041664Y029307D01*
X041639Y029349D01*
X041619Y029393D01*
X041601Y029438D01*
X041588Y029484D01*
X041578Y029531D01*
X041572Y029579D01*
X041570Y029627D01*
X053851Y030500D02*
X053851Y026100D01*
X053851Y023500D02*
X053851Y019100D01*
X053851Y016500D02*
X053851Y012100D01*
X053851Y009500D02*
X053851Y005100D01*
M02*
