G75*
G70*
%OFA0B0*%
%FSLAX24Y24*%
%IPPOS*%
%LPD*%
%AMOC8*
5,1,8,0,0,1.08239X$1,22.5*
%
%ADD10R,0.0200X0.0400*%
%ADD11R,0.0400X0.0200*%
%ADD12R,0.0710X0.0710*%
%ADD13R,0.0513X0.0474*%
%ADD14R,0.2080X0.0830*%
%ADD15R,0.2080X0.0980*%
%ADD16R,0.0118X0.0295*%
%ADD17R,0.0689X0.0650*%
%ADD18R,0.0433X0.0650*%
%ADD19R,0.0789X0.0710*%
%ADD20R,0.0474X0.0513*%
%ADD21R,0.0250X0.0640*%
%ADD22R,0.0600X0.0300*%
%ADD23R,0.0356X0.0434*%
%ADD24R,0.0434X0.0356*%
%ADD25R,0.0550X0.1180*%
%ADD26C,0.2380*%
%ADD27C,0.1261*%
%ADD28C,0.1080*%
%ADD29C,0.0867*%
%ADD30R,0.0356X0.0198*%
%ADD31R,0.0434X0.0395*%
%ADD32R,0.0631X0.0474*%
%ADD33R,0.0474X0.0631*%
%ADD34R,0.0316X0.0552*%
%ADD35R,0.1104X0.1025*%
%ADD36R,0.0474X0.0257*%
%ADD37R,0.0710X0.0789*%
%ADD38R,0.0395X0.0218*%
%ADD39R,0.0631X0.0631*%
%ADD40R,0.0592X0.0474*%
%ADD41R,0.0552X0.0552*%
%ADD42R,0.0592X0.0671*%
%ADD43C,0.0780*%
%ADD44C,0.0395*%
%ADD45C,0.0358*%
D10*
X008426Y018230D03*
X008626Y018230D03*
X008826Y018230D03*
X009026Y018230D03*
X009026Y019370D03*
X008826Y019370D03*
X008626Y019370D03*
X008426Y019370D03*
D11*
X008156Y019100D03*
X008156Y018900D03*
X008156Y018700D03*
X008156Y018500D03*
X009296Y018500D03*
X009296Y018700D03*
X009296Y018900D03*
X009296Y019100D03*
D12*
X008726Y018800D03*
D13*
X010266Y019925D03*
X010935Y019925D03*
X011851Y021090D03*
X011851Y021760D03*
X015391Y020550D03*
X016060Y020550D03*
X011976Y018385D03*
X011976Y017715D03*
X007226Y021090D03*
X007226Y021760D03*
X007226Y023840D03*
X007226Y024510D03*
X007226Y025090D03*
X007226Y025760D03*
X011101Y026340D03*
X011101Y027010D03*
X012516Y025550D03*
X013185Y025550D03*
X012601Y028465D03*
X012601Y029135D03*
X010101Y030340D03*
X010101Y031010D03*
X007351Y029385D03*
X007351Y028715D03*
X021351Y021135D03*
X022226Y021135D03*
X022226Y020465D03*
X021351Y020465D03*
X023101Y020465D03*
X023976Y020465D03*
X024851Y020465D03*
X024851Y021135D03*
X023976Y021135D03*
X023101Y021135D03*
X026391Y027675D03*
X027060Y027675D03*
X031016Y027675D03*
X031685Y027675D03*
D14*
X052841Y028300D03*
X052841Y021300D03*
X052841Y014300D03*
X052841Y007300D03*
X004861Y010800D03*
X004861Y024800D03*
D15*
X004861Y026540D03*
X004861Y023060D03*
X004861Y012540D03*
X004861Y009060D03*
X052841Y009040D03*
X052841Y005560D03*
X052841Y012560D03*
X052841Y016040D03*
X052841Y019560D03*
X052841Y023040D03*
X052841Y026560D03*
X052841Y030040D03*
D16*
X032316Y029601D03*
X032119Y029601D03*
X031922Y029601D03*
X031726Y029601D03*
X031529Y029601D03*
X031332Y029601D03*
X031135Y029601D03*
X031135Y028499D03*
X031332Y028499D03*
X031529Y028499D03*
X031726Y028499D03*
X031922Y028499D03*
X032119Y028499D03*
X032316Y028499D03*
X027941Y028499D03*
X027744Y028499D03*
X027547Y028499D03*
X027351Y028499D03*
X027154Y028499D03*
X026957Y028499D03*
X026760Y028499D03*
X026760Y029601D03*
X026957Y029601D03*
X027154Y029601D03*
X027351Y029601D03*
X027547Y029601D03*
X027744Y029601D03*
X027941Y029601D03*
D17*
X027055Y029050D03*
X031430Y029050D03*
D18*
X032119Y029050D03*
X027744Y029050D03*
D19*
X029601Y028499D03*
X029601Y029601D03*
X025476Y029601D03*
X025476Y028499D03*
X033976Y028499D03*
X033976Y029601D03*
D20*
X033101Y029385D03*
X033101Y028715D03*
X030976Y025760D03*
X030976Y025090D03*
X028226Y025090D03*
X028226Y025760D03*
X028726Y028715D03*
X028726Y029385D03*
X021435Y025800D03*
X020766Y025800D03*
X016060Y026175D03*
X015391Y026175D03*
X015391Y025300D03*
X016060Y025300D03*
X016060Y024425D03*
X015391Y024425D03*
X015391Y027050D03*
X016060Y027050D03*
X016060Y027925D03*
X015391Y027925D03*
X013435Y030425D03*
X012766Y030425D03*
X009560Y027675D03*
X008891Y027675D03*
X007226Y027510D03*
X007226Y026840D03*
X008101Y025135D03*
X008101Y024465D03*
X009101Y024465D03*
X009101Y025135D03*
X010766Y025550D03*
X011435Y025550D03*
X011601Y024760D03*
X011601Y024090D03*
X010185Y023300D03*
X009516Y023300D03*
X009601Y021760D03*
X009601Y021090D03*
X007185Y019925D03*
X006516Y019925D03*
X006516Y018175D03*
X007185Y018175D03*
X015391Y021425D03*
X016060Y021425D03*
X017516Y021175D03*
X018185Y021175D03*
X018766Y021175D03*
X019435Y021175D03*
X019435Y020300D03*
X018766Y020300D03*
X022016Y012675D03*
X022685Y012675D03*
X023516Y012675D03*
X024185Y012675D03*
X045016Y012175D03*
X045685Y012175D03*
X046516Y012175D03*
X047185Y012175D03*
X047185Y019175D03*
X046516Y019175D03*
X045685Y019175D03*
X045016Y019175D03*
X045016Y026175D03*
X045685Y026175D03*
X046516Y026175D03*
X047185Y026175D03*
X006476Y028715D03*
X006476Y029385D03*
D21*
X015346Y017785D03*
X015596Y017785D03*
X015856Y017785D03*
X016106Y017785D03*
X018096Y017785D03*
X018346Y017785D03*
X018606Y017785D03*
X018856Y017785D03*
X018856Y016065D03*
X018606Y016065D03*
X018346Y016065D03*
X018096Y016065D03*
X016106Y016065D03*
X015856Y016065D03*
X015596Y016065D03*
X015346Y016065D03*
D22*
X029091Y025055D03*
X029091Y025425D03*
X029091Y025795D03*
X030111Y025795D03*
X030111Y025055D03*
D23*
X023357Y023925D03*
X022845Y023925D03*
X022845Y023425D03*
X023357Y023425D03*
X019357Y023425D03*
X018845Y023425D03*
X018845Y023925D03*
X019357Y023925D03*
X015982Y023800D03*
X015982Y023300D03*
X015470Y023300D03*
X015470Y023800D03*
X018845Y026800D03*
X018845Y027300D03*
X019357Y027300D03*
X019357Y026800D03*
X017482Y030175D03*
X016970Y030175D03*
X014857Y032675D03*
X014345Y032675D03*
X010857Y019300D03*
X010345Y019300D03*
X010345Y018300D03*
X010857Y018300D03*
X010857Y017800D03*
X010345Y017800D03*
X007107Y019300D03*
X006595Y019300D03*
X015470Y015175D03*
X015982Y015175D03*
D24*
X016851Y016669D03*
X017351Y016669D03*
X017351Y017181D03*
X016851Y017181D03*
X014601Y017181D03*
X014101Y017181D03*
X014101Y016669D03*
X014601Y016669D03*
X009663Y016919D03*
X009163Y016919D03*
X009163Y017431D03*
X009663Y017431D03*
X008288Y017431D03*
X007788Y017431D03*
X007788Y016919D03*
X008288Y016919D03*
X017601Y021919D03*
X017601Y022431D03*
X017476Y029044D03*
X016976Y029044D03*
X016976Y029556D03*
X017476Y029556D03*
X014851Y031544D03*
X014351Y031544D03*
X014351Y032056D03*
X014851Y032056D03*
D25*
X023101Y015750D03*
X024101Y013850D03*
X022101Y013850D03*
X045101Y013350D03*
X047101Y013350D03*
X046101Y015250D03*
X047101Y020350D03*
X045101Y020350D03*
X046101Y022250D03*
X047101Y027350D03*
X045101Y027350D03*
X046101Y029250D03*
D26*
X005351Y001800D03*
X052351Y001800D03*
X052351Y033800D03*
X005351Y033800D03*
D27*
X038460Y027146D03*
X042161Y029627D03*
D28*
X039976Y030454D03*
X039976Y028800D03*
X039976Y027146D03*
D29*
X033851Y033800D03*
X031851Y033800D03*
X029851Y033800D03*
X027851Y033800D03*
X025851Y033800D03*
X023851Y033800D03*
D30*
X016257Y022720D03*
X016257Y022523D03*
X016257Y022327D03*
X016257Y022130D03*
X015194Y022130D03*
X015194Y022327D03*
X015194Y022523D03*
X015194Y022720D03*
D31*
X016119Y019799D03*
X016119Y019051D03*
X015332Y019425D03*
D32*
X009918Y024051D03*
X010784Y024425D03*
X009918Y024799D03*
X011918Y026675D03*
X012784Y026301D03*
X012784Y027049D03*
X013668Y026675D03*
X014534Y026301D03*
X014534Y027049D03*
X014534Y027801D03*
X013668Y028175D03*
X014534Y028549D03*
X011909Y030301D03*
X011043Y030675D03*
X011909Y031049D03*
D33*
X011476Y029358D03*
X010350Y029358D03*
X009602Y029358D03*
X008850Y029358D03*
X008102Y029358D03*
X008476Y028492D03*
X009976Y028492D03*
X011102Y028492D03*
X011850Y028492D03*
X010350Y026858D03*
X009602Y026858D03*
X008850Y026858D03*
X008102Y026858D03*
X008476Y025992D03*
X009976Y025992D03*
X008850Y023608D03*
X008102Y023608D03*
X008476Y022742D03*
X008850Y021858D03*
X008102Y021858D03*
X008476Y020992D03*
X010352Y020992D03*
X011100Y020992D03*
X010726Y021858D03*
D34*
X015477Y028786D03*
X016225Y028786D03*
X016225Y029814D03*
X015851Y029814D03*
X015477Y029814D03*
X013600Y031286D03*
X012852Y031286D03*
X012852Y032314D03*
X013226Y032314D03*
X013600Y032314D03*
D35*
X011110Y033800D03*
X008591Y033800D03*
D36*
X018294Y022809D03*
X018294Y022553D03*
X018294Y022297D03*
X018294Y022041D03*
X019908Y022041D03*
X019908Y022297D03*
X019908Y022553D03*
X019908Y022809D03*
X022294Y022809D03*
X022294Y022553D03*
X022294Y022297D03*
X022294Y022041D03*
X023908Y022041D03*
X023908Y022297D03*
X023908Y022553D03*
X023908Y022809D03*
D37*
X032674Y027300D03*
X033777Y027300D03*
X032777Y030800D03*
X031674Y030800D03*
X028402Y030800D03*
X027299Y030800D03*
D38*
X019435Y026056D03*
X019435Y025800D03*
X019435Y025544D03*
X018766Y025544D03*
X018766Y025800D03*
X018766Y026056D03*
D39*
X019349Y019425D03*
X017853Y019425D03*
D40*
X048458Y021300D03*
X049993Y020611D03*
X049993Y021989D03*
X049993Y027611D03*
X049993Y028989D03*
X048458Y028300D03*
X049993Y014989D03*
X048458Y014300D03*
X049993Y013611D03*
D41*
X036514Y020050D03*
X035687Y020050D03*
X035687Y021425D03*
X036514Y021425D03*
D42*
X034560Y021425D03*
X033891Y021425D03*
X033891Y020050D03*
X034560Y020050D03*
D43*
X020101Y012300D03*
X020101Y008925D03*
X049226Y008925D03*
X049226Y011675D03*
X049226Y018675D03*
X049226Y025675D03*
D44*
X014851Y021800D03*
D45*
X014726Y022425D03*
X014976Y023300D03*
X016476Y023300D03*
X016476Y024050D03*
X017851Y023925D03*
X018226Y023175D03*
X019351Y022300D03*
X018788Y022050D03*
X020476Y022800D03*
X019851Y023425D03*
X019851Y023925D03*
X019101Y024550D03*
X018226Y025800D03*
X018351Y026800D03*
X018351Y027300D03*
X019851Y026800D03*
X016976Y028550D03*
X014976Y029425D03*
X013351Y029925D03*
X012101Y029800D03*
X014351Y031050D03*
X015351Y032050D03*
X014351Y033175D03*
X012351Y032050D03*
X010226Y033550D03*
X009476Y033550D03*
X009476Y034050D03*
X010226Y034050D03*
X006476Y029925D03*
X006476Y028175D03*
X007351Y028175D03*
X007726Y027550D03*
X007226Y026300D03*
X008601Y025425D03*
X009976Y025425D03*
X010976Y024925D03*
X010976Y023925D03*
X013101Y025050D03*
X011976Y025550D03*
X011101Y027550D03*
X012601Y027925D03*
X016601Y025300D03*
X016726Y022425D03*
X016601Y020550D03*
X016601Y019800D03*
X017351Y017675D03*
X016101Y017175D03*
X015101Y017175D03*
X015101Y016675D03*
X017351Y016175D03*
X018851Y017175D03*
X013351Y015175D03*
X012976Y015175D03*
X009663Y016488D03*
X009163Y016488D03*
X008288Y016488D03*
X007788Y016488D03*
X007976Y017925D03*
X009476Y017925D03*
X009851Y019175D03*
X009726Y019925D03*
X011351Y019300D03*
X011476Y019925D03*
X009101Y021050D03*
X009601Y022300D03*
X011351Y022300D03*
X011851Y022300D03*
X007226Y022300D03*
X005601Y022800D03*
X005601Y023300D03*
X005101Y023300D03*
X005101Y022800D03*
X004601Y022800D03*
X004601Y023300D03*
X004101Y023300D03*
X004101Y022800D03*
X005976Y019925D03*
X006101Y019300D03*
X007601Y019175D03*
X005976Y018175D03*
X011351Y018300D03*
X011351Y017800D03*
X012976Y012550D03*
X013351Y012550D03*
X005601Y012300D03*
X005601Y012800D03*
X005101Y012800D03*
X005101Y012300D03*
X004601Y012300D03*
X004601Y012800D03*
X004101Y012800D03*
X004101Y012300D03*
X004101Y009300D03*
X004601Y009300D03*
X005101Y009300D03*
X005601Y009300D03*
X005601Y008800D03*
X005101Y008800D03*
X004601Y008800D03*
X004101Y008800D03*
X021476Y012675D03*
X023101Y012175D03*
X024726Y012675D03*
X026226Y017050D03*
X026226Y017425D03*
X027726Y017425D03*
X027726Y017050D03*
X033226Y021425D03*
X037101Y021425D03*
X037101Y020050D03*
X043351Y022675D03*
X045101Y022675D03*
X049226Y021300D03*
X047726Y019175D03*
X052101Y019300D03*
X052601Y019300D03*
X053101Y019300D03*
X053601Y019300D03*
X053601Y019800D03*
X053101Y019800D03*
X052601Y019800D03*
X052101Y019800D03*
X052101Y022800D03*
X052601Y022800D03*
X053101Y022800D03*
X053601Y022800D03*
X053601Y023300D03*
X053101Y023300D03*
X052601Y023300D03*
X052101Y023300D03*
X052101Y026300D03*
X052601Y026300D03*
X053101Y026300D03*
X053601Y026300D03*
X053601Y026800D03*
X053101Y026800D03*
X052601Y026800D03*
X052101Y026800D03*
X049226Y028300D03*
X047726Y026175D03*
X052101Y029800D03*
X052601Y029800D03*
X053101Y029800D03*
X053601Y029800D03*
X053601Y030300D03*
X053101Y030300D03*
X052601Y030300D03*
X052101Y030300D03*
X034726Y028675D03*
X034726Y028300D03*
X034476Y027300D03*
X033101Y029925D03*
X033976Y030300D03*
X033476Y030800D03*
X031726Y030050D03*
X030726Y029050D03*
X029601Y030300D03*
X029101Y030800D03*
X028726Y029925D03*
X027351Y030050D03*
X026101Y029550D03*
X026351Y029050D03*
X025601Y027550D03*
X025226Y027550D03*
X027726Y027425D03*
X027726Y027800D03*
X029226Y027175D03*
X030226Y026675D03*
X030226Y026300D03*
X028226Y026300D03*
X028226Y026675D03*
X028226Y024550D03*
X030976Y024550D03*
X023351Y022863D03*
X022851Y022863D03*
X017976Y030175D03*
X016976Y030675D03*
X023851Y032675D03*
X023851Y033050D03*
X025851Y033050D03*
X025851Y032675D03*
X027851Y032675D03*
X027851Y033050D03*
X029851Y033050D03*
X029851Y032675D03*
X031851Y032675D03*
X031851Y033050D03*
X033851Y033050D03*
X033851Y032675D03*
X052101Y016300D03*
X052601Y016300D03*
X053101Y016300D03*
X053601Y016300D03*
X053601Y015800D03*
X053101Y015800D03*
X052601Y015800D03*
X052101Y015800D03*
X049226Y014300D03*
X047726Y012175D03*
X052101Y012300D03*
X052601Y012300D03*
X053101Y012300D03*
X053601Y012300D03*
X053601Y012800D03*
X053101Y012800D03*
X052601Y012800D03*
X052101Y012800D03*
X052101Y009300D03*
X052601Y009300D03*
X053101Y009300D03*
X053601Y009300D03*
X053601Y008800D03*
X053101Y008800D03*
X052601Y008800D03*
X052101Y008800D03*
X052101Y005800D03*
X052601Y005800D03*
X053101Y005800D03*
X053601Y005800D03*
X053601Y005300D03*
X053101Y005300D03*
X052601Y005300D03*
X052101Y005300D03*
X005601Y026300D03*
X005101Y026300D03*
X004601Y026300D03*
X004101Y026300D03*
X004101Y026800D03*
X004601Y026800D03*
X005101Y026800D03*
X005601Y026800D03*
M02*
