G75*
G70*
%OFA0B0*%
%FSLAX24Y24*%
%IPPOS*%
%LPD*%
%AMOC8*
5,1,8,0,0,1.08239X$1,22.5*
%
%ADD10R,0.2080X0.0980*%
%ADD11C,0.0780*%
%ADD12R,0.0595X0.0595*%
%ADD13C,0.0595*%
%ADD14C,0.2380*%
%ADD15C,0.0820*%
%ADD16C,0.0390*%
D10*
X004861Y004885D03*
X004861Y008365D03*
X004861Y011885D03*
X004861Y015365D03*
X004861Y018885D03*
X004861Y022365D03*
X004861Y025885D03*
X004861Y029365D03*
X004861Y032885D03*
X004861Y036365D03*
D11*
X013351Y017125D03*
X019351Y017125D03*
X019351Y032875D03*
X019351Y034875D03*
X019351Y036875D03*
X019351Y001125D03*
X013351Y001125D03*
D12*
X019351Y002125D03*
D13*
X019351Y003125D03*
X019351Y004125D03*
X019351Y005125D03*
X019351Y006125D03*
X019351Y007125D03*
X019351Y008125D03*
X019351Y009125D03*
X019351Y010125D03*
X019351Y011125D03*
X019351Y012125D03*
X019351Y013125D03*
X019351Y014125D03*
X019351Y015125D03*
X019351Y016125D03*
X013351Y016125D03*
X013351Y015125D03*
X013351Y014125D03*
X013351Y013125D03*
X013351Y012125D03*
X013351Y011125D03*
X013351Y010125D03*
X013351Y009125D03*
X013351Y008125D03*
X013351Y007125D03*
X013351Y006125D03*
X013351Y005125D03*
X013351Y004125D03*
X013351Y003125D03*
X013351Y002125D03*
D14*
X005351Y002125D03*
X022351Y002125D03*
X022351Y039125D03*
X005351Y039125D03*
D15*
X016946Y026890D03*
X016946Y025110D03*
X019506Y025110D03*
X019506Y026890D03*
D16*
X016976Y031500D03*
X015476Y032250D03*
X014476Y032250D03*
X015601Y034625D03*
X013351Y029000D03*
X011851Y032500D03*
X011851Y033625D03*
X010976Y032750D03*
X010226Y033875D03*
X007601Y029500D03*
X007476Y031625D03*
X011351Y025125D03*
X010476Y023250D03*
X010476Y022125D03*
X011976Y021000D03*
X012351Y021500D03*
X013101Y021500D03*
X012601Y019500D03*
X012601Y018375D03*
X010726Y013625D03*
X010726Y012625D03*
X008101Y015500D03*
X007226Y013125D03*
X007226Y011625D03*
X006726Y004875D03*
X016101Y018375D03*
X016101Y019500D03*
X015476Y021000D03*
X015851Y021500D03*
X015851Y022250D03*
X016601Y022250D03*
X016601Y021500D03*
X012851Y025000D03*
X008726Y021000D03*
M02*
