G75*
G70*
%OFA0B0*%
%FSLAX24Y24*%
%IPPOS*%
%LPD*%
%AMOC8*
5,1,8,0,0,1.08239X$1,22.5*
%
%ADD10C,0.1660*%
%ADD11C,0.0827*%
%ADD12C,0.0600*%
%ADD13C,0.0160*%
%ADD14C,0.0278*%
D10*
X005351Y001800D03*
X052351Y001800D03*
X052351Y033800D03*
X005351Y033800D03*
D11*
X039976Y030454D03*
X039976Y028800D03*
X039976Y027146D03*
D12*
X049226Y025675D03*
X049226Y018675D03*
X049226Y011675D03*
X049226Y008925D03*
X020101Y008925D03*
X020101Y012300D03*
D13*
X004113Y001287D02*
X004288Y000984D01*
X004535Y000737D01*
X004838Y000562D01*
X005176Y000471D01*
X005351Y000460D01*
X052351Y000460D01*
X052526Y000471D01*
X052863Y000562D01*
X053166Y000737D01*
X053414Y000984D01*
X053589Y001287D01*
X053679Y001625D01*
X053691Y001800D01*
X053691Y033800D01*
X053679Y033975D01*
X053589Y034313D01*
X053414Y034616D01*
X053166Y034863D01*
X052863Y035038D01*
X052526Y035129D01*
X052351Y035140D01*
X005351Y035140D01*
X005176Y035129D01*
X004838Y035038D01*
X004535Y034863D01*
X004288Y034616D01*
X004113Y034313D01*
X004113Y034313D01*
X004022Y033975D01*
X004011Y033800D01*
X004011Y001800D01*
X004022Y001625D01*
X004113Y001287D01*
X004134Y001251D02*
X004503Y001251D01*
X004526Y001215D02*
X004596Y001126D01*
X004677Y001046D01*
X004765Y000975D01*
X004861Y000915D01*
X004964Y000865D01*
X005071Y000828D01*
X005181Y000803D01*
X005271Y000793D01*
X005271Y001720D01*
X005431Y001720D01*
X005431Y001880D01*
X006358Y001880D01*
X006348Y001969D01*
X006323Y002080D01*
X006285Y002187D01*
X006236Y002289D01*
X006176Y002385D01*
X006105Y002474D01*
X006025Y002554D01*
X005936Y002625D01*
X005840Y002685D01*
X005738Y002735D01*
X005631Y002772D01*
X005520Y002797D01*
X005431Y002807D01*
X005431Y001880D01*
X005271Y001880D01*
X005271Y002807D01*
X005181Y002797D01*
X005071Y002772D01*
X004964Y002735D01*
X004861Y002685D01*
X004765Y002625D01*
X004677Y002554D01*
X004596Y002474D01*
X004526Y002385D01*
X004465Y002289D01*
X004416Y002187D01*
X004379Y002080D01*
X004353Y001969D01*
X004343Y001880D01*
X005271Y001880D01*
X005271Y001720D01*
X004343Y001720D01*
X004353Y001631D01*
X004379Y001520D01*
X004416Y001413D01*
X004465Y001311D01*
X004526Y001215D01*
X004630Y001093D02*
X004225Y001093D01*
X004338Y000934D02*
X004831Y000934D01*
X004743Y000617D02*
X052959Y000617D01*
X053205Y000776D02*
X004496Y000776D01*
X005271Y000934D02*
X005431Y000934D01*
X005431Y000793D02*
X005520Y000803D01*
X005631Y000828D01*
X005738Y000865D01*
X005840Y000915D01*
X005936Y000975D01*
X006025Y001046D01*
X006105Y001126D01*
X006176Y001215D01*
X006236Y001311D01*
X006285Y001413D01*
X006323Y001520D01*
X006348Y001631D01*
X006358Y001720D01*
X005431Y001720D01*
X005431Y000793D01*
X005431Y001093D02*
X005271Y001093D01*
X005271Y001251D02*
X005431Y001251D01*
X005431Y001410D02*
X005271Y001410D01*
X005271Y001568D02*
X005431Y001568D01*
X005431Y001727D02*
X052271Y001727D01*
X052271Y001720D02*
X051343Y001720D01*
X051353Y001631D01*
X051379Y001520D01*
X051416Y001413D01*
X051465Y001311D01*
X051526Y001215D01*
X051596Y001126D01*
X051677Y001046D01*
X051765Y000975D01*
X051861Y000915D01*
X051964Y000865D01*
X052071Y000828D01*
X052181Y000803D01*
X052271Y000793D01*
X052271Y001720D01*
X052431Y001720D01*
X052431Y001880D01*
X053358Y001880D01*
X053348Y001969D01*
X053323Y002080D01*
X053285Y002187D01*
X053236Y002289D01*
X053176Y002385D01*
X053105Y002474D01*
X053025Y002554D01*
X052936Y002625D01*
X052840Y002685D01*
X052738Y002735D01*
X052631Y002772D01*
X052520Y002797D01*
X052431Y002807D01*
X052431Y001880D01*
X052271Y001880D01*
X052271Y002807D01*
X052181Y002797D01*
X052071Y002772D01*
X051964Y002735D01*
X051861Y002685D01*
X051765Y002625D01*
X051677Y002554D01*
X051596Y002474D01*
X051526Y002385D01*
X051465Y002289D01*
X051416Y002187D01*
X051379Y002080D01*
X051353Y001969D01*
X051343Y001880D01*
X052271Y001880D01*
X052271Y001720D01*
X052271Y001568D02*
X052431Y001568D01*
X052431Y001720D02*
X052431Y000793D01*
X052520Y000803D01*
X052631Y000828D01*
X052738Y000865D01*
X052840Y000915D01*
X052936Y000975D01*
X053025Y001046D01*
X053105Y001126D01*
X053176Y001215D01*
X053236Y001311D01*
X053285Y001413D01*
X053323Y001520D01*
X053348Y001631D01*
X053358Y001720D01*
X052431Y001720D01*
X052431Y001727D02*
X053686Y001727D01*
X053691Y001885D02*
X053357Y001885D01*
X053331Y002044D02*
X053691Y002044D01*
X053691Y002202D02*
X053278Y002202D01*
X053191Y002361D02*
X053691Y002361D01*
X053691Y002519D02*
X053060Y002519D01*
X052852Y002678D02*
X053691Y002678D01*
X053691Y002836D02*
X004011Y002836D01*
X004011Y002678D02*
X004849Y002678D01*
X004641Y002519D02*
X004011Y002519D01*
X004011Y002361D02*
X004510Y002361D01*
X004423Y002202D02*
X004011Y002202D01*
X004011Y002044D02*
X004370Y002044D01*
X004344Y001885D02*
X004011Y001885D01*
X004015Y001727D02*
X005271Y001727D01*
X005271Y001885D02*
X005431Y001885D01*
X005431Y002044D02*
X005271Y002044D01*
X005271Y002202D02*
X005431Y002202D01*
X005431Y002361D02*
X005271Y002361D01*
X005271Y002519D02*
X005431Y002519D01*
X005431Y002678D02*
X005271Y002678D01*
X005852Y002678D02*
X051849Y002678D01*
X051641Y002519D02*
X006060Y002519D01*
X006191Y002361D02*
X051510Y002361D01*
X051423Y002202D02*
X006278Y002202D01*
X006331Y002044D02*
X051370Y002044D01*
X051344Y001885D02*
X006357Y001885D01*
X006334Y001568D02*
X051368Y001568D01*
X051418Y001410D02*
X006284Y001410D01*
X006198Y001251D02*
X051503Y001251D01*
X051630Y001093D02*
X006071Y001093D01*
X005871Y000934D02*
X051831Y000934D01*
X052271Y000934D02*
X052431Y000934D01*
X052431Y001093D02*
X052271Y001093D01*
X052271Y001251D02*
X052431Y001251D01*
X052431Y001410D02*
X052271Y001410D01*
X052271Y001885D02*
X052431Y001885D01*
X052431Y002044D02*
X052271Y002044D01*
X052271Y002202D02*
X052431Y002202D01*
X052431Y002361D02*
X052271Y002361D01*
X052271Y002519D02*
X052431Y002519D01*
X052431Y002678D02*
X052271Y002678D01*
X053691Y002995D02*
X004011Y002995D01*
X004011Y003153D02*
X053691Y003153D01*
X053691Y003312D02*
X004011Y003312D01*
X004011Y003470D02*
X053691Y003470D01*
X053691Y003629D02*
X004011Y003629D01*
X004011Y003787D02*
X053691Y003787D01*
X053691Y003946D02*
X004011Y003946D01*
X004011Y004104D02*
X053691Y004104D01*
X053691Y004263D02*
X004011Y004263D01*
X004011Y004421D02*
X053691Y004421D01*
X053691Y004580D02*
X004011Y004580D01*
X004011Y004738D02*
X053691Y004738D01*
X053691Y004897D02*
X004011Y004897D01*
X004011Y005055D02*
X053691Y005055D01*
X053691Y005214D02*
X004011Y005214D01*
X004011Y005372D02*
X053691Y005372D01*
X053691Y005531D02*
X004011Y005531D01*
X004011Y005689D02*
X053691Y005689D01*
X053691Y005848D02*
X004011Y005848D01*
X004011Y006006D02*
X053691Y006006D01*
X053691Y006165D02*
X004011Y006165D01*
X004011Y006323D02*
X053691Y006323D01*
X053691Y006482D02*
X004011Y006482D01*
X004011Y006640D02*
X053691Y006640D01*
X053691Y006799D02*
X004011Y006799D01*
X004011Y006957D02*
X053691Y006957D01*
X053691Y007116D02*
X004011Y007116D01*
X004011Y007274D02*
X053691Y007274D01*
X053691Y007433D02*
X004011Y007433D01*
X004011Y007591D02*
X053691Y007591D01*
X053691Y007750D02*
X004011Y007750D01*
X004011Y007908D02*
X053691Y007908D01*
X053691Y008067D02*
X004011Y008067D01*
X004011Y008225D02*
X053691Y008225D01*
X053691Y008384D02*
X004011Y008384D01*
X004011Y008542D02*
X019811Y008542D01*
X019788Y008559D02*
X019849Y008514D01*
X019916Y008480D01*
X019988Y008457D01*
X020063Y008445D01*
X020081Y008445D01*
X020081Y008905D01*
X020121Y008905D01*
X020121Y008945D01*
X020581Y008945D01*
X020581Y008963D01*
X020569Y009037D01*
X020545Y009109D01*
X020511Y009177D01*
X020467Y009238D01*
X020413Y009291D01*
X020352Y009336D01*
X020285Y009370D01*
X020213Y009393D01*
X020138Y009405D01*
X020121Y009405D01*
X020121Y008945D01*
X020081Y008945D01*
X020081Y009405D01*
X020063Y009405D01*
X019988Y009393D01*
X019916Y009370D01*
X019849Y009336D01*
X019788Y009291D01*
X019735Y009238D01*
X019690Y009177D01*
X019656Y009109D01*
X019632Y009037D01*
X019621Y008963D01*
X019621Y008945D01*
X020081Y008945D01*
X020081Y008905D01*
X019621Y008905D01*
X019621Y008887D01*
X019632Y008813D01*
X019656Y008741D01*
X019690Y008673D01*
X019735Y008612D01*
X019788Y008559D01*
X019676Y008701D02*
X004011Y008701D01*
X004011Y008859D02*
X019625Y008859D01*
X019629Y009018D02*
X004011Y009018D01*
X004011Y009176D02*
X019690Y009176D01*
X019848Y009335D02*
X004011Y009335D01*
X004011Y009493D02*
X053691Y009493D01*
X053691Y009335D02*
X049479Y009335D01*
X049477Y009336D02*
X049410Y009370D01*
X049338Y009393D01*
X049263Y009405D01*
X049246Y009405D01*
X049246Y008945D01*
X049706Y008945D01*
X049706Y008963D01*
X049694Y009037D01*
X049670Y009109D01*
X049636Y009177D01*
X049592Y009238D01*
X049538Y009291D01*
X049477Y009336D01*
X049636Y009176D02*
X053691Y009176D01*
X053691Y009018D02*
X049697Y009018D01*
X049706Y008905D02*
X049246Y008905D01*
X049246Y008945D01*
X049206Y008945D01*
X049206Y009405D01*
X049188Y009405D01*
X049113Y009393D01*
X049041Y009370D01*
X048974Y009336D01*
X048913Y009291D01*
X048860Y009238D01*
X048815Y009177D01*
X048781Y009109D01*
X048757Y009037D01*
X048746Y008963D01*
X048746Y008945D01*
X049206Y008945D01*
X049206Y008905D01*
X049246Y008905D01*
X049246Y008445D01*
X049263Y008445D01*
X049338Y008457D01*
X049410Y008480D01*
X049477Y008514D01*
X049538Y008559D01*
X049592Y008612D01*
X049636Y008673D01*
X049670Y008741D01*
X049694Y008813D01*
X049706Y008887D01*
X049706Y008905D01*
X049701Y008859D02*
X053691Y008859D01*
X053691Y008701D02*
X049650Y008701D01*
X049515Y008542D02*
X053691Y008542D01*
X053691Y009652D02*
X004011Y009652D01*
X004011Y009810D02*
X053691Y009810D01*
X053691Y009969D02*
X004011Y009969D01*
X004011Y010127D02*
X053691Y010127D01*
X053691Y010286D02*
X004011Y010286D01*
X004011Y010444D02*
X053691Y010444D01*
X053691Y010603D02*
X004011Y010603D01*
X004011Y010761D02*
X053691Y010761D01*
X053691Y010920D02*
X004011Y010920D01*
X004011Y011078D02*
X053691Y011078D01*
X053691Y011237D02*
X049317Y011237D01*
X049313Y011235D02*
X049475Y011302D01*
X049599Y011426D01*
X049666Y011587D01*
X049666Y011763D01*
X049599Y011924D01*
X049475Y012048D01*
X049313Y012115D01*
X049138Y012115D01*
X048976Y012048D01*
X048853Y011924D01*
X048786Y011763D01*
X048786Y011587D01*
X048853Y011426D01*
X048976Y011302D01*
X049138Y011235D01*
X049313Y011235D01*
X049134Y011237D02*
X004011Y011237D01*
X004011Y011395D02*
X048883Y011395D01*
X048800Y011554D02*
X004011Y011554D01*
X004011Y011712D02*
X048786Y011712D01*
X048830Y011871D02*
X020214Y011871D01*
X020188Y011860D02*
X020350Y011927D01*
X020474Y012051D01*
X020541Y012212D01*
X020541Y012388D01*
X020474Y012549D01*
X020350Y012673D01*
X020188Y012740D01*
X020013Y012740D01*
X019851Y012673D01*
X019728Y012549D01*
X019661Y012388D01*
X019661Y012212D01*
X019728Y012051D01*
X019851Y011927D01*
X020013Y011860D01*
X020188Y011860D01*
X019988Y011871D02*
X004011Y011871D01*
X004011Y012029D02*
X019749Y012029D01*
X019671Y012188D02*
X004011Y012188D01*
X004011Y012346D02*
X012785Y012346D01*
X012818Y012313D02*
X012739Y012392D01*
X012697Y012494D01*
X012697Y012606D01*
X012739Y012708D01*
X012818Y012787D01*
X012920Y012829D01*
X013031Y012829D01*
X013134Y012787D01*
X013212Y012708D01*
X013255Y012606D01*
X013255Y012494D01*
X013212Y012392D01*
X013134Y012313D01*
X013031Y012271D01*
X012920Y012271D01*
X012818Y012313D01*
X012697Y012505D02*
X004011Y012505D01*
X004011Y012663D02*
X012720Y012663D01*
X012902Y012822D02*
X004011Y012822D01*
X004011Y012980D02*
X053691Y012980D01*
X053691Y012822D02*
X021717Y012822D01*
X021712Y012833D02*
X021634Y012912D01*
X021531Y012954D01*
X021420Y012954D01*
X021318Y012912D01*
X021239Y012833D01*
X021197Y012731D01*
X021197Y012619D01*
X021239Y012517D01*
X021318Y012438D01*
X021420Y012396D01*
X021531Y012396D01*
X021634Y012438D01*
X021712Y012517D01*
X021755Y012619D01*
X021755Y012731D01*
X021712Y012833D01*
X021755Y012663D02*
X053691Y012663D01*
X053691Y012505D02*
X021700Y012505D01*
X021251Y012505D02*
X020492Y012505D01*
X020541Y012346D02*
X022877Y012346D01*
X022864Y012333D02*
X022822Y012231D01*
X022822Y012119D01*
X022864Y012017D01*
X022943Y011938D01*
X023045Y011896D01*
X023156Y011896D01*
X023259Y011938D01*
X023337Y012017D01*
X023380Y012119D01*
X023380Y012231D01*
X023337Y012333D01*
X023259Y012412D01*
X023156Y012454D01*
X023045Y012454D01*
X022943Y012412D01*
X022864Y012333D01*
X022822Y012188D02*
X020530Y012188D01*
X020452Y012029D02*
X022859Y012029D01*
X023342Y012029D02*
X048957Y012029D01*
X049494Y012029D02*
X053691Y012029D01*
X053691Y011871D02*
X049621Y011871D01*
X049666Y011712D02*
X053691Y011712D01*
X053691Y011554D02*
X049652Y011554D01*
X049568Y011395D02*
X053691Y011395D01*
X053691Y012188D02*
X023380Y012188D01*
X023324Y012346D02*
X053691Y012346D01*
X053691Y013139D02*
X004011Y013139D01*
X004011Y013297D02*
X053691Y013297D01*
X053691Y013456D02*
X004011Y013456D01*
X004011Y013614D02*
X053691Y013614D01*
X053691Y013773D02*
X004011Y013773D01*
X004011Y013931D02*
X053691Y013931D01*
X053691Y014090D02*
X049410Y014090D01*
X049384Y014063D02*
X049462Y014142D01*
X049505Y014244D01*
X049505Y014356D01*
X049462Y014458D01*
X049384Y014537D01*
X049281Y014579D01*
X049170Y014579D01*
X049068Y014537D01*
X048989Y014458D01*
X048947Y014356D01*
X048947Y014244D01*
X048989Y014142D01*
X049068Y014063D01*
X049170Y014021D01*
X049281Y014021D01*
X049384Y014063D01*
X049505Y014248D02*
X053691Y014248D01*
X053691Y014407D02*
X049484Y014407D01*
X049315Y014565D02*
X053691Y014565D01*
X053691Y014724D02*
X004011Y014724D01*
X004011Y014882D02*
X053691Y014882D01*
X053691Y015041D02*
X013222Y015041D01*
X013212Y015017D02*
X013255Y015119D01*
X013255Y015231D01*
X013212Y015333D01*
X013134Y015412D01*
X013031Y015454D01*
X012920Y015454D01*
X012818Y015412D01*
X012739Y015333D01*
X012697Y015231D01*
X012697Y015119D01*
X012739Y015017D01*
X012818Y014938D01*
X012920Y014896D01*
X013031Y014896D01*
X013134Y014938D01*
X013212Y015017D01*
X013255Y015199D02*
X053691Y015199D01*
X053691Y015358D02*
X013188Y015358D01*
X012764Y015358D02*
X004011Y015358D01*
X004011Y015516D02*
X053691Y015516D01*
X053691Y015675D02*
X004011Y015675D01*
X004011Y015833D02*
X053691Y015833D01*
X053691Y015992D02*
X004011Y015992D01*
X004011Y016150D02*
X053691Y016150D01*
X053691Y016309D02*
X004011Y016309D01*
X004011Y016467D02*
X053691Y016467D01*
X053691Y016626D02*
X004011Y016626D01*
X004011Y016784D02*
X026139Y016784D01*
X026170Y016771D02*
X026281Y016771D01*
X026384Y016813D01*
X026462Y016892D01*
X026505Y016994D01*
X026505Y017106D01*
X026462Y017208D01*
X026384Y017287D01*
X026281Y017329D01*
X026170Y017329D01*
X026068Y017287D01*
X025989Y017208D01*
X025947Y017106D01*
X025947Y016994D01*
X025989Y016892D01*
X026068Y016813D01*
X026170Y016771D01*
X026313Y016784D02*
X027639Y016784D01*
X027670Y016771D02*
X027781Y016771D01*
X027884Y016813D01*
X027962Y016892D01*
X028005Y016994D01*
X028005Y017106D01*
X027962Y017208D01*
X027884Y017287D01*
X027781Y017329D01*
X027670Y017329D01*
X027568Y017287D01*
X027489Y017208D01*
X027447Y017106D01*
X027447Y016994D01*
X027489Y016892D01*
X027568Y016813D01*
X027670Y016771D01*
X027813Y016784D02*
X053691Y016784D01*
X053691Y016943D02*
X027983Y016943D01*
X028005Y017101D02*
X053691Y017101D01*
X053691Y017260D02*
X027911Y017260D01*
X027541Y017260D02*
X026411Y017260D01*
X026505Y017101D02*
X027447Y017101D01*
X027468Y016943D02*
X026483Y016943D01*
X025968Y016943D02*
X015263Y016943D01*
X015259Y016938D02*
X015337Y017017D01*
X015380Y017119D01*
X015380Y017231D01*
X015337Y017333D01*
X015259Y017412D01*
X015156Y017454D01*
X015045Y017454D01*
X014943Y017412D01*
X014864Y017333D01*
X014822Y017231D01*
X014822Y017119D01*
X014864Y017017D01*
X014943Y016938D01*
X015045Y016896D01*
X015156Y016896D01*
X015259Y016938D01*
X015372Y017101D02*
X025947Y017101D01*
X026041Y017260D02*
X015368Y017260D01*
X015243Y017418D02*
X017242Y017418D01*
X017193Y017438D02*
X017295Y017396D01*
X017406Y017396D01*
X017509Y017438D01*
X017587Y017517D01*
X017630Y017619D01*
X017630Y017731D01*
X017587Y017833D01*
X017509Y017912D01*
X017406Y017954D01*
X017295Y017954D01*
X017193Y017912D01*
X017114Y017833D01*
X017072Y017731D01*
X017072Y017619D01*
X017114Y017517D01*
X017193Y017438D01*
X017089Y017577D02*
X004011Y017577D01*
X004011Y017735D02*
X007771Y017735D01*
X007739Y017767D02*
X007818Y017688D01*
X007920Y017646D01*
X008031Y017646D01*
X008134Y017688D01*
X008212Y017767D01*
X008255Y017869D01*
X008255Y017981D01*
X008212Y018083D01*
X008134Y018162D01*
X008031Y018204D01*
X007920Y018204D01*
X007818Y018162D01*
X007739Y018083D01*
X007697Y017981D01*
X007697Y017869D01*
X007739Y017767D01*
X007697Y017894D02*
X004011Y017894D01*
X004011Y018052D02*
X007726Y018052D01*
X008225Y018052D02*
X009226Y018052D01*
X009239Y018083D02*
X009197Y017981D01*
X009197Y017869D01*
X009239Y017767D01*
X009318Y017688D01*
X009420Y017646D01*
X009531Y017646D01*
X009634Y017688D01*
X009712Y017767D01*
X009755Y017869D01*
X009755Y017981D01*
X009712Y018083D01*
X009634Y018162D01*
X009531Y018204D01*
X009420Y018204D01*
X009318Y018162D01*
X009239Y018083D01*
X009197Y017894D02*
X008255Y017894D01*
X008180Y017735D02*
X009271Y017735D01*
X009680Y017735D02*
X017073Y017735D01*
X017175Y017894D02*
X009755Y017894D01*
X009725Y018052D02*
X053691Y018052D01*
X053691Y017894D02*
X017527Y017894D01*
X017628Y017735D02*
X053691Y017735D01*
X053691Y017577D02*
X017612Y017577D01*
X017459Y017418D02*
X053691Y017418D01*
X053691Y018211D02*
X004011Y018211D01*
X004011Y018369D02*
X048909Y018369D01*
X048853Y018426D02*
X048976Y018302D01*
X049138Y018235D01*
X049313Y018235D01*
X049475Y018302D01*
X049599Y018426D01*
X049666Y018587D01*
X049666Y018763D01*
X049599Y018924D01*
X049475Y019048D01*
X049313Y019115D01*
X049138Y019115D01*
X048976Y019048D01*
X048853Y018924D01*
X048786Y018763D01*
X048786Y018587D01*
X048853Y018426D01*
X048810Y018528D02*
X004011Y018528D01*
X004011Y018686D02*
X048786Y018686D01*
X048820Y018845D02*
X004011Y018845D01*
X004011Y019003D02*
X007378Y019003D01*
X007364Y019017D02*
X007443Y018938D01*
X007545Y018896D01*
X007656Y018896D01*
X007759Y018938D01*
X007837Y019017D01*
X007880Y019119D01*
X007880Y019231D01*
X007837Y019333D01*
X007759Y019412D01*
X007656Y019454D01*
X007545Y019454D01*
X007443Y019412D01*
X007364Y019333D01*
X007322Y019231D01*
X007322Y019119D01*
X007364Y019017D01*
X007322Y019162D02*
X004011Y019162D01*
X004011Y019320D02*
X007359Y019320D01*
X007843Y019320D02*
X009609Y019320D01*
X009614Y019333D02*
X009572Y019231D01*
X009572Y019119D01*
X009614Y019017D01*
X009693Y018938D01*
X009795Y018896D01*
X009906Y018896D01*
X010009Y018938D01*
X010087Y019017D01*
X010130Y019119D01*
X010130Y019231D01*
X010087Y019333D01*
X010009Y019412D01*
X009906Y019454D01*
X009795Y019454D01*
X009693Y019412D01*
X009614Y019333D01*
X009572Y019162D02*
X007880Y019162D01*
X007823Y019003D02*
X009628Y019003D01*
X010073Y019003D02*
X048931Y019003D01*
X049520Y019003D02*
X053691Y019003D01*
X053691Y018845D02*
X049632Y018845D01*
X049666Y018686D02*
X053691Y018686D01*
X053691Y018528D02*
X049641Y018528D01*
X049542Y018369D02*
X053691Y018369D01*
X053691Y019162D02*
X010130Y019162D01*
X010093Y019320D02*
X053691Y019320D01*
X053691Y019479D02*
X004011Y019479D01*
X004011Y019637D02*
X053691Y019637D01*
X053691Y019796D02*
X009974Y019796D01*
X009962Y019767D02*
X010005Y019869D01*
X010005Y019981D01*
X009962Y020083D01*
X009884Y020162D01*
X009781Y020204D01*
X009670Y020204D01*
X009568Y020162D01*
X009489Y020083D01*
X009447Y019981D01*
X009447Y019869D01*
X009489Y019767D01*
X009568Y019688D01*
X009670Y019646D01*
X009781Y019646D01*
X009884Y019688D01*
X009962Y019767D01*
X010005Y019954D02*
X053691Y019954D01*
X053691Y020113D02*
X009933Y020113D01*
X009519Y020113D02*
X004011Y020113D01*
X004011Y020271D02*
X053691Y020271D01*
X053691Y020430D02*
X004011Y020430D01*
X004011Y020588D02*
X053691Y020588D01*
X053691Y020747D02*
X004011Y020747D01*
X004011Y020905D02*
X053691Y020905D01*
X053691Y021064D02*
X049384Y021064D01*
X049384Y021063D02*
X049462Y021142D01*
X049505Y021244D01*
X049505Y021356D01*
X049462Y021458D01*
X049384Y021537D01*
X049281Y021579D01*
X049170Y021579D01*
X049068Y021537D01*
X048989Y021458D01*
X048947Y021356D01*
X048947Y021244D01*
X048989Y021142D01*
X049068Y021063D01*
X049170Y021021D01*
X049281Y021021D01*
X049384Y021063D01*
X049495Y021222D02*
X053691Y021222D01*
X053691Y021381D02*
X049494Y021381D01*
X049378Y021539D02*
X053691Y021539D01*
X053691Y021698D02*
X037172Y021698D01*
X037156Y021704D02*
X037045Y021704D01*
X036943Y021662D01*
X036864Y021583D01*
X036822Y021481D01*
X036822Y021369D01*
X036864Y021267D01*
X036943Y021188D01*
X037045Y021146D01*
X037156Y021146D01*
X037259Y021188D01*
X037337Y021267D01*
X037380Y021369D01*
X037380Y021481D01*
X037337Y021583D01*
X037259Y021662D01*
X037156Y021704D01*
X037029Y021698D02*
X004011Y021698D01*
X004011Y021856D02*
X053691Y021856D01*
X053691Y022015D02*
X004011Y022015D01*
X004011Y022173D02*
X009351Y022173D01*
X009364Y022142D02*
X009443Y022063D01*
X009545Y022021D01*
X009656Y022021D01*
X009759Y022063D01*
X009837Y022142D01*
X009880Y022244D01*
X009880Y022356D01*
X009837Y022458D01*
X009759Y022537D01*
X009656Y022579D01*
X009545Y022579D01*
X009443Y022537D01*
X009364Y022458D01*
X009322Y022356D01*
X009322Y022244D01*
X009364Y022142D01*
X009322Y022332D02*
X004011Y022332D01*
X004011Y022490D02*
X009396Y022490D01*
X009805Y022490D02*
X011146Y022490D01*
X011114Y022458D02*
X011072Y022356D01*
X011072Y022244D01*
X011114Y022142D01*
X011193Y022063D01*
X011295Y022021D01*
X011406Y022021D01*
X011509Y022063D01*
X011587Y022142D01*
X011630Y022244D01*
X011630Y022356D01*
X011587Y022458D01*
X011509Y022537D01*
X011406Y022579D01*
X011295Y022579D01*
X011193Y022537D01*
X011114Y022458D01*
X011072Y022332D02*
X009880Y022332D01*
X009850Y022173D02*
X011101Y022173D01*
X011600Y022173D02*
X014605Y022173D01*
X014568Y022188D02*
X014670Y022146D01*
X014781Y022146D01*
X014884Y022188D01*
X014962Y022267D01*
X015005Y022369D01*
X015005Y022481D01*
X014962Y022583D01*
X014884Y022662D01*
X014781Y022704D01*
X014670Y022704D01*
X014568Y022662D01*
X014489Y022583D01*
X014447Y022481D01*
X014447Y022369D01*
X014489Y022267D01*
X014568Y022188D01*
X014462Y022332D02*
X011630Y022332D01*
X011555Y022490D02*
X014451Y022490D01*
X014555Y022649D02*
X004011Y022649D01*
X004011Y022807D02*
X020197Y022807D01*
X020197Y022856D02*
X020197Y022744D01*
X020239Y022642D01*
X020318Y022563D01*
X020420Y022521D01*
X020531Y022521D01*
X020634Y022563D01*
X020712Y022642D01*
X020755Y022744D01*
X020755Y022856D01*
X020712Y022958D01*
X020634Y023037D01*
X020531Y023079D01*
X020420Y023079D01*
X020318Y023037D01*
X020239Y022958D01*
X020197Y022856D01*
X020247Y022966D02*
X018411Y022966D01*
X018384Y022938D02*
X018462Y023017D01*
X018505Y023119D01*
X018505Y023231D01*
X018462Y023333D01*
X018384Y023412D01*
X018281Y023454D01*
X018170Y023454D01*
X018068Y023412D01*
X017989Y023333D01*
X017947Y023231D01*
X017947Y023119D01*
X017989Y023017D01*
X018068Y022938D01*
X018170Y022896D01*
X018281Y022896D01*
X018384Y022938D01*
X018505Y023124D02*
X023253Y023124D01*
X023295Y023142D02*
X023193Y023099D01*
X023114Y023021D01*
X023072Y022918D01*
X023072Y022807D01*
X023114Y022704D01*
X023193Y022626D01*
X023295Y022583D01*
X023406Y022583D01*
X023509Y022626D01*
X023587Y022704D01*
X023630Y022807D01*
X023630Y022918D01*
X023587Y023021D01*
X023509Y023099D01*
X023406Y023142D01*
X023295Y023142D01*
X023448Y023124D02*
X053691Y023124D01*
X053691Y022966D02*
X023610Y022966D01*
X023630Y022807D02*
X043103Y022807D01*
X043114Y022833D02*
X043072Y022731D01*
X043072Y022619D01*
X043114Y022517D01*
X043193Y022438D01*
X043295Y022396D01*
X043406Y022396D01*
X043509Y022438D01*
X043587Y022517D01*
X043630Y022619D01*
X043630Y022731D01*
X043587Y022833D01*
X043509Y022912D01*
X043406Y022954D01*
X043295Y022954D01*
X043193Y022912D01*
X043114Y022833D01*
X043072Y022649D02*
X023531Y022649D01*
X023170Y022649D02*
X020715Y022649D01*
X020755Y022807D02*
X023072Y022807D01*
X023091Y022966D02*
X020705Y022966D01*
X020236Y022649D02*
X016897Y022649D01*
X016884Y022662D02*
X016781Y022704D01*
X016670Y022704D01*
X016568Y022662D01*
X016489Y022583D01*
X016447Y022481D01*
X016447Y022369D01*
X016489Y022267D01*
X016568Y022188D01*
X016670Y022146D01*
X016781Y022146D01*
X016884Y022188D01*
X016962Y022267D01*
X017005Y022369D01*
X017005Y022481D01*
X016962Y022583D01*
X016884Y022662D01*
X017001Y022490D02*
X043141Y022490D01*
X043560Y022490D02*
X044891Y022490D01*
X044864Y022517D02*
X044943Y022438D01*
X045045Y022396D01*
X045156Y022396D01*
X045259Y022438D01*
X045337Y022517D01*
X045380Y022619D01*
X045380Y022731D01*
X045337Y022833D01*
X045259Y022912D01*
X045156Y022954D01*
X045045Y022954D01*
X044943Y022912D01*
X044864Y022833D01*
X044822Y022731D01*
X044822Y022619D01*
X044864Y022517D01*
X044822Y022649D02*
X043630Y022649D01*
X043598Y022807D02*
X044853Y022807D01*
X045348Y022807D02*
X053691Y022807D01*
X053691Y022649D02*
X045380Y022649D01*
X045310Y022490D02*
X053691Y022490D01*
X053691Y022332D02*
X016989Y022332D01*
X016847Y022173D02*
X053691Y022173D01*
X053691Y023283D02*
X018483Y023283D01*
X018313Y023441D02*
X053691Y023441D01*
X053691Y023600D02*
X004011Y023600D01*
X004011Y023758D02*
X010748Y023758D01*
X010739Y023767D02*
X010818Y023688D01*
X010920Y023646D01*
X011031Y023646D01*
X011134Y023688D01*
X011212Y023767D01*
X011255Y023869D01*
X011255Y023981D01*
X011212Y024083D01*
X011134Y024162D01*
X011031Y024204D01*
X010920Y024204D01*
X010818Y024162D01*
X010739Y024083D01*
X010697Y023981D01*
X010697Y023869D01*
X010739Y023767D01*
X010697Y023917D02*
X004011Y023917D01*
X004011Y024075D02*
X010736Y024075D01*
X011216Y024075D02*
X016197Y024075D01*
X016197Y024106D02*
X016197Y023994D01*
X016239Y023892D01*
X016318Y023813D01*
X016420Y023771D01*
X016531Y023771D01*
X016634Y023813D01*
X016712Y023892D01*
X016755Y023994D01*
X016755Y024106D01*
X016712Y024208D01*
X016634Y024287D01*
X016531Y024329D01*
X016420Y024329D01*
X016318Y024287D01*
X016239Y024208D01*
X016197Y024106D01*
X016265Y024234D02*
X004011Y024234D01*
X004011Y024392D02*
X018864Y024392D01*
X018943Y024313D01*
X019045Y024271D01*
X019156Y024271D01*
X019259Y024313D01*
X019337Y024392D01*
X019380Y024494D01*
X019380Y024606D01*
X019337Y024708D01*
X019259Y024787D01*
X019156Y024829D01*
X019045Y024829D01*
X018943Y024787D01*
X018864Y024708D01*
X018822Y024606D01*
X018822Y024494D01*
X018864Y024392D01*
X018822Y024551D02*
X004011Y024551D01*
X004011Y024709D02*
X018865Y024709D01*
X019336Y024709D02*
X053691Y024709D01*
X053691Y024551D02*
X019380Y024551D01*
X019337Y024392D02*
X053691Y024392D01*
X053691Y024234D02*
X016687Y024234D01*
X016755Y024075D02*
X017611Y024075D01*
X017614Y024083D02*
X017572Y023981D01*
X017572Y023869D01*
X017614Y023767D01*
X017693Y023688D01*
X017795Y023646D01*
X017906Y023646D01*
X018009Y023688D01*
X018087Y023767D01*
X018130Y023869D01*
X018130Y023981D01*
X018087Y024083D01*
X018009Y024162D01*
X017906Y024204D01*
X017795Y024204D01*
X017693Y024162D01*
X017614Y024083D01*
X017572Y023917D02*
X016722Y023917D01*
X016531Y023579D02*
X016420Y023579D01*
X016318Y023537D01*
X016239Y023458D01*
X016197Y023356D01*
X016197Y023244D01*
X016239Y023142D01*
X016318Y023063D01*
X016420Y023021D01*
X016531Y023021D01*
X016634Y023063D01*
X016712Y023142D01*
X016755Y023244D01*
X016755Y023356D01*
X016712Y023458D01*
X016634Y023537D01*
X016531Y023579D01*
X016719Y023441D02*
X018139Y023441D01*
X017968Y023283D02*
X016755Y023283D01*
X016694Y023124D02*
X017947Y023124D01*
X018040Y022966D02*
X004011Y022966D01*
X004011Y023124D02*
X016257Y023124D01*
X016197Y023283D02*
X004011Y023283D01*
X004011Y023441D02*
X016232Y023441D01*
X016229Y023917D02*
X011255Y023917D01*
X011203Y023758D02*
X017623Y023758D01*
X018078Y023758D02*
X053691Y023758D01*
X053691Y023917D02*
X018130Y023917D01*
X018091Y024075D02*
X053691Y024075D01*
X053691Y024868D02*
X013313Y024868D01*
X013337Y024892D02*
X013380Y024994D01*
X013380Y025106D01*
X013337Y025208D01*
X013259Y025287D01*
X013156Y025329D01*
X013045Y025329D01*
X012943Y025287D01*
X012864Y025208D01*
X012822Y025106D01*
X012822Y024994D01*
X012864Y024892D01*
X012943Y024813D01*
X013045Y024771D01*
X013156Y024771D01*
X013259Y024813D01*
X013337Y024892D01*
X013380Y025026D02*
X053691Y025026D01*
X053691Y025185D02*
X013347Y025185D01*
X012854Y025185D02*
X008749Y025185D01*
X008759Y025188D02*
X008837Y025267D01*
X008880Y025369D01*
X008880Y025481D01*
X008837Y025583D01*
X008759Y025662D01*
X008656Y025704D01*
X008545Y025704D01*
X008443Y025662D01*
X008364Y025583D01*
X008322Y025481D01*
X008322Y025369D01*
X008364Y025267D01*
X008443Y025188D01*
X008545Y025146D01*
X008656Y025146D01*
X008759Y025188D01*
X008869Y025343D02*
X048935Y025343D01*
X048976Y025302D02*
X049138Y025235D01*
X049313Y025235D01*
X049475Y025302D01*
X049599Y025426D01*
X049666Y025587D01*
X049666Y025763D01*
X049599Y025924D01*
X049475Y026048D01*
X049313Y026115D01*
X049138Y026115D01*
X048976Y026048D01*
X048853Y025924D01*
X048786Y025763D01*
X048786Y025587D01*
X048853Y025426D01*
X048976Y025302D01*
X048821Y025502D02*
X008871Y025502D01*
X008760Y025660D02*
X048786Y025660D01*
X048809Y025819D02*
X004011Y025819D01*
X004011Y025977D02*
X048905Y025977D01*
X049546Y025977D02*
X053691Y025977D01*
X053691Y025819D02*
X049642Y025819D01*
X049666Y025660D02*
X053691Y025660D01*
X053691Y025502D02*
X049630Y025502D01*
X049516Y025343D02*
X053691Y025343D01*
X053691Y026136D02*
X030456Y026136D01*
X030462Y026142D02*
X030505Y026244D01*
X030505Y026356D01*
X030462Y026458D01*
X030433Y026487D01*
X030462Y026517D01*
X030505Y026619D01*
X030505Y026731D01*
X030462Y026833D01*
X030384Y026912D01*
X030281Y026954D01*
X030170Y026954D01*
X030068Y026912D01*
X029989Y026833D01*
X029947Y026731D01*
X029947Y026619D01*
X029989Y026517D01*
X030018Y026487D01*
X029989Y026458D01*
X029947Y026356D01*
X029947Y026244D01*
X029989Y026142D01*
X030068Y026063D01*
X030170Y026021D01*
X030281Y026021D01*
X030384Y026063D01*
X030462Y026142D01*
X030505Y026294D02*
X053691Y026294D01*
X053691Y026453D02*
X038746Y026453D01*
X038609Y026396D02*
X038885Y026510D01*
X039096Y026721D01*
X039210Y026997D01*
X039210Y027296D01*
X039096Y027572D01*
X038885Y027783D01*
X038609Y027897D01*
X038311Y027897D01*
X038035Y027783D01*
X037824Y027572D01*
X037709Y027296D01*
X037709Y026997D01*
X037824Y026721D01*
X038035Y026510D01*
X038311Y026396D01*
X038609Y026396D01*
X038986Y026611D02*
X039822Y026611D01*
X039866Y026593D02*
X040086Y026593D01*
X040289Y026677D01*
X040445Y026833D01*
X040529Y027036D01*
X040529Y027257D01*
X040445Y027460D01*
X040289Y027616D01*
X040086Y027700D01*
X039866Y027700D01*
X039662Y027616D01*
X039506Y027460D01*
X039422Y027257D01*
X039422Y027036D01*
X039506Y026833D01*
X039662Y026677D01*
X039866Y026593D01*
X040129Y026611D02*
X053691Y026611D01*
X053691Y026770D02*
X040381Y026770D01*
X040484Y026928D02*
X053691Y026928D01*
X053691Y027087D02*
X040529Y027087D01*
X040529Y027245D02*
X053691Y027245D01*
X053691Y027404D02*
X040468Y027404D01*
X040343Y027562D02*
X053691Y027562D01*
X053691Y027721D02*
X038947Y027721D01*
X039100Y027562D02*
X039609Y027562D01*
X039483Y027404D02*
X039166Y027404D01*
X039210Y027245D02*
X039422Y027245D01*
X039422Y027087D02*
X039210Y027087D01*
X039182Y026928D02*
X039467Y026928D01*
X039570Y026770D02*
X039116Y026770D01*
X038174Y026453D02*
X030464Y026453D01*
X030501Y026611D02*
X037934Y026611D01*
X037804Y026770D02*
X030489Y026770D01*
X030344Y026928D02*
X037738Y026928D01*
X037709Y027087D02*
X029491Y027087D01*
X029505Y027119D02*
X029462Y027017D01*
X029384Y026938D01*
X029281Y026896D01*
X029170Y026896D01*
X029068Y026938D01*
X028989Y027017D01*
X028947Y027119D01*
X028947Y027231D01*
X028989Y027333D01*
X029068Y027412D01*
X029170Y027454D01*
X029281Y027454D01*
X029384Y027412D01*
X029462Y027333D01*
X029505Y027231D01*
X029505Y027119D01*
X029499Y027245D02*
X037709Y027245D01*
X037754Y027404D02*
X029392Y027404D01*
X029060Y027404D02*
X028005Y027404D01*
X028005Y027369D02*
X028005Y027481D01*
X027962Y027583D01*
X027933Y027613D01*
X027962Y027642D01*
X028005Y027744D01*
X028005Y027856D01*
X027962Y027958D01*
X027884Y028037D01*
X027781Y028079D01*
X027670Y028079D01*
X027568Y028037D01*
X027489Y027958D01*
X027447Y027856D01*
X027447Y027744D01*
X027489Y027642D01*
X027518Y027613D01*
X027489Y027583D01*
X027447Y027481D01*
X027447Y027369D01*
X027489Y027267D01*
X027568Y027188D01*
X027670Y027146D01*
X027781Y027146D01*
X027884Y027188D01*
X027962Y027267D01*
X028005Y027369D01*
X027940Y027245D02*
X028953Y027245D01*
X028960Y027087D02*
X004011Y027087D01*
X004011Y027245D02*
X027511Y027245D01*
X027447Y027404D02*
X025842Y027404D01*
X025837Y027392D02*
X025880Y027494D01*
X025880Y027606D01*
X025837Y027708D01*
X025759Y027787D01*
X025656Y027829D01*
X025545Y027829D01*
X025443Y027787D01*
X025413Y027757D01*
X025384Y027787D01*
X025281Y027829D01*
X025170Y027829D01*
X025068Y027787D01*
X024989Y027708D01*
X024947Y027606D01*
X024947Y027494D01*
X024989Y027392D01*
X025068Y027313D01*
X025170Y027271D01*
X025281Y027271D01*
X025384Y027313D01*
X025413Y027343D01*
X025443Y027313D01*
X025545Y027271D01*
X025656Y027271D01*
X025759Y027313D01*
X025837Y027392D01*
X025880Y027562D02*
X027480Y027562D01*
X027456Y027721D02*
X025825Y027721D01*
X025002Y027721D02*
X012791Y027721D01*
X012759Y027688D02*
X012837Y027767D01*
X012880Y027869D01*
X012880Y027981D01*
X012837Y028083D01*
X012759Y028162D01*
X012656Y028204D01*
X012545Y028204D01*
X012443Y028162D01*
X012364Y028083D01*
X012322Y027981D01*
X012322Y027869D01*
X012364Y027767D01*
X012443Y027688D01*
X012545Y027646D01*
X012656Y027646D01*
X012759Y027688D01*
X012880Y027879D02*
X027456Y027879D01*
X027570Y028038D02*
X012856Y028038D01*
X012675Y028196D02*
X034467Y028196D01*
X034447Y028244D02*
X034489Y028142D01*
X034568Y028063D01*
X034670Y028021D01*
X034781Y028021D01*
X034884Y028063D01*
X034962Y028142D01*
X035005Y028244D01*
X035005Y028356D01*
X034962Y028458D01*
X034933Y028487D01*
X034962Y028517D01*
X035005Y028619D01*
X035005Y028731D01*
X034962Y028833D01*
X034884Y028912D01*
X034781Y028954D01*
X034670Y028954D01*
X034568Y028912D01*
X034489Y028833D01*
X034447Y028731D01*
X034447Y028619D01*
X034489Y028517D01*
X034518Y028487D01*
X034489Y028458D01*
X034447Y028356D01*
X034447Y028244D01*
X034447Y028355D02*
X007566Y028355D01*
X007587Y028333D02*
X007509Y028412D01*
X007406Y028454D01*
X007295Y028454D01*
X007193Y028412D01*
X007114Y028333D01*
X007072Y028231D01*
X007072Y028119D01*
X007114Y028017D01*
X007193Y027938D01*
X007295Y027896D01*
X007406Y027896D01*
X007509Y027938D01*
X007587Y028017D01*
X007630Y028119D01*
X007630Y028231D01*
X007587Y028333D01*
X007630Y028196D02*
X012526Y028196D01*
X012345Y028038D02*
X007596Y028038D01*
X007670Y027829D02*
X007568Y027787D01*
X007489Y027708D01*
X007447Y027606D01*
X007447Y027494D01*
X007489Y027392D01*
X007568Y027313D01*
X007670Y027271D01*
X007781Y027271D01*
X007884Y027313D01*
X007962Y027392D01*
X008005Y027494D01*
X008005Y027606D01*
X007962Y027708D01*
X007884Y027787D01*
X007781Y027829D01*
X007670Y027829D01*
X007502Y027721D02*
X004011Y027721D01*
X004011Y027879D02*
X012322Y027879D01*
X012410Y027721D02*
X011325Y027721D01*
X011337Y027708D02*
X011259Y027787D01*
X011156Y027829D01*
X011045Y027829D01*
X010943Y027787D01*
X010864Y027708D01*
X010822Y027606D01*
X010822Y027494D01*
X010864Y027392D01*
X010943Y027313D01*
X011045Y027271D01*
X011156Y027271D01*
X011259Y027313D01*
X011337Y027392D01*
X011380Y027494D01*
X011380Y027606D01*
X011337Y027708D01*
X011380Y027562D02*
X024947Y027562D01*
X024984Y027404D02*
X011342Y027404D01*
X010859Y027404D02*
X007967Y027404D01*
X008005Y027562D02*
X010822Y027562D01*
X010877Y027721D02*
X007950Y027721D01*
X007447Y027562D02*
X004011Y027562D01*
X004011Y027404D02*
X007484Y027404D01*
X006634Y027938D02*
X006531Y027896D01*
X006420Y027896D01*
X006318Y027938D01*
X006239Y028017D01*
X006197Y028119D01*
X006197Y028231D01*
X006239Y028333D01*
X006318Y028412D01*
X006420Y028454D01*
X006531Y028454D01*
X006634Y028412D01*
X006712Y028333D01*
X006755Y028231D01*
X006755Y028119D01*
X006712Y028017D01*
X006634Y027938D01*
X006721Y028038D02*
X007106Y028038D01*
X007072Y028196D02*
X006755Y028196D01*
X006691Y028355D02*
X007136Y028355D01*
X006261Y028355D02*
X004011Y028355D01*
X004011Y028513D02*
X034493Y028513D01*
X034447Y028672D02*
X004011Y028672D01*
X004011Y028830D02*
X034488Y028830D01*
X034963Y028830D02*
X039918Y028830D01*
X039918Y028858D02*
X039918Y028742D01*
X040033Y028742D01*
X040033Y028208D01*
X040115Y028221D01*
X040203Y028250D01*
X040287Y028292D01*
X040362Y028347D01*
X040428Y028413D01*
X040483Y028489D01*
X040526Y028572D01*
X040554Y028661D01*
X040567Y028742D01*
X040033Y028742D01*
X040033Y028858D01*
X039918Y028858D01*
X039918Y029392D01*
X039837Y029379D01*
X039748Y029350D01*
X039665Y029308D01*
X039589Y029253D01*
X039523Y029187D01*
X039468Y029111D01*
X039426Y029028D01*
X039397Y028939D01*
X039384Y028858D01*
X039918Y028858D01*
X040033Y028858D02*
X040033Y029392D01*
X040115Y029379D01*
X040203Y029350D01*
X040287Y029308D01*
X040362Y029253D01*
X040428Y029187D01*
X040483Y029111D01*
X040526Y029028D01*
X040554Y028939D01*
X040567Y028858D01*
X040033Y028858D01*
X040033Y028830D02*
X053691Y028830D01*
X053691Y028672D02*
X040556Y028672D01*
X040495Y028513D02*
X049044Y028513D01*
X049068Y028537D02*
X048989Y028458D01*
X048947Y028356D01*
X048947Y028244D01*
X048989Y028142D01*
X049068Y028063D01*
X049170Y028021D01*
X049281Y028021D01*
X049384Y028063D01*
X049462Y028142D01*
X049505Y028244D01*
X049505Y028356D01*
X049462Y028458D01*
X049384Y028537D01*
X049281Y028579D01*
X049170Y028579D01*
X049068Y028537D01*
X048947Y028355D02*
X040369Y028355D01*
X040033Y028355D02*
X039918Y028355D01*
X039918Y028208D02*
X039918Y028742D01*
X039384Y028742D01*
X039397Y028661D01*
X039426Y028572D01*
X039468Y028489D01*
X039523Y028413D01*
X039589Y028347D01*
X039665Y028292D01*
X039748Y028250D01*
X039837Y028221D01*
X039918Y028208D01*
X039918Y028513D02*
X040033Y028513D01*
X040033Y028672D02*
X039918Y028672D01*
X039918Y028989D02*
X040033Y028989D01*
X040033Y029147D02*
X039918Y029147D01*
X039918Y029306D02*
X040033Y029306D01*
X040289Y029306D02*
X041481Y029306D01*
X041524Y029202D02*
X041736Y028990D01*
X042011Y028876D01*
X042310Y028876D01*
X042586Y028990D01*
X042797Y029202D01*
X042911Y029477D01*
X042911Y029776D01*
X042797Y030052D01*
X042586Y030263D01*
X042310Y030377D01*
X042011Y030377D01*
X041736Y030263D01*
X041524Y030052D01*
X041410Y029776D01*
X041410Y029477D01*
X041524Y029202D01*
X041579Y029147D02*
X040457Y029147D01*
X040538Y028989D02*
X041740Y028989D01*
X041416Y029464D02*
X015255Y029464D01*
X015255Y029481D02*
X015212Y029583D01*
X015134Y029662D01*
X015031Y029704D01*
X014920Y029704D01*
X014818Y029662D01*
X014739Y029583D01*
X014697Y029481D01*
X014697Y029369D01*
X014739Y029267D01*
X014818Y029188D01*
X014920Y029146D01*
X015031Y029146D01*
X015134Y029188D01*
X015212Y029267D01*
X015255Y029369D01*
X015255Y029481D01*
X015173Y029623D02*
X041410Y029623D01*
X041412Y029781D02*
X033343Y029781D01*
X033337Y029767D02*
X033380Y029869D01*
X033380Y029981D01*
X033337Y030083D01*
X033259Y030162D01*
X033156Y030204D01*
X033045Y030204D01*
X032943Y030162D01*
X032864Y030083D01*
X032822Y029981D01*
X032822Y029869D01*
X032864Y029767D01*
X032943Y029688D01*
X033045Y029646D01*
X033156Y029646D01*
X033259Y029688D01*
X033337Y029767D01*
X033380Y029940D02*
X039770Y029940D01*
X039866Y029900D02*
X040086Y029900D01*
X040289Y029984D01*
X040445Y030140D01*
X040529Y030343D01*
X040529Y030564D01*
X040445Y030767D01*
X040289Y030923D01*
X040086Y031007D01*
X039866Y031007D01*
X039662Y030923D01*
X039506Y030767D01*
X039422Y030564D01*
X039422Y030343D01*
X039506Y030140D01*
X039662Y029984D01*
X039866Y029900D01*
X040181Y029940D02*
X041478Y029940D01*
X041571Y030098D02*
X040403Y030098D01*
X040493Y030257D02*
X041729Y030257D01*
X042592Y030257D02*
X053691Y030257D01*
X053691Y030415D02*
X040529Y030415D01*
X040525Y030574D02*
X053691Y030574D01*
X053691Y030732D02*
X040459Y030732D01*
X040321Y030891D02*
X053691Y030891D01*
X053691Y031049D02*
X014630Y031049D01*
X014630Y030994D02*
X014587Y030892D01*
X014509Y030813D01*
X014406Y030771D01*
X014295Y030771D01*
X014193Y030813D01*
X014114Y030892D01*
X014072Y030994D01*
X014072Y031106D01*
X014114Y031208D01*
X014193Y031287D01*
X014295Y031329D01*
X014406Y031329D01*
X014509Y031287D01*
X014587Y031208D01*
X014630Y031106D01*
X014630Y030994D01*
X014586Y030891D02*
X016797Y030891D01*
X016818Y030912D02*
X016739Y030833D01*
X016697Y030731D01*
X016697Y030619D01*
X016739Y030517D01*
X016818Y030438D01*
X016920Y030396D01*
X017031Y030396D01*
X017134Y030438D01*
X017212Y030517D01*
X017255Y030619D01*
X017255Y030731D01*
X017212Y030833D01*
X017134Y030912D01*
X017031Y030954D01*
X016920Y030954D01*
X016818Y030912D01*
X016697Y030732D02*
X004011Y030732D01*
X004011Y030574D02*
X016716Y030574D01*
X016874Y030415D02*
X004011Y030415D01*
X004011Y030257D02*
X027163Y030257D01*
X027193Y030287D02*
X027114Y030208D01*
X027072Y030106D01*
X027072Y029994D01*
X027114Y029892D01*
X027193Y029813D01*
X027295Y029771D01*
X027406Y029771D01*
X027509Y029813D01*
X027587Y029892D01*
X027630Y029994D01*
X027630Y030106D01*
X027587Y030208D01*
X027509Y030287D01*
X027406Y030329D01*
X027295Y030329D01*
X027193Y030287D01*
X027072Y030098D02*
X004011Y030098D01*
X004011Y029940D02*
X011856Y029940D01*
X011864Y029958D02*
X011822Y029856D01*
X011822Y029744D01*
X011864Y029642D01*
X011943Y029563D01*
X012045Y029521D01*
X012156Y029521D01*
X012259Y029563D01*
X012337Y029642D01*
X012380Y029744D01*
X012380Y029856D01*
X012337Y029958D01*
X012259Y030037D01*
X012156Y030079D01*
X012045Y030079D01*
X011943Y030037D01*
X011864Y029958D01*
X011822Y029781D02*
X004011Y029781D01*
X004011Y029623D02*
X011883Y029623D01*
X012318Y029623D02*
X014779Y029623D01*
X014697Y029464D02*
X004011Y029464D01*
X004011Y029306D02*
X014723Y029306D01*
X014917Y029147D02*
X004011Y029147D01*
X004011Y028989D02*
X039413Y028989D01*
X039494Y029147D02*
X015034Y029147D01*
X015228Y029306D02*
X039662Y029306D01*
X039395Y028672D02*
X035005Y028672D01*
X034958Y028513D02*
X039456Y028513D01*
X039582Y028355D02*
X035005Y028355D01*
X034985Y028196D02*
X048967Y028196D01*
X049130Y028038D02*
X034821Y028038D01*
X034630Y028038D02*
X027881Y028038D01*
X027995Y027879D02*
X038267Y027879D01*
X037973Y027721D02*
X027995Y027721D01*
X027971Y027562D02*
X037820Y027562D01*
X038653Y027879D02*
X053691Y027879D01*
X053691Y028038D02*
X049321Y028038D01*
X049485Y028196D02*
X053691Y028196D01*
X053691Y028355D02*
X049505Y028355D01*
X049407Y028513D02*
X053691Y028513D01*
X053691Y028989D02*
X042581Y028989D01*
X042742Y029147D02*
X053691Y029147D01*
X053691Y029306D02*
X042840Y029306D01*
X042906Y029464D02*
X053691Y029464D01*
X053691Y029623D02*
X042911Y029623D01*
X042909Y029781D02*
X053691Y029781D01*
X053691Y029940D02*
X042844Y029940D01*
X042751Y030098D02*
X053691Y030098D01*
X053691Y031208D02*
X014587Y031208D01*
X014114Y031208D02*
X004011Y031208D01*
X004011Y031366D02*
X053691Y031366D01*
X053691Y031525D02*
X004011Y031525D01*
X004011Y031683D02*
X053691Y031683D01*
X053691Y031842D02*
X012537Y031842D01*
X012509Y031813D02*
X012587Y031892D01*
X012630Y031994D01*
X012630Y032106D01*
X012587Y032208D01*
X012509Y032287D01*
X012406Y032329D01*
X012295Y032329D01*
X012193Y032287D01*
X012114Y032208D01*
X012072Y032106D01*
X012072Y031994D01*
X012114Y031892D01*
X012193Y031813D01*
X012295Y031771D01*
X012406Y031771D01*
X012509Y031813D01*
X012630Y032000D02*
X053691Y032000D01*
X053691Y032159D02*
X012608Y032159D01*
X012435Y032317D02*
X053691Y032317D01*
X053691Y032476D02*
X032046Y032476D01*
X032009Y032438D02*
X032087Y032517D01*
X032130Y032619D01*
X032130Y032731D01*
X032087Y032833D01*
X032058Y032862D01*
X032087Y032892D01*
X032130Y032994D01*
X032130Y033106D01*
X032087Y033208D01*
X032009Y033287D01*
X031906Y033329D01*
X031795Y033329D01*
X031693Y033287D01*
X031614Y033208D01*
X031572Y033106D01*
X031572Y032994D01*
X031614Y032892D01*
X031643Y032862D01*
X031614Y032833D01*
X031572Y032731D01*
X031572Y032619D01*
X031614Y032517D01*
X031693Y032438D01*
X031795Y032396D01*
X031906Y032396D01*
X032009Y032438D01*
X032130Y032634D02*
X053691Y032634D01*
X053691Y032793D02*
X032104Y032793D01*
X032112Y032951D02*
X051803Y032951D01*
X051765Y032975D02*
X051861Y032915D01*
X051964Y032865D01*
X052071Y032828D01*
X052181Y032803D01*
X052271Y032793D01*
X052271Y033720D01*
X052431Y033720D01*
X052431Y033880D01*
X053358Y033880D01*
X053348Y033969D01*
X053323Y034080D01*
X053285Y034187D01*
X053236Y034289D01*
X053176Y034385D01*
X053105Y034474D01*
X053025Y034554D01*
X052936Y034625D01*
X052840Y034685D01*
X052738Y034735D01*
X052631Y034772D01*
X052520Y034797D01*
X052431Y034807D01*
X052431Y033880D01*
X052271Y033880D01*
X052271Y034807D01*
X052181Y034797D01*
X052071Y034772D01*
X051964Y034735D01*
X051861Y034685D01*
X051765Y034625D01*
X051677Y034554D01*
X051596Y034474D01*
X051526Y034385D01*
X051465Y034289D01*
X051416Y034187D01*
X051379Y034080D01*
X051353Y033969D01*
X051343Y033880D01*
X052271Y033880D01*
X052271Y033720D01*
X051343Y033720D01*
X051353Y033631D01*
X051379Y033520D01*
X051416Y033413D01*
X051465Y033311D01*
X051526Y033215D01*
X051596Y033126D01*
X051677Y033046D01*
X051765Y032975D01*
X051613Y033110D02*
X032128Y033110D01*
X032027Y033268D02*
X051492Y033268D01*
X051411Y033427D02*
X014473Y033427D01*
X014509Y033412D02*
X014406Y033454D01*
X014295Y033454D01*
X014193Y033412D01*
X014114Y033333D01*
X014072Y033231D01*
X014072Y033119D01*
X014114Y033017D01*
X014193Y032938D01*
X014295Y032896D01*
X014406Y032896D01*
X014509Y032938D01*
X014587Y033017D01*
X014630Y033119D01*
X014630Y033231D01*
X014587Y033333D01*
X014509Y033412D01*
X014614Y033268D02*
X023674Y033268D01*
X023693Y033287D02*
X023614Y033208D01*
X023572Y033106D01*
X023572Y032994D01*
X023614Y032892D01*
X023643Y032862D01*
X023614Y032833D01*
X023572Y032731D01*
X023572Y032619D01*
X023614Y032517D01*
X023693Y032438D01*
X023795Y032396D01*
X023906Y032396D01*
X024009Y032438D01*
X024087Y032517D01*
X024130Y032619D01*
X024130Y032731D01*
X024087Y032833D01*
X024058Y032862D01*
X024087Y032892D01*
X024130Y032994D01*
X024130Y033106D01*
X024087Y033208D01*
X024009Y033287D01*
X023906Y033329D01*
X023795Y033329D01*
X023693Y033287D01*
X023573Y033110D02*
X014626Y033110D01*
X014521Y032951D02*
X023590Y032951D01*
X023597Y032793D02*
X004011Y032793D01*
X004011Y032951D02*
X004803Y032951D01*
X004765Y032975D02*
X004861Y032915D01*
X004964Y032865D01*
X005071Y032828D01*
X005181Y032803D01*
X005271Y032793D01*
X005271Y033720D01*
X005431Y033720D01*
X005431Y033880D01*
X006358Y033880D01*
X006348Y033969D01*
X006323Y034080D01*
X006285Y034187D01*
X006236Y034289D01*
X006176Y034385D01*
X006105Y034474D01*
X006025Y034554D01*
X005936Y034625D01*
X005840Y034685D01*
X005738Y034735D01*
X005631Y034772D01*
X005520Y034797D01*
X005431Y034807D01*
X005431Y033880D01*
X005271Y033880D01*
X005271Y034807D01*
X005181Y034797D01*
X005071Y034772D01*
X004964Y034735D01*
X004861Y034685D01*
X004765Y034625D01*
X004677Y034554D01*
X004596Y034474D01*
X004526Y034385D01*
X004465Y034289D01*
X004416Y034187D01*
X004379Y034080D01*
X004353Y033969D01*
X004343Y033880D01*
X005271Y033880D01*
X005271Y033720D01*
X004343Y033720D01*
X004353Y033631D01*
X004379Y033520D01*
X004416Y033413D01*
X004465Y033311D01*
X004526Y033215D01*
X004596Y033126D01*
X004677Y033046D01*
X004765Y032975D01*
X004613Y033110D02*
X004011Y033110D01*
X004011Y033268D02*
X004492Y033268D01*
X004411Y033427D02*
X004011Y033427D01*
X004011Y033585D02*
X004364Y033585D01*
X004346Y033902D02*
X004017Y033902D01*
X004011Y033744D02*
X005271Y033744D01*
X005271Y033902D02*
X005431Y033902D01*
X005431Y033744D02*
X010025Y033744D01*
X009989Y033708D02*
X009947Y033606D01*
X009947Y033494D01*
X009989Y033392D01*
X010068Y033313D01*
X010170Y033271D01*
X010281Y033271D01*
X010384Y033313D01*
X010462Y033392D01*
X010505Y033494D01*
X010505Y033606D01*
X010462Y033708D01*
X010384Y033787D01*
X010351Y033800D01*
X010384Y033813D01*
X010462Y033892D01*
X010505Y033994D01*
X010505Y034106D01*
X010462Y034208D01*
X010384Y034287D01*
X010281Y034329D01*
X010170Y034329D01*
X010068Y034287D01*
X009989Y034208D01*
X009947Y034106D01*
X009947Y033994D01*
X009989Y033892D01*
X010068Y033813D01*
X010100Y033800D01*
X010068Y033787D01*
X009989Y033708D01*
X009947Y033585D02*
X006337Y033585D01*
X006348Y033631D02*
X006323Y033520D01*
X006285Y033413D01*
X006236Y033311D01*
X006176Y033215D01*
X006105Y033126D01*
X006025Y033046D01*
X005936Y032975D01*
X005840Y032915D01*
X005738Y032865D01*
X005631Y032828D01*
X005520Y032803D01*
X005431Y032793D01*
X005431Y033720D01*
X006358Y033720D01*
X006348Y033631D01*
X006290Y033427D02*
X009975Y033427D01*
X009985Y033902D02*
X006355Y033902D01*
X006327Y034061D02*
X009947Y034061D01*
X010000Y034219D02*
X006270Y034219D01*
X006180Y034378D02*
X051521Y034378D01*
X051432Y034219D02*
X010451Y034219D01*
X010505Y034061D02*
X051374Y034061D01*
X051346Y033902D02*
X010466Y033902D01*
X010427Y033744D02*
X052271Y033744D01*
X052271Y033902D02*
X052431Y033902D01*
X052431Y033744D02*
X053691Y033744D01*
X053684Y033902D02*
X053355Y033902D01*
X053327Y034061D02*
X053656Y034061D01*
X053614Y034219D02*
X053270Y034219D01*
X053180Y034378D02*
X053551Y034378D01*
X053460Y034536D02*
X053043Y034536D01*
X052821Y034695D02*
X053335Y034695D01*
X053176Y034853D02*
X004525Y034853D01*
X004366Y034695D02*
X004881Y034695D01*
X004658Y034536D02*
X004242Y034536D01*
X004150Y034378D02*
X004521Y034378D01*
X004432Y034219D02*
X004088Y034219D01*
X004045Y034061D02*
X004374Y034061D01*
X005271Y034061D02*
X005431Y034061D01*
X005431Y034219D02*
X005271Y034219D01*
X005271Y034378D02*
X005431Y034378D01*
X005431Y034536D02*
X005271Y034536D01*
X005271Y034695D02*
X005431Y034695D01*
X005821Y034695D02*
X051881Y034695D01*
X051658Y034536D02*
X006043Y034536D01*
X004792Y035012D02*
X052909Y035012D01*
X052431Y034695D02*
X052271Y034695D01*
X052271Y034536D02*
X052431Y034536D01*
X052431Y034378D02*
X052271Y034378D01*
X052271Y034219D02*
X052431Y034219D01*
X052431Y034061D02*
X052271Y034061D01*
X052431Y033720D02*
X053358Y033720D01*
X053348Y033631D01*
X053323Y033520D01*
X053285Y033413D01*
X053236Y033311D01*
X053176Y033215D01*
X053105Y033126D01*
X053025Y033046D01*
X052936Y032975D01*
X052840Y032915D01*
X052738Y032865D01*
X052631Y032828D01*
X052520Y032803D01*
X052431Y032793D01*
X052431Y033720D01*
X052431Y033585D02*
X052271Y033585D01*
X052271Y033427D02*
X052431Y033427D01*
X052431Y033268D02*
X052271Y033268D01*
X052271Y033110D02*
X052431Y033110D01*
X052431Y032951D02*
X052271Y032951D01*
X052898Y032951D02*
X053691Y032951D01*
X053691Y033110D02*
X053088Y033110D01*
X053209Y033268D02*
X053691Y033268D01*
X053691Y033427D02*
X053290Y033427D01*
X053337Y033585D02*
X053691Y033585D01*
X051364Y033585D02*
X010505Y033585D01*
X010477Y033427D02*
X014229Y033427D01*
X014087Y033268D02*
X006209Y033268D01*
X006088Y033110D02*
X014076Y033110D01*
X014180Y032951D02*
X005898Y032951D01*
X005431Y032951D02*
X005271Y032951D01*
X005271Y033110D02*
X005431Y033110D01*
X005431Y033268D02*
X005271Y033268D01*
X005271Y033427D02*
X005431Y033427D01*
X005431Y033585D02*
X005271Y033585D01*
X004011Y032634D02*
X023572Y032634D01*
X023655Y032476D02*
X004011Y032476D01*
X004011Y032317D02*
X012266Y032317D01*
X012094Y032159D02*
X004011Y032159D01*
X004011Y032000D02*
X012072Y032000D01*
X012164Y031842D02*
X004011Y031842D01*
X004011Y031049D02*
X014072Y031049D01*
X014115Y030891D02*
X004011Y030891D01*
X004011Y028196D02*
X006197Y028196D01*
X006231Y028038D02*
X004011Y028038D01*
X004011Y026928D02*
X019602Y026928D01*
X019614Y026958D02*
X019572Y026856D01*
X019572Y026744D01*
X019614Y026642D01*
X019693Y026563D01*
X019795Y026521D01*
X019906Y026521D01*
X020009Y026563D01*
X020087Y026642D01*
X020130Y026744D01*
X020130Y026856D01*
X020087Y026958D01*
X020009Y027037D01*
X019906Y027079D01*
X019795Y027079D01*
X019693Y027037D01*
X019614Y026958D01*
X019572Y026770D02*
X004011Y026770D01*
X004011Y026611D02*
X019645Y026611D01*
X020056Y026611D02*
X027950Y026611D01*
X027947Y026619D02*
X027989Y026517D01*
X028018Y026488D01*
X027989Y026458D01*
X027947Y026356D01*
X027947Y026244D01*
X027989Y026142D01*
X028068Y026063D01*
X028170Y026021D01*
X028281Y026021D01*
X028384Y026063D01*
X028462Y026142D01*
X028505Y026244D01*
X028505Y026356D01*
X028462Y026458D01*
X028433Y026488D01*
X028462Y026517D01*
X028505Y026619D01*
X028505Y026731D01*
X028462Y026833D01*
X028384Y026912D01*
X028281Y026954D01*
X028170Y026954D01*
X028068Y026912D01*
X027989Y026833D01*
X027947Y026731D01*
X027947Y026619D01*
X027963Y026770D02*
X020130Y026770D01*
X020100Y026928D02*
X028107Y026928D01*
X028344Y026928D02*
X029093Y026928D01*
X029359Y026928D02*
X030107Y026928D01*
X029963Y026770D02*
X028489Y026770D01*
X028501Y026611D02*
X029950Y026611D01*
X029987Y026453D02*
X028464Y026453D01*
X028505Y026294D02*
X029947Y026294D01*
X029995Y026136D02*
X028456Y026136D01*
X027995Y026136D02*
X004011Y026136D01*
X004011Y026294D02*
X027947Y026294D01*
X027987Y026453D02*
X004011Y026453D01*
X004011Y025660D02*
X008441Y025660D01*
X008330Y025502D02*
X004011Y025502D01*
X004011Y025343D02*
X008333Y025343D01*
X008452Y025185D02*
X004011Y025185D01*
X004011Y025026D02*
X012822Y025026D01*
X012888Y024868D02*
X004011Y024868D01*
X004011Y021539D02*
X036846Y021539D01*
X036822Y021381D02*
X004011Y021381D01*
X004011Y021222D02*
X036909Y021222D01*
X037292Y021222D02*
X048956Y021222D01*
X048957Y021381D02*
X037380Y021381D01*
X037355Y021539D02*
X049074Y021539D01*
X049067Y021064D02*
X004011Y021064D01*
X004011Y019954D02*
X009447Y019954D01*
X009477Y019796D02*
X004011Y019796D01*
X004011Y017418D02*
X014958Y017418D01*
X014834Y017260D02*
X004011Y017260D01*
X004011Y017101D02*
X014829Y017101D01*
X014938Y016943D02*
X004011Y016943D01*
X004011Y015199D02*
X012697Y015199D01*
X012729Y015041D02*
X004011Y015041D01*
X004011Y014565D02*
X049136Y014565D01*
X048968Y014407D02*
X004011Y014407D01*
X004011Y014248D02*
X048947Y014248D01*
X049041Y014090D02*
X004011Y014090D01*
X013049Y012822D02*
X021234Y012822D01*
X021197Y012663D02*
X020360Y012663D01*
X019841Y012663D02*
X013231Y012663D01*
X013255Y012505D02*
X019709Y012505D01*
X019661Y012346D02*
X013166Y012346D01*
X020081Y009335D02*
X020121Y009335D01*
X020121Y009176D02*
X020081Y009176D01*
X020081Y009018D02*
X020121Y009018D01*
X020121Y008905D02*
X020581Y008905D01*
X020581Y008887D01*
X020569Y008813D01*
X020545Y008741D01*
X020511Y008673D01*
X020467Y008612D01*
X020413Y008559D01*
X020352Y008514D01*
X020285Y008480D01*
X020213Y008457D01*
X020138Y008445D01*
X020121Y008445D01*
X020121Y008905D01*
X020121Y008859D02*
X020081Y008859D01*
X020081Y008701D02*
X020121Y008701D01*
X020121Y008542D02*
X020081Y008542D01*
X020390Y008542D02*
X048936Y008542D01*
X048913Y008559D02*
X048974Y008514D01*
X049041Y008480D01*
X049113Y008457D01*
X049188Y008445D01*
X049206Y008445D01*
X049206Y008905D01*
X048746Y008905D01*
X048746Y008887D01*
X048757Y008813D01*
X048781Y008741D01*
X048815Y008673D01*
X048860Y008612D01*
X048913Y008559D01*
X048801Y008701D02*
X020525Y008701D01*
X020576Y008859D02*
X048750Y008859D01*
X048754Y009018D02*
X020572Y009018D01*
X020511Y009176D02*
X048815Y009176D01*
X048973Y009335D02*
X020354Y009335D01*
X004368Y001568D02*
X004037Y001568D01*
X004080Y001410D02*
X004418Y001410D01*
X014847Y022173D02*
X016605Y022173D01*
X016462Y022332D02*
X014989Y022332D01*
X015001Y022490D02*
X016451Y022490D01*
X016555Y022649D02*
X014897Y022649D01*
X012380Y029781D02*
X027271Y029781D01*
X027431Y029781D02*
X028483Y029781D01*
X028489Y029767D02*
X028568Y029688D01*
X028670Y029646D01*
X028781Y029646D01*
X028884Y029688D01*
X028962Y029767D01*
X029005Y029869D01*
X029005Y029981D01*
X028962Y030083D01*
X028884Y030162D01*
X028781Y030204D01*
X028670Y030204D01*
X028568Y030162D01*
X028489Y030083D01*
X028447Y029981D01*
X028447Y029869D01*
X028489Y029767D01*
X028447Y029940D02*
X027607Y029940D01*
X027630Y030098D02*
X028504Y030098D01*
X028947Y030098D02*
X031447Y030098D01*
X031447Y030106D02*
X031447Y029994D01*
X031489Y029892D01*
X031568Y029813D01*
X031670Y029771D01*
X031781Y029771D01*
X031884Y029813D01*
X031962Y029892D01*
X032005Y029994D01*
X032005Y030106D01*
X031962Y030208D01*
X031884Y030287D01*
X031781Y030329D01*
X031670Y030329D01*
X031568Y030287D01*
X031489Y030208D01*
X031447Y030106D01*
X031469Y029940D02*
X029005Y029940D01*
X028968Y029781D02*
X031646Y029781D01*
X031806Y029781D02*
X032858Y029781D01*
X032822Y029940D02*
X031982Y029940D01*
X032005Y030098D02*
X032879Y030098D01*
X033322Y030098D02*
X039549Y030098D01*
X039458Y030257D02*
X031914Y030257D01*
X031538Y030257D02*
X027539Y030257D01*
X027094Y029940D02*
X012345Y029940D01*
X017077Y030415D02*
X039422Y030415D01*
X039426Y030574D02*
X017236Y030574D01*
X017254Y030732D02*
X039492Y030732D01*
X039630Y030891D02*
X017155Y030891D01*
X024046Y032476D02*
X025655Y032476D01*
X025693Y032438D02*
X025795Y032396D01*
X025906Y032396D01*
X026009Y032438D01*
X026087Y032517D01*
X026130Y032619D01*
X026130Y032731D01*
X026087Y032833D01*
X026058Y032862D01*
X026087Y032892D01*
X026130Y032994D01*
X026130Y033106D01*
X026087Y033208D01*
X026009Y033287D01*
X025906Y033329D01*
X025795Y033329D01*
X025693Y033287D01*
X025614Y033208D01*
X025572Y033106D01*
X025572Y032994D01*
X025614Y032892D01*
X025643Y032862D01*
X025614Y032833D01*
X025572Y032731D01*
X025572Y032619D01*
X025614Y032517D01*
X025693Y032438D01*
X025572Y032634D02*
X024130Y032634D01*
X024104Y032793D02*
X025597Y032793D01*
X025590Y032951D02*
X024112Y032951D01*
X024128Y033110D02*
X025573Y033110D01*
X025674Y033268D02*
X024027Y033268D01*
X026027Y033268D02*
X027674Y033268D01*
X027693Y033287D02*
X027614Y033208D01*
X027572Y033106D01*
X027572Y032994D01*
X027614Y032892D01*
X027643Y032862D01*
X027614Y032833D01*
X027572Y032731D01*
X027572Y032619D01*
X027614Y032517D01*
X027693Y032438D01*
X027795Y032396D01*
X027906Y032396D01*
X028009Y032438D01*
X028087Y032517D01*
X028130Y032619D01*
X028130Y032731D01*
X028087Y032833D01*
X028058Y032862D01*
X028087Y032892D01*
X028130Y032994D01*
X028130Y033106D01*
X028087Y033208D01*
X028009Y033287D01*
X027906Y033329D01*
X027795Y033329D01*
X027693Y033287D01*
X027573Y033110D02*
X026128Y033110D01*
X026112Y032951D02*
X027590Y032951D01*
X027597Y032793D02*
X026104Y032793D01*
X026130Y032634D02*
X027572Y032634D01*
X027655Y032476D02*
X026046Y032476D01*
X028046Y032476D02*
X029655Y032476D01*
X029693Y032438D02*
X029795Y032396D01*
X029906Y032396D01*
X030009Y032438D01*
X030087Y032517D01*
X030130Y032619D01*
X030130Y032731D01*
X030087Y032833D01*
X030058Y032862D01*
X030087Y032892D01*
X030130Y032994D01*
X030130Y033106D01*
X030087Y033208D01*
X030009Y033287D01*
X029906Y033329D01*
X029795Y033329D01*
X029693Y033287D01*
X029614Y033208D01*
X029572Y033106D01*
X029572Y032994D01*
X029614Y032892D01*
X029643Y032862D01*
X029614Y032833D01*
X029572Y032731D01*
X029572Y032619D01*
X029614Y032517D01*
X029693Y032438D01*
X029572Y032634D02*
X028130Y032634D01*
X028104Y032793D02*
X029597Y032793D01*
X029590Y032951D02*
X028112Y032951D01*
X028128Y033110D02*
X029573Y033110D01*
X029674Y033268D02*
X028027Y033268D01*
X030027Y033268D02*
X031674Y033268D01*
X031573Y033110D02*
X030128Y033110D01*
X030112Y032951D02*
X031590Y032951D01*
X031597Y032793D02*
X030104Y032793D01*
X030130Y032634D02*
X031572Y032634D01*
X031655Y032476D02*
X030046Y032476D01*
X049206Y009335D02*
X049246Y009335D01*
X049246Y009176D02*
X049206Y009176D01*
X049206Y009018D02*
X049246Y009018D01*
X049246Y008859D02*
X049206Y008859D01*
X049206Y008701D02*
X049246Y008701D01*
X049246Y008542D02*
X049206Y008542D01*
X053334Y001568D02*
X053664Y001568D01*
X053621Y001410D02*
X053284Y001410D01*
X053198Y001251D02*
X053568Y001251D01*
X053476Y001093D02*
X053071Y001093D01*
X052871Y000934D02*
X053363Y000934D01*
D14*
X053601Y005300D03*
X053601Y005800D03*
X053101Y005800D03*
X053101Y005300D03*
X052601Y005300D03*
X052601Y005800D03*
X052101Y005800D03*
X052101Y005300D03*
X052101Y008800D03*
X052601Y008800D03*
X053101Y008800D03*
X053601Y008800D03*
X053601Y009300D03*
X053101Y009300D03*
X052601Y009300D03*
X052101Y009300D03*
X052101Y012300D03*
X052601Y012300D03*
X053101Y012300D03*
X053601Y012300D03*
X053601Y012800D03*
X053101Y012800D03*
X052601Y012800D03*
X052101Y012800D03*
X049226Y014300D03*
X047726Y012175D03*
X052101Y015800D03*
X052601Y015800D03*
X053101Y015800D03*
X053601Y015800D03*
X053601Y016300D03*
X053101Y016300D03*
X052601Y016300D03*
X052101Y016300D03*
X052101Y019300D03*
X052601Y019300D03*
X053101Y019300D03*
X053601Y019300D03*
X053601Y019800D03*
X053101Y019800D03*
X052601Y019800D03*
X052101Y019800D03*
X049226Y021300D03*
X047726Y019175D03*
X045101Y022675D03*
X043351Y022675D03*
X047726Y026175D03*
X049226Y028300D03*
X052101Y026800D03*
X052601Y026800D03*
X053101Y026800D03*
X053601Y026800D03*
X053601Y026300D03*
X053101Y026300D03*
X052601Y026300D03*
X052101Y026300D03*
X052101Y023300D03*
X052601Y023300D03*
X053101Y023300D03*
X053601Y023300D03*
X053601Y022800D03*
X053101Y022800D03*
X052601Y022800D03*
X052101Y022800D03*
X052101Y029800D03*
X052601Y029800D03*
X053101Y029800D03*
X053601Y029800D03*
X053601Y030300D03*
X053101Y030300D03*
X052601Y030300D03*
X052101Y030300D03*
X037101Y021425D03*
X037101Y020050D03*
X033226Y021425D03*
X030976Y024550D03*
X030226Y026300D03*
X030226Y026675D03*
X029226Y027175D03*
X028226Y026675D03*
X028226Y026300D03*
X027726Y027425D03*
X027726Y027800D03*
X026351Y029050D03*
X026101Y029550D03*
X027351Y030050D03*
X028726Y029925D03*
X029601Y030300D03*
X029101Y030800D03*
X029851Y032675D03*
X029851Y033050D03*
X031851Y033050D03*
X031851Y032675D03*
X033851Y032675D03*
X033851Y033050D03*
X033476Y030800D03*
X033976Y030300D03*
X033101Y029925D03*
X031726Y030050D03*
X030726Y029050D03*
X034476Y027300D03*
X034726Y028300D03*
X034726Y028675D03*
X028226Y024550D03*
X025601Y027550D03*
X025226Y027550D03*
X019851Y026800D03*
X018351Y026800D03*
X018351Y027300D03*
X016976Y028550D03*
X014976Y029425D03*
X013351Y029925D03*
X012101Y029800D03*
X014351Y031050D03*
X015351Y032050D03*
X014351Y033175D03*
X012351Y032050D03*
X010226Y033550D03*
X009476Y033550D03*
X009476Y034050D03*
X010226Y034050D03*
X006476Y029925D03*
X006476Y028175D03*
X007351Y028175D03*
X007726Y027550D03*
X007226Y026300D03*
X008601Y025425D03*
X009976Y025425D03*
X010976Y024925D03*
X010976Y023925D03*
X013101Y025050D03*
X011976Y025550D03*
X011101Y027550D03*
X012601Y027925D03*
X016601Y025300D03*
X016476Y024050D03*
X016476Y023300D03*
X016726Y022425D03*
X018226Y023175D03*
X017851Y023925D03*
X019101Y024550D03*
X019851Y023925D03*
X019851Y023425D03*
X020476Y022800D03*
X019351Y022300D03*
X018788Y022050D03*
X016601Y020550D03*
X016601Y019800D03*
X017351Y017675D03*
X016101Y017175D03*
X015101Y017175D03*
X015101Y016675D03*
X017351Y016175D03*
X018851Y017175D03*
X013351Y015175D03*
X012976Y015175D03*
X009663Y016488D03*
X009163Y016488D03*
X008288Y016488D03*
X007788Y016488D03*
X007976Y017925D03*
X009476Y017925D03*
X009851Y019175D03*
X009726Y019925D03*
X011351Y019300D03*
X011476Y019925D03*
X009101Y021050D03*
X009601Y022300D03*
X011351Y022300D03*
X011851Y022300D03*
X014726Y022425D03*
X014976Y023300D03*
X018226Y025800D03*
X022851Y022863D03*
X023351Y022863D03*
X026226Y017425D03*
X026226Y017050D03*
X027726Y017050D03*
X027726Y017425D03*
X024726Y012675D03*
X023101Y012175D03*
X021476Y012675D03*
X013351Y012550D03*
X012976Y012550D03*
X011351Y017800D03*
X011351Y018300D03*
X007601Y019175D03*
X006101Y019300D03*
X005976Y019925D03*
X005976Y018175D03*
X007226Y022300D03*
X005601Y022800D03*
X005601Y023300D03*
X005101Y023300D03*
X005101Y022800D03*
X004601Y022800D03*
X004601Y023300D03*
X004101Y023300D03*
X004101Y022800D03*
X004101Y026300D03*
X004601Y026300D03*
X005101Y026300D03*
X005601Y026300D03*
X005601Y026800D03*
X005101Y026800D03*
X004601Y026800D03*
X004101Y026800D03*
X016976Y030675D03*
X017976Y030175D03*
X023851Y032675D03*
X023851Y033050D03*
X025851Y033050D03*
X025851Y032675D03*
X027851Y032675D03*
X027851Y033050D03*
X005601Y012800D03*
X005601Y012300D03*
X005101Y012300D03*
X005101Y012800D03*
X004601Y012800D03*
X004601Y012300D03*
X004101Y012300D03*
X004101Y012800D03*
X004101Y009300D03*
X004601Y009300D03*
X005101Y009300D03*
X005601Y009300D03*
X005601Y008800D03*
X005101Y008800D03*
X004601Y008800D03*
X004101Y008800D03*
M02*
