%
M48
M72
T01C0.0150
T02C0.1102
%
T01
X8601Y7635
X6851Y9010
X6226Y8510
X7976Y9510
X8976Y10385
X10726Y9635
X12351Y10885
X13101Y10885
X13226Y9010
X12476Y8135
X12476Y7135
X11601Y6260
X15226Y8885
X16601Y11885
X17101Y12385
X21476Y12260
X21476Y15760
X14851Y19260
X12851Y19260
X6226Y12010
X10851Y11760
X18976Y6510
X21476Y4760
X21476Y8260
X16726Y3635
T02
X5101Y1510
X22601Y1510
X22601Y19010
X5101Y19010
M30
