G75*
G70*
%OFA0B0*%
%FSLAX24Y24*%
%IPPOS*%
%LPD*%
%AMOC8*
5,1,8,0,0,1.08239X$1,22.5*
%
%ADD10C,0.0000*%
D10*
X003851Y001800D02*
X003851Y018800D01*
X003853Y018876D01*
X003859Y018952D01*
X003868Y019027D01*
X003882Y019102D01*
X003899Y019176D01*
X003920Y019249D01*
X003944Y019321D01*
X003973Y019392D01*
X004004Y019461D01*
X004039Y019528D01*
X004078Y019593D01*
X004120Y019657D01*
X004165Y019718D01*
X004213Y019777D01*
X004264Y019833D01*
X004318Y019887D01*
X004374Y019938D01*
X004433Y019986D01*
X004494Y020031D01*
X004558Y020073D01*
X004623Y020112D01*
X004690Y020147D01*
X004759Y020178D01*
X004830Y020207D01*
X004902Y020231D01*
X004975Y020252D01*
X005049Y020269D01*
X005124Y020283D01*
X005199Y020292D01*
X005275Y020298D01*
X005351Y020300D01*
X022351Y020300D01*
X022427Y020298D01*
X022503Y020292D01*
X022578Y020283D01*
X022653Y020269D01*
X022727Y020252D01*
X022800Y020231D01*
X022872Y020207D01*
X022943Y020178D01*
X023012Y020147D01*
X023079Y020112D01*
X023144Y020073D01*
X023208Y020031D01*
X023269Y019986D01*
X023328Y019938D01*
X023384Y019887D01*
X023438Y019833D01*
X023489Y019777D01*
X023537Y019718D01*
X023582Y019657D01*
X023624Y019593D01*
X023663Y019528D01*
X023698Y019461D01*
X023729Y019392D01*
X023758Y019321D01*
X023782Y019249D01*
X023803Y019176D01*
X023820Y019102D01*
X023834Y019027D01*
X023843Y018952D01*
X023849Y018876D01*
X023851Y018800D01*
X023851Y001800D01*
X023849Y001724D01*
X023843Y001648D01*
X023834Y001573D01*
X023820Y001498D01*
X023803Y001424D01*
X023782Y001351D01*
X023758Y001279D01*
X023729Y001208D01*
X023698Y001139D01*
X023663Y001072D01*
X023624Y001007D01*
X023582Y000943D01*
X023537Y000882D01*
X023489Y000823D01*
X023438Y000767D01*
X023384Y000713D01*
X023328Y000662D01*
X023269Y000614D01*
X023208Y000569D01*
X023144Y000527D01*
X023079Y000488D01*
X023012Y000453D01*
X022943Y000422D01*
X022872Y000393D01*
X022800Y000369D01*
X022727Y000348D01*
X022653Y000331D01*
X022578Y000317D01*
X022503Y000308D01*
X022427Y000302D01*
X022351Y000300D01*
X005351Y000300D01*
X005275Y000302D01*
X005199Y000308D01*
X005124Y000317D01*
X005049Y000331D01*
X004975Y000348D01*
X004902Y000369D01*
X004830Y000393D01*
X004759Y000422D01*
X004690Y000453D01*
X004623Y000488D01*
X004558Y000527D01*
X004494Y000569D01*
X004433Y000614D01*
X004374Y000662D01*
X004318Y000713D01*
X004264Y000767D01*
X004213Y000823D01*
X004165Y000882D01*
X004120Y000943D01*
X004078Y001007D01*
X004039Y001072D01*
X004004Y001139D01*
X003973Y001208D01*
X003944Y001279D01*
X003920Y001351D01*
X003899Y001424D01*
X003882Y001498D01*
X003868Y001573D01*
X003859Y001648D01*
X003853Y001724D01*
X003851Y001800D01*
X003976Y004350D02*
X003976Y008750D01*
X003851Y011850D02*
X003851Y016250D01*
X011651Y020300D02*
X016051Y020300D01*
X023851Y016250D02*
X023851Y011850D01*
X023851Y008750D02*
X023851Y004350D01*
M02*
