G75*
G70*
%OFA0B0*%
%FSLAX24Y24*%
%IPPOS*%
%LPD*%
%AMOC8*
5,1,8,0,0,1.08239X$1,22.5*
%
%ADD10C,0.0000*%
%ADD11C,0.0050*%
%ADD12C,0.0080*%
%ADD13C,0.0020*%
%ADD14C,0.0060*%
%ADD15R,0.0230X0.0180*%
%ADD16R,0.0236X0.0118*%
%ADD17R,0.0118X0.0236*%
%ADD18R,0.0394X0.1604*%
%ADD19R,0.1604X0.0394*%
%ADD20C,0.0100*%
%ADD21R,0.0295X0.0335*%
%ADD22R,0.0354X0.0531*%
%ADD23R,0.0340X0.0160*%
%ADD24C,0.0020*%
%ADD25C,0.0090*%
%ADD26C,0.0180*%
D10*
X003851Y001510D02*
X003851Y019010D01*
X003853Y019078D01*
X003858Y019145D01*
X003867Y019212D01*
X003880Y019279D01*
X003897Y019344D01*
X003916Y019409D01*
X003940Y019473D01*
X003967Y019535D01*
X003997Y019596D01*
X004030Y019654D01*
X004066Y019711D01*
X004106Y019766D01*
X004148Y019819D01*
X004194Y019870D01*
X004241Y019917D01*
X004292Y019963D01*
X004345Y020005D01*
X004400Y020045D01*
X004457Y020081D01*
X004515Y020114D01*
X004576Y020144D01*
X004638Y020171D01*
X004702Y020195D01*
X004767Y020214D01*
X004832Y020231D01*
X004899Y020244D01*
X004966Y020253D01*
X005033Y020258D01*
X005101Y020260D01*
X022601Y020260D01*
X022669Y020258D01*
X022736Y020253D01*
X022803Y020244D01*
X022870Y020231D01*
X022935Y020214D01*
X023000Y020195D01*
X023064Y020171D01*
X023126Y020144D01*
X023187Y020114D01*
X023245Y020081D01*
X023302Y020045D01*
X023357Y020005D01*
X023410Y019963D01*
X023461Y019917D01*
X023508Y019870D01*
X023554Y019819D01*
X023596Y019766D01*
X023636Y019711D01*
X023672Y019654D01*
X023705Y019596D01*
X023735Y019535D01*
X023762Y019473D01*
X023786Y019409D01*
X023805Y019344D01*
X023822Y019279D01*
X023835Y019212D01*
X023844Y019145D01*
X023849Y019078D01*
X023851Y019010D01*
X023851Y001510D01*
X023849Y001442D01*
X023844Y001375D01*
X023835Y001308D01*
X023822Y001241D01*
X023805Y001176D01*
X023786Y001111D01*
X023762Y001047D01*
X023735Y000985D01*
X023705Y000924D01*
X023672Y000866D01*
X023636Y000809D01*
X023596Y000754D01*
X023554Y000701D01*
X023508Y000650D01*
X023461Y000603D01*
X023410Y000557D01*
X023357Y000515D01*
X023302Y000475D01*
X023245Y000439D01*
X023187Y000406D01*
X023126Y000376D01*
X023064Y000349D01*
X023000Y000325D01*
X022935Y000306D01*
X022870Y000289D01*
X022803Y000276D01*
X022736Y000267D01*
X022669Y000262D01*
X022601Y000260D01*
X005101Y000260D01*
X005033Y000262D01*
X004966Y000267D01*
X004899Y000276D01*
X004832Y000289D01*
X004767Y000306D01*
X004702Y000325D01*
X004638Y000349D01*
X004576Y000376D01*
X004515Y000406D01*
X004457Y000439D01*
X004400Y000475D01*
X004345Y000515D01*
X004292Y000557D01*
X004241Y000603D01*
X004194Y000650D01*
X004148Y000701D01*
X004106Y000754D01*
X004066Y000809D01*
X004030Y000866D01*
X003997Y000924D01*
X003967Y000985D01*
X003940Y001047D01*
X003916Y001111D01*
X003897Y001176D01*
X003880Y001241D01*
X003867Y001308D01*
X003858Y001375D01*
X003853Y001442D01*
X003851Y001510D01*
X003851Y008060D02*
X003851Y012460D01*
X011651Y020260D02*
X016051Y020260D01*
X023851Y016210D02*
X023851Y011810D01*
X023851Y008710D02*
X023851Y004310D01*
D11*
X021645Y005410D02*
X021465Y005410D01*
X021555Y005410D02*
X021555Y005680D01*
X021465Y005590D01*
X021350Y005410D02*
X021170Y005410D01*
X021260Y005410D02*
X021260Y005680D01*
X021170Y005590D01*
X021056Y005635D02*
X021056Y005545D01*
X021011Y005500D01*
X020876Y005500D01*
X020966Y005500D02*
X021056Y005410D01*
X020876Y005410D02*
X020876Y005680D01*
X021011Y005680D01*
X021056Y005635D01*
X021056Y005910D02*
X020966Y006000D01*
X021011Y006000D02*
X020876Y006000D01*
X020876Y005910D02*
X020876Y006180D01*
X021011Y006180D01*
X021056Y006135D01*
X021056Y006045D01*
X021011Y006000D01*
X021170Y005910D02*
X021350Y005910D01*
X021260Y005910D02*
X021260Y006180D01*
X021170Y006090D01*
X021465Y006135D02*
X021465Y005955D01*
X021645Y006135D01*
X021645Y005955D01*
X021600Y005910D01*
X021510Y005910D01*
X021465Y005955D01*
X021465Y006135D02*
X021510Y006180D01*
X021600Y006180D01*
X021645Y006135D01*
X021350Y006455D02*
X021350Y006635D01*
X021305Y006680D01*
X021215Y006680D01*
X021170Y006635D01*
X021170Y006590D01*
X021215Y006545D01*
X021350Y006545D01*
X021350Y006455D02*
X021305Y006410D01*
X021215Y006410D01*
X021170Y006455D01*
X021056Y006410D02*
X020966Y006500D01*
X021011Y006500D02*
X020876Y006500D01*
X020876Y006410D02*
X020876Y006680D01*
X021011Y006680D01*
X021056Y006635D01*
X021056Y006545D01*
X021011Y006500D01*
X021056Y006910D02*
X020966Y007000D01*
X021011Y007000D02*
X020876Y007000D01*
X020876Y006910D02*
X020876Y007180D01*
X021011Y007180D01*
X021056Y007135D01*
X021056Y007045D01*
X021011Y007000D01*
X021170Y007000D02*
X021170Y006955D01*
X021215Y006910D01*
X021305Y006910D01*
X021350Y006955D01*
X021350Y007000D01*
X021305Y007045D01*
X021215Y007045D01*
X021170Y007090D01*
X021170Y007135D01*
X021215Y007180D01*
X021305Y007180D01*
X021350Y007135D01*
X021350Y007090D01*
X021305Y007045D01*
X021215Y007045D02*
X021170Y007000D01*
X021170Y007410D02*
X021170Y007455D01*
X021350Y007635D01*
X021350Y007680D01*
X021170Y007680D01*
X021056Y007635D02*
X021056Y007545D01*
X021011Y007500D01*
X020876Y007500D01*
X020966Y007500D02*
X021056Y007410D01*
X020876Y007410D02*
X020876Y007680D01*
X021011Y007680D01*
X021056Y007635D01*
X019297Y007635D02*
X019297Y007590D01*
X019252Y007545D01*
X019297Y007500D01*
X019297Y007455D01*
X019252Y007410D01*
X019162Y007410D01*
X019117Y007455D01*
X019002Y007455D02*
X018957Y007410D01*
X018867Y007410D01*
X018822Y007455D01*
X018822Y007635D01*
X018867Y007680D01*
X018957Y007680D01*
X019002Y007635D01*
X019117Y007635D02*
X019162Y007680D01*
X019252Y007680D01*
X019297Y007635D01*
X019252Y007545D02*
X019207Y007545D01*
X018716Y007410D02*
X018626Y007410D01*
X018671Y007410D02*
X018671Y007680D01*
X018626Y007680D02*
X018716Y007680D01*
X018582Y006854D02*
X018582Y006166D01*
X019369Y006166D01*
X019369Y006854D01*
X018582Y006854D01*
X017725Y007330D02*
X017680Y007285D01*
X017590Y007285D01*
X017545Y007330D01*
X017545Y007375D01*
X017590Y007420D01*
X017680Y007420D01*
X017725Y007375D01*
X017725Y007330D01*
X017680Y007420D02*
X017725Y007465D01*
X017725Y007510D01*
X017680Y007555D01*
X017590Y007555D01*
X017545Y007510D01*
X017545Y007465D01*
X017590Y007420D01*
X017431Y007330D02*
X017386Y007285D01*
X017296Y007285D01*
X017251Y007330D01*
X017251Y007510D01*
X017296Y007555D01*
X017386Y007555D01*
X017431Y007510D01*
X017386Y007660D02*
X017431Y007705D01*
X017386Y007660D02*
X017296Y007660D01*
X017251Y007705D01*
X017251Y007885D01*
X017296Y007930D01*
X017386Y007930D01*
X017431Y007885D01*
X017545Y007930D02*
X017725Y007930D01*
X017725Y007885D01*
X017545Y007705D01*
X017545Y007660D01*
X016403Y009376D02*
X016403Y009647D01*
X016268Y009512D01*
X016448Y009512D01*
X016154Y009512D02*
X016109Y009467D01*
X015973Y009467D01*
X015973Y009376D02*
X015973Y009647D01*
X016109Y009647D01*
X016154Y009602D01*
X016154Y009512D01*
X015859Y009647D02*
X015679Y009647D01*
X015769Y009647D02*
X015769Y009376D01*
X015403Y009751D02*
X015313Y009751D01*
X015268Y009797D01*
X015358Y009887D02*
X015403Y009887D01*
X015448Y009842D01*
X015448Y009797D01*
X015403Y009751D01*
X015403Y009887D02*
X015448Y009932D01*
X015448Y009977D01*
X015403Y010022D01*
X015313Y010022D01*
X015268Y009977D01*
X015154Y009977D02*
X015154Y009887D01*
X015109Y009842D01*
X014973Y009842D01*
X014973Y009751D02*
X014973Y010022D01*
X015109Y010022D01*
X015154Y009977D01*
X014859Y010022D02*
X014679Y010022D01*
X014769Y010022D02*
X014769Y009751D01*
X014297Y009840D02*
X014297Y009885D01*
X014252Y009930D01*
X014162Y009930D01*
X014117Y009885D01*
X014002Y009885D02*
X013957Y009930D01*
X013867Y009930D01*
X013822Y009885D01*
X013822Y009705D01*
X013867Y009660D01*
X013957Y009660D01*
X014002Y009705D01*
X014117Y009660D02*
X014297Y009840D01*
X014297Y009660D02*
X014117Y009660D01*
X013716Y009660D02*
X013626Y009660D01*
X013671Y009660D02*
X013671Y009930D01*
X013626Y009930D02*
X013716Y009930D01*
X013761Y010285D02*
X013806Y010330D01*
X013761Y010285D02*
X013671Y010285D01*
X013626Y010330D01*
X013626Y010510D01*
X013671Y010555D01*
X013761Y010555D01*
X013806Y010510D01*
X013920Y010420D02*
X014100Y010420D01*
X014055Y010285D02*
X014055Y010555D01*
X013920Y010420D01*
X013965Y010660D02*
X013920Y010705D01*
X013965Y010660D02*
X014055Y010660D01*
X014100Y010705D01*
X014100Y010750D01*
X014055Y010795D01*
X014010Y010795D01*
X014055Y010795D02*
X014100Y010840D01*
X014100Y010885D01*
X014055Y010930D01*
X013965Y010930D01*
X013920Y010885D01*
X013806Y010885D02*
X013761Y010930D01*
X013671Y010930D01*
X013626Y010885D01*
X013626Y010705D01*
X013671Y010660D01*
X013761Y010660D01*
X013806Y010705D01*
X013570Y009404D02*
X012881Y009404D01*
X012881Y008616D01*
X013570Y008616D01*
X013570Y009404D01*
X011725Y009455D02*
X011680Y009410D01*
X011590Y009410D01*
X011545Y009455D01*
X011545Y009545D02*
X011635Y009590D01*
X011680Y009590D01*
X011725Y009545D01*
X011725Y009455D01*
X011545Y009545D02*
X011545Y009680D01*
X011725Y009680D01*
X011680Y009785D02*
X011680Y010055D01*
X011545Y009920D01*
X011725Y009920D01*
X011431Y009920D02*
X011386Y009875D01*
X011251Y009875D01*
X011341Y009875D02*
X011431Y009785D01*
X011386Y009680D02*
X011431Y009635D01*
X011431Y009545D01*
X011386Y009500D01*
X011251Y009500D01*
X011341Y009500D02*
X011431Y009410D01*
X011251Y009410D02*
X011251Y009680D01*
X011386Y009680D01*
X011251Y009785D02*
X011251Y010055D01*
X011386Y010055D01*
X011431Y010010D01*
X011431Y009920D01*
X010350Y009955D02*
X010305Y009910D01*
X010215Y009910D01*
X010170Y009955D01*
X010170Y010045D02*
X010260Y010090D01*
X010305Y010090D01*
X010350Y010045D01*
X010350Y009955D01*
X010170Y010045D02*
X010170Y010180D01*
X010350Y010180D01*
X010305Y010285D02*
X010215Y010285D01*
X010170Y010330D01*
X010056Y010285D02*
X009966Y010375D01*
X010011Y010375D02*
X009876Y010375D01*
X009876Y010285D02*
X009876Y010555D01*
X010011Y010555D01*
X010056Y010510D01*
X010056Y010420D01*
X010011Y010375D01*
X010011Y010180D02*
X009921Y010180D01*
X009876Y010135D01*
X009876Y009955D01*
X009921Y009910D01*
X010011Y009910D01*
X010056Y009955D01*
X010056Y010135D02*
X010011Y010180D01*
X010305Y010285D02*
X010350Y010330D01*
X010350Y010375D01*
X010305Y010420D01*
X010260Y010420D01*
X010305Y010420D02*
X010350Y010465D01*
X010350Y010510D01*
X010305Y010555D01*
X010215Y010555D01*
X010170Y010510D01*
X010170Y010910D02*
X010350Y011090D01*
X010350Y011135D01*
X010305Y011180D01*
X010215Y011180D01*
X010170Y011135D01*
X010056Y011135D02*
X010011Y011180D01*
X009921Y011180D01*
X009876Y011135D01*
X009876Y010955D01*
X009921Y010910D01*
X010011Y010910D01*
X010056Y010955D01*
X010170Y010910D02*
X010350Y010910D01*
X010350Y011285D02*
X010170Y011285D01*
X010260Y011285D02*
X010260Y011555D01*
X010170Y011465D01*
X010056Y011510D02*
X010011Y011555D01*
X009921Y011555D01*
X009876Y011510D01*
X009876Y011330D01*
X009921Y011285D01*
X010011Y011285D01*
X010056Y011330D01*
X011179Y011522D02*
X011359Y011522D01*
X011269Y011522D02*
X011269Y011251D01*
X011473Y011251D02*
X011473Y011522D01*
X011609Y011522D01*
X011654Y011477D01*
X011654Y011387D01*
X011609Y011342D01*
X011473Y011342D01*
X011768Y011251D02*
X011948Y011432D01*
X011948Y011477D01*
X011903Y011522D01*
X011813Y011522D01*
X011768Y011477D01*
X011768Y011251D02*
X011948Y011251D01*
X011948Y012251D02*
X011768Y012251D01*
X011858Y012251D02*
X011858Y012522D01*
X011768Y012432D01*
X011654Y012477D02*
X011654Y012387D01*
X011609Y012342D01*
X011473Y012342D01*
X011473Y012251D02*
X011473Y012522D01*
X011609Y012522D01*
X011654Y012477D01*
X011359Y012522D02*
X011179Y012522D01*
X011269Y012522D02*
X011269Y012251D01*
X009320Y010279D02*
X008631Y010279D01*
X008631Y009491D01*
X009320Y009491D01*
X009320Y010279D01*
X008511Y010465D02*
X008331Y010465D01*
X008421Y010465D02*
X008421Y010735D01*
X008331Y010645D01*
X008216Y010690D02*
X008171Y010735D01*
X008081Y010735D01*
X008036Y010690D01*
X008036Y010510D01*
X008081Y010465D01*
X008171Y010465D01*
X008216Y010510D01*
X007930Y010465D02*
X007840Y010465D01*
X007885Y010465D02*
X007885Y010735D01*
X007840Y010735D02*
X007930Y010735D01*
X007100Y010715D02*
X007100Y010760D01*
X007055Y010805D01*
X006965Y010805D01*
X006920Y010760D01*
X006806Y010760D02*
X006806Y010670D01*
X006761Y010625D01*
X006626Y010625D01*
X006716Y010625D02*
X006806Y010535D01*
X006920Y010535D02*
X007100Y010715D01*
X007100Y010535D02*
X006920Y010535D01*
X006806Y010760D02*
X006761Y010805D01*
X006626Y010805D01*
X006626Y010535D01*
X006619Y008769D02*
X006439Y008769D01*
X006529Y008769D02*
X006529Y008499D01*
X006733Y008499D02*
X006733Y008769D01*
X006868Y008769D01*
X006913Y008724D01*
X006913Y008634D01*
X006868Y008589D01*
X006733Y008589D01*
X007028Y008634D02*
X007028Y008769D01*
X007208Y008769D01*
X007163Y008679D02*
X007208Y008634D01*
X007208Y008544D01*
X007163Y008499D01*
X007073Y008499D01*
X007028Y008544D01*
X007028Y008634D02*
X007118Y008679D01*
X007163Y008679D01*
X007208Y008019D02*
X007118Y007974D01*
X007028Y007884D01*
X007163Y007884D01*
X007208Y007839D01*
X007208Y007794D01*
X007163Y007749D01*
X007073Y007749D01*
X007028Y007794D01*
X007028Y007884D01*
X006913Y007884D02*
X006913Y007974D01*
X006868Y008019D01*
X006733Y008019D01*
X006733Y007749D01*
X006733Y007839D02*
X006868Y007839D01*
X006913Y007884D01*
X006619Y008019D02*
X006439Y008019D01*
X006529Y008019D02*
X006529Y007749D01*
X007786Y007965D02*
X007786Y008235D01*
X007876Y008145D01*
X007966Y008235D01*
X007966Y007965D01*
X008081Y007965D02*
X008261Y007965D01*
X008171Y007965D02*
X008171Y008235D01*
X008081Y008145D01*
X008286Y007360D02*
X008421Y007360D01*
X008466Y007315D01*
X008466Y007135D01*
X008421Y007090D01*
X008286Y007090D01*
X008286Y007360D01*
X008581Y007270D02*
X008671Y007360D01*
X008671Y007090D01*
X008581Y007090D02*
X008761Y007090D01*
X009411Y007840D02*
X009411Y008110D01*
X009546Y008110D01*
X009591Y008065D01*
X009591Y007975D01*
X009546Y007930D01*
X009411Y007930D01*
X009501Y007930D02*
X009591Y007840D01*
X009706Y007885D02*
X009706Y007975D01*
X009841Y007975D01*
X009886Y007930D01*
X009886Y007885D01*
X009841Y007840D01*
X009751Y007840D01*
X009706Y007885D01*
X009706Y007975D02*
X009796Y008065D01*
X009886Y008110D01*
X011304Y007647D02*
X011484Y007647D01*
X011394Y007647D02*
X011394Y007376D01*
X011598Y007376D02*
X011598Y007647D01*
X011734Y007647D01*
X011779Y007602D01*
X011779Y007512D01*
X011734Y007467D01*
X011598Y007467D01*
X011893Y007422D02*
X011893Y007376D01*
X011893Y007422D02*
X012073Y007602D01*
X012073Y007647D01*
X011893Y007647D01*
X012304Y006647D02*
X012484Y006647D01*
X012394Y006647D02*
X012394Y006376D01*
X012598Y006376D02*
X012598Y006647D01*
X012734Y006647D01*
X012779Y006602D01*
X012779Y006512D01*
X012734Y006467D01*
X012598Y006467D01*
X012893Y006467D02*
X012938Y006512D01*
X013028Y006512D01*
X013073Y006467D01*
X013073Y006422D01*
X013028Y006376D01*
X012938Y006376D01*
X012893Y006422D01*
X012893Y006467D01*
X012938Y006512D02*
X012893Y006557D01*
X012893Y006602D01*
X012938Y006647D01*
X013028Y006647D01*
X013073Y006602D01*
X013073Y006557D01*
X013028Y006512D01*
X013876Y006430D02*
X013876Y006160D01*
X013876Y006250D02*
X014011Y006250D01*
X014056Y006295D01*
X014056Y006385D01*
X014011Y006430D01*
X013876Y006430D01*
X013966Y006250D02*
X014056Y006160D01*
X014260Y006160D02*
X014260Y006430D01*
X014170Y006430D02*
X014350Y006430D01*
X014465Y006340D02*
X014555Y006430D01*
X014555Y006160D01*
X014465Y006160D02*
X014645Y006160D01*
X013851Y005885D02*
X015851Y005885D01*
X015851Y003385D01*
X013851Y003385D01*
X013851Y005885D01*
X013430Y007535D02*
X013475Y007580D01*
X013475Y007625D01*
X013430Y007670D01*
X013295Y007670D01*
X013295Y007580D01*
X013340Y007535D01*
X013430Y007535D01*
X013295Y007670D02*
X013385Y007760D01*
X013475Y007805D01*
X013181Y007760D02*
X013136Y007805D01*
X013046Y007805D01*
X013001Y007760D01*
X013001Y007580D01*
X013046Y007535D01*
X013136Y007535D01*
X013181Y007580D01*
X013340Y002930D02*
X013385Y002930D01*
X013385Y002660D01*
X013340Y002660D02*
X013430Y002660D01*
X013536Y002705D02*
X013536Y002795D01*
X013581Y002840D01*
X013717Y002840D01*
X013717Y002930D02*
X013717Y002660D01*
X013581Y002660D01*
X013536Y002705D01*
X013831Y002705D02*
X013876Y002660D01*
X013966Y002660D01*
X014011Y002705D01*
X014011Y002795D01*
X013966Y002840D01*
X013876Y002840D01*
X013831Y002795D01*
X013831Y002705D01*
X014126Y002795D02*
X014216Y002795D01*
X014171Y002885D02*
X014216Y002930D01*
X014171Y002885D02*
X014171Y002660D01*
X014367Y002660D02*
X014367Y002885D01*
X014412Y002930D01*
X014412Y002795D02*
X014322Y002795D01*
X014813Y002930D02*
X014993Y002930D01*
X014903Y002930D02*
X014903Y002660D01*
X015108Y002660D02*
X015198Y002660D01*
X015153Y002660D02*
X015153Y002840D01*
X015108Y002840D01*
X015153Y002930D02*
X015153Y002975D01*
X015304Y002840D02*
X015349Y002840D01*
X015394Y002795D01*
X015439Y002840D01*
X015484Y002795D01*
X015484Y002660D01*
X015394Y002660D02*
X015394Y002795D01*
X015304Y002840D02*
X015304Y002660D01*
X015599Y002705D02*
X015599Y002795D01*
X015644Y002840D01*
X015734Y002840D01*
X015779Y002795D01*
X015779Y002750D01*
X015599Y002750D01*
X015599Y002705D02*
X015644Y002660D01*
X015734Y002660D01*
X016188Y002660D02*
X016188Y002840D01*
X016278Y002930D01*
X016368Y002840D01*
X016368Y002660D01*
X016483Y002705D02*
X016483Y002795D01*
X016528Y002840D01*
X016663Y002840D01*
X016663Y002930D02*
X016663Y002660D01*
X016528Y002660D01*
X016483Y002705D01*
X016368Y002795D02*
X016188Y002795D01*
X016778Y002570D02*
X016823Y002570D01*
X016868Y002615D01*
X016868Y002840D01*
X016868Y002930D02*
X016868Y002975D01*
X016974Y002840D02*
X016974Y002705D01*
X017019Y002660D01*
X017154Y002660D01*
X017154Y002840D01*
X017269Y002795D02*
X017314Y002840D01*
X017449Y002840D01*
X017404Y002750D02*
X017314Y002750D01*
X017269Y002795D01*
X017269Y002660D02*
X017404Y002660D01*
X017449Y002705D01*
X017404Y002750D01*
X017563Y002840D02*
X017653Y002840D01*
X017608Y002885D02*
X017608Y002705D01*
X017653Y002660D01*
X013225Y002705D02*
X013225Y002795D01*
X013180Y002840D01*
X013090Y002840D01*
X013045Y002795D01*
X013045Y002705D01*
X013090Y002660D01*
X013180Y002660D01*
X013225Y002705D01*
X012931Y002660D02*
X012931Y002930D01*
X012931Y002795D02*
X012751Y002795D01*
X012751Y002660D02*
X012751Y002930D01*
X023036Y009465D02*
X023216Y009735D01*
X023331Y009600D02*
X023511Y009600D01*
X023466Y009465D02*
X023466Y009735D01*
X023331Y009600D01*
X023216Y009465D02*
X023036Y009735D01*
X023036Y011215D02*
X023216Y011485D01*
X023331Y011440D02*
X023376Y011485D01*
X023466Y011485D01*
X023511Y011440D01*
X023511Y011395D01*
X023331Y011215D01*
X023511Y011215D01*
X023216Y011215D02*
X023036Y011485D01*
X021350Y013910D02*
X021170Y013910D01*
X021260Y013910D02*
X021260Y014180D01*
X021170Y014090D01*
X021056Y014045D02*
X021011Y014000D01*
X020876Y014000D01*
X020966Y014000D02*
X021056Y013910D01*
X021056Y014045D02*
X021056Y014135D01*
X021011Y014180D01*
X020876Y014180D01*
X020876Y013910D01*
X016101Y015260D02*
X016101Y017260D01*
X016099Y017280D01*
X016095Y017299D01*
X016087Y017317D01*
X016077Y017333D01*
X016064Y017348D01*
X016049Y017361D01*
X016033Y017371D01*
X016015Y017379D01*
X015996Y017383D01*
X015976Y017385D01*
X004476Y017385D01*
X004456Y017383D01*
X004437Y017379D01*
X004419Y017371D01*
X004403Y017361D01*
X004388Y017348D01*
X004375Y017333D01*
X004365Y017317D01*
X004357Y017299D01*
X004353Y017280D01*
X004351Y017260D01*
X004351Y015260D01*
X004353Y015240D01*
X004357Y015221D01*
X004365Y015203D01*
X004375Y015187D01*
X004388Y015172D01*
X004403Y015159D01*
X004419Y015149D01*
X004437Y015141D01*
X004456Y015137D01*
X004476Y015135D01*
X015976Y015135D01*
X015996Y015137D01*
X016015Y015141D01*
X016033Y015149D01*
X016049Y015159D01*
X016064Y015172D01*
X016077Y015187D01*
X016087Y015203D01*
X016095Y015221D01*
X016099Y015240D01*
X016101Y015260D01*
X015863Y016910D02*
X015773Y016910D01*
X015818Y016910D02*
X015818Y017180D01*
X015773Y017180D01*
X015622Y017180D02*
X015622Y016910D01*
X015577Y016910D02*
X015667Y016910D01*
X015462Y017000D02*
X015282Y017000D01*
X015282Y016955D02*
X015282Y017045D01*
X015327Y017090D01*
X015417Y017090D01*
X015462Y017045D01*
X015462Y017000D01*
X015417Y016910D02*
X015327Y016910D01*
X015282Y016955D01*
X015168Y016955D02*
X015123Y016910D01*
X015033Y016910D01*
X014988Y016955D01*
X014988Y017135D01*
X015033Y017180D01*
X015123Y017180D01*
X015168Y017135D01*
X015577Y017180D02*
X015622Y017180D01*
X014587Y017090D02*
X014496Y017090D01*
X014542Y017135D02*
X014542Y016955D01*
X014587Y016910D01*
X014382Y016955D02*
X014337Y017000D01*
X014247Y017000D01*
X014202Y017045D01*
X014247Y017090D01*
X014382Y017090D01*
X014382Y016955D02*
X014337Y016910D01*
X014202Y016910D01*
X014087Y017000D02*
X013907Y017000D01*
X013907Y016955D02*
X013907Y017045D01*
X013952Y017090D01*
X014042Y017090D01*
X014087Y017045D01*
X014087Y017000D01*
X014042Y016910D02*
X013952Y016910D01*
X013907Y016955D01*
X013703Y016910D02*
X013703Y017180D01*
X013613Y017180D02*
X013793Y017180D01*
X013211Y017090D02*
X013121Y017090D01*
X013166Y017135D02*
X013166Y016955D01*
X013211Y016910D01*
X013007Y016955D02*
X013007Y017045D01*
X012962Y017090D01*
X012872Y017090D01*
X012827Y017045D01*
X012827Y016955D01*
X012872Y016910D01*
X012962Y016910D01*
X013007Y016955D01*
X012712Y016910D02*
X012712Y017045D01*
X012667Y017090D01*
X012577Y017090D01*
X012532Y017045D01*
X012418Y017000D02*
X012418Y016955D01*
X012373Y016910D01*
X012283Y016910D01*
X012237Y016955D01*
X012283Y017045D02*
X012373Y017045D01*
X012418Y017000D01*
X012418Y017135D02*
X012373Y017180D01*
X012283Y017180D01*
X012237Y017135D01*
X012237Y017090D01*
X012283Y017045D01*
X012123Y017045D02*
X011943Y017045D01*
X011828Y017045D02*
X011828Y017000D01*
X011648Y017000D01*
X011648Y016955D02*
X011648Y017045D01*
X011693Y017090D01*
X011783Y017090D01*
X011828Y017045D01*
X011783Y016910D02*
X011693Y016910D01*
X011648Y016955D01*
X011534Y016910D02*
X011534Y017045D01*
X011489Y017090D01*
X011354Y017090D01*
X011354Y016910D01*
X011239Y016955D02*
X011239Y017135D01*
X011194Y017180D01*
X011104Y017180D01*
X011059Y017135D01*
X011059Y016955D01*
X011104Y016910D01*
X011194Y016910D01*
X011239Y016955D01*
X010650Y016910D02*
X010515Y016910D01*
X010470Y016955D01*
X010470Y017045D01*
X010515Y017090D01*
X010650Y017090D01*
X010650Y017180D02*
X010650Y016910D01*
X010355Y017000D02*
X010175Y017000D01*
X010175Y016955D02*
X010175Y017045D01*
X010220Y017090D01*
X010310Y017090D01*
X010355Y017045D01*
X010355Y017000D01*
X010310Y016910D02*
X010220Y016910D01*
X010175Y016955D01*
X010069Y016910D02*
X009978Y016910D01*
X010024Y016910D02*
X010024Y017180D01*
X009978Y017180D01*
X009827Y017180D02*
X009827Y016910D01*
X009782Y016910D02*
X009872Y016910D01*
X009668Y016955D02*
X009668Y017045D01*
X009622Y017090D01*
X009532Y017090D01*
X009487Y017045D01*
X009487Y016955D01*
X009532Y016910D01*
X009622Y016910D01*
X009668Y016955D01*
X009782Y017180D02*
X009827Y017180D01*
X009377Y017090D02*
X009332Y017090D01*
X009242Y017000D01*
X009242Y016910D02*
X009242Y017090D01*
X009135Y017090D02*
X009045Y017090D01*
X009090Y017135D02*
X009090Y016955D01*
X009135Y016910D01*
X008931Y016910D02*
X008931Y017045D01*
X008886Y017090D01*
X008751Y017090D01*
X008751Y016910D01*
X008636Y016955D02*
X008636Y017045D01*
X008591Y017090D01*
X008501Y017090D01*
X008456Y017045D01*
X008456Y016955D01*
X008501Y016910D01*
X008591Y016910D01*
X008636Y016955D01*
X008342Y016955D02*
X008297Y016910D01*
X008206Y016910D01*
X008161Y016955D01*
X008161Y017135D01*
X008206Y017180D01*
X008297Y017180D01*
X008342Y017135D01*
X008047Y017045D02*
X007867Y017045D01*
X007752Y017045D02*
X007752Y017000D01*
X007572Y017000D01*
X007572Y016955D02*
X007572Y017045D01*
X007617Y017090D01*
X007707Y017090D01*
X007752Y017045D01*
X007707Y016910D02*
X007617Y016910D01*
X007572Y016955D01*
X007458Y016910D02*
X007323Y016910D01*
X007277Y016955D01*
X007277Y017045D01*
X007323Y017090D01*
X007458Y017090D01*
X007458Y016865D01*
X007413Y016820D01*
X007368Y016820D01*
X007273Y016635D02*
X007273Y016455D01*
X007318Y016410D01*
X007425Y016410D02*
X007470Y016410D01*
X007470Y016455D01*
X007425Y016455D01*
X007425Y016410D01*
X007572Y016455D02*
X007572Y016545D01*
X007617Y016590D01*
X007707Y016590D01*
X007752Y016545D01*
X007752Y016500D01*
X007572Y016500D01*
X007572Y016455D02*
X007617Y016410D01*
X007707Y016410D01*
X007867Y016455D02*
X007867Y016545D01*
X007912Y016590D01*
X008047Y016590D01*
X008047Y016680D02*
X008047Y016410D01*
X007912Y016410D01*
X007867Y016455D01*
X007851Y016180D02*
X007851Y015910D01*
X007715Y015910D01*
X007670Y015955D01*
X007670Y016045D01*
X007715Y016090D01*
X007851Y016090D01*
X007965Y016090D02*
X007965Y015955D01*
X008010Y015910D01*
X008145Y015910D01*
X008145Y016090D01*
X008206Y016410D02*
X008342Y016410D01*
X008342Y016590D01*
X008161Y016590D02*
X008161Y016455D01*
X008206Y016410D01*
X007556Y016045D02*
X007556Y016000D01*
X007376Y016000D01*
X007376Y015955D02*
X007376Y016045D01*
X007421Y016090D01*
X007511Y016090D01*
X007556Y016045D01*
X007511Y015910D02*
X007421Y015910D01*
X007376Y015955D01*
X007273Y015955D02*
X007273Y015910D01*
X007228Y015910D01*
X007228Y015955D01*
X007273Y015955D01*
X007122Y015910D02*
X007077Y015955D01*
X007077Y016135D01*
X007032Y016090D02*
X007122Y016090D01*
X006881Y016090D02*
X006881Y015910D01*
X006836Y015910D02*
X006926Y015910D01*
X006881Y016090D02*
X006836Y016090D01*
X006881Y016180D02*
X006881Y016225D01*
X006917Y016410D02*
X006917Y016545D01*
X006872Y016590D01*
X006827Y016545D01*
X006827Y016410D01*
X006737Y016410D02*
X006737Y016590D01*
X006782Y016590D01*
X006827Y016545D01*
X006623Y016545D02*
X006578Y016500D01*
X006578Y016590D01*
X006488Y016590D01*
X006488Y016500D01*
X006578Y016500D01*
X006623Y016455D02*
X006578Y016410D01*
X006488Y016410D01*
X006443Y016455D01*
X006443Y016635D01*
X006488Y016680D01*
X006578Y016680D01*
X006623Y016635D01*
X006623Y016545D01*
X006332Y016590D02*
X006197Y016500D01*
X006332Y016410D01*
X006197Y016410D02*
X006197Y016680D01*
X006046Y016680D02*
X006046Y016725D01*
X006046Y016590D02*
X006046Y016410D01*
X006001Y016410D02*
X006091Y016410D01*
X006046Y016590D02*
X006001Y016590D01*
X005886Y016545D02*
X005886Y016410D01*
X005886Y016545D02*
X005841Y016590D01*
X005706Y016590D01*
X005706Y016410D01*
X005592Y016410D02*
X005592Y016545D01*
X005546Y016590D01*
X005501Y016545D01*
X005501Y016410D01*
X005411Y016410D02*
X005411Y016590D01*
X005456Y016590D01*
X005501Y016545D01*
X005297Y016545D02*
X005297Y016410D01*
X005162Y016410D01*
X005117Y016455D01*
X005162Y016500D01*
X005297Y016500D01*
X005297Y016545D02*
X005252Y016590D01*
X005162Y016590D01*
X005006Y016590D02*
X004961Y016590D01*
X004871Y016500D01*
X004871Y016410D02*
X004871Y016590D01*
X004761Y016590D02*
X004626Y016500D01*
X004761Y016410D01*
X004626Y016410D02*
X004626Y016680D01*
X004626Y016910D02*
X004626Y017180D01*
X004806Y017180D01*
X004716Y017045D02*
X004626Y017045D01*
X004920Y016955D02*
X004965Y017000D01*
X005100Y017000D01*
X005100Y017045D02*
X005100Y016910D01*
X004965Y016910D01*
X004920Y016955D01*
X004965Y017090D02*
X005055Y017090D01*
X005100Y017045D01*
X005215Y017045D02*
X005260Y017090D01*
X005395Y017090D01*
X005350Y017000D02*
X005260Y017000D01*
X005215Y017045D01*
X005215Y016910D02*
X005350Y016910D01*
X005395Y016955D01*
X005350Y017000D01*
X005510Y017090D02*
X005600Y017090D01*
X005555Y017135D02*
X005555Y016955D01*
X005600Y016910D01*
X006001Y017000D02*
X006001Y017180D01*
X006181Y017180D02*
X006181Y017000D01*
X006091Y016910D01*
X006001Y017000D01*
X006295Y016955D02*
X006340Y016910D01*
X006430Y016910D01*
X006475Y016955D01*
X006475Y017045D01*
X006430Y017090D01*
X006340Y017090D01*
X006295Y017045D01*
X006295Y016955D01*
X006590Y016910D02*
X006680Y016910D01*
X006635Y016910D02*
X006635Y017180D01*
X006590Y017180D01*
X006786Y017090D02*
X006876Y017090D01*
X006831Y017135D02*
X006831Y016955D01*
X006876Y016910D01*
X006983Y016955D02*
X007028Y017000D01*
X007163Y017000D01*
X007163Y017045D02*
X007163Y016910D01*
X007028Y016910D01*
X006983Y016955D01*
X007028Y017090D02*
X007118Y017090D01*
X007163Y017045D01*
X007077Y016725D02*
X007077Y016680D01*
X007077Y016590D02*
X007077Y016410D01*
X007032Y016410D02*
X007122Y016410D01*
X007077Y016590D02*
X007032Y016590D01*
X007228Y016590D02*
X007318Y016590D01*
X006721Y016045D02*
X006721Y015910D01*
X006631Y015910D02*
X006631Y016045D01*
X006676Y016090D01*
X006721Y016045D01*
X006631Y016045D02*
X006586Y016090D01*
X006541Y016090D01*
X006541Y015910D01*
X006426Y015955D02*
X006381Y015910D01*
X006291Y015910D01*
X006246Y015955D01*
X006246Y016135D01*
X006291Y016180D01*
X006381Y016180D01*
X006426Y016135D01*
X006426Y016045D01*
X006381Y016000D01*
X006381Y016090D01*
X006291Y016090D01*
X006291Y016000D01*
X006381Y016000D01*
X006132Y016090D02*
X006042Y015910D01*
X005952Y016090D01*
X005837Y016045D02*
X005837Y016000D01*
X005657Y016000D01*
X005657Y015955D02*
X005657Y016045D01*
X005702Y016090D01*
X005792Y016090D01*
X005837Y016045D01*
X005792Y015910D02*
X005702Y015910D01*
X005657Y015955D01*
X005542Y016000D02*
X005362Y016000D01*
X005362Y015955D02*
X005362Y016045D01*
X005407Y016090D01*
X005497Y016090D01*
X005542Y016045D01*
X005542Y016000D01*
X005497Y015910D02*
X005407Y015910D01*
X005362Y015955D01*
X005256Y015865D02*
X005256Y016090D01*
X005256Y016180D02*
X005256Y016225D01*
X005051Y016045D02*
X005051Y015910D01*
X004916Y015910D01*
X004871Y015955D01*
X004916Y016000D01*
X005051Y016000D01*
X005051Y016045D02*
X005006Y016090D01*
X004916Y016090D01*
X004761Y016090D02*
X004716Y016090D01*
X004626Y016000D01*
X004626Y015910D02*
X004626Y016090D01*
X004626Y015680D02*
X004626Y015410D01*
X004716Y015500D01*
X004806Y015410D01*
X004806Y015680D01*
X004920Y015680D02*
X005010Y015680D01*
X004965Y015680D02*
X004965Y015410D01*
X004920Y015410D02*
X005010Y015410D01*
X005117Y015410D02*
X005117Y015680D01*
X005297Y015410D01*
X005297Y015680D01*
X005411Y015680D02*
X005592Y015680D01*
X005501Y015680D02*
X005501Y015410D01*
X005706Y015410D02*
X005886Y015410D01*
X006001Y015410D02*
X006001Y015680D01*
X006136Y015680D01*
X006181Y015635D01*
X006181Y015545D01*
X006136Y015500D01*
X006001Y015500D01*
X006091Y015500D02*
X006181Y015410D01*
X006590Y015410D02*
X006770Y015590D01*
X006770Y015635D01*
X006725Y015680D01*
X006635Y015680D01*
X006590Y015635D01*
X006590Y015410D02*
X006770Y015410D01*
X006885Y015455D02*
X007065Y015635D01*
X007065Y015455D01*
X007020Y015410D01*
X006930Y015410D01*
X006885Y015455D01*
X006885Y015635D01*
X006930Y015680D01*
X007020Y015680D01*
X007065Y015635D01*
X007179Y015590D02*
X007269Y015680D01*
X007269Y015410D01*
X007179Y015410D02*
X007359Y015410D01*
X007474Y015410D02*
X007474Y015455D01*
X007654Y015635D01*
X007654Y015680D01*
X007474Y015680D01*
X005886Y015680D02*
X005706Y015680D01*
X005706Y015410D01*
X005706Y015545D02*
X005796Y015545D01*
X005256Y015865D02*
X005211Y015820D01*
X005166Y015820D01*
X004555Y013430D02*
X004600Y013385D01*
X004600Y013340D01*
X004555Y013295D01*
X004600Y013250D01*
X004600Y013205D01*
X004555Y013160D01*
X004465Y013160D01*
X004420Y013205D01*
X004306Y013160D02*
X004126Y013430D01*
X004306Y013430D02*
X004126Y013160D01*
X004420Y013385D02*
X004465Y013430D01*
X004555Y013430D01*
X004555Y013295D02*
X004510Y013295D01*
X012532Y016910D02*
X012532Y017180D01*
X016376Y019660D02*
X016556Y019930D01*
X016670Y019840D02*
X016760Y019930D01*
X016760Y019660D01*
X016670Y019660D02*
X016850Y019660D01*
X016556Y019660D02*
X016376Y019930D01*
D12*
X015681Y020299D02*
X015681Y020870D01*
X015681Y018429D01*
X015366Y018429D01*
X015366Y020299D01*
X012335Y020299D01*
X012335Y018429D01*
X012020Y018429D01*
X012020Y020870D01*
X012020Y020299D01*
X012020Y020870D02*
X013063Y020870D01*
X013063Y021717D01*
X012768Y022012D01*
X012768Y023508D01*
X013103Y023508D01*
X013103Y023971D01*
X014599Y023971D01*
X014599Y023508D01*
X014933Y023508D01*
X014933Y022012D01*
X014638Y021717D01*
X014638Y020870D01*
X015681Y020870D01*
X015600Y017955D02*
X015600Y017675D01*
X013991Y017815D02*
X013710Y017815D01*
X013850Y017675D02*
X013850Y017955D01*
X005681Y012091D02*
X005681Y011776D01*
X003811Y011776D01*
X003811Y008744D01*
X005681Y008744D01*
X005681Y008429D01*
X003240Y008429D01*
X003811Y008429D01*
X003240Y008429D02*
X003240Y009473D01*
X002394Y009473D01*
X002099Y009177D01*
X000603Y009177D01*
X000603Y009512D01*
X000140Y009512D01*
X000140Y011008D01*
X000603Y011008D01*
X000603Y011343D01*
X002099Y011343D01*
X002394Y011047D01*
X003240Y011047D01*
X003240Y012091D01*
X005681Y012091D01*
X003811Y012091D02*
X003240Y012091D01*
X004510Y019010D02*
X004512Y019058D01*
X004518Y019106D01*
X004528Y019153D01*
X004541Y019199D01*
X004559Y019244D01*
X004579Y019288D01*
X004604Y019330D01*
X004632Y019369D01*
X004662Y019406D01*
X004696Y019440D01*
X004733Y019472D01*
X004771Y019501D01*
X004812Y019526D01*
X004855Y019548D01*
X004900Y019566D01*
X004946Y019580D01*
X004993Y019591D01*
X005041Y019598D01*
X005089Y019601D01*
X005137Y019600D01*
X005185Y019595D01*
X005233Y019586D01*
X005279Y019574D01*
X005324Y019557D01*
X005368Y019537D01*
X005410Y019514D01*
X005450Y019487D01*
X005488Y019457D01*
X005523Y019424D01*
X005555Y019388D01*
X005585Y019350D01*
X005611Y019309D01*
X005633Y019266D01*
X005653Y019222D01*
X005668Y019177D01*
X005680Y019130D01*
X005688Y019082D01*
X005692Y019034D01*
X005692Y018986D01*
X005688Y018938D01*
X005680Y018890D01*
X005668Y018843D01*
X005653Y018798D01*
X005633Y018754D01*
X005611Y018711D01*
X005585Y018670D01*
X005555Y018632D01*
X005523Y018596D01*
X005488Y018563D01*
X005450Y018533D01*
X005410Y018506D01*
X005368Y018483D01*
X005324Y018463D01*
X005279Y018446D01*
X005233Y018434D01*
X005185Y018425D01*
X005137Y018420D01*
X005089Y018419D01*
X005041Y018422D01*
X004993Y018429D01*
X004946Y018440D01*
X004900Y018454D01*
X004855Y018472D01*
X004812Y018494D01*
X004771Y018519D01*
X004733Y018548D01*
X004696Y018580D01*
X004662Y018614D01*
X004632Y018651D01*
X004604Y018690D01*
X004579Y018732D01*
X004559Y018776D01*
X004541Y018821D01*
X004528Y018867D01*
X004518Y018914D01*
X004512Y018962D01*
X004510Y019010D01*
X022020Y015841D02*
X022020Y015526D01*
X023890Y015526D01*
X023890Y012494D01*
X022020Y012494D01*
X022020Y012179D01*
X024461Y012179D01*
X023890Y012179D01*
X024461Y012179D02*
X024461Y013223D01*
X025307Y013223D01*
X025603Y012927D01*
X027099Y012927D01*
X027099Y013262D01*
X027561Y013262D01*
X027561Y014758D01*
X027099Y014758D01*
X027099Y015093D01*
X025603Y015093D01*
X025307Y014797D01*
X024461Y014797D01*
X024461Y015841D01*
X022020Y015841D01*
X023890Y015841D02*
X024461Y015841D01*
X022010Y019010D02*
X022012Y019058D01*
X022018Y019106D01*
X022028Y019153D01*
X022041Y019199D01*
X022059Y019244D01*
X022079Y019288D01*
X022104Y019330D01*
X022132Y019369D01*
X022162Y019406D01*
X022196Y019440D01*
X022233Y019472D01*
X022271Y019501D01*
X022312Y019526D01*
X022355Y019548D01*
X022400Y019566D01*
X022446Y019580D01*
X022493Y019591D01*
X022541Y019598D01*
X022589Y019601D01*
X022637Y019600D01*
X022685Y019595D01*
X022733Y019586D01*
X022779Y019574D01*
X022824Y019557D01*
X022868Y019537D01*
X022910Y019514D01*
X022950Y019487D01*
X022988Y019457D01*
X023023Y019424D01*
X023055Y019388D01*
X023085Y019350D01*
X023111Y019309D01*
X023133Y019266D01*
X023153Y019222D01*
X023168Y019177D01*
X023180Y019130D01*
X023188Y019082D01*
X023192Y019034D01*
X023192Y018986D01*
X023188Y018938D01*
X023180Y018890D01*
X023168Y018843D01*
X023153Y018798D01*
X023133Y018754D01*
X023111Y018711D01*
X023085Y018670D01*
X023055Y018632D01*
X023023Y018596D01*
X022988Y018563D01*
X022950Y018533D01*
X022910Y018506D01*
X022868Y018483D01*
X022824Y018463D01*
X022779Y018446D01*
X022733Y018434D01*
X022685Y018425D01*
X022637Y018420D01*
X022589Y018419D01*
X022541Y018422D01*
X022493Y018429D01*
X022446Y018440D01*
X022400Y018454D01*
X022355Y018472D01*
X022312Y018494D01*
X022271Y018519D01*
X022233Y018548D01*
X022196Y018580D01*
X022162Y018614D01*
X022132Y018651D01*
X022104Y018690D01*
X022079Y018732D01*
X022059Y018776D01*
X022041Y018821D01*
X022028Y018867D01*
X022018Y018914D01*
X022012Y018962D01*
X022010Y019010D01*
X022020Y008341D02*
X022020Y008026D01*
X023890Y008026D01*
X023890Y004994D01*
X022020Y004994D01*
X022020Y004679D01*
X024461Y004679D01*
X023890Y004679D01*
X024461Y004679D02*
X024461Y005723D01*
X025307Y005723D01*
X025603Y005427D01*
X027099Y005427D01*
X027099Y005762D01*
X027561Y005762D01*
X027561Y007258D01*
X027099Y007258D01*
X027099Y007593D01*
X025603Y007593D01*
X025307Y007297D01*
X024461Y007297D01*
X024461Y008341D01*
X022020Y008341D01*
X023890Y008341D02*
X024461Y008341D01*
X022010Y001510D02*
X022012Y001558D01*
X022018Y001606D01*
X022028Y001653D01*
X022041Y001699D01*
X022059Y001744D01*
X022079Y001788D01*
X022104Y001830D01*
X022132Y001869D01*
X022162Y001906D01*
X022196Y001940D01*
X022233Y001972D01*
X022271Y002001D01*
X022312Y002026D01*
X022355Y002048D01*
X022400Y002066D01*
X022446Y002080D01*
X022493Y002091D01*
X022541Y002098D01*
X022589Y002101D01*
X022637Y002100D01*
X022685Y002095D01*
X022733Y002086D01*
X022779Y002074D01*
X022824Y002057D01*
X022868Y002037D01*
X022910Y002014D01*
X022950Y001987D01*
X022988Y001957D01*
X023023Y001924D01*
X023055Y001888D01*
X023085Y001850D01*
X023111Y001809D01*
X023133Y001766D01*
X023153Y001722D01*
X023168Y001677D01*
X023180Y001630D01*
X023188Y001582D01*
X023192Y001534D01*
X023192Y001486D01*
X023188Y001438D01*
X023180Y001390D01*
X023168Y001343D01*
X023153Y001298D01*
X023133Y001254D01*
X023111Y001211D01*
X023085Y001170D01*
X023055Y001132D01*
X023023Y001096D01*
X022988Y001063D01*
X022950Y001033D01*
X022910Y001006D01*
X022868Y000983D01*
X022824Y000963D01*
X022779Y000946D01*
X022733Y000934D01*
X022685Y000925D01*
X022637Y000920D01*
X022589Y000919D01*
X022541Y000922D01*
X022493Y000929D01*
X022446Y000940D01*
X022400Y000954D01*
X022355Y000972D01*
X022312Y000994D01*
X022271Y001019D01*
X022233Y001048D01*
X022196Y001080D01*
X022162Y001114D01*
X022132Y001151D01*
X022104Y001190D01*
X022079Y001232D01*
X022059Y001276D01*
X022041Y001321D01*
X022028Y001367D01*
X022018Y001414D01*
X022012Y001462D01*
X022010Y001510D01*
X004510Y001510D02*
X004512Y001558D01*
X004518Y001606D01*
X004528Y001653D01*
X004541Y001699D01*
X004559Y001744D01*
X004579Y001788D01*
X004604Y001830D01*
X004632Y001869D01*
X004662Y001906D01*
X004696Y001940D01*
X004733Y001972D01*
X004771Y002001D01*
X004812Y002026D01*
X004855Y002048D01*
X004900Y002066D01*
X004946Y002080D01*
X004993Y002091D01*
X005041Y002098D01*
X005089Y002101D01*
X005137Y002100D01*
X005185Y002095D01*
X005233Y002086D01*
X005279Y002074D01*
X005324Y002057D01*
X005368Y002037D01*
X005410Y002014D01*
X005450Y001987D01*
X005488Y001957D01*
X005523Y001924D01*
X005555Y001888D01*
X005585Y001850D01*
X005611Y001809D01*
X005633Y001766D01*
X005653Y001722D01*
X005668Y001677D01*
X005680Y001630D01*
X005688Y001582D01*
X005692Y001534D01*
X005692Y001486D01*
X005688Y001438D01*
X005680Y001390D01*
X005668Y001343D01*
X005653Y001298D01*
X005633Y001254D01*
X005611Y001211D01*
X005585Y001170D01*
X005555Y001132D01*
X005523Y001096D01*
X005488Y001063D01*
X005450Y001033D01*
X005410Y001006D01*
X005368Y000983D01*
X005324Y000963D01*
X005279Y000946D01*
X005233Y000934D01*
X005185Y000925D01*
X005137Y000920D01*
X005089Y000919D01*
X005041Y000922D01*
X004993Y000929D01*
X004946Y000940D01*
X004900Y000954D01*
X004855Y000972D01*
X004812Y000994D01*
X004771Y001019D01*
X004733Y001048D01*
X004696Y001080D01*
X004662Y001114D01*
X004632Y001151D01*
X004604Y001190D01*
X004579Y001232D01*
X004559Y001276D01*
X004541Y001321D01*
X004528Y001367D01*
X004518Y001414D01*
X004512Y001462D01*
X004510Y001510D01*
D13*
X012959Y009256D02*
X012961Y009272D01*
X012966Y009287D01*
X012975Y009301D01*
X012987Y009312D01*
X013001Y009320D01*
X013017Y009325D01*
X013033Y009326D01*
X013049Y009323D01*
X013064Y009317D01*
X013077Y009307D01*
X013087Y009294D01*
X013095Y009280D01*
X013099Y009264D01*
X013099Y009248D01*
X013095Y009232D01*
X013087Y009218D01*
X013077Y009205D01*
X013064Y009195D01*
X013049Y009189D01*
X013033Y009186D01*
X013017Y009187D01*
X013001Y009192D01*
X012987Y009200D01*
X012975Y009211D01*
X012966Y009225D01*
X012961Y009240D01*
X012959Y009256D01*
X008709Y010131D02*
X008711Y010147D01*
X008716Y010162D01*
X008725Y010176D01*
X008737Y010187D01*
X008751Y010195D01*
X008767Y010200D01*
X008783Y010201D01*
X008799Y010198D01*
X008814Y010192D01*
X008827Y010182D01*
X008837Y010169D01*
X008845Y010155D01*
X008849Y010139D01*
X008849Y010123D01*
X008845Y010107D01*
X008837Y010093D01*
X008827Y010080D01*
X008814Y010070D01*
X008799Y010064D01*
X008783Y010061D01*
X008767Y010062D01*
X008751Y010067D01*
X008737Y010075D01*
X008725Y010086D01*
X008716Y010100D01*
X008711Y010115D01*
X008709Y010131D01*
X018660Y006313D02*
X018662Y006329D01*
X018667Y006344D01*
X018676Y006358D01*
X018688Y006369D01*
X018702Y006377D01*
X018718Y006382D01*
X018734Y006383D01*
X018750Y006380D01*
X018765Y006374D01*
X018778Y006364D01*
X018788Y006351D01*
X018796Y006337D01*
X018800Y006321D01*
X018800Y006305D01*
X018796Y006289D01*
X018788Y006275D01*
X018778Y006262D01*
X018765Y006252D01*
X018750Y006246D01*
X018734Y006243D01*
X018718Y006244D01*
X018702Y006249D01*
X018688Y006257D01*
X018676Y006268D01*
X018667Y006282D01*
X018662Y006297D01*
X018660Y006313D01*
D14*
X018064Y006539D02*
X018064Y006731D01*
X017887Y006731D02*
X017887Y006539D01*
X017439Y006539D02*
X017439Y006731D01*
X017262Y006731D02*
X017262Y006539D01*
X020129Y006598D02*
X020322Y006598D01*
X020322Y006422D02*
X020129Y006422D01*
X020129Y006098D02*
X020322Y006098D01*
X020322Y005922D02*
X020129Y005922D01*
X020129Y005598D02*
X020322Y005598D01*
X020322Y005422D02*
X020129Y005422D01*
X020129Y006922D02*
X020322Y006922D01*
X020322Y007098D02*
X020129Y007098D01*
X020129Y007422D02*
X020322Y007422D01*
X020322Y007598D02*
X020129Y007598D01*
X013322Y008047D02*
X013129Y008047D01*
X013129Y008223D02*
X013322Y008223D01*
X012064Y008789D02*
X012064Y008981D01*
X011887Y008981D02*
X011887Y008789D01*
X011439Y008789D02*
X011439Y008981D01*
X011262Y008981D02*
X011262Y008789D01*
X010814Y008789D02*
X010814Y008981D01*
X010637Y008981D02*
X010637Y008789D01*
X010189Y008789D02*
X010189Y008981D01*
X010012Y008981D02*
X010012Y008789D01*
X010379Y008098D02*
X010572Y008098D01*
X010572Y007922D02*
X010379Y007922D01*
X009236Y007950D02*
X009236Y009070D01*
X008716Y009070D01*
X008716Y007950D01*
X009236Y007950D01*
X006991Y009715D02*
X006991Y010055D01*
X006710Y010055D02*
X006710Y009715D01*
X009129Y010797D02*
X009322Y010797D01*
X009322Y010973D02*
X009129Y010973D01*
X009129Y011297D02*
X009322Y011297D01*
X009322Y011473D02*
X009129Y011473D01*
X012879Y010473D02*
X013072Y010473D01*
X013072Y010297D02*
X012879Y010297D01*
X012879Y009973D02*
X013072Y009973D01*
X013072Y009797D02*
X012879Y009797D01*
X020129Y013922D02*
X020322Y013922D01*
X020322Y014098D02*
X020129Y014098D01*
X021451Y019010D02*
X021453Y019077D01*
X021459Y019145D01*
X021469Y019212D01*
X021483Y019278D01*
X021500Y019343D01*
X021522Y019407D01*
X021547Y019470D01*
X021576Y019531D01*
X021608Y019590D01*
X021644Y019647D01*
X021683Y019702D01*
X021725Y019755D01*
X021770Y019805D01*
X021818Y019852D01*
X021869Y019897D01*
X021922Y019938D01*
X021978Y019977D01*
X022036Y020012D01*
X022096Y020043D01*
X022157Y020071D01*
X022220Y020095D01*
X022284Y020116D01*
X022350Y020132D01*
X022416Y020145D01*
X022483Y020154D01*
X022550Y020159D01*
X022618Y020160D01*
X022685Y020157D01*
X022752Y020150D01*
X022819Y020139D01*
X022885Y020124D01*
X022950Y020106D01*
X023014Y020083D01*
X023076Y020057D01*
X023137Y020028D01*
X023195Y019994D01*
X023252Y019958D01*
X023307Y019918D01*
X023359Y019875D01*
X023408Y019829D01*
X023455Y019780D01*
X023499Y019729D01*
X023539Y019675D01*
X023577Y019619D01*
X023611Y019560D01*
X023641Y019500D01*
X023668Y019438D01*
X023692Y019375D01*
X023711Y019310D01*
X023727Y019245D01*
X023739Y019178D01*
X023747Y019111D01*
X023751Y019044D01*
X023751Y018976D01*
X023747Y018909D01*
X023739Y018842D01*
X023727Y018775D01*
X023711Y018710D01*
X023692Y018645D01*
X023668Y018582D01*
X023641Y018520D01*
X023611Y018460D01*
X023577Y018401D01*
X023539Y018345D01*
X023499Y018291D01*
X023455Y018240D01*
X023408Y018191D01*
X023359Y018145D01*
X023307Y018102D01*
X023252Y018062D01*
X023195Y018026D01*
X023137Y017992D01*
X023076Y017963D01*
X023014Y017937D01*
X022950Y017914D01*
X022885Y017896D01*
X022819Y017881D01*
X022752Y017870D01*
X022685Y017863D01*
X022618Y017860D01*
X022550Y017861D01*
X022483Y017866D01*
X022416Y017875D01*
X022350Y017888D01*
X022284Y017904D01*
X022220Y017925D01*
X022157Y017949D01*
X022096Y017977D01*
X022036Y018008D01*
X021978Y018043D01*
X021922Y018082D01*
X021869Y018123D01*
X021818Y018168D01*
X021770Y018215D01*
X021725Y018265D01*
X021683Y018318D01*
X021644Y018373D01*
X021608Y018430D01*
X021576Y018489D01*
X021547Y018550D01*
X021522Y018613D01*
X021500Y018677D01*
X021483Y018742D01*
X021469Y018808D01*
X021459Y018875D01*
X021453Y018943D01*
X021451Y019010D01*
X003951Y019010D02*
X003953Y019077D01*
X003959Y019145D01*
X003969Y019212D01*
X003983Y019278D01*
X004000Y019343D01*
X004022Y019407D01*
X004047Y019470D01*
X004076Y019531D01*
X004108Y019590D01*
X004144Y019647D01*
X004183Y019702D01*
X004225Y019755D01*
X004270Y019805D01*
X004318Y019852D01*
X004369Y019897D01*
X004422Y019938D01*
X004478Y019977D01*
X004536Y020012D01*
X004596Y020043D01*
X004657Y020071D01*
X004720Y020095D01*
X004784Y020116D01*
X004850Y020132D01*
X004916Y020145D01*
X004983Y020154D01*
X005050Y020159D01*
X005118Y020160D01*
X005185Y020157D01*
X005252Y020150D01*
X005319Y020139D01*
X005385Y020124D01*
X005450Y020106D01*
X005514Y020083D01*
X005576Y020057D01*
X005637Y020028D01*
X005695Y019994D01*
X005752Y019958D01*
X005807Y019918D01*
X005859Y019875D01*
X005908Y019829D01*
X005955Y019780D01*
X005999Y019729D01*
X006039Y019675D01*
X006077Y019619D01*
X006111Y019560D01*
X006141Y019500D01*
X006168Y019438D01*
X006192Y019375D01*
X006211Y019310D01*
X006227Y019245D01*
X006239Y019178D01*
X006247Y019111D01*
X006251Y019044D01*
X006251Y018976D01*
X006247Y018909D01*
X006239Y018842D01*
X006227Y018775D01*
X006211Y018710D01*
X006192Y018645D01*
X006168Y018582D01*
X006141Y018520D01*
X006111Y018460D01*
X006077Y018401D01*
X006039Y018345D01*
X005999Y018291D01*
X005955Y018240D01*
X005908Y018191D01*
X005859Y018145D01*
X005807Y018102D01*
X005752Y018062D01*
X005695Y018026D01*
X005637Y017992D01*
X005576Y017963D01*
X005514Y017937D01*
X005450Y017914D01*
X005385Y017896D01*
X005319Y017881D01*
X005252Y017870D01*
X005185Y017863D01*
X005118Y017860D01*
X005050Y017861D01*
X004983Y017866D01*
X004916Y017875D01*
X004850Y017888D01*
X004784Y017904D01*
X004720Y017925D01*
X004657Y017949D01*
X004596Y017977D01*
X004536Y018008D01*
X004478Y018043D01*
X004422Y018082D01*
X004369Y018123D01*
X004318Y018168D01*
X004270Y018215D01*
X004225Y018265D01*
X004183Y018318D01*
X004144Y018373D01*
X004108Y018430D01*
X004076Y018489D01*
X004047Y018550D01*
X004022Y018613D01*
X004000Y018677D01*
X003983Y018742D01*
X003969Y018808D01*
X003959Y018875D01*
X003953Y018943D01*
X003951Y019010D01*
X003951Y001510D02*
X003953Y001577D01*
X003959Y001645D01*
X003969Y001712D01*
X003983Y001778D01*
X004000Y001843D01*
X004022Y001907D01*
X004047Y001970D01*
X004076Y002031D01*
X004108Y002090D01*
X004144Y002147D01*
X004183Y002202D01*
X004225Y002255D01*
X004270Y002305D01*
X004318Y002352D01*
X004369Y002397D01*
X004422Y002438D01*
X004478Y002477D01*
X004536Y002512D01*
X004596Y002543D01*
X004657Y002571D01*
X004720Y002595D01*
X004784Y002616D01*
X004850Y002632D01*
X004916Y002645D01*
X004983Y002654D01*
X005050Y002659D01*
X005118Y002660D01*
X005185Y002657D01*
X005252Y002650D01*
X005319Y002639D01*
X005385Y002624D01*
X005450Y002606D01*
X005514Y002583D01*
X005576Y002557D01*
X005637Y002528D01*
X005695Y002494D01*
X005752Y002458D01*
X005807Y002418D01*
X005859Y002375D01*
X005908Y002329D01*
X005955Y002280D01*
X005999Y002229D01*
X006039Y002175D01*
X006077Y002119D01*
X006111Y002060D01*
X006141Y002000D01*
X006168Y001938D01*
X006192Y001875D01*
X006211Y001810D01*
X006227Y001745D01*
X006239Y001678D01*
X006247Y001611D01*
X006251Y001544D01*
X006251Y001476D01*
X006247Y001409D01*
X006239Y001342D01*
X006227Y001275D01*
X006211Y001210D01*
X006192Y001145D01*
X006168Y001082D01*
X006141Y001020D01*
X006111Y000960D01*
X006077Y000901D01*
X006039Y000845D01*
X005999Y000791D01*
X005955Y000740D01*
X005908Y000691D01*
X005859Y000645D01*
X005807Y000602D01*
X005752Y000562D01*
X005695Y000526D01*
X005637Y000492D01*
X005576Y000463D01*
X005514Y000437D01*
X005450Y000414D01*
X005385Y000396D01*
X005319Y000381D01*
X005252Y000370D01*
X005185Y000363D01*
X005118Y000360D01*
X005050Y000361D01*
X004983Y000366D01*
X004916Y000375D01*
X004850Y000388D01*
X004784Y000404D01*
X004720Y000425D01*
X004657Y000449D01*
X004596Y000477D01*
X004536Y000508D01*
X004478Y000543D01*
X004422Y000582D01*
X004369Y000623D01*
X004318Y000668D01*
X004270Y000715D01*
X004225Y000765D01*
X004183Y000818D01*
X004144Y000873D01*
X004108Y000930D01*
X004076Y000989D01*
X004047Y001050D01*
X004022Y001113D01*
X004000Y001177D01*
X003983Y001242D01*
X003969Y001308D01*
X003959Y001375D01*
X003953Y001443D01*
X003951Y001510D01*
X021451Y001510D02*
X021453Y001577D01*
X021459Y001645D01*
X021469Y001712D01*
X021483Y001778D01*
X021500Y001843D01*
X021522Y001907D01*
X021547Y001970D01*
X021576Y002031D01*
X021608Y002090D01*
X021644Y002147D01*
X021683Y002202D01*
X021725Y002255D01*
X021770Y002305D01*
X021818Y002352D01*
X021869Y002397D01*
X021922Y002438D01*
X021978Y002477D01*
X022036Y002512D01*
X022096Y002543D01*
X022157Y002571D01*
X022220Y002595D01*
X022284Y002616D01*
X022350Y002632D01*
X022416Y002645D01*
X022483Y002654D01*
X022550Y002659D01*
X022618Y002660D01*
X022685Y002657D01*
X022752Y002650D01*
X022819Y002639D01*
X022885Y002624D01*
X022950Y002606D01*
X023014Y002583D01*
X023076Y002557D01*
X023137Y002528D01*
X023195Y002494D01*
X023252Y002458D01*
X023307Y002418D01*
X023359Y002375D01*
X023408Y002329D01*
X023455Y002280D01*
X023499Y002229D01*
X023539Y002175D01*
X023577Y002119D01*
X023611Y002060D01*
X023641Y002000D01*
X023668Y001938D01*
X023692Y001875D01*
X023711Y001810D01*
X023727Y001745D01*
X023739Y001678D01*
X023747Y001611D01*
X023751Y001544D01*
X023751Y001476D01*
X023747Y001409D01*
X023739Y001342D01*
X023727Y001275D01*
X023711Y001210D01*
X023692Y001145D01*
X023668Y001082D01*
X023641Y001020D01*
X023611Y000960D01*
X023577Y000901D01*
X023539Y000845D01*
X023499Y000791D01*
X023455Y000740D01*
X023408Y000691D01*
X023359Y000645D01*
X023307Y000602D01*
X023252Y000562D01*
X023195Y000526D01*
X023137Y000492D01*
X023076Y000463D01*
X023014Y000437D01*
X022950Y000414D01*
X022885Y000396D01*
X022819Y000381D01*
X022752Y000370D01*
X022685Y000363D01*
X022618Y000360D01*
X022550Y000361D01*
X022483Y000366D01*
X022416Y000375D01*
X022350Y000388D01*
X022284Y000404D01*
X022220Y000425D01*
X022157Y000449D01*
X022096Y000477D01*
X022036Y000508D01*
X021978Y000543D01*
X021922Y000582D01*
X021869Y000623D01*
X021818Y000668D01*
X021770Y000715D01*
X021725Y000765D01*
X021683Y000818D01*
X021644Y000873D01*
X021608Y000930D01*
X021576Y000989D01*
X021547Y001050D01*
X021522Y001113D01*
X021500Y001177D01*
X021483Y001242D01*
X021469Y001308D01*
X021459Y001375D01*
X021453Y001443D01*
X021451Y001510D01*
D15*
X009371Y008510D03*
X008581Y008140D03*
X008581Y008880D03*
D16*
X010103Y008726D03*
X010103Y009046D03*
X010728Y009046D03*
X010728Y008726D03*
X011349Y008724D03*
X011349Y009044D03*
X011978Y009046D03*
X011978Y008726D03*
X017349Y006794D03*
X017349Y006474D03*
X017974Y006474D03*
X017974Y006794D03*
D17*
X020065Y007012D03*
X020385Y007012D03*
X020385Y007512D03*
X020065Y007512D03*
X020065Y006512D03*
X020385Y006512D03*
X020385Y006012D03*
X020065Y006012D03*
X020065Y005512D03*
X020385Y005512D03*
X013387Y008133D03*
X013067Y008133D03*
X013137Y009883D03*
X012817Y009883D03*
X012817Y010383D03*
X013137Y010383D03*
X010637Y008008D03*
X010317Y008008D03*
X009385Y010887D03*
X009065Y010887D03*
X009065Y011387D03*
X009385Y011387D03*
X020065Y014012D03*
X020385Y014012D03*
D18*
X013851Y019468D03*
D19*
X023058Y014010D03*
X023058Y006510D03*
X004643Y010260D03*
D20*
X009543Y007536D02*
X009543Y006984D01*
X010409Y006984D01*
X010409Y007536D01*
X009543Y007536D01*
D21*
X009356Y007250D03*
X010596Y007250D03*
D22*
X009739Y007270D03*
D23*
X006851Y009635D03*
X006851Y010135D03*
D24*
X005101Y002660D02*
X005101Y002560D01*
X005101Y000460D02*
X005101Y000360D01*
X022601Y000460D02*
X022601Y000360D01*
X022601Y002560D02*
X022601Y002660D01*
X022601Y017860D02*
X022601Y017960D01*
X022601Y020060D02*
X022601Y020160D01*
X005101Y020160D02*
X005101Y020060D01*
X005101Y017960D02*
X005101Y017860D01*
D25*
X006205Y019054D02*
X005392Y019054D01*
X005393Y019055D02*
X005385Y019088D01*
X005375Y019120D01*
X005360Y019151D01*
X005342Y019180D01*
X005321Y019206D01*
X005297Y019230D01*
X005271Y019251D01*
X005242Y019269D01*
X005211Y019284D01*
X005179Y019294D01*
X005146Y019302D01*
X005145Y020114D01*
X005146Y020114D01*
X005212Y020109D01*
X005277Y020101D01*
X005342Y020089D01*
X005405Y020072D01*
X005468Y020052D01*
X005529Y020029D01*
X005589Y020001D01*
X005647Y019970D01*
X005704Y019936D01*
X005758Y019899D01*
X005810Y019858D01*
X005859Y019814D01*
X005905Y019768D01*
X005949Y019719D01*
X005990Y019667D01*
X006027Y019613D01*
X006061Y019556D01*
X006092Y019498D01*
X006120Y019438D01*
X006143Y019377D01*
X006163Y019314D01*
X006180Y019251D01*
X006192Y019186D01*
X006200Y019121D01*
X006205Y019055D01*
X006120Y019055D01*
X006115Y019118D01*
X006107Y019180D01*
X006094Y019242D01*
X006078Y019303D01*
X006058Y019363D01*
X006035Y019421D01*
X006007Y019478D01*
X005977Y019533D01*
X005943Y019586D01*
X005906Y019637D01*
X005865Y019685D01*
X005822Y019731D01*
X005776Y019774D01*
X005728Y019815D01*
X005677Y019852D01*
X005624Y019886D01*
X005569Y019916D01*
X005512Y019944D01*
X005454Y019967D01*
X005394Y019987D01*
X005333Y020003D01*
X005271Y020016D01*
X005209Y020024D01*
X005146Y020029D01*
X005146Y019944D01*
X005206Y019939D01*
X005265Y019930D01*
X005324Y019918D01*
X005381Y019902D01*
X005438Y019882D01*
X005493Y019859D01*
X005547Y019832D01*
X005598Y019802D01*
X005648Y019768D01*
X005696Y019732D01*
X005741Y019692D01*
X005783Y019650D01*
X005823Y019605D01*
X005859Y019557D01*
X005893Y019507D01*
X005923Y019456D01*
X005950Y019402D01*
X005973Y019347D01*
X005993Y019290D01*
X006009Y019233D01*
X006021Y019174D01*
X006030Y019115D01*
X006035Y019055D01*
X005950Y019055D01*
X005945Y019111D01*
X005936Y019167D01*
X005924Y019223D01*
X005908Y019277D01*
X005888Y019330D01*
X005865Y019382D01*
X005839Y019432D01*
X005809Y019480D01*
X005777Y019526D01*
X005741Y019570D01*
X005702Y019611D01*
X005661Y019650D01*
X005617Y019686D01*
X005571Y019718D01*
X005523Y019748D01*
X005473Y019774D01*
X005421Y019797D01*
X005368Y019817D01*
X005314Y019833D01*
X005258Y019845D01*
X005202Y019854D01*
X005146Y019859D01*
X005146Y019774D01*
X005199Y019769D01*
X005251Y019760D01*
X005302Y019748D01*
X005353Y019732D01*
X005402Y019713D01*
X005450Y019691D01*
X005496Y019665D01*
X005541Y019636D01*
X005583Y019604D01*
X005623Y019569D01*
X005660Y019532D01*
X005695Y019492D01*
X005727Y019450D01*
X005756Y019405D01*
X005782Y019359D01*
X005804Y019311D01*
X005823Y019262D01*
X005839Y019211D01*
X005851Y019160D01*
X005860Y019108D01*
X005865Y019055D01*
X005780Y019055D01*
X005774Y019106D01*
X005765Y019157D01*
X005752Y019207D01*
X005735Y019255D01*
X005715Y019303D01*
X005691Y019348D01*
X005664Y019392D01*
X005633Y019433D01*
X005600Y019472D01*
X005563Y019509D01*
X005524Y019542D01*
X005483Y019573D01*
X005439Y019600D01*
X005394Y019624D01*
X005346Y019644D01*
X005298Y019661D01*
X005248Y019674D01*
X005197Y019683D01*
X005146Y019689D01*
X005146Y019603D01*
X005193Y019598D01*
X005239Y019589D01*
X005284Y019576D01*
X005328Y019560D01*
X005370Y019540D01*
X005411Y019518D01*
X005450Y019492D01*
X005487Y019463D01*
X005522Y019431D01*
X005554Y019396D01*
X005583Y019359D01*
X005609Y019320D01*
X005631Y019279D01*
X005651Y019237D01*
X005667Y019193D01*
X005680Y019148D01*
X005689Y019102D01*
X005694Y019055D01*
X005609Y019055D01*
X005603Y019099D01*
X005594Y019142D01*
X005580Y019185D01*
X005563Y019226D01*
X005543Y019265D01*
X005519Y019303D01*
X005492Y019338D01*
X005462Y019371D01*
X005429Y019401D01*
X005394Y019428D01*
X005356Y019452D01*
X005317Y019472D01*
X005276Y019489D01*
X005233Y019503D01*
X005190Y019512D01*
X005146Y019518D01*
X005146Y019433D01*
X005184Y019427D01*
X005221Y019418D01*
X005258Y019405D01*
X005293Y019389D01*
X005326Y019370D01*
X005358Y019348D01*
X005388Y019324D01*
X005415Y019297D01*
X005439Y019267D01*
X005461Y019235D01*
X005480Y019202D01*
X005496Y019167D01*
X005509Y019130D01*
X005518Y019093D01*
X005524Y019055D01*
X005438Y019055D01*
X005432Y019088D01*
X005422Y019121D01*
X005410Y019153D01*
X005394Y019183D01*
X005375Y019212D01*
X005353Y019238D01*
X005329Y019262D01*
X005303Y019284D01*
X005274Y019303D01*
X005244Y019319D01*
X005212Y019331D01*
X005179Y019341D01*
X005146Y019347D01*
X003997Y018966D02*
X004810Y018966D01*
X004809Y018965D02*
X004817Y018932D01*
X004827Y018900D01*
X004842Y018869D01*
X004860Y018840D01*
X004881Y018814D01*
X004905Y018790D01*
X004931Y018769D01*
X004960Y018751D01*
X004991Y018736D01*
X005023Y018726D01*
X005056Y018718D01*
X005057Y017906D01*
X005056Y017906D01*
X004990Y017911D01*
X004925Y017919D01*
X004860Y017931D01*
X004797Y017948D01*
X004734Y017968D01*
X004673Y017991D01*
X004613Y018019D01*
X004555Y018050D01*
X004498Y018084D01*
X004444Y018121D01*
X004392Y018162D01*
X004343Y018206D01*
X004297Y018252D01*
X004253Y018301D01*
X004212Y018353D01*
X004175Y018407D01*
X004141Y018464D01*
X004110Y018522D01*
X004082Y018582D01*
X004059Y018643D01*
X004039Y018706D01*
X004022Y018769D01*
X004010Y018834D01*
X004002Y018899D01*
X003997Y018965D01*
X004082Y018965D01*
X004087Y018902D01*
X004095Y018840D01*
X004108Y018778D01*
X004124Y018717D01*
X004144Y018657D01*
X004167Y018599D01*
X004195Y018542D01*
X004225Y018487D01*
X004259Y018434D01*
X004296Y018383D01*
X004337Y018335D01*
X004380Y018289D01*
X004426Y018246D01*
X004474Y018205D01*
X004525Y018168D01*
X004578Y018134D01*
X004633Y018104D01*
X004690Y018076D01*
X004748Y018053D01*
X004808Y018033D01*
X004869Y018017D01*
X004931Y018004D01*
X004993Y017996D01*
X005056Y017991D01*
X005056Y018076D01*
X004996Y018081D01*
X004937Y018090D01*
X004878Y018102D01*
X004821Y018118D01*
X004764Y018138D01*
X004709Y018161D01*
X004655Y018188D01*
X004604Y018218D01*
X004554Y018252D01*
X004506Y018288D01*
X004461Y018328D01*
X004419Y018370D01*
X004379Y018415D01*
X004343Y018463D01*
X004309Y018513D01*
X004279Y018564D01*
X004252Y018618D01*
X004229Y018673D01*
X004209Y018730D01*
X004193Y018787D01*
X004181Y018846D01*
X004172Y018905D01*
X004167Y018965D01*
X004252Y018965D01*
X004257Y018909D01*
X004266Y018853D01*
X004278Y018797D01*
X004294Y018743D01*
X004314Y018690D01*
X004337Y018638D01*
X004363Y018588D01*
X004393Y018540D01*
X004425Y018494D01*
X004461Y018450D01*
X004500Y018409D01*
X004541Y018370D01*
X004585Y018334D01*
X004631Y018302D01*
X004679Y018272D01*
X004729Y018246D01*
X004781Y018223D01*
X004834Y018203D01*
X004888Y018187D01*
X004944Y018175D01*
X005000Y018166D01*
X005056Y018161D01*
X005056Y018246D01*
X005003Y018251D01*
X004951Y018260D01*
X004900Y018272D01*
X004849Y018288D01*
X004800Y018307D01*
X004752Y018329D01*
X004706Y018355D01*
X004661Y018384D01*
X004619Y018416D01*
X004579Y018451D01*
X004542Y018488D01*
X004507Y018528D01*
X004475Y018570D01*
X004446Y018615D01*
X004420Y018661D01*
X004398Y018709D01*
X004379Y018758D01*
X004363Y018809D01*
X004351Y018860D01*
X004342Y018912D01*
X004337Y018965D01*
X004422Y018965D01*
X004428Y018914D01*
X004437Y018863D01*
X004450Y018813D01*
X004467Y018765D01*
X004487Y018717D01*
X004511Y018672D01*
X004538Y018628D01*
X004569Y018587D01*
X004602Y018548D01*
X004639Y018511D01*
X004678Y018478D01*
X004719Y018447D01*
X004763Y018420D01*
X004808Y018396D01*
X004856Y018376D01*
X004904Y018359D01*
X004954Y018346D01*
X005005Y018337D01*
X005056Y018331D01*
X005056Y018417D01*
X005009Y018422D01*
X004963Y018431D01*
X004918Y018444D01*
X004874Y018460D01*
X004832Y018480D01*
X004791Y018502D01*
X004752Y018528D01*
X004715Y018557D01*
X004680Y018589D01*
X004648Y018624D01*
X004619Y018661D01*
X004593Y018700D01*
X004571Y018741D01*
X004551Y018783D01*
X004535Y018827D01*
X004522Y018872D01*
X004513Y018918D01*
X004508Y018965D01*
X004593Y018965D01*
X004599Y018921D01*
X004608Y018878D01*
X004622Y018835D01*
X004639Y018794D01*
X004659Y018755D01*
X004683Y018717D01*
X004710Y018682D01*
X004740Y018649D01*
X004773Y018619D01*
X004808Y018592D01*
X004846Y018568D01*
X004885Y018548D01*
X004926Y018531D01*
X004969Y018517D01*
X005012Y018508D01*
X005056Y018502D01*
X005056Y018587D01*
X005018Y018593D01*
X004981Y018602D01*
X004944Y018615D01*
X004909Y018631D01*
X004876Y018650D01*
X004844Y018672D01*
X004814Y018696D01*
X004787Y018723D01*
X004763Y018753D01*
X004741Y018785D01*
X004722Y018818D01*
X004706Y018853D01*
X004693Y018890D01*
X004684Y018927D01*
X004678Y018965D01*
X004764Y018965D01*
X004770Y018932D01*
X004780Y018899D01*
X004792Y018867D01*
X004808Y018837D01*
X004827Y018808D01*
X004849Y018782D01*
X004873Y018758D01*
X004899Y018736D01*
X004928Y018717D01*
X004958Y018701D01*
X004990Y018689D01*
X005023Y018679D01*
X005056Y018673D01*
X023705Y019054D02*
X022892Y019054D01*
X022893Y019055D02*
X022885Y019088D01*
X022875Y019120D01*
X022860Y019151D01*
X022842Y019180D01*
X022821Y019206D01*
X022797Y019230D01*
X022771Y019251D01*
X022742Y019269D01*
X022711Y019284D01*
X022679Y019294D01*
X022646Y019302D01*
X022645Y020114D01*
X022646Y020114D01*
X022712Y020109D01*
X022777Y020101D01*
X022842Y020089D01*
X022905Y020072D01*
X022968Y020052D01*
X023029Y020029D01*
X023089Y020001D01*
X023147Y019970D01*
X023204Y019936D01*
X023258Y019899D01*
X023310Y019858D01*
X023359Y019814D01*
X023405Y019768D01*
X023449Y019719D01*
X023490Y019667D01*
X023527Y019613D01*
X023561Y019556D01*
X023592Y019498D01*
X023620Y019438D01*
X023643Y019377D01*
X023663Y019314D01*
X023680Y019251D01*
X023692Y019186D01*
X023700Y019121D01*
X023705Y019055D01*
X023620Y019055D01*
X023615Y019118D01*
X023607Y019180D01*
X023594Y019242D01*
X023578Y019303D01*
X023558Y019363D01*
X023535Y019421D01*
X023507Y019478D01*
X023477Y019533D01*
X023443Y019586D01*
X023406Y019637D01*
X023365Y019685D01*
X023322Y019731D01*
X023276Y019774D01*
X023228Y019815D01*
X023177Y019852D01*
X023124Y019886D01*
X023069Y019916D01*
X023012Y019944D01*
X022954Y019967D01*
X022894Y019987D01*
X022833Y020003D01*
X022771Y020016D01*
X022709Y020024D01*
X022646Y020029D01*
X022646Y019944D01*
X022706Y019939D01*
X022765Y019930D01*
X022824Y019918D01*
X022881Y019902D01*
X022938Y019882D01*
X022993Y019859D01*
X023047Y019832D01*
X023098Y019802D01*
X023148Y019768D01*
X023196Y019732D01*
X023241Y019692D01*
X023283Y019650D01*
X023323Y019605D01*
X023359Y019557D01*
X023393Y019507D01*
X023423Y019456D01*
X023450Y019402D01*
X023473Y019347D01*
X023493Y019290D01*
X023509Y019233D01*
X023521Y019174D01*
X023530Y019115D01*
X023535Y019055D01*
X023450Y019055D01*
X023445Y019111D01*
X023436Y019167D01*
X023424Y019223D01*
X023408Y019277D01*
X023388Y019330D01*
X023365Y019382D01*
X023339Y019432D01*
X023309Y019480D01*
X023277Y019526D01*
X023241Y019570D01*
X023202Y019611D01*
X023161Y019650D01*
X023117Y019686D01*
X023071Y019718D01*
X023023Y019748D01*
X022973Y019774D01*
X022921Y019797D01*
X022868Y019817D01*
X022814Y019833D01*
X022758Y019845D01*
X022702Y019854D01*
X022646Y019859D01*
X022646Y019774D01*
X022699Y019769D01*
X022751Y019760D01*
X022802Y019748D01*
X022853Y019732D01*
X022902Y019713D01*
X022950Y019691D01*
X022996Y019665D01*
X023041Y019636D01*
X023083Y019604D01*
X023123Y019569D01*
X023160Y019532D01*
X023195Y019492D01*
X023227Y019450D01*
X023256Y019405D01*
X023282Y019359D01*
X023304Y019311D01*
X023323Y019262D01*
X023339Y019211D01*
X023351Y019160D01*
X023360Y019108D01*
X023365Y019055D01*
X023280Y019055D01*
X023274Y019106D01*
X023265Y019157D01*
X023252Y019207D01*
X023235Y019255D01*
X023215Y019303D01*
X023191Y019348D01*
X023164Y019392D01*
X023133Y019433D01*
X023100Y019472D01*
X023063Y019509D01*
X023024Y019542D01*
X022983Y019573D01*
X022939Y019600D01*
X022894Y019624D01*
X022846Y019644D01*
X022798Y019661D01*
X022748Y019674D01*
X022697Y019683D01*
X022646Y019689D01*
X022646Y019603D01*
X022693Y019598D01*
X022739Y019589D01*
X022784Y019576D01*
X022828Y019560D01*
X022870Y019540D01*
X022911Y019518D01*
X022950Y019492D01*
X022987Y019463D01*
X023022Y019431D01*
X023054Y019396D01*
X023083Y019359D01*
X023109Y019320D01*
X023131Y019279D01*
X023151Y019237D01*
X023167Y019193D01*
X023180Y019148D01*
X023189Y019102D01*
X023194Y019055D01*
X023109Y019055D01*
X023103Y019099D01*
X023094Y019142D01*
X023080Y019185D01*
X023063Y019226D01*
X023043Y019265D01*
X023019Y019303D01*
X022992Y019338D01*
X022962Y019371D01*
X022929Y019401D01*
X022894Y019428D01*
X022856Y019452D01*
X022817Y019472D01*
X022776Y019489D01*
X022733Y019503D01*
X022690Y019512D01*
X022646Y019518D01*
X022646Y019433D01*
X022684Y019427D01*
X022721Y019418D01*
X022758Y019405D01*
X022793Y019389D01*
X022826Y019370D01*
X022858Y019348D01*
X022888Y019324D01*
X022915Y019297D01*
X022939Y019267D01*
X022961Y019235D01*
X022980Y019202D01*
X022996Y019167D01*
X023009Y019130D01*
X023018Y019093D01*
X023024Y019055D01*
X022938Y019055D01*
X022932Y019088D01*
X022922Y019121D01*
X022910Y019153D01*
X022894Y019183D01*
X022875Y019212D01*
X022853Y019238D01*
X022829Y019262D01*
X022803Y019284D01*
X022774Y019303D01*
X022744Y019319D01*
X022712Y019331D01*
X022679Y019341D01*
X022646Y019347D01*
X021497Y018966D02*
X022310Y018966D01*
X022309Y018965D02*
X022317Y018932D01*
X022327Y018900D01*
X022342Y018869D01*
X022360Y018840D01*
X022381Y018814D01*
X022405Y018790D01*
X022431Y018769D01*
X022460Y018751D01*
X022491Y018736D01*
X022523Y018726D01*
X022556Y018718D01*
X022557Y017906D01*
X022556Y017906D01*
X022490Y017911D01*
X022425Y017919D01*
X022360Y017931D01*
X022297Y017948D01*
X022234Y017968D01*
X022173Y017991D01*
X022113Y018019D01*
X022055Y018050D01*
X021998Y018084D01*
X021944Y018121D01*
X021892Y018162D01*
X021843Y018206D01*
X021797Y018252D01*
X021753Y018301D01*
X021712Y018353D01*
X021675Y018407D01*
X021641Y018464D01*
X021610Y018522D01*
X021582Y018582D01*
X021559Y018643D01*
X021539Y018706D01*
X021522Y018769D01*
X021510Y018834D01*
X021502Y018899D01*
X021497Y018965D01*
X021582Y018965D01*
X021587Y018902D01*
X021595Y018840D01*
X021608Y018778D01*
X021624Y018717D01*
X021644Y018657D01*
X021667Y018599D01*
X021695Y018542D01*
X021725Y018487D01*
X021759Y018434D01*
X021796Y018383D01*
X021837Y018335D01*
X021880Y018289D01*
X021926Y018246D01*
X021974Y018205D01*
X022025Y018168D01*
X022078Y018134D01*
X022133Y018104D01*
X022190Y018076D01*
X022248Y018053D01*
X022308Y018033D01*
X022369Y018017D01*
X022431Y018004D01*
X022493Y017996D01*
X022556Y017991D01*
X022556Y018076D01*
X022496Y018081D01*
X022437Y018090D01*
X022378Y018102D01*
X022321Y018118D01*
X022264Y018138D01*
X022209Y018161D01*
X022155Y018188D01*
X022104Y018218D01*
X022054Y018252D01*
X022006Y018288D01*
X021961Y018328D01*
X021919Y018370D01*
X021879Y018415D01*
X021843Y018463D01*
X021809Y018513D01*
X021779Y018564D01*
X021752Y018618D01*
X021729Y018673D01*
X021709Y018730D01*
X021693Y018787D01*
X021681Y018846D01*
X021672Y018905D01*
X021667Y018965D01*
X021752Y018965D01*
X021757Y018909D01*
X021766Y018853D01*
X021778Y018797D01*
X021794Y018743D01*
X021814Y018690D01*
X021837Y018638D01*
X021863Y018588D01*
X021893Y018540D01*
X021925Y018494D01*
X021961Y018450D01*
X022000Y018409D01*
X022041Y018370D01*
X022085Y018334D01*
X022131Y018302D01*
X022179Y018272D01*
X022229Y018246D01*
X022281Y018223D01*
X022334Y018203D01*
X022388Y018187D01*
X022444Y018175D01*
X022500Y018166D01*
X022556Y018161D01*
X022556Y018246D01*
X022503Y018251D01*
X022451Y018260D01*
X022400Y018272D01*
X022349Y018288D01*
X022300Y018307D01*
X022252Y018329D01*
X022206Y018355D01*
X022161Y018384D01*
X022119Y018416D01*
X022079Y018451D01*
X022042Y018488D01*
X022007Y018528D01*
X021975Y018570D01*
X021946Y018615D01*
X021920Y018661D01*
X021898Y018709D01*
X021879Y018758D01*
X021863Y018809D01*
X021851Y018860D01*
X021842Y018912D01*
X021837Y018965D01*
X021922Y018965D01*
X021928Y018914D01*
X021937Y018863D01*
X021950Y018813D01*
X021967Y018765D01*
X021987Y018717D01*
X022011Y018672D01*
X022038Y018628D01*
X022069Y018587D01*
X022102Y018548D01*
X022139Y018511D01*
X022178Y018478D01*
X022219Y018447D01*
X022263Y018420D01*
X022308Y018396D01*
X022356Y018376D01*
X022404Y018359D01*
X022454Y018346D01*
X022505Y018337D01*
X022556Y018331D01*
X022556Y018417D01*
X022509Y018422D01*
X022463Y018431D01*
X022418Y018444D01*
X022374Y018460D01*
X022332Y018480D01*
X022291Y018502D01*
X022252Y018528D01*
X022215Y018557D01*
X022180Y018589D01*
X022148Y018624D01*
X022119Y018661D01*
X022093Y018700D01*
X022071Y018741D01*
X022051Y018783D01*
X022035Y018827D01*
X022022Y018872D01*
X022013Y018918D01*
X022008Y018965D01*
X022093Y018965D01*
X022099Y018921D01*
X022108Y018878D01*
X022122Y018835D01*
X022139Y018794D01*
X022159Y018755D01*
X022183Y018717D01*
X022210Y018682D01*
X022240Y018649D01*
X022273Y018619D01*
X022308Y018592D01*
X022346Y018568D01*
X022385Y018548D01*
X022426Y018531D01*
X022469Y018517D01*
X022512Y018508D01*
X022556Y018502D01*
X022556Y018587D01*
X022518Y018593D01*
X022481Y018602D01*
X022444Y018615D01*
X022409Y018631D01*
X022376Y018650D01*
X022344Y018672D01*
X022314Y018696D01*
X022287Y018723D01*
X022263Y018753D01*
X022241Y018785D01*
X022222Y018818D01*
X022206Y018853D01*
X022193Y018890D01*
X022184Y018927D01*
X022178Y018965D01*
X022264Y018965D01*
X022270Y018932D01*
X022280Y018899D01*
X022292Y018867D01*
X022308Y018837D01*
X022327Y018808D01*
X022349Y018782D01*
X022373Y018758D01*
X022399Y018736D01*
X022428Y018717D01*
X022458Y018701D01*
X022490Y018689D01*
X022523Y018679D01*
X022556Y018673D01*
X023705Y001554D02*
X022892Y001554D01*
X022893Y001555D02*
X022885Y001588D01*
X022875Y001620D01*
X022860Y001651D01*
X022842Y001680D01*
X022821Y001706D01*
X022797Y001730D01*
X022771Y001751D01*
X022742Y001769D01*
X022711Y001784D01*
X022679Y001794D01*
X022646Y001802D01*
X022645Y002614D01*
X022646Y002614D01*
X022712Y002609D01*
X022777Y002601D01*
X022842Y002589D01*
X022905Y002572D01*
X022968Y002552D01*
X023029Y002529D01*
X023089Y002501D01*
X023147Y002470D01*
X023204Y002436D01*
X023258Y002399D01*
X023310Y002358D01*
X023359Y002314D01*
X023405Y002268D01*
X023449Y002219D01*
X023490Y002167D01*
X023527Y002113D01*
X023561Y002056D01*
X023592Y001998D01*
X023620Y001938D01*
X023643Y001877D01*
X023663Y001814D01*
X023680Y001751D01*
X023692Y001686D01*
X023700Y001621D01*
X023705Y001555D01*
X023620Y001555D01*
X023615Y001618D01*
X023607Y001680D01*
X023594Y001742D01*
X023578Y001803D01*
X023558Y001863D01*
X023535Y001921D01*
X023507Y001978D01*
X023477Y002033D01*
X023443Y002086D01*
X023406Y002137D01*
X023365Y002185D01*
X023322Y002231D01*
X023276Y002274D01*
X023228Y002315D01*
X023177Y002352D01*
X023124Y002386D01*
X023069Y002416D01*
X023012Y002444D01*
X022954Y002467D01*
X022894Y002487D01*
X022833Y002503D01*
X022771Y002516D01*
X022709Y002524D01*
X022646Y002529D01*
X022646Y002444D01*
X022706Y002439D01*
X022765Y002430D01*
X022824Y002418D01*
X022881Y002402D01*
X022938Y002382D01*
X022993Y002359D01*
X023047Y002332D01*
X023098Y002302D01*
X023148Y002268D01*
X023196Y002232D01*
X023241Y002192D01*
X023283Y002150D01*
X023323Y002105D01*
X023359Y002057D01*
X023393Y002007D01*
X023423Y001956D01*
X023450Y001902D01*
X023473Y001847D01*
X023493Y001790D01*
X023509Y001733D01*
X023521Y001674D01*
X023530Y001615D01*
X023535Y001555D01*
X023450Y001555D01*
X023445Y001611D01*
X023436Y001667D01*
X023424Y001723D01*
X023408Y001777D01*
X023388Y001830D01*
X023365Y001882D01*
X023339Y001932D01*
X023309Y001980D01*
X023277Y002026D01*
X023241Y002070D01*
X023202Y002111D01*
X023161Y002150D01*
X023117Y002186D01*
X023071Y002218D01*
X023023Y002248D01*
X022973Y002274D01*
X022921Y002297D01*
X022868Y002317D01*
X022814Y002333D01*
X022758Y002345D01*
X022702Y002354D01*
X022646Y002359D01*
X022646Y002274D01*
X022699Y002269D01*
X022751Y002260D01*
X022802Y002248D01*
X022853Y002232D01*
X022902Y002213D01*
X022950Y002191D01*
X022996Y002165D01*
X023041Y002136D01*
X023083Y002104D01*
X023123Y002069D01*
X023160Y002032D01*
X023195Y001992D01*
X023227Y001950D01*
X023256Y001905D01*
X023282Y001859D01*
X023304Y001811D01*
X023323Y001762D01*
X023339Y001711D01*
X023351Y001660D01*
X023360Y001608D01*
X023365Y001555D01*
X023280Y001555D01*
X023274Y001606D01*
X023265Y001657D01*
X023252Y001707D01*
X023235Y001755D01*
X023215Y001803D01*
X023191Y001848D01*
X023164Y001892D01*
X023133Y001933D01*
X023100Y001972D01*
X023063Y002009D01*
X023024Y002042D01*
X022983Y002073D01*
X022939Y002100D01*
X022894Y002124D01*
X022846Y002144D01*
X022798Y002161D01*
X022748Y002174D01*
X022697Y002183D01*
X022646Y002189D01*
X022646Y002103D01*
X022693Y002098D01*
X022739Y002089D01*
X022784Y002076D01*
X022828Y002060D01*
X022870Y002040D01*
X022911Y002018D01*
X022950Y001992D01*
X022987Y001963D01*
X023022Y001931D01*
X023054Y001896D01*
X023083Y001859D01*
X023109Y001820D01*
X023131Y001779D01*
X023151Y001737D01*
X023167Y001693D01*
X023180Y001648D01*
X023189Y001602D01*
X023194Y001555D01*
X023109Y001555D01*
X023103Y001599D01*
X023094Y001642D01*
X023080Y001685D01*
X023063Y001726D01*
X023043Y001765D01*
X023019Y001803D01*
X022992Y001838D01*
X022962Y001871D01*
X022929Y001901D01*
X022894Y001928D01*
X022856Y001952D01*
X022817Y001972D01*
X022776Y001989D01*
X022733Y002003D01*
X022690Y002012D01*
X022646Y002018D01*
X022646Y001933D01*
X022684Y001927D01*
X022721Y001918D01*
X022758Y001905D01*
X022793Y001889D01*
X022826Y001870D01*
X022858Y001848D01*
X022888Y001824D01*
X022915Y001797D01*
X022939Y001767D01*
X022961Y001735D01*
X022980Y001702D01*
X022996Y001667D01*
X023009Y001630D01*
X023018Y001593D01*
X023024Y001555D01*
X022938Y001555D01*
X022932Y001588D01*
X022922Y001621D01*
X022910Y001653D01*
X022894Y001683D01*
X022875Y001712D01*
X022853Y001738D01*
X022829Y001762D01*
X022803Y001784D01*
X022774Y001803D01*
X022744Y001819D01*
X022712Y001831D01*
X022679Y001841D01*
X022646Y001847D01*
X021497Y001466D02*
X022310Y001466D01*
X022309Y001465D02*
X022317Y001432D01*
X022327Y001400D01*
X022342Y001369D01*
X022360Y001340D01*
X022381Y001314D01*
X022405Y001290D01*
X022431Y001269D01*
X022460Y001251D01*
X022491Y001236D01*
X022523Y001226D01*
X022556Y001218D01*
X022557Y000406D01*
X022556Y000406D01*
X022490Y000411D01*
X022425Y000419D01*
X022360Y000431D01*
X022297Y000448D01*
X022234Y000468D01*
X022173Y000491D01*
X022113Y000519D01*
X022055Y000550D01*
X021998Y000584D01*
X021944Y000621D01*
X021892Y000662D01*
X021843Y000706D01*
X021797Y000752D01*
X021753Y000801D01*
X021712Y000853D01*
X021675Y000907D01*
X021641Y000964D01*
X021610Y001022D01*
X021582Y001082D01*
X021559Y001143D01*
X021539Y001206D01*
X021522Y001269D01*
X021510Y001334D01*
X021502Y001399D01*
X021497Y001465D01*
X021582Y001465D01*
X021587Y001402D01*
X021595Y001340D01*
X021608Y001278D01*
X021624Y001217D01*
X021644Y001157D01*
X021667Y001099D01*
X021695Y001042D01*
X021725Y000987D01*
X021759Y000934D01*
X021796Y000883D01*
X021837Y000835D01*
X021880Y000789D01*
X021926Y000746D01*
X021974Y000705D01*
X022025Y000668D01*
X022078Y000634D01*
X022133Y000604D01*
X022190Y000576D01*
X022248Y000553D01*
X022308Y000533D01*
X022369Y000517D01*
X022431Y000504D01*
X022493Y000496D01*
X022556Y000491D01*
X022556Y000576D01*
X022496Y000581D01*
X022437Y000590D01*
X022378Y000602D01*
X022321Y000618D01*
X022264Y000638D01*
X022209Y000661D01*
X022155Y000688D01*
X022104Y000718D01*
X022054Y000752D01*
X022006Y000788D01*
X021961Y000828D01*
X021919Y000870D01*
X021879Y000915D01*
X021843Y000963D01*
X021809Y001013D01*
X021779Y001064D01*
X021752Y001118D01*
X021729Y001173D01*
X021709Y001230D01*
X021693Y001287D01*
X021681Y001346D01*
X021672Y001405D01*
X021667Y001465D01*
X021752Y001465D01*
X021757Y001409D01*
X021766Y001353D01*
X021778Y001297D01*
X021794Y001243D01*
X021814Y001190D01*
X021837Y001138D01*
X021863Y001088D01*
X021893Y001040D01*
X021925Y000994D01*
X021961Y000950D01*
X022000Y000909D01*
X022041Y000870D01*
X022085Y000834D01*
X022131Y000802D01*
X022179Y000772D01*
X022229Y000746D01*
X022281Y000723D01*
X022334Y000703D01*
X022388Y000687D01*
X022444Y000675D01*
X022500Y000666D01*
X022556Y000661D01*
X022556Y000746D01*
X022503Y000751D01*
X022451Y000760D01*
X022400Y000772D01*
X022349Y000788D01*
X022300Y000807D01*
X022252Y000829D01*
X022206Y000855D01*
X022161Y000884D01*
X022119Y000916D01*
X022079Y000951D01*
X022042Y000988D01*
X022007Y001028D01*
X021975Y001070D01*
X021946Y001115D01*
X021920Y001161D01*
X021898Y001209D01*
X021879Y001258D01*
X021863Y001309D01*
X021851Y001360D01*
X021842Y001412D01*
X021837Y001465D01*
X021922Y001465D01*
X021928Y001414D01*
X021937Y001363D01*
X021950Y001313D01*
X021967Y001265D01*
X021987Y001217D01*
X022011Y001172D01*
X022038Y001128D01*
X022069Y001087D01*
X022102Y001048D01*
X022139Y001011D01*
X022178Y000978D01*
X022219Y000947D01*
X022263Y000920D01*
X022308Y000896D01*
X022356Y000876D01*
X022404Y000859D01*
X022454Y000846D01*
X022505Y000837D01*
X022556Y000831D01*
X022556Y000917D01*
X022509Y000922D01*
X022463Y000931D01*
X022418Y000944D01*
X022374Y000960D01*
X022332Y000980D01*
X022291Y001002D01*
X022252Y001028D01*
X022215Y001057D01*
X022180Y001089D01*
X022148Y001124D01*
X022119Y001161D01*
X022093Y001200D01*
X022071Y001241D01*
X022051Y001283D01*
X022035Y001327D01*
X022022Y001372D01*
X022013Y001418D01*
X022008Y001465D01*
X022093Y001465D01*
X022099Y001421D01*
X022108Y001378D01*
X022122Y001335D01*
X022139Y001294D01*
X022159Y001255D01*
X022183Y001217D01*
X022210Y001182D01*
X022240Y001149D01*
X022273Y001119D01*
X022308Y001092D01*
X022346Y001068D01*
X022385Y001048D01*
X022426Y001031D01*
X022469Y001017D01*
X022512Y001008D01*
X022556Y001002D01*
X022556Y001087D01*
X022518Y001093D01*
X022481Y001102D01*
X022444Y001115D01*
X022409Y001131D01*
X022376Y001150D01*
X022344Y001172D01*
X022314Y001196D01*
X022287Y001223D01*
X022263Y001253D01*
X022241Y001285D01*
X022222Y001318D01*
X022206Y001353D01*
X022193Y001390D01*
X022184Y001427D01*
X022178Y001465D01*
X022264Y001465D01*
X022270Y001432D01*
X022280Y001399D01*
X022292Y001367D01*
X022308Y001337D01*
X022327Y001308D01*
X022349Y001282D01*
X022373Y001258D01*
X022399Y001236D01*
X022428Y001217D01*
X022458Y001201D01*
X022490Y001189D01*
X022523Y001179D01*
X022556Y001173D01*
X006205Y001554D02*
X005392Y001554D01*
X005393Y001555D02*
X005385Y001588D01*
X005375Y001620D01*
X005360Y001651D01*
X005342Y001680D01*
X005321Y001706D01*
X005297Y001730D01*
X005271Y001751D01*
X005242Y001769D01*
X005211Y001784D01*
X005179Y001794D01*
X005146Y001802D01*
X005145Y002614D01*
X005146Y002614D01*
X005212Y002609D01*
X005277Y002601D01*
X005342Y002589D01*
X005405Y002572D01*
X005468Y002552D01*
X005529Y002529D01*
X005589Y002501D01*
X005647Y002470D01*
X005704Y002436D01*
X005758Y002399D01*
X005810Y002358D01*
X005859Y002314D01*
X005905Y002268D01*
X005949Y002219D01*
X005990Y002167D01*
X006027Y002113D01*
X006061Y002056D01*
X006092Y001998D01*
X006120Y001938D01*
X006143Y001877D01*
X006163Y001814D01*
X006180Y001751D01*
X006192Y001686D01*
X006200Y001621D01*
X006205Y001555D01*
X006120Y001555D01*
X006115Y001618D01*
X006107Y001680D01*
X006094Y001742D01*
X006078Y001803D01*
X006058Y001863D01*
X006035Y001921D01*
X006007Y001978D01*
X005977Y002033D01*
X005943Y002086D01*
X005906Y002137D01*
X005865Y002185D01*
X005822Y002231D01*
X005776Y002274D01*
X005728Y002315D01*
X005677Y002352D01*
X005624Y002386D01*
X005569Y002416D01*
X005512Y002444D01*
X005454Y002467D01*
X005394Y002487D01*
X005333Y002503D01*
X005271Y002516D01*
X005209Y002524D01*
X005146Y002529D01*
X005146Y002444D01*
X005206Y002439D01*
X005265Y002430D01*
X005324Y002418D01*
X005381Y002402D01*
X005438Y002382D01*
X005493Y002359D01*
X005547Y002332D01*
X005598Y002302D01*
X005648Y002268D01*
X005696Y002232D01*
X005741Y002192D01*
X005783Y002150D01*
X005823Y002105D01*
X005859Y002057D01*
X005893Y002007D01*
X005923Y001956D01*
X005950Y001902D01*
X005973Y001847D01*
X005993Y001790D01*
X006009Y001733D01*
X006021Y001674D01*
X006030Y001615D01*
X006035Y001555D01*
X005950Y001555D01*
X005945Y001611D01*
X005936Y001667D01*
X005924Y001723D01*
X005908Y001777D01*
X005888Y001830D01*
X005865Y001882D01*
X005839Y001932D01*
X005809Y001980D01*
X005777Y002026D01*
X005741Y002070D01*
X005702Y002111D01*
X005661Y002150D01*
X005617Y002186D01*
X005571Y002218D01*
X005523Y002248D01*
X005473Y002274D01*
X005421Y002297D01*
X005368Y002317D01*
X005314Y002333D01*
X005258Y002345D01*
X005202Y002354D01*
X005146Y002359D01*
X005146Y002274D01*
X005199Y002269D01*
X005251Y002260D01*
X005302Y002248D01*
X005353Y002232D01*
X005402Y002213D01*
X005450Y002191D01*
X005496Y002165D01*
X005541Y002136D01*
X005583Y002104D01*
X005623Y002069D01*
X005660Y002032D01*
X005695Y001992D01*
X005727Y001950D01*
X005756Y001905D01*
X005782Y001859D01*
X005804Y001811D01*
X005823Y001762D01*
X005839Y001711D01*
X005851Y001660D01*
X005860Y001608D01*
X005865Y001555D01*
X005780Y001555D01*
X005774Y001606D01*
X005765Y001657D01*
X005752Y001707D01*
X005735Y001755D01*
X005715Y001803D01*
X005691Y001848D01*
X005664Y001892D01*
X005633Y001933D01*
X005600Y001972D01*
X005563Y002009D01*
X005524Y002042D01*
X005483Y002073D01*
X005439Y002100D01*
X005394Y002124D01*
X005346Y002144D01*
X005298Y002161D01*
X005248Y002174D01*
X005197Y002183D01*
X005146Y002189D01*
X005146Y002103D01*
X005193Y002098D01*
X005239Y002089D01*
X005284Y002076D01*
X005328Y002060D01*
X005370Y002040D01*
X005411Y002018D01*
X005450Y001992D01*
X005487Y001963D01*
X005522Y001931D01*
X005554Y001896D01*
X005583Y001859D01*
X005609Y001820D01*
X005631Y001779D01*
X005651Y001737D01*
X005667Y001693D01*
X005680Y001648D01*
X005689Y001602D01*
X005694Y001555D01*
X005609Y001555D01*
X005603Y001599D01*
X005594Y001642D01*
X005580Y001685D01*
X005563Y001726D01*
X005543Y001765D01*
X005519Y001803D01*
X005492Y001838D01*
X005462Y001871D01*
X005429Y001901D01*
X005394Y001928D01*
X005356Y001952D01*
X005317Y001972D01*
X005276Y001989D01*
X005233Y002003D01*
X005190Y002012D01*
X005146Y002018D01*
X005146Y001933D01*
X005184Y001927D01*
X005221Y001918D01*
X005258Y001905D01*
X005293Y001889D01*
X005326Y001870D01*
X005358Y001848D01*
X005388Y001824D01*
X005415Y001797D01*
X005439Y001767D01*
X005461Y001735D01*
X005480Y001702D01*
X005496Y001667D01*
X005509Y001630D01*
X005518Y001593D01*
X005524Y001555D01*
X005438Y001555D01*
X005432Y001588D01*
X005422Y001621D01*
X005410Y001653D01*
X005394Y001683D01*
X005375Y001712D01*
X005353Y001738D01*
X005329Y001762D01*
X005303Y001784D01*
X005274Y001803D01*
X005244Y001819D01*
X005212Y001831D01*
X005179Y001841D01*
X005146Y001847D01*
X003997Y001466D02*
X004810Y001466D01*
X004809Y001465D02*
X004817Y001432D01*
X004827Y001400D01*
X004842Y001369D01*
X004860Y001340D01*
X004881Y001314D01*
X004905Y001290D01*
X004931Y001269D01*
X004960Y001251D01*
X004991Y001236D01*
X005023Y001226D01*
X005056Y001218D01*
X005057Y000406D01*
X005056Y000406D01*
X004990Y000411D01*
X004925Y000419D01*
X004860Y000431D01*
X004797Y000448D01*
X004734Y000468D01*
X004673Y000491D01*
X004613Y000519D01*
X004555Y000550D01*
X004498Y000584D01*
X004444Y000621D01*
X004392Y000662D01*
X004343Y000706D01*
X004297Y000752D01*
X004253Y000801D01*
X004212Y000853D01*
X004175Y000907D01*
X004141Y000964D01*
X004110Y001022D01*
X004082Y001082D01*
X004059Y001143D01*
X004039Y001206D01*
X004022Y001269D01*
X004010Y001334D01*
X004002Y001399D01*
X003997Y001465D01*
X004082Y001465D01*
X004087Y001402D01*
X004095Y001340D01*
X004108Y001278D01*
X004124Y001217D01*
X004144Y001157D01*
X004167Y001099D01*
X004195Y001042D01*
X004225Y000987D01*
X004259Y000934D01*
X004296Y000883D01*
X004337Y000835D01*
X004380Y000789D01*
X004426Y000746D01*
X004474Y000705D01*
X004525Y000668D01*
X004578Y000634D01*
X004633Y000604D01*
X004690Y000576D01*
X004748Y000553D01*
X004808Y000533D01*
X004869Y000517D01*
X004931Y000504D01*
X004993Y000496D01*
X005056Y000491D01*
X005056Y000576D01*
X004996Y000581D01*
X004937Y000590D01*
X004878Y000602D01*
X004821Y000618D01*
X004764Y000638D01*
X004709Y000661D01*
X004655Y000688D01*
X004604Y000718D01*
X004554Y000752D01*
X004506Y000788D01*
X004461Y000828D01*
X004419Y000870D01*
X004379Y000915D01*
X004343Y000963D01*
X004309Y001013D01*
X004279Y001064D01*
X004252Y001118D01*
X004229Y001173D01*
X004209Y001230D01*
X004193Y001287D01*
X004181Y001346D01*
X004172Y001405D01*
X004167Y001465D01*
X004252Y001465D01*
X004257Y001409D01*
X004266Y001353D01*
X004278Y001297D01*
X004294Y001243D01*
X004314Y001190D01*
X004337Y001138D01*
X004363Y001088D01*
X004393Y001040D01*
X004425Y000994D01*
X004461Y000950D01*
X004500Y000909D01*
X004541Y000870D01*
X004585Y000834D01*
X004631Y000802D01*
X004679Y000772D01*
X004729Y000746D01*
X004781Y000723D01*
X004834Y000703D01*
X004888Y000687D01*
X004944Y000675D01*
X005000Y000666D01*
X005056Y000661D01*
X005056Y000746D01*
X005003Y000751D01*
X004951Y000760D01*
X004900Y000772D01*
X004849Y000788D01*
X004800Y000807D01*
X004752Y000829D01*
X004706Y000855D01*
X004661Y000884D01*
X004619Y000916D01*
X004579Y000951D01*
X004542Y000988D01*
X004507Y001028D01*
X004475Y001070D01*
X004446Y001115D01*
X004420Y001161D01*
X004398Y001209D01*
X004379Y001258D01*
X004363Y001309D01*
X004351Y001360D01*
X004342Y001412D01*
X004337Y001465D01*
X004422Y001465D01*
X004428Y001414D01*
X004437Y001363D01*
X004450Y001313D01*
X004467Y001265D01*
X004487Y001217D01*
X004511Y001172D01*
X004538Y001128D01*
X004569Y001087D01*
X004602Y001048D01*
X004639Y001011D01*
X004678Y000978D01*
X004719Y000947D01*
X004763Y000920D01*
X004808Y000896D01*
X004856Y000876D01*
X004904Y000859D01*
X004954Y000846D01*
X005005Y000837D01*
X005056Y000831D01*
X005056Y000917D01*
X005009Y000922D01*
X004963Y000931D01*
X004918Y000944D01*
X004874Y000960D01*
X004832Y000980D01*
X004791Y001002D01*
X004752Y001028D01*
X004715Y001057D01*
X004680Y001089D01*
X004648Y001124D01*
X004619Y001161D01*
X004593Y001200D01*
X004571Y001241D01*
X004551Y001283D01*
X004535Y001327D01*
X004522Y001372D01*
X004513Y001418D01*
X004508Y001465D01*
X004593Y001465D01*
X004599Y001421D01*
X004608Y001378D01*
X004622Y001335D01*
X004639Y001294D01*
X004659Y001255D01*
X004683Y001217D01*
X004710Y001182D01*
X004740Y001149D01*
X004773Y001119D01*
X004808Y001092D01*
X004846Y001068D01*
X004885Y001048D01*
X004926Y001031D01*
X004969Y001017D01*
X005012Y001008D01*
X005056Y001002D01*
X005056Y001087D01*
X005018Y001093D01*
X004981Y001102D01*
X004944Y001115D01*
X004909Y001131D01*
X004876Y001150D01*
X004844Y001172D01*
X004814Y001196D01*
X004787Y001223D01*
X004763Y001253D01*
X004741Y001285D01*
X004722Y001318D01*
X004706Y001353D01*
X004693Y001390D01*
X004684Y001427D01*
X004678Y001465D01*
X004764Y001465D01*
X004770Y001432D01*
X004780Y001399D01*
X004792Y001367D01*
X004808Y001337D01*
X004827Y001308D01*
X004849Y001282D01*
X004873Y001258D01*
X004899Y001236D01*
X004928Y001217D01*
X004958Y001201D01*
X004990Y001189D01*
X005023Y001179D01*
X005056Y001173D01*
D26*
X004851Y001510D02*
X004853Y001541D01*
X004859Y001572D01*
X004869Y001602D01*
X004882Y001630D01*
X004899Y001657D01*
X004919Y001681D01*
X004942Y001703D01*
X004967Y001721D01*
X004995Y001736D01*
X005024Y001748D01*
X005054Y001756D01*
X005085Y001760D01*
X005117Y001760D01*
X005148Y001756D01*
X005178Y001748D01*
X005207Y001736D01*
X005235Y001721D01*
X005260Y001703D01*
X005283Y001681D01*
X005303Y001657D01*
X005320Y001630D01*
X005333Y001602D01*
X005343Y001572D01*
X005349Y001541D01*
X005351Y001510D01*
X005349Y001479D01*
X005343Y001448D01*
X005333Y001418D01*
X005320Y001390D01*
X005303Y001363D01*
X005283Y001339D01*
X005260Y001317D01*
X005235Y001299D01*
X005207Y001284D01*
X005178Y001272D01*
X005148Y001264D01*
X005117Y001260D01*
X005085Y001260D01*
X005054Y001264D01*
X005024Y001272D01*
X004995Y001284D01*
X004967Y001299D01*
X004942Y001317D01*
X004919Y001339D01*
X004899Y001363D01*
X004882Y001390D01*
X004869Y001418D01*
X004859Y001448D01*
X004853Y001479D01*
X004851Y001510D01*
X022351Y001510D02*
X022353Y001541D01*
X022359Y001572D01*
X022369Y001602D01*
X022382Y001630D01*
X022399Y001657D01*
X022419Y001681D01*
X022442Y001703D01*
X022467Y001721D01*
X022495Y001736D01*
X022524Y001748D01*
X022554Y001756D01*
X022585Y001760D01*
X022617Y001760D01*
X022648Y001756D01*
X022678Y001748D01*
X022707Y001736D01*
X022735Y001721D01*
X022760Y001703D01*
X022783Y001681D01*
X022803Y001657D01*
X022820Y001630D01*
X022833Y001602D01*
X022843Y001572D01*
X022849Y001541D01*
X022851Y001510D01*
X022849Y001479D01*
X022843Y001448D01*
X022833Y001418D01*
X022820Y001390D01*
X022803Y001363D01*
X022783Y001339D01*
X022760Y001317D01*
X022735Y001299D01*
X022707Y001284D01*
X022678Y001272D01*
X022648Y001264D01*
X022617Y001260D01*
X022585Y001260D01*
X022554Y001264D01*
X022524Y001272D01*
X022495Y001284D01*
X022467Y001299D01*
X022442Y001317D01*
X022419Y001339D01*
X022399Y001363D01*
X022382Y001390D01*
X022369Y001418D01*
X022359Y001448D01*
X022353Y001479D01*
X022351Y001510D01*
X022351Y019010D02*
X022353Y019041D01*
X022359Y019072D01*
X022369Y019102D01*
X022382Y019130D01*
X022399Y019157D01*
X022419Y019181D01*
X022442Y019203D01*
X022467Y019221D01*
X022495Y019236D01*
X022524Y019248D01*
X022554Y019256D01*
X022585Y019260D01*
X022617Y019260D01*
X022648Y019256D01*
X022678Y019248D01*
X022707Y019236D01*
X022735Y019221D01*
X022760Y019203D01*
X022783Y019181D01*
X022803Y019157D01*
X022820Y019130D01*
X022833Y019102D01*
X022843Y019072D01*
X022849Y019041D01*
X022851Y019010D01*
X022849Y018979D01*
X022843Y018948D01*
X022833Y018918D01*
X022820Y018890D01*
X022803Y018863D01*
X022783Y018839D01*
X022760Y018817D01*
X022735Y018799D01*
X022707Y018784D01*
X022678Y018772D01*
X022648Y018764D01*
X022617Y018760D01*
X022585Y018760D01*
X022554Y018764D01*
X022524Y018772D01*
X022495Y018784D01*
X022467Y018799D01*
X022442Y018817D01*
X022419Y018839D01*
X022399Y018863D01*
X022382Y018890D01*
X022369Y018918D01*
X022359Y018948D01*
X022353Y018979D01*
X022351Y019010D01*
X004851Y019010D02*
X004853Y019041D01*
X004859Y019072D01*
X004869Y019102D01*
X004882Y019130D01*
X004899Y019157D01*
X004919Y019181D01*
X004942Y019203D01*
X004967Y019221D01*
X004995Y019236D01*
X005024Y019248D01*
X005054Y019256D01*
X005085Y019260D01*
X005117Y019260D01*
X005148Y019256D01*
X005178Y019248D01*
X005207Y019236D01*
X005235Y019221D01*
X005260Y019203D01*
X005283Y019181D01*
X005303Y019157D01*
X005320Y019130D01*
X005333Y019102D01*
X005343Y019072D01*
X005349Y019041D01*
X005351Y019010D01*
X005349Y018979D01*
X005343Y018948D01*
X005333Y018918D01*
X005320Y018890D01*
X005303Y018863D01*
X005283Y018839D01*
X005260Y018817D01*
X005235Y018799D01*
X005207Y018784D01*
X005178Y018772D01*
X005148Y018764D01*
X005117Y018760D01*
X005085Y018760D01*
X005054Y018764D01*
X005024Y018772D01*
X004995Y018784D01*
X004967Y018799D01*
X004942Y018817D01*
X004919Y018839D01*
X004899Y018863D01*
X004882Y018890D01*
X004869Y018918D01*
X004859Y018948D01*
X004853Y018979D01*
X004851Y019010D01*
M02*
