G75*
G70*
%OFA0B0*%
%FSLAX24Y24*%
%IPPOS*%
%LPD*%
%AMOC8*
5,1,8,0,0,1.08239X$1,22.5*
%
%ADD10R,0.0356X0.0198*%
%ADD11R,0.0434X0.0395*%
%ADD12R,0.0434X0.0356*%
%ADD13R,0.0356X0.0434*%
%ADD14R,0.0198X0.0356*%
%ADD15R,0.0830X0.2080*%
%ADD16R,0.0980X0.2080*%
%ADD17R,0.2080X0.0830*%
%ADD18R,0.2080X0.0980*%
%ADD19R,0.0631X0.0631*%
%ADD20R,0.1180X0.0550*%
%ADD21R,0.0513X0.0474*%
%ADD22C,0.2380*%
%ADD23C,0.0474*%
%ADD24C,0.0390*%
D10*
X008444Y009630D03*
X008444Y009827D03*
X008444Y010023D03*
X008444Y010220D03*
X009507Y010220D03*
X009507Y010023D03*
X009507Y009827D03*
X009507Y009630D03*
X012694Y009345D03*
X012694Y009148D03*
X012694Y008952D03*
X012694Y008755D03*
X013757Y008755D03*
X013757Y008952D03*
X013757Y009148D03*
X013757Y009345D03*
D11*
X009369Y008550D03*
X008582Y008176D03*
X008582Y008924D03*
D12*
X010101Y008669D03*
X010726Y008669D03*
X011351Y008669D03*
X011351Y009181D03*
X010726Y009181D03*
X010101Y009181D03*
X011976Y009181D03*
X011976Y008669D03*
X017351Y006931D03*
X017351Y006419D03*
X017976Y006419D03*
X017976Y006931D03*
D13*
X019970Y007050D03*
X020482Y007050D03*
X020482Y006550D03*
X019970Y006550D03*
X019970Y006050D03*
X020482Y006050D03*
X020482Y005550D03*
X019970Y005550D03*
X019970Y007550D03*
X020482Y007550D03*
X013482Y008175D03*
X012970Y008175D03*
X012720Y009925D03*
X012720Y010425D03*
X013232Y010425D03*
X013232Y009925D03*
X010732Y008050D03*
X010220Y008050D03*
X009357Y005925D03*
X008845Y005925D03*
X008845Y005300D03*
X009357Y005300D03*
X009482Y010925D03*
X009482Y011425D03*
X008970Y011425D03*
X008970Y010925D03*
X019970Y014050D03*
X020482Y014050D03*
D14*
X019271Y007081D03*
X019074Y007081D03*
X018877Y007081D03*
X018680Y007081D03*
X018680Y006019D03*
X018877Y006019D03*
X019074Y006019D03*
X019271Y006019D03*
D15*
X013851Y019290D03*
D16*
X015591Y019290D03*
X012111Y019290D03*
D17*
X004861Y014050D03*
X004986Y006550D03*
X022841Y006550D03*
X022841Y014050D03*
D18*
X022841Y015790D03*
X022841Y012310D03*
X022841Y008290D03*
X022841Y004810D03*
X004986Y004810D03*
X004986Y008290D03*
X004861Y012310D03*
X004861Y015790D03*
D19*
X009228Y007300D03*
X010724Y007300D03*
D20*
X013901Y004675D03*
X015801Y003675D03*
X015801Y005675D03*
D21*
X006851Y013340D03*
X006851Y014010D03*
D22*
X005351Y001800D03*
X022351Y001800D03*
X022351Y018800D03*
X005351Y018800D03*
D23*
X011351Y011925D03*
X011351Y010925D03*
X011601Y008050D03*
X011976Y006675D03*
X014476Y009425D03*
X015351Y009425D03*
X007476Y009050D03*
X007476Y008300D03*
D24*
X007476Y007675D03*
X008601Y007675D03*
X007976Y009550D03*
X008976Y010425D03*
X010726Y009675D03*
X012351Y010925D03*
X013101Y010925D03*
X013226Y009050D03*
X012476Y008175D03*
X012476Y007175D03*
X011601Y006300D03*
X015226Y008925D03*
X016601Y011925D03*
X017101Y012425D03*
X022851Y012300D03*
X022851Y015800D03*
X015601Y019300D03*
X012101Y019300D03*
X004851Y015800D03*
X006851Y012800D03*
X004851Y012300D03*
X004976Y008300D03*
X004976Y004800D03*
X010851Y011800D03*
X018976Y006550D03*
X016726Y003675D03*
X022851Y004800D03*
X022851Y008300D03*
M02*
