G75*
G70*
%OFA0B0*%
%FSLAX24Y24*%
%IPPOS*%
%LPD*%
%AMOC8*
5,1,8,0,0,1.08239X$1,22.5*
%
%ADD10C,0.0000*%
D10*
X003851Y001510D02*
X003851Y019010D01*
X003853Y019078D01*
X003858Y019145D01*
X003867Y019212D01*
X003880Y019279D01*
X003897Y019344D01*
X003916Y019409D01*
X003940Y019473D01*
X003967Y019535D01*
X003997Y019596D01*
X004030Y019654D01*
X004066Y019711D01*
X004106Y019766D01*
X004148Y019819D01*
X004194Y019870D01*
X004241Y019917D01*
X004292Y019963D01*
X004345Y020005D01*
X004400Y020045D01*
X004457Y020081D01*
X004515Y020114D01*
X004576Y020144D01*
X004638Y020171D01*
X004702Y020195D01*
X004767Y020214D01*
X004832Y020231D01*
X004899Y020244D01*
X004966Y020253D01*
X005033Y020258D01*
X005101Y020260D01*
X022601Y020260D01*
X022669Y020258D01*
X022736Y020253D01*
X022803Y020244D01*
X022870Y020231D01*
X022935Y020214D01*
X023000Y020195D01*
X023064Y020171D01*
X023126Y020144D01*
X023187Y020114D01*
X023245Y020081D01*
X023302Y020045D01*
X023357Y020005D01*
X023410Y019963D01*
X023461Y019917D01*
X023508Y019870D01*
X023554Y019819D01*
X023596Y019766D01*
X023636Y019711D01*
X023672Y019654D01*
X023705Y019596D01*
X023735Y019535D01*
X023762Y019473D01*
X023786Y019409D01*
X023805Y019344D01*
X023822Y019279D01*
X023835Y019212D01*
X023844Y019145D01*
X023849Y019078D01*
X023851Y019010D01*
X023851Y001510D01*
X023849Y001442D01*
X023844Y001375D01*
X023835Y001308D01*
X023822Y001241D01*
X023805Y001176D01*
X023786Y001111D01*
X023762Y001047D01*
X023735Y000985D01*
X023705Y000924D01*
X023672Y000866D01*
X023636Y000809D01*
X023596Y000754D01*
X023554Y000701D01*
X023508Y000650D01*
X023461Y000603D01*
X023410Y000557D01*
X023357Y000515D01*
X023302Y000475D01*
X023245Y000439D01*
X023187Y000406D01*
X023126Y000376D01*
X023064Y000349D01*
X023000Y000325D01*
X022935Y000306D01*
X022870Y000289D01*
X022803Y000276D01*
X022736Y000267D01*
X022669Y000262D01*
X022601Y000260D01*
X005101Y000260D01*
X005033Y000262D01*
X004966Y000267D01*
X004899Y000276D01*
X004832Y000289D01*
X004767Y000306D01*
X004702Y000325D01*
X004638Y000349D01*
X004576Y000376D01*
X004515Y000406D01*
X004457Y000439D01*
X004400Y000475D01*
X004345Y000515D01*
X004292Y000557D01*
X004241Y000603D01*
X004194Y000650D01*
X004148Y000701D01*
X004106Y000754D01*
X004066Y000809D01*
X004030Y000866D01*
X003997Y000924D01*
X003967Y000985D01*
X003940Y001047D01*
X003916Y001111D01*
X003897Y001176D01*
X003880Y001241D01*
X003867Y001308D01*
X003858Y001375D01*
X003853Y001442D01*
X003851Y001510D01*
X003851Y008060D02*
X003851Y012460D01*
X011651Y020260D02*
X016051Y020260D01*
X023851Y016210D02*
X023851Y011810D01*
X023851Y008710D02*
X023851Y004310D01*
M02*
