%
M48
M72
T01C0.0150
T02C0.1181
%
T01
X4976Y4800
X7476Y7675
X8601Y7675
X7976Y9550
X8976Y10425
X10726Y9675
X12351Y10925
X13101Y10925
X13226Y9050
X12476Y8175
X12476Y7175
X11601Y6300
X15226Y8925
X16601Y11925
X17101Y12425
X22851Y12300
X22851Y15800
X15601Y19300
X12101Y19300
X4851Y15800
X6851Y12800
X4851Y12300
X4976Y8300
X10851Y11800
X18976Y6550
X16726Y3675
X22851Y4800
X22851Y8300
T02
X5351Y1800
X22351Y1800
X22351Y18800
X5351Y18800
M30
