G75*
%MOIN*%
%OFA0B0*%
%FSLAX25Y25*%
%IPPOS*%
%LPD*%
%AMOC8*
5,1,8,0,0,1.08239X$1,22.5*
%
%ADD10OC8,0.06000*%
%ADD11C,0.06000*%
%ADD12C,0.07800*%
%ADD13C,0.08300*%
%ADD14C,0.11300*%
%ADD15C,0.23800*%
D10*
X0084569Y0020750D03*
X0104569Y0020750D03*
X0104569Y0035750D03*
X0092069Y0035750D03*
X0122069Y0035750D03*
X0122069Y0048250D03*
X0152069Y0048250D03*
X0152069Y0035750D03*
X0104569Y0065750D03*
X0092069Y0065750D03*
X0074569Y0068250D03*
X0074569Y0088250D03*
X0112069Y0115750D03*
X0117069Y0130750D03*
X0137069Y0130750D03*
X0142069Y0115750D03*
X0162069Y0115750D03*
X0182069Y0115750D03*
X0229569Y0088250D03*
X0229569Y0068250D03*
D11*
X0182069Y0065850D02*
X0182069Y0060650D01*
X0172069Y0060650D02*
X0172069Y0065850D01*
X0162069Y0065850D02*
X0162069Y0060650D01*
X0152069Y0060650D02*
X0152069Y0065850D01*
X0142069Y0065850D02*
X0142069Y0060650D01*
X0132069Y0060650D02*
X0132069Y0065850D01*
X0122069Y0065850D02*
X0122069Y0060650D01*
X0122069Y0090650D02*
X0122069Y0095850D01*
X0132069Y0095850D02*
X0132069Y0090650D01*
X0142069Y0090650D02*
X0142069Y0095850D01*
X0152069Y0095850D02*
X0152069Y0090650D01*
X0162069Y0090650D02*
X0162069Y0095850D01*
X0172069Y0095850D02*
X0172069Y0090650D01*
X0182069Y0090650D02*
X0182069Y0095850D01*
D12*
X0177069Y0015750D03*
X0152069Y0015750D03*
X0127069Y0015750D03*
D13*
X0047069Y0078250D03*
X0257069Y0078250D03*
D14*
X0247030Y0088289D03*
X0267108Y0088289D03*
X0267108Y0068211D03*
X0247030Y0068211D03*
X0057108Y0068211D03*
X0037030Y0068211D03*
X0037030Y0088289D03*
X0057108Y0088289D03*
D15*
X0042069Y0018250D03*
X0262069Y0018250D03*
X0262069Y0138250D03*
X0042069Y0138250D03*
M02*
