G75*
%MOIN*%
%OFA0B0*%
%FSLAX25Y25*%
%IPPOS*%
%LPD*%
%AMOC8*
5,1,8,0,0,1.08239X$1,22.5*
%
%ADD10OC8,0.05200*%
%ADD11C,0.05200*%
%ADD12C,0.07000*%
%ADD13C,0.07500*%
%ADD14C,0.10500*%
%ADD15C,0.23000*%
%ADD16C,0.01600*%
%ADD17C,0.00600*%
D10*
X0084569Y0020750D03*
X0104569Y0020750D03*
X0104569Y0035750D03*
X0092069Y0035750D03*
X0122069Y0035750D03*
X0122069Y0048250D03*
X0152069Y0048250D03*
X0152069Y0035750D03*
X0104569Y0065750D03*
X0092069Y0065750D03*
X0074569Y0068250D03*
X0074569Y0088250D03*
X0112069Y0115750D03*
X0117069Y0130750D03*
X0137069Y0130750D03*
X0142069Y0115750D03*
X0162069Y0115750D03*
X0182069Y0115750D03*
X0229569Y0088250D03*
X0229569Y0068250D03*
D11*
X0182069Y0065850D02*
X0182069Y0060650D01*
X0172069Y0060650D02*
X0172069Y0065850D01*
X0162069Y0065850D02*
X0162069Y0060650D01*
X0152069Y0060650D02*
X0152069Y0065850D01*
X0142069Y0065850D02*
X0142069Y0060650D01*
X0132069Y0060650D02*
X0132069Y0065850D01*
X0122069Y0065850D02*
X0122069Y0060650D01*
X0122069Y0090650D02*
X0122069Y0095850D01*
X0132069Y0095850D02*
X0132069Y0090650D01*
X0142069Y0090650D02*
X0142069Y0095850D01*
X0152069Y0095850D02*
X0152069Y0090650D01*
X0162069Y0090650D02*
X0162069Y0095850D01*
X0172069Y0095850D02*
X0172069Y0090650D01*
X0182069Y0090650D02*
X0182069Y0095850D01*
D12*
X0177069Y0015750D03*
X0152069Y0015750D03*
X0127069Y0015750D03*
D13*
X0047069Y0078250D03*
X0257069Y0078250D03*
D14*
X0247030Y0088289D03*
X0267108Y0088289D03*
X0267108Y0068211D03*
X0247030Y0068211D03*
X0057108Y0068211D03*
X0037030Y0068211D03*
X0037030Y0088289D03*
X0057108Y0088289D03*
D15*
X0042069Y0138250D03*
X0262069Y0138250D03*
X0262069Y0018250D03*
X0042069Y0018250D03*
D16*
X0104569Y0020750D02*
X0104569Y0035750D01*
X0112069Y0035750D01*
X0112069Y0065750D01*
X0119569Y0073250D01*
X0127069Y0073250D01*
X0132069Y0068250D01*
X0132069Y0063250D01*
X0122069Y0063250D02*
X0122069Y0053250D01*
X0194569Y0053250D01*
X0229569Y0088250D01*
X0239569Y0078250D02*
X0229569Y0068250D01*
X0239569Y0078250D02*
X0257069Y0078250D01*
X0142069Y0068250D02*
X0142069Y0063250D01*
X0142069Y0068250D02*
X0122069Y0088250D01*
X0122069Y0093250D01*
X0132069Y0093250D02*
X0132069Y0100750D01*
X0130819Y0102000D01*
X0132069Y0100750D01*
X0130819Y0102000D02*
X0127069Y0105750D01*
X0114569Y0105750D01*
X0109569Y0100750D01*
X0109569Y0070750D01*
X0104569Y0065750D01*
X0092069Y0065750D01*
X0077069Y0065750D01*
X0074569Y0068250D01*
X0064569Y0078250D02*
X0074569Y0088250D01*
X0064569Y0078250D02*
X0047069Y0078250D01*
X0122069Y0053250D02*
X0122069Y0048250D01*
X0122069Y0035750D02*
X0112069Y0035750D01*
X0122069Y0035750D02*
X0127069Y0030750D01*
X0127069Y0015750D01*
X0142069Y0093250D02*
X0142069Y0115750D01*
X0142069Y0125750D01*
X0137069Y0130750D01*
D17*
X0028090Y0016410D02*
X0029043Y0012854D01*
X0030883Y0009666D01*
X0033486Y0007064D01*
X0036673Y0005223D01*
X0040229Y0004271D01*
X0042069Y0004150D01*
X0262069Y0004150D01*
X0263910Y0004271D01*
X0267465Y0005223D01*
X0270653Y0007064D01*
X0273256Y0009666D01*
X0275096Y0012854D01*
X0276049Y0016410D01*
X0276169Y0018250D01*
X0276169Y0138250D01*
X0276049Y0140090D01*
X0275096Y0143646D01*
X0273256Y0146834D01*
X0270653Y0149436D01*
X0267465Y0151277D01*
X0267465Y0151277D01*
X0263910Y0152229D01*
X0262069Y0152350D01*
X0042069Y0152350D01*
X0040229Y0152229D01*
X0036673Y0151277D01*
X0033486Y0149436D01*
X0030883Y0146834D01*
X0029043Y0143646D01*
X0028090Y0140090D01*
X0027969Y0138250D01*
X0027969Y0018250D01*
X0028090Y0016410D01*
X0028089Y0016417D02*
X0029102Y0016417D01*
X0029069Y0016539D02*
X0029955Y0013232D01*
X0031667Y0010268D01*
X0034087Y0007847D01*
X0037051Y0006136D01*
X0040358Y0005250D01*
X0043781Y0005250D01*
X0047087Y0006136D01*
X0050051Y0007847D01*
X0052472Y0010268D01*
X0054183Y0013232D01*
X0055069Y0016539D01*
X0055069Y0019961D01*
X0054183Y0023268D01*
X0052472Y0026232D01*
X0050051Y0028653D01*
X0047087Y0030364D01*
X0043781Y0031250D01*
X0040358Y0031250D01*
X0037051Y0030364D01*
X0034087Y0028653D01*
X0031667Y0026232D01*
X0029955Y0023268D01*
X0029069Y0019961D01*
X0029069Y0016539D01*
X0029069Y0017016D02*
X0028050Y0017016D01*
X0028011Y0017614D02*
X0029069Y0017614D01*
X0029069Y0018213D02*
X0027972Y0018213D01*
X0027969Y0018811D02*
X0029069Y0018811D01*
X0029069Y0019410D02*
X0027969Y0019410D01*
X0027969Y0020008D02*
X0029082Y0020008D01*
X0029242Y0020607D02*
X0027969Y0020607D01*
X0027969Y0021205D02*
X0029403Y0021205D01*
X0029563Y0021804D02*
X0027969Y0021804D01*
X0027969Y0022402D02*
X0029723Y0022402D01*
X0029884Y0023001D02*
X0027969Y0023001D01*
X0027969Y0023599D02*
X0030147Y0023599D01*
X0030492Y0024198D02*
X0027969Y0024198D01*
X0027969Y0024796D02*
X0030838Y0024796D01*
X0031183Y0025395D02*
X0027969Y0025395D01*
X0027969Y0025993D02*
X0031529Y0025993D01*
X0032026Y0026592D02*
X0027969Y0026592D01*
X0027969Y0027190D02*
X0032625Y0027190D01*
X0033223Y0027789D02*
X0027969Y0027789D01*
X0027969Y0028387D02*
X0033822Y0028387D01*
X0034665Y0028986D02*
X0027969Y0028986D01*
X0027969Y0029584D02*
X0035701Y0029584D01*
X0036738Y0030183D02*
X0027969Y0030183D01*
X0027969Y0030782D02*
X0038609Y0030782D01*
X0045529Y0030782D02*
X0102269Y0030782D01*
X0102269Y0031380D02*
X0027969Y0031380D01*
X0027969Y0031979D02*
X0090042Y0031979D01*
X0090371Y0031650D02*
X0093768Y0031650D01*
X0096169Y0034052D01*
X0096169Y0037448D01*
X0093768Y0039850D01*
X0090371Y0039850D01*
X0087969Y0037448D01*
X0087969Y0034052D01*
X0090371Y0031650D01*
X0089444Y0032577D02*
X0027969Y0032577D01*
X0027969Y0033176D02*
X0088845Y0033176D01*
X0088247Y0033774D02*
X0027969Y0033774D01*
X0027969Y0034373D02*
X0087969Y0034373D01*
X0087969Y0034971D02*
X0027969Y0034971D01*
X0027969Y0035570D02*
X0087969Y0035570D01*
X0087969Y0036168D02*
X0027969Y0036168D01*
X0027969Y0036767D02*
X0087969Y0036767D01*
X0087969Y0037365D02*
X0027969Y0037365D01*
X0027969Y0037964D02*
X0088485Y0037964D01*
X0089083Y0038562D02*
X0027969Y0038562D01*
X0027969Y0039161D02*
X0089682Y0039161D01*
X0090280Y0039759D02*
X0027969Y0039759D01*
X0027969Y0040358D02*
X0109769Y0040358D01*
X0109769Y0040956D02*
X0027969Y0040956D01*
X0027969Y0041555D02*
X0109769Y0041555D01*
X0109769Y0042153D02*
X0027969Y0042153D01*
X0027969Y0042752D02*
X0109769Y0042752D01*
X0109769Y0043350D02*
X0027969Y0043350D01*
X0027969Y0043949D02*
X0109769Y0043949D01*
X0109769Y0044547D02*
X0027969Y0044547D01*
X0027969Y0045146D02*
X0109769Y0045146D01*
X0109769Y0045744D02*
X0027969Y0045744D01*
X0027969Y0046343D02*
X0109769Y0046343D01*
X0109769Y0046941D02*
X0027969Y0046941D01*
X0027969Y0047540D02*
X0109769Y0047540D01*
X0109769Y0048138D02*
X0027969Y0048138D01*
X0027969Y0048737D02*
X0109769Y0048737D01*
X0109769Y0049335D02*
X0027969Y0049335D01*
X0027969Y0049934D02*
X0109769Y0049934D01*
X0109769Y0050532D02*
X0027969Y0050532D01*
X0027969Y0051131D02*
X0109769Y0051131D01*
X0109769Y0051729D02*
X0027969Y0051729D01*
X0027969Y0052328D02*
X0109769Y0052328D01*
X0109769Y0052926D02*
X0027969Y0052926D01*
X0027969Y0053525D02*
X0109769Y0053525D01*
X0109769Y0054123D02*
X0027969Y0054123D01*
X0027969Y0054722D02*
X0109769Y0054722D01*
X0109769Y0055320D02*
X0027969Y0055320D01*
X0027969Y0055919D02*
X0109769Y0055919D01*
X0109769Y0056518D02*
X0027969Y0056518D01*
X0027969Y0057116D02*
X0109769Y0057116D01*
X0109769Y0057715D02*
X0027969Y0057715D01*
X0027969Y0058313D02*
X0109769Y0058313D01*
X0109769Y0058912D02*
X0027969Y0058912D01*
X0027969Y0059510D02*
X0109769Y0059510D01*
X0109769Y0060109D02*
X0027969Y0060109D01*
X0027969Y0060707D02*
X0109769Y0060707D01*
X0109769Y0061306D02*
X0027969Y0061306D01*
X0027969Y0061904D02*
X0034618Y0061904D01*
X0035688Y0061461D02*
X0038373Y0061461D01*
X0040854Y0062489D01*
X0042753Y0064387D01*
X0043780Y0066868D01*
X0043780Y0069554D01*
X0042753Y0072035D01*
X0040854Y0073933D01*
X0038373Y0074961D01*
X0035688Y0074961D01*
X0033207Y0073933D01*
X0031308Y0072035D01*
X0030280Y0069554D01*
X0030280Y0066868D01*
X0031308Y0064387D01*
X0033207Y0062489D01*
X0035688Y0061461D01*
X0033193Y0062503D02*
X0027969Y0062503D01*
X0027969Y0063101D02*
X0032594Y0063101D01*
X0031996Y0063700D02*
X0027969Y0063700D01*
X0027969Y0064298D02*
X0031397Y0064298D01*
X0031097Y0064897D02*
X0027969Y0064897D01*
X0027969Y0065495D02*
X0030849Y0065495D01*
X0030601Y0066094D02*
X0027969Y0066094D01*
X0027969Y0066692D02*
X0030353Y0066692D01*
X0030280Y0067291D02*
X0027969Y0067291D01*
X0027969Y0067889D02*
X0030280Y0067889D01*
X0030280Y0068488D02*
X0027969Y0068488D01*
X0027969Y0069086D02*
X0030280Y0069086D01*
X0030335Y0069685D02*
X0027969Y0069685D01*
X0027969Y0070283D02*
X0030583Y0070283D01*
X0030830Y0070882D02*
X0027969Y0070882D01*
X0027969Y0071480D02*
X0031078Y0071480D01*
X0031352Y0072079D02*
X0027969Y0072079D01*
X0027969Y0072677D02*
X0031951Y0072677D01*
X0032549Y0073276D02*
X0027969Y0073276D01*
X0027969Y0073874D02*
X0033148Y0073874D01*
X0034509Y0074473D02*
X0027969Y0074473D01*
X0027969Y0075071D02*
X0042823Y0075071D01*
X0042619Y0075276D02*
X0044095Y0073799D01*
X0046025Y0073000D01*
X0048114Y0073000D01*
X0050043Y0073799D01*
X0051520Y0075276D01*
X0051799Y0075950D01*
X0065522Y0075950D01*
X0073722Y0084150D01*
X0076268Y0084150D01*
X0078669Y0086552D01*
X0078669Y0089948D01*
X0076268Y0092350D01*
X0072871Y0092350D01*
X0070469Y0089948D01*
X0070469Y0087403D01*
X0063617Y0080550D01*
X0051799Y0080550D01*
X0051520Y0081224D01*
X0050043Y0082701D01*
X0048114Y0083500D01*
X0046025Y0083500D01*
X0044095Y0082701D01*
X0042619Y0081224D01*
X0041819Y0079294D01*
X0041819Y0077206D01*
X0042619Y0075276D01*
X0042455Y0075670D02*
X0027969Y0075670D01*
X0027969Y0076268D02*
X0042208Y0076268D01*
X0041960Y0076867D02*
X0027969Y0076867D01*
X0027969Y0077465D02*
X0041819Y0077465D01*
X0041819Y0078064D02*
X0027969Y0078064D01*
X0027969Y0078662D02*
X0041819Y0078662D01*
X0041819Y0079261D02*
X0027969Y0079261D01*
X0027969Y0079859D02*
X0042053Y0079859D01*
X0042301Y0080458D02*
X0027969Y0080458D01*
X0027969Y0081056D02*
X0042549Y0081056D01*
X0043050Y0081655D02*
X0038653Y0081655D01*
X0038373Y0081539D02*
X0040854Y0082567D01*
X0042753Y0084465D01*
X0043780Y0086946D01*
X0043780Y0089632D01*
X0042753Y0092113D01*
X0040854Y0094011D01*
X0038373Y0095039D01*
X0035688Y0095039D01*
X0033207Y0094011D01*
X0031308Y0092113D01*
X0030280Y0089632D01*
X0030280Y0086946D01*
X0031308Y0084465D01*
X0033207Y0082567D01*
X0035688Y0081539D01*
X0038373Y0081539D01*
X0040098Y0082253D02*
X0043648Y0082253D01*
X0044461Y0082852D02*
X0041139Y0082852D01*
X0041738Y0083451D02*
X0045906Y0083451D01*
X0048233Y0083451D02*
X0052401Y0083451D01*
X0051802Y0084049D02*
X0042336Y0084049D01*
X0042828Y0084648D02*
X0051310Y0084648D01*
X0051386Y0084465D02*
X0053285Y0082567D01*
X0055766Y0081539D01*
X0058451Y0081539D01*
X0060932Y0082567D01*
X0062831Y0084465D01*
X0063858Y0086946D01*
X0063858Y0089632D01*
X0062831Y0092113D01*
X0060932Y0094011D01*
X0058451Y0095039D01*
X0055766Y0095039D01*
X0053285Y0094011D01*
X0051386Y0092113D01*
X0050358Y0089632D01*
X0050358Y0086946D01*
X0051386Y0084465D01*
X0051063Y0085246D02*
X0043076Y0085246D01*
X0043324Y0085845D02*
X0050815Y0085845D01*
X0050567Y0086443D02*
X0043572Y0086443D01*
X0043780Y0087042D02*
X0050358Y0087042D01*
X0050358Y0087640D02*
X0043780Y0087640D01*
X0043780Y0088239D02*
X0050358Y0088239D01*
X0050358Y0088837D02*
X0043780Y0088837D01*
X0043780Y0089436D02*
X0050358Y0089436D01*
X0050525Y0090034D02*
X0043614Y0090034D01*
X0043366Y0090633D02*
X0050773Y0090633D01*
X0051021Y0091231D02*
X0043118Y0091231D01*
X0042870Y0091830D02*
X0051269Y0091830D01*
X0051702Y0092428D02*
X0042437Y0092428D01*
X0041839Y0093027D02*
X0052300Y0093027D01*
X0052899Y0093625D02*
X0041240Y0093625D01*
X0040341Y0094224D02*
X0053797Y0094224D01*
X0055242Y0094822D02*
X0038896Y0094822D01*
X0035164Y0094822D02*
X0027969Y0094822D01*
X0027969Y0094224D02*
X0033719Y0094224D01*
X0032821Y0093625D02*
X0027969Y0093625D01*
X0027969Y0093027D02*
X0032222Y0093027D01*
X0031624Y0092428D02*
X0027969Y0092428D01*
X0027969Y0091830D02*
X0031191Y0091830D01*
X0030943Y0091231D02*
X0027969Y0091231D01*
X0027969Y0090633D02*
X0030695Y0090633D01*
X0030447Y0090034D02*
X0027969Y0090034D01*
X0027969Y0089436D02*
X0030280Y0089436D01*
X0030280Y0088837D02*
X0027969Y0088837D01*
X0027969Y0088239D02*
X0030280Y0088239D01*
X0030280Y0087640D02*
X0027969Y0087640D01*
X0027969Y0087042D02*
X0030280Y0087042D01*
X0030489Y0086443D02*
X0027969Y0086443D01*
X0027969Y0085845D02*
X0030737Y0085845D01*
X0030985Y0085246D02*
X0027969Y0085246D01*
X0027969Y0084648D02*
X0031232Y0084648D01*
X0031724Y0084049D02*
X0027969Y0084049D01*
X0027969Y0083451D02*
X0032323Y0083451D01*
X0032921Y0082852D02*
X0027969Y0082852D01*
X0027969Y0082253D02*
X0033963Y0082253D01*
X0035408Y0081655D02*
X0027969Y0081655D01*
X0039552Y0074473D02*
X0043422Y0074473D01*
X0044020Y0073874D02*
X0040913Y0073874D01*
X0041511Y0073276D02*
X0045359Y0073276D01*
X0042708Y0072079D02*
X0051430Y0072079D01*
X0051386Y0072035D02*
X0050358Y0069554D01*
X0050358Y0066868D01*
X0051386Y0064387D01*
X0053285Y0062489D01*
X0055766Y0061461D01*
X0058451Y0061461D01*
X0060932Y0062489D01*
X0062831Y0064387D01*
X0063858Y0066868D01*
X0063858Y0069554D01*
X0062831Y0072035D01*
X0060932Y0073933D01*
X0058451Y0074961D01*
X0055766Y0074961D01*
X0053285Y0073933D01*
X0051386Y0072035D01*
X0051156Y0071480D02*
X0042982Y0071480D01*
X0043230Y0070882D02*
X0050908Y0070882D01*
X0050660Y0070283D02*
X0043478Y0070283D01*
X0043726Y0069685D02*
X0050413Y0069685D01*
X0050358Y0069086D02*
X0043780Y0069086D01*
X0043780Y0068488D02*
X0050358Y0068488D01*
X0050358Y0067889D02*
X0043780Y0067889D01*
X0043780Y0067291D02*
X0050358Y0067291D01*
X0050431Y0066692D02*
X0043707Y0066692D01*
X0043459Y0066094D02*
X0050679Y0066094D01*
X0050927Y0065495D02*
X0043212Y0065495D01*
X0042964Y0064897D02*
X0051175Y0064897D01*
X0051475Y0064298D02*
X0042663Y0064298D01*
X0042065Y0063700D02*
X0052074Y0063700D01*
X0052672Y0063101D02*
X0041466Y0063101D01*
X0040868Y0062503D02*
X0053271Y0062503D01*
X0054696Y0061904D02*
X0039443Y0061904D01*
X0042110Y0072677D02*
X0052029Y0072677D01*
X0052627Y0073276D02*
X0048779Y0073276D01*
X0050118Y0073874D02*
X0053226Y0073874D01*
X0054587Y0074473D02*
X0050717Y0074473D01*
X0051315Y0075071D02*
X0107269Y0075071D01*
X0107269Y0074473D02*
X0059629Y0074473D01*
X0060991Y0073874D02*
X0107269Y0073874D01*
X0107269Y0073276D02*
X0061589Y0073276D01*
X0062188Y0072677D02*
X0107269Y0072677D01*
X0107269Y0072079D02*
X0076539Y0072079D01*
X0076268Y0072350D02*
X0072871Y0072350D01*
X0070469Y0069948D01*
X0070469Y0066552D01*
X0072871Y0064150D01*
X0075417Y0064150D01*
X0076117Y0063450D01*
X0088571Y0063450D01*
X0090371Y0061650D01*
X0093768Y0061650D01*
X0095568Y0063450D01*
X0101071Y0063450D01*
X0102871Y0061650D01*
X0106268Y0061650D01*
X0108669Y0064052D01*
X0108669Y0066597D01*
X0110522Y0068450D01*
X0111869Y0069797D01*
X0111869Y0099797D01*
X0115522Y0103450D01*
X0126117Y0103450D01*
X0128519Y0101047D01*
X0129769Y0099797D01*
X0129769Y0099335D01*
X0129747Y0099326D01*
X0128593Y0098172D01*
X0127969Y0096666D01*
X0127969Y0089834D01*
X0128593Y0088328D01*
X0129747Y0087174D01*
X0131254Y0086550D01*
X0132885Y0086550D01*
X0134392Y0087174D01*
X0135545Y0088328D01*
X0136169Y0089834D01*
X0136169Y0096666D01*
X0135545Y0098172D01*
X0134392Y0099326D01*
X0134369Y0099335D01*
X0134369Y0101703D01*
X0131772Y0104300D01*
X0128022Y0108050D01*
X0113617Y0108050D01*
X0112269Y0106703D01*
X0107269Y0101703D01*
X0107269Y0071703D01*
X0105417Y0069850D01*
X0102871Y0069850D01*
X0101071Y0068050D01*
X0095568Y0068050D01*
X0093768Y0069850D01*
X0090371Y0069850D01*
X0088571Y0068050D01*
X0078669Y0068050D01*
X0078669Y0069948D01*
X0076268Y0072350D01*
X0077137Y0071480D02*
X0107047Y0071480D01*
X0106448Y0070882D02*
X0077736Y0070882D01*
X0078334Y0070283D02*
X0105850Y0070283D01*
X0102706Y0069685D02*
X0093933Y0069685D01*
X0094531Y0069086D02*
X0102107Y0069086D01*
X0101509Y0068488D02*
X0095130Y0068488D01*
X0090206Y0069685D02*
X0078669Y0069685D01*
X0078669Y0069086D02*
X0089607Y0069086D01*
X0089009Y0068488D02*
X0078669Y0068488D01*
X0072723Y0064298D02*
X0062741Y0064298D01*
X0063042Y0064897D02*
X0072124Y0064897D01*
X0071526Y0065495D02*
X0063289Y0065495D01*
X0063537Y0066094D02*
X0070927Y0066094D01*
X0070469Y0066692D02*
X0063785Y0066692D01*
X0063858Y0067291D02*
X0070469Y0067291D01*
X0070469Y0067889D02*
X0063858Y0067889D01*
X0063858Y0068488D02*
X0070469Y0068488D01*
X0070469Y0069086D02*
X0063858Y0069086D01*
X0063804Y0069685D02*
X0070469Y0069685D01*
X0070804Y0070283D02*
X0063556Y0070283D01*
X0063308Y0070882D02*
X0071403Y0070882D01*
X0072001Y0071480D02*
X0063060Y0071480D01*
X0062786Y0072079D02*
X0072600Y0072079D01*
X0065840Y0076268D02*
X0107269Y0076268D01*
X0107269Y0075670D02*
X0051683Y0075670D01*
X0051589Y0081056D02*
X0064123Y0081056D01*
X0064722Y0081655D02*
X0058731Y0081655D01*
X0060176Y0082253D02*
X0065320Y0082253D01*
X0065919Y0082852D02*
X0061217Y0082852D01*
X0061816Y0083451D02*
X0066517Y0083451D01*
X0067116Y0084049D02*
X0062414Y0084049D01*
X0062906Y0084648D02*
X0067714Y0084648D01*
X0068313Y0085246D02*
X0063154Y0085246D01*
X0063402Y0085845D02*
X0068911Y0085845D01*
X0069510Y0086443D02*
X0063650Y0086443D01*
X0063858Y0087042D02*
X0070108Y0087042D01*
X0070469Y0087640D02*
X0063858Y0087640D01*
X0063858Y0088239D02*
X0070469Y0088239D01*
X0070469Y0088837D02*
X0063858Y0088837D01*
X0063858Y0089436D02*
X0070469Y0089436D01*
X0070555Y0090034D02*
X0063692Y0090034D01*
X0063444Y0090633D02*
X0071154Y0090633D01*
X0071752Y0091231D02*
X0063196Y0091231D01*
X0062948Y0091830D02*
X0072351Y0091830D01*
X0076788Y0091830D02*
X0107269Y0091830D01*
X0107269Y0092428D02*
X0062515Y0092428D01*
X0061916Y0093027D02*
X0107269Y0093027D01*
X0107269Y0093625D02*
X0061318Y0093625D01*
X0060419Y0094224D02*
X0107269Y0094224D01*
X0107269Y0094822D02*
X0058974Y0094822D01*
X0077386Y0091231D02*
X0107269Y0091231D01*
X0107269Y0090633D02*
X0077985Y0090633D01*
X0078583Y0090034D02*
X0107269Y0090034D01*
X0107269Y0089436D02*
X0078669Y0089436D01*
X0078669Y0088837D02*
X0107269Y0088837D01*
X0107269Y0088239D02*
X0078669Y0088239D01*
X0078669Y0087640D02*
X0107269Y0087640D01*
X0107269Y0087042D02*
X0078669Y0087042D01*
X0078561Y0086443D02*
X0107269Y0086443D01*
X0107269Y0085845D02*
X0077962Y0085845D01*
X0077364Y0085246D02*
X0107269Y0085246D01*
X0107269Y0084648D02*
X0076765Y0084648D01*
X0073621Y0084049D02*
X0107269Y0084049D01*
X0107269Y0083451D02*
X0073022Y0083451D01*
X0072424Y0082852D02*
X0107269Y0082852D01*
X0107269Y0082253D02*
X0071825Y0082253D01*
X0071227Y0081655D02*
X0107269Y0081655D01*
X0107269Y0081056D02*
X0070628Y0081056D01*
X0070030Y0080458D02*
X0107269Y0080458D01*
X0107269Y0079859D02*
X0069431Y0079859D01*
X0068833Y0079261D02*
X0107269Y0079261D01*
X0107269Y0078662D02*
X0068234Y0078662D01*
X0067636Y0078064D02*
X0107269Y0078064D01*
X0107269Y0077465D02*
X0067037Y0077465D01*
X0066439Y0076867D02*
X0107269Y0076867D01*
X0111869Y0076867D02*
X0130200Y0076867D01*
X0130798Y0076268D02*
X0111869Y0076268D01*
X0111869Y0075670D02*
X0131397Y0075670D01*
X0131995Y0075071D02*
X0128501Y0075071D01*
X0128022Y0075550D02*
X0129369Y0074203D01*
X0134143Y0069429D01*
X0134392Y0069326D01*
X0135545Y0068172D01*
X0136169Y0066666D01*
X0136169Y0059834D01*
X0135545Y0058328D01*
X0134392Y0057174D01*
X0132885Y0056550D01*
X0131254Y0056550D01*
X0129747Y0057174D01*
X0128593Y0058328D01*
X0127969Y0059834D01*
X0127969Y0066666D01*
X0128593Y0068172D01*
X0128744Y0068323D01*
X0126117Y0070950D01*
X0120522Y0070950D01*
X0114369Y0064797D01*
X0114369Y0038050D01*
X0118571Y0038050D01*
X0120371Y0039850D01*
X0123768Y0039850D01*
X0126169Y0037448D01*
X0126169Y0034903D01*
X0129369Y0031703D01*
X0129369Y0020209D01*
X0129902Y0019989D01*
X0131308Y0018582D01*
X0132069Y0016745D01*
X0132069Y0014755D01*
X0131308Y0012918D01*
X0129902Y0011511D01*
X0128064Y0010750D01*
X0126075Y0010750D01*
X0124237Y0011511D01*
X0122830Y0012918D01*
X0122069Y0014755D01*
X0122069Y0016745D01*
X0122830Y0018582D01*
X0124237Y0019989D01*
X0124769Y0020209D01*
X0124769Y0029797D01*
X0122917Y0031650D01*
X0120371Y0031650D01*
X0118571Y0033450D01*
X0108068Y0033450D01*
X0106869Y0032252D01*
X0106869Y0024248D01*
X0108669Y0022448D01*
X0108669Y0019052D01*
X0106268Y0016650D01*
X0102871Y0016650D01*
X0100469Y0019052D01*
X0100469Y0022448D01*
X0102269Y0024248D01*
X0102269Y0032252D01*
X0100469Y0034052D01*
X0100469Y0037448D01*
X0102871Y0039850D01*
X0106268Y0039850D01*
X0108068Y0038050D01*
X0109769Y0038050D01*
X0109769Y0066703D01*
X0111117Y0068050D01*
X0118617Y0075550D01*
X0128022Y0075550D01*
X0129099Y0074473D02*
X0132594Y0074473D01*
X0133192Y0073874D02*
X0129698Y0073874D01*
X0130296Y0073276D02*
X0133791Y0073276D01*
X0134389Y0072677D02*
X0130895Y0072677D01*
X0131493Y0072079D02*
X0134988Y0072079D01*
X0135586Y0071480D02*
X0132092Y0071480D01*
X0132690Y0070882D02*
X0136185Y0070882D01*
X0136783Y0070283D02*
X0133289Y0070283D01*
X0133887Y0069685D02*
X0137382Y0069685D01*
X0137980Y0069086D02*
X0134631Y0069086D01*
X0135230Y0068488D02*
X0138579Y0068488D01*
X0138744Y0068323D02*
X0138593Y0068172D01*
X0137969Y0066666D01*
X0137969Y0059834D01*
X0138593Y0058328D01*
X0139747Y0057174D01*
X0141254Y0056550D01*
X0142885Y0056550D01*
X0144392Y0057174D01*
X0145545Y0058328D01*
X0146169Y0059834D01*
X0146169Y0066666D01*
X0145545Y0068172D01*
X0144392Y0069326D01*
X0144143Y0069429D01*
X0125395Y0088177D01*
X0125545Y0088328D01*
X0126169Y0089834D01*
X0126169Y0096666D01*
X0125545Y0098172D01*
X0124392Y0099326D01*
X0122885Y0099950D01*
X0121254Y0099950D01*
X0119747Y0099326D01*
X0118593Y0098172D01*
X0117969Y0096666D01*
X0117969Y0089834D01*
X0118593Y0088328D01*
X0119747Y0087174D01*
X0119995Y0087071D01*
X0121117Y0085950D01*
X0138744Y0068323D01*
X0138476Y0067889D02*
X0135662Y0067889D01*
X0135910Y0067291D02*
X0138228Y0067291D01*
X0137980Y0066692D02*
X0136158Y0066692D01*
X0136169Y0066094D02*
X0137969Y0066094D01*
X0137969Y0065495D02*
X0136169Y0065495D01*
X0136169Y0064897D02*
X0137969Y0064897D01*
X0137969Y0064298D02*
X0136169Y0064298D01*
X0136169Y0063700D02*
X0137969Y0063700D01*
X0137969Y0063101D02*
X0136169Y0063101D01*
X0136169Y0062503D02*
X0137969Y0062503D01*
X0137969Y0061904D02*
X0136169Y0061904D01*
X0136169Y0061306D02*
X0137969Y0061306D01*
X0137969Y0060707D02*
X0136169Y0060707D01*
X0136169Y0060109D02*
X0137969Y0060109D01*
X0138104Y0059510D02*
X0136035Y0059510D01*
X0135787Y0058912D02*
X0138352Y0058912D01*
X0138608Y0058313D02*
X0135531Y0058313D01*
X0134932Y0057715D02*
X0139206Y0057715D01*
X0139887Y0057116D02*
X0134251Y0057116D01*
X0129887Y0057116D02*
X0124369Y0057116D01*
X0124369Y0057165D02*
X0124392Y0057174D01*
X0125545Y0058328D01*
X0126169Y0059834D01*
X0126169Y0066666D01*
X0125545Y0068172D01*
X0124392Y0069326D01*
X0122885Y0069950D01*
X0121254Y0069950D01*
X0119747Y0069326D01*
X0118593Y0068172D01*
X0117969Y0066666D01*
X0117969Y0059834D01*
X0118593Y0058328D01*
X0119747Y0057174D01*
X0119769Y0057165D01*
X0119769Y0051748D01*
X0117969Y0049948D01*
X0117969Y0046552D01*
X0120371Y0044150D01*
X0123768Y0044150D01*
X0126169Y0046552D01*
X0126169Y0049948D01*
X0125168Y0050950D01*
X0149254Y0050950D01*
X0148169Y0049865D01*
X0148169Y0048550D01*
X0151769Y0048550D01*
X0151769Y0047950D01*
X0148169Y0047950D01*
X0148169Y0046635D01*
X0150454Y0044350D01*
X0151769Y0044350D01*
X0151769Y0047950D01*
X0152369Y0047950D01*
X0152369Y0044350D01*
X0153685Y0044350D01*
X0155969Y0046635D01*
X0155969Y0047950D01*
X0152369Y0047950D01*
X0152369Y0048550D01*
X0155969Y0048550D01*
X0155969Y0049865D01*
X0154885Y0050950D01*
X0195522Y0050950D01*
X0196869Y0052297D01*
X0228722Y0084150D01*
X0231268Y0084150D01*
X0233669Y0086552D01*
X0233669Y0089948D01*
X0231268Y0092350D01*
X0227871Y0092350D01*
X0225469Y0089948D01*
X0225469Y0087403D01*
X0193617Y0055550D01*
X0124369Y0055550D01*
X0124369Y0057165D01*
X0124369Y0056518D02*
X0194584Y0056518D01*
X0195183Y0057116D02*
X0184251Y0057116D01*
X0184392Y0057174D02*
X0185545Y0058328D01*
X0186169Y0059834D01*
X0186169Y0066666D01*
X0185545Y0068172D01*
X0184392Y0069326D01*
X0182885Y0069950D01*
X0181254Y0069950D01*
X0179747Y0069326D01*
X0178593Y0068172D01*
X0177969Y0066666D01*
X0177969Y0059834D01*
X0178593Y0058328D01*
X0179747Y0057174D01*
X0181254Y0056550D01*
X0182885Y0056550D01*
X0184392Y0057174D01*
X0184932Y0057715D02*
X0195781Y0057715D01*
X0196380Y0058313D02*
X0185531Y0058313D01*
X0185787Y0058912D02*
X0196978Y0058912D01*
X0197577Y0059510D02*
X0186035Y0059510D01*
X0186169Y0060109D02*
X0198175Y0060109D01*
X0198774Y0060707D02*
X0186169Y0060707D01*
X0186169Y0061306D02*
X0199372Y0061306D01*
X0199971Y0061904D02*
X0186169Y0061904D01*
X0186169Y0062503D02*
X0200569Y0062503D01*
X0201168Y0063101D02*
X0186169Y0063101D01*
X0186169Y0063700D02*
X0201766Y0063700D01*
X0202365Y0064298D02*
X0186169Y0064298D01*
X0186169Y0064897D02*
X0202963Y0064897D01*
X0203562Y0065495D02*
X0186169Y0065495D01*
X0186169Y0066094D02*
X0204160Y0066094D01*
X0204759Y0066692D02*
X0186158Y0066692D01*
X0185910Y0067291D02*
X0205357Y0067291D01*
X0205956Y0067889D02*
X0185662Y0067889D01*
X0185230Y0068488D02*
X0206554Y0068488D01*
X0207153Y0069086D02*
X0184631Y0069086D01*
X0183525Y0069685D02*
X0207751Y0069685D01*
X0208350Y0070283D02*
X0143289Y0070283D01*
X0143887Y0069685D02*
X0150613Y0069685D01*
X0151254Y0069950D02*
X0149747Y0069326D01*
X0148593Y0068172D01*
X0147969Y0066666D01*
X0147969Y0059834D01*
X0148593Y0058328D01*
X0149747Y0057174D01*
X0151254Y0056550D01*
X0152885Y0056550D01*
X0154392Y0057174D01*
X0155545Y0058328D01*
X0156169Y0059834D01*
X0156169Y0066666D01*
X0155545Y0068172D01*
X0154392Y0069326D01*
X0152885Y0069950D01*
X0151254Y0069950D01*
X0149507Y0069086D02*
X0144631Y0069086D01*
X0145230Y0068488D02*
X0148909Y0068488D01*
X0148476Y0067889D02*
X0145662Y0067889D01*
X0145910Y0067291D02*
X0148228Y0067291D01*
X0147980Y0066692D02*
X0146158Y0066692D01*
X0146169Y0066094D02*
X0147969Y0066094D01*
X0147969Y0065495D02*
X0146169Y0065495D01*
X0146169Y0064897D02*
X0147969Y0064897D01*
X0147969Y0064298D02*
X0146169Y0064298D01*
X0146169Y0063700D02*
X0147969Y0063700D01*
X0147969Y0063101D02*
X0146169Y0063101D01*
X0146169Y0062503D02*
X0147969Y0062503D01*
X0147969Y0061904D02*
X0146169Y0061904D01*
X0146169Y0061306D02*
X0147969Y0061306D01*
X0147969Y0060707D02*
X0146169Y0060707D01*
X0146169Y0060109D02*
X0147969Y0060109D01*
X0148104Y0059510D02*
X0146035Y0059510D01*
X0145787Y0058912D02*
X0148352Y0058912D01*
X0148608Y0058313D02*
X0145531Y0058313D01*
X0144932Y0057715D02*
X0149206Y0057715D01*
X0149887Y0057116D02*
X0144251Y0057116D01*
X0154251Y0057116D02*
X0159887Y0057116D01*
X0159747Y0057174D02*
X0161254Y0056550D01*
X0162885Y0056550D01*
X0164392Y0057174D01*
X0165545Y0058328D01*
X0166169Y0059834D01*
X0166169Y0066666D01*
X0165545Y0068172D01*
X0164392Y0069326D01*
X0162885Y0069950D01*
X0161254Y0069950D01*
X0159747Y0069326D01*
X0158593Y0068172D01*
X0157969Y0066666D01*
X0157969Y0059834D01*
X0158593Y0058328D01*
X0159747Y0057174D01*
X0159206Y0057715D02*
X0154932Y0057715D01*
X0155531Y0058313D02*
X0158608Y0058313D01*
X0158352Y0058912D02*
X0155787Y0058912D01*
X0156035Y0059510D02*
X0158104Y0059510D01*
X0157969Y0060109D02*
X0156169Y0060109D01*
X0156169Y0060707D02*
X0157969Y0060707D01*
X0157969Y0061306D02*
X0156169Y0061306D01*
X0156169Y0061904D02*
X0157969Y0061904D01*
X0157969Y0062503D02*
X0156169Y0062503D01*
X0156169Y0063101D02*
X0157969Y0063101D01*
X0157969Y0063700D02*
X0156169Y0063700D01*
X0156169Y0064298D02*
X0157969Y0064298D01*
X0157969Y0064897D02*
X0156169Y0064897D01*
X0156169Y0065495D02*
X0157969Y0065495D01*
X0157969Y0066094D02*
X0156169Y0066094D01*
X0156158Y0066692D02*
X0157980Y0066692D01*
X0158228Y0067291D02*
X0155910Y0067291D01*
X0155662Y0067889D02*
X0158476Y0067889D01*
X0158909Y0068488D02*
X0155230Y0068488D01*
X0154631Y0069086D02*
X0159507Y0069086D01*
X0160613Y0069685D02*
X0153525Y0069685D01*
X0163525Y0069685D02*
X0170613Y0069685D01*
X0171254Y0069950D02*
X0169747Y0069326D01*
X0168593Y0068172D01*
X0167969Y0066666D01*
X0167969Y0059834D01*
X0168593Y0058328D01*
X0169747Y0057174D01*
X0171254Y0056550D01*
X0172885Y0056550D01*
X0174392Y0057174D01*
X0175545Y0058328D01*
X0176169Y0059834D01*
X0176169Y0066666D01*
X0175545Y0068172D01*
X0174392Y0069326D01*
X0172885Y0069950D01*
X0171254Y0069950D01*
X0169507Y0069086D02*
X0164631Y0069086D01*
X0165230Y0068488D02*
X0168909Y0068488D01*
X0168476Y0067889D02*
X0165662Y0067889D01*
X0165910Y0067291D02*
X0168228Y0067291D01*
X0167980Y0066692D02*
X0166158Y0066692D01*
X0166169Y0066094D02*
X0167969Y0066094D01*
X0167969Y0065495D02*
X0166169Y0065495D01*
X0166169Y0064897D02*
X0167969Y0064897D01*
X0167969Y0064298D02*
X0166169Y0064298D01*
X0166169Y0063700D02*
X0167969Y0063700D01*
X0167969Y0063101D02*
X0166169Y0063101D01*
X0166169Y0062503D02*
X0167969Y0062503D01*
X0167969Y0061904D02*
X0166169Y0061904D01*
X0166169Y0061306D02*
X0167969Y0061306D01*
X0167969Y0060707D02*
X0166169Y0060707D01*
X0166169Y0060109D02*
X0167969Y0060109D01*
X0168104Y0059510D02*
X0166035Y0059510D01*
X0165787Y0058912D02*
X0168352Y0058912D01*
X0168608Y0058313D02*
X0165531Y0058313D01*
X0164932Y0057715D02*
X0169206Y0057715D01*
X0169887Y0057116D02*
X0164251Y0057116D01*
X0174251Y0057116D02*
X0179887Y0057116D01*
X0179206Y0057715D02*
X0174932Y0057715D01*
X0175531Y0058313D02*
X0178608Y0058313D01*
X0178352Y0058912D02*
X0175787Y0058912D01*
X0176035Y0059510D02*
X0178104Y0059510D01*
X0177969Y0060109D02*
X0176169Y0060109D01*
X0176169Y0060707D02*
X0177969Y0060707D01*
X0177969Y0061306D02*
X0176169Y0061306D01*
X0176169Y0061904D02*
X0177969Y0061904D01*
X0177969Y0062503D02*
X0176169Y0062503D01*
X0176169Y0063101D02*
X0177969Y0063101D01*
X0177969Y0063700D02*
X0176169Y0063700D01*
X0176169Y0064298D02*
X0177969Y0064298D01*
X0177969Y0064897D02*
X0176169Y0064897D01*
X0176169Y0065495D02*
X0177969Y0065495D01*
X0177969Y0066094D02*
X0176169Y0066094D01*
X0176158Y0066692D02*
X0177980Y0066692D01*
X0178228Y0067291D02*
X0175910Y0067291D01*
X0175662Y0067889D02*
X0178476Y0067889D01*
X0178909Y0068488D02*
X0175230Y0068488D01*
X0174631Y0069086D02*
X0179507Y0069086D01*
X0180613Y0069685D02*
X0173525Y0069685D01*
X0193986Y0055919D02*
X0124369Y0055919D01*
X0124932Y0057715D02*
X0129206Y0057715D01*
X0128608Y0058313D02*
X0125531Y0058313D01*
X0125787Y0058912D02*
X0128352Y0058912D01*
X0128104Y0059510D02*
X0126035Y0059510D01*
X0126169Y0060109D02*
X0127969Y0060109D01*
X0127969Y0060707D02*
X0126169Y0060707D01*
X0126169Y0061306D02*
X0127969Y0061306D01*
X0127969Y0061904D02*
X0126169Y0061904D01*
X0126169Y0062503D02*
X0127969Y0062503D01*
X0127969Y0063101D02*
X0126169Y0063101D01*
X0126169Y0063700D02*
X0127969Y0063700D01*
X0127969Y0064298D02*
X0126169Y0064298D01*
X0126169Y0064897D02*
X0127969Y0064897D01*
X0127969Y0065495D02*
X0126169Y0065495D01*
X0126169Y0066094D02*
X0127969Y0066094D01*
X0127980Y0066692D02*
X0126158Y0066692D01*
X0125910Y0067291D02*
X0128228Y0067291D01*
X0128476Y0067889D02*
X0125662Y0067889D01*
X0125230Y0068488D02*
X0128579Y0068488D01*
X0127980Y0069086D02*
X0124631Y0069086D01*
X0123525Y0069685D02*
X0127382Y0069685D01*
X0126783Y0070283D02*
X0119855Y0070283D01*
X0119257Y0069685D02*
X0120613Y0069685D01*
X0120454Y0070882D02*
X0126185Y0070882D01*
X0119507Y0069086D02*
X0118658Y0069086D01*
X0118909Y0068488D02*
X0118060Y0068488D01*
X0118476Y0067889D02*
X0117461Y0067889D01*
X0116863Y0067291D02*
X0118228Y0067291D01*
X0117980Y0066692D02*
X0116264Y0066692D01*
X0115666Y0066094D02*
X0117969Y0066094D01*
X0117969Y0065495D02*
X0115067Y0065495D01*
X0114469Y0064897D02*
X0117969Y0064897D01*
X0117969Y0064298D02*
X0114369Y0064298D01*
X0114369Y0063700D02*
X0117969Y0063700D01*
X0117969Y0063101D02*
X0114369Y0063101D01*
X0114369Y0062503D02*
X0117969Y0062503D01*
X0117969Y0061904D02*
X0114369Y0061904D01*
X0114369Y0061306D02*
X0117969Y0061306D01*
X0117969Y0060707D02*
X0114369Y0060707D01*
X0114369Y0060109D02*
X0117969Y0060109D01*
X0118104Y0059510D02*
X0114369Y0059510D01*
X0114369Y0058912D02*
X0118352Y0058912D01*
X0118608Y0058313D02*
X0114369Y0058313D01*
X0114369Y0057715D02*
X0119206Y0057715D01*
X0119769Y0057116D02*
X0114369Y0057116D01*
X0114369Y0056518D02*
X0119769Y0056518D01*
X0119769Y0055919D02*
X0114369Y0055919D01*
X0114369Y0055320D02*
X0119769Y0055320D01*
X0119769Y0054722D02*
X0114369Y0054722D01*
X0114369Y0054123D02*
X0119769Y0054123D01*
X0119769Y0053525D02*
X0114369Y0053525D01*
X0114369Y0052926D02*
X0119769Y0052926D01*
X0119769Y0052328D02*
X0114369Y0052328D01*
X0114369Y0051729D02*
X0119750Y0051729D01*
X0119152Y0051131D02*
X0114369Y0051131D01*
X0114369Y0050532D02*
X0118553Y0050532D01*
X0117969Y0049934D02*
X0114369Y0049934D01*
X0114369Y0049335D02*
X0117969Y0049335D01*
X0117969Y0048737D02*
X0114369Y0048737D01*
X0114369Y0048138D02*
X0117969Y0048138D01*
X0117969Y0047540D02*
X0114369Y0047540D01*
X0114369Y0046941D02*
X0117969Y0046941D01*
X0118178Y0046343D02*
X0114369Y0046343D01*
X0114369Y0045744D02*
X0118777Y0045744D01*
X0119375Y0045146D02*
X0114369Y0045146D01*
X0114369Y0044547D02*
X0119974Y0044547D01*
X0124165Y0044547D02*
X0150257Y0044547D01*
X0149658Y0045146D02*
X0124763Y0045146D01*
X0125362Y0045744D02*
X0149060Y0045744D01*
X0148461Y0046343D02*
X0125960Y0046343D01*
X0126169Y0046941D02*
X0148169Y0046941D01*
X0148169Y0047540D02*
X0126169Y0047540D01*
X0126169Y0048138D02*
X0151769Y0048138D01*
X0151769Y0047540D02*
X0152369Y0047540D01*
X0152369Y0048138D02*
X0276169Y0048138D01*
X0276169Y0047540D02*
X0155969Y0047540D01*
X0155969Y0046941D02*
X0276169Y0046941D01*
X0276169Y0046343D02*
X0155678Y0046343D01*
X0155079Y0045744D02*
X0276169Y0045744D01*
X0276169Y0045146D02*
X0154480Y0045146D01*
X0153882Y0044547D02*
X0276169Y0044547D01*
X0276169Y0043949D02*
X0114369Y0043949D01*
X0114369Y0043350D02*
X0276169Y0043350D01*
X0276169Y0042752D02*
X0114369Y0042752D01*
X0114369Y0042153D02*
X0276169Y0042153D01*
X0276169Y0041555D02*
X0114369Y0041555D01*
X0114369Y0040956D02*
X0276169Y0040956D01*
X0276169Y0040358D02*
X0114369Y0040358D01*
X0114369Y0039759D02*
X0120280Y0039759D01*
X0119682Y0039161D02*
X0114369Y0039161D01*
X0114369Y0038562D02*
X0119083Y0038562D01*
X0123858Y0039759D02*
X0276169Y0039759D01*
X0276169Y0039161D02*
X0154174Y0039161D01*
X0153685Y0039650D02*
X0152369Y0039650D01*
X0152369Y0036050D01*
X0151769Y0036050D01*
X0151769Y0035450D01*
X0148169Y0035450D01*
X0148169Y0034135D01*
X0150454Y0031850D01*
X0151769Y0031850D01*
X0151769Y0035450D01*
X0152369Y0035450D01*
X0152369Y0031850D01*
X0153685Y0031850D01*
X0155969Y0034135D01*
X0155969Y0035450D01*
X0152369Y0035450D01*
X0152369Y0036050D01*
X0155969Y0036050D01*
X0155969Y0037365D01*
X0276169Y0037365D01*
X0276169Y0036767D02*
X0155969Y0036767D01*
X0155969Y0037365D02*
X0153685Y0039650D01*
X0152369Y0039161D02*
X0151769Y0039161D01*
X0151769Y0039650D02*
X0150454Y0039650D01*
X0148169Y0037365D01*
X0126169Y0037365D01*
X0126169Y0036767D02*
X0148169Y0036767D01*
X0148169Y0037365D02*
X0148169Y0036050D01*
X0151769Y0036050D01*
X0151769Y0039650D01*
X0151769Y0038562D02*
X0152369Y0038562D01*
X0152369Y0037964D02*
X0151769Y0037964D01*
X0151769Y0037365D02*
X0152369Y0037365D01*
X0152369Y0036767D02*
X0151769Y0036767D01*
X0151769Y0036168D02*
X0152369Y0036168D01*
X0152369Y0035570D02*
X0276169Y0035570D01*
X0276169Y0036168D02*
X0155969Y0036168D01*
X0155969Y0034971D02*
X0276169Y0034971D01*
X0276169Y0034373D02*
X0155969Y0034373D01*
X0155609Y0033774D02*
X0276169Y0033774D01*
X0276169Y0033176D02*
X0155010Y0033176D01*
X0154412Y0032577D02*
X0276169Y0032577D01*
X0276169Y0031979D02*
X0153813Y0031979D01*
X0152369Y0031979D02*
X0151769Y0031979D01*
X0151769Y0032577D02*
X0152369Y0032577D01*
X0152369Y0033176D02*
X0151769Y0033176D01*
X0151769Y0033774D02*
X0152369Y0033774D01*
X0152369Y0034373D02*
X0151769Y0034373D01*
X0151769Y0034971D02*
X0152369Y0034971D01*
X0151769Y0035570D02*
X0126169Y0035570D01*
X0126169Y0036168D02*
X0148169Y0036168D01*
X0148169Y0034971D02*
X0126169Y0034971D01*
X0126699Y0034373D02*
X0148169Y0034373D01*
X0148530Y0033774D02*
X0127298Y0033774D01*
X0127896Y0033176D02*
X0149128Y0033176D01*
X0149727Y0032577D02*
X0128495Y0032577D01*
X0129093Y0031979D02*
X0150325Y0031979D01*
X0148768Y0037964D02*
X0125654Y0037964D01*
X0125055Y0038562D02*
X0149366Y0038562D01*
X0149965Y0039161D02*
X0124457Y0039161D01*
X0118845Y0033176D02*
X0107793Y0033176D01*
X0107195Y0032577D02*
X0119444Y0032577D01*
X0120042Y0031979D02*
X0106869Y0031979D01*
X0106869Y0031380D02*
X0123187Y0031380D01*
X0123785Y0030782D02*
X0106869Y0030782D01*
X0106869Y0030183D02*
X0124384Y0030183D01*
X0124769Y0029584D02*
X0106869Y0029584D01*
X0106869Y0028986D02*
X0124769Y0028986D01*
X0124769Y0028387D02*
X0106869Y0028387D01*
X0106869Y0027789D02*
X0124769Y0027789D01*
X0124769Y0027190D02*
X0106869Y0027190D01*
X0106869Y0026592D02*
X0124769Y0026592D01*
X0124769Y0025993D02*
X0106869Y0025993D01*
X0106869Y0025395D02*
X0124769Y0025395D01*
X0124769Y0024796D02*
X0106869Y0024796D01*
X0106920Y0024198D02*
X0124769Y0024198D01*
X0124769Y0023599D02*
X0107518Y0023599D01*
X0108117Y0023001D02*
X0124769Y0023001D01*
X0124769Y0022402D02*
X0108669Y0022402D01*
X0108669Y0021804D02*
X0124769Y0021804D01*
X0124769Y0021205D02*
X0108669Y0021205D01*
X0108669Y0020607D02*
X0124769Y0020607D01*
X0124284Y0020008D02*
X0108669Y0020008D01*
X0108669Y0019410D02*
X0123658Y0019410D01*
X0123060Y0018811D02*
X0108429Y0018811D01*
X0107830Y0018213D02*
X0122677Y0018213D01*
X0122430Y0017614D02*
X0107232Y0017614D01*
X0106633Y0017016D02*
X0122182Y0017016D01*
X0122069Y0016417D02*
X0055037Y0016417D01*
X0055069Y0017016D02*
X0082505Y0017016D01*
X0082871Y0016650D02*
X0086268Y0016650D01*
X0088669Y0019052D01*
X0088669Y0022448D01*
X0086268Y0024850D01*
X0082871Y0024850D01*
X0080469Y0022448D01*
X0080469Y0019052D01*
X0082871Y0016650D01*
X0081907Y0017614D02*
X0055069Y0017614D01*
X0055069Y0018213D02*
X0081308Y0018213D01*
X0080710Y0018811D02*
X0055069Y0018811D01*
X0055069Y0019410D02*
X0080469Y0019410D01*
X0080469Y0020008D02*
X0055057Y0020008D01*
X0054896Y0020607D02*
X0080469Y0020607D01*
X0080469Y0021205D02*
X0054736Y0021205D01*
X0054576Y0021804D02*
X0080469Y0021804D01*
X0080469Y0022402D02*
X0054415Y0022402D01*
X0054255Y0023001D02*
X0081022Y0023001D01*
X0081620Y0023599D02*
X0053992Y0023599D01*
X0053646Y0024198D02*
X0082219Y0024198D01*
X0082817Y0024796D02*
X0053301Y0024796D01*
X0052955Y0025395D02*
X0102269Y0025395D01*
X0102269Y0025993D02*
X0052610Y0025993D01*
X0052112Y0026592D02*
X0102269Y0026592D01*
X0102269Y0027190D02*
X0051514Y0027190D01*
X0050915Y0027789D02*
X0102269Y0027789D01*
X0102269Y0028387D02*
X0050317Y0028387D01*
X0049474Y0028986D02*
X0102269Y0028986D01*
X0102269Y0029584D02*
X0048437Y0029584D01*
X0047401Y0030183D02*
X0102269Y0030183D01*
X0102269Y0031979D02*
X0094096Y0031979D01*
X0094695Y0032577D02*
X0101944Y0032577D01*
X0101345Y0033176D02*
X0095293Y0033176D01*
X0095892Y0033774D02*
X0100747Y0033774D01*
X0100469Y0034373D02*
X0096169Y0034373D01*
X0096169Y0034971D02*
X0100469Y0034971D01*
X0100469Y0035570D02*
X0096169Y0035570D01*
X0096169Y0036168D02*
X0100469Y0036168D01*
X0100469Y0036767D02*
X0096169Y0036767D01*
X0096169Y0037365D02*
X0100469Y0037365D01*
X0100985Y0037964D02*
X0095654Y0037964D01*
X0095055Y0038562D02*
X0101583Y0038562D01*
X0102182Y0039161D02*
X0094457Y0039161D01*
X0093858Y0039759D02*
X0102780Y0039759D01*
X0106358Y0039759D02*
X0109769Y0039759D01*
X0109769Y0039161D02*
X0106957Y0039161D01*
X0107555Y0038562D02*
X0109769Y0038562D01*
X0129369Y0031380D02*
X0276169Y0031380D01*
X0276169Y0030782D02*
X0265529Y0030782D01*
X0267087Y0030364D02*
X0263781Y0031250D01*
X0260358Y0031250D01*
X0257051Y0030364D01*
X0254087Y0028653D01*
X0251667Y0026232D01*
X0249955Y0023268D01*
X0249069Y0019961D01*
X0249069Y0016539D01*
X0249955Y0013232D01*
X0251667Y0010268D01*
X0254087Y0007847D01*
X0257051Y0006136D01*
X0260358Y0005250D01*
X0263781Y0005250D01*
X0267087Y0006136D01*
X0270051Y0007847D01*
X0272472Y0010268D01*
X0274183Y0013232D01*
X0275069Y0016539D01*
X0275069Y0019961D01*
X0274183Y0023268D01*
X0272472Y0026232D01*
X0270051Y0028653D01*
X0267087Y0030364D01*
X0267401Y0030183D02*
X0276169Y0030183D01*
X0276169Y0029584D02*
X0268437Y0029584D01*
X0269474Y0028986D02*
X0276169Y0028986D01*
X0276169Y0028387D02*
X0270317Y0028387D01*
X0270915Y0027789D02*
X0276169Y0027789D01*
X0276169Y0027190D02*
X0271514Y0027190D01*
X0272112Y0026592D02*
X0276169Y0026592D01*
X0276169Y0025993D02*
X0272610Y0025993D01*
X0272955Y0025395D02*
X0276169Y0025395D01*
X0276169Y0024796D02*
X0273301Y0024796D01*
X0273646Y0024198D02*
X0276169Y0024198D01*
X0276169Y0023599D02*
X0273992Y0023599D01*
X0274255Y0023001D02*
X0276169Y0023001D01*
X0276169Y0022402D02*
X0274415Y0022402D01*
X0274576Y0021804D02*
X0276169Y0021804D01*
X0276169Y0021205D02*
X0274736Y0021205D01*
X0274896Y0020607D02*
X0276169Y0020607D01*
X0276169Y0020008D02*
X0275057Y0020008D01*
X0275069Y0019410D02*
X0276169Y0019410D01*
X0276169Y0018811D02*
X0275069Y0018811D01*
X0275069Y0018213D02*
X0276167Y0018213D01*
X0276128Y0017614D02*
X0275069Y0017614D01*
X0275069Y0017016D02*
X0276088Y0017016D01*
X0276049Y0016417D02*
X0275037Y0016417D01*
X0274876Y0015819D02*
X0275890Y0015819D01*
X0275730Y0015220D02*
X0274716Y0015220D01*
X0274556Y0014622D02*
X0275570Y0014622D01*
X0275409Y0014023D02*
X0274395Y0014023D01*
X0274235Y0013425D02*
X0275249Y0013425D01*
X0275080Y0012826D02*
X0273949Y0012826D01*
X0273603Y0012228D02*
X0274734Y0012228D01*
X0274389Y0011629D02*
X0273258Y0011629D01*
X0272912Y0011031D02*
X0274043Y0011031D01*
X0273698Y0010432D02*
X0272567Y0010432D01*
X0272038Y0009834D02*
X0273352Y0009834D01*
X0272824Y0009235D02*
X0271439Y0009235D01*
X0270841Y0008637D02*
X0272226Y0008637D01*
X0271627Y0008038D02*
X0270242Y0008038D01*
X0271029Y0007440D02*
X0269345Y0007440D01*
X0270267Y0006841D02*
X0268308Y0006841D01*
X0269231Y0006243D02*
X0267272Y0006243D01*
X0268194Y0005644D02*
X0265251Y0005644D01*
X0264568Y0004447D02*
X0039571Y0004447D01*
X0038887Y0005644D02*
X0035945Y0005644D01*
X0036867Y0006243D02*
X0034908Y0006243D01*
X0035830Y0006841D02*
X0033871Y0006841D01*
X0033110Y0007440D02*
X0034793Y0007440D01*
X0033896Y0008038D02*
X0032511Y0008038D01*
X0031913Y0008637D02*
X0033298Y0008637D01*
X0032699Y0009235D02*
X0031314Y0009235D01*
X0030786Y0009834D02*
X0032101Y0009834D01*
X0031572Y0010432D02*
X0030441Y0010432D01*
X0030095Y0011031D02*
X0031226Y0011031D01*
X0030881Y0011629D02*
X0029750Y0011629D01*
X0029404Y0012228D02*
X0030535Y0012228D01*
X0030190Y0012826D02*
X0029059Y0012826D01*
X0028890Y0013425D02*
X0029904Y0013425D01*
X0029743Y0014023D02*
X0028729Y0014023D01*
X0028569Y0014622D02*
X0029583Y0014622D01*
X0029423Y0015220D02*
X0028409Y0015220D01*
X0028248Y0015819D02*
X0029262Y0015819D01*
X0048308Y0006841D02*
X0255830Y0006841D01*
X0254793Y0007440D02*
X0049345Y0007440D01*
X0050242Y0008038D02*
X0253896Y0008038D01*
X0253298Y0008637D02*
X0050841Y0008637D01*
X0051439Y0009235D02*
X0252699Y0009235D01*
X0252101Y0009834D02*
X0052038Y0009834D01*
X0052567Y0010432D02*
X0251572Y0010432D01*
X0251226Y0011031D02*
X0177956Y0011031D01*
X0178193Y0011068D02*
X0178912Y0011302D01*
X0179585Y0011645D01*
X0180196Y0012089D01*
X0180731Y0012623D01*
X0181175Y0013234D01*
X0181518Y0013907D01*
X0181751Y0014626D01*
X0181869Y0015372D01*
X0181869Y0015450D01*
X0177369Y0015450D01*
X0177369Y0010950D01*
X0177447Y0010950D01*
X0178193Y0011068D01*
X0177369Y0011031D02*
X0176769Y0011031D01*
X0176769Y0010950D02*
X0176769Y0015450D01*
X0172269Y0015450D01*
X0172269Y0015372D01*
X0172387Y0014626D01*
X0172621Y0013907D01*
X0172964Y0013234D01*
X0173408Y0012623D01*
X0173942Y0012089D01*
X0174554Y0011645D01*
X0175227Y0011302D01*
X0175945Y0011068D01*
X0176692Y0010950D01*
X0176769Y0010950D01*
X0176182Y0011031D02*
X0153741Y0011031D01*
X0153064Y0010750D02*
X0154902Y0011511D01*
X0156308Y0012918D01*
X0157069Y0014755D01*
X0157069Y0016745D01*
X0156308Y0018582D01*
X0154902Y0019989D01*
X0153064Y0020750D01*
X0151075Y0020750D01*
X0149237Y0019989D01*
X0147830Y0018582D01*
X0147069Y0016745D01*
X0147069Y0014755D01*
X0147830Y0012918D01*
X0149237Y0011511D01*
X0151075Y0010750D01*
X0153064Y0010750D01*
X0155020Y0011629D02*
X0174584Y0011629D01*
X0173803Y0012228D02*
X0155618Y0012228D01*
X0156217Y0012826D02*
X0173260Y0012826D01*
X0172867Y0013425D02*
X0156518Y0013425D01*
X0156766Y0014023D02*
X0172583Y0014023D01*
X0172389Y0014622D02*
X0157014Y0014622D01*
X0157069Y0015220D02*
X0172293Y0015220D01*
X0172269Y0016050D02*
X0176769Y0016050D01*
X0176769Y0015450D01*
X0177369Y0015450D01*
X0177369Y0016050D01*
X0176769Y0016050D01*
X0176769Y0020550D01*
X0176692Y0020550D01*
X0175945Y0020432D01*
X0175227Y0020198D01*
X0174554Y0019855D01*
X0173942Y0019411D01*
X0173408Y0018877D01*
X0172964Y0018266D01*
X0172621Y0017593D01*
X0172387Y0016874D01*
X0172269Y0016128D01*
X0172269Y0016050D01*
X0172315Y0016417D02*
X0157069Y0016417D01*
X0157069Y0015819D02*
X0176769Y0015819D01*
X0176769Y0016417D02*
X0177369Y0016417D01*
X0177369Y0016050D02*
X0177369Y0020550D01*
X0177447Y0020550D01*
X0178193Y0020432D01*
X0178912Y0020198D01*
X0179585Y0019855D01*
X0180196Y0019411D01*
X0180731Y0018877D01*
X0181175Y0018266D01*
X0181518Y0017593D01*
X0181751Y0016874D01*
X0181869Y0016128D01*
X0181869Y0016050D01*
X0177369Y0016050D01*
X0177369Y0015819D02*
X0249262Y0015819D01*
X0249102Y0016417D02*
X0181823Y0016417D01*
X0181705Y0017016D02*
X0249069Y0017016D01*
X0249069Y0017614D02*
X0181507Y0017614D01*
X0181202Y0018213D02*
X0249069Y0018213D01*
X0249069Y0018811D02*
X0180778Y0018811D01*
X0180198Y0019410D02*
X0249069Y0019410D01*
X0249082Y0020008D02*
X0179285Y0020008D01*
X0177369Y0020008D02*
X0176769Y0020008D01*
X0176769Y0019410D02*
X0177369Y0019410D01*
X0177369Y0018811D02*
X0176769Y0018811D01*
X0176769Y0018213D02*
X0177369Y0018213D01*
X0177369Y0017614D02*
X0176769Y0017614D01*
X0176769Y0017016D02*
X0177369Y0017016D01*
X0177369Y0015220D02*
X0176769Y0015220D01*
X0176769Y0014622D02*
X0177369Y0014622D01*
X0177369Y0014023D02*
X0176769Y0014023D01*
X0176769Y0013425D02*
X0177369Y0013425D01*
X0177369Y0012826D02*
X0176769Y0012826D01*
X0176769Y0012228D02*
X0177369Y0012228D01*
X0177369Y0011629D02*
X0176769Y0011629D01*
X0179555Y0011629D02*
X0250881Y0011629D01*
X0250535Y0012228D02*
X0180335Y0012228D01*
X0180878Y0012826D02*
X0250190Y0012826D01*
X0249904Y0013425D02*
X0181272Y0013425D01*
X0181555Y0014023D02*
X0249743Y0014023D01*
X0249583Y0014622D02*
X0181750Y0014622D01*
X0181845Y0015220D02*
X0249423Y0015220D01*
X0249242Y0020607D02*
X0153409Y0020607D01*
X0154854Y0020008D02*
X0174854Y0020008D01*
X0173941Y0019410D02*
X0155481Y0019410D01*
X0156079Y0018811D02*
X0173360Y0018811D01*
X0172937Y0018213D02*
X0156461Y0018213D01*
X0156709Y0017614D02*
X0172632Y0017614D01*
X0172434Y0017016D02*
X0156957Y0017016D01*
X0149284Y0020008D02*
X0129854Y0020008D01*
X0129369Y0020607D02*
X0150729Y0020607D01*
X0148658Y0019410D02*
X0130481Y0019410D01*
X0131079Y0018811D02*
X0148060Y0018811D01*
X0147677Y0018213D02*
X0131461Y0018213D01*
X0131709Y0017614D02*
X0147430Y0017614D01*
X0147182Y0017016D02*
X0131957Y0017016D01*
X0132069Y0016417D02*
X0147069Y0016417D01*
X0147069Y0015819D02*
X0132069Y0015819D01*
X0132069Y0015220D02*
X0147069Y0015220D01*
X0147125Y0014622D02*
X0132014Y0014622D01*
X0131766Y0014023D02*
X0147373Y0014023D01*
X0147620Y0013425D02*
X0131518Y0013425D01*
X0131217Y0012826D02*
X0147922Y0012826D01*
X0148521Y0012228D02*
X0130618Y0012228D01*
X0130020Y0011629D02*
X0149119Y0011629D01*
X0150397Y0011031D02*
X0128741Y0011031D01*
X0125397Y0011031D02*
X0052912Y0011031D01*
X0053258Y0011629D02*
X0124119Y0011629D01*
X0123521Y0012228D02*
X0053603Y0012228D01*
X0053949Y0012826D02*
X0122922Y0012826D01*
X0122620Y0013425D02*
X0054235Y0013425D01*
X0054395Y0014023D02*
X0122373Y0014023D01*
X0122125Y0014622D02*
X0054556Y0014622D01*
X0054716Y0015220D02*
X0122069Y0015220D01*
X0122069Y0015819D02*
X0054876Y0015819D01*
X0047272Y0006243D02*
X0256867Y0006243D01*
X0258887Y0005644D02*
X0045251Y0005644D01*
X0037337Y0005046D02*
X0266802Y0005046D01*
X0249403Y0021205D02*
X0129369Y0021205D01*
X0129369Y0021804D02*
X0249563Y0021804D01*
X0249723Y0022402D02*
X0129369Y0022402D01*
X0129369Y0023001D02*
X0249884Y0023001D01*
X0250147Y0023599D02*
X0129369Y0023599D01*
X0129369Y0024198D02*
X0250492Y0024198D01*
X0250838Y0024796D02*
X0129369Y0024796D01*
X0129369Y0025395D02*
X0251183Y0025395D01*
X0251529Y0025993D02*
X0129369Y0025993D01*
X0129369Y0026592D02*
X0252026Y0026592D01*
X0252625Y0027190D02*
X0129369Y0027190D01*
X0129369Y0027789D02*
X0253223Y0027789D01*
X0253822Y0028387D02*
X0129369Y0028387D01*
X0129369Y0028986D02*
X0254665Y0028986D01*
X0255701Y0029584D02*
X0129369Y0029584D01*
X0129369Y0030183D02*
X0256738Y0030183D01*
X0258609Y0030782D02*
X0129369Y0030782D01*
X0154773Y0038562D02*
X0276169Y0038562D01*
X0276169Y0037964D02*
X0155371Y0037964D01*
X0152369Y0044547D02*
X0151769Y0044547D01*
X0151769Y0045146D02*
X0152369Y0045146D01*
X0152369Y0045744D02*
X0151769Y0045744D01*
X0151769Y0046343D02*
X0152369Y0046343D01*
X0152369Y0046941D02*
X0151769Y0046941D01*
X0148169Y0048737D02*
X0126169Y0048737D01*
X0126169Y0049335D02*
X0148169Y0049335D01*
X0148238Y0049934D02*
X0126169Y0049934D01*
X0125585Y0050532D02*
X0148836Y0050532D01*
X0155302Y0050532D02*
X0276169Y0050532D01*
X0276169Y0049934D02*
X0155901Y0049934D01*
X0155969Y0049335D02*
X0276169Y0049335D01*
X0276169Y0048737D02*
X0155969Y0048737D01*
X0195703Y0051131D02*
X0276169Y0051131D01*
X0276169Y0051729D02*
X0196301Y0051729D01*
X0196900Y0052328D02*
X0276169Y0052328D01*
X0276169Y0052926D02*
X0197498Y0052926D01*
X0198097Y0053525D02*
X0276169Y0053525D01*
X0276169Y0054123D02*
X0198695Y0054123D01*
X0199294Y0054722D02*
X0276169Y0054722D01*
X0276169Y0055320D02*
X0199892Y0055320D01*
X0200491Y0055919D02*
X0276169Y0055919D01*
X0276169Y0056518D02*
X0201089Y0056518D01*
X0201688Y0057116D02*
X0276169Y0057116D01*
X0276169Y0057715D02*
X0202287Y0057715D01*
X0202885Y0058313D02*
X0276169Y0058313D01*
X0276169Y0058912D02*
X0203484Y0058912D01*
X0204082Y0059510D02*
X0276169Y0059510D01*
X0276169Y0060109D02*
X0204681Y0060109D01*
X0205279Y0060707D02*
X0276169Y0060707D01*
X0276169Y0061306D02*
X0205878Y0061306D01*
X0206476Y0061904D02*
X0244618Y0061904D01*
X0245688Y0061461D02*
X0248373Y0061461D01*
X0250854Y0062489D01*
X0252753Y0064387D01*
X0253780Y0066868D01*
X0253780Y0069554D01*
X0252753Y0072035D01*
X0250854Y0073933D01*
X0248373Y0074961D01*
X0245688Y0074961D01*
X0243207Y0073933D01*
X0241308Y0072035D01*
X0240280Y0069554D01*
X0240280Y0066868D01*
X0241308Y0064387D01*
X0243207Y0062489D01*
X0245688Y0061461D01*
X0243193Y0062503D02*
X0207075Y0062503D01*
X0207673Y0063101D02*
X0242594Y0063101D01*
X0241996Y0063700D02*
X0208272Y0063700D01*
X0208870Y0064298D02*
X0227723Y0064298D01*
X0227871Y0064150D02*
X0231268Y0064150D01*
X0233669Y0066552D01*
X0233669Y0069097D01*
X0240522Y0075950D01*
X0252339Y0075950D01*
X0252619Y0075276D01*
X0254095Y0073799D01*
X0256025Y0073000D01*
X0258114Y0073000D01*
X0260043Y0073799D01*
X0261520Y0075276D01*
X0262319Y0077206D01*
X0262319Y0079294D01*
X0261520Y0081224D01*
X0260043Y0082701D01*
X0258114Y0083500D01*
X0256025Y0083500D01*
X0254095Y0082701D01*
X0252619Y0081224D01*
X0252339Y0080550D01*
X0238617Y0080550D01*
X0230417Y0072350D01*
X0227871Y0072350D01*
X0225469Y0069948D01*
X0225469Y0066552D01*
X0227871Y0064150D01*
X0227124Y0064897D02*
X0209469Y0064897D01*
X0210067Y0065495D02*
X0226526Y0065495D01*
X0225927Y0066094D02*
X0210666Y0066094D01*
X0211264Y0066692D02*
X0225469Y0066692D01*
X0225469Y0067291D02*
X0211863Y0067291D01*
X0212461Y0067889D02*
X0225469Y0067889D01*
X0225469Y0068488D02*
X0213060Y0068488D01*
X0213658Y0069086D02*
X0225469Y0069086D01*
X0225469Y0069685D02*
X0214257Y0069685D01*
X0214855Y0070283D02*
X0225804Y0070283D01*
X0226403Y0070882D02*
X0215454Y0070882D01*
X0216052Y0071480D02*
X0227001Y0071480D01*
X0227600Y0072079D02*
X0216651Y0072079D01*
X0217249Y0072677D02*
X0230744Y0072677D01*
X0231342Y0073276D02*
X0217848Y0073276D01*
X0218446Y0073874D02*
X0231941Y0073874D01*
X0232539Y0074473D02*
X0219045Y0074473D01*
X0219643Y0075071D02*
X0233138Y0075071D01*
X0233736Y0075670D02*
X0220242Y0075670D01*
X0220840Y0076268D02*
X0234335Y0076268D01*
X0234934Y0076867D02*
X0221439Y0076867D01*
X0222037Y0077465D02*
X0235532Y0077465D01*
X0236131Y0078064D02*
X0222636Y0078064D01*
X0223234Y0078662D02*
X0236729Y0078662D01*
X0237328Y0079261D02*
X0223833Y0079261D01*
X0224431Y0079859D02*
X0237926Y0079859D01*
X0238525Y0080458D02*
X0225030Y0080458D01*
X0225628Y0081056D02*
X0252549Y0081056D01*
X0253050Y0081655D02*
X0248653Y0081655D01*
X0248373Y0081539D02*
X0250854Y0082567D01*
X0252753Y0084465D01*
X0253780Y0086946D01*
X0253780Y0089632D01*
X0252753Y0092113D01*
X0250854Y0094011D01*
X0248373Y0095039D01*
X0245688Y0095039D01*
X0243207Y0094011D01*
X0241308Y0092113D01*
X0240280Y0089632D01*
X0240280Y0086946D01*
X0241308Y0084465D01*
X0243207Y0082567D01*
X0245688Y0081539D01*
X0248373Y0081539D01*
X0250098Y0082253D02*
X0253648Y0082253D01*
X0254461Y0082852D02*
X0251139Y0082852D01*
X0251738Y0083451D02*
X0255906Y0083451D01*
X0258233Y0083451D02*
X0262401Y0083451D01*
X0261802Y0084049D02*
X0252336Y0084049D01*
X0252828Y0084648D02*
X0261310Y0084648D01*
X0261386Y0084465D02*
X0263285Y0082567D01*
X0265766Y0081539D01*
X0268451Y0081539D01*
X0270932Y0082567D01*
X0272831Y0084465D01*
X0273858Y0086946D01*
X0273858Y0089632D01*
X0272831Y0092113D01*
X0270932Y0094011D01*
X0268451Y0095039D01*
X0265766Y0095039D01*
X0263285Y0094011D01*
X0261386Y0092113D01*
X0260358Y0089632D01*
X0260358Y0086946D01*
X0261386Y0084465D01*
X0261063Y0085246D02*
X0253076Y0085246D01*
X0253324Y0085845D02*
X0260815Y0085845D01*
X0260567Y0086443D02*
X0253572Y0086443D01*
X0253780Y0087042D02*
X0260358Y0087042D01*
X0260358Y0087640D02*
X0253780Y0087640D01*
X0253780Y0088239D02*
X0260358Y0088239D01*
X0260358Y0088837D02*
X0253780Y0088837D01*
X0253780Y0089436D02*
X0260358Y0089436D01*
X0260525Y0090034D02*
X0253614Y0090034D01*
X0253366Y0090633D02*
X0260773Y0090633D01*
X0261021Y0091231D02*
X0253118Y0091231D01*
X0252870Y0091830D02*
X0261269Y0091830D01*
X0261702Y0092428D02*
X0252437Y0092428D01*
X0251839Y0093027D02*
X0262300Y0093027D01*
X0262899Y0093625D02*
X0251240Y0093625D01*
X0250341Y0094224D02*
X0263797Y0094224D01*
X0265242Y0094822D02*
X0248896Y0094822D01*
X0245164Y0094822D02*
X0186169Y0094822D01*
X0186169Y0094224D02*
X0243719Y0094224D01*
X0242821Y0093625D02*
X0186169Y0093625D01*
X0186169Y0093027D02*
X0242222Y0093027D01*
X0241624Y0092428D02*
X0186169Y0092428D01*
X0186169Y0091830D02*
X0227351Y0091830D01*
X0226752Y0091231D02*
X0186169Y0091231D01*
X0186169Y0090633D02*
X0226154Y0090633D01*
X0225555Y0090034D02*
X0186169Y0090034D01*
X0186169Y0089834D02*
X0186169Y0096666D01*
X0185545Y0098172D01*
X0184392Y0099326D01*
X0182885Y0099950D01*
X0181254Y0099950D01*
X0179747Y0099326D01*
X0178593Y0098172D01*
X0177969Y0096666D01*
X0177969Y0089834D01*
X0178593Y0088328D01*
X0179747Y0087174D01*
X0181254Y0086550D01*
X0182885Y0086550D01*
X0184392Y0087174D01*
X0185545Y0088328D01*
X0186169Y0089834D01*
X0186004Y0089436D02*
X0225469Y0089436D01*
X0225469Y0088837D02*
X0185756Y0088837D01*
X0185456Y0088239D02*
X0225469Y0088239D01*
X0225469Y0087640D02*
X0184858Y0087640D01*
X0184072Y0087042D02*
X0225108Y0087042D01*
X0224510Y0086443D02*
X0127129Y0086443D01*
X0127727Y0085845D02*
X0223911Y0085845D01*
X0223313Y0085246D02*
X0128326Y0085246D01*
X0128924Y0084648D02*
X0222714Y0084648D01*
X0222116Y0084049D02*
X0129523Y0084049D01*
X0130121Y0083451D02*
X0221517Y0083451D01*
X0220919Y0082852D02*
X0130720Y0082852D01*
X0131318Y0082253D02*
X0220320Y0082253D01*
X0219722Y0081655D02*
X0131917Y0081655D01*
X0132515Y0081056D02*
X0219123Y0081056D01*
X0218525Y0080458D02*
X0133114Y0080458D01*
X0133713Y0079859D02*
X0217926Y0079859D01*
X0217328Y0079261D02*
X0134311Y0079261D01*
X0134910Y0078662D02*
X0216729Y0078662D01*
X0216131Y0078064D02*
X0135508Y0078064D01*
X0136107Y0077465D02*
X0215532Y0077465D01*
X0214934Y0076867D02*
X0136705Y0076867D01*
X0137304Y0076268D02*
X0214335Y0076268D01*
X0213736Y0075670D02*
X0137902Y0075670D01*
X0138501Y0075071D02*
X0213138Y0075071D01*
X0212539Y0074473D02*
X0139099Y0074473D01*
X0139698Y0073874D02*
X0211941Y0073874D01*
X0211342Y0073276D02*
X0140296Y0073276D01*
X0140895Y0072677D02*
X0210744Y0072677D01*
X0210145Y0072079D02*
X0141493Y0072079D01*
X0142092Y0071480D02*
X0209547Y0071480D01*
X0208948Y0070882D02*
X0142690Y0070882D01*
X0129601Y0077465D02*
X0111869Y0077465D01*
X0111869Y0078064D02*
X0129003Y0078064D01*
X0128404Y0078662D02*
X0111869Y0078662D01*
X0111869Y0079261D02*
X0127806Y0079261D01*
X0127207Y0079859D02*
X0111869Y0079859D01*
X0111869Y0080458D02*
X0126609Y0080458D01*
X0126010Y0081056D02*
X0111869Y0081056D01*
X0111869Y0081655D02*
X0125412Y0081655D01*
X0124813Y0082253D02*
X0111869Y0082253D01*
X0111869Y0082852D02*
X0124215Y0082852D01*
X0123616Y0083451D02*
X0111869Y0083451D01*
X0111869Y0084049D02*
X0123018Y0084049D01*
X0122419Y0084648D02*
X0111869Y0084648D01*
X0111869Y0085246D02*
X0121821Y0085246D01*
X0121222Y0085845D02*
X0111869Y0085845D01*
X0111869Y0086443D02*
X0120624Y0086443D01*
X0120025Y0087042D02*
X0111869Y0087042D01*
X0111869Y0087640D02*
X0119281Y0087640D01*
X0118682Y0088239D02*
X0111869Y0088239D01*
X0111869Y0088837D02*
X0118382Y0088837D01*
X0118134Y0089436D02*
X0111869Y0089436D01*
X0111869Y0090034D02*
X0117969Y0090034D01*
X0117969Y0090633D02*
X0111869Y0090633D01*
X0111869Y0091231D02*
X0117969Y0091231D01*
X0117969Y0091830D02*
X0111869Y0091830D01*
X0111869Y0092428D02*
X0117969Y0092428D01*
X0117969Y0093027D02*
X0111869Y0093027D01*
X0111869Y0093625D02*
X0117969Y0093625D01*
X0117969Y0094224D02*
X0111869Y0094224D01*
X0111869Y0094822D02*
X0117969Y0094822D01*
X0117969Y0095421D02*
X0111869Y0095421D01*
X0111869Y0096019D02*
X0117969Y0096019D01*
X0117969Y0096618D02*
X0111869Y0096618D01*
X0111869Y0097216D02*
X0118197Y0097216D01*
X0118445Y0097815D02*
X0111869Y0097815D01*
X0111869Y0098413D02*
X0118834Y0098413D01*
X0119433Y0099012D02*
X0111869Y0099012D01*
X0111869Y0099610D02*
X0120434Y0099610D01*
X0123705Y0099610D02*
X0129769Y0099610D01*
X0129433Y0099012D02*
X0124706Y0099012D01*
X0125304Y0098413D02*
X0128834Y0098413D01*
X0128445Y0097815D02*
X0125693Y0097815D01*
X0125941Y0097216D02*
X0128197Y0097216D01*
X0127969Y0096618D02*
X0126169Y0096618D01*
X0126169Y0096019D02*
X0127969Y0096019D01*
X0127969Y0095421D02*
X0126169Y0095421D01*
X0126169Y0094822D02*
X0127969Y0094822D01*
X0127969Y0094224D02*
X0126169Y0094224D01*
X0126169Y0093625D02*
X0127969Y0093625D01*
X0127969Y0093027D02*
X0126169Y0093027D01*
X0126169Y0092428D02*
X0127969Y0092428D01*
X0127969Y0091830D02*
X0126169Y0091830D01*
X0126169Y0091231D02*
X0127969Y0091231D01*
X0127969Y0090633D02*
X0126169Y0090633D01*
X0126169Y0090034D02*
X0127969Y0090034D01*
X0128134Y0089436D02*
X0126004Y0089436D01*
X0125756Y0088837D02*
X0128382Y0088837D01*
X0128682Y0088239D02*
X0125456Y0088239D01*
X0125932Y0087640D02*
X0129281Y0087640D01*
X0130067Y0087042D02*
X0126530Y0087042D01*
X0134072Y0087042D02*
X0140067Y0087042D01*
X0139747Y0087174D02*
X0141254Y0086550D01*
X0142885Y0086550D01*
X0144392Y0087174D01*
X0145545Y0088328D01*
X0146169Y0089834D01*
X0146169Y0096666D01*
X0145545Y0098172D01*
X0144392Y0099326D01*
X0144369Y0099335D01*
X0144369Y0112252D01*
X0146169Y0114052D01*
X0146169Y0117448D01*
X0144369Y0119248D01*
X0144369Y0126703D01*
X0141169Y0129903D01*
X0141169Y0132448D01*
X0138768Y0134850D01*
X0135371Y0134850D01*
X0132969Y0132448D01*
X0132969Y0129052D01*
X0135371Y0126650D01*
X0137917Y0126650D01*
X0139769Y0124797D01*
X0139769Y0119248D01*
X0137969Y0117448D01*
X0137969Y0114052D01*
X0139769Y0112252D01*
X0139769Y0099335D01*
X0139747Y0099326D01*
X0138593Y0098172D01*
X0137969Y0096666D01*
X0137969Y0089834D01*
X0138593Y0088328D01*
X0139747Y0087174D01*
X0139281Y0087640D02*
X0134858Y0087640D01*
X0135456Y0088239D02*
X0138682Y0088239D01*
X0138382Y0088837D02*
X0135756Y0088837D01*
X0136004Y0089436D02*
X0138134Y0089436D01*
X0137969Y0090034D02*
X0136169Y0090034D01*
X0136169Y0090633D02*
X0137969Y0090633D01*
X0137969Y0091231D02*
X0136169Y0091231D01*
X0136169Y0091830D02*
X0137969Y0091830D01*
X0137969Y0092428D02*
X0136169Y0092428D01*
X0136169Y0093027D02*
X0137969Y0093027D01*
X0137969Y0093625D02*
X0136169Y0093625D01*
X0136169Y0094224D02*
X0137969Y0094224D01*
X0137969Y0094822D02*
X0136169Y0094822D01*
X0136169Y0095421D02*
X0137969Y0095421D01*
X0137969Y0096019D02*
X0136169Y0096019D01*
X0136169Y0096618D02*
X0137969Y0096618D01*
X0138197Y0097216D02*
X0135941Y0097216D01*
X0135693Y0097815D02*
X0138445Y0097815D01*
X0138834Y0098413D02*
X0135304Y0098413D01*
X0134706Y0099012D02*
X0139433Y0099012D01*
X0139769Y0099610D02*
X0134369Y0099610D01*
X0134369Y0100209D02*
X0139769Y0100209D01*
X0139769Y0100807D02*
X0134369Y0100807D01*
X0134369Y0101406D02*
X0139769Y0101406D01*
X0139769Y0102004D02*
X0134068Y0102004D01*
X0133469Y0102603D02*
X0139769Y0102603D01*
X0139769Y0103201D02*
X0132871Y0103201D01*
X0132272Y0103800D02*
X0139769Y0103800D01*
X0139769Y0104398D02*
X0131674Y0104398D01*
X0131075Y0104997D02*
X0139769Y0104997D01*
X0139769Y0105595D02*
X0130477Y0105595D01*
X0129878Y0106194D02*
X0139769Y0106194D01*
X0139769Y0106792D02*
X0129280Y0106792D01*
X0128681Y0107391D02*
X0139769Y0107391D01*
X0139769Y0107989D02*
X0128082Y0107989D01*
X0138046Y0113975D02*
X0116092Y0113975D01*
X0116169Y0114052D02*
X0113768Y0111650D01*
X0110371Y0111650D01*
X0107969Y0114052D01*
X0107969Y0117448D01*
X0110371Y0119850D01*
X0113768Y0119850D01*
X0116169Y0117448D01*
X0116169Y0114052D01*
X0116169Y0114573D02*
X0137969Y0114573D01*
X0137969Y0115172D02*
X0116169Y0115172D01*
X0116169Y0115770D02*
X0137969Y0115770D01*
X0137969Y0116369D02*
X0116169Y0116369D01*
X0116169Y0116967D02*
X0137969Y0116967D01*
X0138087Y0117566D02*
X0116052Y0117566D01*
X0115453Y0118164D02*
X0138685Y0118164D01*
X0139284Y0118763D02*
X0114855Y0118763D01*
X0114256Y0119361D02*
X0139769Y0119361D01*
X0139769Y0119960D02*
X0027969Y0119960D01*
X0027969Y0120558D02*
X0139769Y0120558D01*
X0139769Y0121157D02*
X0027969Y0121157D01*
X0027969Y0121755D02*
X0139769Y0121755D01*
X0139769Y0122354D02*
X0027969Y0122354D01*
X0027969Y0122952D02*
X0139769Y0122952D01*
X0139769Y0123551D02*
X0027969Y0123551D01*
X0027969Y0124149D02*
X0139769Y0124149D01*
X0139769Y0124748D02*
X0027969Y0124748D01*
X0027969Y0125346D02*
X0039998Y0125346D01*
X0040358Y0125250D02*
X0043781Y0125250D01*
X0047087Y0126136D01*
X0050051Y0127847D01*
X0052472Y0130268D01*
X0054183Y0133232D01*
X0055069Y0136539D01*
X0055069Y0139961D01*
X0054183Y0143268D01*
X0052472Y0146232D01*
X0050051Y0148653D01*
X0047087Y0150364D01*
X0043781Y0151250D01*
X0040358Y0151250D01*
X0037051Y0150364D01*
X0034087Y0148653D01*
X0031667Y0146232D01*
X0029955Y0143268D01*
X0029069Y0139961D01*
X0029069Y0136539D01*
X0029955Y0133232D01*
X0031667Y0130268D01*
X0034087Y0127847D01*
X0037051Y0126136D01*
X0040358Y0125250D01*
X0037765Y0125945D02*
X0027969Y0125945D01*
X0027969Y0126543D02*
X0036346Y0126543D01*
X0035309Y0127142D02*
X0027969Y0127142D01*
X0027969Y0127740D02*
X0034273Y0127740D01*
X0033596Y0128339D02*
X0027969Y0128339D01*
X0027969Y0128937D02*
X0032997Y0128937D01*
X0032399Y0129536D02*
X0027969Y0129536D01*
X0027969Y0130134D02*
X0031800Y0130134D01*
X0031398Y0130733D02*
X0027969Y0130733D01*
X0027969Y0131331D02*
X0031053Y0131331D01*
X0030707Y0131930D02*
X0027969Y0131930D01*
X0027969Y0132528D02*
X0030362Y0132528D01*
X0030016Y0133127D02*
X0027969Y0133127D01*
X0027969Y0133725D02*
X0029823Y0133725D01*
X0029663Y0134324D02*
X0027969Y0134324D01*
X0027969Y0134922D02*
X0029502Y0134922D01*
X0029342Y0135521D02*
X0027969Y0135521D01*
X0027969Y0136120D02*
X0029182Y0136120D01*
X0029069Y0136718D02*
X0027969Y0136718D01*
X0027969Y0137317D02*
X0029069Y0137317D01*
X0029069Y0137915D02*
X0027969Y0137915D01*
X0027987Y0138514D02*
X0029069Y0138514D01*
X0029069Y0139112D02*
X0028026Y0139112D01*
X0028065Y0139711D02*
X0029069Y0139711D01*
X0029162Y0140309D02*
X0028148Y0140309D01*
X0028309Y0140908D02*
X0029323Y0140908D01*
X0029483Y0141506D02*
X0028469Y0141506D01*
X0028630Y0142105D02*
X0029644Y0142105D01*
X0029804Y0142703D02*
X0028790Y0142703D01*
X0028950Y0143302D02*
X0029975Y0143302D01*
X0030320Y0143900D02*
X0029189Y0143900D01*
X0029535Y0144499D02*
X0030666Y0144499D01*
X0031011Y0145097D02*
X0029881Y0145097D01*
X0030226Y0145696D02*
X0031357Y0145696D01*
X0031729Y0146294D02*
X0030572Y0146294D01*
X0030942Y0146893D02*
X0032327Y0146893D01*
X0032926Y0147491D02*
X0031541Y0147491D01*
X0032139Y0148090D02*
X0033524Y0148090D01*
X0034149Y0148688D02*
X0032738Y0148688D01*
X0033336Y0149287D02*
X0035186Y0149287D01*
X0034263Y0149885D02*
X0036222Y0149885D01*
X0035300Y0150484D02*
X0037498Y0150484D01*
X0036337Y0151082D02*
X0039732Y0151082D01*
X0038182Y0151681D02*
X0265957Y0151681D01*
X0266640Y0150484D02*
X0268838Y0150484D01*
X0267916Y0149885D02*
X0269875Y0149885D01*
X0268953Y0149287D02*
X0270802Y0149287D01*
X0271401Y0148688D02*
X0269990Y0148688D01*
X0270051Y0148653D02*
X0267087Y0150364D01*
X0263781Y0151250D01*
X0260358Y0151250D01*
X0257051Y0150364D01*
X0254087Y0148653D01*
X0251667Y0146232D01*
X0249955Y0143268D01*
X0249069Y0139961D01*
X0249069Y0136539D01*
X0249955Y0133232D01*
X0251667Y0130268D01*
X0254087Y0127847D01*
X0257051Y0126136D01*
X0260358Y0125250D01*
X0263781Y0125250D01*
X0267087Y0126136D01*
X0270051Y0127847D01*
X0272472Y0130268D01*
X0274183Y0133232D01*
X0275069Y0136539D01*
X0275069Y0139961D01*
X0274183Y0143268D01*
X0272472Y0146232D01*
X0270051Y0148653D01*
X0270614Y0148090D02*
X0271999Y0148090D01*
X0272598Y0147491D02*
X0271213Y0147491D01*
X0271811Y0146893D02*
X0273196Y0146893D01*
X0273567Y0146294D02*
X0272410Y0146294D01*
X0272782Y0145696D02*
X0273913Y0145696D01*
X0274258Y0145097D02*
X0273127Y0145097D01*
X0273473Y0144499D02*
X0274604Y0144499D01*
X0274949Y0143900D02*
X0273818Y0143900D01*
X0274164Y0143302D02*
X0275188Y0143302D01*
X0275349Y0142703D02*
X0274335Y0142703D01*
X0274495Y0142105D02*
X0275509Y0142105D01*
X0275669Y0141506D02*
X0274655Y0141506D01*
X0274816Y0140908D02*
X0275830Y0140908D01*
X0275990Y0140309D02*
X0274976Y0140309D01*
X0275069Y0139711D02*
X0276074Y0139711D01*
X0276113Y0139112D02*
X0275069Y0139112D01*
X0275069Y0138514D02*
X0276152Y0138514D01*
X0276169Y0137915D02*
X0275069Y0137915D01*
X0275069Y0137317D02*
X0276169Y0137317D01*
X0276169Y0136718D02*
X0275069Y0136718D01*
X0274957Y0136120D02*
X0276169Y0136120D01*
X0276169Y0135521D02*
X0274797Y0135521D01*
X0274636Y0134922D02*
X0276169Y0134922D01*
X0276169Y0134324D02*
X0274476Y0134324D01*
X0274316Y0133725D02*
X0276169Y0133725D01*
X0276169Y0133127D02*
X0274123Y0133127D01*
X0273777Y0132528D02*
X0276169Y0132528D01*
X0276169Y0131930D02*
X0273431Y0131930D01*
X0273086Y0131331D02*
X0276169Y0131331D01*
X0276169Y0130733D02*
X0272740Y0130733D01*
X0272338Y0130134D02*
X0276169Y0130134D01*
X0276169Y0129536D02*
X0271740Y0129536D01*
X0271141Y0128937D02*
X0276169Y0128937D01*
X0276169Y0128339D02*
X0270543Y0128339D01*
X0269866Y0127740D02*
X0276169Y0127740D01*
X0276169Y0127142D02*
X0268829Y0127142D01*
X0267793Y0126543D02*
X0276169Y0126543D01*
X0276169Y0125945D02*
X0266374Y0125945D01*
X0264140Y0125346D02*
X0276169Y0125346D01*
X0276169Y0124748D02*
X0144369Y0124748D01*
X0144369Y0125346D02*
X0259998Y0125346D01*
X0257765Y0125945D02*
X0144369Y0125945D01*
X0144369Y0126543D02*
X0256346Y0126543D01*
X0255309Y0127142D02*
X0143930Y0127142D01*
X0143332Y0127740D02*
X0254273Y0127740D01*
X0253596Y0128339D02*
X0142733Y0128339D01*
X0142135Y0128937D02*
X0252997Y0128937D01*
X0252399Y0129536D02*
X0141536Y0129536D01*
X0141169Y0130134D02*
X0251800Y0130134D01*
X0251398Y0130733D02*
X0141169Y0130733D01*
X0141169Y0131331D02*
X0251053Y0131331D01*
X0250707Y0131930D02*
X0141169Y0131930D01*
X0141089Y0132528D02*
X0250362Y0132528D01*
X0250016Y0133127D02*
X0140491Y0133127D01*
X0139892Y0133725D02*
X0249823Y0133725D01*
X0249663Y0134324D02*
X0139294Y0134324D01*
X0134845Y0134324D02*
X0119294Y0134324D01*
X0118768Y0134850D02*
X0121169Y0132448D01*
X0121169Y0129052D01*
X0118768Y0126650D01*
X0115371Y0126650D01*
X0112969Y0129052D01*
X0112969Y0132448D01*
X0115371Y0134850D01*
X0118768Y0134850D01*
X0119892Y0133725D02*
X0134246Y0133725D01*
X0133648Y0133127D02*
X0120491Y0133127D01*
X0121089Y0132528D02*
X0133049Y0132528D01*
X0132969Y0131930D02*
X0121169Y0131930D01*
X0121169Y0131331D02*
X0132969Y0131331D01*
X0132969Y0130733D02*
X0121169Y0130733D01*
X0121169Y0130134D02*
X0132969Y0130134D01*
X0132969Y0129536D02*
X0121169Y0129536D01*
X0121055Y0128937D02*
X0133084Y0128937D01*
X0133682Y0128339D02*
X0120456Y0128339D01*
X0119858Y0127740D02*
X0134281Y0127740D01*
X0134879Y0127142D02*
X0119259Y0127142D01*
X0114879Y0127142D02*
X0048829Y0127142D01*
X0047793Y0126543D02*
X0138023Y0126543D01*
X0138622Y0125945D02*
X0046374Y0125945D01*
X0044140Y0125346D02*
X0139220Y0125346D01*
X0144369Y0124149D02*
X0276169Y0124149D01*
X0276169Y0123551D02*
X0144369Y0123551D01*
X0144369Y0122952D02*
X0276169Y0122952D01*
X0276169Y0122354D02*
X0144369Y0122354D01*
X0144369Y0121755D02*
X0276169Y0121755D01*
X0276169Y0121157D02*
X0144369Y0121157D01*
X0144369Y0120558D02*
X0276169Y0120558D01*
X0276169Y0119960D02*
X0144369Y0119960D01*
X0144369Y0119361D02*
X0160165Y0119361D01*
X0160454Y0119650D02*
X0158169Y0117365D01*
X0158169Y0116050D01*
X0161769Y0116050D01*
X0161769Y0115450D01*
X0158169Y0115450D01*
X0158169Y0114135D01*
X0160454Y0111850D01*
X0161769Y0111850D01*
X0161769Y0115450D01*
X0162369Y0115450D01*
X0162369Y0111850D01*
X0163685Y0111850D01*
X0165969Y0114135D01*
X0165969Y0115450D01*
X0162369Y0115450D01*
X0162369Y0116050D01*
X0161769Y0116050D01*
X0161769Y0119650D01*
X0160454Y0119650D01*
X0159567Y0118763D02*
X0144855Y0118763D01*
X0145453Y0118164D02*
X0158968Y0118164D01*
X0158370Y0117566D02*
X0146052Y0117566D01*
X0146169Y0116967D02*
X0158169Y0116967D01*
X0158169Y0116369D02*
X0146169Y0116369D01*
X0146169Y0115770D02*
X0161769Y0115770D01*
X0161769Y0115172D02*
X0162369Y0115172D01*
X0162369Y0115770D02*
X0177969Y0115770D01*
X0177969Y0115172D02*
X0165969Y0115172D01*
X0165969Y0114573D02*
X0177969Y0114573D01*
X0177969Y0114052D02*
X0180371Y0111650D01*
X0183768Y0111650D01*
X0186169Y0114052D01*
X0186169Y0117448D01*
X0183768Y0119850D01*
X0180371Y0119850D01*
X0177969Y0117448D01*
X0177969Y0114052D01*
X0178046Y0113975D02*
X0165809Y0113975D01*
X0165211Y0113376D02*
X0178645Y0113376D01*
X0179243Y0112778D02*
X0164612Y0112778D01*
X0164014Y0112179D02*
X0179842Y0112179D01*
X0184297Y0112179D02*
X0276169Y0112179D01*
X0276169Y0111581D02*
X0144369Y0111581D01*
X0144369Y0112179D02*
X0160125Y0112179D01*
X0159526Y0112778D02*
X0144895Y0112778D01*
X0145494Y0113376D02*
X0158928Y0113376D01*
X0158329Y0113975D02*
X0146092Y0113975D01*
X0146169Y0114573D02*
X0158169Y0114573D01*
X0158169Y0115172D02*
X0146169Y0115172D01*
X0144369Y0110982D02*
X0276169Y0110982D01*
X0276169Y0110384D02*
X0144369Y0110384D01*
X0144369Y0109785D02*
X0276169Y0109785D01*
X0276169Y0109187D02*
X0144369Y0109187D01*
X0144369Y0108588D02*
X0276169Y0108588D01*
X0276169Y0107989D02*
X0144369Y0107989D01*
X0144369Y0107391D02*
X0276169Y0107391D01*
X0276169Y0106792D02*
X0144369Y0106792D01*
X0144369Y0106194D02*
X0276169Y0106194D01*
X0276169Y0105595D02*
X0144369Y0105595D01*
X0144369Y0104997D02*
X0276169Y0104997D01*
X0276169Y0104398D02*
X0144369Y0104398D01*
X0144369Y0103800D02*
X0276169Y0103800D01*
X0276169Y0103201D02*
X0144369Y0103201D01*
X0144369Y0102603D02*
X0276169Y0102603D01*
X0276169Y0102004D02*
X0144369Y0102004D01*
X0144369Y0101406D02*
X0276169Y0101406D01*
X0276169Y0100807D02*
X0144369Y0100807D01*
X0144369Y0100209D02*
X0276169Y0100209D01*
X0276169Y0099610D02*
X0183705Y0099610D01*
X0184706Y0099012D02*
X0276169Y0099012D01*
X0276169Y0098413D02*
X0185304Y0098413D01*
X0185693Y0097815D02*
X0276169Y0097815D01*
X0276169Y0097216D02*
X0185941Y0097216D01*
X0186169Y0096618D02*
X0276169Y0096618D01*
X0276169Y0096019D02*
X0186169Y0096019D01*
X0186169Y0095421D02*
X0276169Y0095421D01*
X0276169Y0094822D02*
X0268974Y0094822D01*
X0270419Y0094224D02*
X0276169Y0094224D01*
X0276169Y0093625D02*
X0271318Y0093625D01*
X0271916Y0093027D02*
X0276169Y0093027D01*
X0276169Y0092428D02*
X0272515Y0092428D01*
X0272948Y0091830D02*
X0276169Y0091830D01*
X0276169Y0091231D02*
X0273196Y0091231D01*
X0273444Y0090633D02*
X0276169Y0090633D01*
X0276169Y0090034D02*
X0273692Y0090034D01*
X0273858Y0089436D02*
X0276169Y0089436D01*
X0276169Y0088837D02*
X0273858Y0088837D01*
X0273858Y0088239D02*
X0276169Y0088239D01*
X0276169Y0087640D02*
X0273858Y0087640D01*
X0273858Y0087042D02*
X0276169Y0087042D01*
X0276169Y0086443D02*
X0273650Y0086443D01*
X0273402Y0085845D02*
X0276169Y0085845D01*
X0276169Y0085246D02*
X0273154Y0085246D01*
X0272906Y0084648D02*
X0276169Y0084648D01*
X0276169Y0084049D02*
X0272414Y0084049D01*
X0271816Y0083451D02*
X0276169Y0083451D01*
X0276169Y0082852D02*
X0271217Y0082852D01*
X0270176Y0082253D02*
X0276169Y0082253D01*
X0276169Y0081655D02*
X0268731Y0081655D01*
X0265486Y0081655D02*
X0261089Y0081655D01*
X0261589Y0081056D02*
X0276169Y0081056D01*
X0276169Y0080458D02*
X0261837Y0080458D01*
X0262085Y0079859D02*
X0276169Y0079859D01*
X0276169Y0079261D02*
X0262319Y0079261D01*
X0262319Y0078662D02*
X0276169Y0078662D01*
X0276169Y0078064D02*
X0262319Y0078064D01*
X0262319Y0077465D02*
X0276169Y0077465D01*
X0276169Y0076867D02*
X0262179Y0076867D01*
X0261931Y0076268D02*
X0276169Y0076268D01*
X0276169Y0075670D02*
X0261683Y0075670D01*
X0261315Y0075071D02*
X0276169Y0075071D01*
X0276169Y0074473D02*
X0269629Y0074473D01*
X0268451Y0074961D02*
X0265766Y0074961D01*
X0263285Y0073933D01*
X0261386Y0072035D01*
X0260358Y0069554D01*
X0260358Y0066868D01*
X0261386Y0064387D01*
X0263285Y0062489D01*
X0265766Y0061461D01*
X0268451Y0061461D01*
X0270932Y0062489D01*
X0272831Y0064387D01*
X0273858Y0066868D01*
X0273858Y0069554D01*
X0272831Y0072035D01*
X0270932Y0073933D01*
X0268451Y0074961D01*
X0270991Y0073874D02*
X0276169Y0073874D01*
X0276169Y0073276D02*
X0271589Y0073276D01*
X0272188Y0072677D02*
X0276169Y0072677D01*
X0276169Y0072079D02*
X0272786Y0072079D01*
X0273060Y0071480D02*
X0276169Y0071480D01*
X0276169Y0070882D02*
X0273308Y0070882D01*
X0273556Y0070283D02*
X0276169Y0070283D01*
X0276169Y0069685D02*
X0273804Y0069685D01*
X0273858Y0069086D02*
X0276169Y0069086D01*
X0276169Y0068488D02*
X0273858Y0068488D01*
X0273858Y0067889D02*
X0276169Y0067889D01*
X0276169Y0067291D02*
X0273858Y0067291D01*
X0273785Y0066692D02*
X0276169Y0066692D01*
X0276169Y0066094D02*
X0273537Y0066094D01*
X0273289Y0065495D02*
X0276169Y0065495D01*
X0276169Y0064897D02*
X0273042Y0064897D01*
X0272741Y0064298D02*
X0276169Y0064298D01*
X0276169Y0063700D02*
X0272143Y0063700D01*
X0271544Y0063101D02*
X0276169Y0063101D01*
X0276169Y0062503D02*
X0270946Y0062503D01*
X0269521Y0061904D02*
X0276169Y0061904D01*
X0264696Y0061904D02*
X0249443Y0061904D01*
X0250868Y0062503D02*
X0263271Y0062503D01*
X0262672Y0063101D02*
X0251466Y0063101D01*
X0252065Y0063700D02*
X0262074Y0063700D01*
X0261475Y0064298D02*
X0252663Y0064298D01*
X0252964Y0064897D02*
X0261175Y0064897D01*
X0260927Y0065495D02*
X0253212Y0065495D01*
X0253459Y0066094D02*
X0260679Y0066094D01*
X0260431Y0066692D02*
X0253707Y0066692D01*
X0253780Y0067291D02*
X0260358Y0067291D01*
X0260358Y0067889D02*
X0253780Y0067889D01*
X0253780Y0068488D02*
X0260358Y0068488D01*
X0260358Y0069086D02*
X0253780Y0069086D01*
X0253726Y0069685D02*
X0260413Y0069685D01*
X0260660Y0070283D02*
X0253478Y0070283D01*
X0253230Y0070882D02*
X0260908Y0070882D01*
X0261156Y0071480D02*
X0252982Y0071480D01*
X0252708Y0072079D02*
X0261430Y0072079D01*
X0262029Y0072677D02*
X0252110Y0072677D01*
X0251511Y0073276D02*
X0255359Y0073276D01*
X0254020Y0073874D02*
X0250913Y0073874D01*
X0249552Y0074473D02*
X0253422Y0074473D01*
X0252823Y0075071D02*
X0239643Y0075071D01*
X0239045Y0074473D02*
X0244509Y0074473D01*
X0243148Y0073874D02*
X0238446Y0073874D01*
X0237848Y0073276D02*
X0242549Y0073276D01*
X0241951Y0072677D02*
X0237249Y0072677D01*
X0236651Y0072079D02*
X0241352Y0072079D01*
X0241078Y0071480D02*
X0236052Y0071480D01*
X0235454Y0070882D02*
X0240830Y0070882D01*
X0240583Y0070283D02*
X0234855Y0070283D01*
X0234257Y0069685D02*
X0240335Y0069685D01*
X0240280Y0069086D02*
X0233669Y0069086D01*
X0233669Y0068488D02*
X0240280Y0068488D01*
X0240280Y0067889D02*
X0233669Y0067889D01*
X0233669Y0067291D02*
X0240280Y0067291D01*
X0240353Y0066692D02*
X0233669Y0066692D01*
X0233211Y0066094D02*
X0240601Y0066094D01*
X0240849Y0065495D02*
X0232613Y0065495D01*
X0232014Y0064897D02*
X0241097Y0064897D01*
X0241397Y0064298D02*
X0231416Y0064298D01*
X0240242Y0075670D02*
X0252455Y0075670D01*
X0258779Y0073276D02*
X0262627Y0073276D01*
X0263226Y0073874D02*
X0260118Y0073874D01*
X0260717Y0074473D02*
X0264587Y0074473D01*
X0264041Y0082253D02*
X0260490Y0082253D01*
X0259678Y0082852D02*
X0262999Y0082852D01*
X0245408Y0081655D02*
X0226227Y0081655D01*
X0226825Y0082253D02*
X0243963Y0082253D01*
X0242921Y0082852D02*
X0227424Y0082852D01*
X0228022Y0083451D02*
X0242323Y0083451D01*
X0241724Y0084049D02*
X0228621Y0084049D01*
X0231765Y0084648D02*
X0241232Y0084648D01*
X0240985Y0085246D02*
X0232364Y0085246D01*
X0232962Y0085845D02*
X0240737Y0085845D01*
X0240489Y0086443D02*
X0233561Y0086443D01*
X0233669Y0087042D02*
X0240280Y0087042D01*
X0240280Y0087640D02*
X0233669Y0087640D01*
X0233669Y0088239D02*
X0240280Y0088239D01*
X0240280Y0088837D02*
X0233669Y0088837D01*
X0233669Y0089436D02*
X0240280Y0089436D01*
X0240447Y0090034D02*
X0233583Y0090034D01*
X0232985Y0090633D02*
X0240695Y0090633D01*
X0240943Y0091231D02*
X0232386Y0091231D01*
X0231788Y0091830D02*
X0241191Y0091830D01*
X0276169Y0112778D02*
X0184895Y0112778D01*
X0185494Y0113376D02*
X0276169Y0113376D01*
X0276169Y0113975D02*
X0186092Y0113975D01*
X0186169Y0114573D02*
X0276169Y0114573D01*
X0276169Y0115172D02*
X0186169Y0115172D01*
X0186169Y0115770D02*
X0276169Y0115770D01*
X0276169Y0116369D02*
X0186169Y0116369D01*
X0186169Y0116967D02*
X0276169Y0116967D01*
X0276169Y0117566D02*
X0186052Y0117566D01*
X0185453Y0118164D02*
X0276169Y0118164D01*
X0276169Y0118763D02*
X0184855Y0118763D01*
X0184256Y0119361D02*
X0276169Y0119361D01*
X0249502Y0134922D02*
X0054636Y0134922D01*
X0054476Y0134324D02*
X0114845Y0134324D01*
X0114246Y0133725D02*
X0054316Y0133725D01*
X0054123Y0133127D02*
X0113648Y0133127D01*
X0113049Y0132528D02*
X0053777Y0132528D01*
X0053431Y0131930D02*
X0112969Y0131930D01*
X0112969Y0131331D02*
X0053086Y0131331D01*
X0052740Y0130733D02*
X0112969Y0130733D01*
X0112969Y0130134D02*
X0052338Y0130134D01*
X0051740Y0129536D02*
X0112969Y0129536D01*
X0113084Y0128937D02*
X0051141Y0128937D01*
X0050543Y0128339D02*
X0113682Y0128339D01*
X0114281Y0127740D02*
X0049866Y0127740D01*
X0054797Y0135521D02*
X0249342Y0135521D01*
X0249182Y0136120D02*
X0054957Y0136120D01*
X0055069Y0136718D02*
X0249069Y0136718D01*
X0249069Y0137317D02*
X0055069Y0137317D01*
X0055069Y0137915D02*
X0249069Y0137915D01*
X0249069Y0138514D02*
X0055069Y0138514D01*
X0055069Y0139112D02*
X0249069Y0139112D01*
X0249069Y0139711D02*
X0055069Y0139711D01*
X0054976Y0140309D02*
X0249162Y0140309D01*
X0249323Y0140908D02*
X0054816Y0140908D01*
X0054655Y0141506D02*
X0249483Y0141506D01*
X0249644Y0142105D02*
X0054495Y0142105D01*
X0054335Y0142703D02*
X0249804Y0142703D01*
X0249975Y0143302D02*
X0054164Y0143302D01*
X0053818Y0143900D02*
X0250320Y0143900D01*
X0250666Y0144499D02*
X0053473Y0144499D01*
X0053127Y0145097D02*
X0251011Y0145097D01*
X0251357Y0145696D02*
X0052782Y0145696D01*
X0052410Y0146294D02*
X0251729Y0146294D01*
X0252327Y0146893D02*
X0051811Y0146893D01*
X0051213Y0147491D02*
X0252926Y0147491D01*
X0253524Y0148090D02*
X0050614Y0148090D01*
X0049990Y0148688D02*
X0254149Y0148688D01*
X0255186Y0149287D02*
X0048953Y0149287D01*
X0047916Y0149885D02*
X0256222Y0149885D01*
X0257498Y0150484D02*
X0046640Y0150484D01*
X0044407Y0151082D02*
X0259732Y0151082D01*
X0263148Y0152279D02*
X0040991Y0152279D01*
X0027969Y0119361D02*
X0109882Y0119361D01*
X0109284Y0118763D02*
X0027969Y0118763D01*
X0027969Y0118164D02*
X0108685Y0118164D01*
X0108087Y0117566D02*
X0027969Y0117566D01*
X0027969Y0116967D02*
X0107969Y0116967D01*
X0107969Y0116369D02*
X0027969Y0116369D01*
X0027969Y0115770D02*
X0107969Y0115770D01*
X0107969Y0115172D02*
X0027969Y0115172D01*
X0027969Y0114573D02*
X0107969Y0114573D01*
X0108046Y0113975D02*
X0027969Y0113975D01*
X0027969Y0113376D02*
X0108645Y0113376D01*
X0109243Y0112778D02*
X0027969Y0112778D01*
X0027969Y0112179D02*
X0109842Y0112179D01*
X0114297Y0112179D02*
X0139769Y0112179D01*
X0139769Y0111581D02*
X0027969Y0111581D01*
X0027969Y0110982D02*
X0139769Y0110982D01*
X0139769Y0110384D02*
X0027969Y0110384D01*
X0027969Y0109785D02*
X0139769Y0109785D01*
X0139769Y0109187D02*
X0027969Y0109187D01*
X0027969Y0108588D02*
X0139769Y0108588D01*
X0139243Y0112778D02*
X0114895Y0112778D01*
X0115494Y0113376D02*
X0138645Y0113376D01*
X0127562Y0102004D02*
X0114076Y0102004D01*
X0113478Y0101406D02*
X0128161Y0101406D01*
X0128759Y0100807D02*
X0112879Y0100807D01*
X0112281Y0100209D02*
X0129358Y0100209D01*
X0126964Y0102603D02*
X0114675Y0102603D01*
X0115273Y0103201D02*
X0126365Y0103201D01*
X0113556Y0107989D02*
X0027969Y0107989D01*
X0027969Y0107391D02*
X0112958Y0107391D01*
X0112359Y0106792D02*
X0027969Y0106792D01*
X0027969Y0106194D02*
X0111761Y0106194D01*
X0111162Y0105595D02*
X0027969Y0105595D01*
X0027969Y0104997D02*
X0110564Y0104997D01*
X0109965Y0104398D02*
X0027969Y0104398D01*
X0027969Y0103800D02*
X0109367Y0103800D01*
X0108768Y0103201D02*
X0027969Y0103201D01*
X0027969Y0102603D02*
X0108169Y0102603D01*
X0107571Y0102004D02*
X0027969Y0102004D01*
X0027969Y0101406D02*
X0107269Y0101406D01*
X0107269Y0100807D02*
X0027969Y0100807D01*
X0027969Y0100209D02*
X0107269Y0100209D01*
X0107269Y0099610D02*
X0027969Y0099610D01*
X0027969Y0099012D02*
X0107269Y0099012D01*
X0107269Y0098413D02*
X0027969Y0098413D01*
X0027969Y0097815D02*
X0107269Y0097815D01*
X0107269Y0097216D02*
X0027969Y0097216D01*
X0027969Y0096618D02*
X0107269Y0096618D01*
X0107269Y0096019D02*
X0027969Y0096019D01*
X0027969Y0095421D02*
X0107269Y0095421D01*
X0144369Y0099610D02*
X0150434Y0099610D01*
X0149747Y0099326D02*
X0148593Y0098172D01*
X0147969Y0096666D01*
X0147969Y0089834D01*
X0148593Y0088328D01*
X0149747Y0087174D01*
X0151254Y0086550D01*
X0152885Y0086550D01*
X0154392Y0087174D01*
X0155545Y0088328D01*
X0156169Y0089834D01*
X0156169Y0096666D01*
X0155545Y0098172D01*
X0154392Y0099326D01*
X0152885Y0099950D01*
X0151254Y0099950D01*
X0149747Y0099326D01*
X0149433Y0099012D02*
X0144706Y0099012D01*
X0145304Y0098413D02*
X0148834Y0098413D01*
X0148445Y0097815D02*
X0145693Y0097815D01*
X0145941Y0097216D02*
X0148197Y0097216D01*
X0147969Y0096618D02*
X0146169Y0096618D01*
X0146169Y0096019D02*
X0147969Y0096019D01*
X0147969Y0095421D02*
X0146169Y0095421D01*
X0146169Y0094822D02*
X0147969Y0094822D01*
X0147969Y0094224D02*
X0146169Y0094224D01*
X0146169Y0093625D02*
X0147969Y0093625D01*
X0147969Y0093027D02*
X0146169Y0093027D01*
X0146169Y0092428D02*
X0147969Y0092428D01*
X0147969Y0091830D02*
X0146169Y0091830D01*
X0146169Y0091231D02*
X0147969Y0091231D01*
X0147969Y0090633D02*
X0146169Y0090633D01*
X0146169Y0090034D02*
X0147969Y0090034D01*
X0148134Y0089436D02*
X0146004Y0089436D01*
X0145756Y0088837D02*
X0148382Y0088837D01*
X0148682Y0088239D02*
X0145456Y0088239D01*
X0144858Y0087640D02*
X0149281Y0087640D01*
X0150067Y0087042D02*
X0144072Y0087042D01*
X0154072Y0087042D02*
X0160067Y0087042D01*
X0159747Y0087174D02*
X0161254Y0086550D01*
X0162885Y0086550D01*
X0164392Y0087174D01*
X0165545Y0088328D01*
X0166169Y0089834D01*
X0166169Y0096666D01*
X0165545Y0098172D01*
X0164392Y0099326D01*
X0162885Y0099950D01*
X0161254Y0099950D01*
X0159747Y0099326D01*
X0158593Y0098172D01*
X0157969Y0096666D01*
X0157969Y0089834D01*
X0158593Y0088328D01*
X0159747Y0087174D01*
X0159281Y0087640D02*
X0154858Y0087640D01*
X0155456Y0088239D02*
X0158682Y0088239D01*
X0158382Y0088837D02*
X0155756Y0088837D01*
X0156004Y0089436D02*
X0158134Y0089436D01*
X0157969Y0090034D02*
X0156169Y0090034D01*
X0156169Y0090633D02*
X0157969Y0090633D01*
X0157969Y0091231D02*
X0156169Y0091231D01*
X0156169Y0091830D02*
X0157969Y0091830D01*
X0157969Y0092428D02*
X0156169Y0092428D01*
X0156169Y0093027D02*
X0157969Y0093027D01*
X0157969Y0093625D02*
X0156169Y0093625D01*
X0156169Y0094224D02*
X0157969Y0094224D01*
X0157969Y0094822D02*
X0156169Y0094822D01*
X0156169Y0095421D02*
X0157969Y0095421D01*
X0157969Y0096019D02*
X0156169Y0096019D01*
X0156169Y0096618D02*
X0157969Y0096618D01*
X0158197Y0097216D02*
X0155941Y0097216D01*
X0155693Y0097815D02*
X0158445Y0097815D01*
X0158834Y0098413D02*
X0155304Y0098413D01*
X0154706Y0099012D02*
X0159433Y0099012D01*
X0160434Y0099610D02*
X0153705Y0099610D01*
X0163705Y0099610D02*
X0170434Y0099610D01*
X0169747Y0099326D02*
X0171254Y0099950D01*
X0172885Y0099950D01*
X0174392Y0099326D01*
X0175545Y0098172D01*
X0176169Y0096666D01*
X0176169Y0089834D01*
X0175545Y0088328D01*
X0174392Y0087174D01*
X0172885Y0086550D01*
X0171254Y0086550D01*
X0169747Y0087174D01*
X0168593Y0088328D01*
X0167969Y0089834D01*
X0167969Y0096666D01*
X0168593Y0098172D01*
X0169747Y0099326D01*
X0169433Y0099012D02*
X0164706Y0099012D01*
X0165304Y0098413D02*
X0168834Y0098413D01*
X0168445Y0097815D02*
X0165693Y0097815D01*
X0165941Y0097216D02*
X0168197Y0097216D01*
X0167969Y0096618D02*
X0166169Y0096618D01*
X0166169Y0096019D02*
X0167969Y0096019D01*
X0167969Y0095421D02*
X0166169Y0095421D01*
X0166169Y0094822D02*
X0167969Y0094822D01*
X0167969Y0094224D02*
X0166169Y0094224D01*
X0166169Y0093625D02*
X0167969Y0093625D01*
X0167969Y0093027D02*
X0166169Y0093027D01*
X0166169Y0092428D02*
X0167969Y0092428D01*
X0167969Y0091830D02*
X0166169Y0091830D01*
X0166169Y0091231D02*
X0167969Y0091231D01*
X0167969Y0090633D02*
X0166169Y0090633D01*
X0166169Y0090034D02*
X0167969Y0090034D01*
X0168134Y0089436D02*
X0166004Y0089436D01*
X0165756Y0088837D02*
X0168382Y0088837D01*
X0168682Y0088239D02*
X0165456Y0088239D01*
X0164858Y0087640D02*
X0169281Y0087640D01*
X0170067Y0087042D02*
X0164072Y0087042D01*
X0174072Y0087042D02*
X0180067Y0087042D01*
X0179281Y0087640D02*
X0174858Y0087640D01*
X0175456Y0088239D02*
X0178682Y0088239D01*
X0178382Y0088837D02*
X0175756Y0088837D01*
X0176004Y0089436D02*
X0178134Y0089436D01*
X0177969Y0090034D02*
X0176169Y0090034D01*
X0176169Y0090633D02*
X0177969Y0090633D01*
X0177969Y0091231D02*
X0176169Y0091231D01*
X0176169Y0091830D02*
X0177969Y0091830D01*
X0177969Y0092428D02*
X0176169Y0092428D01*
X0176169Y0093027D02*
X0177969Y0093027D01*
X0177969Y0093625D02*
X0176169Y0093625D01*
X0176169Y0094224D02*
X0177969Y0094224D01*
X0177969Y0094822D02*
X0176169Y0094822D01*
X0176169Y0095421D02*
X0177969Y0095421D01*
X0177969Y0096019D02*
X0176169Y0096019D01*
X0176169Y0096618D02*
X0177969Y0096618D01*
X0178197Y0097216D02*
X0175941Y0097216D01*
X0175693Y0097815D02*
X0178445Y0097815D01*
X0178834Y0098413D02*
X0175304Y0098413D01*
X0174706Y0099012D02*
X0179433Y0099012D01*
X0180434Y0099610D02*
X0173705Y0099610D01*
X0162369Y0112179D02*
X0161769Y0112179D01*
X0161769Y0112778D02*
X0162369Y0112778D01*
X0162369Y0113376D02*
X0161769Y0113376D01*
X0161769Y0113975D02*
X0162369Y0113975D01*
X0162369Y0114573D02*
X0161769Y0114573D01*
X0162369Y0116050D02*
X0165969Y0116050D01*
X0165969Y0117365D01*
X0163685Y0119650D01*
X0162369Y0119650D01*
X0162369Y0116050D01*
X0162369Y0116369D02*
X0161769Y0116369D01*
X0161769Y0116967D02*
X0162369Y0116967D01*
X0162369Y0117566D02*
X0161769Y0117566D01*
X0161769Y0118164D02*
X0162369Y0118164D01*
X0162369Y0118763D02*
X0161769Y0118763D01*
X0161769Y0119361D02*
X0162369Y0119361D01*
X0163973Y0119361D02*
X0179882Y0119361D01*
X0179284Y0118763D02*
X0164572Y0118763D01*
X0165171Y0118164D02*
X0178685Y0118164D01*
X0178087Y0117566D02*
X0165769Y0117566D01*
X0165969Y0116967D02*
X0177969Y0116967D01*
X0177969Y0116369D02*
X0165969Y0116369D01*
X0118138Y0075071D02*
X0111869Y0075071D01*
X0111869Y0074473D02*
X0117539Y0074473D01*
X0116941Y0073874D02*
X0111869Y0073874D01*
X0111869Y0073276D02*
X0116342Y0073276D01*
X0115744Y0072677D02*
X0111869Y0072677D01*
X0111869Y0072079D02*
X0115145Y0072079D01*
X0114547Y0071480D02*
X0111869Y0071480D01*
X0111869Y0070882D02*
X0113948Y0070882D01*
X0113350Y0070283D02*
X0111869Y0070283D01*
X0111757Y0069685D02*
X0112751Y0069685D01*
X0112153Y0069086D02*
X0111158Y0069086D01*
X0111554Y0068488D02*
X0110560Y0068488D01*
X0110956Y0067889D02*
X0109961Y0067889D01*
X0110357Y0067291D02*
X0109363Y0067291D01*
X0109769Y0066692D02*
X0108764Y0066692D01*
X0108669Y0066094D02*
X0109769Y0066094D01*
X0109769Y0065495D02*
X0108669Y0065495D01*
X0108669Y0064897D02*
X0109769Y0064897D01*
X0109769Y0064298D02*
X0108669Y0064298D01*
X0108317Y0063700D02*
X0109769Y0063700D01*
X0109769Y0063101D02*
X0107719Y0063101D01*
X0107120Y0062503D02*
X0109769Y0062503D01*
X0109769Y0061904D02*
X0106522Y0061904D01*
X0102617Y0061904D02*
X0094022Y0061904D01*
X0094620Y0062503D02*
X0102018Y0062503D01*
X0101420Y0063101D02*
X0095219Y0063101D01*
X0090117Y0061904D02*
X0059521Y0061904D01*
X0060946Y0062503D02*
X0089518Y0062503D01*
X0088920Y0063101D02*
X0061544Y0063101D01*
X0062143Y0063700D02*
X0075867Y0063700D01*
X0055486Y0081655D02*
X0051089Y0081655D01*
X0050490Y0082253D02*
X0054041Y0082253D01*
X0052999Y0082852D02*
X0049678Y0082852D01*
X0086321Y0024796D02*
X0102269Y0024796D01*
X0102219Y0024198D02*
X0086920Y0024198D01*
X0087518Y0023599D02*
X0101620Y0023599D01*
X0101022Y0023001D02*
X0088117Y0023001D01*
X0088669Y0022402D02*
X0100469Y0022402D01*
X0100469Y0021804D02*
X0088669Y0021804D01*
X0088669Y0021205D02*
X0100469Y0021205D01*
X0100469Y0020607D02*
X0088669Y0020607D01*
X0088669Y0020008D02*
X0100469Y0020008D01*
X0100469Y0019410D02*
X0088669Y0019410D01*
X0088429Y0018811D02*
X0100710Y0018811D01*
X0101308Y0018213D02*
X0087830Y0018213D01*
X0087232Y0017614D02*
X0101907Y0017614D01*
X0102505Y0017016D02*
X0086633Y0017016D01*
X0264407Y0151082D02*
X0267802Y0151082D01*
M02*
