%
M48
M72
T01C0.03200
T02C0.04000
T03C0.05000
T04C0.07000
T05C0.14173
%
T01
X84569Y20750
X104569Y20750
X104569Y35750
X92069Y35750
X122069Y35750
X122069Y48250
X122069Y63250
X132069Y63250
X142069Y63250
X152069Y63250
X162069Y63250
X172069Y63250
X182069Y63250
X152069Y48250
X152069Y35750
X104569Y65750
X92069Y65750
X74569Y68250
X74569Y88250
X122069Y93250
X132069Y93250
X142069Y93250
X152069Y93250
X162069Y93250
X172069Y93250
X182069Y93250
X182069Y115750
X162069Y115750
X142069Y115750
X137069Y130750
X117069Y130750
X112069Y115750
X229569Y88250
X229569Y68250
T02
X177069Y15750
X152069Y15750
X127069Y15750
T03
X47069Y78250
X257069Y78250
T04
X247030Y88289
X267108Y88289
X267108Y68211
X247030Y68211
X57108Y68211
X37030Y68211
X37030Y88289
X57108Y88289
T05
X42069Y18250
X262069Y18250
X262069Y138250
X42069Y138250
M30
