%
M48
M72
T01C0.0236
T02C0.0320
T03C0.0360
T04C0.0400
T05C0.1260
%
T01
X13680Y10680
X13680Y12680
T02
X15430Y11680
X16180Y11180
X16180Y12180
X13680Y14180
X11180Y14180
X11180Y12680
X8680Y12680
X8680Y14180
X8680Y18180
X11180Y18180
X13680Y18180
X19680Y12180
X21680Y12180
X16180Y8680
X15430Y8180
X16180Y7680
X16180Y5680
X11180Y8680
X8680Y8680
X7180Y5680
X5180Y5680
X16180Y1680
T03
X3180Y4680
X3180Y5680
X3180Y10680
X3180Y11680
X24680Y11180
X24680Y12180
T04
X19180Y4680
X19180Y2680
T05
X28680Y18680
M30
