G75*
G70*
%OFA0B0*%
%FSLAX24Y24*%
%IPPOS*%
%LPD*%
%AMOC8*
5,1,8,0,0,1.08239X$1,22.5*
%
%ADD10C,0.0040*%
%ADD11C,0.2380*%
%ADD12C,0.0430*%
%ADD13R,0.0450X0.0450*%
%ADD14R,0.0120X0.0160*%
%ADD15C,0.0390*%
D10*
X007042Y006184D02*
X007140Y006086D01*
X009108Y006086D01*
X009207Y006184D01*
X009207Y008349D01*
X009108Y008448D01*
X007140Y008448D01*
X007042Y008349D01*
X007042Y006184D01*
X007042Y006186D02*
X009207Y006186D01*
X009207Y006225D02*
X007042Y006225D01*
X007042Y006263D02*
X009207Y006263D01*
X009207Y006302D02*
X007042Y006302D01*
X007042Y006340D02*
X009207Y006340D01*
X009207Y006379D02*
X007042Y006379D01*
X007042Y006417D02*
X009207Y006417D01*
X009207Y006456D02*
X007042Y006456D01*
X007042Y006494D02*
X009207Y006494D01*
X009207Y006533D02*
X007042Y006533D01*
X007042Y006571D02*
X009207Y006571D01*
X009207Y006610D02*
X007042Y006610D01*
X007042Y006648D02*
X009207Y006648D01*
X009207Y006687D02*
X007042Y006687D01*
X007042Y006725D02*
X009207Y006725D01*
X009207Y006764D02*
X007042Y006764D01*
X007042Y006802D02*
X009207Y006802D01*
X009207Y006841D02*
X007042Y006841D01*
X007042Y006879D02*
X009207Y006879D01*
X009207Y006918D02*
X007042Y006918D01*
X007042Y006956D02*
X009207Y006956D01*
X009207Y006995D02*
X007042Y006995D01*
X007042Y007033D02*
X009207Y007033D01*
X009207Y007072D02*
X007042Y007072D01*
X007042Y007110D02*
X009207Y007110D01*
X009207Y007149D02*
X007042Y007149D01*
X007042Y007187D02*
X009207Y007187D01*
X009207Y007226D02*
X007042Y007226D01*
X007042Y007264D02*
X009207Y007264D01*
X009207Y007303D02*
X007042Y007303D01*
X007042Y007341D02*
X009207Y007341D01*
X009207Y007380D02*
X007042Y007380D01*
X007042Y007418D02*
X009207Y007418D01*
X009207Y007457D02*
X007042Y007457D01*
X007042Y007495D02*
X009207Y007495D01*
X009207Y007534D02*
X007042Y007534D01*
X007042Y007572D02*
X009207Y007572D01*
X009207Y007611D02*
X007042Y007611D01*
X007042Y007649D02*
X009207Y007649D01*
X009207Y007688D02*
X007042Y007688D01*
X007042Y007726D02*
X009207Y007726D01*
X009207Y007765D02*
X007042Y007765D01*
X007042Y007803D02*
X009207Y007803D01*
X009207Y007842D02*
X007042Y007842D01*
X007042Y007880D02*
X009207Y007880D01*
X009207Y007919D02*
X007042Y007919D01*
X007042Y007957D02*
X009207Y007957D01*
X009207Y007996D02*
X007042Y007996D01*
X007042Y008034D02*
X009207Y008034D01*
X009207Y008073D02*
X007042Y008073D01*
X007042Y008111D02*
X009207Y008111D01*
X009207Y008150D02*
X007042Y008150D01*
X007042Y008188D02*
X009207Y008188D01*
X009207Y008227D02*
X007042Y008227D01*
X007042Y008265D02*
X009207Y008265D01*
X009207Y008304D02*
X007042Y008304D01*
X007042Y008342D02*
X009207Y008342D01*
X009176Y008381D02*
X007073Y008381D01*
X007111Y008419D02*
X009137Y008419D01*
X009170Y006148D02*
X007078Y006148D01*
X007116Y006109D02*
X009132Y006109D01*
D11*
X014423Y004117D03*
X014423Y010416D03*
X001825Y010416D03*
X001825Y004117D03*
D12*
X004975Y002149D03*
X008124Y002149D03*
X011274Y002149D03*
X014030Y007267D03*
X011274Y012385D03*
X008124Y012385D03*
X004975Y012385D03*
X002219Y007267D03*
D13*
X004450Y001624D03*
X005500Y001624D03*
X005500Y002674D03*
X004450Y002674D03*
X007599Y002674D03*
X008649Y002674D03*
X008649Y001624D03*
X007599Y001624D03*
X010749Y001624D03*
X011799Y001624D03*
X011799Y002674D03*
X010749Y002674D03*
X013505Y006742D03*
X014555Y006742D03*
X014555Y007792D03*
X013505Y007792D03*
X011799Y011860D03*
X010749Y011860D03*
X010749Y012910D03*
X011799Y012910D03*
X008649Y012910D03*
X007599Y012910D03*
X007599Y011860D03*
X008649Y011860D03*
X005500Y011860D03*
X004450Y011860D03*
X004450Y012910D03*
X005500Y012910D03*
X002744Y007792D03*
X001694Y007792D03*
X001694Y006742D03*
X002744Y006742D03*
D14*
X007495Y005692D03*
X007575Y005692D03*
X007655Y005692D03*
X007735Y005692D03*
X007815Y005692D03*
X007895Y005692D03*
X008052Y008841D03*
X008132Y008841D03*
X008212Y008841D03*
X008292Y008841D03*
X008372Y008841D03*
X008452Y008841D03*
X008532Y008841D03*
X008612Y008841D03*
X008692Y008841D03*
X008772Y008841D03*
D15*
X009010Y008251D03*
X009010Y007759D03*
X009010Y007267D03*
X009010Y006774D03*
X009010Y006282D03*
X007238Y006282D03*
X007238Y006774D03*
X007238Y007267D03*
X007238Y007759D03*
X007238Y008251D03*
M02*
