G75*
G70*
%OFA0B0*%
%FSLAX24Y24*%
%IPPOS*%
%LPD*%
%AMOC8*
5,1,8,0,0,1.08239X$1,22.5*
%
%ADD10C,0.0160*%
%ADD11C,0.2380*%
%ADD12C,0.0390*%
D10*
X000250Y000180D02*
X015998Y000180D01*
X000250Y000180D01*
X000250Y014353D01*
X015998Y014353D01*
X015998Y000180D01*
X015998Y000339D02*
X000250Y000339D01*
X000250Y000497D02*
X015998Y000497D01*
X015998Y000656D02*
X000250Y000656D01*
X000250Y000814D02*
X015998Y000814D01*
X015998Y000973D02*
X000250Y000973D01*
X000250Y001131D02*
X015998Y001131D01*
X015998Y001290D02*
X000250Y001290D01*
X000250Y001448D02*
X015998Y001448D01*
X015998Y001607D02*
X000250Y001607D01*
X000250Y001765D02*
X015998Y001765D01*
X015998Y001924D02*
X000250Y001924D01*
X000250Y002082D02*
X015998Y002082D01*
X015998Y002241D02*
X000250Y002241D01*
X000250Y002399D02*
X015998Y002399D01*
X015998Y002558D02*
X000250Y002558D01*
X000250Y002716D02*
X015998Y002716D01*
X015998Y002875D02*
X000250Y002875D01*
X000250Y003033D02*
X015998Y003033D01*
X015998Y003192D02*
X000250Y003192D01*
X000250Y003350D02*
X015998Y003350D01*
X015998Y003509D02*
X000250Y003509D01*
X000250Y003667D02*
X015998Y003667D01*
X015998Y003826D02*
X000250Y003826D01*
X000250Y003984D02*
X015998Y003984D01*
X015998Y004143D02*
X000250Y004143D01*
X000250Y004301D02*
X015998Y004301D01*
X015998Y004460D02*
X000250Y004460D01*
X000250Y004618D02*
X015998Y004618D01*
X015998Y004777D02*
X000250Y004777D01*
X000250Y004935D02*
X015998Y004935D01*
X015998Y005094D02*
X000250Y005094D01*
X000250Y005252D02*
X015998Y005252D01*
X015998Y005411D02*
X000250Y005411D01*
X000250Y005569D02*
X015998Y005569D01*
X015998Y005728D02*
X000250Y005728D01*
X000250Y005886D02*
X015998Y005886D01*
X015998Y006045D02*
X000250Y006045D01*
X000250Y006203D02*
X015998Y006203D01*
X015998Y006362D02*
X000250Y006362D01*
X000250Y006520D02*
X015998Y006520D01*
X015998Y006679D02*
X000250Y006679D01*
X000250Y006837D02*
X015998Y006837D01*
X015998Y006996D02*
X000250Y006996D01*
X000250Y007154D02*
X015998Y007154D01*
X015998Y007313D02*
X000250Y007313D01*
X000250Y007471D02*
X015998Y007471D01*
X015998Y007630D02*
X000250Y007630D01*
X000250Y007788D02*
X015998Y007788D01*
X015998Y007947D02*
X000250Y007947D01*
X000250Y008105D02*
X015998Y008105D01*
X015998Y008264D02*
X000250Y008264D01*
X000250Y008422D02*
X015998Y008422D01*
X015998Y008581D02*
X000250Y008581D01*
X000250Y008739D02*
X015998Y008739D01*
X015998Y008898D02*
X000250Y008898D01*
X000250Y009056D02*
X015998Y009056D01*
X015998Y009215D02*
X000250Y009215D01*
X000250Y009373D02*
X015998Y009373D01*
X015998Y009532D02*
X000250Y009532D01*
X000250Y009690D02*
X015998Y009690D01*
X015998Y009849D02*
X000250Y009849D01*
X000250Y010007D02*
X015998Y010007D01*
X015998Y010166D02*
X000250Y010166D01*
X000250Y010324D02*
X015998Y010324D01*
X015998Y010483D02*
X000250Y010483D01*
X000250Y010641D02*
X015998Y010641D01*
X015998Y010800D02*
X000250Y010800D01*
X000250Y010958D02*
X015998Y010958D01*
X015998Y011117D02*
X000250Y011117D01*
X000250Y011275D02*
X015998Y011275D01*
X015998Y011434D02*
X000250Y011434D01*
X000250Y011592D02*
X015998Y011592D01*
X015998Y011751D02*
X000250Y011751D01*
X000250Y011909D02*
X015998Y011909D01*
X015998Y012068D02*
X000250Y012068D01*
X000250Y012226D02*
X015998Y012226D01*
X015998Y012385D02*
X000250Y012385D01*
X000250Y012543D02*
X015998Y012543D01*
X015998Y012702D02*
X000250Y012702D01*
X000250Y012860D02*
X015998Y012860D01*
X015998Y013019D02*
X000250Y013019D01*
X000250Y013177D02*
X015998Y013177D01*
X015998Y013336D02*
X000250Y013336D01*
X000250Y013494D02*
X015998Y013494D01*
X015998Y013653D02*
X000250Y013653D01*
X000250Y013811D02*
X015998Y013811D01*
X015998Y013970D02*
X000250Y013970D01*
X000250Y014128D02*
X015998Y014128D01*
X015998Y014287D02*
X000250Y014287D01*
D11*
X001825Y010416D03*
X001825Y004117D03*
X014423Y004117D03*
X014423Y010416D03*
D12*
X009010Y008251D03*
X009010Y007759D03*
X009010Y007267D03*
X009010Y006774D03*
X009010Y006282D03*
X007238Y006282D03*
X007238Y006774D03*
X007238Y007267D03*
X007238Y007759D03*
X007238Y008251D03*
M02*
