G75*
G70*
%OFA0B0*%
%FSLAX24Y24*%
%IPPOS*%
%LPD*%
%AMOC8*
5,1,8,0,0,1.08239X$1,22.5*
%
%ADD10C,0.2300*%
%ADD11C,0.0160*%
D10*
X001825Y004117D03*
X001825Y010416D03*
X014423Y010416D03*
X014423Y004117D03*
D11*
X014443Y001607D02*
X001806Y001607D01*
X001647Y001765D02*
X014601Y001765D01*
X014760Y001924D02*
X001489Y001924D01*
X001330Y002082D02*
X014918Y002082D01*
X015077Y002241D02*
X001172Y002241D01*
X001013Y002399D02*
X015235Y002399D01*
X015394Y002558D02*
X000855Y002558D01*
X000696Y002716D02*
X015552Y002716D01*
X015711Y002875D02*
X000538Y002875D01*
X000410Y003002D02*
X000410Y011531D01*
X003072Y014193D01*
X013176Y014193D01*
X015838Y011531D01*
X015838Y003002D01*
X013176Y000340D01*
X003072Y000340D01*
X000410Y003002D01*
X000410Y003033D02*
X015838Y003033D01*
X015838Y003192D02*
X000410Y003192D01*
X000410Y003350D02*
X015838Y003350D01*
X015838Y003509D02*
X000410Y003509D01*
X000410Y003667D02*
X015838Y003667D01*
X015838Y003826D02*
X000410Y003826D01*
X000410Y003984D02*
X015838Y003984D01*
X015838Y004143D02*
X000410Y004143D01*
X000410Y004301D02*
X015838Y004301D01*
X015838Y004460D02*
X000410Y004460D01*
X000410Y004618D02*
X015838Y004618D01*
X015838Y004777D02*
X000410Y004777D01*
X000410Y004935D02*
X015838Y004935D01*
X015838Y005094D02*
X000410Y005094D01*
X000410Y005252D02*
X015838Y005252D01*
X015838Y005411D02*
X000410Y005411D01*
X000410Y005569D02*
X015838Y005569D01*
X015838Y005728D02*
X000410Y005728D01*
X000410Y005886D02*
X015838Y005886D01*
X015838Y006045D02*
X000410Y006045D01*
X000410Y006203D02*
X015838Y006203D01*
X015838Y006362D02*
X000410Y006362D01*
X000410Y006520D02*
X015838Y006520D01*
X015838Y006679D02*
X000410Y006679D01*
X000410Y006837D02*
X015838Y006837D01*
X015838Y006996D02*
X000410Y006996D01*
X000410Y007154D02*
X015838Y007154D01*
X015838Y007313D02*
X000410Y007313D01*
X000410Y007471D02*
X015838Y007471D01*
X015838Y007630D02*
X000410Y007630D01*
X000410Y007788D02*
X015838Y007788D01*
X015838Y007947D02*
X000410Y007947D01*
X000410Y008105D02*
X015838Y008105D01*
X015838Y008264D02*
X000410Y008264D01*
X000410Y008422D02*
X015838Y008422D01*
X015838Y008581D02*
X000410Y008581D01*
X000410Y008739D02*
X015838Y008739D01*
X015838Y008898D02*
X000410Y008898D01*
X000410Y009056D02*
X015838Y009056D01*
X015838Y009215D02*
X000410Y009215D01*
X000410Y009373D02*
X015838Y009373D01*
X015838Y009532D02*
X000410Y009532D01*
X000410Y009690D02*
X015838Y009690D01*
X015838Y009849D02*
X000410Y009849D01*
X000410Y010007D02*
X015838Y010007D01*
X015838Y010166D02*
X000410Y010166D01*
X000410Y010324D02*
X015838Y010324D01*
X015838Y010483D02*
X000410Y010483D01*
X000410Y010641D02*
X015838Y010641D01*
X015838Y010800D02*
X000410Y010800D01*
X000410Y010958D02*
X015838Y010958D01*
X015838Y011117D02*
X000410Y011117D01*
X000410Y011275D02*
X015838Y011275D01*
X015838Y011434D02*
X000410Y011434D01*
X000471Y011592D02*
X015777Y011592D01*
X015619Y011751D02*
X000630Y011751D01*
X000788Y011909D02*
X015460Y011909D01*
X015302Y012068D02*
X000947Y012068D01*
X001105Y012226D02*
X015143Y012226D01*
X014985Y012385D02*
X001264Y012385D01*
X001422Y012543D02*
X014826Y012543D01*
X014668Y012702D02*
X001581Y012702D01*
X001739Y012860D02*
X014509Y012860D01*
X014351Y013019D02*
X001898Y013019D01*
X002056Y013177D02*
X014192Y013177D01*
X014034Y013336D02*
X002215Y013336D01*
X002373Y013494D02*
X013875Y013494D01*
X013717Y013653D02*
X002532Y013653D01*
X002690Y013811D02*
X013558Y013811D01*
X013400Y013970D02*
X002849Y013970D01*
X003007Y014128D02*
X013241Y014128D01*
X014284Y001448D02*
X001964Y001448D01*
X002123Y001290D02*
X014126Y001290D01*
X013967Y001131D02*
X002281Y001131D01*
X002440Y000973D02*
X013809Y000973D01*
X013650Y000814D02*
X002598Y000814D01*
X002757Y000656D02*
X013492Y000656D01*
X013333Y000497D02*
X002915Y000497D01*
M02*
