G75*
G70*
%OFA0B0*%
%FSLAX24Y24*%
%IPPOS*%
%LPD*%
%AMOC8*
5,1,8,0,0,1.08239X$1,22.5*
%
%ADD10C,0.0000*%
%ADD11C,0.0050*%
%ADD12C,0.0100*%
%ADD13C,0.0060*%
%ADD14C,0.0180*%
%ADD15C,0.0080*%
%ADD16C,0.0030*%
%ADD17R,0.0340X0.0160*%
%ADD18R,0.0160X0.0340*%
D10*
X000250Y002936D02*
X003006Y000180D01*
X013242Y000180D01*
X015998Y002936D01*
X015998Y011597D01*
X013242Y014353D01*
X003006Y014353D01*
X000250Y011597D01*
X000250Y002936D01*
D11*
X004295Y002829D02*
X004295Y001469D01*
X005655Y001469D01*
X005655Y002829D01*
X004295Y002829D01*
X005437Y004000D02*
X005437Y004270D01*
X005572Y004270D01*
X005617Y004225D01*
X005617Y004135D01*
X005572Y004090D01*
X005437Y004090D01*
X005527Y004090D02*
X005617Y004000D01*
X005732Y004045D02*
X005777Y004000D01*
X005867Y004000D01*
X005912Y004045D01*
X005912Y004090D01*
X005867Y004135D01*
X005822Y004135D01*
X005867Y004135D02*
X005912Y004180D01*
X005912Y004225D01*
X005867Y004270D01*
X005777Y004270D01*
X005732Y004225D01*
X005655Y005406D02*
X004295Y005406D01*
X004295Y006766D01*
X005655Y006766D01*
X005655Y005406D01*
X005653Y007111D02*
X005653Y007381D01*
X005768Y007336D02*
X005768Y007291D01*
X005813Y007246D01*
X005903Y007246D01*
X005948Y007201D01*
X005948Y007156D01*
X005903Y007111D01*
X005813Y007111D01*
X005768Y007156D01*
X005653Y007111D02*
X005473Y007381D01*
X005473Y007111D01*
X005358Y007111D02*
X005178Y007111D01*
X005178Y007381D01*
X005358Y007381D01*
X005268Y007246D02*
X005178Y007246D01*
X005064Y007201D02*
X005064Y007156D01*
X005019Y007111D01*
X004929Y007111D01*
X004884Y007156D01*
X004929Y007246D02*
X005019Y007246D01*
X005064Y007201D01*
X005064Y007336D02*
X005019Y007381D01*
X004929Y007381D01*
X004884Y007336D01*
X004884Y007291D01*
X004929Y007246D01*
X004769Y007065D02*
X004589Y007065D01*
X004474Y007156D02*
X004474Y007201D01*
X004429Y007246D01*
X004294Y007246D01*
X004294Y007156D01*
X004339Y007111D01*
X004429Y007111D01*
X004474Y007156D01*
X004384Y007336D02*
X004294Y007246D01*
X004384Y007336D02*
X004474Y007381D01*
X004429Y007512D02*
X004339Y007512D01*
X004294Y007557D01*
X004294Y007647D01*
X004429Y007647D01*
X004474Y007602D01*
X004474Y007557D01*
X004429Y007512D01*
X004294Y007647D02*
X004384Y007737D01*
X004474Y007782D01*
X004180Y007782D02*
X004000Y007512D01*
X004000Y007381D02*
X004135Y007381D01*
X004180Y007336D01*
X004180Y007156D01*
X004135Y007111D01*
X004000Y007111D01*
X004000Y007381D01*
X004180Y007512D02*
X004000Y007782D01*
X004945Y008626D02*
X004945Y008896D01*
X005080Y008896D01*
X005125Y008851D01*
X005125Y008761D01*
X005080Y008716D01*
X004945Y008716D01*
X005035Y008716D02*
X005125Y008626D01*
X005240Y008671D02*
X005240Y008761D01*
X005375Y008761D01*
X005420Y008716D01*
X005420Y008671D01*
X005375Y008626D01*
X005285Y008626D01*
X005240Y008671D01*
X005240Y008761D02*
X005330Y008851D01*
X005420Y008896D01*
X007149Y007782D02*
X007329Y007512D01*
X007444Y007512D02*
X007444Y007557D01*
X007624Y007737D01*
X007624Y007782D01*
X007444Y007782D01*
X007329Y007782D02*
X007149Y007512D01*
X007149Y007381D02*
X007284Y007381D01*
X007329Y007336D01*
X007329Y007156D01*
X007284Y007111D01*
X007149Y007111D01*
X007149Y007381D01*
X007444Y007381D02*
X007624Y007381D01*
X007624Y007336D01*
X007444Y007156D01*
X007444Y007111D01*
X007739Y007065D02*
X007919Y007065D01*
X008033Y007156D02*
X008078Y007111D01*
X008168Y007111D01*
X008213Y007156D01*
X008213Y007201D01*
X008168Y007246D01*
X008078Y007246D01*
X008033Y007291D01*
X008033Y007336D01*
X008078Y007381D01*
X008168Y007381D01*
X008213Y007336D01*
X008328Y007381D02*
X008328Y007111D01*
X008508Y007111D01*
X008622Y007111D02*
X008622Y007381D01*
X008803Y007111D01*
X008803Y007381D01*
X008917Y007336D02*
X008917Y007291D01*
X008962Y007246D01*
X009052Y007246D01*
X009097Y007201D01*
X009097Y007156D01*
X009052Y007111D01*
X008962Y007111D01*
X008917Y007156D01*
X008917Y007336D02*
X008962Y007381D01*
X009052Y007381D01*
X009097Y007336D01*
X009212Y007381D02*
X009212Y007111D01*
X009392Y007111D01*
X009302Y007246D02*
X009212Y007246D01*
X009212Y007381D02*
X009392Y007381D01*
X008804Y006766D02*
X008804Y005406D01*
X007444Y005406D01*
X007444Y006766D01*
X008804Y006766D01*
X008418Y007246D02*
X008328Y007246D01*
X008328Y007381D02*
X008508Y007381D01*
X008524Y008626D02*
X008434Y008626D01*
X008389Y008671D01*
X008389Y008761D02*
X008479Y008806D01*
X008524Y008806D01*
X008569Y008761D01*
X008569Y008671D01*
X008524Y008626D01*
X008389Y008761D02*
X008389Y008896D01*
X008569Y008896D01*
X008275Y008851D02*
X008275Y008761D01*
X008230Y008716D01*
X008094Y008716D01*
X008094Y008626D02*
X008094Y008896D01*
X008230Y008896D01*
X008275Y008851D01*
X008185Y008716D02*
X008275Y008626D01*
X006242Y007381D02*
X006062Y007381D01*
X006062Y007111D01*
X006242Y007111D01*
X006152Y007246D02*
X006062Y007246D01*
X005948Y007336D02*
X005903Y007381D01*
X005813Y007381D01*
X005768Y007336D01*
X008587Y004270D02*
X008722Y004270D01*
X008767Y004225D01*
X008767Y004135D01*
X008722Y004090D01*
X008587Y004090D01*
X008677Y004090D02*
X008767Y004000D01*
X008881Y004000D02*
X009061Y004180D01*
X009061Y004225D01*
X009016Y004270D01*
X008926Y004270D01*
X008881Y004225D01*
X008881Y004000D02*
X009061Y004000D01*
X008587Y004000D02*
X008587Y004270D01*
X008804Y002793D02*
X007444Y002793D01*
X007444Y001433D01*
X008804Y001433D01*
X008804Y002793D01*
X010594Y002757D02*
X010594Y001397D01*
X011954Y001397D01*
X011954Y002757D01*
X010594Y002757D01*
X011736Y004000D02*
X011736Y004270D01*
X011871Y004270D01*
X011916Y004225D01*
X011916Y004135D01*
X011871Y004090D01*
X011736Y004090D01*
X011826Y004090D02*
X011916Y004000D01*
X012031Y004000D02*
X012211Y004000D01*
X012121Y004000D02*
X012121Y004270D01*
X012031Y004180D01*
X011954Y005406D02*
X010594Y005406D01*
X010594Y006766D01*
X011954Y006766D01*
X011954Y005406D01*
X011952Y007111D02*
X011952Y007381D01*
X012067Y007336D02*
X012067Y007291D01*
X012112Y007246D01*
X012202Y007246D01*
X012247Y007201D01*
X012247Y007156D01*
X012202Y007111D01*
X012112Y007111D01*
X012067Y007156D01*
X011952Y007111D02*
X011772Y007381D01*
X011772Y007111D01*
X011658Y007111D02*
X011477Y007111D01*
X011477Y007381D01*
X011658Y007381D01*
X011568Y007246D02*
X011477Y007246D01*
X011363Y007201D02*
X011363Y007156D01*
X011318Y007111D01*
X011228Y007111D01*
X011183Y007156D01*
X011228Y007246D02*
X011183Y007291D01*
X011183Y007336D01*
X011228Y007381D01*
X011318Y007381D01*
X011363Y007336D01*
X011318Y007246D02*
X011363Y007201D01*
X011318Y007246D02*
X011228Y007246D01*
X011068Y007065D02*
X010888Y007065D01*
X010774Y007156D02*
X010729Y007111D01*
X010639Y007111D01*
X010593Y007156D01*
X010593Y007201D01*
X010639Y007246D01*
X010729Y007246D01*
X010774Y007201D01*
X010774Y007156D01*
X010729Y007246D02*
X010774Y007291D01*
X010774Y007336D01*
X010729Y007381D01*
X010639Y007381D01*
X010593Y007336D01*
X010593Y007291D01*
X010639Y007246D01*
X010479Y007336D02*
X010434Y007381D01*
X010299Y007381D01*
X010299Y007111D01*
X010434Y007111D01*
X010479Y007156D01*
X010479Y007336D01*
X010479Y007512D02*
X010299Y007782D01*
X010479Y007782D02*
X010299Y007512D01*
X010593Y007557D02*
X010593Y007602D01*
X010639Y007647D01*
X010729Y007647D01*
X010774Y007602D01*
X010774Y007557D01*
X010729Y007512D01*
X010639Y007512D01*
X010593Y007557D01*
X010639Y007647D02*
X010593Y007692D01*
X010593Y007737D01*
X010639Y007782D01*
X010729Y007782D01*
X010774Y007737D01*
X010774Y007692D01*
X010729Y007647D01*
X011244Y008626D02*
X011244Y008896D01*
X011379Y008896D01*
X011424Y008851D01*
X011424Y008761D01*
X011379Y008716D01*
X011244Y008716D01*
X011334Y008716D02*
X011424Y008626D01*
X011539Y008761D02*
X011719Y008761D01*
X011674Y008626D02*
X011674Y008896D01*
X011539Y008761D01*
X012112Y007381D02*
X012067Y007336D01*
X012112Y007381D02*
X012202Y007381D01*
X012247Y007336D01*
X012361Y007381D02*
X012361Y007111D01*
X012542Y007111D01*
X012451Y007246D02*
X012361Y007246D01*
X012361Y007381D02*
X012542Y007381D01*
X010317Y013501D02*
X010317Y013771D01*
X010182Y013771D01*
X010137Y013726D01*
X010137Y013636D01*
X010182Y013591D01*
X010317Y013591D01*
X010432Y013636D02*
X010432Y013726D01*
X010477Y013771D01*
X010612Y013771D01*
X010612Y013591D02*
X010477Y013591D01*
X010432Y013636D01*
X010023Y013636D02*
X009978Y013591D01*
X009842Y013591D01*
X009842Y013501D02*
X009842Y013771D01*
X009978Y013771D01*
X010023Y013726D01*
X010023Y013636D01*
X009728Y013726D02*
X009548Y013726D01*
X009433Y013591D02*
X009253Y013591D01*
X009343Y013591D02*
X009343Y013861D01*
X009253Y013771D01*
X009139Y013771D02*
X009049Y013591D01*
X008958Y013771D01*
X008844Y013726D02*
X008844Y013681D01*
X008664Y013681D01*
X008664Y013726D02*
X008709Y013771D01*
X008799Y013771D01*
X008844Y013726D01*
X008799Y013591D02*
X008709Y013591D01*
X008664Y013636D01*
X008664Y013726D01*
X008553Y013771D02*
X008508Y013771D01*
X008418Y013681D01*
X008418Y013591D02*
X008418Y013771D01*
X008304Y013726D02*
X008124Y013726D01*
X008013Y013771D02*
X007968Y013771D01*
X007878Y013681D01*
X007878Y013591D02*
X007878Y013771D01*
X007764Y013771D02*
X007628Y013771D01*
X007583Y013726D01*
X007583Y013636D01*
X007628Y013591D01*
X007764Y013591D01*
X007764Y013861D01*
X007469Y013726D02*
X007469Y013591D01*
X007469Y013726D02*
X007424Y013771D01*
X007289Y013771D01*
X007289Y013591D01*
X007174Y013636D02*
X007174Y013726D01*
X007129Y013771D01*
X007039Y013771D01*
X006994Y013726D01*
X006994Y013636D01*
X007039Y013591D01*
X007129Y013591D01*
X007174Y013636D01*
X006880Y013636D02*
X006880Y013726D01*
X006835Y013771D01*
X006699Y013771D01*
X006699Y013861D02*
X006699Y013591D01*
X006835Y013591D01*
X006880Y013636D01*
X006585Y013636D02*
X006585Y013726D01*
X006540Y013771D01*
X006450Y013771D01*
X006405Y013726D01*
X006405Y013636D01*
X006450Y013591D01*
X006540Y013591D01*
X006585Y013636D01*
X006290Y013591D02*
X006155Y013591D01*
X006110Y013636D01*
X006110Y013771D01*
X006000Y013771D02*
X005955Y013771D01*
X005865Y013681D01*
X005865Y013591D02*
X005865Y013771D01*
X005750Y013771D02*
X005615Y013771D01*
X005570Y013726D01*
X005570Y013636D01*
X005615Y013591D01*
X005750Y013591D01*
X006200Y013501D02*
X006245Y013501D01*
X006290Y013546D01*
X006290Y013771D01*
X004725Y001188D02*
X004635Y001188D01*
X004590Y001143D01*
X004475Y001188D02*
X004295Y000918D01*
X004295Y000787D02*
X004430Y000787D01*
X004475Y000742D01*
X004475Y000561D01*
X004430Y000516D01*
X004295Y000516D01*
X004295Y000787D01*
X004475Y000918D02*
X004295Y001188D01*
X004590Y000963D02*
X004635Y000918D01*
X004725Y000918D01*
X004770Y000963D01*
X004770Y001008D01*
X004725Y001053D01*
X004680Y001053D01*
X004725Y001053D02*
X004770Y001098D01*
X004770Y001143D01*
X004725Y001188D01*
X004770Y000787D02*
X004680Y000742D01*
X004590Y000651D01*
X004725Y000651D01*
X004770Y000606D01*
X004770Y000561D01*
X004725Y000516D01*
X004635Y000516D01*
X004590Y000561D01*
X004590Y000651D01*
X004884Y000471D02*
X005064Y000471D01*
X005179Y000516D02*
X005314Y000516D01*
X005359Y000561D01*
X005359Y000606D01*
X005314Y000651D01*
X005179Y000651D01*
X005179Y000516D02*
X005179Y000787D01*
X005314Y000787D01*
X005359Y000742D01*
X005359Y000696D01*
X005314Y000651D01*
X005473Y000516D02*
X005564Y000516D01*
X005519Y000516D02*
X005519Y000787D01*
X005564Y000787D02*
X005473Y000787D01*
X005670Y000696D02*
X005760Y000787D01*
X005850Y000696D01*
X005850Y000516D01*
X005965Y000561D02*
X006010Y000516D01*
X006100Y000516D01*
X006145Y000561D01*
X006145Y000606D01*
X006100Y000651D01*
X006010Y000651D01*
X005965Y000696D01*
X005965Y000742D01*
X006010Y000787D01*
X006100Y000787D01*
X006145Y000742D01*
X005850Y000651D02*
X005670Y000651D01*
X005670Y000696D02*
X005670Y000516D01*
X007444Y000480D02*
X007580Y000480D01*
X007625Y000525D01*
X007625Y000706D01*
X007580Y000751D01*
X007444Y000751D01*
X007444Y000480D01*
X007739Y000480D02*
X007739Y000525D01*
X007919Y000706D01*
X007919Y000751D01*
X007739Y000751D01*
X007739Y000882D02*
X007919Y001062D01*
X007919Y001107D01*
X007874Y001152D01*
X007784Y001152D01*
X007739Y001107D01*
X007625Y001152D02*
X007444Y000882D01*
X007625Y000882D02*
X007444Y001152D01*
X007739Y000882D02*
X007919Y000882D01*
X008328Y000751D02*
X008328Y000480D01*
X008464Y000480D01*
X008509Y000525D01*
X008509Y000571D01*
X008464Y000616D01*
X008328Y000616D01*
X008328Y000751D02*
X008464Y000751D01*
X008509Y000706D01*
X008509Y000661D01*
X008464Y000616D01*
X008623Y000751D02*
X008713Y000751D01*
X008668Y000751D02*
X008668Y000480D01*
X008623Y000480D02*
X008713Y000480D01*
X008820Y000480D02*
X008820Y000661D01*
X008910Y000751D01*
X009000Y000661D01*
X009000Y000480D01*
X009114Y000525D02*
X009159Y000480D01*
X009249Y000480D01*
X009294Y000525D01*
X009294Y000571D01*
X009249Y000616D01*
X009159Y000616D01*
X009114Y000661D01*
X009114Y000706D01*
X009159Y000751D01*
X009249Y000751D01*
X009294Y000706D01*
X009000Y000616D02*
X008820Y000616D01*
X008214Y000435D02*
X008034Y000435D01*
X010594Y000445D02*
X010729Y000445D01*
X010774Y000490D01*
X010774Y000670D01*
X010729Y000715D01*
X010594Y000715D01*
X010594Y000445D01*
X010889Y000490D02*
X010889Y000535D01*
X010934Y000580D01*
X011024Y000580D01*
X011069Y000535D01*
X011069Y000490D01*
X011024Y000445D01*
X010934Y000445D01*
X010889Y000490D01*
X010934Y000580D02*
X010889Y000625D01*
X010889Y000670D01*
X010934Y000715D01*
X011024Y000715D01*
X011069Y000670D01*
X011069Y000625D01*
X011024Y000580D01*
X011183Y000399D02*
X011364Y000399D01*
X011478Y000445D02*
X011613Y000445D01*
X011658Y000490D01*
X011658Y000535D01*
X011613Y000580D01*
X011478Y000580D01*
X011478Y000445D02*
X011478Y000715D01*
X011613Y000715D01*
X011658Y000670D01*
X011658Y000625D01*
X011613Y000580D01*
X011773Y000715D02*
X011863Y000715D01*
X011818Y000715D02*
X011818Y000445D01*
X011773Y000445D02*
X011863Y000445D01*
X011969Y000445D02*
X011969Y000625D01*
X012059Y000715D01*
X012149Y000625D01*
X012149Y000445D01*
X012264Y000490D02*
X012309Y000445D01*
X012399Y000445D01*
X012444Y000490D01*
X012444Y000535D01*
X012399Y000580D01*
X012309Y000580D01*
X012264Y000625D01*
X012264Y000670D01*
X012309Y000715D01*
X012399Y000715D01*
X012444Y000670D01*
X012149Y000580D02*
X011969Y000580D01*
X011069Y000846D02*
X010889Y000846D01*
X010979Y000846D02*
X010979Y001116D01*
X010889Y001026D01*
X010774Y001116D02*
X010594Y000846D01*
X010774Y000846D02*
X010594Y001116D01*
D12*
X015712Y004166D02*
X014829Y004166D01*
X014830Y004167D02*
X014823Y004205D01*
X014813Y004243D01*
X014800Y004279D01*
X014783Y004314D01*
X014762Y004347D01*
X014739Y004378D01*
X014713Y004407D01*
X014684Y004433D01*
X014653Y004456D01*
X014620Y004477D01*
X014585Y004494D01*
X014549Y004507D01*
X014511Y004517D01*
X014473Y004524D01*
X014472Y005406D01*
X014473Y005406D01*
X014544Y005401D01*
X014615Y005393D01*
X014685Y005380D01*
X014755Y005364D01*
X014823Y005343D01*
X014890Y005319D01*
X014956Y005292D01*
X015020Y005261D01*
X015082Y005226D01*
X015143Y005188D01*
X015201Y005146D01*
X015256Y005102D01*
X015310Y005054D01*
X015360Y005004D01*
X015408Y004950D01*
X015452Y004895D01*
X015494Y004837D01*
X015532Y004776D01*
X015567Y004714D01*
X015598Y004650D01*
X015625Y004584D01*
X015649Y004517D01*
X015670Y004449D01*
X015686Y004379D01*
X015699Y004309D01*
X015707Y004238D01*
X015712Y004167D01*
X015618Y004167D01*
X015613Y004235D01*
X015604Y004303D01*
X015592Y004370D01*
X015575Y004437D01*
X015555Y004502D01*
X015531Y004566D01*
X015504Y004629D01*
X015473Y004690D01*
X015438Y004749D01*
X015401Y004806D01*
X015360Y004861D01*
X015316Y004913D01*
X015269Y004963D01*
X015219Y005010D01*
X015167Y005054D01*
X015112Y005095D01*
X015055Y005132D01*
X014996Y005167D01*
X014935Y005198D01*
X014872Y005225D01*
X014808Y005249D01*
X014743Y005269D01*
X014676Y005286D01*
X014609Y005298D01*
X014541Y005307D01*
X014473Y005312D01*
X014473Y005218D01*
X014538Y005213D01*
X014603Y005204D01*
X014667Y005192D01*
X014730Y005175D01*
X014792Y005155D01*
X014853Y005132D01*
X014912Y005105D01*
X014970Y005074D01*
X015025Y005040D01*
X015079Y005003D01*
X015130Y004962D01*
X015179Y004919D01*
X015225Y004873D01*
X015268Y004824D01*
X015309Y004773D01*
X015346Y004719D01*
X015380Y004664D01*
X015411Y004606D01*
X015438Y004547D01*
X015461Y004486D01*
X015481Y004424D01*
X015498Y004361D01*
X015510Y004297D01*
X015519Y004232D01*
X015524Y004167D01*
X015430Y004167D01*
X015425Y004229D01*
X015416Y004290D01*
X015404Y004350D01*
X015387Y004410D01*
X015368Y004468D01*
X015344Y004526D01*
X015318Y004581D01*
X015288Y004635D01*
X015254Y004687D01*
X015218Y004737D01*
X015178Y004785D01*
X015136Y004830D01*
X015091Y004872D01*
X015043Y004912D01*
X014993Y004948D01*
X014941Y004982D01*
X014887Y005012D01*
X014832Y005038D01*
X014774Y005062D01*
X014716Y005081D01*
X014656Y005098D01*
X014596Y005110D01*
X014535Y005119D01*
X014473Y005124D01*
X014473Y005030D01*
X014531Y005025D01*
X014588Y005016D01*
X014645Y005004D01*
X014701Y004988D01*
X014756Y004968D01*
X014809Y004946D01*
X014861Y004919D01*
X014911Y004890D01*
X014959Y004857D01*
X015005Y004822D01*
X015048Y004783D01*
X015089Y004742D01*
X015128Y004699D01*
X015163Y004653D01*
X015196Y004605D01*
X015225Y004555D01*
X015252Y004503D01*
X015274Y004450D01*
X015294Y004395D01*
X015310Y004339D01*
X015322Y004282D01*
X015331Y004225D01*
X015336Y004167D01*
X015241Y004167D01*
X015236Y004223D01*
X015227Y004279D01*
X015214Y004334D01*
X015197Y004388D01*
X015176Y004441D01*
X015152Y004492D01*
X015125Y004541D01*
X015094Y004589D01*
X015060Y004634D01*
X015022Y004676D01*
X014982Y004716D01*
X014940Y004754D01*
X014895Y004788D01*
X014847Y004819D01*
X014798Y004846D01*
X014747Y004870D01*
X014694Y004891D01*
X014640Y004908D01*
X014585Y004921D01*
X014529Y004930D01*
X014473Y004935D01*
X014473Y004841D01*
X014525Y004836D01*
X014576Y004827D01*
X014626Y004814D01*
X014676Y004798D01*
X014724Y004778D01*
X014770Y004755D01*
X014815Y004728D01*
X014858Y004698D01*
X014898Y004666D01*
X014936Y004630D01*
X014972Y004592D01*
X015004Y004552D01*
X015034Y004509D01*
X015061Y004464D01*
X015084Y004418D01*
X015104Y004370D01*
X015120Y004320D01*
X015133Y004270D01*
X015142Y004219D01*
X015147Y004167D01*
X015053Y004167D01*
X015047Y004216D01*
X015037Y004265D01*
X015024Y004313D01*
X015007Y004359D01*
X014986Y004404D01*
X014962Y004447D01*
X014934Y004489D01*
X014904Y004527D01*
X014870Y004564D01*
X014833Y004598D01*
X014795Y004628D01*
X014753Y004656D01*
X014710Y004680D01*
X014665Y004701D01*
X014619Y004718D01*
X014571Y004731D01*
X014522Y004741D01*
X014473Y004747D01*
X014473Y004653D01*
X014516Y004647D01*
X014559Y004637D01*
X014601Y004625D01*
X014642Y004609D01*
X014681Y004589D01*
X014719Y004567D01*
X014754Y004541D01*
X014788Y004513D01*
X014819Y004482D01*
X014847Y004448D01*
X014873Y004413D01*
X014895Y004375D01*
X014915Y004336D01*
X014931Y004295D01*
X014943Y004253D01*
X014953Y004210D01*
X014959Y004167D01*
X014864Y004167D01*
X014858Y004206D01*
X014848Y004245D01*
X014835Y004282D01*
X014819Y004319D01*
X014799Y004353D01*
X014776Y004386D01*
X014751Y004417D01*
X014723Y004445D01*
X014692Y004470D01*
X014659Y004493D01*
X014625Y004513D01*
X014588Y004529D01*
X014551Y004542D01*
X014512Y004552D01*
X014473Y004558D01*
X013134Y004068D02*
X014017Y004068D01*
X014016Y004067D02*
X014023Y004029D01*
X014033Y003991D01*
X014046Y003955D01*
X014063Y003920D01*
X014084Y003887D01*
X014107Y003856D01*
X014133Y003827D01*
X014162Y003801D01*
X014193Y003778D01*
X014226Y003757D01*
X014261Y003740D01*
X014297Y003727D01*
X014335Y003717D01*
X014373Y003710D01*
X014374Y002828D01*
X014373Y002828D01*
X014302Y002833D01*
X014231Y002841D01*
X014161Y002854D01*
X014091Y002870D01*
X014023Y002891D01*
X013956Y002915D01*
X013890Y002942D01*
X013826Y002973D01*
X013764Y003008D01*
X013703Y003046D01*
X013645Y003088D01*
X013590Y003132D01*
X013536Y003180D01*
X013486Y003230D01*
X013438Y003284D01*
X013394Y003339D01*
X013352Y003397D01*
X013314Y003458D01*
X013279Y003520D01*
X013248Y003584D01*
X013221Y003650D01*
X013197Y003717D01*
X013176Y003785D01*
X013160Y003855D01*
X013147Y003925D01*
X013139Y003996D01*
X013134Y004067D01*
X013228Y004067D01*
X013233Y003999D01*
X013242Y003931D01*
X013254Y003864D01*
X013271Y003797D01*
X013291Y003732D01*
X013315Y003668D01*
X013342Y003605D01*
X013373Y003544D01*
X013408Y003485D01*
X013445Y003428D01*
X013486Y003373D01*
X013530Y003321D01*
X013577Y003271D01*
X013627Y003224D01*
X013679Y003180D01*
X013734Y003139D01*
X013791Y003102D01*
X013850Y003067D01*
X013911Y003036D01*
X013974Y003009D01*
X014038Y002985D01*
X014103Y002965D01*
X014170Y002948D01*
X014237Y002936D01*
X014305Y002927D01*
X014373Y002922D01*
X014373Y003016D01*
X014308Y003021D01*
X014243Y003030D01*
X014179Y003042D01*
X014116Y003059D01*
X014054Y003079D01*
X013993Y003102D01*
X013934Y003129D01*
X013876Y003160D01*
X013821Y003194D01*
X013767Y003231D01*
X013716Y003272D01*
X013667Y003315D01*
X013621Y003361D01*
X013578Y003410D01*
X013537Y003461D01*
X013500Y003515D01*
X013466Y003570D01*
X013435Y003628D01*
X013408Y003687D01*
X013385Y003748D01*
X013365Y003810D01*
X013348Y003873D01*
X013336Y003937D01*
X013327Y004002D01*
X013322Y004067D01*
X013416Y004067D01*
X013421Y004005D01*
X013430Y003944D01*
X013442Y003884D01*
X013459Y003824D01*
X013478Y003766D01*
X013502Y003708D01*
X013528Y003653D01*
X013558Y003599D01*
X013592Y003547D01*
X013628Y003497D01*
X013668Y003449D01*
X013710Y003404D01*
X013755Y003362D01*
X013803Y003322D01*
X013853Y003286D01*
X013905Y003252D01*
X013959Y003222D01*
X014014Y003196D01*
X014072Y003172D01*
X014130Y003153D01*
X014190Y003136D01*
X014250Y003124D01*
X014311Y003115D01*
X014373Y003110D01*
X014373Y003204D01*
X014315Y003209D01*
X014258Y003218D01*
X014201Y003230D01*
X014145Y003246D01*
X014090Y003266D01*
X014037Y003288D01*
X013985Y003315D01*
X013935Y003344D01*
X013887Y003377D01*
X013841Y003412D01*
X013798Y003451D01*
X013757Y003492D01*
X013718Y003535D01*
X013683Y003581D01*
X013650Y003629D01*
X013621Y003679D01*
X013594Y003731D01*
X013572Y003784D01*
X013552Y003839D01*
X013536Y003895D01*
X013524Y003952D01*
X013515Y004009D01*
X013510Y004067D01*
X013605Y004067D01*
X013610Y004011D01*
X013619Y003955D01*
X013632Y003900D01*
X013649Y003846D01*
X013670Y003793D01*
X013694Y003742D01*
X013721Y003693D01*
X013752Y003645D01*
X013786Y003600D01*
X013824Y003558D01*
X013864Y003518D01*
X013906Y003480D01*
X013951Y003446D01*
X013999Y003415D01*
X014048Y003388D01*
X014099Y003364D01*
X014152Y003343D01*
X014206Y003326D01*
X014261Y003313D01*
X014317Y003304D01*
X014373Y003299D01*
X014373Y003393D01*
X014321Y003398D01*
X014270Y003407D01*
X014220Y003420D01*
X014170Y003436D01*
X014122Y003456D01*
X014076Y003479D01*
X014031Y003506D01*
X013988Y003536D01*
X013948Y003568D01*
X013910Y003604D01*
X013874Y003642D01*
X013842Y003682D01*
X013812Y003725D01*
X013785Y003770D01*
X013762Y003816D01*
X013742Y003864D01*
X013726Y003914D01*
X013713Y003964D01*
X013704Y004015D01*
X013699Y004067D01*
X013793Y004067D01*
X013799Y004018D01*
X013809Y003969D01*
X013822Y003921D01*
X013839Y003875D01*
X013860Y003830D01*
X013884Y003787D01*
X013912Y003745D01*
X013942Y003707D01*
X013976Y003670D01*
X014013Y003636D01*
X014051Y003606D01*
X014093Y003578D01*
X014136Y003554D01*
X014181Y003533D01*
X014227Y003516D01*
X014275Y003503D01*
X014324Y003493D01*
X014373Y003487D01*
X014373Y003581D01*
X014330Y003587D01*
X014287Y003597D01*
X014245Y003609D01*
X014204Y003625D01*
X014165Y003645D01*
X014127Y003667D01*
X014092Y003693D01*
X014058Y003721D01*
X014027Y003752D01*
X013999Y003786D01*
X013973Y003821D01*
X013951Y003859D01*
X013931Y003898D01*
X013915Y003939D01*
X013903Y003981D01*
X013893Y004024D01*
X013887Y004067D01*
X013982Y004067D01*
X013988Y004028D01*
X013998Y003989D01*
X014011Y003952D01*
X014027Y003915D01*
X014047Y003881D01*
X014070Y003848D01*
X014095Y003817D01*
X014123Y003789D01*
X014154Y003764D01*
X014187Y003741D01*
X014221Y003721D01*
X014258Y003705D01*
X014295Y003692D01*
X014334Y003682D01*
X014373Y003676D01*
X015712Y010465D02*
X014829Y010465D01*
X014830Y010466D02*
X014823Y010504D01*
X014813Y010542D01*
X014800Y010578D01*
X014783Y010613D01*
X014762Y010646D01*
X014739Y010677D01*
X014713Y010706D01*
X014684Y010732D01*
X014653Y010755D01*
X014620Y010776D01*
X014585Y010793D01*
X014549Y010806D01*
X014511Y010816D01*
X014473Y010823D01*
X014472Y011705D01*
X014473Y011705D01*
X014544Y011700D01*
X014615Y011692D01*
X014685Y011679D01*
X014755Y011663D01*
X014823Y011642D01*
X014890Y011618D01*
X014956Y011591D01*
X015020Y011560D01*
X015082Y011525D01*
X015143Y011487D01*
X015201Y011445D01*
X015256Y011401D01*
X015310Y011353D01*
X015360Y011303D01*
X015408Y011249D01*
X015452Y011194D01*
X015494Y011136D01*
X015532Y011075D01*
X015567Y011013D01*
X015598Y010949D01*
X015625Y010883D01*
X015649Y010816D01*
X015670Y010748D01*
X015686Y010678D01*
X015699Y010608D01*
X015707Y010537D01*
X015712Y010466D01*
X015618Y010466D01*
X015613Y010534D01*
X015604Y010602D01*
X015592Y010669D01*
X015575Y010736D01*
X015555Y010801D01*
X015531Y010865D01*
X015504Y010928D01*
X015473Y010989D01*
X015438Y011048D01*
X015401Y011105D01*
X015360Y011160D01*
X015316Y011212D01*
X015269Y011262D01*
X015219Y011309D01*
X015167Y011353D01*
X015112Y011394D01*
X015055Y011431D01*
X014996Y011466D01*
X014935Y011497D01*
X014872Y011524D01*
X014808Y011548D01*
X014743Y011568D01*
X014676Y011585D01*
X014609Y011597D01*
X014541Y011606D01*
X014473Y011611D01*
X014473Y011517D01*
X014538Y011512D01*
X014603Y011503D01*
X014667Y011491D01*
X014730Y011474D01*
X014792Y011454D01*
X014853Y011431D01*
X014912Y011404D01*
X014970Y011373D01*
X015025Y011339D01*
X015079Y011302D01*
X015130Y011261D01*
X015179Y011218D01*
X015225Y011172D01*
X015268Y011123D01*
X015309Y011072D01*
X015346Y011018D01*
X015380Y010963D01*
X015411Y010905D01*
X015438Y010846D01*
X015461Y010785D01*
X015481Y010723D01*
X015498Y010660D01*
X015510Y010596D01*
X015519Y010531D01*
X015524Y010466D01*
X015430Y010466D01*
X015425Y010528D01*
X015416Y010589D01*
X015404Y010649D01*
X015387Y010709D01*
X015368Y010767D01*
X015344Y010825D01*
X015318Y010880D01*
X015288Y010934D01*
X015254Y010986D01*
X015218Y011036D01*
X015178Y011084D01*
X015136Y011129D01*
X015091Y011171D01*
X015043Y011211D01*
X014993Y011247D01*
X014941Y011281D01*
X014887Y011311D01*
X014832Y011337D01*
X014774Y011361D01*
X014716Y011380D01*
X014656Y011397D01*
X014596Y011409D01*
X014535Y011418D01*
X014473Y011423D01*
X014473Y011329D01*
X014531Y011324D01*
X014588Y011315D01*
X014645Y011303D01*
X014701Y011287D01*
X014756Y011267D01*
X014809Y011245D01*
X014861Y011218D01*
X014911Y011189D01*
X014959Y011156D01*
X015005Y011121D01*
X015048Y011082D01*
X015089Y011041D01*
X015128Y010998D01*
X015163Y010952D01*
X015196Y010904D01*
X015225Y010854D01*
X015252Y010802D01*
X015274Y010749D01*
X015294Y010694D01*
X015310Y010638D01*
X015322Y010581D01*
X015331Y010524D01*
X015336Y010466D01*
X015241Y010466D01*
X015236Y010522D01*
X015227Y010578D01*
X015214Y010633D01*
X015197Y010687D01*
X015176Y010740D01*
X015152Y010791D01*
X015125Y010840D01*
X015094Y010888D01*
X015060Y010933D01*
X015022Y010975D01*
X014982Y011015D01*
X014940Y011053D01*
X014895Y011087D01*
X014847Y011118D01*
X014798Y011145D01*
X014747Y011169D01*
X014694Y011190D01*
X014640Y011207D01*
X014585Y011220D01*
X014529Y011229D01*
X014473Y011234D01*
X014473Y011140D01*
X014525Y011135D01*
X014576Y011126D01*
X014626Y011113D01*
X014676Y011097D01*
X014724Y011077D01*
X014770Y011054D01*
X014815Y011027D01*
X014858Y010997D01*
X014898Y010965D01*
X014936Y010929D01*
X014972Y010891D01*
X015004Y010851D01*
X015034Y010808D01*
X015061Y010763D01*
X015084Y010717D01*
X015104Y010669D01*
X015120Y010619D01*
X015133Y010569D01*
X015142Y010518D01*
X015147Y010466D01*
X015053Y010466D01*
X015047Y010515D01*
X015037Y010564D01*
X015024Y010612D01*
X015007Y010658D01*
X014986Y010703D01*
X014962Y010746D01*
X014934Y010788D01*
X014904Y010826D01*
X014870Y010863D01*
X014833Y010897D01*
X014795Y010927D01*
X014753Y010955D01*
X014710Y010979D01*
X014665Y011000D01*
X014619Y011017D01*
X014571Y011030D01*
X014522Y011040D01*
X014473Y011046D01*
X014473Y010952D01*
X014516Y010946D01*
X014559Y010936D01*
X014601Y010924D01*
X014642Y010908D01*
X014681Y010888D01*
X014719Y010866D01*
X014754Y010840D01*
X014788Y010812D01*
X014819Y010781D01*
X014847Y010747D01*
X014873Y010712D01*
X014895Y010674D01*
X014915Y010635D01*
X014931Y010594D01*
X014943Y010552D01*
X014953Y010509D01*
X014959Y010466D01*
X014864Y010466D01*
X014858Y010505D01*
X014848Y010544D01*
X014835Y010581D01*
X014819Y010618D01*
X014799Y010652D01*
X014776Y010685D01*
X014751Y010716D01*
X014723Y010744D01*
X014692Y010769D01*
X014659Y010792D01*
X014625Y010812D01*
X014588Y010828D01*
X014551Y010841D01*
X014512Y010851D01*
X014473Y010857D01*
X013134Y010367D02*
X014017Y010367D01*
X014016Y010366D02*
X014023Y010328D01*
X014033Y010290D01*
X014046Y010254D01*
X014063Y010219D01*
X014084Y010186D01*
X014107Y010155D01*
X014133Y010126D01*
X014162Y010100D01*
X014193Y010077D01*
X014226Y010056D01*
X014261Y010039D01*
X014297Y010026D01*
X014335Y010016D01*
X014373Y010009D01*
X014374Y009127D01*
X014373Y009127D01*
X014302Y009132D01*
X014231Y009140D01*
X014161Y009153D01*
X014091Y009169D01*
X014023Y009190D01*
X013956Y009214D01*
X013890Y009241D01*
X013826Y009272D01*
X013764Y009307D01*
X013703Y009345D01*
X013645Y009387D01*
X013590Y009431D01*
X013536Y009479D01*
X013486Y009529D01*
X013438Y009583D01*
X013394Y009638D01*
X013352Y009696D01*
X013314Y009757D01*
X013279Y009819D01*
X013248Y009883D01*
X013221Y009949D01*
X013197Y010016D01*
X013176Y010084D01*
X013160Y010154D01*
X013147Y010224D01*
X013139Y010295D01*
X013134Y010366D01*
X013228Y010366D01*
X013233Y010298D01*
X013242Y010230D01*
X013254Y010163D01*
X013271Y010096D01*
X013291Y010031D01*
X013315Y009967D01*
X013342Y009904D01*
X013373Y009843D01*
X013408Y009784D01*
X013445Y009727D01*
X013486Y009672D01*
X013530Y009620D01*
X013577Y009570D01*
X013627Y009523D01*
X013679Y009479D01*
X013734Y009438D01*
X013791Y009401D01*
X013850Y009366D01*
X013911Y009335D01*
X013974Y009308D01*
X014038Y009284D01*
X014103Y009264D01*
X014170Y009247D01*
X014237Y009235D01*
X014305Y009226D01*
X014373Y009221D01*
X014373Y009315D01*
X014308Y009320D01*
X014243Y009329D01*
X014179Y009341D01*
X014116Y009358D01*
X014054Y009378D01*
X013993Y009401D01*
X013934Y009428D01*
X013876Y009459D01*
X013821Y009493D01*
X013767Y009530D01*
X013716Y009571D01*
X013667Y009614D01*
X013621Y009660D01*
X013578Y009709D01*
X013537Y009760D01*
X013500Y009814D01*
X013466Y009869D01*
X013435Y009927D01*
X013408Y009986D01*
X013385Y010047D01*
X013365Y010109D01*
X013348Y010172D01*
X013336Y010236D01*
X013327Y010301D01*
X013322Y010366D01*
X013416Y010366D01*
X013421Y010304D01*
X013430Y010243D01*
X013442Y010183D01*
X013459Y010123D01*
X013478Y010065D01*
X013502Y010007D01*
X013528Y009952D01*
X013558Y009898D01*
X013592Y009846D01*
X013628Y009796D01*
X013668Y009748D01*
X013710Y009703D01*
X013755Y009661D01*
X013803Y009621D01*
X013853Y009585D01*
X013905Y009551D01*
X013959Y009521D01*
X014014Y009495D01*
X014072Y009471D01*
X014130Y009452D01*
X014190Y009435D01*
X014250Y009423D01*
X014311Y009414D01*
X014373Y009409D01*
X014373Y009503D01*
X014315Y009508D01*
X014258Y009517D01*
X014201Y009529D01*
X014145Y009545D01*
X014090Y009565D01*
X014037Y009587D01*
X013985Y009614D01*
X013935Y009643D01*
X013887Y009676D01*
X013841Y009711D01*
X013798Y009750D01*
X013757Y009791D01*
X013718Y009834D01*
X013683Y009880D01*
X013650Y009928D01*
X013621Y009978D01*
X013594Y010030D01*
X013572Y010083D01*
X013552Y010138D01*
X013536Y010194D01*
X013524Y010251D01*
X013515Y010308D01*
X013510Y010366D01*
X013605Y010366D01*
X013610Y010310D01*
X013619Y010254D01*
X013632Y010199D01*
X013649Y010145D01*
X013670Y010092D01*
X013694Y010041D01*
X013721Y009992D01*
X013752Y009944D01*
X013786Y009899D01*
X013824Y009857D01*
X013864Y009817D01*
X013906Y009779D01*
X013951Y009745D01*
X013999Y009714D01*
X014048Y009687D01*
X014099Y009663D01*
X014152Y009642D01*
X014206Y009625D01*
X014261Y009612D01*
X014317Y009603D01*
X014373Y009598D01*
X014373Y009692D01*
X014321Y009697D01*
X014270Y009706D01*
X014220Y009719D01*
X014170Y009735D01*
X014122Y009755D01*
X014076Y009778D01*
X014031Y009805D01*
X013988Y009835D01*
X013948Y009867D01*
X013910Y009903D01*
X013874Y009941D01*
X013842Y009981D01*
X013812Y010024D01*
X013785Y010069D01*
X013762Y010115D01*
X013742Y010163D01*
X013726Y010213D01*
X013713Y010263D01*
X013704Y010314D01*
X013699Y010366D01*
X013793Y010366D01*
X013799Y010317D01*
X013809Y010268D01*
X013822Y010220D01*
X013839Y010174D01*
X013860Y010129D01*
X013884Y010086D01*
X013912Y010044D01*
X013942Y010006D01*
X013976Y009969D01*
X014013Y009935D01*
X014051Y009905D01*
X014093Y009877D01*
X014136Y009853D01*
X014181Y009832D01*
X014227Y009815D01*
X014275Y009802D01*
X014324Y009792D01*
X014373Y009786D01*
X014373Y009880D01*
X014330Y009886D01*
X014287Y009896D01*
X014245Y009908D01*
X014204Y009924D01*
X014165Y009944D01*
X014127Y009966D01*
X014092Y009992D01*
X014058Y010020D01*
X014027Y010051D01*
X013999Y010085D01*
X013973Y010120D01*
X013951Y010158D01*
X013931Y010197D01*
X013915Y010238D01*
X013903Y010280D01*
X013893Y010323D01*
X013887Y010366D01*
X013982Y010366D01*
X013988Y010327D01*
X013998Y010288D01*
X014011Y010251D01*
X014027Y010214D01*
X014047Y010180D01*
X014070Y010147D01*
X014095Y010116D01*
X014123Y010088D01*
X014154Y010063D01*
X014187Y010040D01*
X014221Y010020D01*
X014258Y010004D01*
X014295Y009991D01*
X014334Y009981D01*
X014373Y009975D01*
X003114Y010465D02*
X002231Y010465D01*
X002232Y010466D02*
X002225Y010504D01*
X002215Y010542D01*
X002202Y010578D01*
X002185Y010613D01*
X002164Y010646D01*
X002141Y010677D01*
X002115Y010706D01*
X002086Y010732D01*
X002055Y010755D01*
X002022Y010776D01*
X001987Y010793D01*
X001951Y010806D01*
X001913Y010816D01*
X001875Y010823D01*
X001874Y011705D01*
X001875Y011705D01*
X001946Y011700D01*
X002017Y011692D01*
X002087Y011679D01*
X002157Y011663D01*
X002225Y011642D01*
X002292Y011618D01*
X002358Y011591D01*
X002422Y011560D01*
X002484Y011525D01*
X002545Y011487D01*
X002603Y011445D01*
X002658Y011401D01*
X002712Y011353D01*
X002762Y011303D01*
X002810Y011249D01*
X002854Y011194D01*
X002896Y011136D01*
X002934Y011075D01*
X002969Y011013D01*
X003000Y010949D01*
X003027Y010883D01*
X003051Y010816D01*
X003072Y010748D01*
X003088Y010678D01*
X003101Y010608D01*
X003109Y010537D01*
X003114Y010466D01*
X003020Y010466D01*
X003015Y010534D01*
X003006Y010602D01*
X002994Y010669D01*
X002977Y010736D01*
X002957Y010801D01*
X002933Y010865D01*
X002906Y010928D01*
X002875Y010989D01*
X002840Y011048D01*
X002803Y011105D01*
X002762Y011160D01*
X002718Y011212D01*
X002671Y011262D01*
X002621Y011309D01*
X002569Y011353D01*
X002514Y011394D01*
X002457Y011431D01*
X002398Y011466D01*
X002337Y011497D01*
X002274Y011524D01*
X002210Y011548D01*
X002145Y011568D01*
X002078Y011585D01*
X002011Y011597D01*
X001943Y011606D01*
X001875Y011611D01*
X001875Y011517D01*
X001940Y011512D01*
X002005Y011503D01*
X002069Y011491D01*
X002132Y011474D01*
X002194Y011454D01*
X002255Y011431D01*
X002314Y011404D01*
X002372Y011373D01*
X002427Y011339D01*
X002481Y011302D01*
X002532Y011261D01*
X002581Y011218D01*
X002627Y011172D01*
X002670Y011123D01*
X002711Y011072D01*
X002748Y011018D01*
X002782Y010963D01*
X002813Y010905D01*
X002840Y010846D01*
X002863Y010785D01*
X002883Y010723D01*
X002900Y010660D01*
X002912Y010596D01*
X002921Y010531D01*
X002926Y010466D01*
X002832Y010466D01*
X002827Y010528D01*
X002818Y010589D01*
X002806Y010649D01*
X002789Y010709D01*
X002770Y010767D01*
X002746Y010825D01*
X002720Y010880D01*
X002690Y010934D01*
X002656Y010986D01*
X002620Y011036D01*
X002580Y011084D01*
X002538Y011129D01*
X002493Y011171D01*
X002445Y011211D01*
X002395Y011247D01*
X002343Y011281D01*
X002289Y011311D01*
X002234Y011337D01*
X002176Y011361D01*
X002118Y011380D01*
X002058Y011397D01*
X001998Y011409D01*
X001937Y011418D01*
X001875Y011423D01*
X001875Y011329D01*
X001933Y011324D01*
X001990Y011315D01*
X002047Y011303D01*
X002103Y011287D01*
X002158Y011267D01*
X002211Y011245D01*
X002263Y011218D01*
X002313Y011189D01*
X002361Y011156D01*
X002407Y011121D01*
X002450Y011082D01*
X002491Y011041D01*
X002530Y010998D01*
X002565Y010952D01*
X002598Y010904D01*
X002627Y010854D01*
X002654Y010802D01*
X002676Y010749D01*
X002696Y010694D01*
X002712Y010638D01*
X002724Y010581D01*
X002733Y010524D01*
X002738Y010466D01*
X002643Y010466D01*
X002638Y010522D01*
X002629Y010578D01*
X002616Y010633D01*
X002599Y010687D01*
X002578Y010740D01*
X002554Y010791D01*
X002527Y010840D01*
X002496Y010888D01*
X002462Y010933D01*
X002424Y010975D01*
X002384Y011015D01*
X002342Y011053D01*
X002297Y011087D01*
X002249Y011118D01*
X002200Y011145D01*
X002149Y011169D01*
X002096Y011190D01*
X002042Y011207D01*
X001987Y011220D01*
X001931Y011229D01*
X001875Y011234D01*
X001875Y011140D01*
X001927Y011135D01*
X001978Y011126D01*
X002028Y011113D01*
X002078Y011097D01*
X002126Y011077D01*
X002172Y011054D01*
X002217Y011027D01*
X002260Y010997D01*
X002300Y010965D01*
X002338Y010929D01*
X002374Y010891D01*
X002406Y010851D01*
X002436Y010808D01*
X002463Y010763D01*
X002486Y010717D01*
X002506Y010669D01*
X002522Y010619D01*
X002535Y010569D01*
X002544Y010518D01*
X002549Y010466D01*
X002455Y010466D01*
X002449Y010515D01*
X002439Y010564D01*
X002426Y010612D01*
X002409Y010658D01*
X002388Y010703D01*
X002364Y010746D01*
X002336Y010788D01*
X002306Y010826D01*
X002272Y010863D01*
X002235Y010897D01*
X002197Y010927D01*
X002155Y010955D01*
X002112Y010979D01*
X002067Y011000D01*
X002021Y011017D01*
X001973Y011030D01*
X001924Y011040D01*
X001875Y011046D01*
X001875Y010952D01*
X001918Y010946D01*
X001961Y010936D01*
X002003Y010924D01*
X002044Y010908D01*
X002083Y010888D01*
X002121Y010866D01*
X002156Y010840D01*
X002190Y010812D01*
X002221Y010781D01*
X002249Y010747D01*
X002275Y010712D01*
X002297Y010674D01*
X002317Y010635D01*
X002333Y010594D01*
X002345Y010552D01*
X002355Y010509D01*
X002361Y010466D01*
X002266Y010466D01*
X002260Y010505D01*
X002250Y010544D01*
X002237Y010581D01*
X002221Y010618D01*
X002201Y010652D01*
X002178Y010685D01*
X002153Y010716D01*
X002125Y010744D01*
X002094Y010769D01*
X002061Y010792D01*
X002027Y010812D01*
X001990Y010828D01*
X001953Y010841D01*
X001914Y010851D01*
X001875Y010857D01*
X000536Y010367D02*
X001419Y010367D01*
X001418Y010366D02*
X001425Y010328D01*
X001435Y010290D01*
X001448Y010254D01*
X001465Y010219D01*
X001486Y010186D01*
X001509Y010155D01*
X001535Y010126D01*
X001564Y010100D01*
X001595Y010077D01*
X001628Y010056D01*
X001663Y010039D01*
X001699Y010026D01*
X001737Y010016D01*
X001775Y010009D01*
X001776Y009127D01*
X001775Y009127D01*
X001704Y009132D01*
X001633Y009140D01*
X001563Y009153D01*
X001493Y009169D01*
X001425Y009190D01*
X001358Y009214D01*
X001292Y009241D01*
X001228Y009272D01*
X001166Y009307D01*
X001105Y009345D01*
X001047Y009387D01*
X000992Y009431D01*
X000938Y009479D01*
X000888Y009529D01*
X000840Y009583D01*
X000796Y009638D01*
X000754Y009696D01*
X000716Y009757D01*
X000681Y009819D01*
X000650Y009883D01*
X000623Y009949D01*
X000599Y010016D01*
X000578Y010084D01*
X000562Y010154D01*
X000549Y010224D01*
X000541Y010295D01*
X000536Y010366D01*
X000630Y010366D01*
X000635Y010298D01*
X000644Y010230D01*
X000656Y010163D01*
X000673Y010096D01*
X000693Y010031D01*
X000717Y009967D01*
X000744Y009904D01*
X000775Y009843D01*
X000810Y009784D01*
X000847Y009727D01*
X000888Y009672D01*
X000932Y009620D01*
X000979Y009570D01*
X001029Y009523D01*
X001081Y009479D01*
X001136Y009438D01*
X001193Y009401D01*
X001252Y009366D01*
X001313Y009335D01*
X001376Y009308D01*
X001440Y009284D01*
X001505Y009264D01*
X001572Y009247D01*
X001639Y009235D01*
X001707Y009226D01*
X001775Y009221D01*
X001775Y009315D01*
X001710Y009320D01*
X001645Y009329D01*
X001581Y009341D01*
X001518Y009358D01*
X001456Y009378D01*
X001395Y009401D01*
X001336Y009428D01*
X001278Y009459D01*
X001223Y009493D01*
X001169Y009530D01*
X001118Y009571D01*
X001069Y009614D01*
X001023Y009660D01*
X000980Y009709D01*
X000939Y009760D01*
X000902Y009814D01*
X000868Y009869D01*
X000837Y009927D01*
X000810Y009986D01*
X000787Y010047D01*
X000767Y010109D01*
X000750Y010172D01*
X000738Y010236D01*
X000729Y010301D01*
X000724Y010366D01*
X000818Y010366D01*
X000823Y010304D01*
X000832Y010243D01*
X000844Y010183D01*
X000861Y010123D01*
X000880Y010065D01*
X000904Y010007D01*
X000930Y009952D01*
X000960Y009898D01*
X000994Y009846D01*
X001030Y009796D01*
X001070Y009748D01*
X001112Y009703D01*
X001157Y009661D01*
X001205Y009621D01*
X001255Y009585D01*
X001307Y009551D01*
X001361Y009521D01*
X001416Y009495D01*
X001474Y009471D01*
X001532Y009452D01*
X001592Y009435D01*
X001652Y009423D01*
X001713Y009414D01*
X001775Y009409D01*
X001775Y009503D01*
X001717Y009508D01*
X001660Y009517D01*
X001603Y009529D01*
X001547Y009545D01*
X001492Y009565D01*
X001439Y009587D01*
X001387Y009614D01*
X001337Y009643D01*
X001289Y009676D01*
X001243Y009711D01*
X001200Y009750D01*
X001159Y009791D01*
X001120Y009834D01*
X001085Y009880D01*
X001052Y009928D01*
X001023Y009978D01*
X000996Y010030D01*
X000974Y010083D01*
X000954Y010138D01*
X000938Y010194D01*
X000926Y010251D01*
X000917Y010308D01*
X000912Y010366D01*
X001007Y010366D01*
X001012Y010310D01*
X001021Y010254D01*
X001034Y010199D01*
X001051Y010145D01*
X001072Y010092D01*
X001096Y010041D01*
X001123Y009992D01*
X001154Y009944D01*
X001188Y009899D01*
X001226Y009857D01*
X001266Y009817D01*
X001308Y009779D01*
X001353Y009745D01*
X001401Y009714D01*
X001450Y009687D01*
X001501Y009663D01*
X001554Y009642D01*
X001608Y009625D01*
X001663Y009612D01*
X001719Y009603D01*
X001775Y009598D01*
X001775Y009692D01*
X001723Y009697D01*
X001672Y009706D01*
X001622Y009719D01*
X001572Y009735D01*
X001524Y009755D01*
X001478Y009778D01*
X001433Y009805D01*
X001390Y009835D01*
X001350Y009867D01*
X001312Y009903D01*
X001276Y009941D01*
X001244Y009981D01*
X001214Y010024D01*
X001187Y010069D01*
X001164Y010115D01*
X001144Y010163D01*
X001128Y010213D01*
X001115Y010263D01*
X001106Y010314D01*
X001101Y010366D01*
X001195Y010366D01*
X001201Y010317D01*
X001211Y010268D01*
X001224Y010220D01*
X001241Y010174D01*
X001262Y010129D01*
X001286Y010086D01*
X001314Y010044D01*
X001344Y010006D01*
X001378Y009969D01*
X001415Y009935D01*
X001453Y009905D01*
X001495Y009877D01*
X001538Y009853D01*
X001583Y009832D01*
X001629Y009815D01*
X001677Y009802D01*
X001726Y009792D01*
X001775Y009786D01*
X001775Y009880D01*
X001732Y009886D01*
X001689Y009896D01*
X001647Y009908D01*
X001606Y009924D01*
X001567Y009944D01*
X001529Y009966D01*
X001494Y009992D01*
X001460Y010020D01*
X001429Y010051D01*
X001401Y010085D01*
X001375Y010120D01*
X001353Y010158D01*
X001333Y010197D01*
X001317Y010238D01*
X001305Y010280D01*
X001295Y010323D01*
X001289Y010366D01*
X001384Y010366D01*
X001390Y010327D01*
X001400Y010288D01*
X001413Y010251D01*
X001429Y010214D01*
X001449Y010180D01*
X001472Y010147D01*
X001497Y010116D01*
X001525Y010088D01*
X001556Y010063D01*
X001589Y010040D01*
X001623Y010020D01*
X001660Y010004D01*
X001697Y009991D01*
X001736Y009981D01*
X001775Y009975D01*
X003114Y004166D02*
X002231Y004166D01*
X002232Y004167D02*
X002225Y004205D01*
X002215Y004243D01*
X002202Y004279D01*
X002185Y004314D01*
X002164Y004347D01*
X002141Y004378D01*
X002115Y004407D01*
X002086Y004433D01*
X002055Y004456D01*
X002022Y004477D01*
X001987Y004494D01*
X001951Y004507D01*
X001913Y004517D01*
X001875Y004524D01*
X001874Y005406D01*
X001875Y005406D01*
X001946Y005401D01*
X002017Y005393D01*
X002087Y005380D01*
X002157Y005364D01*
X002225Y005343D01*
X002292Y005319D01*
X002358Y005292D01*
X002422Y005261D01*
X002484Y005226D01*
X002545Y005188D01*
X002603Y005146D01*
X002658Y005102D01*
X002712Y005054D01*
X002762Y005004D01*
X002810Y004950D01*
X002854Y004895D01*
X002896Y004837D01*
X002934Y004776D01*
X002969Y004714D01*
X003000Y004650D01*
X003027Y004584D01*
X003051Y004517D01*
X003072Y004449D01*
X003088Y004379D01*
X003101Y004309D01*
X003109Y004238D01*
X003114Y004167D01*
X003020Y004167D01*
X003015Y004235D01*
X003006Y004303D01*
X002994Y004370D01*
X002977Y004437D01*
X002957Y004502D01*
X002933Y004566D01*
X002906Y004629D01*
X002875Y004690D01*
X002840Y004749D01*
X002803Y004806D01*
X002762Y004861D01*
X002718Y004913D01*
X002671Y004963D01*
X002621Y005010D01*
X002569Y005054D01*
X002514Y005095D01*
X002457Y005132D01*
X002398Y005167D01*
X002337Y005198D01*
X002274Y005225D01*
X002210Y005249D01*
X002145Y005269D01*
X002078Y005286D01*
X002011Y005298D01*
X001943Y005307D01*
X001875Y005312D01*
X001875Y005218D01*
X001940Y005213D01*
X002005Y005204D01*
X002069Y005192D01*
X002132Y005175D01*
X002194Y005155D01*
X002255Y005132D01*
X002314Y005105D01*
X002372Y005074D01*
X002427Y005040D01*
X002481Y005003D01*
X002532Y004962D01*
X002581Y004919D01*
X002627Y004873D01*
X002670Y004824D01*
X002711Y004773D01*
X002748Y004719D01*
X002782Y004664D01*
X002813Y004606D01*
X002840Y004547D01*
X002863Y004486D01*
X002883Y004424D01*
X002900Y004361D01*
X002912Y004297D01*
X002921Y004232D01*
X002926Y004167D01*
X002832Y004167D01*
X002827Y004229D01*
X002818Y004290D01*
X002806Y004350D01*
X002789Y004410D01*
X002770Y004468D01*
X002746Y004526D01*
X002720Y004581D01*
X002690Y004635D01*
X002656Y004687D01*
X002620Y004737D01*
X002580Y004785D01*
X002538Y004830D01*
X002493Y004872D01*
X002445Y004912D01*
X002395Y004948D01*
X002343Y004982D01*
X002289Y005012D01*
X002234Y005038D01*
X002176Y005062D01*
X002118Y005081D01*
X002058Y005098D01*
X001998Y005110D01*
X001937Y005119D01*
X001875Y005124D01*
X001875Y005030D01*
X001933Y005025D01*
X001990Y005016D01*
X002047Y005004D01*
X002103Y004988D01*
X002158Y004968D01*
X002211Y004946D01*
X002263Y004919D01*
X002313Y004890D01*
X002361Y004857D01*
X002407Y004822D01*
X002450Y004783D01*
X002491Y004742D01*
X002530Y004699D01*
X002565Y004653D01*
X002598Y004605D01*
X002627Y004555D01*
X002654Y004503D01*
X002676Y004450D01*
X002696Y004395D01*
X002712Y004339D01*
X002724Y004282D01*
X002733Y004225D01*
X002738Y004167D01*
X002643Y004167D01*
X002638Y004223D01*
X002629Y004279D01*
X002616Y004334D01*
X002599Y004388D01*
X002578Y004441D01*
X002554Y004492D01*
X002527Y004541D01*
X002496Y004589D01*
X002462Y004634D01*
X002424Y004676D01*
X002384Y004716D01*
X002342Y004754D01*
X002297Y004788D01*
X002249Y004819D01*
X002200Y004846D01*
X002149Y004870D01*
X002096Y004891D01*
X002042Y004908D01*
X001987Y004921D01*
X001931Y004930D01*
X001875Y004935D01*
X001875Y004841D01*
X001927Y004836D01*
X001978Y004827D01*
X002028Y004814D01*
X002078Y004798D01*
X002126Y004778D01*
X002172Y004755D01*
X002217Y004728D01*
X002260Y004698D01*
X002300Y004666D01*
X002338Y004630D01*
X002374Y004592D01*
X002406Y004552D01*
X002436Y004509D01*
X002463Y004464D01*
X002486Y004418D01*
X002506Y004370D01*
X002522Y004320D01*
X002535Y004270D01*
X002544Y004219D01*
X002549Y004167D01*
X002455Y004167D01*
X002449Y004216D01*
X002439Y004265D01*
X002426Y004313D01*
X002409Y004359D01*
X002388Y004404D01*
X002364Y004447D01*
X002336Y004489D01*
X002306Y004527D01*
X002272Y004564D01*
X002235Y004598D01*
X002197Y004628D01*
X002155Y004656D01*
X002112Y004680D01*
X002067Y004701D01*
X002021Y004718D01*
X001973Y004731D01*
X001924Y004741D01*
X001875Y004747D01*
X001875Y004653D01*
X001918Y004647D01*
X001961Y004637D01*
X002003Y004625D01*
X002044Y004609D01*
X002083Y004589D01*
X002121Y004567D01*
X002156Y004541D01*
X002190Y004513D01*
X002221Y004482D01*
X002249Y004448D01*
X002275Y004413D01*
X002297Y004375D01*
X002317Y004336D01*
X002333Y004295D01*
X002345Y004253D01*
X002355Y004210D01*
X002361Y004167D01*
X002266Y004167D01*
X002260Y004206D01*
X002250Y004245D01*
X002237Y004282D01*
X002221Y004319D01*
X002201Y004353D01*
X002178Y004386D01*
X002153Y004417D01*
X002125Y004445D01*
X002094Y004470D01*
X002061Y004493D01*
X002027Y004513D01*
X001990Y004529D01*
X001953Y004542D01*
X001914Y004552D01*
X001875Y004558D01*
X000536Y004068D02*
X001419Y004068D01*
X001418Y004067D02*
X001425Y004029D01*
X001435Y003991D01*
X001448Y003955D01*
X001465Y003920D01*
X001486Y003887D01*
X001509Y003856D01*
X001535Y003827D01*
X001564Y003801D01*
X001595Y003778D01*
X001628Y003757D01*
X001663Y003740D01*
X001699Y003727D01*
X001737Y003717D01*
X001775Y003710D01*
X001776Y002828D01*
X001775Y002828D01*
X001704Y002833D01*
X001633Y002841D01*
X001563Y002854D01*
X001493Y002870D01*
X001425Y002891D01*
X001358Y002915D01*
X001292Y002942D01*
X001228Y002973D01*
X001166Y003008D01*
X001105Y003046D01*
X001047Y003088D01*
X000992Y003132D01*
X000938Y003180D01*
X000888Y003230D01*
X000840Y003284D01*
X000796Y003339D01*
X000754Y003397D01*
X000716Y003458D01*
X000681Y003520D01*
X000650Y003584D01*
X000623Y003650D01*
X000599Y003717D01*
X000578Y003785D01*
X000562Y003855D01*
X000549Y003925D01*
X000541Y003996D01*
X000536Y004067D01*
X000630Y004067D01*
X000635Y003999D01*
X000644Y003931D01*
X000656Y003864D01*
X000673Y003797D01*
X000693Y003732D01*
X000717Y003668D01*
X000744Y003605D01*
X000775Y003544D01*
X000810Y003485D01*
X000847Y003428D01*
X000888Y003373D01*
X000932Y003321D01*
X000979Y003271D01*
X001029Y003224D01*
X001081Y003180D01*
X001136Y003139D01*
X001193Y003102D01*
X001252Y003067D01*
X001313Y003036D01*
X001376Y003009D01*
X001440Y002985D01*
X001505Y002965D01*
X001572Y002948D01*
X001639Y002936D01*
X001707Y002927D01*
X001775Y002922D01*
X001775Y003016D01*
X001710Y003021D01*
X001645Y003030D01*
X001581Y003042D01*
X001518Y003059D01*
X001456Y003079D01*
X001395Y003102D01*
X001336Y003129D01*
X001278Y003160D01*
X001223Y003194D01*
X001169Y003231D01*
X001118Y003272D01*
X001069Y003315D01*
X001023Y003361D01*
X000980Y003410D01*
X000939Y003461D01*
X000902Y003515D01*
X000868Y003570D01*
X000837Y003628D01*
X000810Y003687D01*
X000787Y003748D01*
X000767Y003810D01*
X000750Y003873D01*
X000738Y003937D01*
X000729Y004002D01*
X000724Y004067D01*
X000818Y004067D01*
X000823Y004005D01*
X000832Y003944D01*
X000844Y003884D01*
X000861Y003824D01*
X000880Y003766D01*
X000904Y003708D01*
X000930Y003653D01*
X000960Y003599D01*
X000994Y003547D01*
X001030Y003497D01*
X001070Y003449D01*
X001112Y003404D01*
X001157Y003362D01*
X001205Y003322D01*
X001255Y003286D01*
X001307Y003252D01*
X001361Y003222D01*
X001416Y003196D01*
X001474Y003172D01*
X001532Y003153D01*
X001592Y003136D01*
X001652Y003124D01*
X001713Y003115D01*
X001775Y003110D01*
X001775Y003204D01*
X001717Y003209D01*
X001660Y003218D01*
X001603Y003230D01*
X001547Y003246D01*
X001492Y003266D01*
X001439Y003288D01*
X001387Y003315D01*
X001337Y003344D01*
X001289Y003377D01*
X001243Y003412D01*
X001200Y003451D01*
X001159Y003492D01*
X001120Y003535D01*
X001085Y003581D01*
X001052Y003629D01*
X001023Y003679D01*
X000996Y003731D01*
X000974Y003784D01*
X000954Y003839D01*
X000938Y003895D01*
X000926Y003952D01*
X000917Y004009D01*
X000912Y004067D01*
X001007Y004067D01*
X001012Y004011D01*
X001021Y003955D01*
X001034Y003900D01*
X001051Y003846D01*
X001072Y003793D01*
X001096Y003742D01*
X001123Y003693D01*
X001154Y003645D01*
X001188Y003600D01*
X001226Y003558D01*
X001266Y003518D01*
X001308Y003480D01*
X001353Y003446D01*
X001401Y003415D01*
X001450Y003388D01*
X001501Y003364D01*
X001554Y003343D01*
X001608Y003326D01*
X001663Y003313D01*
X001719Y003304D01*
X001775Y003299D01*
X001775Y003393D01*
X001723Y003398D01*
X001672Y003407D01*
X001622Y003420D01*
X001572Y003436D01*
X001524Y003456D01*
X001478Y003479D01*
X001433Y003506D01*
X001390Y003536D01*
X001350Y003568D01*
X001312Y003604D01*
X001276Y003642D01*
X001244Y003682D01*
X001214Y003725D01*
X001187Y003770D01*
X001164Y003816D01*
X001144Y003864D01*
X001128Y003914D01*
X001115Y003964D01*
X001106Y004015D01*
X001101Y004067D01*
X001195Y004067D01*
X001201Y004018D01*
X001211Y003969D01*
X001224Y003921D01*
X001241Y003875D01*
X001262Y003830D01*
X001286Y003787D01*
X001314Y003745D01*
X001344Y003707D01*
X001378Y003670D01*
X001415Y003636D01*
X001453Y003606D01*
X001495Y003578D01*
X001538Y003554D01*
X001583Y003533D01*
X001629Y003516D01*
X001677Y003503D01*
X001726Y003493D01*
X001775Y003487D01*
X001775Y003581D01*
X001732Y003587D01*
X001689Y003597D01*
X001647Y003609D01*
X001606Y003625D01*
X001567Y003645D01*
X001529Y003667D01*
X001494Y003693D01*
X001460Y003721D01*
X001429Y003752D01*
X001401Y003786D01*
X001375Y003821D01*
X001353Y003859D01*
X001333Y003898D01*
X001317Y003939D01*
X001305Y003981D01*
X001295Y004024D01*
X001289Y004067D01*
X001384Y004067D01*
X001390Y004028D01*
X001400Y003989D01*
X001413Y003952D01*
X001429Y003915D01*
X001449Y003881D01*
X001472Y003848D01*
X001497Y003817D01*
X001525Y003789D01*
X001556Y003764D01*
X001589Y003741D01*
X001623Y003721D01*
X001660Y003705D01*
X001697Y003692D01*
X001736Y003682D01*
X001775Y003676D01*
D13*
X000475Y004117D02*
X000477Y004190D01*
X000483Y004263D01*
X000493Y004335D01*
X000507Y004407D01*
X000524Y004478D01*
X000546Y004548D01*
X000571Y004617D01*
X000600Y004684D01*
X000632Y004749D01*
X000668Y004813D01*
X000708Y004875D01*
X000750Y004934D01*
X000796Y004991D01*
X000845Y005045D01*
X000897Y005097D01*
X000951Y005146D01*
X001008Y005192D01*
X001067Y005234D01*
X001129Y005274D01*
X001193Y005310D01*
X001258Y005342D01*
X001325Y005371D01*
X001394Y005396D01*
X001464Y005418D01*
X001535Y005435D01*
X001607Y005449D01*
X001679Y005459D01*
X001752Y005465D01*
X001825Y005467D01*
X001898Y005465D01*
X001971Y005459D01*
X002043Y005449D01*
X002115Y005435D01*
X002186Y005418D01*
X002256Y005396D01*
X002325Y005371D01*
X002392Y005342D01*
X002457Y005310D01*
X002521Y005274D01*
X002583Y005234D01*
X002642Y005192D01*
X002699Y005146D01*
X002753Y005097D01*
X002805Y005045D01*
X002854Y004991D01*
X002900Y004934D01*
X002942Y004875D01*
X002982Y004813D01*
X003018Y004749D01*
X003050Y004684D01*
X003079Y004617D01*
X003104Y004548D01*
X003126Y004478D01*
X003143Y004407D01*
X003157Y004335D01*
X003167Y004263D01*
X003173Y004190D01*
X003175Y004117D01*
X003173Y004044D01*
X003167Y003971D01*
X003157Y003899D01*
X003143Y003827D01*
X003126Y003756D01*
X003104Y003686D01*
X003079Y003617D01*
X003050Y003550D01*
X003018Y003485D01*
X002982Y003421D01*
X002942Y003359D01*
X002900Y003300D01*
X002854Y003243D01*
X002805Y003189D01*
X002753Y003137D01*
X002699Y003088D01*
X002642Y003042D01*
X002583Y003000D01*
X002521Y002960D01*
X002457Y002924D01*
X002392Y002892D01*
X002325Y002863D01*
X002256Y002838D01*
X002186Y002816D01*
X002115Y002799D01*
X002043Y002785D01*
X001971Y002775D01*
X001898Y002769D01*
X001825Y002767D01*
X001752Y002769D01*
X001679Y002775D01*
X001607Y002785D01*
X001535Y002799D01*
X001464Y002816D01*
X001394Y002838D01*
X001325Y002863D01*
X001258Y002892D01*
X001193Y002924D01*
X001129Y002960D01*
X001067Y003000D01*
X001008Y003042D01*
X000951Y003088D01*
X000897Y003137D01*
X000845Y003189D01*
X000796Y003243D01*
X000750Y003300D01*
X000708Y003359D01*
X000668Y003421D01*
X000632Y003485D01*
X000600Y003550D01*
X000571Y003617D01*
X000546Y003686D01*
X000524Y003756D01*
X000507Y003827D01*
X000493Y003899D01*
X000483Y003971D01*
X000477Y004044D01*
X000475Y004117D01*
X004834Y004189D02*
X004834Y003849D01*
X005115Y003849D02*
X005115Y004189D01*
X007984Y004189D02*
X007984Y003849D01*
X008264Y003849D02*
X008264Y004189D01*
X011134Y004189D02*
X011134Y003849D01*
X011414Y003849D02*
X011414Y004189D01*
X013073Y004117D02*
X013075Y004190D01*
X013081Y004263D01*
X013091Y004335D01*
X013105Y004407D01*
X013122Y004478D01*
X013144Y004548D01*
X013169Y004617D01*
X013198Y004684D01*
X013230Y004749D01*
X013266Y004813D01*
X013306Y004875D01*
X013348Y004934D01*
X013394Y004991D01*
X013443Y005045D01*
X013495Y005097D01*
X013549Y005146D01*
X013606Y005192D01*
X013665Y005234D01*
X013727Y005274D01*
X013791Y005310D01*
X013856Y005342D01*
X013923Y005371D01*
X013992Y005396D01*
X014062Y005418D01*
X014133Y005435D01*
X014205Y005449D01*
X014277Y005459D01*
X014350Y005465D01*
X014423Y005467D01*
X014496Y005465D01*
X014569Y005459D01*
X014641Y005449D01*
X014713Y005435D01*
X014784Y005418D01*
X014854Y005396D01*
X014923Y005371D01*
X014990Y005342D01*
X015055Y005310D01*
X015119Y005274D01*
X015181Y005234D01*
X015240Y005192D01*
X015297Y005146D01*
X015351Y005097D01*
X015403Y005045D01*
X015452Y004991D01*
X015498Y004934D01*
X015540Y004875D01*
X015580Y004813D01*
X015616Y004749D01*
X015648Y004684D01*
X015677Y004617D01*
X015702Y004548D01*
X015724Y004478D01*
X015741Y004407D01*
X015755Y004335D01*
X015765Y004263D01*
X015771Y004190D01*
X015773Y004117D01*
X015771Y004044D01*
X015765Y003971D01*
X015755Y003899D01*
X015741Y003827D01*
X015724Y003756D01*
X015702Y003686D01*
X015677Y003617D01*
X015648Y003550D01*
X015616Y003485D01*
X015580Y003421D01*
X015540Y003359D01*
X015498Y003300D01*
X015452Y003243D01*
X015403Y003189D01*
X015351Y003137D01*
X015297Y003088D01*
X015240Y003042D01*
X015181Y003000D01*
X015119Y002960D01*
X015055Y002924D01*
X014990Y002892D01*
X014923Y002863D01*
X014854Y002838D01*
X014784Y002816D01*
X014713Y002799D01*
X014641Y002785D01*
X014569Y002775D01*
X014496Y002769D01*
X014423Y002767D01*
X014350Y002769D01*
X014277Y002775D01*
X014205Y002785D01*
X014133Y002799D01*
X014062Y002816D01*
X013992Y002838D01*
X013923Y002863D01*
X013856Y002892D01*
X013791Y002924D01*
X013727Y002960D01*
X013665Y003000D01*
X013606Y003042D01*
X013549Y003088D01*
X013495Y003137D01*
X013443Y003189D01*
X013394Y003243D01*
X013348Y003300D01*
X013306Y003359D01*
X013266Y003421D01*
X013230Y003485D01*
X013198Y003550D01*
X013169Y003617D01*
X013144Y003686D01*
X013122Y003756D01*
X013105Y003827D01*
X013091Y003899D01*
X013081Y003971D01*
X013075Y004044D01*
X013073Y004117D01*
X011739Y008111D02*
X011399Y008111D01*
X011399Y008391D02*
X011739Y008391D01*
X013073Y010416D02*
X013075Y010489D01*
X013081Y010562D01*
X013091Y010634D01*
X013105Y010706D01*
X013122Y010777D01*
X013144Y010847D01*
X013169Y010916D01*
X013198Y010983D01*
X013230Y011048D01*
X013266Y011112D01*
X013306Y011174D01*
X013348Y011233D01*
X013394Y011290D01*
X013443Y011344D01*
X013495Y011396D01*
X013549Y011445D01*
X013606Y011491D01*
X013665Y011533D01*
X013727Y011573D01*
X013791Y011609D01*
X013856Y011641D01*
X013923Y011670D01*
X013992Y011695D01*
X014062Y011717D01*
X014133Y011734D01*
X014205Y011748D01*
X014277Y011758D01*
X014350Y011764D01*
X014423Y011766D01*
X014496Y011764D01*
X014569Y011758D01*
X014641Y011748D01*
X014713Y011734D01*
X014784Y011717D01*
X014854Y011695D01*
X014923Y011670D01*
X014990Y011641D01*
X015055Y011609D01*
X015119Y011573D01*
X015181Y011533D01*
X015240Y011491D01*
X015297Y011445D01*
X015351Y011396D01*
X015403Y011344D01*
X015452Y011290D01*
X015498Y011233D01*
X015540Y011174D01*
X015580Y011112D01*
X015616Y011048D01*
X015648Y010983D01*
X015677Y010916D01*
X015702Y010847D01*
X015724Y010777D01*
X015741Y010706D01*
X015755Y010634D01*
X015765Y010562D01*
X015771Y010489D01*
X015773Y010416D01*
X015771Y010343D01*
X015765Y010270D01*
X015755Y010198D01*
X015741Y010126D01*
X015724Y010055D01*
X015702Y009985D01*
X015677Y009916D01*
X015648Y009849D01*
X015616Y009784D01*
X015580Y009720D01*
X015540Y009658D01*
X015498Y009599D01*
X015452Y009542D01*
X015403Y009488D01*
X015351Y009436D01*
X015297Y009387D01*
X015240Y009341D01*
X015181Y009299D01*
X015119Y009259D01*
X015055Y009223D01*
X014990Y009191D01*
X014923Y009162D01*
X014854Y009137D01*
X014784Y009115D01*
X014713Y009098D01*
X014641Y009084D01*
X014569Y009074D01*
X014496Y009068D01*
X014423Y009066D01*
X014350Y009068D01*
X014277Y009074D01*
X014205Y009084D01*
X014133Y009098D01*
X014062Y009115D01*
X013992Y009137D01*
X013923Y009162D01*
X013856Y009191D01*
X013791Y009223D01*
X013727Y009259D01*
X013665Y009299D01*
X013606Y009341D01*
X013549Y009387D01*
X013495Y009436D01*
X013443Y009488D01*
X013394Y009542D01*
X013348Y009599D01*
X013306Y009658D01*
X013266Y009720D01*
X013230Y009784D01*
X013198Y009849D01*
X013169Y009916D01*
X013144Y009985D01*
X013122Y010055D01*
X013105Y010126D01*
X013091Y010198D01*
X013081Y010270D01*
X013075Y010343D01*
X013073Y010416D01*
X008590Y008391D02*
X008249Y008391D01*
X008249Y008111D02*
X008590Y008111D01*
X005440Y008111D02*
X005100Y008111D01*
X005100Y008391D02*
X005440Y008391D01*
X000475Y010416D02*
X000477Y010489D01*
X000483Y010562D01*
X000493Y010634D01*
X000507Y010706D01*
X000524Y010777D01*
X000546Y010847D01*
X000571Y010916D01*
X000600Y010983D01*
X000632Y011048D01*
X000668Y011112D01*
X000708Y011174D01*
X000750Y011233D01*
X000796Y011290D01*
X000845Y011344D01*
X000897Y011396D01*
X000951Y011445D01*
X001008Y011491D01*
X001067Y011533D01*
X001129Y011573D01*
X001193Y011609D01*
X001258Y011641D01*
X001325Y011670D01*
X001394Y011695D01*
X001464Y011717D01*
X001535Y011734D01*
X001607Y011748D01*
X001679Y011758D01*
X001752Y011764D01*
X001825Y011766D01*
X001898Y011764D01*
X001971Y011758D01*
X002043Y011748D01*
X002115Y011734D01*
X002186Y011717D01*
X002256Y011695D01*
X002325Y011670D01*
X002392Y011641D01*
X002457Y011609D01*
X002521Y011573D01*
X002583Y011533D01*
X002642Y011491D01*
X002699Y011445D01*
X002753Y011396D01*
X002805Y011344D01*
X002854Y011290D01*
X002900Y011233D01*
X002942Y011174D01*
X002982Y011112D01*
X003018Y011048D01*
X003050Y010983D01*
X003079Y010916D01*
X003104Y010847D01*
X003126Y010777D01*
X003143Y010706D01*
X003157Y010634D01*
X003167Y010562D01*
X003173Y010489D01*
X003175Y010416D01*
X003173Y010343D01*
X003167Y010270D01*
X003157Y010198D01*
X003143Y010126D01*
X003126Y010055D01*
X003104Y009985D01*
X003079Y009916D01*
X003050Y009849D01*
X003018Y009784D01*
X002982Y009720D01*
X002942Y009658D01*
X002900Y009599D01*
X002854Y009542D01*
X002805Y009488D01*
X002753Y009436D01*
X002699Y009387D01*
X002642Y009341D01*
X002583Y009299D01*
X002521Y009259D01*
X002457Y009223D01*
X002392Y009191D01*
X002325Y009162D01*
X002256Y009137D01*
X002186Y009115D01*
X002115Y009098D01*
X002043Y009084D01*
X001971Y009074D01*
X001898Y009068D01*
X001825Y009066D01*
X001752Y009068D01*
X001679Y009074D01*
X001607Y009084D01*
X001535Y009098D01*
X001464Y009115D01*
X001394Y009137D01*
X001325Y009162D01*
X001258Y009191D01*
X001193Y009223D01*
X001129Y009259D01*
X001067Y009299D01*
X001008Y009341D01*
X000951Y009387D01*
X000897Y009436D01*
X000845Y009488D01*
X000796Y009542D01*
X000750Y009599D01*
X000708Y009658D01*
X000668Y009720D01*
X000632Y009784D01*
X000600Y009849D01*
X000571Y009916D01*
X000546Y009985D01*
X000524Y010055D01*
X000507Y010126D01*
X000493Y010198D01*
X000483Y010270D01*
X000477Y010343D01*
X000475Y010416D01*
D14*
X001525Y010416D02*
X001527Y010450D01*
X001533Y010484D01*
X001542Y010517D01*
X001556Y010548D01*
X001573Y010578D01*
X001593Y010606D01*
X001616Y010631D01*
X001642Y010654D01*
X001670Y010673D01*
X001700Y010689D01*
X001732Y010701D01*
X001765Y010710D01*
X001799Y010715D01*
X001834Y010716D01*
X001868Y010713D01*
X001901Y010706D01*
X001934Y010696D01*
X001965Y010681D01*
X001994Y010664D01*
X002021Y010643D01*
X002046Y010619D01*
X002068Y010592D01*
X002086Y010564D01*
X002101Y010533D01*
X002113Y010501D01*
X002121Y010467D01*
X002125Y010433D01*
X002125Y010399D01*
X002121Y010365D01*
X002113Y010331D01*
X002101Y010299D01*
X002086Y010268D01*
X002068Y010240D01*
X002046Y010213D01*
X002021Y010189D01*
X001994Y010168D01*
X001965Y010151D01*
X001934Y010136D01*
X001901Y010126D01*
X001868Y010119D01*
X001834Y010116D01*
X001799Y010117D01*
X001765Y010122D01*
X001732Y010131D01*
X001700Y010143D01*
X001670Y010159D01*
X001642Y010178D01*
X001616Y010201D01*
X001593Y010226D01*
X001573Y010254D01*
X001556Y010284D01*
X001542Y010315D01*
X001533Y010348D01*
X001527Y010382D01*
X001525Y010416D01*
X001525Y004117D02*
X001527Y004151D01*
X001533Y004185D01*
X001542Y004218D01*
X001556Y004249D01*
X001573Y004279D01*
X001593Y004307D01*
X001616Y004332D01*
X001642Y004355D01*
X001670Y004374D01*
X001700Y004390D01*
X001732Y004402D01*
X001765Y004411D01*
X001799Y004416D01*
X001834Y004417D01*
X001868Y004414D01*
X001901Y004407D01*
X001934Y004397D01*
X001965Y004382D01*
X001994Y004365D01*
X002021Y004344D01*
X002046Y004320D01*
X002068Y004293D01*
X002086Y004265D01*
X002101Y004234D01*
X002113Y004202D01*
X002121Y004168D01*
X002125Y004134D01*
X002125Y004100D01*
X002121Y004066D01*
X002113Y004032D01*
X002101Y004000D01*
X002086Y003969D01*
X002068Y003941D01*
X002046Y003914D01*
X002021Y003890D01*
X001994Y003869D01*
X001965Y003852D01*
X001934Y003837D01*
X001901Y003827D01*
X001868Y003820D01*
X001834Y003817D01*
X001799Y003818D01*
X001765Y003823D01*
X001732Y003832D01*
X001700Y003844D01*
X001670Y003860D01*
X001642Y003879D01*
X001616Y003902D01*
X001593Y003927D01*
X001573Y003955D01*
X001556Y003985D01*
X001542Y004016D01*
X001533Y004049D01*
X001527Y004083D01*
X001525Y004117D01*
X014123Y004117D02*
X014125Y004151D01*
X014131Y004185D01*
X014140Y004218D01*
X014154Y004249D01*
X014171Y004279D01*
X014191Y004307D01*
X014214Y004332D01*
X014240Y004355D01*
X014268Y004374D01*
X014298Y004390D01*
X014330Y004402D01*
X014363Y004411D01*
X014397Y004416D01*
X014432Y004417D01*
X014466Y004414D01*
X014499Y004407D01*
X014532Y004397D01*
X014563Y004382D01*
X014592Y004365D01*
X014619Y004344D01*
X014644Y004320D01*
X014666Y004293D01*
X014684Y004265D01*
X014699Y004234D01*
X014711Y004202D01*
X014719Y004168D01*
X014723Y004134D01*
X014723Y004100D01*
X014719Y004066D01*
X014711Y004032D01*
X014699Y004000D01*
X014684Y003969D01*
X014666Y003941D01*
X014644Y003914D01*
X014619Y003890D01*
X014592Y003869D01*
X014563Y003852D01*
X014532Y003837D01*
X014499Y003827D01*
X014466Y003820D01*
X014432Y003817D01*
X014397Y003818D01*
X014363Y003823D01*
X014330Y003832D01*
X014298Y003844D01*
X014268Y003860D01*
X014240Y003879D01*
X014214Y003902D01*
X014191Y003927D01*
X014171Y003955D01*
X014154Y003985D01*
X014140Y004016D01*
X014131Y004049D01*
X014125Y004083D01*
X014123Y004117D01*
X014123Y010416D02*
X014125Y010450D01*
X014131Y010484D01*
X014140Y010517D01*
X014154Y010548D01*
X014171Y010578D01*
X014191Y010606D01*
X014214Y010631D01*
X014240Y010654D01*
X014268Y010673D01*
X014298Y010689D01*
X014330Y010701D01*
X014363Y010710D01*
X014397Y010715D01*
X014432Y010716D01*
X014466Y010713D01*
X014499Y010706D01*
X014532Y010696D01*
X014563Y010681D01*
X014592Y010664D01*
X014619Y010643D01*
X014644Y010619D01*
X014666Y010592D01*
X014684Y010564D01*
X014699Y010533D01*
X014711Y010501D01*
X014719Y010467D01*
X014723Y010433D01*
X014723Y010399D01*
X014719Y010365D01*
X014711Y010331D01*
X014699Y010299D01*
X014684Y010268D01*
X014666Y010240D01*
X014644Y010213D01*
X014619Y010189D01*
X014592Y010168D01*
X014563Y010151D01*
X014532Y010136D01*
X014499Y010126D01*
X014466Y010119D01*
X014432Y010116D01*
X014397Y010117D01*
X014363Y010122D01*
X014330Y010131D01*
X014298Y010143D01*
X014268Y010159D01*
X014240Y010178D01*
X014214Y010201D01*
X014191Y010226D01*
X014171Y010254D01*
X014154Y010284D01*
X014140Y010315D01*
X014131Y010348D01*
X014125Y010382D01*
X014123Y010416D01*
D15*
X013675Y010416D02*
X013677Y010471D01*
X013683Y010525D01*
X013693Y010579D01*
X013707Y010631D01*
X013724Y010683D01*
X013746Y010733D01*
X013771Y010782D01*
X013799Y010829D01*
X013831Y010873D01*
X013866Y010915D01*
X013904Y010954D01*
X013945Y010991D01*
X013988Y011024D01*
X014033Y011054D01*
X014081Y011081D01*
X014130Y011104D01*
X014181Y011124D01*
X014234Y011140D01*
X014287Y011152D01*
X014341Y011160D01*
X014396Y011164D01*
X014450Y011164D01*
X014505Y011160D01*
X014559Y011152D01*
X014612Y011140D01*
X014665Y011124D01*
X014716Y011104D01*
X014765Y011081D01*
X014813Y011054D01*
X014858Y011024D01*
X014901Y010991D01*
X014942Y010954D01*
X014980Y010915D01*
X015015Y010873D01*
X015047Y010829D01*
X015075Y010782D01*
X015100Y010733D01*
X015122Y010683D01*
X015139Y010631D01*
X015153Y010579D01*
X015163Y010525D01*
X015169Y010471D01*
X015171Y010416D01*
X015169Y010361D01*
X015163Y010307D01*
X015153Y010253D01*
X015139Y010201D01*
X015122Y010149D01*
X015100Y010099D01*
X015075Y010050D01*
X015047Y010003D01*
X015015Y009959D01*
X014980Y009917D01*
X014942Y009878D01*
X014901Y009841D01*
X014858Y009808D01*
X014813Y009778D01*
X014765Y009751D01*
X014716Y009728D01*
X014665Y009708D01*
X014612Y009692D01*
X014559Y009680D01*
X014505Y009672D01*
X014450Y009668D01*
X014396Y009668D01*
X014341Y009672D01*
X014287Y009680D01*
X014234Y009692D01*
X014181Y009708D01*
X014130Y009728D01*
X014081Y009751D01*
X014033Y009778D01*
X013988Y009808D01*
X013945Y009841D01*
X013904Y009878D01*
X013866Y009917D01*
X013831Y009959D01*
X013799Y010003D01*
X013771Y010050D01*
X013746Y010099D01*
X013724Y010149D01*
X013707Y010201D01*
X013693Y010253D01*
X013683Y010307D01*
X013677Y010361D01*
X013675Y010416D01*
X013675Y004117D02*
X013677Y004172D01*
X013683Y004226D01*
X013693Y004280D01*
X013707Y004332D01*
X013724Y004384D01*
X013746Y004434D01*
X013771Y004483D01*
X013799Y004530D01*
X013831Y004574D01*
X013866Y004616D01*
X013904Y004655D01*
X013945Y004692D01*
X013988Y004725D01*
X014033Y004755D01*
X014081Y004782D01*
X014130Y004805D01*
X014181Y004825D01*
X014234Y004841D01*
X014287Y004853D01*
X014341Y004861D01*
X014396Y004865D01*
X014450Y004865D01*
X014505Y004861D01*
X014559Y004853D01*
X014612Y004841D01*
X014665Y004825D01*
X014716Y004805D01*
X014765Y004782D01*
X014813Y004755D01*
X014858Y004725D01*
X014901Y004692D01*
X014942Y004655D01*
X014980Y004616D01*
X015015Y004574D01*
X015047Y004530D01*
X015075Y004483D01*
X015100Y004434D01*
X015122Y004384D01*
X015139Y004332D01*
X015153Y004280D01*
X015163Y004226D01*
X015169Y004172D01*
X015171Y004117D01*
X015169Y004062D01*
X015163Y004008D01*
X015153Y003954D01*
X015139Y003902D01*
X015122Y003850D01*
X015100Y003800D01*
X015075Y003751D01*
X015047Y003704D01*
X015015Y003660D01*
X014980Y003618D01*
X014942Y003579D01*
X014901Y003542D01*
X014858Y003509D01*
X014813Y003479D01*
X014765Y003452D01*
X014716Y003429D01*
X014665Y003409D01*
X014612Y003393D01*
X014559Y003381D01*
X014505Y003373D01*
X014450Y003369D01*
X014396Y003369D01*
X014341Y003373D01*
X014287Y003381D01*
X014234Y003393D01*
X014181Y003409D01*
X014130Y003429D01*
X014081Y003452D01*
X014033Y003479D01*
X013988Y003509D01*
X013945Y003542D01*
X013904Y003579D01*
X013866Y003618D01*
X013831Y003660D01*
X013799Y003704D01*
X013771Y003751D01*
X013746Y003800D01*
X013724Y003850D01*
X013707Y003902D01*
X013693Y003954D01*
X013683Y004008D01*
X013677Y004062D01*
X013675Y004117D01*
X001077Y004117D02*
X001079Y004172D01*
X001085Y004226D01*
X001095Y004280D01*
X001109Y004332D01*
X001126Y004384D01*
X001148Y004434D01*
X001173Y004483D01*
X001201Y004530D01*
X001233Y004574D01*
X001268Y004616D01*
X001306Y004655D01*
X001347Y004692D01*
X001390Y004725D01*
X001435Y004755D01*
X001483Y004782D01*
X001532Y004805D01*
X001583Y004825D01*
X001636Y004841D01*
X001689Y004853D01*
X001743Y004861D01*
X001798Y004865D01*
X001852Y004865D01*
X001907Y004861D01*
X001961Y004853D01*
X002014Y004841D01*
X002067Y004825D01*
X002118Y004805D01*
X002167Y004782D01*
X002215Y004755D01*
X002260Y004725D01*
X002303Y004692D01*
X002344Y004655D01*
X002382Y004616D01*
X002417Y004574D01*
X002449Y004530D01*
X002477Y004483D01*
X002502Y004434D01*
X002524Y004384D01*
X002541Y004332D01*
X002555Y004280D01*
X002565Y004226D01*
X002571Y004172D01*
X002573Y004117D01*
X002571Y004062D01*
X002565Y004008D01*
X002555Y003954D01*
X002541Y003902D01*
X002524Y003850D01*
X002502Y003800D01*
X002477Y003751D01*
X002449Y003704D01*
X002417Y003660D01*
X002382Y003618D01*
X002344Y003579D01*
X002303Y003542D01*
X002260Y003509D01*
X002215Y003479D01*
X002167Y003452D01*
X002118Y003429D01*
X002067Y003409D01*
X002014Y003393D01*
X001961Y003381D01*
X001907Y003373D01*
X001852Y003369D01*
X001798Y003369D01*
X001743Y003373D01*
X001689Y003381D01*
X001636Y003393D01*
X001583Y003409D01*
X001532Y003429D01*
X001483Y003452D01*
X001435Y003479D01*
X001390Y003509D01*
X001347Y003542D01*
X001306Y003579D01*
X001268Y003618D01*
X001233Y003660D01*
X001201Y003704D01*
X001173Y003751D01*
X001148Y003800D01*
X001126Y003850D01*
X001109Y003902D01*
X001095Y003954D01*
X001085Y004008D01*
X001079Y004062D01*
X001077Y004117D01*
X001077Y010416D02*
X001079Y010471D01*
X001085Y010525D01*
X001095Y010579D01*
X001109Y010631D01*
X001126Y010683D01*
X001148Y010733D01*
X001173Y010782D01*
X001201Y010829D01*
X001233Y010873D01*
X001268Y010915D01*
X001306Y010954D01*
X001347Y010991D01*
X001390Y011024D01*
X001435Y011054D01*
X001483Y011081D01*
X001532Y011104D01*
X001583Y011124D01*
X001636Y011140D01*
X001689Y011152D01*
X001743Y011160D01*
X001798Y011164D01*
X001852Y011164D01*
X001907Y011160D01*
X001961Y011152D01*
X002014Y011140D01*
X002067Y011124D01*
X002118Y011104D01*
X002167Y011081D01*
X002215Y011054D01*
X002260Y011024D01*
X002303Y010991D01*
X002344Y010954D01*
X002382Y010915D01*
X002417Y010873D01*
X002449Y010829D01*
X002477Y010782D01*
X002502Y010733D01*
X002524Y010683D01*
X002541Y010631D01*
X002555Y010579D01*
X002565Y010525D01*
X002571Y010471D01*
X002573Y010416D01*
X002571Y010361D01*
X002565Y010307D01*
X002555Y010253D01*
X002541Y010201D01*
X002524Y010149D01*
X002502Y010099D01*
X002477Y010050D01*
X002449Y010003D01*
X002417Y009959D01*
X002382Y009917D01*
X002344Y009878D01*
X002303Y009841D01*
X002260Y009808D01*
X002215Y009778D01*
X002167Y009751D01*
X002118Y009728D01*
X002067Y009708D01*
X002014Y009692D01*
X001961Y009680D01*
X001907Y009672D01*
X001852Y009668D01*
X001798Y009668D01*
X001743Y009672D01*
X001689Y009680D01*
X001636Y009692D01*
X001583Y009708D01*
X001532Y009728D01*
X001483Y009751D01*
X001435Y009778D01*
X001390Y009808D01*
X001347Y009841D01*
X001306Y009878D01*
X001268Y009917D01*
X001233Y009959D01*
X001201Y010003D01*
X001173Y010050D01*
X001148Y010099D01*
X001126Y010149D01*
X001109Y010201D01*
X001095Y010253D01*
X001085Y010307D01*
X001079Y010361D01*
X001077Y010416D01*
D16*
X007534Y010121D02*
X007534Y012483D01*
X008715Y012483D01*
X008715Y010121D01*
X007534Y010121D01*
D17*
X008124Y004269D03*
X008124Y003769D03*
X004975Y003769D03*
X004975Y004269D03*
X011274Y004269D03*
X011274Y003769D03*
D18*
X011319Y008251D03*
X011819Y008251D03*
X008669Y008251D03*
X008169Y008251D03*
X005520Y008251D03*
X005020Y008251D03*
M02*
