G75*
G70*
%OFA0B0*%
%FSLAX24Y24*%
%IPPOS*%
%LPD*%
%AMOC8*
5,1,8,0,0,1.08239X$1,22.5*
%
%ADD10C,0.0000*%
D10*
X000494Y002494D02*
X000494Y048494D01*
X000496Y048589D01*
X000503Y048684D01*
X000514Y048779D01*
X000530Y048873D01*
X000550Y048966D01*
X000575Y049057D01*
X000604Y049148D01*
X000637Y049237D01*
X000675Y049325D01*
X000716Y049410D01*
X000762Y049494D01*
X000811Y049575D01*
X000865Y049654D01*
X000922Y049730D01*
X000983Y049804D01*
X001047Y049874D01*
X001114Y049941D01*
X001184Y050005D01*
X001258Y050066D01*
X001334Y050123D01*
X001413Y050177D01*
X001494Y050226D01*
X001578Y050272D01*
X001663Y050313D01*
X001751Y050351D01*
X001840Y050384D01*
X001931Y050413D01*
X002022Y050438D01*
X002115Y050458D01*
X002209Y050474D01*
X002304Y050485D01*
X002399Y050492D01*
X002494Y050494D01*
X058494Y050494D01*
X058589Y050492D01*
X058684Y050485D01*
X058779Y050474D01*
X058873Y050458D01*
X058966Y050438D01*
X059057Y050413D01*
X059148Y050384D01*
X059237Y050351D01*
X059325Y050313D01*
X059410Y050272D01*
X059494Y050226D01*
X059575Y050177D01*
X059654Y050123D01*
X059730Y050066D01*
X059804Y050005D01*
X059874Y049941D01*
X059941Y049874D01*
X060005Y049804D01*
X060066Y049730D01*
X060123Y049654D01*
X060177Y049575D01*
X060226Y049494D01*
X060272Y049410D01*
X060313Y049325D01*
X060351Y049237D01*
X060384Y049148D01*
X060413Y049057D01*
X060438Y048966D01*
X060458Y048873D01*
X060474Y048779D01*
X060485Y048684D01*
X060492Y048589D01*
X060494Y048494D01*
X060494Y002494D01*
X060492Y002399D01*
X060485Y002304D01*
X060474Y002209D01*
X060458Y002115D01*
X060438Y002022D01*
X060413Y001931D01*
X060384Y001840D01*
X060351Y001751D01*
X060313Y001663D01*
X060272Y001578D01*
X060226Y001494D01*
X060177Y001413D01*
X060123Y001334D01*
X060066Y001258D01*
X060005Y001184D01*
X059941Y001114D01*
X059874Y001047D01*
X059804Y000983D01*
X059730Y000922D01*
X059654Y000865D01*
X059575Y000811D01*
X059494Y000762D01*
X059410Y000716D01*
X059325Y000675D01*
X059237Y000637D01*
X059148Y000604D01*
X059057Y000575D01*
X058966Y000550D01*
X058873Y000530D01*
X058779Y000514D01*
X058684Y000503D01*
X058589Y000496D01*
X058494Y000494D01*
X002494Y000494D01*
X002399Y000496D01*
X002304Y000503D01*
X002209Y000514D01*
X002115Y000530D01*
X002022Y000550D01*
X001931Y000575D01*
X001840Y000604D01*
X001751Y000637D01*
X001663Y000675D01*
X001578Y000716D01*
X001494Y000762D01*
X001413Y000811D01*
X001334Y000865D01*
X001258Y000922D01*
X001184Y000983D01*
X001114Y001047D01*
X001047Y001114D01*
X000983Y001184D01*
X000922Y001258D01*
X000865Y001334D01*
X000811Y001413D01*
X000762Y001494D01*
X000716Y001578D01*
X000675Y001663D01*
X000637Y001751D01*
X000604Y001840D01*
X000575Y001931D01*
X000550Y002022D01*
X000530Y002115D01*
X000514Y002209D01*
X000503Y002304D01*
X000496Y002399D01*
X000494Y002494D01*
X012056Y045478D02*
X012058Y045526D01*
X012064Y045574D01*
X012074Y045621D01*
X012087Y045667D01*
X012105Y045712D01*
X012125Y045756D01*
X012150Y045798D01*
X012178Y045837D01*
X012208Y045874D01*
X012242Y045908D01*
X012279Y045940D01*
X012317Y045969D01*
X012358Y045994D01*
X012401Y046016D01*
X012446Y046034D01*
X012492Y046048D01*
X012539Y046059D01*
X012587Y046066D01*
X012635Y046069D01*
X012683Y046068D01*
X012731Y046063D01*
X012779Y046054D01*
X012825Y046042D01*
X012870Y046025D01*
X012914Y046005D01*
X012956Y045982D01*
X012996Y045955D01*
X013034Y045925D01*
X013069Y045892D01*
X013101Y045856D01*
X013131Y045818D01*
X013157Y045777D01*
X013179Y045734D01*
X013199Y045690D01*
X013214Y045645D01*
X013226Y045598D01*
X013234Y045550D01*
X013238Y045502D01*
X013238Y045454D01*
X013234Y045406D01*
X013226Y045358D01*
X013214Y045311D01*
X013199Y045266D01*
X013179Y045222D01*
X013157Y045179D01*
X013131Y045138D01*
X013101Y045100D01*
X013069Y045064D01*
X013034Y045031D01*
X012996Y045001D01*
X012956Y044974D01*
X012914Y044951D01*
X012870Y044931D01*
X012825Y044914D01*
X012779Y044902D01*
X012731Y044893D01*
X012683Y044888D01*
X012635Y044887D01*
X012587Y044890D01*
X012539Y044897D01*
X012492Y044908D01*
X012446Y044922D01*
X012401Y044940D01*
X012358Y044962D01*
X012317Y044987D01*
X012279Y045016D01*
X012242Y045048D01*
X012208Y045082D01*
X012178Y045119D01*
X012150Y045158D01*
X012125Y045200D01*
X012105Y045244D01*
X012087Y045289D01*
X012074Y045335D01*
X012064Y045382D01*
X012058Y045430D01*
X012056Y045478D01*
X009576Y049179D02*
X009578Y049227D01*
X009584Y049275D01*
X009594Y049322D01*
X009607Y049368D01*
X009625Y049413D01*
X009645Y049457D01*
X009670Y049499D01*
X009698Y049538D01*
X009728Y049575D01*
X009762Y049609D01*
X009799Y049641D01*
X009837Y049670D01*
X009878Y049695D01*
X009921Y049717D01*
X009966Y049735D01*
X010012Y049749D01*
X010059Y049760D01*
X010107Y049767D01*
X010155Y049770D01*
X010203Y049769D01*
X010251Y049764D01*
X010299Y049755D01*
X010345Y049743D01*
X010390Y049726D01*
X010434Y049706D01*
X010476Y049683D01*
X010516Y049656D01*
X010554Y049626D01*
X010589Y049593D01*
X010621Y049557D01*
X010651Y049519D01*
X010677Y049478D01*
X010699Y049435D01*
X010719Y049391D01*
X010734Y049346D01*
X010746Y049299D01*
X010754Y049251D01*
X010758Y049203D01*
X010758Y049155D01*
X010754Y049107D01*
X010746Y049059D01*
X010734Y049012D01*
X010719Y048967D01*
X010699Y048923D01*
X010677Y048880D01*
X010651Y048839D01*
X010621Y048801D01*
X010589Y048765D01*
X010554Y048732D01*
X010516Y048702D01*
X010476Y048675D01*
X010434Y048652D01*
X010390Y048632D01*
X010345Y048615D01*
X010299Y048603D01*
X010251Y048594D01*
X010203Y048589D01*
X010155Y048588D01*
X010107Y048591D01*
X010059Y048598D01*
X010012Y048609D01*
X009966Y048623D01*
X009921Y048641D01*
X009878Y048663D01*
X009837Y048688D01*
X009799Y048717D01*
X009762Y048749D01*
X009728Y048783D01*
X009698Y048820D01*
X009670Y048859D01*
X009645Y048901D01*
X009625Y048945D01*
X009607Y048990D01*
X009594Y049036D01*
X009584Y049083D01*
X009578Y049131D01*
X009576Y049179D01*
X029076Y049179D02*
X029078Y049227D01*
X029084Y049275D01*
X029094Y049322D01*
X029107Y049368D01*
X029125Y049413D01*
X029145Y049457D01*
X029170Y049499D01*
X029198Y049538D01*
X029228Y049575D01*
X029262Y049609D01*
X029299Y049641D01*
X029337Y049670D01*
X029378Y049695D01*
X029421Y049717D01*
X029466Y049735D01*
X029512Y049749D01*
X029559Y049760D01*
X029607Y049767D01*
X029655Y049770D01*
X029703Y049769D01*
X029751Y049764D01*
X029799Y049755D01*
X029845Y049743D01*
X029890Y049726D01*
X029934Y049706D01*
X029976Y049683D01*
X030016Y049656D01*
X030054Y049626D01*
X030089Y049593D01*
X030121Y049557D01*
X030151Y049519D01*
X030177Y049478D01*
X030199Y049435D01*
X030219Y049391D01*
X030234Y049346D01*
X030246Y049299D01*
X030254Y049251D01*
X030258Y049203D01*
X030258Y049155D01*
X030254Y049107D01*
X030246Y049059D01*
X030234Y049012D01*
X030219Y048967D01*
X030199Y048923D01*
X030177Y048880D01*
X030151Y048839D01*
X030121Y048801D01*
X030089Y048765D01*
X030054Y048732D01*
X030016Y048702D01*
X029976Y048675D01*
X029934Y048652D01*
X029890Y048632D01*
X029845Y048615D01*
X029799Y048603D01*
X029751Y048594D01*
X029703Y048589D01*
X029655Y048588D01*
X029607Y048591D01*
X029559Y048598D01*
X029512Y048609D01*
X029466Y048623D01*
X029421Y048641D01*
X029378Y048663D01*
X029337Y048688D01*
X029299Y048717D01*
X029262Y048749D01*
X029228Y048783D01*
X029198Y048820D01*
X029170Y048859D01*
X029145Y048901D01*
X029125Y048945D01*
X029107Y048990D01*
X029094Y049036D01*
X029084Y049083D01*
X029078Y049131D01*
X029076Y049179D01*
X031556Y045478D02*
X031558Y045526D01*
X031564Y045574D01*
X031574Y045621D01*
X031587Y045667D01*
X031605Y045712D01*
X031625Y045756D01*
X031650Y045798D01*
X031678Y045837D01*
X031708Y045874D01*
X031742Y045908D01*
X031779Y045940D01*
X031817Y045969D01*
X031858Y045994D01*
X031901Y046016D01*
X031946Y046034D01*
X031992Y046048D01*
X032039Y046059D01*
X032087Y046066D01*
X032135Y046069D01*
X032183Y046068D01*
X032231Y046063D01*
X032279Y046054D01*
X032325Y046042D01*
X032370Y046025D01*
X032414Y046005D01*
X032456Y045982D01*
X032496Y045955D01*
X032534Y045925D01*
X032569Y045892D01*
X032601Y045856D01*
X032631Y045818D01*
X032657Y045777D01*
X032679Y045734D01*
X032699Y045690D01*
X032714Y045645D01*
X032726Y045598D01*
X032734Y045550D01*
X032738Y045502D01*
X032738Y045454D01*
X032734Y045406D01*
X032726Y045358D01*
X032714Y045311D01*
X032699Y045266D01*
X032679Y045222D01*
X032657Y045179D01*
X032631Y045138D01*
X032601Y045100D01*
X032569Y045064D01*
X032534Y045031D01*
X032496Y045001D01*
X032456Y044974D01*
X032414Y044951D01*
X032370Y044931D01*
X032325Y044914D01*
X032279Y044902D01*
X032231Y044893D01*
X032183Y044888D01*
X032135Y044887D01*
X032087Y044890D01*
X032039Y044897D01*
X031992Y044908D01*
X031946Y044922D01*
X031901Y044940D01*
X031858Y044962D01*
X031817Y044987D01*
X031779Y045016D01*
X031742Y045048D01*
X031708Y045082D01*
X031678Y045119D01*
X031650Y045158D01*
X031625Y045200D01*
X031605Y045244D01*
X031587Y045289D01*
X031574Y045335D01*
X031564Y045382D01*
X031558Y045430D01*
X031556Y045478D01*
X048576Y049179D02*
X048578Y049227D01*
X048584Y049275D01*
X048594Y049322D01*
X048607Y049368D01*
X048625Y049413D01*
X048645Y049457D01*
X048670Y049499D01*
X048698Y049538D01*
X048728Y049575D01*
X048762Y049609D01*
X048799Y049641D01*
X048837Y049670D01*
X048878Y049695D01*
X048921Y049717D01*
X048966Y049735D01*
X049012Y049749D01*
X049059Y049760D01*
X049107Y049767D01*
X049155Y049770D01*
X049203Y049769D01*
X049251Y049764D01*
X049299Y049755D01*
X049345Y049743D01*
X049390Y049726D01*
X049434Y049706D01*
X049476Y049683D01*
X049516Y049656D01*
X049554Y049626D01*
X049589Y049593D01*
X049621Y049557D01*
X049651Y049519D01*
X049677Y049478D01*
X049699Y049435D01*
X049719Y049391D01*
X049734Y049346D01*
X049746Y049299D01*
X049754Y049251D01*
X049758Y049203D01*
X049758Y049155D01*
X049754Y049107D01*
X049746Y049059D01*
X049734Y049012D01*
X049719Y048967D01*
X049699Y048923D01*
X049677Y048880D01*
X049651Y048839D01*
X049621Y048801D01*
X049589Y048765D01*
X049554Y048732D01*
X049516Y048702D01*
X049476Y048675D01*
X049434Y048652D01*
X049390Y048632D01*
X049345Y048615D01*
X049299Y048603D01*
X049251Y048594D01*
X049203Y048589D01*
X049155Y048588D01*
X049107Y048591D01*
X049059Y048598D01*
X049012Y048609D01*
X048966Y048623D01*
X048921Y048641D01*
X048878Y048663D01*
X048837Y048688D01*
X048799Y048717D01*
X048762Y048749D01*
X048728Y048783D01*
X048698Y048820D01*
X048670Y048859D01*
X048645Y048901D01*
X048625Y048945D01*
X048607Y048990D01*
X048594Y049036D01*
X048584Y049083D01*
X048578Y049131D01*
X048576Y049179D01*
X051056Y045478D02*
X051058Y045526D01*
X051064Y045574D01*
X051074Y045621D01*
X051087Y045667D01*
X051105Y045712D01*
X051125Y045756D01*
X051150Y045798D01*
X051178Y045837D01*
X051208Y045874D01*
X051242Y045908D01*
X051279Y045940D01*
X051317Y045969D01*
X051358Y045994D01*
X051401Y046016D01*
X051446Y046034D01*
X051492Y046048D01*
X051539Y046059D01*
X051587Y046066D01*
X051635Y046069D01*
X051683Y046068D01*
X051731Y046063D01*
X051779Y046054D01*
X051825Y046042D01*
X051870Y046025D01*
X051914Y046005D01*
X051956Y045982D01*
X051996Y045955D01*
X052034Y045925D01*
X052069Y045892D01*
X052101Y045856D01*
X052131Y045818D01*
X052157Y045777D01*
X052179Y045734D01*
X052199Y045690D01*
X052214Y045645D01*
X052226Y045598D01*
X052234Y045550D01*
X052238Y045502D01*
X052238Y045454D01*
X052234Y045406D01*
X052226Y045358D01*
X052214Y045311D01*
X052199Y045266D01*
X052179Y045222D01*
X052157Y045179D01*
X052131Y045138D01*
X052101Y045100D01*
X052069Y045064D01*
X052034Y045031D01*
X051996Y045001D01*
X051956Y044974D01*
X051914Y044951D01*
X051870Y044931D01*
X051825Y044914D01*
X051779Y044902D01*
X051731Y044893D01*
X051683Y044888D01*
X051635Y044887D01*
X051587Y044890D01*
X051539Y044897D01*
X051492Y044908D01*
X051446Y044922D01*
X051401Y044940D01*
X051358Y044962D01*
X051317Y044987D01*
X051279Y045016D01*
X051242Y045048D01*
X051208Y045082D01*
X051178Y045119D01*
X051150Y045158D01*
X051125Y045200D01*
X051105Y045244D01*
X051087Y045289D01*
X051074Y045335D01*
X051064Y045382D01*
X051058Y045430D01*
X051056Y045478D01*
M02*
