%
M48
M72
T01C0.0236
T02C0.0320
T03C0.0400
T04C0.0470
T05C0.0500
T06C0.0520
T07C0.0551
T08C0.0669
T09C0.0790
T10C0.1181
T11C0.1614
%
T01
X15494Y18494
X16994Y18494
X15494Y22994
T02
X15494Y16494
X16994Y14494
X16994Y12494
X15494Y12494
X13994Y12494
X13994Y10994
X14994Y10994
X15994Y10994
X16994Y10994
X18994Y11994
X18994Y7994
X16994Y7994
X15994Y7994
X14994Y7994
X13994Y7994
X11994Y7494
X10494Y7494
X8494Y7994
X7494Y7994
X6494Y7994
X5494Y7994
X6494Y5994
X8494Y5994
X8494Y10994
X7494Y10994
X6494Y10994
X5494Y10994
X5494Y12494
X6994Y12494
X8494Y12494
X8494Y14494
X6994Y16494
X5494Y14494
X10494Y11494
X11994Y11494
X13994Y14494
X6994Y22244
X6994Y26244
X2244Y26244
X2244Y22244
X14994Y5994
X16994Y5994
X23744Y6994
X23744Y2994
X29244Y8244
X29244Y10244
X31744Y10244
X31744Y8244
X29244Y15994
X29244Y17994
X23994Y19994
X23994Y21994
X23994Y23994
X23994Y25994
X35244Y17994
X35244Y15994
X36994Y19994
X36994Y21994
X36994Y23994
X36994Y25994
X45494Y16494
X46994Y14494
X46994Y12494
X46994Y10994
X45994Y10994
X44994Y10994
X43994Y10994
X43994Y12494
X45494Y12494
X43994Y14494
X48994Y11494
X50494Y11494
X52494Y10994
X53494Y10994
X54494Y10994
X55494Y10994
X55494Y12494
X53994Y12494
X52494Y12494
X52494Y14494
X53994Y16494
X55494Y14494
X57494Y11994
X57494Y7994
X55494Y7994
X54494Y7994
X53494Y7994
X52494Y7994
X50494Y7494
X48994Y7494
X46994Y7994
X45994Y7994
X44994Y7994
X43994Y7994
X44994Y5994
X46994Y5994
X47494Y2994
X43494Y2994
X53494Y5994
X55494Y5994
X53994Y22244
X53994Y26244
X58744Y26244
X58744Y22244
X51494Y39494
X48994Y39494
X48994Y43494
X51494Y43494
X11994Y43494
X9494Y43494
X9494Y39494
X11994Y39494
T03
X11994Y37994
X9494Y37994
X9494Y31994
X11994Y31994
X4744Y25244
X4744Y24244
X4744Y23244
X25494Y16994
X27494Y16994
X31494Y16994
X33494Y16994
X33494Y12994
X32494Y12994
X34494Y12994
X35494Y9244
X33494Y9244
X28494Y12994
X27494Y12994
X26494Y12994
X27494Y9244
X25494Y9244
X48994Y31994
X51494Y31994
X51494Y37994
X48994Y37994
X56494Y25244
X56494Y24244
X56494Y23244
T04
X33494Y20344
X27494Y20344
X27494Y33144
X33494Y33144
T05
X41994Y25744
X43994Y27744
X46994Y27744
X48994Y25744
X48994Y22744
X46994Y20744
X43994Y20744
X41994Y22744
X18994Y22744
X16994Y20744
X13994Y20744
X11994Y22744
X11994Y25744
X13994Y27744
X16994Y27744
X18994Y25744
T06
X17994Y33344
X4494Y29844
X4494Y44644
X17994Y48144
X42994Y48144
X56494Y44644
X42994Y33344
X56494Y29844
T07
X51647Y46994
X49994Y46994
X48340Y46994
X32147Y46994
X30494Y46994
X28840Y46994
X12647Y46994
X10994Y46994
X9340Y46994
T08
X2994Y19523
X2994Y17964
X19714Y2994
X21273Y2994
X28935Y2994
X30494Y2994
X32053Y2994
X39714Y2994
X41273Y2994
T09
X37119Y39494
X33119Y39494
X27869Y39494
X23869Y39494
T10
X32147Y45478
X29667Y49179
X12647Y45478
X10167Y49179
X49167Y49179
X51647Y45478
T11
X2494Y2494
X2494Y48494
X58494Y48494
X58494Y2494
M30
