G75*
G70*
%OFA0B0*%
%FSLAX24Y24*%
%IPPOS*%
%LPD*%
%AMOC8*
5,1,8,0,0,1.08239X$1,22.5*
%
%ADD10C,0.0520*%
%ADD11C,0.1000*%
%ADD12OC8,0.0520*%
%ADD13OC8,0.0600*%
%ADD14OC8,0.0780*%
%ADD15C,0.0600*%
%ADD16OC8,0.1000*%
%ADD17C,0.1004*%
%ADD18OC8,0.0705*%
%ADD19C,0.1810*%
%ADD20OC8,0.1810*%
%ADD21C,0.3150*%
%ADD22C,0.0560*%
%ADD23C,0.0160*%
%ADD24C,0.0320*%
%ADD25C,0.0396*%
D10*
X005494Y007734D02*
X005494Y008254D01*
X006494Y008254D02*
X006494Y007734D01*
X007494Y007734D02*
X007494Y008254D01*
X008494Y008254D02*
X008494Y007734D01*
X008494Y010734D02*
X008494Y011254D01*
X007494Y011254D02*
X007494Y010734D01*
X006494Y010734D02*
X006494Y011254D01*
X005494Y011254D02*
X005494Y010734D01*
X013994Y010734D02*
X013994Y011254D01*
X014994Y011254D02*
X014994Y010734D01*
X015994Y010734D02*
X015994Y011254D01*
X016994Y011254D02*
X016994Y010734D01*
X016994Y008254D02*
X016994Y007734D01*
X015994Y007734D02*
X015994Y008254D01*
X014994Y008254D02*
X014994Y007734D01*
X013994Y007734D02*
X013994Y008254D01*
X043994Y008254D02*
X043994Y007734D01*
X044994Y007734D02*
X044994Y008254D01*
X045994Y008254D02*
X045994Y007734D01*
X046994Y007734D02*
X046994Y008254D01*
X046994Y010734D02*
X046994Y011254D01*
X045994Y011254D02*
X045994Y010734D01*
X044994Y010734D02*
X044994Y011254D01*
X043994Y011254D02*
X043994Y010734D01*
X052494Y010734D02*
X052494Y011254D01*
X053494Y011254D02*
X053494Y010734D01*
X054494Y010734D02*
X054494Y011254D01*
X055494Y011254D02*
X055494Y010734D01*
X055494Y008254D02*
X055494Y007734D01*
X054494Y007734D02*
X054494Y008254D01*
X053494Y008254D02*
X053494Y007734D01*
X052494Y007734D02*
X052494Y008254D01*
D11*
X046994Y020744D03*
X048994Y022744D03*
X048994Y025744D03*
X046994Y027744D03*
X043994Y027744D03*
X041994Y025744D03*
X041994Y022744D03*
X043994Y020744D03*
X033494Y016994D03*
X025494Y016994D03*
X018994Y022744D03*
X016994Y020744D03*
X013994Y020744D03*
X011994Y022744D03*
X011994Y025744D03*
X013994Y027744D03*
X016994Y027744D03*
X018994Y025744D03*
X025494Y009244D03*
X033494Y009244D03*
X032147Y046994D03*
X030494Y046994D03*
X028840Y046994D03*
X012647Y046994D03*
X010994Y046994D03*
X009340Y046994D03*
X048340Y046994D03*
X049994Y046994D03*
X051647Y046994D03*
D12*
X051494Y043494D03*
X048994Y043494D03*
X048994Y039494D03*
X051494Y039494D03*
X053994Y026244D03*
X053994Y022244D03*
X058744Y022244D03*
X058744Y026244D03*
X053994Y016494D03*
X055494Y014494D03*
X055494Y012494D03*
X053994Y012494D03*
X052494Y012494D03*
X052494Y014494D03*
X050494Y011494D03*
X048994Y011494D03*
X046994Y012494D03*
X045494Y012494D03*
X043994Y012494D03*
X043994Y014494D03*
X045494Y016494D03*
X046994Y014494D03*
X048994Y007494D03*
X050494Y007494D03*
X053494Y005994D03*
X055494Y005994D03*
X057494Y007994D03*
X057494Y011994D03*
X046994Y005994D03*
X044994Y005994D03*
X043494Y002994D03*
X047494Y002994D03*
X031744Y008244D03*
X031744Y010244D03*
X029244Y010244D03*
X029244Y008244D03*
X023744Y006994D03*
X018994Y007994D03*
X016994Y005994D03*
X014994Y005994D03*
X011994Y007494D03*
X010494Y007494D03*
X008494Y005994D03*
X006494Y005994D03*
X010494Y011494D03*
X011994Y011494D03*
X013994Y012494D03*
X015494Y012494D03*
X016994Y012494D03*
X016994Y014494D03*
X015494Y016494D03*
X013994Y014494D03*
X008494Y014494D03*
X008494Y012494D03*
X006994Y012494D03*
X005494Y012494D03*
X005494Y014494D03*
X006994Y016494D03*
X006994Y022244D03*
X006994Y026244D03*
X002244Y026244D03*
X002244Y022244D03*
X018994Y011994D03*
X023994Y019994D03*
X023994Y021994D03*
X023994Y023994D03*
X023994Y025994D03*
X029244Y017994D03*
X029244Y015994D03*
X035244Y015994D03*
X035244Y017994D03*
X036994Y019994D03*
X036994Y021994D03*
X036994Y023994D03*
X036994Y025994D03*
X011994Y039494D03*
X009494Y039494D03*
X009494Y043494D03*
X011994Y043494D03*
X023744Y002994D03*
D13*
X011994Y031994D03*
X009494Y031994D03*
X009494Y037994D03*
X011994Y037994D03*
X048994Y037994D03*
X051494Y037994D03*
X051494Y031994D03*
X048994Y031994D03*
D14*
X042994Y033344D03*
X056494Y029844D03*
X056494Y044644D03*
X042994Y048144D03*
X017994Y048144D03*
X004494Y044644D03*
X017994Y033344D03*
X004494Y029844D03*
D15*
X004444Y025244D02*
X005044Y025244D01*
X005044Y024244D02*
X004444Y024244D01*
X004444Y023244D02*
X005044Y023244D01*
X026494Y013294D02*
X026494Y012694D01*
X027494Y012694D02*
X027494Y013294D01*
X028494Y013294D02*
X028494Y012694D01*
X032494Y012694D02*
X032494Y013294D01*
X033494Y013294D02*
X033494Y012694D01*
X034494Y012694D02*
X034494Y013294D01*
X056194Y023244D02*
X056794Y023244D01*
X056794Y024244D02*
X056194Y024244D01*
X056194Y025244D02*
X056794Y025244D01*
D16*
X035494Y009244D03*
X027494Y009244D03*
X027494Y016994D03*
X031494Y016994D03*
D17*
X032053Y003496D02*
X032053Y002492D01*
X030494Y002492D02*
X030494Y003496D01*
X028935Y003496D02*
X028935Y002492D01*
X021273Y002492D02*
X021273Y003496D01*
X019714Y003496D02*
X019714Y002492D01*
X003496Y017964D02*
X002492Y017964D01*
X002492Y019523D02*
X003496Y019523D01*
X039714Y003496D02*
X039714Y002492D01*
X041273Y002492D02*
X041273Y003496D01*
D18*
X033494Y020344D03*
X027494Y020344D03*
X027494Y033144D03*
X033494Y033144D03*
D19*
X037119Y039494D03*
X023869Y039494D03*
D20*
X027869Y039494D03*
X033119Y039494D03*
D21*
X002494Y002494D03*
X002494Y048494D03*
X058494Y048494D03*
X058494Y002494D03*
D22*
X048994Y025744D02*
X041994Y025744D01*
X018994Y025744D02*
X011994Y025744D01*
D23*
X012520Y026264D02*
X012413Y026371D01*
X012141Y026484D01*
X011847Y026484D01*
X011575Y026371D01*
X011366Y026163D01*
X011254Y025891D01*
X011254Y025597D01*
X011366Y025325D01*
X011575Y025116D01*
X011847Y025004D01*
X012141Y025004D01*
X012413Y025116D01*
X012520Y025224D01*
X018467Y025224D01*
X018575Y025116D01*
X018847Y025004D01*
X019141Y025004D01*
X019413Y025116D01*
X019621Y025325D01*
X019734Y025597D01*
X019734Y025891D01*
X019621Y026163D01*
X019413Y026371D01*
X019141Y026484D01*
X018847Y026484D01*
X018575Y026371D01*
X018467Y026264D01*
X012520Y026264D01*
X012455Y026329D02*
X018533Y026329D01*
X019455Y026329D02*
X023735Y026329D01*
X023820Y026414D02*
X023574Y026168D01*
X023574Y025994D01*
X023994Y025994D01*
X023994Y025994D01*
X023994Y026414D01*
X024168Y026414D01*
X024414Y026168D01*
X024414Y025994D01*
X023994Y025994D01*
X023994Y025994D01*
X023994Y026414D01*
X023820Y026414D01*
X023994Y026329D02*
X023994Y026329D01*
X023994Y026171D02*
X023994Y026171D01*
X023994Y026012D02*
X023994Y026012D01*
X023994Y025994D02*
X023994Y025994D01*
X024414Y025994D01*
X024414Y025820D01*
X024168Y025574D01*
X023994Y025574D01*
X023994Y025994D01*
X023994Y025994D01*
X023574Y025994D01*
X023574Y025820D01*
X023820Y025574D01*
X023994Y025574D01*
X023994Y025994D01*
X023994Y025854D02*
X023994Y025854D01*
X023994Y025695D02*
X023994Y025695D01*
X024289Y025695D02*
X036698Y025695D01*
X036820Y025574D02*
X036574Y025820D01*
X036574Y025994D01*
X036994Y025994D01*
X036994Y025994D01*
X036994Y026414D01*
X037168Y026414D01*
X037414Y026168D01*
X037414Y025994D01*
X036994Y025994D01*
X036994Y025994D01*
X036994Y026414D01*
X036820Y026414D01*
X036574Y026168D01*
X036574Y025994D01*
X036994Y025994D01*
X037414Y025994D01*
X037414Y025820D01*
X037168Y025574D01*
X036994Y025574D01*
X036994Y025994D01*
X036994Y025994D01*
X036994Y025994D01*
X036994Y025574D01*
X036820Y025574D01*
X036994Y025695D02*
X036994Y025695D01*
X036994Y025854D02*
X036994Y025854D01*
X036994Y026012D02*
X036994Y026012D01*
X036994Y026171D02*
X036994Y026171D01*
X036994Y026329D02*
X036994Y026329D01*
X037252Y026329D02*
X041533Y026329D01*
X041575Y026371D02*
X041366Y026163D01*
X041254Y025891D01*
X041254Y025597D01*
X041366Y025325D01*
X041575Y025116D01*
X041847Y025004D01*
X042141Y025004D01*
X042413Y025116D01*
X042520Y025224D01*
X048467Y025224D01*
X048575Y025116D01*
X048847Y025004D01*
X049141Y025004D01*
X049413Y025116D01*
X049621Y025325D01*
X049734Y025597D01*
X049734Y025891D01*
X049621Y026163D01*
X049413Y026371D01*
X049141Y026484D01*
X048847Y026484D01*
X048575Y026371D01*
X048467Y026264D01*
X042520Y026264D01*
X042413Y026371D01*
X042141Y026484D01*
X041847Y026484D01*
X041575Y026371D01*
X041374Y026171D02*
X037411Y026171D01*
X037414Y026012D02*
X041304Y026012D01*
X041254Y025854D02*
X037414Y025854D01*
X037289Y025695D02*
X041254Y025695D01*
X041278Y025537D02*
X019709Y025537D01*
X019734Y025695D02*
X023698Y025695D01*
X023574Y025854D02*
X019734Y025854D01*
X019683Y026012D02*
X023574Y026012D01*
X023577Y026171D02*
X019613Y026171D01*
X019643Y025378D02*
X041344Y025378D01*
X041471Y025220D02*
X019516Y025220D01*
X019280Y025061D02*
X041708Y025061D01*
X042280Y025061D02*
X048708Y025061D01*
X048471Y025220D02*
X042516Y025220D01*
X042455Y026329D02*
X048533Y026329D01*
X049455Y026329D02*
X053494Y026329D01*
X053494Y026451D02*
X053494Y026037D01*
X053787Y025744D01*
X054201Y025744D01*
X054494Y026037D01*
X054494Y026451D01*
X054201Y026744D01*
X053787Y026744D01*
X053494Y026451D01*
X053531Y026488D02*
X007457Y026488D01*
X007494Y026451D02*
X007201Y026744D01*
X006787Y026744D01*
X006494Y026451D01*
X006494Y026037D01*
X006787Y025744D01*
X007201Y025744D01*
X007494Y026037D01*
X007494Y026451D01*
X007494Y026329D02*
X011533Y026329D01*
X011374Y026171D02*
X007494Y026171D01*
X007469Y026012D02*
X011304Y026012D01*
X011254Y025854D02*
X007311Y025854D01*
X006677Y025854D02*
X002561Y025854D01*
X002451Y025744D02*
X002744Y026037D01*
X002744Y026451D01*
X002451Y026744D01*
X002037Y026744D01*
X001744Y026451D01*
X001744Y026037D01*
X002037Y025744D01*
X002451Y025744D01*
X002719Y026012D02*
X006518Y026012D01*
X006494Y026171D02*
X002744Y026171D01*
X002744Y026329D02*
X006494Y026329D01*
X006531Y026488D02*
X002707Y026488D01*
X002548Y026646D02*
X006689Y026646D01*
X007298Y026646D02*
X053689Y026646D01*
X053494Y026171D02*
X049613Y026171D01*
X049683Y026012D02*
X053518Y026012D01*
X053677Y025854D02*
X049734Y025854D01*
X049734Y025695D02*
X055882Y025695D01*
X055888Y025701D02*
X055736Y025550D01*
X055654Y025351D01*
X055654Y025136D01*
X055736Y024938D01*
X055888Y024786D01*
X055990Y024744D01*
X055888Y024701D01*
X055736Y024550D01*
X055654Y024351D01*
X055654Y024136D01*
X055736Y023938D01*
X055888Y023786D01*
X056086Y023704D01*
X056901Y023704D01*
X057100Y023786D01*
X057251Y023938D01*
X057334Y024136D01*
X057334Y024351D01*
X057251Y024550D01*
X057100Y024701D01*
X056998Y024744D01*
X057100Y024786D01*
X057251Y024938D01*
X057334Y025136D01*
X057334Y025351D01*
X057251Y025550D01*
X057100Y025701D01*
X056901Y025784D01*
X056086Y025784D01*
X055888Y025701D01*
X055731Y025537D02*
X049709Y025537D01*
X049643Y025378D02*
X055665Y025378D01*
X055654Y025220D02*
X049516Y025220D01*
X049280Y025061D02*
X055685Y025061D01*
X055771Y024903D02*
X005466Y024903D01*
X005501Y024938D02*
X005350Y024786D01*
X005248Y024744D01*
X005350Y024701D01*
X005501Y024550D01*
X005584Y024351D01*
X005584Y024136D01*
X005501Y023938D01*
X005350Y023786D01*
X005151Y023704D01*
X004336Y023704D01*
X004138Y023786D01*
X003986Y023938D01*
X003904Y024136D01*
X003904Y024351D01*
X003986Y024550D01*
X004138Y024701D01*
X004240Y024744D01*
X004138Y024786D01*
X003986Y024938D01*
X003904Y025136D01*
X003904Y025351D01*
X003986Y025550D01*
X004138Y025701D01*
X004336Y025784D01*
X005151Y025784D01*
X005350Y025701D01*
X005501Y025550D01*
X005584Y025351D01*
X005584Y025136D01*
X005501Y024938D01*
X005553Y025061D02*
X011708Y025061D01*
X011471Y025220D02*
X005584Y025220D01*
X005572Y025378D02*
X011344Y025378D01*
X011278Y025537D02*
X005507Y025537D01*
X005356Y025695D02*
X011254Y025695D01*
X012280Y025061D02*
X018708Y025061D01*
X018471Y025220D02*
X012516Y025220D01*
X012141Y023484D02*
X011847Y023484D01*
X011575Y023371D01*
X011366Y023163D01*
X011254Y022891D01*
X011254Y022597D01*
X011366Y022325D01*
X011575Y022116D01*
X011847Y022004D01*
X012141Y022004D01*
X012413Y022116D01*
X012621Y022325D01*
X012734Y022597D01*
X012734Y022891D01*
X012621Y023163D01*
X012413Y023371D01*
X012141Y023484D01*
X012159Y023476D02*
X018227Y023476D01*
X018145Y023395D02*
X018006Y023153D01*
X017934Y022883D01*
X017934Y022604D01*
X018006Y022335D01*
X018145Y022093D01*
X018343Y021895D01*
X018585Y021756D01*
X018854Y021684D01*
X019133Y021684D01*
X019403Y021756D01*
X019645Y021895D01*
X019842Y022093D01*
X019981Y022335D01*
X020054Y022604D01*
X020054Y022883D01*
X019981Y023153D01*
X019842Y023395D01*
X019645Y023592D01*
X019403Y023731D01*
X019133Y023804D01*
X018854Y023804D01*
X018585Y023731D01*
X018343Y023592D01*
X018145Y023395D01*
X018101Y023318D02*
X015789Y023318D01*
X015742Y023365D02*
X015581Y023432D01*
X015407Y023432D01*
X015246Y023365D01*
X015122Y023242D01*
X015056Y023081D01*
X015056Y022907D01*
X015094Y022815D01*
X015094Y018673D01*
X015056Y018581D01*
X015056Y018407D01*
X015122Y018246D01*
X004182Y018246D01*
X004238Y018112D02*
X004125Y018384D01*
X003916Y018593D01*
X003643Y018706D01*
X002344Y018706D01*
X002071Y018593D01*
X001863Y018384D01*
X001750Y018112D01*
X001750Y017817D01*
X001863Y017544D01*
X002071Y017335D01*
X002344Y017222D01*
X003643Y017222D01*
X003916Y017335D01*
X004125Y017544D01*
X004238Y017817D01*
X004238Y018112D01*
X004238Y018087D02*
X015330Y018087D01*
X015407Y018056D02*
X015581Y018056D01*
X015742Y018122D01*
X015865Y018246D01*
X016622Y018246D01*
X016746Y018122D01*
X016907Y018056D01*
X017081Y018056D01*
X017242Y018122D01*
X017365Y018246D01*
X028902Y018246D01*
X028824Y018168D02*
X028824Y017994D01*
X029244Y017994D01*
X029244Y017994D01*
X029244Y018414D01*
X029418Y018414D01*
X029664Y018168D01*
X029664Y017994D01*
X029244Y017994D01*
X029244Y017994D01*
X029244Y018414D01*
X029070Y018414D01*
X028824Y018168D01*
X028824Y018087D02*
X017157Y018087D01*
X017365Y018246D02*
X017432Y018407D01*
X017432Y018581D01*
X017394Y018673D01*
X017394Y020108D01*
X017413Y020116D01*
X017621Y020325D01*
X017734Y020597D01*
X017734Y020891D01*
X017621Y021163D01*
X017413Y021371D01*
X017141Y021484D01*
X016847Y021484D01*
X016575Y021371D01*
X016366Y021163D01*
X016254Y020891D01*
X016254Y020597D01*
X016366Y020325D01*
X016575Y020116D01*
X016594Y020108D01*
X016594Y018673D01*
X016556Y018581D01*
X016556Y018407D01*
X016622Y018246D01*
X016557Y018404D02*
X015931Y018404D01*
X015932Y018407D02*
X015865Y018246D01*
X015932Y018407D02*
X015932Y018581D01*
X015894Y018673D01*
X015894Y022815D01*
X015932Y022907D01*
X015932Y023081D01*
X015865Y023242D01*
X015742Y023365D01*
X015899Y023159D02*
X018010Y023159D01*
X017965Y023001D02*
X015932Y023001D01*
X015905Y022842D02*
X017934Y022842D01*
X017934Y022684D02*
X015894Y022684D01*
X015894Y022525D02*
X017955Y022525D01*
X017997Y022367D02*
X015894Y022367D01*
X015894Y022208D02*
X018079Y022208D01*
X018189Y022050D02*
X015894Y022050D01*
X015894Y021891D02*
X018350Y021891D01*
X018671Y021733D02*
X015894Y021733D01*
X015894Y021574D02*
X023706Y021574D01*
X023787Y021494D02*
X023494Y021787D01*
X023494Y022201D01*
X023787Y022494D01*
X024201Y022494D01*
X024494Y022201D01*
X024494Y021787D01*
X024201Y021494D01*
X023787Y021494D01*
X023548Y021733D02*
X019316Y021733D01*
X019637Y021891D02*
X023494Y021891D01*
X023494Y022050D02*
X019799Y022050D01*
X019909Y022208D02*
X023501Y022208D01*
X023660Y022367D02*
X019990Y022367D01*
X020033Y022525D02*
X041283Y022525D01*
X041254Y022597D02*
X041366Y022325D01*
X041575Y022116D01*
X041847Y022004D01*
X042141Y022004D01*
X042413Y022116D01*
X042621Y022325D01*
X042734Y022597D01*
X042734Y022891D01*
X042621Y023163D01*
X042413Y023371D01*
X042141Y023484D01*
X041847Y023484D01*
X041575Y023371D01*
X041366Y023163D01*
X041254Y022891D01*
X041254Y022597D01*
X041254Y022684D02*
X020054Y022684D01*
X020054Y022842D02*
X041254Y022842D01*
X041299Y023001D02*
X020022Y023001D01*
X019978Y023159D02*
X041365Y023159D01*
X041521Y023318D02*
X019886Y023318D01*
X019760Y023476D02*
X041828Y023476D01*
X042159Y023476D02*
X048227Y023476D01*
X048145Y023395D02*
X048343Y023592D01*
X048585Y023731D01*
X048854Y023804D01*
X049133Y023804D01*
X049403Y023731D01*
X049645Y023592D01*
X049842Y023395D01*
X049981Y023153D01*
X050054Y022883D01*
X050054Y022604D01*
X049981Y022335D01*
X049842Y022093D01*
X049645Y021895D01*
X049403Y021756D01*
X049133Y021684D01*
X048854Y021684D01*
X048585Y021756D01*
X048343Y021895D01*
X048145Y022093D01*
X048006Y022335D01*
X047934Y022604D01*
X047934Y022883D01*
X048006Y023153D01*
X048145Y023395D01*
X048101Y023318D02*
X042466Y023318D01*
X042623Y023159D02*
X048010Y023159D01*
X047965Y023001D02*
X042688Y023001D01*
X042734Y022842D02*
X047934Y022842D01*
X047934Y022684D02*
X042734Y022684D01*
X042704Y022525D02*
X047955Y022525D01*
X047997Y022367D02*
X042639Y022367D01*
X042505Y022208D02*
X048079Y022208D01*
X048189Y022050D02*
X042252Y022050D01*
X041735Y022050D02*
X037494Y022050D01*
X037494Y022201D02*
X037201Y022494D01*
X036787Y022494D01*
X036494Y022201D01*
X036494Y021787D01*
X036787Y021494D01*
X037201Y021494D01*
X037494Y021787D01*
X037494Y022201D01*
X037486Y022208D02*
X041483Y022208D01*
X041349Y022367D02*
X037328Y022367D01*
X037494Y021891D02*
X048350Y021891D01*
X048671Y021733D02*
X037440Y021733D01*
X037281Y021574D02*
X060254Y021574D01*
X060254Y021416D02*
X047305Y021416D01*
X047413Y021371D02*
X047141Y021484D01*
X046847Y021484D01*
X046575Y021371D01*
X046366Y021163D01*
X046254Y020891D01*
X046254Y020597D01*
X046366Y020325D01*
X046575Y020116D01*
X046847Y020004D01*
X047141Y020004D01*
X047413Y020116D01*
X047621Y020325D01*
X047734Y020597D01*
X047734Y020891D01*
X047621Y021163D01*
X047413Y021371D01*
X047527Y021257D02*
X060254Y021257D01*
X060254Y021099D02*
X047648Y021099D01*
X047713Y020940D02*
X060254Y020940D01*
X060254Y020782D02*
X047734Y020782D01*
X047734Y020623D02*
X060254Y020623D01*
X060254Y020465D02*
X047679Y020465D01*
X047603Y020306D02*
X060254Y020306D01*
X060254Y020148D02*
X047444Y020148D01*
X046543Y020148D02*
X044444Y020148D01*
X044413Y020116D02*
X044621Y020325D01*
X044734Y020597D01*
X044734Y020891D01*
X044621Y021163D01*
X044413Y021371D01*
X044141Y021484D01*
X043847Y021484D01*
X043575Y021371D01*
X043366Y021163D01*
X043254Y020891D01*
X043254Y020597D01*
X043366Y020325D01*
X043575Y020116D01*
X043847Y020004D01*
X044141Y020004D01*
X044413Y020116D01*
X044603Y020306D02*
X046385Y020306D01*
X046308Y020465D02*
X044679Y020465D01*
X044734Y020623D02*
X046254Y020623D01*
X046254Y020782D02*
X044734Y020782D01*
X044713Y020940D02*
X046274Y020940D01*
X046340Y021099D02*
X044648Y021099D01*
X044527Y021257D02*
X046461Y021257D01*
X046682Y021416D02*
X044305Y021416D01*
X043682Y021416D02*
X017305Y021416D01*
X017527Y021257D02*
X043461Y021257D01*
X043340Y021099D02*
X017648Y021099D01*
X017713Y020940D02*
X043274Y020940D01*
X043254Y020782D02*
X033780Y020782D01*
X033706Y020856D02*
X033531Y020856D01*
X033531Y020381D01*
X033456Y020381D01*
X033456Y020306D01*
X032981Y020306D01*
X032981Y020131D01*
X033281Y019831D01*
X033456Y019831D01*
X033456Y020306D01*
X033531Y020306D01*
X033531Y019831D01*
X033706Y019831D01*
X034006Y020131D01*
X034006Y020306D01*
X033531Y020306D01*
X033531Y020381D01*
X034006Y020381D01*
X034006Y020556D01*
X033706Y020856D01*
X033531Y020782D02*
X033456Y020782D01*
X033456Y020856D02*
X033281Y020856D01*
X032981Y020556D01*
X032981Y020381D01*
X033456Y020381D01*
X033456Y020856D01*
X033456Y020623D02*
X033531Y020623D01*
X033531Y020465D02*
X033456Y020465D01*
X033456Y020306D02*
X027531Y020306D01*
X027531Y019831D01*
X027706Y019831D01*
X028006Y020131D01*
X028006Y020306D01*
X027531Y020306D01*
X027456Y020306D01*
X026981Y020306D01*
X026981Y020131D01*
X027281Y019831D01*
X027456Y019831D01*
X027456Y020306D01*
X027456Y020381D01*
X026981Y020381D01*
X026981Y020556D01*
X027281Y020856D01*
X027456Y020856D01*
X027456Y020381D01*
X027531Y020381D01*
X027531Y020856D01*
X027706Y020856D01*
X028006Y020556D01*
X028006Y020381D01*
X027531Y020381D01*
X027531Y020306D01*
X027456Y020306D02*
X024275Y020306D01*
X024168Y020414D02*
X023994Y020414D01*
X023994Y019994D01*
X023994Y019994D01*
X024414Y019994D01*
X024414Y020168D01*
X024168Y020414D01*
X023994Y020414D02*
X023820Y020414D01*
X023574Y020168D01*
X023574Y019994D01*
X023994Y019994D01*
X023994Y019994D01*
X023994Y020414D01*
X023994Y020306D02*
X023994Y020306D01*
X023994Y020148D02*
X023994Y020148D01*
X023994Y019994D02*
X023994Y019994D01*
X024414Y019994D01*
X024414Y019820D01*
X024168Y019574D01*
X023994Y019574D01*
X023994Y019994D01*
X023994Y019994D01*
X023574Y019994D01*
X023574Y019820D01*
X023820Y019574D01*
X023994Y019574D01*
X023994Y019994D01*
X023994Y019989D02*
X023994Y019989D01*
X023994Y019831D02*
X023994Y019831D01*
X023994Y019672D02*
X023994Y019672D01*
X024266Y019672D02*
X036721Y019672D01*
X036820Y019574D02*
X036574Y019820D01*
X036574Y019994D01*
X036994Y019994D01*
X036994Y019994D01*
X036994Y020414D01*
X037168Y020414D01*
X037414Y020168D01*
X037414Y019994D01*
X036994Y019994D01*
X036994Y019994D01*
X036994Y020414D01*
X036820Y020414D01*
X036574Y020168D01*
X036574Y019994D01*
X036994Y019994D01*
X037414Y019994D01*
X037414Y019820D01*
X037168Y019574D01*
X036994Y019574D01*
X036994Y019994D01*
X036994Y019994D01*
X036994Y019994D01*
X036994Y019574D01*
X036820Y019574D01*
X036994Y019672D02*
X036994Y019672D01*
X036994Y019831D02*
X036994Y019831D01*
X036994Y019989D02*
X036994Y019989D01*
X036994Y020148D02*
X036994Y020148D01*
X036994Y020306D02*
X036994Y020306D01*
X037275Y020306D02*
X043385Y020306D01*
X043308Y020465D02*
X034006Y020465D01*
X033939Y020623D02*
X043254Y020623D01*
X043543Y020148D02*
X037414Y020148D01*
X037414Y019989D02*
X060254Y019989D01*
X060254Y019831D02*
X037414Y019831D01*
X037266Y019672D02*
X060254Y019672D01*
X060254Y019514D02*
X017394Y019514D01*
X017394Y019672D02*
X023721Y019672D01*
X023574Y019831D02*
X017394Y019831D01*
X017394Y019989D02*
X023574Y019989D01*
X023574Y020148D02*
X017444Y020148D01*
X017603Y020306D02*
X023712Y020306D01*
X024414Y020148D02*
X026981Y020148D01*
X027123Y019989D02*
X024414Y019989D01*
X024414Y019831D02*
X036574Y019831D01*
X036574Y019989D02*
X033864Y019989D01*
X034006Y020148D02*
X036574Y020148D01*
X036712Y020306D02*
X033531Y020306D01*
X033531Y020148D02*
X033456Y020148D01*
X033456Y019989D02*
X033531Y019989D01*
X033123Y019989D02*
X027864Y019989D01*
X028006Y020148D02*
X032981Y020148D01*
X032981Y020465D02*
X028006Y020465D01*
X027939Y020623D02*
X033048Y020623D01*
X033207Y020782D02*
X027780Y020782D01*
X027531Y020782D02*
X027456Y020782D01*
X027456Y020623D02*
X027531Y020623D01*
X027531Y020465D02*
X027456Y020465D01*
X027456Y020148D02*
X027531Y020148D01*
X027531Y019989D02*
X027456Y019989D01*
X026981Y020465D02*
X017679Y020465D01*
X017734Y020623D02*
X027048Y020623D01*
X027207Y020782D02*
X017734Y020782D01*
X016682Y021416D02*
X015894Y021416D01*
X015894Y021257D02*
X016461Y021257D01*
X016340Y021099D02*
X015894Y021099D01*
X015894Y020940D02*
X016274Y020940D01*
X016254Y020782D02*
X015894Y020782D01*
X015894Y020623D02*
X016254Y020623D01*
X016308Y020465D02*
X015894Y020465D01*
X015894Y020306D02*
X016385Y020306D01*
X016543Y020148D02*
X015894Y020148D01*
X015894Y019989D02*
X016594Y019989D01*
X016594Y019831D02*
X015894Y019831D01*
X015894Y019672D02*
X016594Y019672D01*
X016594Y019514D02*
X015894Y019514D01*
X015894Y019355D02*
X016594Y019355D01*
X016594Y019197D02*
X015894Y019197D01*
X015894Y019038D02*
X016594Y019038D01*
X016594Y018880D02*
X015894Y018880D01*
X015894Y018721D02*
X016594Y018721D01*
X016556Y018563D02*
X015932Y018563D01*
X015657Y018087D02*
X016830Y018087D01*
X017431Y018404D02*
X029060Y018404D01*
X029244Y018404D02*
X029244Y018404D01*
X029244Y018246D02*
X029244Y018246D01*
X029244Y018087D02*
X029244Y018087D01*
X029244Y017994D02*
X029244Y017994D01*
X029664Y017994D01*
X029664Y017820D01*
X029418Y017574D01*
X029244Y017574D01*
X029244Y017994D01*
X029244Y017994D01*
X028824Y017994D01*
X028824Y017820D01*
X029070Y017574D01*
X029244Y017574D01*
X029244Y017994D01*
X029244Y017929D02*
X029244Y017929D01*
X029244Y017770D02*
X029244Y017770D01*
X029244Y017612D02*
X029244Y017612D01*
X029456Y017612D02*
X031178Y017612D01*
X031220Y017654D02*
X030834Y017267D01*
X030834Y017014D01*
X031474Y017014D01*
X031474Y017654D01*
X031220Y017654D01*
X031474Y017612D02*
X031514Y017612D01*
X031514Y017654D02*
X031767Y017654D01*
X032154Y017267D01*
X032154Y017014D01*
X031514Y017014D01*
X031514Y016974D01*
X032154Y016974D01*
X032154Y016720D01*
X031767Y016334D01*
X031514Y016334D01*
X031514Y016974D01*
X031474Y016974D01*
X031474Y016334D01*
X031220Y016334D01*
X030834Y016720D01*
X030834Y016974D01*
X031474Y016974D01*
X031474Y017014D01*
X031514Y017014D01*
X031514Y017654D01*
X031514Y017453D02*
X031474Y017453D01*
X031474Y017295D02*
X031514Y017295D01*
X031514Y017136D02*
X031474Y017136D01*
X031474Y016978D02*
X028234Y016978D01*
X028234Y017136D02*
X030834Y017136D01*
X030861Y017295D02*
X028234Y017295D01*
X028234Y017300D02*
X027800Y017734D01*
X027187Y017734D01*
X026754Y017300D01*
X026754Y016687D01*
X027187Y016254D01*
X027800Y016254D01*
X028234Y016687D01*
X028234Y017300D01*
X028081Y017453D02*
X031020Y017453D01*
X031514Y016978D02*
X032754Y016978D01*
X032754Y016847D02*
X032866Y016575D01*
X033075Y016366D01*
X033347Y016254D01*
X033641Y016254D01*
X033913Y016366D01*
X034121Y016575D01*
X034234Y016847D01*
X034234Y017141D01*
X034121Y017413D01*
X033913Y017621D01*
X033641Y017734D01*
X033347Y017734D01*
X033075Y017621D01*
X032866Y017413D01*
X032754Y017141D01*
X032754Y016847D01*
X032765Y016819D02*
X032154Y016819D01*
X032094Y016661D02*
X032831Y016661D01*
X032939Y016502D02*
X031936Y016502D01*
X031777Y016344D02*
X033129Y016344D01*
X033858Y016344D02*
X034887Y016344D01*
X034744Y016201D02*
X035037Y016494D01*
X035451Y016494D01*
X035744Y016201D01*
X035744Y015787D01*
X035451Y015494D01*
X035037Y015494D01*
X034744Y015787D01*
X034744Y016201D01*
X034744Y016185D02*
X029744Y016185D01*
X029744Y016201D02*
X029451Y016494D01*
X029037Y016494D01*
X028744Y016201D01*
X028744Y015787D01*
X029037Y015494D01*
X029451Y015494D01*
X029744Y015787D01*
X029744Y016201D01*
X029744Y016027D02*
X034744Y016027D01*
X034744Y015868D02*
X029744Y015868D01*
X029667Y015710D02*
X034821Y015710D01*
X034979Y015551D02*
X029508Y015551D01*
X028979Y015551D02*
X000734Y015551D01*
X000734Y015393D02*
X060254Y015393D01*
X060254Y015551D02*
X035508Y015551D01*
X035667Y015710D02*
X060254Y015710D01*
X060254Y015868D02*
X035744Y015868D01*
X035744Y016027D02*
X045254Y016027D01*
X045287Y015994D02*
X045701Y015994D01*
X045994Y016287D01*
X045994Y016701D01*
X045701Y016994D01*
X045287Y016994D01*
X044994Y016701D01*
X044994Y016287D01*
X045287Y015994D01*
X045095Y016185D02*
X035744Y016185D01*
X035601Y016344D02*
X044994Y016344D01*
X044994Y016502D02*
X034049Y016502D01*
X034157Y016661D02*
X044994Y016661D01*
X045112Y016819D02*
X034222Y016819D01*
X034234Y016978D02*
X045271Y016978D01*
X045717Y016978D02*
X053771Y016978D01*
X053787Y016994D02*
X053494Y016701D01*
X053494Y016287D01*
X053787Y015994D01*
X054201Y015994D01*
X054494Y016287D01*
X054494Y016701D01*
X054201Y016994D01*
X053787Y016994D01*
X053612Y016819D02*
X045875Y016819D01*
X045994Y016661D02*
X053494Y016661D01*
X053494Y016502D02*
X045994Y016502D01*
X045994Y016344D02*
X053494Y016344D01*
X053595Y016185D02*
X045892Y016185D01*
X045734Y016027D02*
X053754Y016027D01*
X054234Y016027D02*
X060254Y016027D01*
X060254Y016185D02*
X054392Y016185D01*
X054494Y016344D02*
X060254Y016344D01*
X060254Y016502D02*
X054494Y016502D01*
X054494Y016661D02*
X060254Y016661D01*
X060254Y016819D02*
X054375Y016819D01*
X054217Y016978D02*
X060254Y016978D01*
X060254Y017136D02*
X034234Y017136D01*
X034170Y017295D02*
X060254Y017295D01*
X060254Y017453D02*
X034081Y017453D01*
X033922Y017612D02*
X035032Y017612D01*
X035070Y017574D02*
X034824Y017820D01*
X034824Y017994D01*
X035244Y017994D01*
X035244Y017994D01*
X035244Y018414D01*
X035418Y018414D01*
X035664Y018168D01*
X035664Y017994D01*
X035244Y017994D01*
X035244Y017994D01*
X035244Y018414D01*
X035070Y018414D01*
X034824Y018168D01*
X034824Y017994D01*
X035244Y017994D01*
X035664Y017994D01*
X035664Y017820D01*
X035418Y017574D01*
X035244Y017574D01*
X035244Y017994D01*
X035244Y017994D01*
X035244Y017994D01*
X035244Y017574D01*
X035070Y017574D01*
X035244Y017612D02*
X035244Y017612D01*
X035244Y017770D02*
X035244Y017770D01*
X035244Y017929D02*
X035244Y017929D01*
X035244Y018087D02*
X035244Y018087D01*
X035244Y018246D02*
X035244Y018246D01*
X035244Y018404D02*
X035244Y018404D01*
X035427Y018404D02*
X060254Y018404D01*
X060254Y018246D02*
X035586Y018246D01*
X035664Y018087D02*
X060254Y018087D01*
X060254Y017929D02*
X035664Y017929D01*
X035614Y017770D02*
X060254Y017770D01*
X060254Y017612D02*
X035456Y017612D01*
X034873Y017770D02*
X029614Y017770D01*
X029664Y017929D02*
X034824Y017929D01*
X034824Y018087D02*
X029664Y018087D01*
X029586Y018246D02*
X034902Y018246D01*
X035060Y018404D02*
X029427Y018404D01*
X028824Y017929D02*
X004238Y017929D01*
X004218Y017770D02*
X028873Y017770D01*
X029032Y017612D02*
X027922Y017612D01*
X027065Y017612D02*
X025726Y017612D01*
X025706Y017620D02*
X025623Y017642D01*
X025537Y017654D01*
X025514Y017654D01*
X025514Y017014D01*
X026154Y017014D01*
X026154Y017037D01*
X026142Y017123D01*
X026120Y017206D01*
X026087Y017286D01*
X026044Y017361D01*
X025991Y017430D01*
X025930Y017491D01*
X025861Y017544D01*
X025786Y017587D01*
X025706Y017620D01*
X025514Y017612D02*
X025474Y017612D01*
X025474Y017654D02*
X025450Y017654D01*
X025365Y017642D01*
X025281Y017620D01*
X025201Y017587D01*
X025126Y017544D01*
X025058Y017491D01*
X024996Y017430D01*
X024944Y017361D01*
X024900Y017286D01*
X024867Y017206D01*
X024845Y017123D01*
X024834Y017037D01*
X024834Y017014D01*
X025474Y017014D01*
X025474Y017654D01*
X025474Y017453D02*
X025514Y017453D01*
X025514Y017295D02*
X025474Y017295D01*
X025474Y017136D02*
X025514Y017136D01*
X025514Y017014D02*
X025474Y017014D01*
X025474Y016974D01*
X025514Y016974D01*
X025514Y017014D01*
X025514Y016978D02*
X026754Y016978D01*
X026754Y017136D02*
X026139Y017136D01*
X026154Y016974D02*
X025514Y016974D01*
X025514Y016334D01*
X025537Y016334D01*
X025623Y016345D01*
X025706Y016367D01*
X025786Y016400D01*
X025861Y016444D01*
X025930Y016496D01*
X025991Y016558D01*
X026044Y016626D01*
X026087Y016701D01*
X026120Y016781D01*
X026142Y016865D01*
X026154Y016950D01*
X026154Y016974D01*
X026130Y016819D02*
X026754Y016819D01*
X026780Y016661D02*
X026064Y016661D01*
X025936Y016502D02*
X026939Y016502D01*
X027097Y016344D02*
X025613Y016344D01*
X025514Y016344D02*
X025474Y016344D01*
X025474Y016334D02*
X025474Y016974D01*
X024834Y016974D01*
X024834Y016950D01*
X024845Y016865D01*
X024867Y016781D01*
X024900Y016701D01*
X024944Y016626D01*
X024996Y016558D01*
X025058Y016496D01*
X025126Y016444D01*
X025201Y016400D01*
X025281Y016367D01*
X025365Y016345D01*
X025450Y016334D01*
X025474Y016334D01*
X025374Y016344D02*
X015994Y016344D01*
X015994Y016287D02*
X015994Y016701D01*
X015701Y016994D01*
X015287Y016994D01*
X014994Y016701D01*
X014994Y016287D01*
X015287Y015994D01*
X015701Y015994D01*
X015994Y016287D01*
X015892Y016185D02*
X028744Y016185D01*
X028744Y016027D02*
X015734Y016027D01*
X015254Y016027D02*
X007234Y016027D01*
X007201Y015994D02*
X007494Y016287D01*
X007494Y016701D01*
X007201Y016994D01*
X006787Y016994D01*
X006494Y016701D01*
X006494Y016287D01*
X006787Y015994D01*
X007201Y015994D01*
X007392Y016185D02*
X015095Y016185D01*
X014994Y016344D02*
X007494Y016344D01*
X007494Y016502D02*
X014994Y016502D01*
X014994Y016661D02*
X007494Y016661D01*
X007375Y016819D02*
X015112Y016819D01*
X015271Y016978D02*
X007217Y016978D01*
X006771Y016978D02*
X000734Y016978D01*
X000734Y017136D02*
X024849Y017136D01*
X024905Y017295D02*
X003818Y017295D01*
X004034Y017453D02*
X025020Y017453D01*
X025261Y017612D02*
X004153Y017612D01*
X004105Y018404D02*
X015057Y018404D01*
X015056Y018563D02*
X003946Y018563D01*
X003881Y018880D02*
X015094Y018880D01*
X015094Y019038D02*
X004060Y019038D01*
X004125Y019103D02*
X004238Y019376D01*
X004238Y019671D01*
X004125Y019944D01*
X003916Y020152D01*
X003643Y020265D01*
X002344Y020265D01*
X002071Y020152D01*
X001863Y019944D01*
X001750Y019671D01*
X001750Y019376D01*
X001863Y019103D01*
X002071Y018894D01*
X002344Y018781D01*
X003643Y018781D01*
X003916Y018894D01*
X004125Y019103D01*
X004164Y019197D02*
X015094Y019197D01*
X015094Y019355D02*
X004229Y019355D01*
X004238Y019514D02*
X015094Y019514D01*
X015094Y019672D02*
X004237Y019672D01*
X004171Y019831D02*
X015094Y019831D01*
X015094Y019989D02*
X004079Y019989D01*
X003920Y020148D02*
X013543Y020148D01*
X013575Y020116D02*
X013847Y020004D01*
X014141Y020004D01*
X014413Y020116D01*
X014621Y020325D01*
X014734Y020597D01*
X014734Y020891D01*
X014621Y021163D01*
X014413Y021371D01*
X014141Y021484D01*
X013847Y021484D01*
X013575Y021371D01*
X013366Y021163D01*
X013254Y020891D01*
X013254Y020597D01*
X013366Y020325D01*
X013575Y020116D01*
X013385Y020306D02*
X000734Y020306D01*
X000734Y020148D02*
X002067Y020148D01*
X001908Y019989D02*
X000734Y019989D01*
X000734Y019831D02*
X001816Y019831D01*
X001750Y019672D02*
X000734Y019672D01*
X000734Y019514D02*
X001750Y019514D01*
X001758Y019355D02*
X000734Y019355D01*
X000734Y019197D02*
X001824Y019197D01*
X001927Y019038D02*
X000734Y019038D01*
X000734Y018880D02*
X002106Y018880D01*
X002041Y018563D02*
X000734Y018563D01*
X000734Y018721D02*
X015094Y018721D01*
X015122Y018246D02*
X015246Y018122D01*
X015407Y018056D01*
X015717Y016978D02*
X025474Y016978D01*
X025474Y016819D02*
X025514Y016819D01*
X025514Y016661D02*
X025474Y016661D01*
X025474Y016502D02*
X025514Y016502D01*
X025052Y016502D02*
X015994Y016502D01*
X015994Y016661D02*
X024924Y016661D01*
X024857Y016819D02*
X015875Y016819D01*
X016787Y014994D02*
X016494Y014701D01*
X016494Y014287D01*
X016787Y013994D01*
X017201Y013994D01*
X017494Y014287D01*
X017494Y014701D01*
X017201Y014994D01*
X016787Y014994D01*
X016710Y014917D02*
X008777Y014917D01*
X008701Y014994D02*
X008287Y014994D01*
X007994Y014701D01*
X007994Y014287D01*
X008287Y013994D01*
X008701Y013994D01*
X008994Y014287D01*
X008994Y014701D01*
X008701Y014994D01*
X008936Y014759D02*
X013665Y014759D01*
X013574Y014668D02*
X013574Y014494D01*
X013994Y014494D01*
X013994Y014494D01*
X013994Y014914D01*
X014168Y014914D01*
X014414Y014668D01*
X014414Y014494D01*
X013994Y014494D01*
X013994Y014494D01*
X013994Y014914D01*
X013820Y014914D01*
X013574Y014668D01*
X013574Y014600D02*
X008994Y014600D01*
X008994Y014442D02*
X013574Y014442D01*
X013574Y014494D02*
X013574Y014320D01*
X013820Y014074D01*
X013994Y014074D01*
X014168Y014074D01*
X014414Y014320D01*
X014414Y014494D01*
X013994Y014494D01*
X013994Y014494D01*
X013994Y014074D01*
X013994Y014494D01*
X013994Y014494D01*
X013574Y014494D01*
X013610Y014283D02*
X008990Y014283D01*
X008832Y014125D02*
X013769Y014125D01*
X013994Y014125D02*
X013994Y014125D01*
X013994Y014283D02*
X013994Y014283D01*
X013994Y014442D02*
X013994Y014442D01*
X013994Y014600D02*
X013994Y014600D01*
X013994Y014759D02*
X013994Y014759D01*
X014323Y014759D02*
X016552Y014759D01*
X016494Y014600D02*
X014414Y014600D01*
X014414Y014442D02*
X016494Y014442D01*
X016497Y014283D02*
X014377Y014283D01*
X014219Y014125D02*
X016656Y014125D01*
X017332Y014125D02*
X043769Y014125D01*
X043820Y014074D02*
X043574Y014320D01*
X043574Y014494D01*
X043994Y014494D01*
X043994Y014494D01*
X043994Y014914D01*
X044168Y014914D01*
X044414Y014668D01*
X044414Y014494D01*
X043994Y014494D01*
X043994Y014494D01*
X043994Y014914D01*
X043820Y014914D01*
X043574Y014668D01*
X043574Y014494D01*
X043994Y014494D01*
X044414Y014494D01*
X044414Y014320D01*
X044168Y014074D01*
X043994Y014074D01*
X043994Y014494D01*
X043994Y014494D01*
X043994Y014494D01*
X043994Y014074D01*
X043820Y014074D01*
X043994Y014125D02*
X043994Y014125D01*
X043994Y014283D02*
X043994Y014283D01*
X043994Y014442D02*
X043994Y014442D01*
X043994Y014600D02*
X043994Y014600D01*
X043994Y014759D02*
X043994Y014759D01*
X044323Y014759D02*
X046552Y014759D01*
X046494Y014701D02*
X046494Y014287D01*
X046787Y013994D01*
X047201Y013994D01*
X047494Y014287D01*
X047494Y014701D01*
X047201Y014994D01*
X046787Y014994D01*
X046494Y014701D01*
X046494Y014600D02*
X044414Y014600D01*
X044414Y014442D02*
X046494Y014442D01*
X046497Y014283D02*
X044377Y014283D01*
X044219Y014125D02*
X046656Y014125D01*
X047332Y014125D02*
X052269Y014125D01*
X052320Y014074D02*
X052074Y014320D01*
X052074Y014494D01*
X052494Y014494D01*
X052494Y014494D01*
X052494Y014914D01*
X052668Y014914D01*
X052914Y014668D01*
X052914Y014494D01*
X052494Y014494D01*
X052494Y014494D01*
X052494Y014914D01*
X052320Y014914D01*
X052074Y014668D01*
X052074Y014494D01*
X052494Y014494D01*
X052914Y014494D01*
X052914Y014320D01*
X052668Y014074D01*
X052494Y014074D01*
X052494Y014494D01*
X052494Y014494D01*
X052494Y014494D01*
X052494Y014074D01*
X052320Y014074D01*
X052494Y014125D02*
X052494Y014125D01*
X052494Y014283D02*
X052494Y014283D01*
X052494Y014442D02*
X052494Y014442D01*
X052494Y014600D02*
X052494Y014600D01*
X052494Y014759D02*
X052494Y014759D01*
X052823Y014759D02*
X055052Y014759D01*
X054994Y014701D02*
X054994Y014287D01*
X055287Y013994D01*
X055701Y013994D01*
X055994Y014287D01*
X055994Y014701D01*
X055701Y014994D01*
X055287Y014994D01*
X054994Y014701D01*
X054994Y014600D02*
X052914Y014600D01*
X052914Y014442D02*
X054994Y014442D01*
X054997Y014283D02*
X052877Y014283D01*
X052719Y014125D02*
X055156Y014125D01*
X055832Y014125D02*
X060254Y014125D01*
X060254Y014283D02*
X055990Y014283D01*
X055994Y014442D02*
X060254Y014442D01*
X060254Y014600D02*
X055994Y014600D01*
X055936Y014759D02*
X060254Y014759D01*
X060254Y014917D02*
X055777Y014917D01*
X055210Y014917D02*
X047277Y014917D01*
X047436Y014759D02*
X052165Y014759D01*
X052074Y014600D02*
X047494Y014600D01*
X047494Y014442D02*
X052074Y014442D01*
X052110Y014283D02*
X047490Y014283D01*
X046710Y014917D02*
X017277Y014917D01*
X017436Y014759D02*
X043665Y014759D01*
X043574Y014600D02*
X017494Y014600D01*
X017494Y014442D02*
X043574Y014442D01*
X043610Y014283D02*
X017490Y014283D01*
X017201Y012994D02*
X016787Y012994D01*
X016494Y012701D01*
X016494Y012287D01*
X016787Y011994D01*
X017201Y011994D01*
X017494Y012287D01*
X017494Y012701D01*
X017201Y012994D01*
X017338Y012857D02*
X026034Y012857D01*
X026034Y012974D02*
X026034Y012657D01*
X026045Y012586D01*
X026067Y012517D01*
X026100Y012453D01*
X026143Y012394D01*
X026194Y012343D01*
X026253Y012300D01*
X026317Y012267D01*
X026386Y012245D01*
X026457Y012234D01*
X026474Y012234D01*
X026474Y012974D01*
X026514Y012974D01*
X026514Y013014D01*
X026954Y013014D01*
X026954Y013330D01*
X026942Y013401D01*
X026920Y013470D01*
X026887Y013535D01*
X026845Y013593D01*
X026793Y013645D01*
X026735Y013687D01*
X026670Y013720D01*
X026601Y013742D01*
X026530Y013754D01*
X026514Y013754D01*
X026514Y013014D01*
X026474Y013014D01*
X026474Y013754D01*
X026457Y013754D01*
X026386Y013742D01*
X026317Y013720D01*
X026253Y013687D01*
X026194Y013645D01*
X026143Y013593D01*
X026100Y013535D01*
X026067Y013470D01*
X026045Y013401D01*
X026034Y013330D01*
X026034Y013014D01*
X026474Y013014D01*
X026474Y012974D01*
X026034Y012974D01*
X026034Y013015D02*
X000734Y013015D01*
X000734Y012857D02*
X005150Y012857D01*
X005287Y012994D02*
X004994Y012701D01*
X004994Y012287D01*
X005287Y011994D01*
X005701Y011994D01*
X005994Y012287D01*
X005994Y012701D01*
X005701Y012994D01*
X005287Y012994D01*
X004994Y012698D02*
X000734Y012698D01*
X000734Y012540D02*
X004994Y012540D01*
X004994Y012381D02*
X000734Y012381D01*
X000734Y012223D02*
X005058Y012223D01*
X005216Y012064D02*
X000734Y012064D01*
X000734Y011906D02*
X010199Y011906D01*
X010287Y011994D02*
X009994Y011701D01*
X009994Y011287D01*
X010287Y010994D01*
X010701Y010994D01*
X010994Y011287D01*
X010994Y011701D01*
X010701Y011994D01*
X010287Y011994D01*
X010040Y011747D02*
X008609Y011747D01*
X008593Y011754D02*
X008394Y011754D01*
X008210Y011678D01*
X008070Y011537D01*
X007994Y011353D01*
X007994Y010634D01*
X008070Y010450D01*
X008210Y010310D01*
X008394Y010234D01*
X008593Y010234D01*
X008777Y010310D01*
X008918Y010450D01*
X008994Y010634D01*
X008994Y011353D01*
X008918Y011537D01*
X008777Y011678D01*
X008593Y011754D01*
X008379Y011747D02*
X007609Y011747D01*
X007593Y011754D02*
X007394Y011754D01*
X007210Y011678D01*
X007070Y011537D01*
X006994Y011353D01*
X006994Y010634D01*
X007070Y010450D01*
X007210Y010310D01*
X007394Y010234D01*
X007593Y010234D01*
X007777Y010310D01*
X007918Y010450D01*
X007994Y010634D01*
X007994Y011353D01*
X007918Y011537D01*
X007777Y011678D01*
X007593Y011754D01*
X007379Y011747D02*
X006609Y011747D01*
X006593Y011754D02*
X006394Y011754D01*
X006210Y011678D01*
X006070Y011537D01*
X005994Y011353D01*
X005994Y010634D01*
X006070Y010450D01*
X006210Y010310D01*
X006394Y010234D01*
X006593Y010234D01*
X006777Y010310D01*
X006918Y010450D01*
X006994Y010634D01*
X006994Y011353D01*
X006918Y011537D01*
X006777Y011678D01*
X006593Y011754D01*
X006379Y011747D02*
X005609Y011747D01*
X005593Y011754D02*
X005394Y011754D01*
X005210Y011678D01*
X005070Y011537D01*
X004994Y011353D01*
X004994Y010634D01*
X005070Y010450D01*
X005210Y010310D01*
X005394Y010234D01*
X005593Y010234D01*
X005777Y010310D01*
X005918Y010450D01*
X005994Y010634D01*
X005994Y011353D01*
X005918Y011537D01*
X005777Y011678D01*
X005593Y011754D01*
X005379Y011747D02*
X000734Y011747D01*
X000734Y011589D02*
X005122Y011589D01*
X005026Y011430D02*
X000734Y011430D01*
X000734Y011272D02*
X004994Y011272D01*
X004994Y011113D02*
X000734Y011113D01*
X000734Y010955D02*
X004994Y010955D01*
X004994Y010796D02*
X000734Y010796D01*
X000734Y010638D02*
X004994Y010638D01*
X005058Y010479D02*
X000734Y010479D01*
X000734Y010321D02*
X005200Y010321D01*
X005788Y010321D02*
X006200Y010321D01*
X006058Y010479D02*
X005929Y010479D01*
X005994Y010638D02*
X005994Y010638D01*
X005994Y010796D02*
X005994Y010796D01*
X005994Y010955D02*
X005994Y010955D01*
X005994Y011113D02*
X005994Y011113D01*
X005994Y011272D02*
X005994Y011272D01*
X005962Y011430D02*
X006026Y011430D01*
X006122Y011589D02*
X005866Y011589D01*
X005771Y012064D02*
X006716Y012064D01*
X006787Y011994D02*
X007201Y011994D01*
X007494Y012287D01*
X007494Y012701D01*
X007201Y012994D01*
X006787Y012994D01*
X006494Y012701D01*
X006494Y012287D01*
X006787Y011994D01*
X006558Y012223D02*
X005930Y012223D01*
X005994Y012381D02*
X006494Y012381D01*
X006494Y012540D02*
X005994Y012540D01*
X005994Y012698D02*
X006494Y012698D01*
X006650Y012857D02*
X005838Y012857D01*
X005668Y014074D02*
X005914Y014320D01*
X005914Y014494D01*
X005914Y014668D01*
X005668Y014914D01*
X005494Y014914D01*
X005494Y014494D01*
X005494Y014494D01*
X005914Y014494D01*
X005494Y014494D01*
X005494Y014494D01*
X005494Y014914D01*
X005320Y014914D01*
X005074Y014668D01*
X005074Y014494D01*
X005494Y014494D01*
X005494Y014494D01*
X005494Y014074D01*
X005668Y014074D01*
X005719Y014125D02*
X008156Y014125D01*
X007997Y014283D02*
X005877Y014283D01*
X005914Y014442D02*
X007994Y014442D01*
X007994Y014600D02*
X005914Y014600D01*
X005823Y014759D02*
X008052Y014759D01*
X008210Y014917D02*
X000734Y014917D01*
X000734Y014759D02*
X005165Y014759D01*
X005074Y014600D02*
X000734Y014600D01*
X000734Y014442D02*
X005074Y014442D01*
X005074Y014494D02*
X005074Y014320D01*
X005320Y014074D01*
X005494Y014074D01*
X005494Y014494D01*
X005494Y014494D01*
X005074Y014494D01*
X005110Y014283D02*
X000734Y014283D01*
X000734Y014125D02*
X005269Y014125D01*
X005494Y014125D02*
X005494Y014125D01*
X005494Y014283D02*
X005494Y014283D01*
X005494Y014442D02*
X005494Y014442D01*
X005494Y014600D02*
X005494Y014600D01*
X005494Y014759D02*
X005494Y014759D01*
X006754Y016027D02*
X000734Y016027D01*
X000734Y016185D02*
X006595Y016185D01*
X006494Y016344D02*
X000734Y016344D01*
X000734Y016502D02*
X006494Y016502D01*
X006494Y016661D02*
X000734Y016661D01*
X000734Y016819D02*
X006612Y016819D01*
X007338Y012857D02*
X008150Y012857D01*
X008287Y012994D02*
X007994Y012701D01*
X007994Y012287D01*
X008287Y011994D01*
X008701Y011994D01*
X008994Y012287D01*
X008994Y012701D01*
X008701Y012994D01*
X008287Y012994D01*
X007994Y012698D02*
X007494Y012698D01*
X007494Y012540D02*
X007994Y012540D01*
X007994Y012381D02*
X007494Y012381D01*
X007430Y012223D02*
X008058Y012223D01*
X008216Y012064D02*
X007271Y012064D01*
X007122Y011589D02*
X006866Y011589D01*
X006962Y011430D02*
X007026Y011430D01*
X006994Y011272D02*
X006994Y011272D01*
X006994Y011113D02*
X006994Y011113D01*
X006994Y010955D02*
X006994Y010955D01*
X006994Y010796D02*
X006994Y010796D01*
X006994Y010638D02*
X006994Y010638D01*
X006929Y010479D02*
X007058Y010479D01*
X007200Y010321D02*
X006788Y010321D01*
X007788Y010321D02*
X008200Y010321D01*
X008058Y010479D02*
X007929Y010479D01*
X007994Y010638D02*
X007994Y010638D01*
X007994Y010796D02*
X007994Y010796D01*
X007994Y010955D02*
X007994Y010955D01*
X007994Y011113D02*
X007994Y011113D01*
X007994Y011272D02*
X007994Y011272D01*
X007962Y011430D02*
X008026Y011430D01*
X008122Y011589D02*
X007866Y011589D01*
X008866Y011589D02*
X009994Y011589D01*
X009994Y011430D02*
X008962Y011430D01*
X008994Y011272D02*
X010009Y011272D01*
X010167Y011113D02*
X008994Y011113D01*
X008994Y010955D02*
X013494Y010955D01*
X013494Y011113D02*
X012320Y011113D01*
X012201Y010994D02*
X012494Y011287D01*
X012494Y011701D01*
X012201Y011994D01*
X011787Y011994D01*
X011494Y011701D01*
X011494Y011287D01*
X011787Y010994D01*
X012201Y010994D01*
X012479Y011272D02*
X013494Y011272D01*
X013494Y011353D02*
X013570Y011537D01*
X013710Y011678D01*
X013894Y011754D01*
X014093Y011754D01*
X014277Y011678D01*
X014418Y011537D01*
X014494Y011353D01*
X014570Y011537D01*
X014710Y011678D01*
X014894Y011754D01*
X015093Y011754D01*
X015277Y011678D01*
X015418Y011537D01*
X015494Y011353D01*
X015570Y011537D01*
X015710Y011678D01*
X015894Y011754D01*
X016093Y011754D01*
X016277Y011678D01*
X016418Y011537D01*
X016494Y011353D01*
X016570Y011537D01*
X016710Y011678D01*
X016894Y011754D01*
X017093Y011754D01*
X017277Y011678D01*
X017418Y011537D01*
X017494Y011353D01*
X017494Y010634D01*
X017418Y010450D01*
X017277Y010310D01*
X017093Y010234D01*
X016894Y010234D01*
X016710Y010310D01*
X016570Y010450D01*
X016494Y010634D01*
X016494Y011353D01*
X016494Y010634D01*
X016418Y010450D01*
X016277Y010310D01*
X016093Y010234D01*
X015894Y010234D01*
X015710Y010310D01*
X015570Y010450D01*
X015494Y010634D01*
X015494Y011353D01*
X015494Y010634D01*
X015418Y010450D01*
X015277Y010310D01*
X015093Y010234D01*
X014894Y010234D01*
X014710Y010310D01*
X014570Y010450D01*
X014494Y010634D01*
X014494Y011353D01*
X014494Y010634D01*
X014418Y010450D01*
X014277Y010310D01*
X014093Y010234D01*
X013894Y010234D01*
X013710Y010310D01*
X013570Y010450D01*
X013494Y010634D01*
X013494Y011353D01*
X013526Y011430D02*
X012494Y011430D01*
X012494Y011589D02*
X013622Y011589D01*
X013879Y011747D02*
X012447Y011747D01*
X012289Y011906D02*
X018494Y011906D01*
X018494Y011787D02*
X018787Y011494D01*
X019201Y011494D01*
X019494Y011787D01*
X019494Y012201D01*
X019201Y012494D01*
X018787Y012494D01*
X018494Y012201D01*
X018494Y011787D01*
X018533Y011747D02*
X017109Y011747D01*
X016879Y011747D02*
X016109Y011747D01*
X015879Y011747D02*
X015109Y011747D01*
X014879Y011747D02*
X014109Y011747D01*
X014201Y011994D02*
X014494Y012287D01*
X014494Y012701D01*
X014201Y012994D01*
X013787Y012994D01*
X013494Y012701D01*
X013494Y012287D01*
X013787Y011994D01*
X014201Y011994D01*
X014271Y012064D02*
X015216Y012064D01*
X015287Y011994D02*
X014994Y012287D01*
X014994Y012701D01*
X015287Y012994D01*
X015701Y012994D01*
X015994Y012701D01*
X015994Y012287D01*
X015701Y011994D01*
X015287Y011994D01*
X015058Y012223D02*
X014430Y012223D01*
X014494Y012381D02*
X014994Y012381D01*
X014994Y012540D02*
X014494Y012540D01*
X014494Y012698D02*
X014994Y012698D01*
X015150Y012857D02*
X014338Y012857D01*
X013650Y012857D02*
X008838Y012857D01*
X008994Y012698D02*
X013494Y012698D01*
X013494Y012540D02*
X008994Y012540D01*
X008994Y012381D02*
X013494Y012381D01*
X013558Y012223D02*
X008930Y012223D01*
X008771Y012064D02*
X013716Y012064D01*
X014366Y011589D02*
X014622Y011589D01*
X014526Y011430D02*
X014462Y011430D01*
X014494Y011272D02*
X014494Y011272D01*
X014494Y011113D02*
X014494Y011113D01*
X014494Y010955D02*
X014494Y010955D01*
X014494Y010796D02*
X014494Y010796D01*
X014494Y010638D02*
X014494Y010638D01*
X014429Y010479D02*
X014558Y010479D01*
X014700Y010321D02*
X014288Y010321D01*
X013700Y010321D02*
X008788Y010321D01*
X008929Y010479D02*
X013558Y010479D01*
X013494Y010638D02*
X008994Y010638D01*
X008994Y010796D02*
X013494Y010796D01*
X011667Y011113D02*
X010820Y011113D01*
X010979Y011272D02*
X011509Y011272D01*
X011494Y011430D02*
X010994Y011430D01*
X010994Y011589D02*
X011494Y011589D01*
X011540Y011747D02*
X010947Y011747D01*
X010789Y011906D02*
X011699Y011906D01*
X015366Y011589D02*
X015622Y011589D01*
X015526Y011430D02*
X015462Y011430D01*
X015494Y011272D02*
X015494Y011272D01*
X015494Y011113D02*
X015494Y011113D01*
X015494Y010955D02*
X015494Y010955D01*
X015494Y010796D02*
X015494Y010796D01*
X015494Y010638D02*
X015494Y010638D01*
X015429Y010479D02*
X015558Y010479D01*
X015700Y010321D02*
X015288Y010321D01*
X016288Y010321D02*
X016700Y010321D01*
X016558Y010479D02*
X016429Y010479D01*
X016494Y010638D02*
X016494Y010638D01*
X016494Y010796D02*
X016494Y010796D01*
X016494Y010955D02*
X016494Y010955D01*
X016494Y011113D02*
X016494Y011113D01*
X016494Y011272D02*
X016494Y011272D01*
X016462Y011430D02*
X016526Y011430D01*
X016622Y011589D02*
X016366Y011589D01*
X016716Y012064D02*
X015771Y012064D01*
X015930Y012223D02*
X016558Y012223D01*
X016494Y012381D02*
X015994Y012381D01*
X015994Y012540D02*
X016494Y012540D01*
X016494Y012698D02*
X015994Y012698D01*
X015838Y012857D02*
X016650Y012857D01*
X017494Y012698D02*
X026034Y012698D01*
X026060Y012540D02*
X017494Y012540D01*
X017494Y012381D02*
X018674Y012381D01*
X018516Y012223D02*
X017430Y012223D01*
X017271Y012064D02*
X018494Y012064D01*
X018692Y011589D02*
X017366Y011589D01*
X017462Y011430D02*
X043526Y011430D01*
X043494Y011353D02*
X043570Y011537D01*
X043710Y011678D01*
X043894Y011754D01*
X044093Y011754D01*
X044277Y011678D01*
X044418Y011537D01*
X044494Y011353D01*
X044570Y011537D01*
X044710Y011678D01*
X044894Y011754D01*
X045093Y011754D01*
X045277Y011678D01*
X045418Y011537D01*
X045494Y011353D01*
X045570Y011537D01*
X045710Y011678D01*
X045894Y011754D01*
X046093Y011754D01*
X046277Y011678D01*
X046418Y011537D01*
X046494Y011353D01*
X046570Y011537D01*
X046710Y011678D01*
X046894Y011754D01*
X047093Y011754D01*
X047277Y011678D01*
X047418Y011537D01*
X047494Y011353D01*
X047494Y010634D01*
X047418Y010450D01*
X047277Y010310D01*
X047093Y010234D01*
X046894Y010234D01*
X046710Y010310D01*
X046570Y010450D01*
X046494Y010634D01*
X046494Y011353D01*
X046494Y010634D01*
X046418Y010450D01*
X046277Y010310D01*
X046093Y010234D01*
X045894Y010234D01*
X045710Y010310D01*
X045570Y010450D01*
X045494Y010634D01*
X045494Y011353D01*
X045494Y010634D01*
X045418Y010450D01*
X045277Y010310D01*
X045093Y010234D01*
X044894Y010234D01*
X044710Y010310D01*
X044570Y010450D01*
X044494Y010634D01*
X044494Y011353D01*
X044494Y010634D01*
X044418Y010450D01*
X044277Y010310D01*
X044093Y010234D01*
X043894Y010234D01*
X043710Y010310D01*
X043570Y010450D01*
X043494Y010634D01*
X043494Y011353D01*
X043494Y011272D02*
X017494Y011272D01*
X017494Y011113D02*
X043494Y011113D01*
X043494Y010955D02*
X017494Y010955D01*
X017494Y010796D02*
X043494Y010796D01*
X043494Y010638D02*
X032057Y010638D01*
X031951Y010744D02*
X032244Y010451D01*
X032244Y010037D01*
X031951Y009744D01*
X031537Y009744D01*
X031244Y010037D01*
X031244Y010451D01*
X031537Y010744D01*
X031951Y010744D01*
X032215Y010479D02*
X043558Y010479D01*
X043700Y010321D02*
X032244Y010321D01*
X032244Y010162D02*
X060254Y010162D01*
X060254Y010004D02*
X032211Y010004D01*
X032052Y009845D02*
X033049Y009845D01*
X033075Y009871D02*
X032866Y009663D01*
X032754Y009391D01*
X032754Y009097D01*
X032866Y008825D01*
X033075Y008616D01*
X033347Y008504D01*
X033641Y008504D01*
X033913Y008616D01*
X034121Y008825D01*
X034234Y009097D01*
X034234Y009391D01*
X034121Y009663D01*
X033913Y009871D01*
X033641Y009984D01*
X033347Y009984D01*
X033075Y009871D01*
X032890Y009687D02*
X028097Y009687D01*
X028234Y009550D02*
X027800Y009984D01*
X027187Y009984D01*
X026754Y009550D01*
X026754Y008937D01*
X027187Y008504D01*
X027800Y008504D01*
X028234Y008937D01*
X028234Y009550D01*
X028234Y009528D02*
X032811Y009528D01*
X032754Y009370D02*
X028234Y009370D01*
X028234Y009211D02*
X032754Y009211D01*
X032772Y009053D02*
X028234Y009053D01*
X028191Y008894D02*
X032837Y008894D01*
X032955Y008736D02*
X028032Y008736D01*
X027874Y008577D02*
X028983Y008577D01*
X029070Y008664D02*
X028824Y008418D01*
X028824Y008244D01*
X029244Y008244D01*
X029244Y008244D01*
X029244Y008664D01*
X029418Y008664D01*
X029664Y008418D01*
X029664Y008244D01*
X029244Y008244D01*
X029244Y008244D01*
X029244Y008664D01*
X029070Y008664D01*
X029244Y008577D02*
X029244Y008577D01*
X029244Y008419D02*
X029244Y008419D01*
X029244Y008260D02*
X029244Y008260D01*
X029244Y008244D02*
X029244Y008244D01*
X029664Y008244D01*
X029664Y008070D01*
X029418Y007824D01*
X029244Y007824D01*
X029244Y008244D01*
X029244Y008244D01*
X028824Y008244D01*
X028824Y008070D01*
X029070Y007824D01*
X029244Y007824D01*
X029244Y008244D01*
X029244Y008102D02*
X029244Y008102D01*
X029244Y007943D02*
X029244Y007943D01*
X029537Y007943D02*
X031450Y007943D01*
X031570Y007824D02*
X031324Y008070D01*
X031324Y008244D01*
X031744Y008244D01*
X031744Y008244D01*
X031744Y008664D01*
X031918Y008664D01*
X032164Y008418D01*
X032164Y008244D01*
X031744Y008244D01*
X031744Y008244D01*
X031744Y008664D01*
X031570Y008664D01*
X031324Y008418D01*
X031324Y008244D01*
X031744Y008244D01*
X032164Y008244D01*
X032164Y008070D01*
X031918Y007824D01*
X031744Y007824D01*
X031744Y008244D01*
X031744Y008244D01*
X031744Y008244D01*
X031744Y007824D01*
X031570Y007824D01*
X031744Y007943D02*
X031744Y007943D01*
X031744Y008102D02*
X031744Y008102D01*
X031744Y008260D02*
X031744Y008260D01*
X031744Y008419D02*
X031744Y008419D01*
X031744Y008577D02*
X031744Y008577D01*
X032004Y008577D02*
X033169Y008577D01*
X033818Y008577D02*
X043610Y008577D01*
X043570Y008537D02*
X043494Y008353D01*
X043494Y007634D01*
X043570Y007450D01*
X043710Y007310D01*
X043894Y007234D01*
X044093Y007234D01*
X044277Y007310D01*
X044418Y007450D01*
X044494Y007634D01*
X044570Y007450D01*
X044710Y007310D01*
X044894Y007234D01*
X045093Y007234D01*
X045277Y007310D01*
X045418Y007450D01*
X045494Y007634D01*
X045494Y008353D01*
X045418Y008537D01*
X045277Y008678D01*
X045093Y008754D01*
X044894Y008754D01*
X044710Y008678D01*
X044570Y008537D01*
X044494Y008353D01*
X044494Y007634D01*
X044494Y008353D01*
X044418Y008537D01*
X044277Y008678D01*
X044093Y008754D01*
X043894Y008754D01*
X043710Y008678D01*
X043570Y008537D01*
X043521Y008419D02*
X032163Y008419D01*
X032164Y008260D02*
X043494Y008260D01*
X043494Y008102D02*
X032164Y008102D01*
X032037Y007943D02*
X043494Y007943D01*
X043494Y007785D02*
X019492Y007785D01*
X019494Y007787D02*
X019201Y007494D01*
X018787Y007494D01*
X018494Y007787D01*
X018494Y008201D01*
X018787Y008494D01*
X019201Y008494D01*
X019494Y008201D01*
X019494Y007787D01*
X019494Y007943D02*
X028950Y007943D01*
X028824Y008102D02*
X019494Y008102D01*
X019434Y008260D02*
X028824Y008260D01*
X028825Y008419D02*
X019276Y008419D01*
X018712Y008419D02*
X017467Y008419D01*
X017494Y008353D02*
X017418Y008537D01*
X017277Y008678D01*
X017093Y008754D01*
X016894Y008754D01*
X016710Y008678D01*
X016570Y008537D01*
X016494Y008353D01*
X016494Y007634D01*
X016570Y007450D01*
X016594Y007427D01*
X016594Y006301D01*
X016494Y006201D01*
X016494Y005787D01*
X016787Y005494D01*
X017201Y005494D01*
X017494Y005787D01*
X017494Y006201D01*
X017394Y006301D01*
X017394Y007427D01*
X017418Y007450D01*
X017494Y007634D01*
X017494Y008353D01*
X017494Y008260D02*
X018553Y008260D01*
X018494Y008102D02*
X017494Y008102D01*
X017494Y007943D02*
X018494Y007943D01*
X018496Y007785D02*
X017494Y007785D01*
X017490Y007626D02*
X018654Y007626D01*
X019333Y007626D02*
X043497Y007626D01*
X043563Y007468D02*
X017425Y007468D01*
X017394Y007309D02*
X023465Y007309D01*
X023570Y007414D02*
X023324Y007168D01*
X023324Y006994D01*
X023744Y006994D01*
X023744Y006994D01*
X023744Y007414D01*
X023918Y007414D01*
X024164Y007168D01*
X024164Y006994D01*
X023744Y006994D01*
X023744Y006994D01*
X023744Y007414D01*
X023570Y007414D01*
X023744Y007309D02*
X023744Y007309D01*
X023744Y007151D02*
X023744Y007151D01*
X023744Y006994D02*
X023744Y006994D01*
X024164Y006994D01*
X024164Y006820D01*
X023918Y006574D01*
X023744Y006574D01*
X023744Y006994D01*
X023744Y006994D01*
X023324Y006994D01*
X023324Y006820D01*
X023570Y006574D01*
X023744Y006574D01*
X023744Y006994D01*
X023744Y006992D02*
X023744Y006992D01*
X023744Y006834D02*
X023744Y006834D01*
X023744Y006675D02*
X023744Y006675D01*
X024019Y006675D02*
X055094Y006675D01*
X055094Y006517D02*
X017394Y006517D01*
X017394Y006675D02*
X023468Y006675D01*
X023324Y006834D02*
X017394Y006834D01*
X017394Y006992D02*
X023324Y006992D01*
X023324Y007151D02*
X017394Y007151D01*
X016594Y007151D02*
X012358Y007151D01*
X012494Y007287D02*
X012201Y006994D01*
X011787Y006994D01*
X011494Y007287D01*
X011494Y007701D01*
X011787Y007994D01*
X012201Y007994D01*
X012494Y007701D01*
X012494Y007287D01*
X012494Y007309D02*
X013712Y007309D01*
X013710Y007310D02*
X013894Y007234D01*
X014093Y007234D01*
X014277Y007310D01*
X014418Y007450D01*
X014494Y007634D01*
X014570Y007450D01*
X014710Y007310D01*
X014894Y007234D01*
X015093Y007234D01*
X015277Y007310D01*
X015418Y007450D01*
X015494Y007634D01*
X015570Y007450D01*
X015710Y007310D01*
X015894Y007234D01*
X016093Y007234D01*
X016277Y007310D01*
X016418Y007450D01*
X016494Y007634D01*
X016494Y008353D01*
X016418Y008537D01*
X016277Y008678D01*
X016093Y008754D01*
X015894Y008754D01*
X015710Y008678D01*
X015570Y008537D01*
X015494Y008353D01*
X015494Y007634D01*
X015494Y008353D01*
X015418Y008537D01*
X015277Y008678D01*
X015093Y008754D01*
X014894Y008754D01*
X014710Y008678D01*
X014570Y008537D01*
X014494Y008353D01*
X014494Y007634D01*
X014494Y008353D01*
X014418Y008537D01*
X014277Y008678D01*
X014093Y008754D01*
X013894Y008754D01*
X013710Y008678D01*
X013570Y008537D01*
X013494Y008353D01*
X013494Y007634D01*
X013570Y007450D01*
X013710Y007310D01*
X013563Y007468D02*
X012494Y007468D01*
X012494Y007626D02*
X013497Y007626D01*
X013494Y007785D02*
X012410Y007785D01*
X012251Y007943D02*
X013494Y007943D01*
X013494Y008102D02*
X008994Y008102D01*
X008994Y008260D02*
X013494Y008260D01*
X013521Y008419D02*
X008967Y008419D01*
X008994Y008353D02*
X008918Y008537D01*
X008777Y008678D01*
X008593Y008754D01*
X008394Y008754D01*
X008210Y008678D01*
X008070Y008537D01*
X007994Y008353D01*
X007994Y007634D01*
X008070Y007450D01*
X008210Y007310D01*
X008394Y007234D01*
X008593Y007234D01*
X008777Y007310D01*
X008918Y007450D01*
X008994Y007634D01*
X008994Y008353D01*
X008877Y008577D02*
X013610Y008577D01*
X013851Y008736D02*
X008637Y008736D01*
X008351Y008736D02*
X006637Y008736D01*
X006593Y008754D02*
X006394Y008754D01*
X006210Y008678D01*
X006070Y008537D01*
X005994Y008353D01*
X005994Y007634D01*
X006070Y007450D01*
X006210Y007310D01*
X006394Y007234D01*
X006593Y007234D01*
X006777Y007310D01*
X006918Y007450D01*
X006994Y007634D01*
X006994Y008353D01*
X006918Y008537D01*
X006777Y008678D01*
X006593Y008754D01*
X006351Y008736D02*
X005637Y008736D01*
X005593Y008754D02*
X005394Y008754D01*
X005210Y008678D01*
X005070Y008537D01*
X004994Y008353D01*
X004994Y007634D01*
X005070Y007450D01*
X005210Y007310D01*
X005394Y007234D01*
X005593Y007234D01*
X005777Y007310D01*
X005918Y007450D01*
X005994Y007634D01*
X005994Y008353D01*
X005918Y008537D01*
X005777Y008678D01*
X005593Y008754D01*
X005351Y008736D02*
X000734Y008736D01*
X000734Y008894D02*
X024933Y008894D01*
X024944Y008876D02*
X024996Y008808D01*
X025058Y008746D01*
X025126Y008694D01*
X025201Y008650D01*
X025281Y008617D01*
X025365Y008595D01*
X025450Y008584D01*
X025474Y008584D01*
X025474Y009224D01*
X025514Y009224D01*
X025514Y009264D01*
X026154Y009264D01*
X026154Y009287D01*
X026142Y009373D01*
X026120Y009456D01*
X026087Y009536D01*
X026044Y009611D01*
X025991Y009680D01*
X025930Y009741D01*
X025861Y009794D01*
X025786Y009837D01*
X025706Y009870D01*
X025623Y009892D01*
X025537Y009904D01*
X025514Y009904D01*
X025514Y009264D01*
X025474Y009264D01*
X025474Y009904D01*
X025450Y009904D01*
X025365Y009892D01*
X025281Y009870D01*
X025201Y009837D01*
X025126Y009794D01*
X025058Y009741D01*
X024996Y009680D01*
X024944Y009611D01*
X024900Y009536D01*
X024867Y009456D01*
X024845Y009373D01*
X024834Y009287D01*
X024834Y009264D01*
X025474Y009264D01*
X025474Y009224D01*
X024834Y009224D01*
X024834Y009200D01*
X024845Y009115D01*
X024867Y009031D01*
X024900Y008951D01*
X024944Y008876D01*
X025072Y008736D02*
X017137Y008736D01*
X016851Y008736D02*
X016137Y008736D01*
X015851Y008736D02*
X015137Y008736D01*
X014851Y008736D02*
X014137Y008736D01*
X014377Y008577D02*
X014610Y008577D01*
X014521Y008419D02*
X014467Y008419D01*
X014494Y008260D02*
X014494Y008260D01*
X014494Y008102D02*
X014494Y008102D01*
X014494Y007943D02*
X014494Y007943D01*
X014494Y007785D02*
X014494Y007785D01*
X014490Y007626D02*
X014497Y007626D01*
X014563Y007468D02*
X014425Y007468D01*
X014275Y007309D02*
X014712Y007309D01*
X015275Y007309D02*
X015712Y007309D01*
X015563Y007468D02*
X015425Y007468D01*
X015490Y007626D02*
X015497Y007626D01*
X015494Y007785D02*
X015494Y007785D01*
X015494Y007943D02*
X015494Y007943D01*
X015494Y008102D02*
X015494Y008102D01*
X015494Y008260D02*
X015494Y008260D01*
X015467Y008419D02*
X015521Y008419D01*
X015610Y008577D02*
X015377Y008577D01*
X016377Y008577D02*
X016610Y008577D01*
X016521Y008419D02*
X016467Y008419D01*
X016494Y008260D02*
X016494Y008260D01*
X016494Y008102D02*
X016494Y008102D01*
X016494Y007943D02*
X016494Y007943D01*
X016494Y007785D02*
X016494Y007785D01*
X016490Y007626D02*
X016497Y007626D01*
X016563Y007468D02*
X016425Y007468D01*
X016275Y007309D02*
X016594Y007309D01*
X016594Y006992D02*
X000734Y006992D01*
X000734Y006834D02*
X016594Y006834D01*
X016594Y006675D02*
X000734Y006675D01*
X000734Y006517D02*
X016594Y006517D01*
X016594Y006358D02*
X015223Y006358D01*
X015168Y006414D02*
X014994Y006414D01*
X014994Y005994D01*
X015414Y005994D01*
X015414Y006168D01*
X015168Y006414D01*
X014994Y006414D02*
X014820Y006414D01*
X014574Y006168D01*
X014574Y005994D01*
X014994Y005994D01*
X014994Y005994D01*
X014994Y005994D01*
X015414Y005994D01*
X015414Y005820D01*
X015168Y005574D01*
X014994Y005574D01*
X014994Y005994D01*
X014994Y006414D01*
X014994Y006358D02*
X014994Y006358D01*
X014994Y006200D02*
X014994Y006200D01*
X014994Y006041D02*
X014994Y006041D01*
X014994Y005994D02*
X014994Y005994D01*
X014994Y005994D01*
X014994Y005574D01*
X014820Y005574D01*
X014574Y005820D01*
X014574Y005994D01*
X014994Y005994D01*
X014994Y005883D02*
X014994Y005883D01*
X014994Y005724D02*
X014994Y005724D01*
X015318Y005724D02*
X016556Y005724D01*
X016494Y005883D02*
X015414Y005883D01*
X015414Y006041D02*
X016494Y006041D01*
X016494Y006200D02*
X015382Y006200D01*
X014764Y006358D02*
X008836Y006358D01*
X008701Y006494D02*
X008287Y006494D01*
X007994Y006201D01*
X007994Y005787D01*
X008287Y005494D01*
X008701Y005494D01*
X008994Y005787D01*
X008994Y006201D01*
X008701Y006494D01*
X008994Y006200D02*
X014606Y006200D01*
X014574Y006041D02*
X008994Y006041D01*
X008994Y005883D02*
X014574Y005883D01*
X014669Y005724D02*
X008931Y005724D01*
X008773Y005566D02*
X016715Y005566D01*
X017273Y005566D02*
X046715Y005566D01*
X046787Y005494D02*
X047201Y005494D01*
X047494Y005787D01*
X047494Y006201D01*
X047201Y006494D01*
X046787Y006494D01*
X046494Y006201D01*
X046494Y005787D01*
X046787Y005494D01*
X046556Y005724D02*
X045318Y005724D01*
X045414Y005820D02*
X045414Y005994D01*
X045414Y006168D01*
X045168Y006414D01*
X044994Y006414D01*
X044994Y005994D01*
X045414Y005994D01*
X044994Y005994D01*
X044994Y005994D01*
X044994Y005994D01*
X044994Y006414D01*
X044820Y006414D01*
X044574Y006168D01*
X044574Y005994D01*
X044994Y005994D01*
X044994Y005574D01*
X045168Y005574D01*
X045414Y005820D01*
X045414Y005883D02*
X046494Y005883D01*
X046494Y006041D02*
X045414Y006041D01*
X045382Y006200D02*
X046494Y006200D01*
X046651Y006358D02*
X045223Y006358D01*
X044994Y006358D02*
X044994Y006358D01*
X044994Y006200D02*
X044994Y006200D01*
X044994Y006041D02*
X044994Y006041D01*
X044994Y005994D02*
X044994Y005994D01*
X044994Y005994D01*
X044994Y005574D01*
X044820Y005574D01*
X044574Y005820D01*
X044574Y005994D01*
X044994Y005994D01*
X044994Y005883D02*
X044994Y005883D01*
X044994Y005724D02*
X044994Y005724D01*
X044669Y005724D02*
X017431Y005724D01*
X017494Y005883D02*
X044574Y005883D01*
X044574Y006041D02*
X017494Y006041D01*
X017494Y006200D02*
X044606Y006200D01*
X044764Y006358D02*
X017394Y006358D01*
X017377Y008577D02*
X027114Y008577D01*
X026955Y008736D02*
X025916Y008736D01*
X025930Y008746D02*
X025991Y008808D01*
X026044Y008876D01*
X026087Y008951D01*
X026120Y009031D01*
X026142Y009115D01*
X026154Y009200D01*
X026154Y009224D01*
X025514Y009224D01*
X025514Y008584D01*
X025537Y008584D01*
X025623Y008595D01*
X025706Y008617D01*
X025786Y008650D01*
X025861Y008694D01*
X025930Y008746D01*
X026054Y008894D02*
X026797Y008894D01*
X026754Y009053D02*
X026126Y009053D01*
X026154Y009211D02*
X026754Y009211D01*
X026754Y009370D02*
X026143Y009370D01*
X026090Y009528D02*
X026754Y009528D01*
X026890Y009687D02*
X025984Y009687D01*
X025766Y009845D02*
X027049Y009845D01*
X027939Y009845D02*
X028935Y009845D01*
X029037Y009744D02*
X029451Y009744D01*
X029744Y010037D01*
X029744Y010451D01*
X029451Y010744D01*
X029037Y010744D01*
X028744Y010451D01*
X028744Y010037D01*
X029037Y009744D01*
X028777Y010004D02*
X000734Y010004D01*
X000734Y010162D02*
X028744Y010162D01*
X028744Y010321D02*
X017288Y010321D01*
X017429Y010479D02*
X028772Y010479D01*
X028931Y010638D02*
X017494Y010638D01*
X019296Y011589D02*
X043622Y011589D01*
X043879Y011747D02*
X019454Y011747D01*
X019494Y011906D02*
X048699Y011906D01*
X048787Y011994D02*
X048494Y011701D01*
X048494Y011287D01*
X048787Y010994D01*
X049201Y010994D01*
X049494Y011287D01*
X049494Y011701D01*
X049201Y011994D01*
X048787Y011994D01*
X048540Y011747D02*
X047109Y011747D01*
X046879Y011747D02*
X046109Y011747D01*
X045879Y011747D02*
X045109Y011747D01*
X044879Y011747D02*
X044109Y011747D01*
X044201Y011994D02*
X044494Y012287D01*
X044494Y012701D01*
X044201Y012994D01*
X043787Y012994D01*
X043494Y012701D01*
X043494Y012287D01*
X043787Y011994D01*
X044201Y011994D01*
X044271Y012064D02*
X045216Y012064D01*
X045287Y011994D02*
X045701Y011994D01*
X045994Y012287D01*
X045994Y012701D01*
X045701Y012994D01*
X045287Y012994D01*
X044994Y012701D01*
X044994Y012287D01*
X045287Y011994D01*
X045058Y012223D02*
X044430Y012223D01*
X044494Y012381D02*
X044994Y012381D01*
X044994Y012540D02*
X044494Y012540D01*
X044494Y012698D02*
X044994Y012698D01*
X045150Y012857D02*
X044338Y012857D01*
X043650Y012857D02*
X035034Y012857D01*
X035034Y013015D02*
X060254Y013015D01*
X060254Y012857D02*
X055838Y012857D01*
X055701Y012994D02*
X055287Y012994D01*
X054994Y012701D01*
X054994Y012287D01*
X055287Y011994D01*
X055701Y011994D01*
X055994Y012287D01*
X055994Y012701D01*
X055701Y012994D01*
X055994Y012698D02*
X060254Y012698D01*
X060254Y012540D02*
X055994Y012540D01*
X055994Y012381D02*
X057174Y012381D01*
X057287Y012494D02*
X056994Y012201D01*
X056994Y011787D01*
X057287Y011494D01*
X057701Y011494D01*
X057994Y011787D01*
X057994Y012201D01*
X057701Y012494D01*
X057287Y012494D01*
X057016Y012223D02*
X055930Y012223D01*
X055771Y012064D02*
X056994Y012064D01*
X056994Y011906D02*
X050789Y011906D01*
X050701Y011994D02*
X050287Y011994D01*
X049994Y011701D01*
X049994Y011287D01*
X050287Y010994D01*
X050701Y010994D01*
X050994Y011287D01*
X050994Y011701D01*
X050701Y011994D01*
X050947Y011747D02*
X052379Y011747D01*
X052394Y011754D02*
X052210Y011678D01*
X052070Y011537D01*
X051994Y011353D01*
X051994Y010634D01*
X052070Y010450D01*
X052210Y010310D01*
X052394Y010234D01*
X052593Y010234D01*
X052777Y010310D01*
X052918Y010450D01*
X052994Y010634D01*
X053070Y010450D01*
X053210Y010310D01*
X053394Y010234D01*
X053593Y010234D01*
X053777Y010310D01*
X053918Y010450D01*
X053994Y010634D01*
X054070Y010450D01*
X054210Y010310D01*
X054394Y010234D01*
X054593Y010234D01*
X054777Y010310D01*
X054918Y010450D01*
X054994Y010634D01*
X055070Y010450D01*
X055210Y010310D01*
X055394Y010234D01*
X055593Y010234D01*
X055777Y010310D01*
X055918Y010450D01*
X055994Y010634D01*
X055994Y011353D01*
X055918Y011537D01*
X055777Y011678D01*
X055593Y011754D01*
X055394Y011754D01*
X055210Y011678D01*
X055070Y011537D01*
X054994Y011353D01*
X054994Y010634D01*
X054994Y011353D01*
X054918Y011537D01*
X054777Y011678D01*
X054593Y011754D01*
X054394Y011754D01*
X054210Y011678D01*
X054070Y011537D01*
X053994Y011353D01*
X053994Y010634D01*
X053994Y011353D01*
X053918Y011537D01*
X053777Y011678D01*
X053593Y011754D01*
X053394Y011754D01*
X053210Y011678D01*
X053070Y011537D01*
X052994Y011353D01*
X052994Y010634D01*
X052994Y011353D01*
X052918Y011537D01*
X052777Y011678D01*
X052593Y011754D01*
X052394Y011754D01*
X052609Y011747D02*
X053379Y011747D01*
X053609Y011747D02*
X054379Y011747D01*
X054609Y011747D02*
X055379Y011747D01*
X055609Y011747D02*
X057033Y011747D01*
X057192Y011589D02*
X055866Y011589D01*
X055962Y011430D02*
X060254Y011430D01*
X060254Y011272D02*
X055994Y011272D01*
X055994Y011113D02*
X060254Y011113D01*
X060254Y010955D02*
X055994Y010955D01*
X055994Y010796D02*
X060254Y010796D01*
X060254Y010638D02*
X055994Y010638D01*
X055929Y010479D02*
X060254Y010479D01*
X060254Y010321D02*
X055788Y010321D01*
X055200Y010321D02*
X054788Y010321D01*
X054929Y010479D02*
X055058Y010479D01*
X054994Y010638D02*
X054994Y010638D01*
X054994Y010796D02*
X054994Y010796D01*
X054994Y010955D02*
X054994Y010955D01*
X054994Y011113D02*
X054994Y011113D01*
X054994Y011272D02*
X054994Y011272D01*
X054962Y011430D02*
X055026Y011430D01*
X055122Y011589D02*
X054866Y011589D01*
X055216Y012064D02*
X054271Y012064D01*
X054201Y011994D02*
X054494Y012287D01*
X054494Y012701D01*
X054201Y012994D01*
X053787Y012994D01*
X053494Y012701D01*
X053494Y012287D01*
X053787Y011994D01*
X054201Y011994D01*
X054430Y012223D02*
X055058Y012223D01*
X054994Y012381D02*
X054494Y012381D01*
X054494Y012540D02*
X054994Y012540D01*
X054994Y012698D02*
X054494Y012698D01*
X054338Y012857D02*
X055150Y012857D01*
X053716Y012064D02*
X052771Y012064D01*
X052701Y011994D02*
X052994Y012287D01*
X052994Y012701D01*
X052701Y012994D01*
X052287Y012994D01*
X051994Y012701D01*
X051994Y012287D01*
X052287Y011994D01*
X052701Y011994D01*
X052930Y012223D02*
X053558Y012223D01*
X053494Y012381D02*
X052994Y012381D01*
X052994Y012540D02*
X053494Y012540D01*
X053494Y012698D02*
X052994Y012698D01*
X052838Y012857D02*
X053650Y012857D01*
X052150Y012857D02*
X047338Y012857D01*
X047201Y012994D02*
X046787Y012994D01*
X046494Y012701D01*
X046494Y012287D01*
X046787Y011994D01*
X047201Y011994D01*
X047494Y012287D01*
X047494Y012701D01*
X047201Y012994D01*
X047494Y012698D02*
X051994Y012698D01*
X051994Y012540D02*
X047494Y012540D01*
X047494Y012381D02*
X051994Y012381D01*
X052058Y012223D02*
X047430Y012223D01*
X047271Y012064D02*
X052216Y012064D01*
X052122Y011589D02*
X050994Y011589D01*
X050994Y011430D02*
X052026Y011430D01*
X051994Y011272D02*
X050979Y011272D01*
X050820Y011113D02*
X051994Y011113D01*
X051994Y010955D02*
X047494Y010955D01*
X047494Y011113D02*
X048667Y011113D01*
X048509Y011272D02*
X047494Y011272D01*
X047462Y011430D02*
X048494Y011430D01*
X048494Y011589D02*
X047366Y011589D01*
X046622Y011589D02*
X046366Y011589D01*
X046462Y011430D02*
X046526Y011430D01*
X046494Y011272D02*
X046494Y011272D01*
X046494Y011113D02*
X046494Y011113D01*
X046494Y010955D02*
X046494Y010955D01*
X046494Y010796D02*
X046494Y010796D01*
X046494Y010638D02*
X046494Y010638D01*
X046429Y010479D02*
X046558Y010479D01*
X046700Y010321D02*
X046288Y010321D01*
X045700Y010321D02*
X045288Y010321D01*
X045429Y010479D02*
X045558Y010479D01*
X045494Y010638D02*
X045494Y010638D01*
X045494Y010796D02*
X045494Y010796D01*
X045494Y010955D02*
X045494Y010955D01*
X045494Y011113D02*
X045494Y011113D01*
X045494Y011272D02*
X045494Y011272D01*
X045462Y011430D02*
X045526Y011430D01*
X045622Y011589D02*
X045366Y011589D01*
X045771Y012064D02*
X046716Y012064D01*
X046558Y012223D02*
X045930Y012223D01*
X045994Y012381D02*
X046494Y012381D01*
X046494Y012540D02*
X045994Y012540D01*
X045994Y012698D02*
X046494Y012698D01*
X046650Y012857D02*
X045838Y012857D01*
X044622Y011589D02*
X044366Y011589D01*
X044462Y011430D02*
X044526Y011430D01*
X044494Y011272D02*
X044494Y011272D01*
X044494Y011113D02*
X044494Y011113D01*
X044494Y010955D02*
X044494Y010955D01*
X044494Y010796D02*
X044494Y010796D01*
X044494Y010638D02*
X044494Y010638D01*
X044429Y010479D02*
X044558Y010479D01*
X044700Y010321D02*
X044288Y010321D01*
X044137Y008736D02*
X044851Y008736D01*
X045137Y008736D02*
X046851Y008736D01*
X046894Y008754D02*
X046710Y008678D01*
X046570Y008537D01*
X046494Y008353D01*
X046494Y007634D01*
X046570Y007450D01*
X046710Y007310D01*
X046894Y007234D01*
X047093Y007234D01*
X047277Y007310D01*
X047418Y007450D01*
X047494Y007634D01*
X047494Y008353D01*
X047418Y008537D01*
X047277Y008678D01*
X047093Y008754D01*
X046894Y008754D01*
X047137Y008736D02*
X052351Y008736D01*
X052394Y008754D02*
X052210Y008678D01*
X052070Y008537D01*
X051994Y008353D01*
X051994Y007634D01*
X052070Y007450D01*
X052210Y007310D01*
X052394Y007234D01*
X052593Y007234D01*
X052777Y007310D01*
X052918Y007450D01*
X052994Y007634D01*
X053070Y007450D01*
X053210Y007310D01*
X053394Y007234D01*
X053593Y007234D01*
X053777Y007310D01*
X053918Y007450D01*
X053994Y007634D01*
X054070Y007450D01*
X054210Y007310D01*
X054394Y007234D01*
X054593Y007234D01*
X054777Y007310D01*
X054918Y007450D01*
X054994Y007634D01*
X055070Y007450D01*
X055094Y007427D01*
X055094Y006301D01*
X054994Y006201D01*
X054994Y005787D01*
X055287Y005494D01*
X055701Y005494D01*
X055994Y005787D01*
X055994Y006201D01*
X055894Y006301D01*
X055894Y007427D01*
X055918Y007450D01*
X055994Y007634D01*
X055994Y008353D01*
X055918Y008537D01*
X055777Y008678D01*
X055593Y008754D01*
X055394Y008754D01*
X055210Y008678D01*
X055070Y008537D01*
X054994Y008353D01*
X054994Y007634D01*
X054994Y008353D01*
X054918Y008537D01*
X054777Y008678D01*
X054593Y008754D01*
X054394Y008754D01*
X054210Y008678D01*
X054070Y008537D01*
X053994Y008353D01*
X053994Y007634D01*
X053994Y008353D01*
X053918Y008537D01*
X053777Y008678D01*
X053593Y008754D01*
X053394Y008754D01*
X053210Y008678D01*
X053070Y008537D01*
X052994Y008353D01*
X052994Y007634D01*
X052994Y008353D01*
X052918Y008537D01*
X052777Y008678D01*
X052593Y008754D01*
X052394Y008754D01*
X052637Y008736D02*
X053351Y008736D01*
X053637Y008736D02*
X054351Y008736D01*
X054637Y008736D02*
X055351Y008736D01*
X055637Y008736D02*
X060254Y008736D01*
X060254Y008894D02*
X036078Y008894D01*
X036154Y008970D02*
X036154Y009224D01*
X035514Y009224D01*
X035514Y009264D01*
X036154Y009264D01*
X036154Y009517D01*
X035767Y009904D01*
X035514Y009904D01*
X035514Y009264D01*
X035474Y009264D01*
X035474Y009904D01*
X035220Y009904D01*
X034834Y009517D01*
X034834Y009264D01*
X035474Y009264D01*
X035474Y009224D01*
X035514Y009224D01*
X035514Y008584D01*
X035767Y008584D01*
X036154Y008970D01*
X036154Y009053D02*
X060254Y009053D01*
X060254Y009211D02*
X036154Y009211D01*
X036154Y009370D02*
X060254Y009370D01*
X060254Y009528D02*
X036143Y009528D01*
X035984Y009687D02*
X060254Y009687D01*
X060254Y009845D02*
X035826Y009845D01*
X035514Y009845D02*
X035474Y009845D01*
X035474Y009687D02*
X035514Y009687D01*
X035514Y009528D02*
X035474Y009528D01*
X035474Y009370D02*
X035514Y009370D01*
X035474Y009224D02*
X034834Y009224D01*
X034834Y008970D01*
X035220Y008584D01*
X035474Y008584D01*
X035474Y009224D01*
X035474Y009211D02*
X035514Y009211D01*
X035514Y009053D02*
X035474Y009053D01*
X035474Y008894D02*
X035514Y008894D01*
X035514Y008736D02*
X035474Y008736D01*
X035068Y008736D02*
X034032Y008736D01*
X034150Y008894D02*
X034910Y008894D01*
X034834Y009053D02*
X034216Y009053D01*
X034234Y009211D02*
X034834Y009211D01*
X034834Y009370D02*
X034234Y009370D01*
X034177Y009528D02*
X034845Y009528D01*
X035003Y009687D02*
X034097Y009687D01*
X033939Y009845D02*
X035162Y009845D01*
X035919Y008736D02*
X043851Y008736D01*
X044377Y008577D02*
X044610Y008577D01*
X044521Y008419D02*
X044467Y008419D01*
X044494Y008260D02*
X044494Y008260D01*
X044494Y008102D02*
X044494Y008102D01*
X044494Y007943D02*
X044494Y007943D01*
X044494Y007785D02*
X044494Y007785D01*
X044490Y007626D02*
X044497Y007626D01*
X044563Y007468D02*
X044425Y007468D01*
X044275Y007309D02*
X044712Y007309D01*
X045275Y007309D02*
X046712Y007309D01*
X046563Y007468D02*
X046320Y007468D01*
X046314Y007460D02*
X046353Y007514D01*
X046383Y007572D01*
X046403Y007635D01*
X046414Y007701D01*
X046414Y007994D01*
X046414Y008287D01*
X046403Y008352D01*
X046383Y008415D01*
X046353Y008474D01*
X046314Y008527D01*
X046267Y008574D01*
X046214Y008613D01*
X046155Y008643D01*
X046092Y008663D01*
X046027Y008674D01*
X045994Y008674D01*
X045994Y007994D01*
X046414Y007994D01*
X045994Y007994D01*
X045994Y007994D01*
X045994Y007994D01*
X045994Y008674D01*
X045961Y008674D01*
X045895Y008663D01*
X045832Y008643D01*
X045774Y008613D01*
X045720Y008574D01*
X045673Y008527D01*
X045634Y008474D01*
X045604Y008415D01*
X045584Y008352D01*
X045574Y008287D01*
X045574Y007994D01*
X045994Y007994D01*
X045994Y007314D01*
X046027Y007314D01*
X046092Y007324D01*
X046155Y007344D01*
X046214Y007374D01*
X046267Y007413D01*
X046314Y007460D01*
X046400Y007626D02*
X046497Y007626D01*
X046494Y007785D02*
X046414Y007785D01*
X046414Y007943D02*
X046494Y007943D01*
X046494Y008102D02*
X046414Y008102D01*
X046414Y008260D02*
X046494Y008260D01*
X046521Y008419D02*
X046381Y008419D01*
X046263Y008577D02*
X046610Y008577D01*
X045994Y008577D02*
X045994Y008577D01*
X045994Y008419D02*
X045994Y008419D01*
X045994Y008260D02*
X045994Y008260D01*
X045994Y008102D02*
X045994Y008102D01*
X045994Y007994D02*
X045994Y007994D01*
X045994Y007994D01*
X045994Y007314D01*
X045961Y007314D01*
X045895Y007324D01*
X045832Y007344D01*
X045774Y007374D01*
X045720Y007413D01*
X045673Y007460D01*
X045634Y007514D01*
X045604Y007572D01*
X045584Y007635D01*
X045574Y007701D01*
X045574Y007994D01*
X045994Y007994D01*
X045994Y007943D02*
X045994Y007943D01*
X045994Y007785D02*
X045994Y007785D01*
X045994Y007626D02*
X045994Y007626D01*
X045994Y007468D02*
X045994Y007468D01*
X045668Y007468D02*
X045425Y007468D01*
X045490Y007626D02*
X045587Y007626D01*
X045574Y007785D02*
X045494Y007785D01*
X045494Y007943D02*
X045574Y007943D01*
X045574Y008102D02*
X045494Y008102D01*
X045494Y008260D02*
X045574Y008260D01*
X045606Y008419D02*
X045467Y008419D01*
X045377Y008577D02*
X045724Y008577D01*
X047377Y008577D02*
X052110Y008577D01*
X052021Y008419D02*
X047467Y008419D01*
X047494Y008260D02*
X051994Y008260D01*
X051994Y008102D02*
X047494Y008102D01*
X047494Y007943D02*
X048736Y007943D01*
X048787Y007994D02*
X048494Y007701D01*
X048494Y007287D01*
X048787Y006994D01*
X049201Y006994D01*
X049494Y007287D01*
X049494Y007701D01*
X049201Y007994D01*
X048787Y007994D01*
X048578Y007785D02*
X047494Y007785D01*
X047490Y007626D02*
X048494Y007626D01*
X048494Y007468D02*
X047425Y007468D01*
X047275Y007309D02*
X048494Y007309D01*
X048630Y007151D02*
X024164Y007151D01*
X024164Y006992D02*
X055094Y006992D01*
X055094Y006834D02*
X024164Y006834D01*
X024022Y007309D02*
X043712Y007309D01*
X047336Y006358D02*
X053264Y006358D01*
X053320Y006414D02*
X053074Y006168D01*
X053074Y005994D01*
X053494Y005994D01*
X053914Y005994D01*
X053914Y006168D01*
X053668Y006414D01*
X053494Y006414D01*
X053494Y005994D01*
X053494Y005994D01*
X053494Y005994D01*
X053914Y005994D01*
X053914Y005820D01*
X053668Y005574D01*
X053494Y005574D01*
X053494Y005994D01*
X053494Y006414D01*
X053320Y006414D01*
X053494Y006358D02*
X053494Y006358D01*
X053494Y006200D02*
X053494Y006200D01*
X053494Y006041D02*
X053494Y006041D01*
X053494Y005994D02*
X053494Y005994D01*
X053494Y005994D01*
X053494Y005574D01*
X053320Y005574D01*
X053074Y005820D01*
X053074Y005994D01*
X053494Y005994D01*
X053494Y005883D02*
X053494Y005883D01*
X053494Y005724D02*
X053494Y005724D01*
X053818Y005724D02*
X055056Y005724D01*
X054994Y005883D02*
X053914Y005883D01*
X053914Y006041D02*
X054994Y006041D01*
X054994Y006200D02*
X053882Y006200D01*
X053723Y006358D02*
X055094Y006358D01*
X055894Y006358D02*
X060254Y006358D01*
X060254Y006200D02*
X055994Y006200D01*
X055994Y006041D02*
X060254Y006041D01*
X060254Y005883D02*
X055994Y005883D01*
X055931Y005724D02*
X060254Y005724D01*
X060254Y005566D02*
X055773Y005566D01*
X055215Y005566D02*
X047273Y005566D01*
X047431Y005724D02*
X053169Y005724D01*
X053074Y005883D02*
X047494Y005883D01*
X047494Y006041D02*
X053074Y006041D01*
X053106Y006200D02*
X047494Y006200D01*
X049358Y007151D02*
X050130Y007151D01*
X049994Y007287D02*
X049994Y007701D01*
X050287Y007994D01*
X050701Y007994D01*
X050994Y007701D01*
X050994Y007287D01*
X050701Y006994D01*
X050287Y006994D01*
X049994Y007287D01*
X049994Y007309D02*
X049494Y007309D01*
X049494Y007468D02*
X049994Y007468D01*
X049994Y007626D02*
X049494Y007626D01*
X049410Y007785D02*
X050078Y007785D01*
X050236Y007943D02*
X049251Y007943D01*
X050751Y007943D02*
X051994Y007943D01*
X051994Y007785D02*
X050910Y007785D01*
X050994Y007626D02*
X051997Y007626D01*
X052063Y007468D02*
X050994Y007468D01*
X050994Y007309D02*
X052212Y007309D01*
X052775Y007309D02*
X053212Y007309D01*
X053063Y007468D02*
X052925Y007468D01*
X052990Y007626D02*
X052997Y007626D01*
X052994Y007785D02*
X052994Y007785D01*
X052994Y007943D02*
X052994Y007943D01*
X052994Y008102D02*
X052994Y008102D01*
X052994Y008260D02*
X052994Y008260D01*
X052967Y008419D02*
X053021Y008419D01*
X053110Y008577D02*
X052877Y008577D01*
X053877Y008577D02*
X054110Y008577D01*
X054021Y008419D02*
X053967Y008419D01*
X053994Y008260D02*
X053994Y008260D01*
X053994Y008102D02*
X053994Y008102D01*
X053994Y007943D02*
X053994Y007943D01*
X053994Y007785D02*
X053994Y007785D01*
X053990Y007626D02*
X053997Y007626D01*
X054063Y007468D02*
X053925Y007468D01*
X053775Y007309D02*
X054212Y007309D01*
X054775Y007309D02*
X055094Y007309D01*
X055094Y007151D02*
X050858Y007151D01*
X052200Y010321D02*
X047288Y010321D01*
X047429Y010479D02*
X052058Y010479D01*
X051994Y010638D02*
X047494Y010638D01*
X047494Y010796D02*
X051994Y010796D01*
X052788Y010321D02*
X053200Y010321D01*
X053058Y010479D02*
X052929Y010479D01*
X052994Y010638D02*
X052994Y010638D01*
X052994Y010796D02*
X052994Y010796D01*
X052994Y010955D02*
X052994Y010955D01*
X052994Y011113D02*
X052994Y011113D01*
X052994Y011272D02*
X052994Y011272D01*
X052962Y011430D02*
X053026Y011430D01*
X053122Y011589D02*
X052866Y011589D01*
X053866Y011589D02*
X054122Y011589D01*
X054026Y011430D02*
X053962Y011430D01*
X053994Y011272D02*
X053994Y011272D01*
X053994Y011113D02*
X053994Y011113D01*
X053994Y010955D02*
X053994Y010955D01*
X053994Y010796D02*
X053994Y010796D01*
X053994Y010638D02*
X053994Y010638D01*
X053929Y010479D02*
X054058Y010479D01*
X054200Y010321D02*
X053788Y010321D01*
X054877Y008577D02*
X055110Y008577D01*
X055021Y008419D02*
X054967Y008419D01*
X054994Y008260D02*
X054994Y008260D01*
X054994Y008102D02*
X054994Y008102D01*
X054994Y007943D02*
X054994Y007943D01*
X054994Y007785D02*
X054994Y007785D01*
X054990Y007626D02*
X054997Y007626D01*
X055063Y007468D02*
X054925Y007468D01*
X055894Y007309D02*
X060254Y007309D01*
X060254Y007151D02*
X055894Y007151D01*
X055894Y006992D02*
X060254Y006992D01*
X060254Y006834D02*
X055894Y006834D01*
X055894Y006675D02*
X060254Y006675D01*
X060254Y006517D02*
X055894Y006517D01*
X055925Y007468D02*
X060254Y007468D01*
X060254Y007626D02*
X057833Y007626D01*
X057701Y007494D02*
X057994Y007787D01*
X057994Y008201D01*
X057701Y008494D01*
X057287Y008494D01*
X056994Y008201D01*
X056994Y007787D01*
X057287Y007494D01*
X057701Y007494D01*
X057992Y007785D02*
X060254Y007785D01*
X060254Y007943D02*
X057994Y007943D01*
X057994Y008102D02*
X060254Y008102D01*
X060254Y008260D02*
X057934Y008260D01*
X057776Y008419D02*
X060254Y008419D01*
X060254Y008577D02*
X055877Y008577D01*
X055967Y008419D02*
X057212Y008419D01*
X057053Y008260D02*
X055994Y008260D01*
X055994Y008102D02*
X056994Y008102D01*
X056994Y007943D02*
X055994Y007943D01*
X055994Y007785D02*
X056996Y007785D01*
X057154Y007626D02*
X055990Y007626D01*
X057440Y004732D02*
X056917Y004400D01*
X056917Y004400D01*
X056917Y004400D01*
X056492Y003948D01*
X056194Y003404D01*
X056040Y002804D01*
X056040Y002184D01*
X056194Y001583D01*
X056492Y001040D01*
X056492Y001040D01*
X056780Y000734D01*
X004216Y000734D01*
X004297Y000800D01*
X004297Y000800D01*
X004661Y001302D01*
X004890Y001879D01*
X004967Y002494D01*
X004890Y003109D01*
X004661Y003685D01*
X004661Y003685D01*
X004297Y004187D01*
X004297Y004187D01*
X003819Y004582D01*
X003258Y004846D01*
X002649Y004963D01*
X002030Y004924D01*
X001440Y004732D01*
X000917Y004400D01*
X000734Y004205D01*
X000734Y046783D01*
X000917Y046588D01*
X001440Y046255D01*
X002030Y046064D01*
X002030Y046064D01*
X002649Y046025D01*
X003258Y046141D01*
X003258Y046141D01*
X003819Y046405D01*
X003819Y046405D01*
X004297Y046800D01*
X004297Y046800D01*
X004661Y047302D01*
X004890Y047879D01*
X004967Y048494D01*
X004890Y049109D01*
X004661Y049685D01*
X004661Y049685D01*
X004297Y050187D01*
X004297Y050187D01*
X004216Y050254D01*
X056780Y050254D01*
X056492Y049948D01*
X056194Y049404D01*
X056040Y048804D01*
X056040Y048184D01*
X056194Y047583D01*
X056492Y047040D01*
X056492Y047040D01*
X056917Y046588D01*
X057440Y046255D01*
X058030Y046064D01*
X058030Y046064D01*
X058649Y046025D01*
X059258Y046141D01*
X059258Y046141D01*
X059819Y046405D01*
X059819Y046405D01*
X060254Y046765D01*
X060254Y004223D01*
X059819Y004582D01*
X059258Y004846D01*
X058649Y004963D01*
X058030Y004924D01*
X057440Y004732D01*
X057440Y004732D01*
X057567Y004773D02*
X003414Y004773D01*
X003258Y004846D02*
X003258Y004846D01*
X002811Y004932D02*
X058159Y004932D01*
X058030Y004924D02*
X058030Y004924D01*
X058649Y004963D02*
X058649Y004963D01*
X058811Y004932D02*
X060254Y004932D01*
X060254Y005090D02*
X000734Y005090D01*
X000734Y004932D02*
X002159Y004932D01*
X002030Y004924D02*
X002030Y004924D01*
X001567Y004773D02*
X000734Y004773D01*
X000734Y004615D02*
X001256Y004615D01*
X001440Y004732D02*
X001440Y004732D01*
X001006Y004456D02*
X000734Y004456D01*
X000734Y004298D02*
X000821Y004298D01*
X000917Y004400D02*
X000917Y004400D01*
X000734Y005249D02*
X060254Y005249D01*
X060254Y005407D02*
X000734Y005407D01*
X000734Y005566D02*
X008215Y005566D01*
X008056Y005724D02*
X006818Y005724D01*
X006914Y005820D02*
X006914Y005994D01*
X006914Y006168D01*
X006668Y006414D01*
X006494Y006414D01*
X006494Y005994D01*
X006914Y005994D01*
X006494Y005994D01*
X006494Y005994D01*
X006494Y005994D01*
X006494Y006414D01*
X006320Y006414D01*
X006074Y006168D01*
X006074Y005994D01*
X006494Y005994D01*
X006494Y005574D01*
X006668Y005574D01*
X006914Y005820D01*
X006914Y005883D02*
X007994Y005883D01*
X007994Y006041D02*
X006914Y006041D01*
X006882Y006200D02*
X007994Y006200D01*
X008151Y006358D02*
X006723Y006358D01*
X006494Y006358D02*
X006494Y006358D01*
X006494Y006200D02*
X006494Y006200D01*
X006494Y006041D02*
X006494Y006041D01*
X006494Y005994D02*
X006494Y005994D01*
X006494Y005994D01*
X006494Y005574D01*
X006320Y005574D01*
X006074Y005820D01*
X006074Y005994D01*
X006494Y005994D01*
X006494Y005883D02*
X006494Y005883D01*
X006494Y005724D02*
X006494Y005724D01*
X006169Y005724D02*
X000734Y005724D01*
X000734Y005883D02*
X006074Y005883D01*
X006074Y006041D02*
X000734Y006041D01*
X000734Y006200D02*
X006106Y006200D01*
X006264Y006358D02*
X000734Y006358D01*
X000734Y007151D02*
X010130Y007151D01*
X009994Y007287D02*
X010287Y006994D01*
X010701Y006994D01*
X010994Y007287D01*
X010994Y007701D01*
X010701Y007994D01*
X010287Y007994D01*
X009994Y007701D01*
X009994Y007287D01*
X009994Y007309D02*
X008775Y007309D01*
X008925Y007468D02*
X009994Y007468D01*
X009994Y007626D02*
X008990Y007626D01*
X008994Y007785D02*
X010078Y007785D01*
X010236Y007943D02*
X008994Y007943D01*
X007994Y007943D02*
X007914Y007943D01*
X007914Y007994D02*
X007494Y007994D01*
X007914Y007994D01*
X007914Y008287D01*
X007903Y008352D01*
X007883Y008415D01*
X007853Y008474D01*
X007814Y008527D01*
X007767Y008574D01*
X007714Y008613D01*
X007655Y008643D01*
X007592Y008663D01*
X007527Y008674D01*
X007494Y008674D01*
X007494Y007994D01*
X007494Y007994D01*
X007494Y007994D01*
X007494Y008674D01*
X007461Y008674D01*
X007395Y008663D01*
X007332Y008643D01*
X007274Y008613D01*
X007220Y008574D01*
X007173Y008527D01*
X007134Y008474D01*
X007104Y008415D01*
X007084Y008352D01*
X007074Y008287D01*
X007074Y007994D01*
X007494Y007994D01*
X007494Y007314D01*
X007527Y007314D01*
X007592Y007324D01*
X007655Y007344D01*
X007714Y007374D01*
X007767Y007413D01*
X007814Y007460D01*
X007853Y007514D01*
X007883Y007572D01*
X007903Y007635D01*
X007914Y007701D01*
X007914Y007994D01*
X007914Y008102D02*
X007994Y008102D01*
X007994Y008260D02*
X007914Y008260D01*
X007881Y008419D02*
X008021Y008419D01*
X008110Y008577D02*
X007763Y008577D01*
X007494Y008577D02*
X007494Y008577D01*
X007494Y008419D02*
X007494Y008419D01*
X007494Y008260D02*
X007494Y008260D01*
X007494Y008102D02*
X007494Y008102D01*
X007494Y007994D02*
X007494Y007994D01*
X007494Y007994D01*
X007494Y007314D01*
X007461Y007314D01*
X007395Y007324D01*
X007332Y007344D01*
X007274Y007374D01*
X007220Y007413D01*
X007173Y007460D01*
X007134Y007514D01*
X007104Y007572D01*
X007084Y007635D01*
X007074Y007701D01*
X007074Y007994D01*
X007494Y007994D01*
X007494Y007943D02*
X007494Y007943D01*
X007494Y007785D02*
X007494Y007785D01*
X007494Y007626D02*
X007494Y007626D01*
X007494Y007468D02*
X007494Y007468D01*
X007820Y007468D02*
X008063Y007468D01*
X007997Y007626D02*
X007900Y007626D01*
X007914Y007785D02*
X007994Y007785D01*
X008212Y007309D02*
X006775Y007309D01*
X006925Y007468D02*
X007168Y007468D01*
X007087Y007626D02*
X006990Y007626D01*
X006994Y007785D02*
X007074Y007785D01*
X007074Y007943D02*
X006994Y007943D01*
X006994Y008102D02*
X007074Y008102D01*
X007074Y008260D02*
X006994Y008260D01*
X006967Y008419D02*
X007106Y008419D01*
X007224Y008577D02*
X006877Y008577D01*
X006110Y008577D02*
X005877Y008577D01*
X005967Y008419D02*
X006021Y008419D01*
X005994Y008260D02*
X005994Y008260D01*
X005994Y008102D02*
X005994Y008102D01*
X005994Y007943D02*
X005994Y007943D01*
X005994Y007785D02*
X005994Y007785D01*
X005990Y007626D02*
X005997Y007626D01*
X006063Y007468D02*
X005925Y007468D01*
X005775Y007309D02*
X006212Y007309D01*
X005212Y007309D02*
X000734Y007309D01*
X000734Y007468D02*
X005063Y007468D01*
X004997Y007626D02*
X000734Y007626D01*
X000734Y007785D02*
X004994Y007785D01*
X004994Y007943D02*
X000734Y007943D01*
X000734Y008102D02*
X004994Y008102D01*
X004994Y008260D02*
X000734Y008260D01*
X000734Y008419D02*
X005021Y008419D01*
X005110Y008577D02*
X000734Y008577D01*
X000734Y009053D02*
X024862Y009053D01*
X024834Y009211D02*
X000734Y009211D01*
X000734Y009370D02*
X024845Y009370D01*
X024897Y009528D02*
X000734Y009528D01*
X000734Y009687D02*
X025003Y009687D01*
X025221Y009845D02*
X000734Y009845D01*
X000734Y013174D02*
X026034Y013174D01*
X026034Y013332D02*
X000734Y013332D01*
X000734Y013491D02*
X026078Y013491D01*
X026200Y013649D02*
X000734Y013649D01*
X000734Y013808D02*
X027324Y013808D01*
X027386Y013834D02*
X027188Y013751D01*
X027036Y013600D01*
X026954Y013401D01*
X026954Y012586D01*
X027036Y012388D01*
X027188Y012236D01*
X027386Y012154D01*
X027601Y012154D01*
X027800Y012236D01*
X027951Y012388D01*
X027994Y012490D01*
X028036Y012388D01*
X028188Y012236D01*
X028386Y012154D01*
X028601Y012154D01*
X028800Y012236D01*
X028951Y012388D01*
X029034Y012586D01*
X029034Y013401D01*
X028951Y013600D01*
X028800Y013751D01*
X028601Y013834D01*
X028386Y013834D01*
X028188Y013751D01*
X028036Y013600D01*
X027994Y013498D01*
X027951Y013600D01*
X027800Y013751D01*
X027601Y013834D01*
X027386Y013834D01*
X027664Y013808D02*
X028324Y013808D01*
X028086Y013649D02*
X027902Y013649D01*
X028664Y013808D02*
X032324Y013808D01*
X032386Y013834D02*
X032188Y013751D01*
X032036Y013600D01*
X031954Y013401D01*
X031954Y012586D01*
X032036Y012388D01*
X032188Y012236D01*
X032386Y012154D01*
X032601Y012154D01*
X032800Y012236D01*
X032951Y012388D01*
X033034Y012586D01*
X033034Y013401D01*
X032951Y013600D01*
X032800Y013751D01*
X032601Y013834D01*
X032386Y013834D01*
X032664Y013808D02*
X034324Y013808D01*
X034386Y013834D02*
X034188Y013751D01*
X034036Y013600D01*
X033954Y013401D01*
X033954Y012586D01*
X034036Y012388D01*
X034188Y012236D01*
X034386Y012154D01*
X034601Y012154D01*
X034800Y012236D01*
X034951Y012388D01*
X035034Y012586D01*
X035034Y013401D01*
X034951Y013600D01*
X034800Y013751D01*
X034601Y013834D01*
X034386Y013834D01*
X034664Y013808D02*
X060254Y013808D01*
X060254Y013966D02*
X000734Y013966D01*
X000734Y015076D02*
X060254Y015076D01*
X060254Y015234D02*
X000734Y015234D01*
X000734Y015710D02*
X028821Y015710D01*
X028744Y015868D02*
X000734Y015868D01*
X000734Y017295D02*
X002169Y017295D01*
X001953Y017453D02*
X000734Y017453D01*
X000734Y017612D02*
X001835Y017612D01*
X001769Y017770D02*
X000734Y017770D01*
X000734Y017929D02*
X001750Y017929D01*
X001750Y018087D02*
X000734Y018087D01*
X000734Y018246D02*
X001805Y018246D01*
X001882Y018404D02*
X000734Y018404D01*
X000734Y020465D02*
X013308Y020465D01*
X013254Y020623D02*
X000734Y020623D01*
X000734Y020782D02*
X013254Y020782D01*
X013274Y020940D02*
X000734Y020940D01*
X000734Y021099D02*
X013340Y021099D01*
X013461Y021257D02*
X000734Y021257D01*
X000734Y021416D02*
X013682Y021416D01*
X014305Y021416D02*
X015094Y021416D01*
X015094Y021574D02*
X000734Y021574D01*
X000734Y021733D02*
X015094Y021733D01*
X015094Y021891D02*
X007235Y021891D01*
X007168Y021824D02*
X007414Y022070D01*
X007414Y022244D01*
X007414Y022418D01*
X007168Y022664D01*
X006994Y022664D01*
X006994Y022244D01*
X006994Y022244D01*
X007414Y022244D01*
X006994Y022244D01*
X006994Y022244D01*
X006994Y022664D01*
X006820Y022664D01*
X006574Y022418D01*
X006574Y022244D01*
X006994Y022244D01*
X006994Y022244D01*
X006994Y021824D01*
X007168Y021824D01*
X006994Y021824D02*
X006994Y022244D01*
X006994Y022244D01*
X006574Y022244D01*
X006574Y022070D01*
X006820Y021824D01*
X006994Y021824D01*
X006994Y021891D02*
X006994Y021891D01*
X006994Y022050D02*
X006994Y022050D01*
X006994Y022208D02*
X006994Y022208D01*
X006994Y022367D02*
X006994Y022367D01*
X006994Y022525D02*
X006994Y022525D01*
X007306Y022525D02*
X011283Y022525D01*
X011254Y022684D02*
X000734Y022684D01*
X000734Y022842D02*
X004218Y022842D01*
X004203Y022850D02*
X004267Y022817D01*
X004336Y022795D01*
X004407Y022784D01*
X004724Y022784D01*
X004724Y023224D01*
X004764Y023224D01*
X004764Y023264D01*
X004724Y023264D01*
X004724Y023704D01*
X004407Y023704D01*
X004336Y023692D01*
X004267Y023670D01*
X004203Y023637D01*
X004144Y023595D01*
X004093Y023543D01*
X004050Y023485D01*
X004017Y023420D01*
X003995Y023351D01*
X003984Y023280D01*
X003984Y023264D01*
X004724Y023264D01*
X004724Y023224D01*
X003984Y023224D01*
X003984Y023207D01*
X003995Y023136D01*
X004017Y023067D01*
X004050Y023003D01*
X004093Y022944D01*
X004144Y022893D01*
X004203Y022850D01*
X004052Y023001D02*
X000734Y023001D01*
X000734Y023159D02*
X003991Y023159D01*
X003990Y023318D02*
X000734Y023318D01*
X000734Y023476D02*
X004046Y023476D01*
X004199Y023635D02*
X000734Y023635D01*
X000734Y023793D02*
X004130Y023793D01*
X003980Y023952D02*
X000734Y023952D01*
X000734Y024110D02*
X003914Y024110D01*
X003904Y024269D02*
X000734Y024269D01*
X000734Y024427D02*
X003935Y024427D01*
X004022Y024586D02*
X000734Y024586D01*
X000734Y024744D02*
X004238Y024744D01*
X004021Y024903D02*
X000734Y024903D01*
X000734Y025061D02*
X003935Y025061D01*
X003904Y025220D02*
X000734Y025220D01*
X000734Y025378D02*
X003915Y025378D01*
X003981Y025537D02*
X000734Y025537D01*
X000734Y025695D02*
X004132Y025695D01*
X005249Y024744D02*
X055988Y024744D01*
X055772Y024586D02*
X005465Y024586D01*
X005552Y024427D02*
X023720Y024427D01*
X023787Y024494D02*
X023494Y024201D01*
X023494Y023787D01*
X023787Y023494D01*
X024201Y023494D01*
X024494Y023787D01*
X024494Y024201D01*
X024201Y024494D01*
X023787Y024494D01*
X023562Y024269D02*
X005584Y024269D01*
X005573Y024110D02*
X023494Y024110D01*
X023494Y023952D02*
X005507Y023952D01*
X005357Y023793D02*
X018815Y023793D01*
X019172Y023793D02*
X023494Y023793D01*
X023646Y023635D02*
X019570Y023635D01*
X018417Y023635D02*
X005288Y023635D01*
X005285Y023637D02*
X005220Y023670D01*
X005151Y023692D01*
X005080Y023704D01*
X004764Y023704D01*
X004764Y023264D01*
X005504Y023264D01*
X005504Y023280D01*
X005492Y023351D01*
X005470Y023420D01*
X005437Y023485D01*
X005395Y023543D01*
X005343Y023595D01*
X005285Y023637D01*
X005441Y023476D02*
X011828Y023476D01*
X011521Y023318D02*
X005498Y023318D01*
X005504Y023224D02*
X004764Y023224D01*
X004764Y022784D01*
X005080Y022784D01*
X005151Y022795D01*
X005220Y022817D01*
X005285Y022850D01*
X005343Y022893D01*
X005395Y022944D01*
X005437Y023003D01*
X005470Y023067D01*
X005492Y023136D01*
X005504Y023207D01*
X005504Y023224D01*
X005496Y023159D02*
X011365Y023159D01*
X011299Y023001D02*
X005436Y023001D01*
X005269Y022842D02*
X011254Y022842D01*
X011349Y022367D02*
X007414Y022367D01*
X007414Y022208D02*
X011483Y022208D01*
X011735Y022050D02*
X007394Y022050D01*
X006752Y021891D02*
X002485Y021891D01*
X002418Y021824D02*
X002664Y022070D01*
X002664Y022244D01*
X002664Y022418D01*
X002418Y022664D01*
X002244Y022664D01*
X002244Y022244D01*
X002244Y022244D01*
X002664Y022244D01*
X002244Y022244D01*
X002244Y022244D01*
X002244Y022664D01*
X002070Y022664D01*
X001824Y022418D01*
X001824Y022244D01*
X002244Y022244D01*
X002244Y022244D01*
X002244Y021824D01*
X002418Y021824D01*
X002244Y021824D02*
X002244Y022244D01*
X002244Y022244D01*
X001824Y022244D01*
X001824Y022070D01*
X002070Y021824D01*
X002244Y021824D01*
X002244Y021891D02*
X002244Y021891D01*
X002244Y022050D02*
X002244Y022050D01*
X002244Y022208D02*
X002244Y022208D01*
X002244Y022367D02*
X002244Y022367D01*
X002244Y022525D02*
X002244Y022525D01*
X002556Y022525D02*
X006681Y022525D01*
X006574Y022367D02*
X002664Y022367D01*
X002664Y022208D02*
X006574Y022208D01*
X006594Y022050D02*
X002644Y022050D01*
X002002Y021891D02*
X000734Y021891D01*
X000734Y022050D02*
X001844Y022050D01*
X001824Y022208D02*
X000734Y022208D01*
X000734Y022367D02*
X001824Y022367D01*
X001931Y022525D02*
X000734Y022525D01*
X000734Y025854D02*
X001927Y025854D01*
X001768Y026012D02*
X000734Y026012D01*
X000734Y026171D02*
X001744Y026171D01*
X001744Y026329D02*
X000734Y026329D01*
X000734Y026488D02*
X001781Y026488D01*
X001939Y026646D02*
X000734Y026646D01*
X000734Y026805D02*
X013500Y026805D01*
X013585Y026756D02*
X013854Y026684D01*
X014133Y026684D01*
X014403Y026756D01*
X014645Y026895D01*
X014842Y027093D01*
X014981Y027335D01*
X015054Y027604D01*
X015054Y027883D01*
X014981Y028153D01*
X014842Y028395D01*
X014645Y028592D01*
X014403Y028731D01*
X014133Y028804D01*
X013854Y028804D01*
X013585Y028731D01*
X013343Y028592D01*
X013145Y028395D01*
X013006Y028153D01*
X012934Y027883D01*
X012934Y027604D01*
X013006Y027335D01*
X013145Y027093D01*
X013343Y026895D01*
X013585Y026756D01*
X013275Y026963D02*
X000734Y026963D01*
X000734Y027122D02*
X013129Y027122D01*
X013037Y027280D02*
X000734Y027280D01*
X000734Y027439D02*
X012978Y027439D01*
X012936Y027597D02*
X000734Y027597D01*
X000734Y027756D02*
X012934Y027756D01*
X012942Y027914D02*
X000734Y027914D01*
X000734Y028073D02*
X012984Y028073D01*
X013051Y028231D02*
X000734Y028231D01*
X000734Y028390D02*
X013143Y028390D01*
X013299Y028548D02*
X000734Y028548D01*
X000734Y028707D02*
X013542Y028707D01*
X014446Y028707D02*
X043542Y028707D01*
X043585Y028731D02*
X043343Y028592D01*
X043145Y028395D01*
X043006Y028153D01*
X042934Y027883D01*
X042934Y027604D01*
X043006Y027335D01*
X043145Y027093D01*
X043343Y026895D01*
X043585Y026756D01*
X043854Y026684D01*
X044133Y026684D01*
X044403Y026756D01*
X044645Y026895D01*
X044842Y027093D01*
X044981Y027335D01*
X045054Y027604D01*
X045054Y027883D01*
X044981Y028153D01*
X044842Y028395D01*
X044645Y028592D01*
X044403Y028731D01*
X044133Y028804D01*
X043854Y028804D01*
X043585Y028731D01*
X043299Y028548D02*
X014688Y028548D01*
X014845Y028390D02*
X016620Y028390D01*
X016575Y028371D02*
X016366Y028163D01*
X016254Y027891D01*
X016254Y027597D01*
X015052Y027597D01*
X015054Y027756D02*
X016254Y027756D01*
X016263Y027914D02*
X015045Y027914D01*
X015003Y028073D02*
X016329Y028073D01*
X016435Y028231D02*
X014936Y028231D01*
X015009Y027439D02*
X016319Y027439D01*
X016366Y027325D02*
X016575Y027116D01*
X016847Y027004D01*
X017141Y027004D01*
X017413Y027116D01*
X017621Y027325D01*
X017734Y027597D01*
X042936Y027597D01*
X042934Y027756D02*
X017734Y027756D01*
X017734Y027891D02*
X017621Y028163D01*
X017413Y028371D01*
X017141Y028484D01*
X016847Y028484D01*
X016575Y028371D01*
X017368Y028390D02*
X043143Y028390D01*
X043051Y028231D02*
X017553Y028231D01*
X017658Y028073D02*
X042984Y028073D01*
X042942Y027914D02*
X017724Y027914D01*
X017734Y027891D02*
X017734Y027597D01*
X017668Y027439D02*
X042978Y027439D01*
X043037Y027280D02*
X017577Y027280D01*
X017418Y027122D02*
X043129Y027122D01*
X043275Y026963D02*
X014712Y026963D01*
X014859Y027122D02*
X016569Y027122D01*
X016411Y027280D02*
X014950Y027280D01*
X014487Y026805D02*
X043500Y026805D01*
X044487Y026805D02*
X060254Y026805D01*
X060254Y026963D02*
X044712Y026963D01*
X044859Y027122D02*
X046569Y027122D01*
X046575Y027116D02*
X046847Y027004D01*
X047141Y027004D01*
X047413Y027116D01*
X047621Y027325D01*
X047734Y027597D01*
X060254Y027597D01*
X060254Y027439D02*
X047668Y027439D01*
X047734Y027597D02*
X047734Y027891D01*
X047621Y028163D01*
X047413Y028371D01*
X047141Y028484D01*
X046847Y028484D01*
X046575Y028371D01*
X046366Y028163D01*
X046254Y027891D01*
X046254Y027597D01*
X045052Y027597D01*
X045054Y027756D02*
X046254Y027756D01*
X046263Y027914D02*
X045045Y027914D01*
X045003Y028073D02*
X046329Y028073D01*
X046435Y028231D02*
X044936Y028231D01*
X044845Y028390D02*
X046620Y028390D01*
X047368Y028390D02*
X060254Y028390D01*
X060254Y028548D02*
X044688Y028548D01*
X044446Y028707D02*
X060254Y028707D01*
X060254Y028865D02*
X000734Y028865D01*
X000734Y029024D02*
X003970Y029024D01*
X004100Y028894D02*
X004887Y028894D01*
X005444Y029450D01*
X005444Y030237D01*
X004887Y030794D01*
X004100Y030794D01*
X003544Y030237D01*
X003544Y029450D01*
X004100Y028894D01*
X003812Y029182D02*
X000734Y029182D01*
X000734Y029341D02*
X003653Y029341D01*
X003544Y029499D02*
X000734Y029499D01*
X000734Y029658D02*
X003544Y029658D01*
X003544Y029816D02*
X000734Y029816D01*
X000734Y029975D02*
X003544Y029975D01*
X003544Y030133D02*
X000734Y030133D01*
X000734Y030292D02*
X003598Y030292D01*
X003757Y030450D02*
X000734Y030450D01*
X000734Y030609D02*
X003915Y030609D01*
X004074Y030767D02*
X000734Y030767D01*
X000734Y030926D02*
X060254Y030926D01*
X060254Y031084D02*
X000734Y031084D01*
X000734Y031243D02*
X009028Y031243D01*
X009137Y031134D02*
X009850Y031134D01*
X010354Y031637D01*
X010354Y032350D01*
X009850Y032854D01*
X009137Y032854D01*
X008634Y032350D01*
X008634Y031637D01*
X009137Y031134D01*
X008870Y031401D02*
X000734Y031401D01*
X000734Y031560D02*
X008711Y031560D01*
X008634Y031718D02*
X000734Y031718D01*
X000734Y031877D02*
X008634Y031877D01*
X008634Y032035D02*
X000734Y032035D01*
X000734Y032194D02*
X008634Y032194D01*
X008636Y032352D02*
X000734Y032352D01*
X000734Y032511D02*
X008795Y032511D01*
X008953Y032669D02*
X000734Y032669D01*
X000734Y032828D02*
X009112Y032828D01*
X009876Y032828D02*
X011612Y032828D01*
X011637Y032854D02*
X011134Y032350D01*
X011134Y031637D01*
X011637Y031134D01*
X012350Y031134D01*
X012854Y031637D01*
X012854Y032350D01*
X012350Y032854D01*
X011637Y032854D01*
X011453Y032669D02*
X010034Y032669D01*
X010193Y032511D02*
X011295Y032511D01*
X011136Y032352D02*
X010351Y032352D01*
X010354Y032194D02*
X011134Y032194D01*
X011134Y032035D02*
X010354Y032035D01*
X010354Y031877D02*
X011134Y031877D01*
X011134Y031718D02*
X010354Y031718D01*
X010276Y031560D02*
X011211Y031560D01*
X011370Y031401D02*
X010117Y031401D01*
X009959Y031243D02*
X011528Y031243D01*
X012459Y031243D02*
X048528Y031243D01*
X048637Y031134D02*
X049350Y031134D01*
X049854Y031637D01*
X049854Y032350D01*
X049350Y032854D01*
X048637Y032854D01*
X048134Y032350D01*
X048134Y031637D01*
X048637Y031134D01*
X048370Y031401D02*
X012617Y031401D01*
X012776Y031560D02*
X048211Y031560D01*
X048134Y031718D02*
X012854Y031718D01*
X012854Y031877D02*
X048134Y031877D01*
X048134Y032035D02*
X012854Y032035D01*
X012854Y032194D02*
X048134Y032194D01*
X048136Y032352D02*
X033993Y032352D01*
X033872Y032231D02*
X034406Y032766D01*
X034406Y033522D01*
X033872Y034056D01*
X033116Y034056D01*
X032581Y033522D01*
X032581Y032766D01*
X033116Y032231D01*
X033872Y032231D01*
X034151Y032511D02*
X042483Y032511D01*
X042600Y032394D02*
X043387Y032394D01*
X043944Y032950D01*
X043944Y033737D01*
X043387Y034294D01*
X042600Y034294D01*
X042044Y033737D01*
X042044Y032950D01*
X042600Y032394D01*
X042325Y032669D02*
X034310Y032669D01*
X034406Y032828D02*
X042166Y032828D01*
X042044Y032986D02*
X034406Y032986D01*
X034406Y033145D02*
X042044Y033145D01*
X042044Y033303D02*
X034406Y033303D01*
X034406Y033462D02*
X042044Y033462D01*
X042044Y033620D02*
X034308Y033620D01*
X034149Y033779D02*
X042085Y033779D01*
X042244Y033937D02*
X033991Y033937D01*
X032997Y033937D02*
X027991Y033937D01*
X027872Y034056D02*
X027116Y034056D01*
X026581Y033522D01*
X026581Y032766D01*
X027116Y032231D01*
X027872Y032231D01*
X028406Y032766D01*
X028406Y033522D01*
X027872Y034056D01*
X028149Y033779D02*
X032838Y033779D01*
X032680Y033620D02*
X028308Y033620D01*
X028406Y033462D02*
X032581Y033462D01*
X032581Y033303D02*
X028406Y033303D01*
X028406Y033145D02*
X032581Y033145D01*
X032581Y032986D02*
X028406Y032986D01*
X028406Y032828D02*
X032581Y032828D01*
X032678Y032669D02*
X028310Y032669D01*
X028151Y032511D02*
X032836Y032511D01*
X032995Y032352D02*
X027993Y032352D01*
X026995Y032352D02*
X012851Y032352D01*
X012693Y032511D02*
X017483Y032511D01*
X017600Y032394D02*
X018387Y032394D01*
X018944Y032950D01*
X018944Y033737D01*
X018387Y034294D01*
X017600Y034294D01*
X017044Y033737D01*
X017044Y032950D01*
X017600Y032394D01*
X017325Y032669D02*
X012534Y032669D01*
X012376Y032828D02*
X017166Y032828D01*
X017044Y032986D02*
X000734Y032986D01*
X000734Y033145D02*
X017044Y033145D01*
X017044Y033303D02*
X000734Y033303D01*
X000734Y033462D02*
X017044Y033462D01*
X017044Y033620D02*
X000734Y033620D01*
X000734Y033779D02*
X017085Y033779D01*
X017244Y033937D02*
X000734Y033937D01*
X000734Y034096D02*
X017402Y034096D01*
X017561Y034254D02*
X000734Y034254D01*
X000734Y034413D02*
X060254Y034413D01*
X060254Y034571D02*
X000734Y034571D01*
X000734Y034730D02*
X060254Y034730D01*
X060254Y034888D02*
X000734Y034888D01*
X000734Y035047D02*
X060254Y035047D01*
X060254Y035205D02*
X000734Y035205D01*
X000734Y035364D02*
X060254Y035364D01*
X060254Y035522D02*
X000734Y035522D01*
X000734Y035681D02*
X060254Y035681D01*
X060254Y035839D02*
X000734Y035839D01*
X000734Y035998D02*
X060254Y035998D01*
X060254Y036156D02*
X000734Y036156D01*
X000734Y036315D02*
X060254Y036315D01*
X060254Y036473D02*
X000734Y036473D01*
X000734Y036632D02*
X060254Y036632D01*
X060254Y036790D02*
X000734Y036790D01*
X000734Y036949D02*
X060254Y036949D01*
X060254Y037107D02*
X000734Y037107D01*
X000734Y037266D02*
X009005Y037266D01*
X009137Y037134D02*
X008634Y037637D01*
X008634Y038350D01*
X009137Y038854D01*
X009850Y038854D01*
X010354Y038350D01*
X010354Y037637D01*
X009850Y037134D01*
X009137Y037134D01*
X008847Y037424D02*
X000734Y037424D01*
X000734Y037583D02*
X008688Y037583D01*
X008634Y037741D02*
X000734Y037741D01*
X000734Y037900D02*
X008634Y037900D01*
X008634Y038058D02*
X000734Y038058D01*
X000734Y038217D02*
X008634Y038217D01*
X008659Y038375D02*
X000734Y038375D01*
X000734Y038534D02*
X008818Y038534D01*
X008976Y038692D02*
X000734Y038692D01*
X000734Y038851D02*
X009135Y038851D01*
X009320Y039074D02*
X009074Y039320D01*
X009074Y039494D01*
X009494Y039494D01*
X009494Y039494D01*
X009494Y039914D01*
X009668Y039914D01*
X009914Y039668D01*
X009914Y039494D01*
X009494Y039494D01*
X009494Y039494D01*
X009494Y039914D01*
X009320Y039914D01*
X009074Y039668D01*
X009074Y039494D01*
X009494Y039494D01*
X009914Y039494D01*
X009914Y039320D01*
X009668Y039074D01*
X009494Y039074D01*
X009494Y039494D01*
X009494Y039494D01*
X009494Y039494D01*
X009494Y039074D01*
X009320Y039074D01*
X009226Y039168D02*
X000734Y039168D01*
X000734Y039326D02*
X009074Y039326D01*
X009074Y039485D02*
X000734Y039485D01*
X000734Y039643D02*
X009074Y039643D01*
X009208Y039802D02*
X000734Y039802D01*
X000734Y039960D02*
X022477Y039960D01*
X022504Y040059D02*
X022404Y039687D01*
X022404Y039301D01*
X022504Y038928D01*
X022696Y038594D01*
X022969Y038321D01*
X023303Y038129D01*
X023676Y038029D01*
X024062Y038029D01*
X024434Y038129D01*
X024768Y038321D01*
X025041Y038594D01*
X025234Y038928D01*
X025334Y039301D01*
X025334Y039687D01*
X025234Y040059D01*
X025041Y040393D01*
X024768Y040666D01*
X024434Y040859D01*
X024062Y040959D01*
X023676Y040959D01*
X023303Y040859D01*
X022969Y040666D01*
X022696Y040393D01*
X022504Y040059D01*
X022538Y040119D02*
X000734Y040119D01*
X000734Y040277D02*
X022629Y040277D01*
X022739Y040436D02*
X000734Y040436D01*
X000734Y040594D02*
X022897Y040594D01*
X023119Y040753D02*
X000734Y040753D01*
X000734Y040911D02*
X023499Y040911D01*
X024239Y040911D02*
X036749Y040911D01*
X036926Y040959D02*
X036553Y040859D01*
X036219Y040666D01*
X035946Y040393D01*
X035754Y040059D01*
X035654Y039687D01*
X035654Y039301D01*
X035754Y038928D01*
X035946Y038594D01*
X036219Y038321D01*
X036553Y038129D01*
X036926Y038029D01*
X037312Y038029D01*
X037684Y038129D01*
X038018Y038321D01*
X038291Y038594D01*
X038484Y038928D01*
X038584Y039301D01*
X038584Y039687D01*
X038484Y040059D01*
X038291Y040393D01*
X038018Y040666D01*
X037684Y040859D01*
X037312Y040959D01*
X036926Y040959D01*
X037489Y040911D02*
X060254Y040911D01*
X060254Y040753D02*
X037868Y040753D01*
X038090Y040594D02*
X060254Y040594D01*
X060254Y040436D02*
X038248Y040436D01*
X038358Y040277D02*
X060254Y040277D01*
X060254Y040119D02*
X038449Y040119D01*
X038510Y039960D02*
X060254Y039960D01*
X060254Y039802D02*
X051780Y039802D01*
X051668Y039914D02*
X051494Y039914D01*
X051494Y039494D01*
X051494Y039494D01*
X051914Y039494D01*
X051914Y039668D01*
X051668Y039914D01*
X051494Y039914D02*
X051320Y039914D01*
X051074Y039668D01*
X051074Y039494D01*
X051494Y039494D01*
X051494Y039494D01*
X051494Y039914D01*
X051494Y039802D02*
X051494Y039802D01*
X051494Y039643D02*
X051494Y039643D01*
X051494Y039494D02*
X051494Y039494D01*
X051914Y039494D01*
X051914Y039320D01*
X051668Y039074D01*
X051494Y039074D01*
X051494Y039494D01*
X051494Y039494D01*
X051074Y039494D01*
X051074Y039320D01*
X051320Y039074D01*
X051494Y039074D01*
X051494Y039494D01*
X051494Y039485D02*
X051494Y039485D01*
X051494Y039326D02*
X051494Y039326D01*
X051494Y039168D02*
X051494Y039168D01*
X051762Y039168D02*
X060254Y039168D01*
X060254Y039326D02*
X051914Y039326D01*
X051914Y039485D02*
X060254Y039485D01*
X060254Y039643D02*
X051914Y039643D01*
X051850Y038854D02*
X051137Y038854D01*
X050634Y038350D01*
X050634Y037637D01*
X051137Y037134D01*
X051850Y037134D01*
X052354Y037637D01*
X052354Y038350D01*
X051850Y038854D01*
X051853Y038851D02*
X060254Y038851D01*
X060254Y039009D02*
X038506Y039009D01*
X038548Y039168D02*
X048726Y039168D01*
X048820Y039074D02*
X048574Y039320D01*
X048574Y039494D01*
X048994Y039494D01*
X048994Y039494D01*
X048994Y039914D01*
X049168Y039914D01*
X049414Y039668D01*
X049414Y039494D01*
X048994Y039494D01*
X048994Y039494D01*
X048994Y039914D01*
X048820Y039914D01*
X048574Y039668D01*
X048574Y039494D01*
X048994Y039494D01*
X049414Y039494D01*
X049414Y039320D01*
X049168Y039074D01*
X048994Y039074D01*
X048994Y039494D01*
X048994Y039494D01*
X048994Y039494D01*
X048994Y039074D01*
X048820Y039074D01*
X048994Y039168D02*
X048994Y039168D01*
X048994Y039326D02*
X048994Y039326D01*
X048994Y039485D02*
X048994Y039485D01*
X048994Y039643D02*
X048994Y039643D01*
X048994Y039802D02*
X048994Y039802D01*
X049280Y039802D02*
X051208Y039802D01*
X051074Y039643D02*
X049414Y039643D01*
X049414Y039485D02*
X051074Y039485D01*
X051074Y039326D02*
X049414Y039326D01*
X049262Y039168D02*
X051226Y039168D01*
X051135Y038851D02*
X049353Y038851D01*
X049350Y038854D02*
X048637Y038854D01*
X048134Y038350D01*
X048134Y037637D01*
X048637Y037134D01*
X049350Y037134D01*
X049854Y037637D01*
X049854Y038350D01*
X049350Y038854D01*
X049511Y038692D02*
X050976Y038692D01*
X050818Y038534D02*
X049670Y038534D01*
X049828Y038375D02*
X050659Y038375D01*
X050634Y038217D02*
X049854Y038217D01*
X049854Y038058D02*
X050634Y038058D01*
X050634Y037900D02*
X049854Y037900D01*
X049854Y037741D02*
X050634Y037741D01*
X050688Y037583D02*
X049799Y037583D01*
X049640Y037424D02*
X050847Y037424D01*
X051005Y037266D02*
X049482Y037266D01*
X048505Y037266D02*
X012482Y037266D01*
X012350Y037134D02*
X011637Y037134D01*
X011134Y037637D01*
X011134Y038350D01*
X011637Y038854D01*
X012350Y038854D01*
X012854Y038350D01*
X012854Y037637D01*
X012350Y037134D01*
X012640Y037424D02*
X048347Y037424D01*
X048188Y037583D02*
X012799Y037583D01*
X012854Y037741D02*
X048134Y037741D01*
X048134Y037900D02*
X012854Y037900D01*
X012854Y038058D02*
X023566Y038058D01*
X023150Y038217D02*
X012854Y038217D01*
X012828Y038375D02*
X022915Y038375D01*
X022757Y038534D02*
X012670Y038534D01*
X012511Y038692D02*
X022640Y038692D01*
X022548Y038851D02*
X012353Y038851D01*
X012168Y039074D02*
X012414Y039320D01*
X012414Y039494D01*
X012414Y039668D01*
X012168Y039914D01*
X011994Y039914D01*
X011994Y039494D01*
X011994Y039494D01*
X012414Y039494D01*
X011994Y039494D01*
X011994Y039494D01*
X011994Y039914D01*
X011820Y039914D01*
X011574Y039668D01*
X011574Y039494D01*
X011994Y039494D01*
X011994Y039494D01*
X011994Y039074D01*
X012168Y039074D01*
X012262Y039168D02*
X022439Y039168D01*
X022404Y039326D02*
X012414Y039326D01*
X012414Y039485D02*
X022404Y039485D01*
X022404Y039643D02*
X012414Y039643D01*
X012280Y039802D02*
X022435Y039802D01*
X022482Y039009D02*
X000734Y039009D01*
X000734Y041070D02*
X060254Y041070D01*
X060254Y041228D02*
X000734Y041228D01*
X000734Y041387D02*
X060254Y041387D01*
X060254Y041545D02*
X000734Y041545D01*
X000734Y041704D02*
X060254Y041704D01*
X060254Y041862D02*
X000734Y041862D01*
X000734Y042021D02*
X060254Y042021D01*
X060254Y042179D02*
X000734Y042179D01*
X000734Y042338D02*
X060254Y042338D01*
X060254Y042496D02*
X000734Y042496D01*
X000734Y042655D02*
X060254Y042655D01*
X060254Y042813D02*
X051973Y042813D01*
X051833Y042674D02*
X052314Y043154D01*
X052314Y043833D01*
X051833Y044314D01*
X051154Y044314D01*
X050674Y043833D01*
X050674Y043154D01*
X051154Y042674D01*
X051833Y042674D01*
X052131Y042972D02*
X060254Y042972D01*
X060254Y043130D02*
X052290Y043130D01*
X052314Y043289D02*
X060254Y043289D01*
X060254Y043447D02*
X052314Y043447D01*
X052314Y043606D02*
X060254Y043606D01*
X060254Y043764D02*
X056958Y043764D01*
X056887Y043694D02*
X057444Y044250D01*
X057444Y045037D01*
X056887Y045594D01*
X056100Y045594D01*
X055544Y045037D01*
X055544Y044250D01*
X056100Y043694D01*
X056887Y043694D01*
X057116Y043923D02*
X060254Y043923D01*
X060254Y044081D02*
X057275Y044081D01*
X057433Y044240D02*
X060254Y044240D01*
X060254Y044398D02*
X057444Y044398D01*
X057444Y044557D02*
X060254Y044557D01*
X060254Y044715D02*
X057444Y044715D01*
X057444Y044874D02*
X060254Y044874D01*
X060254Y045032D02*
X057444Y045032D01*
X057290Y045191D02*
X060254Y045191D01*
X060254Y045349D02*
X057132Y045349D01*
X056973Y045508D02*
X060254Y045508D01*
X060254Y045666D02*
X052468Y045666D01*
X052478Y045643D02*
X052351Y045948D01*
X052207Y046093D01*
X052298Y046145D01*
X052495Y046343D01*
X052635Y046585D01*
X052707Y046854D01*
X052707Y047133D01*
X052635Y047403D01*
X052495Y047645D01*
X052298Y047842D01*
X052056Y047981D01*
X051787Y048054D01*
X051508Y048054D01*
X051238Y047981D01*
X050996Y047842D01*
X050799Y047645D01*
X050659Y047403D01*
X050612Y047226D01*
X050587Y047286D01*
X050544Y047361D01*
X050491Y047430D01*
X050430Y047491D01*
X050361Y047544D01*
X050286Y047587D01*
X050206Y047620D01*
X050123Y047642D01*
X050051Y047652D01*
X050051Y047052D01*
X049936Y047052D01*
X049936Y047652D01*
X049865Y047642D01*
X049781Y047620D01*
X049701Y047587D01*
X049626Y047544D01*
X049558Y047491D01*
X049496Y047430D01*
X049444Y047361D01*
X049400Y047286D01*
X049375Y047226D01*
X049328Y047403D01*
X049188Y047645D01*
X048991Y047842D01*
X048749Y047981D01*
X048480Y048054D01*
X048201Y048054D01*
X047931Y047981D01*
X047689Y047842D01*
X047492Y047645D01*
X047352Y047403D01*
X047280Y047133D01*
X047280Y046854D01*
X047352Y046585D01*
X047492Y046343D01*
X047689Y046145D01*
X047931Y046006D01*
X048201Y045934D01*
X048480Y045934D01*
X048749Y046006D01*
X048991Y046145D01*
X049188Y046343D01*
X049328Y046585D01*
X049375Y046762D01*
X049400Y046701D01*
X049444Y046626D01*
X049496Y046558D01*
X049558Y046496D01*
X049626Y046444D01*
X049701Y046400D01*
X049781Y046367D01*
X049865Y046345D01*
X049936Y046336D01*
X049936Y046936D01*
X050051Y046936D01*
X050051Y046336D01*
X050123Y046345D01*
X050206Y046367D01*
X050286Y046400D01*
X050361Y046444D01*
X050430Y046496D01*
X050491Y046558D01*
X050544Y046626D01*
X050587Y046701D01*
X050612Y046762D01*
X050659Y046585D01*
X050799Y046343D01*
X050996Y046145D01*
X051088Y046093D01*
X050943Y045948D01*
X050817Y045643D01*
X050817Y045313D01*
X050943Y045007D01*
X051177Y044774D01*
X051482Y044647D01*
X051812Y044647D01*
X052118Y044774D01*
X052351Y045007D01*
X052478Y045313D01*
X052478Y045643D01*
X052478Y045508D02*
X056014Y045508D01*
X055856Y045349D02*
X052478Y045349D01*
X052427Y045191D02*
X055697Y045191D01*
X055544Y045032D02*
X052362Y045032D01*
X052218Y044874D02*
X055544Y044874D01*
X055544Y044715D02*
X051976Y044715D01*
X051907Y044240D02*
X055554Y044240D01*
X055544Y044398D02*
X005444Y044398D01*
X005444Y044250D02*
X004887Y043694D01*
X004100Y043694D01*
X003544Y044250D01*
X003544Y045037D01*
X004100Y045594D01*
X004887Y045594D01*
X005444Y045037D01*
X005444Y044250D01*
X005433Y044240D02*
X009080Y044240D01*
X009154Y044314D02*
X008674Y043833D01*
X008674Y043154D01*
X009154Y042674D01*
X009833Y042674D01*
X010314Y043154D01*
X010314Y043833D01*
X009833Y044314D01*
X009154Y044314D01*
X008922Y044081D02*
X005275Y044081D01*
X005116Y043923D02*
X008763Y043923D01*
X008674Y043764D02*
X004958Y043764D01*
X004030Y043764D02*
X000734Y043764D01*
X000734Y043606D02*
X008674Y043606D01*
X008674Y043447D02*
X000734Y043447D01*
X000734Y043289D02*
X008674Y043289D01*
X008697Y043130D02*
X000734Y043130D01*
X000734Y042972D02*
X008856Y042972D01*
X009014Y042813D02*
X000734Y042813D01*
X000734Y043923D02*
X003871Y043923D01*
X003713Y044081D02*
X000734Y044081D01*
X000734Y044240D02*
X003554Y044240D01*
X003544Y044398D02*
X000734Y044398D01*
X000734Y044557D02*
X003544Y044557D01*
X003544Y044715D02*
X000734Y044715D01*
X000734Y044874D02*
X003544Y044874D01*
X003544Y045032D02*
X000734Y045032D01*
X000734Y045191D02*
X003697Y045191D01*
X003856Y045349D02*
X000734Y045349D01*
X000734Y045508D02*
X004014Y045508D01*
X003596Y046300D02*
X008535Y046300D01*
X008492Y046343D02*
X008689Y046145D01*
X008931Y046006D01*
X009201Y045934D01*
X009480Y045934D01*
X009749Y046006D01*
X009991Y046145D01*
X010188Y046343D01*
X010328Y046585D01*
X010375Y046762D01*
X010400Y046701D01*
X010444Y046626D01*
X010496Y046558D01*
X010558Y046496D01*
X010626Y046444D01*
X010701Y046400D01*
X010781Y046367D01*
X010865Y046345D01*
X010936Y046336D01*
X010936Y046936D01*
X011051Y046936D01*
X011051Y046336D01*
X011123Y046345D01*
X011206Y046367D01*
X011286Y046400D01*
X011361Y046444D01*
X011430Y046496D01*
X011491Y046558D01*
X011544Y046626D01*
X011587Y046701D01*
X011612Y046762D01*
X011659Y046585D01*
X011799Y046343D01*
X011996Y046145D01*
X012088Y046093D01*
X011943Y045948D01*
X011817Y045643D01*
X011817Y045313D01*
X011943Y045007D01*
X012177Y044774D01*
X012482Y044647D01*
X012812Y044647D01*
X013118Y044774D01*
X013351Y045007D01*
X013478Y045313D01*
X013478Y045643D01*
X013351Y045948D01*
X013207Y046093D01*
X013298Y046145D01*
X013495Y046343D01*
X013635Y046585D01*
X013707Y046854D01*
X013707Y047133D01*
X013635Y047403D01*
X013495Y047645D01*
X013298Y047842D01*
X013056Y047981D01*
X012787Y048054D01*
X012508Y048054D01*
X012238Y047981D01*
X011996Y047842D01*
X011799Y047645D01*
X011659Y047403D01*
X011612Y047226D01*
X011587Y047286D01*
X011544Y047361D01*
X011491Y047430D01*
X011430Y047491D01*
X011361Y047544D01*
X011286Y047587D01*
X011206Y047620D01*
X011123Y047642D01*
X011051Y047652D01*
X011051Y047052D01*
X010936Y047052D01*
X010936Y047652D01*
X010865Y047642D01*
X010781Y047620D01*
X010701Y047587D01*
X010626Y047544D01*
X010558Y047491D01*
X010496Y047430D01*
X010444Y047361D01*
X010400Y047286D01*
X010375Y047226D01*
X010328Y047403D01*
X010188Y047645D01*
X009991Y047842D01*
X009749Y047981D01*
X009480Y048054D01*
X009201Y048054D01*
X008931Y047981D01*
X008689Y047842D01*
X008492Y047645D01*
X008352Y047403D01*
X008280Y047133D01*
X008280Y046854D01*
X008352Y046585D01*
X008492Y046343D01*
X008425Y046459D02*
X003884Y046459D01*
X004076Y046617D02*
X008344Y046617D01*
X008301Y046776D02*
X004267Y046776D01*
X004394Y046934D02*
X008280Y046934D01*
X008280Y047093D02*
X004509Y047093D01*
X004625Y047251D02*
X008312Y047251D01*
X008356Y047410D02*
X004704Y047410D01*
X004661Y047302D02*
X004661Y047302D01*
X004767Y047568D02*
X008448Y047568D01*
X008574Y047727D02*
X004830Y047727D01*
X004890Y047879D02*
X004890Y047879D01*
X004891Y047885D02*
X008764Y047885D01*
X009164Y048044D02*
X004911Y048044D01*
X004931Y048202D02*
X017044Y048202D01*
X017044Y048044D02*
X012824Y048044D01*
X012471Y048044D02*
X009517Y048044D01*
X009916Y047885D02*
X012071Y047885D01*
X011881Y047727D02*
X010106Y047727D01*
X010232Y047568D02*
X010669Y047568D01*
X010481Y047410D02*
X010324Y047410D01*
X010369Y047251D02*
X010386Y047251D01*
X010936Y047251D02*
X011051Y047251D01*
X011051Y047093D02*
X010936Y047093D01*
X010936Y046934D02*
X011051Y046934D01*
X011051Y046776D02*
X010936Y046776D01*
X010936Y046617D02*
X011051Y046617D01*
X011051Y046459D02*
X010936Y046459D01*
X010607Y046459D02*
X010255Y046459D01*
X010337Y046617D02*
X010451Y046617D01*
X010146Y046300D02*
X011842Y046300D01*
X011732Y046459D02*
X011381Y046459D01*
X011537Y046617D02*
X011651Y046617D01*
X012003Y046142D02*
X009985Y046142D01*
X009665Y045983D02*
X011978Y045983D01*
X011892Y045825D02*
X000734Y045825D01*
X000734Y045983D02*
X009016Y045983D01*
X008696Y046142D02*
X003260Y046142D01*
X002649Y046025D02*
X002649Y046025D01*
X001790Y046142D02*
X000734Y046142D01*
X000734Y046300D02*
X001370Y046300D01*
X001440Y046255D02*
X001440Y046255D01*
X001120Y046459D02*
X000734Y046459D01*
X000734Y046617D02*
X000889Y046617D01*
X000917Y046588D02*
X000917Y046588D01*
X000740Y046776D02*
X000734Y046776D01*
X000734Y045666D02*
X011826Y045666D01*
X011817Y045508D02*
X004973Y045508D01*
X005132Y045349D02*
X011817Y045349D01*
X011867Y045191D02*
X005290Y045191D01*
X005444Y045032D02*
X011933Y045032D01*
X012077Y044874D02*
X005444Y044874D01*
X005444Y044715D02*
X012318Y044715D01*
X012333Y044314D02*
X011654Y044314D01*
X011174Y043833D01*
X011174Y043154D01*
X011654Y042674D01*
X012333Y042674D01*
X012814Y043154D01*
X012814Y043833D01*
X012333Y044314D01*
X012407Y044240D02*
X048580Y044240D01*
X048654Y044314D02*
X048174Y043833D01*
X048174Y043154D01*
X048654Y042674D01*
X049333Y042674D01*
X049814Y043154D01*
X049814Y043833D01*
X049333Y044314D01*
X048654Y044314D01*
X048422Y044081D02*
X012566Y044081D01*
X012724Y043923D02*
X048263Y043923D01*
X048174Y043764D02*
X012814Y043764D01*
X012814Y043606D02*
X048174Y043606D01*
X048174Y043447D02*
X012814Y043447D01*
X012814Y043289D02*
X048174Y043289D01*
X048197Y043130D02*
X012790Y043130D01*
X012631Y042972D02*
X048356Y042972D01*
X048514Y042813D02*
X012473Y042813D01*
X011514Y042813D02*
X009973Y042813D01*
X010131Y042972D02*
X011356Y042972D01*
X011197Y043130D02*
X010290Y043130D01*
X010314Y043289D02*
X011174Y043289D01*
X011174Y043447D02*
X010314Y043447D01*
X010314Y043606D02*
X011174Y043606D01*
X011174Y043764D02*
X010314Y043764D01*
X010224Y043923D02*
X011263Y043923D01*
X011422Y044081D02*
X010066Y044081D01*
X009907Y044240D02*
X011580Y044240D01*
X012976Y044715D02*
X031818Y044715D01*
X031677Y044774D02*
X031982Y044647D01*
X032312Y044647D01*
X032618Y044774D01*
X032851Y045007D01*
X032978Y045313D01*
X032978Y045643D01*
X032851Y045948D01*
X032707Y046093D01*
X032798Y046145D01*
X032995Y046343D01*
X033135Y046585D01*
X033207Y046854D01*
X033207Y047133D01*
X033135Y047403D01*
X032995Y047645D01*
X032798Y047842D01*
X032556Y047981D01*
X032287Y048054D01*
X032008Y048054D01*
X031738Y047981D01*
X031496Y047842D01*
X031299Y047645D01*
X031159Y047403D01*
X031112Y047226D01*
X031087Y047286D01*
X031044Y047361D01*
X030991Y047430D01*
X030930Y047491D01*
X030861Y047544D01*
X030786Y047587D01*
X030706Y047620D01*
X030623Y047642D01*
X030551Y047652D01*
X030551Y047052D01*
X030436Y047052D01*
X030436Y047652D01*
X030365Y047642D01*
X030281Y047620D01*
X030201Y047587D01*
X030126Y047544D01*
X030058Y047491D01*
X029996Y047430D01*
X029944Y047361D01*
X029900Y047286D01*
X029875Y047226D01*
X029828Y047403D01*
X029688Y047645D01*
X029491Y047842D01*
X029249Y047981D01*
X028980Y048054D01*
X028701Y048054D01*
X028431Y047981D01*
X028189Y047842D01*
X027992Y047645D01*
X027852Y047403D01*
X027780Y047133D01*
X027780Y046854D01*
X027852Y046585D01*
X027992Y046343D01*
X028189Y046145D01*
X028431Y046006D01*
X028701Y045934D01*
X028980Y045934D01*
X029249Y046006D01*
X029491Y046145D01*
X029688Y046343D01*
X029828Y046585D01*
X029875Y046762D01*
X029900Y046701D01*
X029944Y046626D01*
X029996Y046558D01*
X030058Y046496D01*
X030126Y046444D01*
X030201Y046400D01*
X030281Y046367D01*
X030365Y046345D01*
X030436Y046336D01*
X030436Y046936D01*
X030551Y046936D01*
X030551Y046336D01*
X030623Y046345D01*
X030706Y046367D01*
X030786Y046400D01*
X030861Y046444D01*
X030930Y046496D01*
X030991Y046558D01*
X031044Y046626D01*
X031087Y046701D01*
X031112Y046762D01*
X031159Y046585D01*
X031299Y046343D01*
X031496Y046145D01*
X031588Y046093D01*
X031443Y045948D01*
X031317Y045643D01*
X031317Y045313D01*
X031443Y045007D01*
X031677Y044774D01*
X031577Y044874D02*
X013218Y044874D01*
X013362Y045032D02*
X031433Y045032D01*
X031367Y045191D02*
X013427Y045191D01*
X013478Y045349D02*
X031317Y045349D01*
X031317Y045508D02*
X013478Y045508D01*
X013468Y045666D02*
X031326Y045666D01*
X031392Y045825D02*
X013403Y045825D01*
X013317Y045983D02*
X028516Y045983D01*
X028196Y046142D02*
X013292Y046142D01*
X013453Y046300D02*
X028035Y046300D01*
X027925Y046459D02*
X013562Y046459D01*
X013644Y046617D02*
X027844Y046617D01*
X027801Y046776D02*
X013686Y046776D01*
X013707Y046934D02*
X027780Y046934D01*
X027780Y047093D02*
X013707Y047093D01*
X013676Y047251D02*
X017543Y047251D01*
X017600Y047194D02*
X018387Y047194D01*
X018944Y047750D01*
X018944Y048537D01*
X018387Y049094D01*
X017600Y049094D01*
X017044Y048537D01*
X017044Y047750D01*
X017600Y047194D01*
X017384Y047410D02*
X013631Y047410D01*
X013539Y047568D02*
X017226Y047568D01*
X017067Y047727D02*
X013413Y047727D01*
X013223Y047885D02*
X017044Y047885D01*
X017044Y048361D02*
X010363Y048361D01*
X010332Y048348D02*
X010637Y048475D01*
X010871Y048708D01*
X010997Y049014D01*
X010997Y049344D01*
X010871Y049649D01*
X010637Y049883D01*
X010332Y050009D01*
X010002Y050009D01*
X009696Y049883D01*
X009463Y049649D01*
X009336Y049344D01*
X009336Y049014D01*
X009463Y048708D01*
X009696Y048475D01*
X010002Y048348D01*
X010332Y048348D01*
X009971Y048361D02*
X004951Y048361D01*
X004964Y048519D02*
X009652Y048519D01*
X009493Y048678D02*
X004944Y048678D01*
X004924Y048836D02*
X009410Y048836D01*
X009344Y048995D02*
X004904Y048995D01*
X004890Y049109D02*
X004890Y049109D01*
X004872Y049153D02*
X009336Y049153D01*
X009336Y049312D02*
X004809Y049312D01*
X004747Y049470D02*
X009389Y049470D01*
X009454Y049629D02*
X004684Y049629D01*
X004587Y049787D02*
X009601Y049787D01*
X009848Y049946D02*
X004472Y049946D01*
X004357Y050104D02*
X056639Y050104D01*
X056492Y049948D02*
X056492Y049948D01*
X056491Y049946D02*
X049485Y049946D01*
X049637Y049883D02*
X049332Y050009D01*
X049002Y050009D01*
X048696Y049883D01*
X048463Y049649D01*
X048336Y049344D01*
X048336Y049014D01*
X048463Y048708D01*
X048696Y048475D01*
X049002Y048348D01*
X049332Y048348D01*
X049637Y048475D01*
X049871Y048708D01*
X049997Y049014D01*
X049997Y049344D01*
X049871Y049649D01*
X049637Y049883D01*
X049733Y049787D02*
X056404Y049787D01*
X056317Y049629D02*
X049879Y049629D01*
X049945Y049470D02*
X056230Y049470D01*
X056194Y049404D02*
X056194Y049404D01*
X056170Y049312D02*
X049997Y049312D01*
X049997Y049153D02*
X056129Y049153D01*
X056089Y048995D02*
X049990Y048995D01*
X049924Y048836D02*
X056048Y048836D01*
X056040Y048678D02*
X049841Y048678D01*
X049682Y048519D02*
X056040Y048519D01*
X056040Y048361D02*
X049363Y048361D01*
X048971Y048361D02*
X043944Y048361D01*
X043944Y048519D02*
X048652Y048519D01*
X048493Y048678D02*
X043803Y048678D01*
X043944Y048537D02*
X043387Y049094D01*
X042600Y049094D01*
X042044Y048537D01*
X042044Y047750D01*
X042600Y047194D01*
X043387Y047194D01*
X043944Y047750D01*
X043944Y048537D01*
X043944Y048202D02*
X056040Y048202D01*
X056075Y048044D02*
X051824Y048044D01*
X051471Y048044D02*
X048517Y048044D01*
X048164Y048044D02*
X043944Y048044D01*
X043944Y047885D02*
X047764Y047885D01*
X047574Y047727D02*
X043920Y047727D01*
X043762Y047568D02*
X047448Y047568D01*
X047356Y047410D02*
X043603Y047410D01*
X043445Y047251D02*
X047312Y047251D01*
X047280Y047093D02*
X033207Y047093D01*
X033207Y046934D02*
X047280Y046934D01*
X047301Y046776D02*
X033186Y046776D01*
X033144Y046617D02*
X047344Y046617D01*
X047425Y046459D02*
X033062Y046459D01*
X032953Y046300D02*
X047535Y046300D01*
X047696Y046142D02*
X032792Y046142D01*
X032817Y045983D02*
X048016Y045983D01*
X048665Y045983D02*
X050978Y045983D01*
X051003Y046142D02*
X048985Y046142D01*
X049146Y046300D02*
X050842Y046300D01*
X050732Y046459D02*
X050381Y046459D01*
X050537Y046617D02*
X050651Y046617D01*
X050051Y046617D02*
X049936Y046617D01*
X049936Y046459D02*
X050051Y046459D01*
X050051Y046776D02*
X049936Y046776D01*
X049936Y046934D02*
X050051Y046934D01*
X050051Y047093D02*
X049936Y047093D01*
X049936Y047251D02*
X050051Y047251D01*
X050051Y047410D02*
X049936Y047410D01*
X049936Y047568D02*
X050051Y047568D01*
X050319Y047568D02*
X050755Y047568D01*
X050663Y047410D02*
X050506Y047410D01*
X050601Y047251D02*
X050619Y047251D01*
X050881Y047727D02*
X049106Y047727D01*
X049232Y047568D02*
X049669Y047568D01*
X049481Y047410D02*
X049324Y047410D01*
X049369Y047251D02*
X049386Y047251D01*
X049337Y046617D02*
X049451Y046617D01*
X049607Y046459D02*
X049255Y046459D01*
X048916Y047885D02*
X051071Y047885D01*
X052223Y047885D02*
X056116Y047885D01*
X056157Y047727D02*
X052413Y047727D01*
X052539Y047568D02*
X056202Y047568D01*
X056194Y047583D02*
X056194Y047583D01*
X056289Y047410D02*
X052631Y047410D01*
X052676Y047251D02*
X056376Y047251D01*
X056463Y047093D02*
X052707Y047093D01*
X052707Y046934D02*
X056591Y046934D01*
X056740Y046776D02*
X052686Y046776D01*
X052644Y046617D02*
X056889Y046617D01*
X056917Y046588D02*
X056917Y046588D01*
X057120Y046459D02*
X052562Y046459D01*
X052453Y046300D02*
X057370Y046300D01*
X057440Y046255D02*
X057440Y046255D01*
X057790Y046142D02*
X052292Y046142D01*
X052317Y045983D02*
X060254Y045983D01*
X060254Y045825D02*
X052403Y045825D01*
X050892Y045825D02*
X032903Y045825D01*
X032968Y045666D02*
X050826Y045666D01*
X050817Y045508D02*
X032978Y045508D01*
X032978Y045349D02*
X050817Y045349D01*
X050867Y045191D02*
X032927Y045191D01*
X032862Y045032D02*
X050933Y045032D01*
X051077Y044874D02*
X032718Y044874D01*
X032476Y044715D02*
X051318Y044715D01*
X051080Y044240D02*
X049407Y044240D01*
X049566Y044081D02*
X050922Y044081D01*
X050763Y043923D02*
X049724Y043923D01*
X049814Y043764D02*
X050674Y043764D01*
X050674Y043606D02*
X049814Y043606D01*
X049814Y043447D02*
X050674Y043447D01*
X050674Y043289D02*
X049814Y043289D01*
X049790Y043130D02*
X050697Y043130D01*
X050856Y042972D02*
X049631Y042972D01*
X049473Y042813D02*
X051014Y042813D01*
X052314Y043764D02*
X056030Y043764D01*
X055871Y043923D02*
X052224Y043923D01*
X052066Y044081D02*
X055713Y044081D01*
X055544Y044557D02*
X005444Y044557D01*
X010936Y047410D02*
X011051Y047410D01*
X011051Y047568D02*
X010936Y047568D01*
X011319Y047568D02*
X011755Y047568D01*
X011663Y047410D02*
X011506Y047410D01*
X011601Y047251D02*
X011619Y047251D01*
X010682Y048519D02*
X017044Y048519D01*
X017184Y048678D02*
X010841Y048678D01*
X010924Y048836D02*
X017343Y048836D01*
X017501Y048995D02*
X010990Y048995D01*
X010997Y049153D02*
X028836Y049153D01*
X028836Y049014D02*
X028963Y048708D01*
X029196Y048475D01*
X029502Y048348D01*
X029832Y048348D01*
X030137Y048475D01*
X030371Y048708D01*
X030497Y049014D01*
X030497Y049344D01*
X030371Y049649D01*
X030137Y049883D01*
X029832Y050009D01*
X029502Y050009D01*
X029196Y049883D01*
X028963Y049649D01*
X028836Y049344D01*
X028836Y049014D01*
X028844Y048995D02*
X018486Y048995D01*
X018645Y048836D02*
X028910Y048836D01*
X028993Y048678D02*
X018803Y048678D01*
X018944Y048519D02*
X029152Y048519D01*
X029471Y048361D02*
X018944Y048361D01*
X018944Y048202D02*
X042044Y048202D01*
X042044Y048044D02*
X032324Y048044D01*
X031971Y048044D02*
X029017Y048044D01*
X028664Y048044D02*
X018944Y048044D01*
X018944Y047885D02*
X028264Y047885D01*
X028074Y047727D02*
X018920Y047727D01*
X018762Y047568D02*
X027948Y047568D01*
X027856Y047410D02*
X018603Y047410D01*
X018445Y047251D02*
X027812Y047251D01*
X029165Y045983D02*
X031478Y045983D01*
X031503Y046142D02*
X029485Y046142D01*
X029646Y046300D02*
X031342Y046300D01*
X031232Y046459D02*
X030881Y046459D01*
X031037Y046617D02*
X031151Y046617D01*
X030551Y046617D02*
X030436Y046617D01*
X030436Y046459D02*
X030551Y046459D01*
X030551Y046776D02*
X030436Y046776D01*
X030436Y046934D02*
X030551Y046934D01*
X030551Y047093D02*
X030436Y047093D01*
X030436Y047251D02*
X030551Y047251D01*
X030551Y047410D02*
X030436Y047410D01*
X030436Y047568D02*
X030551Y047568D01*
X030819Y047568D02*
X031255Y047568D01*
X031163Y047410D02*
X031006Y047410D01*
X031101Y047251D02*
X031119Y047251D01*
X031381Y047727D02*
X029606Y047727D01*
X029732Y047568D02*
X030169Y047568D01*
X029981Y047410D02*
X029824Y047410D01*
X029869Y047251D02*
X029886Y047251D01*
X029837Y046617D02*
X029951Y046617D01*
X030107Y046459D02*
X029755Y046459D01*
X029416Y047885D02*
X031571Y047885D01*
X032723Y047885D02*
X042044Y047885D01*
X042067Y047727D02*
X032913Y047727D01*
X033039Y047568D02*
X042226Y047568D01*
X042384Y047410D02*
X033131Y047410D01*
X033176Y047251D02*
X042543Y047251D01*
X042044Y048361D02*
X029863Y048361D01*
X030182Y048519D02*
X042044Y048519D01*
X042184Y048678D02*
X030341Y048678D01*
X030424Y048836D02*
X042343Y048836D01*
X042501Y048995D02*
X030490Y048995D01*
X030497Y049153D02*
X048336Y049153D01*
X048344Y048995D02*
X043486Y048995D01*
X043645Y048836D02*
X048410Y048836D01*
X048336Y049312D02*
X030497Y049312D01*
X030445Y049470D02*
X048389Y049470D01*
X048454Y049629D02*
X030379Y049629D01*
X030233Y049787D02*
X048601Y049787D01*
X048848Y049946D02*
X029985Y049946D01*
X029348Y049946D02*
X010485Y049946D01*
X010733Y049787D02*
X029101Y049787D01*
X028954Y049629D02*
X010879Y049629D01*
X010945Y049470D02*
X028889Y049470D01*
X028836Y049312D02*
X010997Y049312D01*
X004297Y050187D02*
X004297Y050187D01*
X009494Y039802D02*
X009494Y039802D01*
X009494Y039643D02*
X009494Y039643D01*
X009494Y039485D02*
X009494Y039485D01*
X009494Y039326D02*
X009494Y039326D01*
X009494Y039168D02*
X009494Y039168D01*
X009762Y039168D02*
X011726Y039168D01*
X011820Y039074D02*
X011574Y039320D01*
X011574Y039494D01*
X011994Y039494D01*
X011994Y039494D01*
X011994Y039074D01*
X011820Y039074D01*
X011994Y039168D02*
X011994Y039168D01*
X011994Y039326D02*
X011994Y039326D01*
X011994Y039485D02*
X011994Y039485D01*
X011994Y039643D02*
X011994Y039643D01*
X011994Y039802D02*
X011994Y039802D01*
X011708Y039802D02*
X009780Y039802D01*
X009914Y039643D02*
X011574Y039643D01*
X011574Y039485D02*
X009914Y039485D01*
X009914Y039326D02*
X011574Y039326D01*
X011635Y038851D02*
X009853Y038851D01*
X010011Y038692D02*
X011476Y038692D01*
X011318Y038534D02*
X010170Y038534D01*
X010328Y038375D02*
X011159Y038375D01*
X011134Y038217D02*
X010354Y038217D01*
X010354Y038058D02*
X011134Y038058D01*
X011134Y037900D02*
X010354Y037900D01*
X010354Y037741D02*
X011134Y037741D01*
X011188Y037583D02*
X010299Y037583D01*
X010140Y037424D02*
X011347Y037424D01*
X011505Y037266D02*
X009982Y037266D01*
X004914Y030767D02*
X056074Y030767D01*
X056100Y030794D02*
X055544Y030237D01*
X055544Y029450D01*
X056100Y028894D01*
X056887Y028894D01*
X057444Y029450D01*
X057444Y030237D01*
X056887Y030794D01*
X056100Y030794D01*
X055915Y030609D02*
X005072Y030609D01*
X005231Y030450D02*
X055757Y030450D01*
X055598Y030292D02*
X005389Y030292D01*
X005444Y030133D02*
X055544Y030133D01*
X055544Y029975D02*
X005444Y029975D01*
X005444Y029816D02*
X055544Y029816D01*
X055544Y029658D02*
X005444Y029658D01*
X005444Y029499D02*
X055544Y029499D01*
X055653Y029341D02*
X005334Y029341D01*
X005176Y029182D02*
X055812Y029182D01*
X055970Y029024D02*
X005017Y029024D01*
X004764Y023635D02*
X004724Y023635D01*
X004724Y023476D02*
X004764Y023476D01*
X004764Y023318D02*
X004724Y023318D01*
X004724Y023159D02*
X004764Y023159D01*
X004764Y023001D02*
X004724Y023001D01*
X004724Y022842D02*
X004764Y022842D01*
X012252Y022050D02*
X015094Y022050D01*
X015094Y022208D02*
X012505Y022208D01*
X012639Y022367D02*
X015094Y022367D01*
X015094Y022525D02*
X012704Y022525D01*
X012734Y022684D02*
X015094Y022684D01*
X015082Y022842D02*
X012734Y022842D01*
X012688Y023001D02*
X015056Y023001D01*
X015088Y023159D02*
X012623Y023159D01*
X012466Y023318D02*
X015198Y023318D01*
X015094Y021257D02*
X014527Y021257D01*
X014648Y021099D02*
X015094Y021099D01*
X015094Y020940D02*
X014713Y020940D01*
X014734Y020782D02*
X015094Y020782D01*
X015094Y020623D02*
X014734Y020623D01*
X014679Y020465D02*
X015094Y020465D01*
X015094Y020306D02*
X014603Y020306D01*
X014444Y020148D02*
X015094Y020148D01*
X017394Y019355D02*
X060254Y019355D01*
X060254Y019197D02*
X017394Y019197D01*
X017394Y019038D02*
X060254Y019038D01*
X060254Y018880D02*
X017394Y018880D01*
X017394Y018721D02*
X060254Y018721D01*
X060254Y018563D02*
X017432Y018563D01*
X024281Y021574D02*
X036706Y021574D01*
X036548Y021733D02*
X024440Y021733D01*
X024494Y021891D02*
X036494Y021891D01*
X036494Y022050D02*
X024494Y022050D01*
X024486Y022208D02*
X036501Y022208D01*
X036660Y022367D02*
X024328Y022367D01*
X024342Y023635D02*
X036646Y023635D01*
X036787Y023494D02*
X037201Y023494D01*
X037494Y023787D01*
X037494Y024201D01*
X037201Y024494D01*
X036787Y024494D01*
X036494Y024201D01*
X036494Y023787D01*
X036787Y023494D01*
X036494Y023793D02*
X024494Y023793D01*
X024494Y023952D02*
X036494Y023952D01*
X036494Y024110D02*
X024494Y024110D01*
X024426Y024269D02*
X036562Y024269D01*
X036720Y024427D02*
X024267Y024427D01*
X024414Y025854D02*
X036574Y025854D01*
X036574Y026012D02*
X024414Y026012D01*
X024411Y026171D02*
X036577Y026171D01*
X036735Y026329D02*
X024252Y026329D01*
X026836Y032511D02*
X018504Y032511D01*
X018663Y032669D02*
X026678Y032669D01*
X026581Y032828D02*
X018821Y032828D01*
X018944Y032986D02*
X026581Y032986D01*
X026581Y033145D02*
X018944Y033145D01*
X018944Y033303D02*
X026581Y033303D01*
X026581Y033462D02*
X018944Y033462D01*
X018944Y033620D02*
X026680Y033620D01*
X026838Y033779D02*
X018902Y033779D01*
X018744Y033937D02*
X026997Y033937D01*
X024587Y038217D02*
X036400Y038217D01*
X036165Y038375D02*
X024822Y038375D01*
X024981Y038534D02*
X027323Y038534D01*
X027428Y038429D02*
X027789Y038429D01*
X027789Y039414D01*
X027949Y039414D01*
X027949Y039574D01*
X028934Y039574D01*
X028934Y039935D01*
X028310Y040559D01*
X027949Y040559D01*
X027949Y039574D01*
X027789Y039574D01*
X027789Y040559D01*
X027428Y040559D01*
X026804Y039935D01*
X026804Y039574D01*
X027789Y039574D01*
X027789Y039414D01*
X026804Y039414D01*
X026804Y039053D01*
X027428Y038429D01*
X027164Y038692D02*
X025098Y038692D01*
X025189Y038851D02*
X027006Y038851D01*
X026847Y039009D02*
X025256Y039009D01*
X025298Y039168D02*
X026804Y039168D01*
X026804Y039326D02*
X025334Y039326D01*
X025334Y039485D02*
X027789Y039485D01*
X027789Y039643D02*
X027949Y039643D01*
X027949Y039485D02*
X033039Y039485D01*
X033039Y039414D02*
X032054Y039414D01*
X032054Y039053D01*
X032678Y038429D01*
X033039Y038429D01*
X033039Y039414D01*
X033199Y039414D01*
X033199Y039574D01*
X034184Y039574D01*
X034184Y039935D01*
X033560Y040559D01*
X033199Y040559D01*
X033199Y039574D01*
X033039Y039574D01*
X033039Y040559D01*
X032678Y040559D01*
X032054Y039935D01*
X032054Y039574D01*
X033039Y039574D01*
X033039Y039414D01*
X033039Y039326D02*
X033199Y039326D01*
X033199Y039414D02*
X033199Y038429D01*
X033560Y038429D01*
X034184Y039053D01*
X034184Y039414D01*
X033199Y039414D01*
X033199Y039485D02*
X035654Y039485D01*
X035654Y039643D02*
X034184Y039643D01*
X034184Y039802D02*
X035685Y039802D01*
X035727Y039960D02*
X034158Y039960D01*
X034000Y040119D02*
X035788Y040119D01*
X035879Y040277D02*
X033841Y040277D01*
X033683Y040436D02*
X035989Y040436D01*
X036147Y040594D02*
X024840Y040594D01*
X024998Y040436D02*
X027305Y040436D01*
X027146Y040277D02*
X025108Y040277D01*
X025199Y040119D02*
X026988Y040119D01*
X026829Y039960D02*
X025260Y039960D01*
X025303Y039802D02*
X026804Y039802D01*
X026804Y039643D02*
X025334Y039643D01*
X024618Y040753D02*
X036369Y040753D01*
X035654Y039326D02*
X034184Y039326D01*
X034184Y039168D02*
X035689Y039168D01*
X035732Y039009D02*
X034140Y039009D01*
X033982Y038851D02*
X035798Y038851D01*
X035890Y038692D02*
X033823Y038692D01*
X033665Y038534D02*
X036007Y038534D01*
X036816Y038058D02*
X024172Y038058D01*
X027789Y038534D02*
X027949Y038534D01*
X027949Y038429D02*
X028310Y038429D01*
X028934Y039053D01*
X028934Y039414D01*
X027949Y039414D01*
X027949Y038429D01*
X027949Y038692D02*
X027789Y038692D01*
X027789Y038851D02*
X027949Y038851D01*
X027949Y039009D02*
X027789Y039009D01*
X027789Y039168D02*
X027949Y039168D01*
X027949Y039326D02*
X027789Y039326D01*
X027789Y039802D02*
X027949Y039802D01*
X027949Y039960D02*
X027789Y039960D01*
X027789Y040119D02*
X027949Y040119D01*
X027949Y040277D02*
X027789Y040277D01*
X027789Y040436D02*
X027949Y040436D01*
X028433Y040436D02*
X032555Y040436D01*
X032396Y040277D02*
X028591Y040277D01*
X028750Y040119D02*
X032238Y040119D01*
X032079Y039960D02*
X028908Y039960D01*
X028934Y039802D02*
X032054Y039802D01*
X032054Y039643D02*
X028934Y039643D01*
X028934Y039326D02*
X032054Y039326D01*
X032054Y039168D02*
X028934Y039168D01*
X028890Y039009D02*
X032097Y039009D01*
X032256Y038851D02*
X028732Y038851D01*
X028573Y038692D02*
X032414Y038692D01*
X032573Y038534D02*
X028415Y038534D01*
X033039Y038534D02*
X033199Y038534D01*
X033199Y038692D02*
X033039Y038692D01*
X033039Y038851D02*
X033199Y038851D01*
X033199Y039009D02*
X033039Y039009D01*
X033039Y039168D02*
X033199Y039168D01*
X033199Y039643D02*
X033039Y039643D01*
X033039Y039802D02*
X033199Y039802D01*
X033199Y039960D02*
X033039Y039960D01*
X033039Y040119D02*
X033199Y040119D01*
X033199Y040277D02*
X033039Y040277D01*
X033039Y040436D02*
X033199Y040436D01*
X037422Y038058D02*
X048134Y038058D01*
X048134Y038217D02*
X037837Y038217D01*
X038072Y038375D02*
X048159Y038375D01*
X048318Y038534D02*
X038231Y038534D01*
X038348Y038692D02*
X048476Y038692D01*
X048635Y038851D02*
X038439Y038851D01*
X038584Y039326D02*
X048574Y039326D01*
X048574Y039485D02*
X038584Y039485D01*
X038584Y039643D02*
X048574Y039643D01*
X048708Y039802D02*
X038553Y039802D01*
X042561Y034254D02*
X018427Y034254D01*
X018585Y034096D02*
X042402Y034096D01*
X043427Y034254D02*
X060254Y034254D01*
X060254Y034096D02*
X043585Y034096D01*
X043744Y033937D02*
X060254Y033937D01*
X060254Y033779D02*
X043902Y033779D01*
X043944Y033620D02*
X060254Y033620D01*
X060254Y033462D02*
X043944Y033462D01*
X043944Y033303D02*
X060254Y033303D01*
X060254Y033145D02*
X043944Y033145D01*
X043944Y032986D02*
X060254Y032986D01*
X060254Y032828D02*
X051876Y032828D01*
X051850Y032854D02*
X051137Y032854D01*
X050634Y032350D01*
X050634Y031637D01*
X051137Y031134D01*
X051850Y031134D01*
X052354Y031637D01*
X052354Y032350D01*
X051850Y032854D01*
X052034Y032669D02*
X060254Y032669D01*
X060254Y032511D02*
X052193Y032511D01*
X052351Y032352D02*
X060254Y032352D01*
X060254Y032194D02*
X052354Y032194D01*
X052354Y032035D02*
X060254Y032035D01*
X060254Y031877D02*
X052354Y031877D01*
X052354Y031718D02*
X060254Y031718D01*
X060254Y031560D02*
X052276Y031560D01*
X052117Y031401D02*
X060254Y031401D01*
X060254Y031243D02*
X051959Y031243D01*
X051028Y031243D02*
X049459Y031243D01*
X049617Y031401D02*
X050870Y031401D01*
X050711Y031560D02*
X049776Y031560D01*
X049854Y031718D02*
X050634Y031718D01*
X050634Y031877D02*
X049854Y031877D01*
X049854Y032035D02*
X050634Y032035D01*
X050634Y032194D02*
X049854Y032194D01*
X049851Y032352D02*
X050636Y032352D01*
X050795Y032511D02*
X049693Y032511D01*
X049534Y032669D02*
X050953Y032669D01*
X051112Y032828D02*
X049376Y032828D01*
X048612Y032828D02*
X043821Y032828D01*
X043663Y032669D02*
X048453Y032669D01*
X048295Y032511D02*
X043504Y032511D01*
X047553Y028231D02*
X060254Y028231D01*
X060254Y028073D02*
X047658Y028073D01*
X047724Y027914D02*
X060254Y027914D01*
X060254Y027756D02*
X047734Y027756D01*
X047577Y027280D02*
X060254Y027280D01*
X060254Y027122D02*
X047418Y027122D01*
X046575Y027116D02*
X046366Y027325D01*
X046254Y027597D01*
X046319Y027439D02*
X045009Y027439D01*
X044950Y027280D02*
X046411Y027280D01*
X048417Y023635D02*
X037342Y023635D01*
X037494Y023793D02*
X048815Y023793D01*
X049172Y023793D02*
X055880Y023793D01*
X055953Y023637D02*
X055894Y023595D01*
X055843Y023543D01*
X055800Y023485D01*
X055767Y023420D01*
X055745Y023351D01*
X055734Y023280D01*
X055734Y023264D01*
X056474Y023264D01*
X056474Y023704D01*
X056157Y023704D01*
X056086Y023692D01*
X056017Y023670D01*
X055953Y023637D01*
X055949Y023635D02*
X049570Y023635D01*
X049760Y023476D02*
X055796Y023476D01*
X055740Y023318D02*
X049886Y023318D01*
X049978Y023159D02*
X055741Y023159D01*
X055745Y023136D02*
X055767Y023067D01*
X055800Y023003D01*
X055843Y022944D01*
X055894Y022893D01*
X055953Y022850D01*
X056017Y022817D01*
X056086Y022795D01*
X056157Y022784D01*
X056474Y022784D01*
X056474Y023224D01*
X056514Y023224D01*
X056514Y023264D01*
X056474Y023264D01*
X056474Y023224D01*
X055734Y023224D01*
X055734Y023207D01*
X055745Y023136D01*
X055802Y023001D02*
X050022Y023001D01*
X050054Y022842D02*
X055968Y022842D01*
X056474Y022842D02*
X056514Y022842D01*
X056514Y022784D02*
X056830Y022784D01*
X056901Y022795D01*
X056970Y022817D01*
X057035Y022850D01*
X057093Y022893D01*
X057145Y022944D01*
X057187Y023003D01*
X057220Y023067D01*
X057242Y023136D01*
X057254Y023207D01*
X057254Y023224D01*
X056514Y023224D01*
X056514Y022784D01*
X056514Y023001D02*
X056474Y023001D01*
X056474Y023159D02*
X056514Y023159D01*
X056514Y023264D02*
X057254Y023264D01*
X057254Y023280D01*
X057242Y023351D01*
X057220Y023420D01*
X057187Y023485D01*
X057145Y023543D01*
X057093Y023595D01*
X057035Y023637D01*
X056970Y023670D01*
X056901Y023692D01*
X056830Y023704D01*
X056514Y023704D01*
X056514Y023264D01*
X056514Y023318D02*
X056474Y023318D01*
X056474Y023476D02*
X056514Y023476D01*
X056514Y023635D02*
X056474Y023635D01*
X057038Y023635D02*
X060254Y023635D01*
X060254Y023793D02*
X057107Y023793D01*
X057257Y023952D02*
X060254Y023952D01*
X060254Y024110D02*
X057323Y024110D01*
X057334Y024269D02*
X060254Y024269D01*
X060254Y024427D02*
X057302Y024427D01*
X057215Y024586D02*
X060254Y024586D01*
X060254Y024744D02*
X056999Y024744D01*
X057216Y024903D02*
X060254Y024903D01*
X060254Y025061D02*
X057303Y025061D01*
X057334Y025220D02*
X060254Y025220D01*
X060254Y025378D02*
X057322Y025378D01*
X057257Y025537D02*
X060254Y025537D01*
X060254Y025695D02*
X057106Y025695D01*
X058244Y026037D02*
X058537Y025744D01*
X058951Y025744D01*
X059244Y026037D01*
X059244Y026451D01*
X058951Y026744D01*
X058537Y026744D01*
X058244Y026451D01*
X058244Y026037D01*
X058268Y026012D02*
X054469Y026012D01*
X054494Y026171D02*
X058244Y026171D01*
X058244Y026329D02*
X054494Y026329D01*
X054457Y026488D02*
X058281Y026488D01*
X058439Y026646D02*
X054298Y026646D01*
X054311Y025854D02*
X058427Y025854D01*
X059061Y025854D02*
X060254Y025854D01*
X060254Y026012D02*
X059219Y026012D01*
X059244Y026171D02*
X060254Y026171D01*
X060254Y026329D02*
X059244Y026329D01*
X059207Y026488D02*
X060254Y026488D01*
X060254Y026646D02*
X059048Y026646D01*
X060254Y029024D02*
X057017Y029024D01*
X057176Y029182D02*
X060254Y029182D01*
X060254Y029341D02*
X057334Y029341D01*
X057444Y029499D02*
X060254Y029499D01*
X060254Y029658D02*
X057444Y029658D01*
X057444Y029816D02*
X060254Y029816D01*
X060254Y029975D02*
X057444Y029975D01*
X057444Y030133D02*
X060254Y030133D01*
X060254Y030292D02*
X057389Y030292D01*
X057231Y030450D02*
X060254Y030450D01*
X060254Y030609D02*
X057072Y030609D01*
X056914Y030767D02*
X060254Y030767D01*
X060254Y037266D02*
X051982Y037266D01*
X052140Y037424D02*
X060254Y037424D01*
X060254Y037583D02*
X052299Y037583D01*
X052354Y037741D02*
X060254Y037741D01*
X060254Y037900D02*
X052354Y037900D01*
X052354Y038058D02*
X060254Y038058D01*
X060254Y038217D02*
X052354Y038217D01*
X052328Y038375D02*
X060254Y038375D01*
X060254Y038534D02*
X052170Y038534D01*
X052011Y038692D02*
X060254Y038692D01*
X060254Y046142D02*
X059260Y046142D01*
X059596Y046300D02*
X060254Y046300D01*
X060254Y046459D02*
X059884Y046459D01*
X060076Y046617D02*
X060254Y046617D01*
X058649Y046025D02*
X058649Y046025D01*
X055685Y024427D02*
X037267Y024427D01*
X037426Y024269D02*
X055654Y024269D01*
X055664Y024110D02*
X037494Y024110D01*
X037494Y023952D02*
X055730Y023952D01*
X057191Y023476D02*
X060254Y023476D01*
X060254Y023318D02*
X057248Y023318D01*
X057246Y023159D02*
X060254Y023159D01*
X060254Y023001D02*
X057186Y023001D01*
X057019Y022842D02*
X060254Y022842D01*
X060254Y022684D02*
X050054Y022684D01*
X050033Y022525D02*
X053681Y022525D01*
X053574Y022418D02*
X053820Y022664D01*
X053994Y022664D01*
X053994Y022244D01*
X053994Y022244D01*
X054414Y022244D01*
X054414Y022418D01*
X054168Y022664D01*
X053994Y022664D01*
X053994Y022244D01*
X053994Y022244D01*
X054414Y022244D01*
X054414Y022070D01*
X054168Y021824D01*
X053994Y021824D01*
X053994Y022244D01*
X053994Y022244D01*
X053574Y022244D01*
X053574Y022418D01*
X053574Y022367D02*
X049990Y022367D01*
X049909Y022208D02*
X053574Y022208D01*
X053574Y022244D02*
X053574Y022070D01*
X053820Y021824D01*
X053994Y021824D01*
X053994Y022244D01*
X053994Y022244D01*
X053574Y022244D01*
X053594Y022050D02*
X049799Y022050D01*
X049637Y021891D02*
X053752Y021891D01*
X053994Y021891D02*
X053994Y021891D01*
X053994Y022050D02*
X053994Y022050D01*
X053994Y022208D02*
X053994Y022208D01*
X053994Y022367D02*
X053994Y022367D01*
X053994Y022525D02*
X053994Y022525D01*
X054306Y022525D02*
X058431Y022525D01*
X058324Y022418D02*
X058324Y022244D01*
X058744Y022244D01*
X058744Y022244D01*
X058744Y022664D01*
X058918Y022664D01*
X059164Y022418D01*
X059164Y022244D01*
X058744Y022244D01*
X058744Y022244D01*
X058744Y022664D01*
X058570Y022664D01*
X058324Y022418D01*
X058324Y022367D02*
X054414Y022367D01*
X054414Y022208D02*
X058324Y022208D01*
X058324Y022244D02*
X058324Y022070D01*
X058570Y021824D01*
X058744Y021824D01*
X058918Y021824D01*
X059164Y022070D01*
X059164Y022244D01*
X058744Y022244D01*
X058744Y022244D01*
X058744Y021824D01*
X058744Y022244D01*
X058744Y022244D01*
X058324Y022244D01*
X058344Y022050D02*
X054394Y022050D01*
X054235Y021891D02*
X058502Y021891D01*
X058744Y021891D02*
X058744Y021891D01*
X058744Y022050D02*
X058744Y022050D01*
X058744Y022208D02*
X058744Y022208D01*
X058744Y022367D02*
X058744Y022367D01*
X058744Y022525D02*
X058744Y022525D01*
X059056Y022525D02*
X060254Y022525D01*
X060254Y022367D02*
X059164Y022367D01*
X059164Y022208D02*
X060254Y022208D01*
X060254Y022050D02*
X059144Y022050D01*
X058985Y021891D02*
X060254Y021891D01*
X060254Y021733D02*
X049316Y021733D01*
X043494Y012698D02*
X035034Y012698D01*
X035014Y012540D02*
X043494Y012540D01*
X043494Y012381D02*
X034945Y012381D01*
X034768Y012223D02*
X043558Y012223D01*
X043716Y012064D02*
X019494Y012064D01*
X019472Y012223D02*
X027220Y012223D01*
X027043Y012381D02*
X026832Y012381D01*
X026845Y012394D02*
X026793Y012343D01*
X026735Y012300D01*
X026670Y012267D01*
X026601Y012245D01*
X026530Y012234D01*
X026514Y012234D01*
X026514Y012974D01*
X026954Y012974D01*
X026954Y012657D01*
X026942Y012586D01*
X026920Y012517D01*
X026887Y012453D01*
X026845Y012394D01*
X026927Y012540D02*
X026973Y012540D01*
X026954Y012698D02*
X026954Y012698D01*
X026954Y012857D02*
X026954Y012857D01*
X026954Y013015D02*
X026954Y013015D01*
X026954Y013174D02*
X026954Y013174D01*
X026953Y013332D02*
X026954Y013332D01*
X026991Y013491D02*
X026910Y013491D01*
X026787Y013649D02*
X027086Y013649D01*
X026514Y013649D02*
X026474Y013649D01*
X026474Y013491D02*
X026514Y013491D01*
X026514Y013332D02*
X026474Y013332D01*
X026474Y013174D02*
X026514Y013174D01*
X026514Y013015D02*
X026474Y013015D01*
X026474Y012857D02*
X026514Y012857D01*
X026514Y012698D02*
X026474Y012698D01*
X026474Y012540D02*
X026514Y012540D01*
X026514Y012381D02*
X026474Y012381D01*
X026156Y012381D02*
X019313Y012381D01*
X025474Y009845D02*
X025514Y009845D01*
X025514Y009687D02*
X025474Y009687D01*
X025474Y009528D02*
X025514Y009528D01*
X025514Y009370D02*
X025474Y009370D01*
X025474Y009211D02*
X025514Y009211D01*
X025514Y009053D02*
X025474Y009053D01*
X025474Y008894D02*
X025514Y008894D01*
X025514Y008736D02*
X025474Y008736D01*
X027768Y012223D02*
X028220Y012223D01*
X028043Y012381D02*
X027945Y012381D01*
X028768Y012223D02*
X032220Y012223D01*
X032043Y012381D02*
X028945Y012381D01*
X029014Y012540D02*
X031973Y012540D01*
X031954Y012698D02*
X029034Y012698D01*
X029034Y012857D02*
X031954Y012857D01*
X031954Y013015D02*
X029034Y013015D01*
X029034Y013174D02*
X031954Y013174D01*
X031954Y013332D02*
X029034Y013332D01*
X028997Y013491D02*
X031991Y013491D01*
X032086Y013649D02*
X028902Y013649D01*
X028887Y016344D02*
X027890Y016344D01*
X028049Y016502D02*
X031052Y016502D01*
X031210Y016344D02*
X029601Y016344D01*
X030834Y016819D02*
X028234Y016819D01*
X028207Y016661D02*
X030893Y016661D01*
X031474Y016661D02*
X031514Y016661D01*
X031514Y016819D02*
X031474Y016819D01*
X031474Y016502D02*
X031514Y016502D01*
X031514Y016344D02*
X031474Y016344D01*
X032154Y017136D02*
X032754Y017136D01*
X032817Y017295D02*
X032126Y017295D01*
X031968Y017453D02*
X032907Y017453D01*
X033065Y017612D02*
X031809Y017612D01*
X032902Y013649D02*
X033200Y013649D01*
X033194Y013645D02*
X033143Y013593D01*
X033100Y013535D01*
X033067Y013470D01*
X033045Y013401D01*
X033034Y013330D01*
X033034Y013014D01*
X033474Y013014D01*
X033474Y013754D01*
X033457Y013754D01*
X033386Y013742D01*
X033317Y013720D01*
X033253Y013687D01*
X033194Y013645D01*
X033078Y013491D02*
X032997Y013491D01*
X033034Y013332D02*
X033034Y013332D01*
X033034Y013174D02*
X033034Y013174D01*
X033034Y013015D02*
X033034Y013015D01*
X033034Y012974D02*
X033034Y012657D01*
X033045Y012586D01*
X033067Y012517D01*
X033100Y012453D01*
X033143Y012394D01*
X033194Y012343D01*
X033253Y012300D01*
X033317Y012267D01*
X033386Y012245D01*
X033457Y012234D01*
X033474Y012234D01*
X033474Y012974D01*
X033514Y012974D01*
X033514Y013014D01*
X033954Y013014D01*
X033954Y013330D01*
X033942Y013401D01*
X033920Y013470D01*
X033887Y013535D01*
X033845Y013593D01*
X033793Y013645D01*
X033735Y013687D01*
X033670Y013720D01*
X033601Y013742D01*
X033530Y013754D01*
X033514Y013754D01*
X033514Y013014D01*
X033474Y013014D01*
X033474Y012974D01*
X033034Y012974D01*
X033034Y012857D02*
X033034Y012857D01*
X033034Y012698D02*
X033034Y012698D01*
X033014Y012540D02*
X033060Y012540D01*
X033156Y012381D02*
X032945Y012381D01*
X032768Y012223D02*
X034220Y012223D01*
X034043Y012381D02*
X033832Y012381D01*
X033845Y012394D02*
X033887Y012453D01*
X033920Y012517D01*
X033942Y012586D01*
X033954Y012657D01*
X033954Y012974D01*
X033514Y012974D01*
X033514Y012234D01*
X033530Y012234D01*
X033601Y012245D01*
X033670Y012267D01*
X033735Y012300D01*
X033793Y012343D01*
X033845Y012394D01*
X033927Y012540D02*
X033973Y012540D01*
X033954Y012698D02*
X033954Y012698D01*
X033954Y012857D02*
X033954Y012857D01*
X033954Y013015D02*
X033954Y013015D01*
X033954Y013174D02*
X033954Y013174D01*
X033953Y013332D02*
X033954Y013332D01*
X033991Y013491D02*
X033910Y013491D01*
X033787Y013649D02*
X034086Y013649D01*
X033514Y013649D02*
X033474Y013649D01*
X033474Y013491D02*
X033514Y013491D01*
X033514Y013332D02*
X033474Y013332D01*
X033474Y013174D02*
X033514Y013174D01*
X033514Y013015D02*
X033474Y013015D01*
X033474Y012857D02*
X033514Y012857D01*
X033514Y012698D02*
X033474Y012698D01*
X033474Y012540D02*
X033514Y012540D01*
X033514Y012381D02*
X033474Y012381D01*
X035034Y013174D02*
X060254Y013174D01*
X060254Y013332D02*
X035034Y013332D01*
X034997Y013491D02*
X060254Y013491D01*
X060254Y013649D02*
X034902Y013649D01*
X031431Y010638D02*
X029557Y010638D01*
X029715Y010479D02*
X031272Y010479D01*
X031244Y010321D02*
X029744Y010321D01*
X029744Y010162D02*
X031244Y010162D01*
X031277Y010004D02*
X029711Y010004D01*
X029552Y009845D02*
X031435Y009845D01*
X031483Y008577D02*
X029504Y008577D01*
X029663Y008419D02*
X031325Y008419D01*
X031324Y008260D02*
X029664Y008260D01*
X029664Y008102D02*
X031324Y008102D01*
X031905Y004238D02*
X031632Y004125D01*
X031424Y003916D01*
X031311Y003643D01*
X031311Y002344D01*
X031424Y002071D01*
X031632Y001863D01*
X031905Y001750D01*
X032200Y001750D01*
X032473Y001863D01*
X032682Y002071D01*
X032795Y002344D01*
X032795Y003643D01*
X032682Y003916D01*
X032473Y004125D01*
X032200Y004238D01*
X031905Y004238D01*
X031668Y004139D02*
X030650Y004139D01*
X030623Y004146D02*
X030574Y004153D01*
X030574Y003074D01*
X030414Y003074D01*
X030414Y004153D01*
X030364Y004146D01*
X030280Y004124D01*
X030200Y004091D01*
X030125Y004047D01*
X030056Y003994D01*
X029995Y003933D01*
X029942Y003864D01*
X029899Y003789D01*
X029866Y003709D01*
X029843Y003625D01*
X029832Y003539D01*
X029832Y003074D01*
X030414Y003074D01*
X030414Y002914D01*
X029832Y002914D01*
X029832Y002448D01*
X029843Y002362D01*
X029866Y002278D01*
X029899Y002198D01*
X029942Y002123D01*
X029995Y002054D01*
X030056Y001993D01*
X030125Y001940D01*
X030200Y001897D01*
X030280Y001864D01*
X030364Y001841D01*
X030414Y001835D01*
X030414Y002914D01*
X030574Y002914D01*
X030574Y003074D01*
X031156Y003074D01*
X031156Y003539D01*
X031144Y003625D01*
X031122Y003709D01*
X031089Y003789D01*
X031045Y003864D01*
X030992Y003933D01*
X030931Y003994D01*
X030862Y004047D01*
X030787Y004091D01*
X030707Y004124D01*
X030623Y004146D01*
X030574Y004139D02*
X030414Y004139D01*
X030338Y004139D02*
X029320Y004139D01*
X029355Y004125D02*
X029082Y004238D01*
X028787Y004238D01*
X028514Y004125D01*
X028306Y003916D01*
X028193Y003643D01*
X028193Y002344D01*
X028306Y002071D01*
X028514Y001863D01*
X028787Y001750D01*
X029082Y001750D01*
X029355Y001863D01*
X029564Y002071D01*
X029677Y002344D01*
X029677Y003643D01*
X029564Y003916D01*
X029355Y004125D01*
X029499Y003981D02*
X030043Y003981D01*
X029918Y003822D02*
X029602Y003822D01*
X029668Y003664D02*
X029853Y003664D01*
X029832Y003505D02*
X029677Y003505D01*
X029677Y003347D02*
X029832Y003347D01*
X029832Y003188D02*
X029677Y003188D01*
X029677Y003030D02*
X030414Y003030D01*
X030414Y003188D02*
X030574Y003188D01*
X030574Y003030D02*
X031311Y003030D01*
X031311Y003188D02*
X031156Y003188D01*
X031156Y003347D02*
X031311Y003347D01*
X031311Y003505D02*
X031156Y003505D01*
X031134Y003664D02*
X031319Y003664D01*
X031385Y003822D02*
X031070Y003822D01*
X030945Y003981D02*
X031488Y003981D01*
X030574Y003981D02*
X030414Y003981D01*
X030414Y003822D02*
X030574Y003822D01*
X030574Y003664D02*
X030414Y003664D01*
X030414Y003505D02*
X030574Y003505D01*
X030574Y003347D02*
X030414Y003347D01*
X030574Y002914D02*
X031156Y002914D01*
X031156Y002448D01*
X031144Y002362D01*
X031122Y002278D01*
X031089Y002198D01*
X031045Y002123D01*
X030992Y002054D01*
X030931Y001993D01*
X030862Y001940D01*
X030787Y001897D01*
X030707Y001864D01*
X030623Y001841D01*
X030574Y001835D01*
X030574Y002914D01*
X030574Y002871D02*
X030414Y002871D01*
X030414Y002713D02*
X030574Y002713D01*
X030574Y002554D02*
X030414Y002554D01*
X030414Y002396D02*
X030574Y002396D01*
X030574Y002237D02*
X030414Y002237D01*
X030414Y002079D02*
X030574Y002079D01*
X030574Y001920D02*
X030414Y001920D01*
X030160Y001920D02*
X029412Y001920D01*
X029567Y002079D02*
X029976Y002079D01*
X029883Y002237D02*
X029632Y002237D01*
X029677Y002396D02*
X029839Y002396D01*
X029832Y002554D02*
X029677Y002554D01*
X029677Y002713D02*
X029832Y002713D01*
X029832Y002871D02*
X029677Y002871D01*
X029111Y001762D02*
X031876Y001762D01*
X031575Y001920D02*
X030828Y001920D01*
X031011Y002079D02*
X031421Y002079D01*
X031355Y002237D02*
X031105Y002237D01*
X031149Y002396D02*
X031311Y002396D01*
X031311Y002554D02*
X031156Y002554D01*
X031156Y002713D02*
X031311Y002713D01*
X031311Y002871D02*
X031156Y002871D01*
X032229Y001762D02*
X041097Y001762D01*
X041126Y001750D02*
X041421Y001750D01*
X041694Y001863D01*
X041902Y002071D01*
X042015Y002344D01*
X042015Y003643D01*
X041902Y003916D01*
X041694Y004125D01*
X041421Y004238D01*
X041126Y004238D01*
X040853Y004125D01*
X040644Y003916D01*
X040531Y003643D01*
X040531Y002344D01*
X040644Y002071D01*
X040853Y001863D01*
X041126Y001750D01*
X041450Y001762D02*
X056148Y001762D01*
X056107Y001920D02*
X041751Y001920D01*
X041905Y002079D02*
X056066Y002079D01*
X056040Y002237D02*
X041971Y002237D01*
X042015Y002396D02*
X056040Y002396D01*
X056040Y002554D02*
X043761Y002554D01*
X043701Y002494D02*
X043287Y002494D01*
X042994Y002787D01*
X042994Y003201D01*
X043287Y003494D01*
X043701Y003494D01*
X043994Y003201D01*
X043994Y002787D01*
X043701Y002494D01*
X043920Y002713D02*
X047181Y002713D01*
X047074Y002820D02*
X047320Y002574D01*
X047494Y002574D01*
X047668Y002574D01*
X047914Y002820D01*
X047914Y002994D01*
X047914Y003168D01*
X047668Y003414D01*
X047494Y003414D01*
X047494Y002994D01*
X047914Y002994D01*
X047494Y002994D01*
X047494Y002994D01*
X047494Y002994D01*
X047494Y003414D01*
X047320Y003414D01*
X047074Y003168D01*
X047074Y002994D01*
X047494Y002994D01*
X047494Y002574D01*
X047494Y002994D01*
X047494Y002994D01*
X047494Y002994D01*
X047074Y002994D01*
X047074Y002820D01*
X047074Y002871D02*
X043994Y002871D01*
X043994Y003030D02*
X047074Y003030D01*
X047094Y003188D02*
X043994Y003188D01*
X043848Y003347D02*
X047253Y003347D01*
X047494Y003347D02*
X047494Y003347D01*
X047494Y003188D02*
X047494Y003188D01*
X047494Y003030D02*
X047494Y003030D01*
X047494Y002871D02*
X047494Y002871D01*
X047494Y002713D02*
X047494Y002713D01*
X047807Y002713D02*
X056040Y002713D01*
X056057Y002871D02*
X047914Y002871D01*
X047914Y003030D02*
X056098Y003030D01*
X056138Y003188D02*
X047893Y003188D01*
X047735Y003347D02*
X056179Y003347D01*
X056194Y003404D02*
X056194Y003404D01*
X056249Y003505D02*
X042015Y003505D01*
X042015Y003347D02*
X043140Y003347D01*
X042994Y003188D02*
X042015Y003188D01*
X042015Y003030D02*
X042994Y003030D01*
X042994Y002871D02*
X042015Y002871D01*
X042015Y002713D02*
X043068Y002713D01*
X043226Y002554D02*
X042015Y002554D01*
X042007Y003664D02*
X056336Y003664D01*
X056423Y003822D02*
X041941Y003822D01*
X041837Y003981D02*
X056523Y003981D01*
X056492Y003948D02*
X056492Y003948D01*
X056672Y004139D02*
X041658Y004139D01*
X040888Y004139D02*
X039870Y004139D01*
X039844Y004146D02*
X039794Y004153D01*
X039794Y003074D01*
X039634Y003074D01*
X039634Y004153D01*
X039585Y004146D01*
X039501Y004124D01*
X039421Y004091D01*
X039346Y004047D01*
X039277Y003994D01*
X039215Y003933D01*
X039163Y003864D01*
X039119Y003789D01*
X039086Y003709D01*
X039064Y003625D01*
X039052Y003539D01*
X039052Y003074D01*
X039634Y003074D01*
X039634Y002914D01*
X039052Y002914D01*
X039052Y002448D01*
X039064Y002362D01*
X039086Y002278D01*
X039119Y002198D01*
X039163Y002123D01*
X039215Y002054D01*
X039277Y001993D01*
X039346Y001940D01*
X039421Y001897D01*
X039501Y001864D01*
X039585Y001841D01*
X039634Y001835D01*
X039634Y002914D01*
X039794Y002914D01*
X039794Y003074D01*
X040376Y003074D01*
X040376Y003539D01*
X040365Y003625D01*
X040342Y003709D01*
X040309Y003789D01*
X040266Y003864D01*
X040213Y003933D01*
X040152Y003994D01*
X040083Y004047D01*
X040008Y004091D01*
X039927Y004124D01*
X039844Y004146D01*
X039794Y004139D02*
X039634Y004139D01*
X039558Y004139D02*
X032438Y004139D01*
X032617Y003981D02*
X039263Y003981D01*
X039138Y003822D02*
X032721Y003822D01*
X032786Y003664D02*
X039074Y003664D01*
X039052Y003505D02*
X032795Y003505D01*
X032795Y003347D02*
X039052Y003347D01*
X039052Y003188D02*
X032795Y003188D01*
X032795Y003030D02*
X039634Y003030D01*
X039634Y003188D02*
X039794Y003188D01*
X039794Y003030D02*
X040531Y003030D01*
X040531Y003188D02*
X040376Y003188D01*
X040376Y003347D02*
X040531Y003347D01*
X040531Y003505D02*
X040376Y003505D01*
X040354Y003664D02*
X040540Y003664D01*
X040605Y003822D02*
X040290Y003822D01*
X040165Y003981D02*
X040709Y003981D01*
X039794Y003981D02*
X039634Y003981D01*
X039634Y003822D02*
X039794Y003822D01*
X039794Y003664D02*
X039634Y003664D01*
X039634Y003505D02*
X039794Y003505D01*
X039794Y003347D02*
X039634Y003347D01*
X039794Y002914D02*
X040376Y002914D01*
X040376Y002448D01*
X040365Y002362D01*
X040342Y002278D01*
X040309Y002198D01*
X040266Y002123D01*
X040213Y002054D01*
X040152Y001993D01*
X040083Y001940D01*
X040008Y001897D01*
X039927Y001864D01*
X039844Y001841D01*
X039794Y001835D01*
X039794Y002914D01*
X039794Y002871D02*
X039634Y002871D01*
X039634Y002713D02*
X039794Y002713D01*
X039794Y002554D02*
X039634Y002554D01*
X039634Y002396D02*
X039794Y002396D01*
X039794Y002237D02*
X039634Y002237D01*
X039634Y002079D02*
X039794Y002079D01*
X039794Y001920D02*
X039634Y001920D01*
X039380Y001920D02*
X032531Y001920D01*
X032685Y002079D02*
X039197Y002079D01*
X039103Y002237D02*
X032750Y002237D01*
X032795Y002396D02*
X039059Y002396D01*
X039052Y002554D02*
X032795Y002554D01*
X032795Y002713D02*
X039052Y002713D01*
X039052Y002871D02*
X032795Y002871D01*
X028758Y001762D02*
X021450Y001762D01*
X021421Y001750D02*
X021694Y001863D01*
X021902Y002071D01*
X022015Y002344D01*
X022015Y003643D01*
X021902Y003916D01*
X021694Y004125D01*
X021421Y004238D01*
X021126Y004238D01*
X020853Y004125D01*
X020644Y003916D01*
X020531Y003643D01*
X020531Y002344D01*
X020644Y002071D01*
X020853Y001863D01*
X021126Y001750D01*
X021421Y001750D01*
X021097Y001762D02*
X004843Y001762D01*
X004895Y001920D02*
X019380Y001920D01*
X019346Y001940D02*
X019421Y001897D01*
X019501Y001864D01*
X019585Y001841D01*
X019634Y001835D01*
X019634Y002914D01*
X019052Y002914D01*
X019052Y002448D01*
X019064Y002362D01*
X019086Y002278D01*
X019119Y002198D01*
X019163Y002123D01*
X019215Y002054D01*
X019277Y001993D01*
X019346Y001940D01*
X019197Y002079D02*
X004915Y002079D01*
X004935Y002237D02*
X019103Y002237D01*
X019059Y002396D02*
X004955Y002396D01*
X004960Y002554D02*
X019052Y002554D01*
X019052Y002713D02*
X004940Y002713D01*
X004920Y002871D02*
X019052Y002871D01*
X019052Y003074D02*
X019634Y003074D01*
X019634Y004153D01*
X019585Y004146D01*
X019501Y004124D01*
X019421Y004091D01*
X019346Y004047D01*
X019277Y003994D01*
X019215Y003933D01*
X019163Y003864D01*
X019119Y003789D01*
X019086Y003709D01*
X019064Y003625D01*
X019052Y003539D01*
X019052Y003074D01*
X019052Y003188D02*
X004858Y003188D01*
X004890Y003109D02*
X004890Y003109D01*
X004900Y003030D02*
X019634Y003030D01*
X019634Y003074D02*
X019634Y002914D01*
X019794Y002914D01*
X019794Y003074D01*
X019634Y003074D01*
X019634Y003188D02*
X019794Y003188D01*
X019794Y003074D02*
X019794Y004153D01*
X019844Y004146D01*
X019927Y004124D01*
X020008Y004091D01*
X020083Y004047D01*
X020152Y003994D01*
X020213Y003933D01*
X020266Y003864D01*
X020309Y003789D01*
X020342Y003709D01*
X020365Y003625D01*
X020376Y003539D01*
X020376Y003074D01*
X019794Y003074D01*
X019794Y003030D02*
X020531Y003030D01*
X020531Y003188D02*
X020376Y003188D01*
X020376Y003347D02*
X020531Y003347D01*
X020531Y003505D02*
X020376Y003505D01*
X020354Y003664D02*
X020540Y003664D01*
X020605Y003822D02*
X020290Y003822D01*
X020165Y003981D02*
X020709Y003981D01*
X020888Y004139D02*
X019870Y004139D01*
X019794Y004139D02*
X019634Y004139D01*
X019558Y004139D02*
X004332Y004139D01*
X004297Y004187D02*
X004297Y004187D01*
X004163Y004298D02*
X056821Y004298D01*
X057006Y004456D02*
X003972Y004456D01*
X003819Y004582D02*
X003819Y004582D01*
X003750Y004615D02*
X057256Y004615D01*
X059258Y004846D02*
X059258Y004846D01*
X059414Y004773D02*
X060254Y004773D01*
X060254Y004615D02*
X059750Y004615D01*
X059819Y004582D02*
X059819Y004582D01*
X059972Y004456D02*
X060254Y004456D01*
X060254Y004298D02*
X060163Y004298D01*
X056189Y001603D02*
X004781Y001603D01*
X004718Y001445D02*
X056270Y001445D01*
X056357Y001286D02*
X004650Y001286D01*
X004661Y001302D02*
X004661Y001302D01*
X004535Y001128D02*
X056444Y001128D01*
X056559Y000969D02*
X004420Y000969D01*
X004304Y000811D02*
X056707Y000811D01*
X050167Y011113D02*
X049320Y011113D01*
X049479Y011272D02*
X050009Y011272D01*
X049994Y011430D02*
X049494Y011430D01*
X049494Y011589D02*
X049994Y011589D01*
X050040Y011747D02*
X049447Y011747D01*
X049289Y011906D02*
X050199Y011906D01*
X057796Y011589D02*
X060254Y011589D01*
X060254Y011747D02*
X057954Y011747D01*
X057994Y011906D02*
X060254Y011906D01*
X060254Y012064D02*
X057994Y012064D01*
X057972Y012223D02*
X060254Y012223D01*
X060254Y012381D02*
X057813Y012381D01*
X040531Y002871D02*
X040376Y002871D01*
X040376Y002713D02*
X040531Y002713D01*
X040531Y002554D02*
X040376Y002554D01*
X040369Y002396D02*
X040531Y002396D01*
X040576Y002237D02*
X040325Y002237D01*
X040232Y002079D02*
X040641Y002079D01*
X040795Y001920D02*
X040048Y001920D01*
X028457Y001920D02*
X021751Y001920D01*
X021905Y002079D02*
X028303Y002079D01*
X028237Y002237D02*
X021971Y002237D01*
X022015Y002396D02*
X028193Y002396D01*
X028193Y002554D02*
X024011Y002554D01*
X023951Y002494D02*
X024244Y002787D01*
X024244Y003201D01*
X023951Y003494D01*
X023537Y003494D01*
X023244Y003201D01*
X023244Y002787D01*
X023537Y002494D01*
X023951Y002494D01*
X024170Y002713D02*
X028193Y002713D01*
X028193Y002871D02*
X024244Y002871D01*
X024244Y003030D02*
X028193Y003030D01*
X028193Y003188D02*
X024244Y003188D01*
X024098Y003347D02*
X028193Y003347D01*
X028193Y003505D02*
X022015Y003505D01*
X022015Y003347D02*
X023390Y003347D01*
X023244Y003188D02*
X022015Y003188D01*
X022015Y003030D02*
X023244Y003030D01*
X023244Y002871D02*
X022015Y002871D01*
X022015Y002713D02*
X023318Y002713D01*
X023476Y002554D02*
X022015Y002554D01*
X022007Y003664D02*
X028201Y003664D01*
X028267Y003822D02*
X021941Y003822D01*
X021837Y003981D02*
X028370Y003981D01*
X028549Y004139D02*
X021658Y004139D01*
X020531Y002871D02*
X020376Y002871D01*
X020376Y002914D02*
X019794Y002914D01*
X019794Y001835D01*
X019844Y001841D01*
X019927Y001864D01*
X020008Y001897D01*
X020083Y001940D01*
X020152Y001993D01*
X020213Y002054D01*
X020266Y002123D01*
X020309Y002198D01*
X020342Y002278D01*
X020365Y002362D01*
X020376Y002448D01*
X020376Y002914D01*
X020376Y002713D02*
X020531Y002713D01*
X020531Y002554D02*
X020376Y002554D01*
X020369Y002396D02*
X020531Y002396D01*
X020576Y002237D02*
X020325Y002237D01*
X020232Y002079D02*
X020641Y002079D01*
X020795Y001920D02*
X020048Y001920D01*
X019794Y001920D02*
X019634Y001920D01*
X019634Y002079D02*
X019794Y002079D01*
X019794Y002237D02*
X019634Y002237D01*
X019634Y002396D02*
X019794Y002396D01*
X019794Y002554D02*
X019634Y002554D01*
X019634Y002713D02*
X019794Y002713D01*
X019794Y002871D02*
X019634Y002871D01*
X019634Y003347D02*
X019794Y003347D01*
X019794Y003505D02*
X019634Y003505D01*
X019634Y003664D02*
X019794Y003664D01*
X019794Y003822D02*
X019634Y003822D01*
X019634Y003981D02*
X019794Y003981D01*
X019263Y003981D02*
X004447Y003981D01*
X004562Y003822D02*
X019138Y003822D01*
X019074Y003664D02*
X004670Y003664D01*
X004733Y003505D02*
X019052Y003505D01*
X019052Y003347D02*
X004796Y003347D01*
X002649Y004963D02*
X002649Y004963D01*
X010858Y007151D02*
X011630Y007151D01*
X011494Y007309D02*
X010994Y007309D01*
X010994Y007468D02*
X011494Y007468D01*
X011494Y007626D02*
X010994Y007626D01*
X010910Y007785D02*
X011578Y007785D01*
X011736Y007943D02*
X010751Y007943D01*
X025968Y017453D02*
X026907Y017453D01*
X026754Y017295D02*
X026082Y017295D01*
X016366Y027325D02*
X016254Y027597D01*
D24*
X015494Y022994D02*
X015494Y018494D01*
X016994Y018494D02*
X016994Y020744D01*
X016994Y007994D02*
X016994Y005994D01*
X055494Y005994D02*
X055494Y007994D01*
D25*
X016994Y018494D03*
X015494Y018494D03*
X015494Y022994D03*
M02*
