G75*
G70*
%OFA0B0*%
%FSLAX24Y24*%
%IPPOS*%
%LPD*%
%AMOC8*
5,1,8,0,0,1.08239X$1,22.5*
%
%ADD10C,0.0520*%
%ADD11C,0.1000*%
%ADD12OC8,0.0520*%
%ADD13OC8,0.0600*%
%ADD14OC8,0.0780*%
%ADD15C,0.0600*%
%ADD16OC8,0.1000*%
%ADD17C,0.1004*%
%ADD18OC8,0.0705*%
%ADD19C,0.1810*%
%ADD20OC8,0.1810*%
%ADD21C,0.3150*%
%ADD22C,0.0560*%
%ADD23C,0.0320*%
%ADD24C,0.0396*%
D10*
X005494Y007734D02*
X005494Y008254D01*
X006494Y008254D02*
X006494Y007734D01*
X007494Y007734D02*
X007494Y008254D01*
X008494Y008254D02*
X008494Y007734D01*
X008494Y010734D02*
X008494Y011254D01*
X007494Y011254D02*
X007494Y010734D01*
X006494Y010734D02*
X006494Y011254D01*
X005494Y011254D02*
X005494Y010734D01*
X013994Y010734D02*
X013994Y011254D01*
X014994Y011254D02*
X014994Y010734D01*
X015994Y010734D02*
X015994Y011254D01*
X016994Y011254D02*
X016994Y010734D01*
X016994Y008254D02*
X016994Y007734D01*
X015994Y007734D02*
X015994Y008254D01*
X014994Y008254D02*
X014994Y007734D01*
X013994Y007734D02*
X013994Y008254D01*
X043994Y008254D02*
X043994Y007734D01*
X044994Y007734D02*
X044994Y008254D01*
X045994Y008254D02*
X045994Y007734D01*
X046994Y007734D02*
X046994Y008254D01*
X046994Y010734D02*
X046994Y011254D01*
X045994Y011254D02*
X045994Y010734D01*
X044994Y010734D02*
X044994Y011254D01*
X043994Y011254D02*
X043994Y010734D01*
X052494Y010734D02*
X052494Y011254D01*
X053494Y011254D02*
X053494Y010734D01*
X054494Y010734D02*
X054494Y011254D01*
X055494Y011254D02*
X055494Y010734D01*
X055494Y008254D02*
X055494Y007734D01*
X054494Y007734D02*
X054494Y008254D01*
X053494Y008254D02*
X053494Y007734D01*
X052494Y007734D02*
X052494Y008254D01*
D11*
X046994Y020744D03*
X048994Y022744D03*
X048994Y025744D03*
X046994Y027744D03*
X043994Y027744D03*
X041994Y025744D03*
X041994Y022744D03*
X043994Y020744D03*
X033494Y016994D03*
X025494Y016994D03*
X018994Y022744D03*
X016994Y020744D03*
X013994Y020744D03*
X011994Y022744D03*
X011994Y025744D03*
X013994Y027744D03*
X016994Y027744D03*
X018994Y025744D03*
X025494Y009244D03*
X033494Y009244D03*
X032147Y046994D03*
X030494Y046994D03*
X028840Y046994D03*
X012647Y046994D03*
X010994Y046994D03*
X009340Y046994D03*
X048340Y046994D03*
X049994Y046994D03*
X051647Y046994D03*
D12*
X051494Y043494D03*
X048994Y043494D03*
X048994Y039494D03*
X051494Y039494D03*
X053994Y026244D03*
X053994Y022244D03*
X058744Y022244D03*
X058744Y026244D03*
X053994Y016494D03*
X055494Y014494D03*
X055494Y012494D03*
X053994Y012494D03*
X052494Y012494D03*
X052494Y014494D03*
X050494Y011494D03*
X048994Y011494D03*
X046994Y012494D03*
X045494Y012494D03*
X043994Y012494D03*
X043994Y014494D03*
X045494Y016494D03*
X046994Y014494D03*
X048994Y007494D03*
X050494Y007494D03*
X053494Y005994D03*
X055494Y005994D03*
X057494Y007994D03*
X057494Y011994D03*
X046994Y005994D03*
X044994Y005994D03*
X043494Y002994D03*
X047494Y002994D03*
X031744Y008244D03*
X031744Y010244D03*
X029244Y010244D03*
X029244Y008244D03*
X023744Y006994D03*
X018994Y007994D03*
X016994Y005994D03*
X014994Y005994D03*
X011994Y007494D03*
X010494Y007494D03*
X008494Y005994D03*
X006494Y005994D03*
X010494Y011494D03*
X011994Y011494D03*
X013994Y012494D03*
X015494Y012494D03*
X016994Y012494D03*
X016994Y014494D03*
X015494Y016494D03*
X013994Y014494D03*
X008494Y014494D03*
X008494Y012494D03*
X006994Y012494D03*
X005494Y012494D03*
X005494Y014494D03*
X006994Y016494D03*
X006994Y022244D03*
X006994Y026244D03*
X002244Y026244D03*
X002244Y022244D03*
X018994Y011994D03*
X023994Y019994D03*
X023994Y021994D03*
X023994Y023994D03*
X023994Y025994D03*
X029244Y017994D03*
X029244Y015994D03*
X035244Y015994D03*
X035244Y017994D03*
X036994Y019994D03*
X036994Y021994D03*
X036994Y023994D03*
X036994Y025994D03*
X011994Y039494D03*
X009494Y039494D03*
X009494Y043494D03*
X011994Y043494D03*
X023744Y002994D03*
D13*
X011994Y031994D03*
X009494Y031994D03*
X009494Y037994D03*
X011994Y037994D03*
X048994Y037994D03*
X051494Y037994D03*
X051494Y031994D03*
X048994Y031994D03*
D14*
X042994Y033344D03*
X056494Y029844D03*
X056494Y044644D03*
X042994Y048144D03*
X017994Y048144D03*
X004494Y044644D03*
X017994Y033344D03*
X004494Y029844D03*
D15*
X004444Y025244D02*
X005044Y025244D01*
X005044Y024244D02*
X004444Y024244D01*
X004444Y023244D02*
X005044Y023244D01*
X026494Y013294D02*
X026494Y012694D01*
X027494Y012694D02*
X027494Y013294D01*
X028494Y013294D02*
X028494Y012694D01*
X032494Y012694D02*
X032494Y013294D01*
X033494Y013294D02*
X033494Y012694D01*
X034494Y012694D02*
X034494Y013294D01*
X056194Y023244D02*
X056794Y023244D01*
X056794Y024244D02*
X056194Y024244D01*
X056194Y025244D02*
X056794Y025244D01*
D16*
X035494Y009244D03*
X027494Y009244D03*
X027494Y016994D03*
X031494Y016994D03*
D17*
X032053Y003496D02*
X032053Y002492D01*
X030494Y002492D02*
X030494Y003496D01*
X028935Y003496D02*
X028935Y002492D01*
X021273Y002492D02*
X021273Y003496D01*
X019714Y003496D02*
X019714Y002492D01*
X003496Y017964D02*
X002492Y017964D01*
X002492Y019523D02*
X003496Y019523D01*
X039714Y003496D02*
X039714Y002492D01*
X041273Y002492D02*
X041273Y003496D01*
D18*
X033494Y020344D03*
X027494Y020344D03*
X027494Y033144D03*
X033494Y033144D03*
D19*
X037119Y039494D03*
X023869Y039494D03*
D20*
X027869Y039494D03*
X033119Y039494D03*
D21*
X002494Y002494D03*
X002494Y048494D03*
X058494Y048494D03*
X058494Y002494D03*
D22*
X043994Y020744D02*
X041744Y020744D01*
X039994Y022494D01*
X036994Y022494D01*
X036994Y021994D01*
X036994Y022494D02*
X023994Y022494D01*
X023994Y021994D01*
X023994Y022494D02*
X022244Y022494D01*
X019244Y019494D01*
X015244Y019494D01*
X013994Y020744D01*
X012744Y020744D01*
X009964Y017964D01*
X002994Y017964D01*
X002994Y019523D02*
X009523Y019523D01*
X011994Y021994D01*
X011994Y022744D01*
X011994Y021994D02*
X017744Y021994D01*
X018494Y021244D01*
X019494Y021244D01*
X021744Y023494D01*
X023994Y023494D01*
X023994Y023994D01*
X023994Y023494D02*
X036994Y023494D01*
X036994Y023994D01*
X036994Y023494D02*
X041244Y023494D01*
X041994Y022744D01*
X047494Y024244D02*
X047494Y026244D01*
X051094Y029844D01*
X051494Y029844D01*
X051494Y031994D01*
X051494Y029844D02*
X056494Y029844D01*
X058744Y026244D02*
X058744Y025244D01*
X057744Y024244D01*
X056494Y024244D01*
X056494Y025244D02*
X054494Y025244D01*
X053994Y025744D01*
X053994Y026244D01*
X053994Y025744D02*
X048994Y025744D01*
X047494Y024244D02*
X048994Y022744D01*
X043994Y027744D02*
X043994Y031994D01*
X042994Y032994D01*
X042994Y033344D01*
X043994Y031994D02*
X048994Y031994D01*
X048994Y037994D02*
X037119Y037994D01*
X037119Y036769D01*
X033494Y033144D01*
X027494Y033144D02*
X023869Y036769D01*
X023869Y037994D01*
X011994Y037994D01*
X009494Y037994D01*
X009494Y043494D02*
X009340Y043647D01*
X009340Y044644D01*
X009340Y046994D01*
X009340Y044644D02*
X004494Y044644D01*
X011994Y043494D02*
X012494Y043494D01*
X013994Y044994D01*
X013994Y046994D01*
X016844Y046994D01*
X017994Y048144D01*
X013994Y046994D02*
X012647Y046994D01*
X023869Y042022D02*
X023869Y039494D01*
X023869Y037994D01*
X023869Y042022D02*
X028840Y046994D01*
X032147Y046994D02*
X037119Y042022D01*
X037119Y039494D01*
X037119Y037994D01*
X048340Y044147D02*
X048340Y046994D01*
X047190Y048144D01*
X042994Y048144D01*
X048340Y044147D02*
X048994Y043494D01*
X051494Y043494D02*
X052644Y044644D01*
X052744Y044644D01*
X052744Y045897D01*
X051647Y046994D01*
X052744Y044644D02*
X056494Y044644D01*
X051494Y037994D02*
X048994Y037994D01*
X033494Y016994D02*
X034494Y015994D01*
X035244Y015994D01*
X034494Y015994D02*
X034494Y014494D01*
X034494Y012994D01*
X032494Y012994D02*
X032494Y010244D01*
X033494Y009244D01*
X033494Y007994D01*
X032053Y006553D01*
X032053Y002994D01*
X028935Y002994D02*
X028935Y006553D01*
X027494Y007994D01*
X027494Y009244D01*
X027494Y010244D01*
X029244Y010244D01*
X027494Y010244D02*
X027494Y012994D01*
X028494Y012994D02*
X028494Y014494D01*
X028494Y015994D01*
X027494Y016994D01*
X028494Y015994D02*
X029244Y015994D01*
X031744Y010244D02*
X032494Y010244D01*
X018994Y022744D02*
X020994Y024744D01*
X020994Y028994D01*
X017994Y031994D01*
X017994Y033344D01*
X017994Y031994D02*
X011994Y031994D01*
X011894Y029844D02*
X009494Y029844D01*
X009494Y031994D01*
X009494Y029844D02*
X004494Y029844D01*
X002244Y026244D02*
X002244Y025244D01*
X003244Y024244D01*
X004744Y024244D01*
X004744Y025244D02*
X006494Y025244D01*
X006994Y025744D01*
X006994Y026244D01*
X006994Y025744D02*
X011994Y025744D01*
X013994Y027744D02*
X011894Y029844D01*
D23*
X015494Y026244D02*
X016994Y027744D01*
X015494Y026244D02*
X015494Y022994D01*
X015494Y018494D02*
X013494Y016494D01*
X006994Y016494D01*
X007994Y015744D02*
X005494Y013244D01*
X005494Y012494D01*
X006494Y011494D01*
X006494Y010994D01*
X005494Y010994D02*
X005494Y007994D01*
X006494Y007994D02*
X006494Y008744D01*
X006744Y008994D01*
X010494Y008994D01*
X011994Y010494D01*
X011994Y011494D01*
X012244Y012494D02*
X008994Y015744D01*
X007994Y015744D01*
X008494Y014494D02*
X008494Y013994D01*
X006994Y012494D01*
X007494Y011994D01*
X007494Y010994D01*
X007494Y010244D01*
X007744Y009994D01*
X008994Y009994D01*
X010494Y011494D01*
X012244Y012494D02*
X013994Y012494D01*
X014494Y012494D01*
X014494Y013494D01*
X017994Y016994D01*
X023744Y016994D01*
X025744Y018994D01*
X031494Y018994D01*
X033494Y016994D01*
X034494Y014494D02*
X042744Y014494D01*
X043994Y013244D01*
X043994Y012494D01*
X044994Y011494D01*
X044994Y010994D01*
X043994Y010994D02*
X043994Y007994D01*
X044994Y007994D02*
X044994Y008744D01*
X045244Y008994D01*
X048994Y008994D01*
X048994Y007494D01*
X050494Y007494D02*
X050494Y006994D01*
X050744Y006744D01*
X053244Y006744D01*
X053494Y006994D01*
X053494Y007994D01*
X053494Y008744D01*
X053744Y008994D01*
X056494Y008994D01*
X057494Y007994D01*
X055994Y006744D02*
X056494Y006244D01*
X056494Y004494D01*
X055994Y003994D01*
X044494Y003994D01*
X043494Y002994D01*
X041273Y002994D01*
X046994Y005994D02*
X047744Y005244D01*
X054744Y005244D01*
X055494Y005994D01*
X055994Y006744D02*
X054744Y006744D01*
X054494Y006994D01*
X054494Y007994D01*
X052494Y007994D02*
X052494Y010994D01*
X053494Y010994D02*
X053494Y011494D01*
X052494Y012494D01*
X050744Y012494D01*
X047494Y015744D01*
X046494Y015744D01*
X043994Y013244D01*
X045494Y012494D02*
X046994Y013994D01*
X046994Y014494D01*
X046994Y012494D02*
X046994Y010994D01*
X045994Y010994D02*
X045994Y011994D01*
X045494Y012494D01*
X045994Y010994D02*
X045994Y010244D01*
X046244Y009994D01*
X047494Y009994D01*
X048994Y011494D01*
X050494Y011494D02*
X050494Y010494D01*
X048994Y008994D01*
X046994Y007994D02*
X046994Y006744D01*
X034244Y006744D01*
X033744Y006244D01*
X033744Y001744D01*
X033244Y001244D01*
X025244Y001244D01*
X024744Y001744D01*
X024744Y004244D01*
X022244Y006744D01*
X024244Y008744D01*
X024244Y013994D01*
X024744Y014494D01*
X028494Y014494D01*
X018994Y011994D02*
X017494Y013494D01*
X016994Y013494D01*
X016494Y013494D01*
X015994Y012994D01*
X015994Y012494D01*
X015494Y012494D01*
X015994Y012494D02*
X015994Y010994D01*
X016994Y010994D02*
X016994Y012494D01*
X016994Y013494D02*
X016994Y014494D01*
X015494Y016494D02*
X016994Y017994D01*
X016994Y018494D01*
X014494Y012494D02*
X014494Y011994D01*
X014994Y011494D01*
X014994Y010994D01*
X013994Y010994D02*
X013994Y007994D01*
X014994Y007994D02*
X014994Y006994D01*
X014744Y006744D01*
X012244Y006744D01*
X011994Y006994D01*
X011994Y007494D01*
X010494Y007494D02*
X010494Y008994D01*
X008494Y007994D02*
X008494Y005994D01*
X009244Y005244D01*
X016244Y005244D01*
X016994Y005994D01*
X017494Y006744D02*
X016244Y006744D01*
X015994Y006994D01*
X015994Y007994D01*
X016994Y007994D02*
X017494Y007994D01*
X018744Y006744D01*
X022244Y006744D01*
X020744Y005744D02*
X018494Y005744D01*
X017494Y006744D01*
X018994Y007994D02*
X017994Y008994D01*
X015244Y008994D01*
X014994Y008744D01*
X014994Y007994D01*
X020744Y005744D02*
X021273Y005214D01*
X021273Y002994D01*
X023744Y002994D01*
X008494Y010994D02*
X008494Y012494D01*
X045494Y016494D02*
X045494Y026244D01*
X046994Y027744D01*
X046994Y020744D02*
X051244Y016494D01*
X053994Y016494D01*
X055494Y014494D02*
X055494Y013494D01*
X055994Y013494D01*
X057494Y011994D01*
X055494Y012494D02*
X055494Y010994D01*
X054494Y010994D02*
X054494Y012494D01*
X053994Y012494D01*
X054494Y012494D02*
X054494Y012994D01*
X054994Y013494D01*
X055494Y013494D01*
X046994Y006744D02*
X046994Y005994D01*
D24*
X016994Y018494D03*
X015494Y018494D03*
X015494Y022994D03*
M02*
