%
M48
M72
T01C0.0197
T02C0.0320
T03C0.0394
T04C0.1260
%
T01
X12963Y2680
X15088Y3118
X16525Y4055
X18775Y3555
X19463Y3555
X17838Y4868
X18775Y5430
X17025Y6180
X15338Y5743
X16025Y5430
X12713Y5930
X12713Y6555
X11025Y6993
X16463Y7055
X19400Y6930
X19400Y7805
X19963Y8368
X20775Y8368
X21588Y8368
X22400Y8368
X23213Y8368
X24025Y8368
X24838Y8368
X25650Y8368
X26463Y8368
X27275Y8368
X28088Y8368
X28900Y8368
X29713Y8368
X30525Y8368
X31338Y8368
X32150Y8368
X32963Y8368
X33775Y8368
X34588Y8368
X35400Y8368
X36213Y8368
X37025Y8368
X37838Y8368
X38650Y8368
X38650Y9743
X37838Y9743
X37025Y9743
X36213Y9743
X35400Y9743
X34588Y9743
X33775Y9743
X32963Y9743
X32150Y9743
X31338Y9743
X30525Y9743
X29713Y9743
X28900Y9743
X28088Y9743
X27275Y9743
X26463Y9743
X25650Y9743
X24838Y9743
X24025Y9743
X23213Y9743
X22400Y9743
X21588Y9743
X20775Y9743
X19963Y9743
X19213Y9555
X18650Y8993
X18088Y8430
X16463Y8305
X15338Y8868
X12713Y9055
X11025Y8868
X12713Y9680
X21088Y5680
X21775Y5680
X24400Y5368
X25088Y5368
X27213Y5368
X27900Y5368
X31400Y4555
X32025Y4555
X33525Y4680
X35025Y4805
X35650Y4805
X29338Y3055
X28650Y3055
X11025Y3868
T02
X31588Y6055
X31588Y7055
T03
X39444Y4796
X39444Y3064
T04
X36513Y6555
X17213Y3055
X17213Y10055
M30
